%TF.GenerationSoftware,KiCad,Pcbnew,7.0.10*%
%TF.CreationDate,2024-02-21T22:44:58-06:00*%
%TF.ProjectId,Dual_VCA,4475616c-5f56-4434-912e-6b696361645f,rev?*%
%TF.SameCoordinates,Original*%
%TF.FileFunction,Copper,L1,Top*%
%TF.FilePolarity,Positive*%
%FSLAX46Y46*%
G04 Gerber Fmt 4.6, Leading zero omitted, Abs format (unit mm)*
G04 Created by KiCad (PCBNEW 7.0.10) date 2024-02-21 22:44:58*
%MOMM*%
%LPD*%
G01*
G04 APERTURE LIST*
%TA.AperFunction,WasherPad*%
%ADD10C,8.000000*%
%TD*%
%TA.AperFunction,WasherPad*%
%ADD11C,7.000000*%
%TD*%
%TA.AperFunction,ComponentPad*%
%ADD12O,7.000000X4.200000*%
%TD*%
G04 APERTURE END LIST*
D10*
%TO.P,REF\u002A\u002A,*%
%TO.N,*%
X230420000Y-79670000D03*
%TD*%
D11*
%TO.P,REF\u002A\u002A,*%
%TO.N,*%
X209480000Y-148025000D03*
%TD*%
%TO.P,REF\u002A\u002A,*%
%TO.N,*%
X231380000Y-133575000D03*
%TD*%
%TO.P,REF\u002A\u002A,*%
%TO.N,*%
X220430000Y-133575000D03*
%TD*%
%TO.P,REF\u002A\u002A,*%
%TO.N,*%
X220430000Y-148025000D03*
%TD*%
%TO.P,REF\u002A\u002A,*%
%TO.N,*%
X209480000Y-133575000D03*
%TD*%
D10*
%TO.P,REF\u002A\u002A,*%
%TO.N,*%
X210430000Y-59675000D03*
%TD*%
D11*
%TO.P,REF\u002A\u002A,*%
%TO.N,*%
X231380000Y-148025000D03*
%TD*%
D12*
%TO.P,REF\u002A\u002A,*%
%TO.N,*%
X207930000Y-43255000D03*
X207930000Y-165731000D03*
X232935000Y-43255000D03*
X232935000Y-165755000D03*
%TD*%
%TA.AperFunction,NonConductor*%
G36*
X240372539Y-40275185D02*
G01*
X240418294Y-40327989D01*
X240429500Y-40379500D01*
X240429500Y-168630500D01*
X240409815Y-168697539D01*
X240357011Y-168743294D01*
X240305500Y-168754500D01*
X200554500Y-168754500D01*
X200487461Y-168734815D01*
X200441706Y-168682011D01*
X200430500Y-168630500D01*
X200430500Y-165811236D01*
X203925793Y-165811236D01*
X203955391Y-166130651D01*
X203955392Y-166130657D01*
X204024018Y-166444013D01*
X204106333Y-166677603D01*
X204130634Y-166746564D01*
X204273621Y-167033721D01*
X204450812Y-167301130D01*
X204659522Y-167544737D01*
X204896586Y-167760849D01*
X204896589Y-167760851D01*
X205158405Y-167946187D01*
X205158415Y-167946193D01*
X205441016Y-168097948D01*
X205441022Y-168097950D01*
X205441029Y-168097954D01*
X205602490Y-168160504D01*
X205740144Y-168213832D01*
X205740147Y-168213832D01*
X205740153Y-168213835D01*
X206051251Y-168292079D01*
X206170634Y-168306861D01*
X206369602Y-168331500D01*
X206369607Y-168331500D01*
X209410112Y-168331500D01*
X209410126Y-168331500D01*
X209650178Y-168316694D01*
X209965503Y-168257750D01*
X210271194Y-168160502D01*
X210562618Y-168026426D01*
X210835356Y-167857554D01*
X211085275Y-167656445D01*
X211308585Y-167426148D01*
X211501903Y-167170155D01*
X211662296Y-166892345D01*
X211787334Y-166596931D01*
X211875122Y-166288390D01*
X211924328Y-165971400D01*
X211928523Y-165835236D01*
X228930793Y-165835236D01*
X228960391Y-166154651D01*
X228960392Y-166154657D01*
X229029018Y-166468013D01*
X229074448Y-166596931D01*
X229135634Y-166770564D01*
X229278621Y-167057721D01*
X229455812Y-167325130D01*
X229664522Y-167568737D01*
X229846674Y-167734790D01*
X229875252Y-167760843D01*
X229901586Y-167784849D01*
X229901589Y-167784851D01*
X230163405Y-167970187D01*
X230163415Y-167970193D01*
X230446016Y-168121948D01*
X230446022Y-168121950D01*
X230446029Y-168121954D01*
X230607490Y-168184504D01*
X230745144Y-168237832D01*
X230745147Y-168237832D01*
X230745153Y-168237835D01*
X231056251Y-168316079D01*
X231175634Y-168330861D01*
X231374602Y-168355500D01*
X231374607Y-168355500D01*
X234415112Y-168355500D01*
X234415126Y-168355500D01*
X234655178Y-168340694D01*
X234970503Y-168281750D01*
X235276194Y-168184502D01*
X235567618Y-168050426D01*
X235840356Y-167881554D01*
X236090275Y-167680445D01*
X236313585Y-167450148D01*
X236506903Y-167194155D01*
X236667296Y-166916345D01*
X236792334Y-166620931D01*
X236880122Y-166312390D01*
X236929328Y-165995400D01*
X236939206Y-165674765D01*
X236909608Y-165355347D01*
X236875063Y-165197610D01*
X236840981Y-165041986D01*
X236811974Y-164959671D01*
X236734366Y-164739436D01*
X236591379Y-164452279D01*
X236414188Y-164184870D01*
X236205478Y-163941263D01*
X236036049Y-163786808D01*
X235968420Y-163725156D01*
X235968410Y-163725148D01*
X235706594Y-163539812D01*
X235706584Y-163539806D01*
X235423983Y-163388051D01*
X235423973Y-163388047D01*
X235423971Y-163388046D01*
X235355805Y-163361638D01*
X235124855Y-163272167D01*
X235124851Y-163272166D01*
X234813745Y-163193920D01*
X234495398Y-163154500D01*
X234495393Y-163154500D01*
X231454874Y-163154500D01*
X231402156Y-163157751D01*
X231214824Y-163169305D01*
X230899499Y-163228249D01*
X230899497Y-163228250D01*
X230593814Y-163325495D01*
X230593810Y-163325496D01*
X230593806Y-163325498D01*
X230419928Y-163405494D01*
X230302381Y-163459574D01*
X230029656Y-163628437D01*
X230029636Y-163628451D01*
X229779728Y-163829551D01*
X229556413Y-164059853D01*
X229363095Y-164315847D01*
X229202701Y-164593660D01*
X229077668Y-164889062D01*
X229077660Y-164889086D01*
X228989879Y-165197602D01*
X228989878Y-165197607D01*
X228940672Y-165514592D01*
X228940671Y-165514603D01*
X228930793Y-165835236D01*
X211928523Y-165835236D01*
X211934206Y-165650765D01*
X211904608Y-165331347D01*
X211875319Y-165197610D01*
X211835981Y-165017986D01*
X211790552Y-164889069D01*
X211729366Y-164715436D01*
X211586379Y-164428279D01*
X211409188Y-164160870D01*
X211200478Y-163917263D01*
X211031049Y-163762808D01*
X210963420Y-163701156D01*
X210963410Y-163701148D01*
X210701594Y-163515812D01*
X210701584Y-163515806D01*
X210418983Y-163364051D01*
X210418973Y-163364047D01*
X210418971Y-163364046D01*
X210319467Y-163325498D01*
X210119855Y-163248167D01*
X210119851Y-163248166D01*
X209808745Y-163169920D01*
X209490398Y-163130500D01*
X209490393Y-163130500D01*
X206449874Y-163130500D01*
X206397156Y-163133751D01*
X206209824Y-163145305D01*
X205894499Y-163204249D01*
X205894497Y-163204250D01*
X205588814Y-163301495D01*
X205588810Y-163301496D01*
X205588806Y-163301498D01*
X205414928Y-163381494D01*
X205297381Y-163435574D01*
X205024656Y-163604437D01*
X205024636Y-163604451D01*
X204774728Y-163805551D01*
X204551413Y-164035853D01*
X204358095Y-164291847D01*
X204197701Y-164569660D01*
X204072668Y-164865062D01*
X204072660Y-164865086D01*
X203984879Y-165173602D01*
X203984878Y-165173607D01*
X203935672Y-165490592D01*
X203935671Y-165490603D01*
X203925793Y-165811236D01*
X200430500Y-165811236D01*
X200430500Y-148025000D01*
X205474675Y-148025000D01*
X205493962Y-148417591D01*
X205493962Y-148417597D01*
X205493963Y-148417599D01*
X205551637Y-148806406D01*
X205647143Y-149187684D01*
X205779561Y-149557770D01*
X205779562Y-149557772D01*
X205947620Y-149913100D01*
X206149692Y-150250236D01*
X206383846Y-150565956D01*
X206647807Y-150857192D01*
X206939043Y-151121153D01*
X206939049Y-151121158D01*
X207254761Y-151355306D01*
X207254763Y-151355307D01*
X207591899Y-151557379D01*
X207591902Y-151557380D01*
X207591903Y-151557381D01*
X207947228Y-151725438D01*
X208317316Y-151857857D01*
X208698600Y-151953364D01*
X209087409Y-152011038D01*
X209480000Y-152030325D01*
X209872591Y-152011038D01*
X210261400Y-151953364D01*
X210642684Y-151857857D01*
X211012772Y-151725438D01*
X211368097Y-151557381D01*
X211705239Y-151355306D01*
X212020951Y-151121158D01*
X212312192Y-150857192D01*
X212576158Y-150565951D01*
X212810306Y-150250239D01*
X213012381Y-149913097D01*
X213180438Y-149557772D01*
X213312857Y-149187684D01*
X213408364Y-148806400D01*
X213466038Y-148417591D01*
X213485325Y-148025000D01*
X216424675Y-148025000D01*
X216443962Y-148417591D01*
X216443962Y-148417597D01*
X216443963Y-148417599D01*
X216501637Y-148806406D01*
X216597143Y-149187684D01*
X216729561Y-149557770D01*
X216729562Y-149557772D01*
X216897620Y-149913100D01*
X217099692Y-150250236D01*
X217333846Y-150565956D01*
X217597807Y-150857192D01*
X217889043Y-151121153D01*
X217889049Y-151121158D01*
X218204761Y-151355306D01*
X218204763Y-151355307D01*
X218541899Y-151557379D01*
X218541902Y-151557380D01*
X218541903Y-151557381D01*
X218897228Y-151725438D01*
X219267316Y-151857857D01*
X219648600Y-151953364D01*
X220037409Y-152011038D01*
X220430000Y-152030325D01*
X220822591Y-152011038D01*
X221211400Y-151953364D01*
X221592684Y-151857857D01*
X221962772Y-151725438D01*
X222318097Y-151557381D01*
X222655239Y-151355306D01*
X222970951Y-151121158D01*
X223262192Y-150857192D01*
X223526158Y-150565951D01*
X223760306Y-150250239D01*
X223962381Y-149913097D01*
X224130438Y-149557772D01*
X224262857Y-149187684D01*
X224358364Y-148806400D01*
X224416038Y-148417591D01*
X224435325Y-148025000D01*
X227374675Y-148025000D01*
X227393962Y-148417591D01*
X227393962Y-148417597D01*
X227393963Y-148417599D01*
X227451637Y-148806406D01*
X227547143Y-149187684D01*
X227679561Y-149557770D01*
X227679562Y-149557772D01*
X227847620Y-149913100D01*
X228049692Y-150250236D01*
X228283846Y-150565956D01*
X228547807Y-150857192D01*
X228839043Y-151121153D01*
X228839049Y-151121158D01*
X229154761Y-151355306D01*
X229154763Y-151355307D01*
X229491899Y-151557379D01*
X229491902Y-151557380D01*
X229491903Y-151557381D01*
X229847228Y-151725438D01*
X230217316Y-151857857D01*
X230598600Y-151953364D01*
X230987409Y-152011038D01*
X231380000Y-152030325D01*
X231772591Y-152011038D01*
X232161400Y-151953364D01*
X232542684Y-151857857D01*
X232912772Y-151725438D01*
X233268097Y-151557381D01*
X233605239Y-151355306D01*
X233920951Y-151121158D01*
X234212192Y-150857192D01*
X234476158Y-150565951D01*
X234710306Y-150250239D01*
X234912381Y-149913097D01*
X235080438Y-149557772D01*
X235212857Y-149187684D01*
X235308364Y-148806400D01*
X235366038Y-148417591D01*
X235385325Y-148025000D01*
X235366038Y-147632409D01*
X235308364Y-147243600D01*
X235212857Y-146862316D01*
X235080438Y-146492228D01*
X234912381Y-146136903D01*
X234710306Y-145799761D01*
X234476158Y-145484049D01*
X234476153Y-145484043D01*
X234212192Y-145192807D01*
X233920956Y-144928846D01*
X233605236Y-144694692D01*
X233268100Y-144492620D01*
X232912772Y-144324562D01*
X232912770Y-144324561D01*
X232542684Y-144192143D01*
X232161406Y-144096637D01*
X232161401Y-144096636D01*
X232161400Y-144096636D01*
X232017256Y-144075254D01*
X231772599Y-144038963D01*
X231772597Y-144038962D01*
X231772591Y-144038962D01*
X231380000Y-144019675D01*
X230987409Y-144038962D01*
X230987403Y-144038962D01*
X230987400Y-144038963D01*
X230598593Y-144096637D01*
X230217315Y-144192143D01*
X229847229Y-144324561D01*
X229847227Y-144324562D01*
X229491899Y-144492620D01*
X229154763Y-144694692D01*
X228839043Y-144928846D01*
X228547807Y-145192807D01*
X228283846Y-145484043D01*
X228049692Y-145799763D01*
X227847620Y-146136899D01*
X227679562Y-146492227D01*
X227679561Y-146492229D01*
X227547143Y-146862315D01*
X227451637Y-147243593D01*
X227451636Y-147243600D01*
X227393962Y-147632409D01*
X227374675Y-148025000D01*
X224435325Y-148025000D01*
X224416038Y-147632409D01*
X224358364Y-147243600D01*
X224262857Y-146862316D01*
X224130438Y-146492228D01*
X223962381Y-146136903D01*
X223760306Y-145799761D01*
X223526158Y-145484049D01*
X223526153Y-145484043D01*
X223262192Y-145192807D01*
X222970956Y-144928846D01*
X222655236Y-144694692D01*
X222318100Y-144492620D01*
X221962772Y-144324562D01*
X221962770Y-144324561D01*
X221592684Y-144192143D01*
X221211406Y-144096637D01*
X221211401Y-144096636D01*
X221211400Y-144096636D01*
X221067256Y-144075254D01*
X220822599Y-144038963D01*
X220822597Y-144038962D01*
X220822591Y-144038962D01*
X220430000Y-144019675D01*
X220037409Y-144038962D01*
X220037403Y-144038962D01*
X220037400Y-144038963D01*
X219648593Y-144096637D01*
X219267315Y-144192143D01*
X218897229Y-144324561D01*
X218897227Y-144324562D01*
X218541899Y-144492620D01*
X218204763Y-144694692D01*
X217889043Y-144928846D01*
X217597807Y-145192807D01*
X217333846Y-145484043D01*
X217099692Y-145799763D01*
X216897620Y-146136899D01*
X216729562Y-146492227D01*
X216729561Y-146492229D01*
X216597143Y-146862315D01*
X216501637Y-147243593D01*
X216501636Y-147243600D01*
X216443962Y-147632409D01*
X216424675Y-148025000D01*
X213485325Y-148025000D01*
X213466038Y-147632409D01*
X213408364Y-147243600D01*
X213312857Y-146862316D01*
X213180438Y-146492228D01*
X213012381Y-146136903D01*
X212810306Y-145799761D01*
X212576158Y-145484049D01*
X212576153Y-145484043D01*
X212312192Y-145192807D01*
X212020956Y-144928846D01*
X211705236Y-144694692D01*
X211368100Y-144492620D01*
X211012772Y-144324562D01*
X211012770Y-144324561D01*
X210642684Y-144192143D01*
X210261406Y-144096637D01*
X210261401Y-144096636D01*
X210261400Y-144096636D01*
X210117256Y-144075254D01*
X209872599Y-144038963D01*
X209872597Y-144038962D01*
X209872591Y-144038962D01*
X209480000Y-144019675D01*
X209087409Y-144038962D01*
X209087403Y-144038962D01*
X209087400Y-144038963D01*
X208698593Y-144096637D01*
X208317315Y-144192143D01*
X207947229Y-144324561D01*
X207947227Y-144324562D01*
X207591899Y-144492620D01*
X207254763Y-144694692D01*
X206939043Y-144928846D01*
X206647807Y-145192807D01*
X206383846Y-145484043D01*
X206149692Y-145799763D01*
X205947620Y-146136899D01*
X205779562Y-146492227D01*
X205779561Y-146492229D01*
X205647143Y-146862315D01*
X205551637Y-147243593D01*
X205551636Y-147243600D01*
X205493962Y-147632409D01*
X205474675Y-148025000D01*
X200430500Y-148025000D01*
X200430500Y-133575000D01*
X205474675Y-133575000D01*
X205493962Y-133967591D01*
X205493962Y-133967597D01*
X205493963Y-133967599D01*
X205551637Y-134356406D01*
X205647143Y-134737684D01*
X205779561Y-135107770D01*
X205779562Y-135107772D01*
X205947620Y-135463100D01*
X206149692Y-135800236D01*
X206383846Y-136115956D01*
X206647807Y-136407192D01*
X206939043Y-136671153D01*
X206939049Y-136671158D01*
X207254761Y-136905306D01*
X207254763Y-136905307D01*
X207591899Y-137107379D01*
X207591902Y-137107380D01*
X207591903Y-137107381D01*
X207947228Y-137275438D01*
X208317316Y-137407857D01*
X208698600Y-137503364D01*
X209087409Y-137561038D01*
X209480000Y-137580325D01*
X209872591Y-137561038D01*
X210261400Y-137503364D01*
X210642684Y-137407857D01*
X211012772Y-137275438D01*
X211368097Y-137107381D01*
X211705239Y-136905306D01*
X212020951Y-136671158D01*
X212312192Y-136407192D01*
X212576158Y-136115951D01*
X212810306Y-135800239D01*
X213012381Y-135463097D01*
X213180438Y-135107772D01*
X213312857Y-134737684D01*
X213408364Y-134356400D01*
X213466038Y-133967591D01*
X213485325Y-133575000D01*
X216424675Y-133575000D01*
X216443962Y-133967591D01*
X216443962Y-133967597D01*
X216443963Y-133967599D01*
X216501637Y-134356406D01*
X216597143Y-134737684D01*
X216729561Y-135107770D01*
X216729562Y-135107772D01*
X216897620Y-135463100D01*
X217099692Y-135800236D01*
X217333846Y-136115956D01*
X217597807Y-136407192D01*
X217889043Y-136671153D01*
X217889049Y-136671158D01*
X218204761Y-136905306D01*
X218204763Y-136905307D01*
X218541899Y-137107379D01*
X218541902Y-137107380D01*
X218541903Y-137107381D01*
X218897228Y-137275438D01*
X219267316Y-137407857D01*
X219648600Y-137503364D01*
X220037409Y-137561038D01*
X220430000Y-137580325D01*
X220822591Y-137561038D01*
X221211400Y-137503364D01*
X221592684Y-137407857D01*
X221962772Y-137275438D01*
X222318097Y-137107381D01*
X222655239Y-136905306D01*
X222970951Y-136671158D01*
X223262192Y-136407192D01*
X223526158Y-136115951D01*
X223760306Y-135800239D01*
X223962381Y-135463097D01*
X224130438Y-135107772D01*
X224262857Y-134737684D01*
X224358364Y-134356400D01*
X224416038Y-133967591D01*
X224435325Y-133575000D01*
X227374675Y-133575000D01*
X227393962Y-133967591D01*
X227393962Y-133967597D01*
X227393963Y-133967599D01*
X227451637Y-134356406D01*
X227547143Y-134737684D01*
X227679561Y-135107770D01*
X227679562Y-135107772D01*
X227847620Y-135463100D01*
X228049692Y-135800236D01*
X228283846Y-136115956D01*
X228547807Y-136407192D01*
X228839043Y-136671153D01*
X228839049Y-136671158D01*
X229154761Y-136905306D01*
X229154763Y-136905307D01*
X229491899Y-137107379D01*
X229491902Y-137107380D01*
X229491903Y-137107381D01*
X229847228Y-137275438D01*
X230217316Y-137407857D01*
X230598600Y-137503364D01*
X230987409Y-137561038D01*
X231380000Y-137580325D01*
X231772591Y-137561038D01*
X232161400Y-137503364D01*
X232542684Y-137407857D01*
X232912772Y-137275438D01*
X233268097Y-137107381D01*
X233605239Y-136905306D01*
X233920951Y-136671158D01*
X234212192Y-136407192D01*
X234476158Y-136115951D01*
X234710306Y-135800239D01*
X234912381Y-135463097D01*
X235080438Y-135107772D01*
X235212857Y-134737684D01*
X235308364Y-134356400D01*
X235366038Y-133967591D01*
X235385325Y-133575000D01*
X235366038Y-133182409D01*
X235308364Y-132793600D01*
X235212857Y-132412316D01*
X235080438Y-132042228D01*
X234912381Y-131686903D01*
X234710306Y-131349761D01*
X234476158Y-131034049D01*
X234476153Y-131034043D01*
X234212192Y-130742807D01*
X233920956Y-130478846D01*
X233605236Y-130244692D01*
X233268100Y-130042620D01*
X232912772Y-129874562D01*
X232912770Y-129874561D01*
X232542684Y-129742143D01*
X232161406Y-129646637D01*
X232161401Y-129646636D01*
X232161400Y-129646636D01*
X232017256Y-129625254D01*
X231772599Y-129588963D01*
X231772597Y-129588962D01*
X231772591Y-129588962D01*
X231380000Y-129569675D01*
X230987409Y-129588962D01*
X230987403Y-129588962D01*
X230987400Y-129588963D01*
X230598593Y-129646637D01*
X230217315Y-129742143D01*
X229847229Y-129874561D01*
X229847227Y-129874562D01*
X229491899Y-130042620D01*
X229154763Y-130244692D01*
X228839043Y-130478846D01*
X228547807Y-130742807D01*
X228283846Y-131034043D01*
X228049692Y-131349763D01*
X227847620Y-131686899D01*
X227679562Y-132042227D01*
X227679561Y-132042229D01*
X227547143Y-132412315D01*
X227451637Y-132793593D01*
X227451636Y-132793600D01*
X227393962Y-133182409D01*
X227374675Y-133575000D01*
X224435325Y-133575000D01*
X224416038Y-133182409D01*
X224358364Y-132793600D01*
X224262857Y-132412316D01*
X224130438Y-132042228D01*
X223962381Y-131686903D01*
X223760306Y-131349761D01*
X223526158Y-131034049D01*
X223526153Y-131034043D01*
X223262192Y-130742807D01*
X222970956Y-130478846D01*
X222655236Y-130244692D01*
X222318100Y-130042620D01*
X221962772Y-129874562D01*
X221962770Y-129874561D01*
X221592684Y-129742143D01*
X221211406Y-129646637D01*
X221211401Y-129646636D01*
X221211400Y-129646636D01*
X221067256Y-129625254D01*
X220822599Y-129588963D01*
X220822597Y-129588962D01*
X220822591Y-129588962D01*
X220430000Y-129569675D01*
X220037409Y-129588962D01*
X220037403Y-129588962D01*
X220037400Y-129588963D01*
X219648593Y-129646637D01*
X219267315Y-129742143D01*
X218897229Y-129874561D01*
X218897227Y-129874562D01*
X218541899Y-130042620D01*
X218204763Y-130244692D01*
X217889043Y-130478846D01*
X217597807Y-130742807D01*
X217333846Y-131034043D01*
X217099692Y-131349763D01*
X216897620Y-131686899D01*
X216729562Y-132042227D01*
X216729561Y-132042229D01*
X216597143Y-132412315D01*
X216501637Y-132793593D01*
X216501636Y-132793600D01*
X216443962Y-133182409D01*
X216424675Y-133575000D01*
X213485325Y-133575000D01*
X213466038Y-133182409D01*
X213408364Y-132793600D01*
X213312857Y-132412316D01*
X213180438Y-132042228D01*
X213012381Y-131686903D01*
X212810306Y-131349761D01*
X212576158Y-131034049D01*
X212576153Y-131034043D01*
X212312192Y-130742807D01*
X212020956Y-130478846D01*
X211705236Y-130244692D01*
X211368100Y-130042620D01*
X211012772Y-129874562D01*
X211012770Y-129874561D01*
X210642684Y-129742143D01*
X210261406Y-129646637D01*
X210261401Y-129646636D01*
X210261400Y-129646636D01*
X210117256Y-129625254D01*
X209872599Y-129588963D01*
X209872597Y-129588962D01*
X209872591Y-129588962D01*
X209480000Y-129569675D01*
X209087409Y-129588962D01*
X209087403Y-129588962D01*
X209087400Y-129588963D01*
X208698593Y-129646637D01*
X208317315Y-129742143D01*
X207947229Y-129874561D01*
X207947227Y-129874562D01*
X207591899Y-130042620D01*
X207254763Y-130244692D01*
X206939043Y-130478846D01*
X206647807Y-130742807D01*
X206383846Y-131034043D01*
X206149692Y-131349763D01*
X205947620Y-131686899D01*
X205779562Y-132042227D01*
X205779561Y-132042229D01*
X205647143Y-132412315D01*
X205551637Y-132793593D01*
X205551636Y-132793600D01*
X205493962Y-133182409D01*
X205474675Y-133575000D01*
X200430500Y-133575000D01*
X200430500Y-79670000D01*
X225914693Y-79670000D01*
X225933912Y-80085697D01*
X225933912Y-80085702D01*
X225933913Y-80085707D01*
X225991403Y-80497845D01*
X225991405Y-80497853D01*
X226086679Y-80902933D01*
X226218929Y-81297514D01*
X226387010Y-81678177D01*
X226387020Y-81678198D01*
X226589506Y-82041731D01*
X226589509Y-82041735D01*
X226589511Y-82041739D01*
X226824687Y-82385054D01*
X226824689Y-82385056D01*
X226824696Y-82385066D01*
X227090528Y-82705194D01*
X227090538Y-82705206D01*
X227384794Y-82999462D01*
X227384805Y-82999471D01*
X227704933Y-83265303D01*
X227704939Y-83265307D01*
X227704946Y-83265313D01*
X228048261Y-83500489D01*
X228411812Y-83702985D01*
X228602153Y-83787029D01*
X228792485Y-83871070D01*
X228792488Y-83871071D01*
X228792495Y-83871074D01*
X229187064Y-84003320D01*
X229592152Y-84098596D01*
X230004303Y-84156088D01*
X230420000Y-84175307D01*
X230835697Y-84156088D01*
X231247848Y-84098596D01*
X231652936Y-84003320D01*
X232047505Y-83871074D01*
X232428188Y-83702985D01*
X232791739Y-83500489D01*
X233135054Y-83265313D01*
X233455206Y-82999462D01*
X233749462Y-82705206D01*
X234015313Y-82385054D01*
X234250489Y-82041739D01*
X234452985Y-81678188D01*
X234621074Y-81297505D01*
X234753320Y-80902936D01*
X234848596Y-80497848D01*
X234906088Y-80085697D01*
X234925307Y-79670000D01*
X234906088Y-79254303D01*
X234848596Y-78842152D01*
X234753320Y-78437064D01*
X234621074Y-78042495D01*
X234452985Y-77661812D01*
X234250489Y-77298261D01*
X234015313Y-76954946D01*
X234015307Y-76954939D01*
X234015303Y-76954933D01*
X233749471Y-76634805D01*
X233749462Y-76634794D01*
X233455206Y-76340538D01*
X233455194Y-76340528D01*
X233135066Y-76074696D01*
X233135056Y-76074689D01*
X233135054Y-76074687D01*
X232791739Y-75839511D01*
X232791735Y-75839509D01*
X232791731Y-75839506D01*
X232428198Y-75637020D01*
X232428177Y-75637010D01*
X232047514Y-75468929D01*
X231652933Y-75336679D01*
X231247853Y-75241405D01*
X231247845Y-75241403D01*
X230835707Y-75183913D01*
X230835702Y-75183912D01*
X230835697Y-75183912D01*
X230420000Y-75164693D01*
X230004303Y-75183912D01*
X230004297Y-75183912D01*
X230004292Y-75183913D01*
X229592154Y-75241403D01*
X229592146Y-75241405D01*
X229187066Y-75336679D01*
X228792485Y-75468929D01*
X228411822Y-75637010D01*
X228411801Y-75637020D01*
X228048268Y-75839506D01*
X228048262Y-75839510D01*
X227704943Y-76074689D01*
X227704933Y-76074696D01*
X227384805Y-76340528D01*
X227384785Y-76340546D01*
X227090546Y-76634785D01*
X227090528Y-76634805D01*
X226824696Y-76954933D01*
X226824689Y-76954943D01*
X226589510Y-77298262D01*
X226589506Y-77298268D01*
X226387020Y-77661801D01*
X226387010Y-77661822D01*
X226218929Y-78042485D01*
X226086679Y-78437066D01*
X225991405Y-78842146D01*
X225991403Y-78842154D01*
X225933913Y-79254292D01*
X225933912Y-79254297D01*
X225933912Y-79254303D01*
X225914693Y-79670000D01*
X200430500Y-79670000D01*
X200430500Y-59675000D01*
X205924693Y-59675000D01*
X205943912Y-60090697D01*
X205943912Y-60090702D01*
X205943913Y-60090707D01*
X206001403Y-60502845D01*
X206001405Y-60502853D01*
X206096679Y-60907933D01*
X206228929Y-61302514D01*
X206397010Y-61683177D01*
X206397020Y-61683198D01*
X206599506Y-62046731D01*
X206599509Y-62046735D01*
X206599511Y-62046739D01*
X206834687Y-62390054D01*
X206834689Y-62390056D01*
X206834696Y-62390066D01*
X207100528Y-62710194D01*
X207100538Y-62710206D01*
X207394794Y-63004462D01*
X207394805Y-63004471D01*
X207714933Y-63270303D01*
X207714939Y-63270307D01*
X207714946Y-63270313D01*
X208058261Y-63505489D01*
X208421812Y-63707985D01*
X208612153Y-63792029D01*
X208802485Y-63876070D01*
X208802488Y-63876071D01*
X208802495Y-63876074D01*
X209197064Y-64008320D01*
X209602152Y-64103596D01*
X210014303Y-64161088D01*
X210430000Y-64180307D01*
X210845697Y-64161088D01*
X211257848Y-64103596D01*
X211662936Y-64008320D01*
X212057505Y-63876074D01*
X212438188Y-63707985D01*
X212801739Y-63505489D01*
X213145054Y-63270313D01*
X213465206Y-63004462D01*
X213759462Y-62710206D01*
X214025313Y-62390054D01*
X214260489Y-62046739D01*
X214462985Y-61683188D01*
X214631074Y-61302505D01*
X214763320Y-60907936D01*
X214858596Y-60502848D01*
X214916088Y-60090697D01*
X214935307Y-59675000D01*
X214916088Y-59259303D01*
X214858596Y-58847152D01*
X214763320Y-58442064D01*
X214631074Y-58047495D01*
X214462985Y-57666812D01*
X214260489Y-57303261D01*
X214025313Y-56959946D01*
X214025307Y-56959939D01*
X214025303Y-56959933D01*
X213759471Y-56639805D01*
X213759462Y-56639794D01*
X213465206Y-56345538D01*
X213465194Y-56345528D01*
X213145066Y-56079696D01*
X213145056Y-56079689D01*
X213145054Y-56079687D01*
X212801739Y-55844511D01*
X212801735Y-55844509D01*
X212801731Y-55844506D01*
X212438198Y-55642020D01*
X212438177Y-55642010D01*
X212057514Y-55473929D01*
X211662933Y-55341679D01*
X211257853Y-55246405D01*
X211257845Y-55246403D01*
X210845707Y-55188913D01*
X210845702Y-55188912D01*
X210845697Y-55188912D01*
X210430000Y-55169693D01*
X210014303Y-55188912D01*
X210014297Y-55188912D01*
X210014292Y-55188913D01*
X209602154Y-55246403D01*
X209602146Y-55246405D01*
X209197066Y-55341679D01*
X208802485Y-55473929D01*
X208421822Y-55642010D01*
X208421801Y-55642020D01*
X208058268Y-55844506D01*
X208058262Y-55844510D01*
X207714943Y-56079689D01*
X207714933Y-56079696D01*
X207394805Y-56345528D01*
X207394785Y-56345546D01*
X207100546Y-56639785D01*
X207100528Y-56639805D01*
X206834696Y-56959933D01*
X206834689Y-56959943D01*
X206599510Y-57303262D01*
X206599506Y-57303268D01*
X206397020Y-57666801D01*
X206397010Y-57666822D01*
X206228929Y-58047485D01*
X206096679Y-58442066D01*
X206001405Y-58847146D01*
X206001403Y-58847154D01*
X205943913Y-59259292D01*
X205943912Y-59259297D01*
X205943912Y-59259303D01*
X205924693Y-59675000D01*
X200430500Y-59675000D01*
X200430500Y-43335236D01*
X203925793Y-43335236D01*
X203955391Y-43654651D01*
X203955392Y-43654657D01*
X204024018Y-43968013D01*
X204077899Y-44120913D01*
X204130634Y-44270564D01*
X204273621Y-44557721D01*
X204450812Y-44825130D01*
X204659522Y-45068737D01*
X204896586Y-45284849D01*
X204896589Y-45284851D01*
X205158405Y-45470187D01*
X205158415Y-45470193D01*
X205441016Y-45621948D01*
X205441022Y-45621950D01*
X205441029Y-45621954D01*
X205602490Y-45684504D01*
X205740144Y-45737832D01*
X205740147Y-45737832D01*
X205740153Y-45737835D01*
X206051251Y-45816079D01*
X206170634Y-45830861D01*
X206369602Y-45855500D01*
X206369607Y-45855500D01*
X209410112Y-45855500D01*
X209410126Y-45855500D01*
X209650178Y-45840694D01*
X209965503Y-45781750D01*
X210271194Y-45684502D01*
X210562618Y-45550426D01*
X210835356Y-45381554D01*
X211085275Y-45180445D01*
X211308585Y-44950148D01*
X211501903Y-44694155D01*
X211662296Y-44416345D01*
X211787334Y-44120931D01*
X211875122Y-43812390D01*
X211924328Y-43495400D01*
X211929262Y-43335236D01*
X228930793Y-43335236D01*
X228960391Y-43654651D01*
X228960392Y-43654657D01*
X229029018Y-43968013D01*
X229082899Y-44120913D01*
X229135634Y-44270564D01*
X229278621Y-44557721D01*
X229455812Y-44825130D01*
X229664522Y-45068737D01*
X229901586Y-45284849D01*
X229901589Y-45284851D01*
X230163405Y-45470187D01*
X230163415Y-45470193D01*
X230446016Y-45621948D01*
X230446022Y-45621950D01*
X230446029Y-45621954D01*
X230607490Y-45684504D01*
X230745144Y-45737832D01*
X230745147Y-45737832D01*
X230745153Y-45737835D01*
X231056251Y-45816079D01*
X231175634Y-45830861D01*
X231374602Y-45855500D01*
X231374607Y-45855500D01*
X234415112Y-45855500D01*
X234415126Y-45855500D01*
X234655178Y-45840694D01*
X234970503Y-45781750D01*
X235276194Y-45684502D01*
X235567618Y-45550426D01*
X235840356Y-45381554D01*
X236090275Y-45180445D01*
X236313585Y-44950148D01*
X236506903Y-44694155D01*
X236667296Y-44416345D01*
X236792334Y-44120931D01*
X236880122Y-43812390D01*
X236929328Y-43495400D01*
X236939206Y-43174765D01*
X236909608Y-42855347D01*
X236875063Y-42697610D01*
X236840981Y-42541986D01*
X236811974Y-42459671D01*
X236734366Y-42239436D01*
X236591379Y-41952279D01*
X236414188Y-41684870D01*
X236205478Y-41441263D01*
X236036049Y-41286808D01*
X235968420Y-41225156D01*
X235968410Y-41225148D01*
X235706594Y-41039812D01*
X235706584Y-41039806D01*
X235423983Y-40888051D01*
X235423973Y-40888047D01*
X235423971Y-40888046D01*
X235355805Y-40861638D01*
X235124855Y-40772167D01*
X235124851Y-40772166D01*
X234813745Y-40693920D01*
X234495398Y-40654500D01*
X234495393Y-40654500D01*
X231454874Y-40654500D01*
X231402156Y-40657751D01*
X231214824Y-40669305D01*
X230899499Y-40728249D01*
X230899497Y-40728250D01*
X230593814Y-40825495D01*
X230593810Y-40825496D01*
X230593806Y-40825498D01*
X230419928Y-40905494D01*
X230302381Y-40959574D01*
X230029656Y-41128437D01*
X230029636Y-41128451D01*
X229779728Y-41329551D01*
X229556413Y-41559853D01*
X229363095Y-41815847D01*
X229202701Y-42093660D01*
X229077668Y-42389062D01*
X229077660Y-42389086D01*
X228989879Y-42697602D01*
X228989878Y-42697607D01*
X228940672Y-43014592D01*
X228940671Y-43014603D01*
X228930793Y-43335236D01*
X211929262Y-43335236D01*
X211934206Y-43174765D01*
X211904608Y-42855347D01*
X211870063Y-42697610D01*
X211835981Y-42541986D01*
X211806974Y-42459671D01*
X211729366Y-42239436D01*
X211586379Y-41952279D01*
X211409188Y-41684870D01*
X211200478Y-41441263D01*
X211031049Y-41286808D01*
X210963420Y-41225156D01*
X210963410Y-41225148D01*
X210701594Y-41039812D01*
X210701584Y-41039806D01*
X210418983Y-40888051D01*
X210418973Y-40888047D01*
X210418971Y-40888046D01*
X210350805Y-40861638D01*
X210119855Y-40772167D01*
X210119851Y-40772166D01*
X209808745Y-40693920D01*
X209490398Y-40654500D01*
X209490393Y-40654500D01*
X206449874Y-40654500D01*
X206397156Y-40657751D01*
X206209824Y-40669305D01*
X205894499Y-40728249D01*
X205894497Y-40728250D01*
X205588814Y-40825495D01*
X205588810Y-40825496D01*
X205588806Y-40825498D01*
X205414928Y-40905494D01*
X205297381Y-40959574D01*
X205024656Y-41128437D01*
X205024636Y-41128451D01*
X204774728Y-41329551D01*
X204551413Y-41559853D01*
X204358095Y-41815847D01*
X204197701Y-42093660D01*
X204072668Y-42389062D01*
X204072660Y-42389086D01*
X203984879Y-42697602D01*
X203984878Y-42697607D01*
X203935672Y-43014592D01*
X203935671Y-43014603D01*
X203925793Y-43335236D01*
X200430500Y-43335236D01*
X200430500Y-40379500D01*
X200450185Y-40312461D01*
X200502989Y-40266706D01*
X200554500Y-40255500D01*
X240305500Y-40255500D01*
X240372539Y-40275185D01*
G37*
%TD.AperFunction*%
M02*
