M48
; DRILL file {KiCad 7.0.10} date Thursday, March 07, 2024 at 11:06:24 PM
; FORMAT={-:-/ absolute / inch / decimal}
; #@! TF.CreationDate,2024-03-07T23:06:24-06:00
; #@! TF.GenerationSoftware,Kicad,Pcbnew,7.0.10
; #@! TF.FileFunction,Plated,1,2,PTH
FMAT,2
INCH
; #@! TA.AperFunction,Plated,PTH,ViaDrill
T1C0.0157
; #@! TA.AperFunction,Plated,PTH,ComponentDrill
T2C0.0315
; #@! TA.AperFunction,Plated,PTH,ComponentDrill
T3C0.0394
%
G90
G05
T1
X4.4325Y-4.4972
X4.4325Y-5.0878
X4.5031Y-4.2933
X4.5031Y-4.8835
X4.5315Y-4.5795
X4.5388Y-5.8969
X4.5644Y-5.2069
X4.6333Y-4.6852
X4.6333Y-5.2758
X4.6618Y-4.3732
X4.6618Y-4.9636
X4.6638Y-5.1385
X4.6642Y-4.5477
X4.6972Y-4.2512
X4.6972Y-4.8417
X4.7248Y-4.9116
X4.7356Y-4.763
X4.779Y-4.1911
X4.779Y-4.2886
X4.8458Y-4.1911
X4.8458Y-4.2886
X4.8458Y-4.763
X4.8636Y-4.8142
X4.8636Y-4.8791
X4.8685Y-4.3919
X4.8685Y-4.9825
X4.8734Y-4.2502
X5.0329Y-4.3457
X5.0329Y-4.9352
X5.1095Y-4.4212
X5.1096Y-4.511
X5.1096Y-5.1016
X5.1097Y-5.0102
X5.2238Y-4.6163
X5.2238Y-5.2059
X5.2504Y-4.937
X5.2514Y-4.3457
X5.2514Y-5.8506
T2
X4.3811Y-4.2969
X4.3811Y-4.3969
X4.3811Y-4.4969
X4.3811Y-4.8878
X4.3811Y-4.9878
X4.3811Y-5.0878
X5.4071Y-4.2972
X5.4071Y-4.3972
X5.4071Y-4.4972
X5.4071Y-4.8886
X5.4071Y-4.9886
X5.4071Y-5.0886
T3
X4.1953Y-4.1854
X4.1953Y-4.2854
X4.1953Y-4.3854
X4.1953Y-4.4854
X4.8443Y-5.4604
X4.8443Y-5.5604
X4.8443Y-5.6604
X4.8443Y-5.7604
X4.8443Y-5.8604
X4.9443Y-5.4604
X4.9443Y-5.5604
X4.9443Y-5.6604
X4.9443Y-5.7604
X4.9443Y-5.8604
X5.5909Y-5.713
X5.5909Y-5.813
X5.5909Y-5.913
X5.5909Y-6.013
M30
