%TF.GenerationSoftware,KiCad,Pcbnew,7.0.10*%
%TF.CreationDate,2024-03-07T23:06:27-06:00*%
%TF.ProjectId,Dual_VCA,4475616c-5f56-4434-912e-6b696361645f,rev?*%
%TF.SameCoordinates,Original*%
%TF.FileFunction,Copper,L2,Bot*%
%TF.FilePolarity,Positive*%
%FSLAX46Y46*%
G04 Gerber Fmt 4.6, Leading zero omitted, Abs format (unit mm)*
G04 Created by KiCad (PCBNEW 7.0.10) date 2024-03-07 23:06:27*
%MOMM*%
%LPD*%
G01*
G04 APERTURE LIST*
G04 Aperture macros list*
%AMRoundRect*
0 Rectangle with rounded corners*
0 $1 Rounding radius*
0 $2 $3 $4 $5 $6 $7 $8 $9 X,Y pos of 4 corners*
0 Add a 4 corners polygon primitive as box body*
4,1,4,$2,$3,$4,$5,$6,$7,$8,$9,$2,$3,0*
0 Add four circle primitives for the rounded corners*
1,1,$1+$1,$2,$3*
1,1,$1+$1,$4,$5*
1,1,$1+$1,$6,$7*
1,1,$1+$1,$8,$9*
0 Add four rect primitives between the rounded corners*
20,1,$1+$1,$2,$3,$4,$5,0*
20,1,$1+$1,$4,$5,$6,$7,0*
20,1,$1+$1,$6,$7,$8,$9,0*
20,1,$1+$1,$8,$9,$2,$3,0*%
G04 Aperture macros list end*
%TA.AperFunction,ComponentPad*%
%ADD10R,1.700000X1.700000*%
%TD*%
%TA.AperFunction,ComponentPad*%
%ADD11O,1.700000X1.700000*%
%TD*%
%TA.AperFunction,ComponentPad*%
%ADD12C,1.440000*%
%TD*%
%TA.AperFunction,ComponentPad*%
%ADD13RoundRect,0.250000X-0.600000X-0.600000X0.600000X-0.600000X0.600000X0.600000X-0.600000X0.600000X0*%
%TD*%
%TA.AperFunction,ComponentPad*%
%ADD14C,1.700000*%
%TD*%
%TA.AperFunction,ViaPad*%
%ADD15C,0.800000*%
%TD*%
%TA.AperFunction,Conductor*%
%ADD16C,0.300000*%
%TD*%
%TA.AperFunction,Conductor*%
%ADD17C,0.250000*%
%TD*%
G04 APERTURE END LIST*
D10*
%TO.P,J8,1,Pin_1*%
%TO.N,unconnected-(J8-Pin_1-Pad1)*%
X106560000Y-113930000D03*
D11*
%TO.P,J8,2,Pin_2*%
%TO.N,/cv2_a*%
X106560000Y-111390000D03*
%TO.P,J8,3,Pin_3*%
%TO.N,/in2_a*%
X106560000Y-108850000D03*
%TO.P,J8,4,Pin_4*%
%TO.N,/out2_a*%
X106560000Y-106310000D03*
%TD*%
D10*
%TO.P,J12,1,Pin_1*%
%TO.N,GND*%
X142010000Y-152730000D03*
D11*
%TO.P,J12,2,Pin_2*%
%TO.N,/cv1_a*%
X142010000Y-150190000D03*
%TO.P,J12,3,Pin_3*%
%TO.N,/out1_a*%
X142010000Y-147650000D03*
%TO.P,J12,4,Pin_4*%
%TO.N,/in1_a*%
X142010000Y-145110000D03*
%TD*%
D12*
%TO.P,RV6,1,1*%
%TO.N,GND*%
X111278750Y-114220000D03*
%TO.P,RV6,2,2*%
%TO.N,Net-(R32-Pad2)*%
X111278750Y-111680000D03*
%TO.P,RV6,3,3*%
%TO.N,+12V*%
X111278750Y-109140000D03*
%TD*%
%TO.P,RV4,1,1*%
%TO.N,Net-(R18-Pad1)*%
X137341250Y-114230000D03*
%TO.P,RV4,2,2*%
%TO.N,+12V*%
X137341250Y-111690000D03*
%TO.P,RV4,3,3*%
%TO.N,Net-(R19-Pad1)*%
X137341250Y-109150000D03*
%TD*%
%TO.P,RV2,1,1*%
%TO.N,GND*%
X111278750Y-129230000D03*
%TO.P,RV2,2,2*%
%TO.N,Net-(R4-Pad2)*%
X111278750Y-126690000D03*
%TO.P,RV2,3,3*%
%TO.N,+12V*%
X111278750Y-124150000D03*
%TD*%
%TO.P,RV3,1,1*%
%TO.N,Net-(R7-Pad1)*%
X137341250Y-129250000D03*
%TO.P,RV3,2,2*%
%TO.N,+12V*%
X137341250Y-126710000D03*
%TO.P,RV3,3,3*%
%TO.N,Net-(R8-Pad1)*%
X137341250Y-124170000D03*
%TD*%
D13*
%TO.P,J4,1,Pin_1*%
%TO.N,-12V*%
X123045000Y-148855000D03*
D14*
%TO.P,J4,2,Pin_2*%
X125585000Y-148855000D03*
%TO.P,J4,3,Pin_3*%
%TO.N,GND*%
X123045000Y-146315000D03*
%TO.P,J4,4,Pin_4*%
X125585000Y-146315000D03*
%TO.P,J4,5,Pin_5*%
X123045000Y-143775000D03*
%TO.P,J4,6,Pin_6*%
X125585000Y-143775000D03*
%TO.P,J4,7,Pin_7*%
X123045000Y-141235000D03*
%TO.P,J4,8,Pin_8*%
X125585000Y-141235000D03*
%TO.P,J4,9,Pin_9*%
%TO.N,+12V*%
X123045000Y-138695000D03*
%TO.P,J4,10,Pin_10*%
X125585000Y-138695000D03*
%TD*%
D15*
%TO.N,GND*%
X114380000Y-124040000D03*
X114380000Y-109050000D03*
X133360000Y-125400000D03*
X115285000Y-149780000D03*
X117685000Y-134005000D03*
X119310000Y-122980000D03*
X123660000Y-126555000D03*
X123660000Y-111555000D03*
X119310000Y-107980000D03*
X132685000Y-132230000D03*
X117685000Y-119005000D03*
X133385000Y-148605000D03*
X112585000Y-129230000D03*
X118461392Y-130519058D03*
X112585000Y-114230000D03*
X133385000Y-110380000D03*
X132685000Y-117255000D03*
X118470837Y-115511648D03*
%TO.N,Net-(Q1-E)*%
X120285500Y-120980000D03*
X123084500Y-120980000D03*
%TO.N,Net-(Q3-B)*%
X123084500Y-108930000D03*
X121385500Y-108930000D03*
%TO.N,Net-(Q3-C)*%
X129781373Y-112298201D03*
X129785000Y-114580000D03*
%TO.N,Net-(Q4-B)*%
X123535000Y-123930000D03*
X120010000Y-124755000D03*
%TO.N,Net-(Q4-C)*%
X129786722Y-127259615D03*
X129785000Y-129580000D03*
%TO.N,Net-(Q6-E)*%
X123084500Y-106455000D03*
X121385500Y-106455000D03*
%TO.N,Net-(R4-Pad2)*%
X118410000Y-126075000D03*
%TO.N,Net-(R32-Pad2)*%
X118410000Y-111080000D03*
%TO.N,/in2_a*%
X123785000Y-107955000D03*
%TO.N,/cv2_a*%
X115100000Y-116320000D03*
%TO.N,/out2_a*%
X127835000Y-110380000D03*
%TO.N,/in1_a*%
X123535000Y-122280000D03*
%TO.N,/cv1_a*%
X115935000Y-132255000D03*
%TO.N,/out1_a*%
X127835000Y-125355000D03*
%TD*%
D16*
%TO.N,Net-(Q1-E)*%
X120285500Y-120980000D02*
X123084500Y-120980000D01*
%TO.N,Net-(Q3-B)*%
X121385500Y-108930000D02*
X123084500Y-108930000D01*
D17*
%TO.N,Net-(Q3-C)*%
X129781373Y-114576373D02*
X129785000Y-114580000D01*
X129781373Y-112298201D02*
X129781373Y-114576373D01*
D16*
%TO.N,Net-(Q4-B)*%
X122710000Y-124755000D02*
X123535000Y-123930000D01*
X120010000Y-124755000D02*
X122710000Y-124755000D01*
D17*
%TO.N,Net-(Q4-C)*%
X129786722Y-129578278D02*
X129785000Y-129580000D01*
X129786722Y-127259615D02*
X129786722Y-129578278D01*
D16*
%TO.N,Net-(Q6-E)*%
X121385500Y-106455000D02*
X123084500Y-106455000D01*
%TO.N,Net-(R4-Pad2)*%
X118410000Y-126075000D02*
X117795000Y-126690000D01*
X117795000Y-126690000D02*
X111278750Y-126690000D01*
D17*
%TO.N,Net-(R32-Pad2)*%
X117810000Y-111680000D02*
X118410000Y-111080000D01*
X117810000Y-111680000D02*
X111278750Y-111680000D01*
D16*
%TO.N,/in2_a*%
X120395661Y-107955000D02*
X117945661Y-110405000D01*
X117945661Y-110405000D02*
X108115000Y-110405000D01*
X123785000Y-107955000D02*
X120395661Y-107955000D01*
X108115000Y-110405000D02*
X106560000Y-108850000D01*
%TO.N,/cv2_a*%
X106635000Y-111515000D02*
X106635000Y-111440000D01*
X115100000Y-116320000D02*
X111490000Y-116320000D01*
X111490000Y-116320000D02*
X106560000Y-111390000D01*
%TO.N,/out2_a*%
X107455000Y-107205000D02*
X106560000Y-106310000D01*
X127835000Y-110380000D02*
X124660000Y-107205000D01*
X124660000Y-107205000D02*
X107455000Y-107205000D01*
%TO.N,/in1_a*%
X128765000Y-131865000D02*
X142010000Y-145110000D01*
X126570000Y-122280000D02*
X128760000Y-124470000D01*
X123535000Y-122280000D02*
X126570000Y-122280000D01*
X128760000Y-131865000D02*
X128765000Y-131865000D01*
X128760000Y-124470000D02*
X128760000Y-131865000D01*
%TO.N,/cv1_a*%
X124075000Y-132255000D02*
X142010000Y-150190000D01*
X115935000Y-132255000D02*
X124075000Y-132255000D01*
%TO.N,/out1_a*%
X127835000Y-125355000D02*
X127835000Y-133480000D01*
X127835000Y-133480000D02*
X127840000Y-133480000D01*
X127840000Y-133480000D02*
X142010000Y-147650000D01*
%TD*%
%TA.AperFunction,Conductor*%
%TO.N,GND*%
G36*
X125125507Y-146524844D02*
G01*
X125203239Y-146645798D01*
X125311900Y-146739952D01*
X125442685Y-146799680D01*
X125452466Y-146801086D01*
X124823625Y-147429925D01*
X124899594Y-147483119D01*
X124943219Y-147537696D01*
X124950413Y-147607194D01*
X124918890Y-147669549D01*
X124899595Y-147686269D01*
X124713594Y-147816508D01*
X124546503Y-147983599D01*
X124545349Y-147984975D01*
X124544688Y-147985414D01*
X124542676Y-147987427D01*
X124542271Y-147987022D01*
X124487173Y-148023671D01*
X124417312Y-148024772D01*
X124357946Y-147987928D01*
X124332663Y-147944265D01*
X124329814Y-147935666D01*
X124237712Y-147786344D01*
X124113656Y-147662288D01*
X123964334Y-147570186D01*
X123891966Y-147546205D01*
X123834522Y-147506433D01*
X123807699Y-147441917D01*
X123807585Y-147431137D01*
X123177533Y-146801086D01*
X123187315Y-146799680D01*
X123318100Y-146739952D01*
X123426761Y-146645798D01*
X123504493Y-146524844D01*
X123528076Y-146444524D01*
X124159925Y-147076373D01*
X124213425Y-146999968D01*
X124268002Y-146956344D01*
X124337501Y-146949151D01*
X124399855Y-146980673D01*
X124416576Y-146999969D01*
X124470073Y-147076372D01*
X125101922Y-146444523D01*
X125125507Y-146524844D01*
G37*
%TD.AperFunction*%
%TA.AperFunction,Conductor*%
G36*
X125125507Y-143984844D02*
G01*
X125203239Y-144105798D01*
X125311900Y-144199952D01*
X125442685Y-144259680D01*
X125452466Y-144261086D01*
X124823625Y-144889925D01*
X124900031Y-144943425D01*
X124943655Y-144998002D01*
X124950848Y-145067501D01*
X124919326Y-145129855D01*
X124900029Y-145146576D01*
X124823625Y-145200072D01*
X125452466Y-145828913D01*
X125442685Y-145830320D01*
X125311900Y-145890048D01*
X125203239Y-145984202D01*
X125125507Y-146105156D01*
X125101923Y-146185476D01*
X124470072Y-145553625D01*
X124470072Y-145553626D01*
X124416574Y-145630030D01*
X124361998Y-145673655D01*
X124292499Y-145680849D01*
X124230144Y-145649326D01*
X124213424Y-145630030D01*
X124159925Y-145553626D01*
X124159925Y-145553625D01*
X123528076Y-146185475D01*
X123504493Y-146105156D01*
X123426761Y-145984202D01*
X123318100Y-145890048D01*
X123187315Y-145830320D01*
X123177533Y-145828913D01*
X123806373Y-145200073D01*
X123729969Y-145146576D01*
X123686344Y-145091999D01*
X123679150Y-145022501D01*
X123710672Y-144960146D01*
X123729968Y-144943425D01*
X123806373Y-144889925D01*
X123177533Y-144261086D01*
X123187315Y-144259680D01*
X123318100Y-144199952D01*
X123426761Y-144105798D01*
X123504493Y-143984844D01*
X123528076Y-143904524D01*
X124159925Y-144536373D01*
X124213425Y-144459968D01*
X124268002Y-144416344D01*
X124337501Y-144409151D01*
X124399855Y-144440673D01*
X124416576Y-144459969D01*
X124470073Y-144536372D01*
X125101922Y-143904523D01*
X125125507Y-143984844D01*
G37*
%TD.AperFunction*%
%TA.AperFunction,Conductor*%
G36*
X125125507Y-141444844D02*
G01*
X125203239Y-141565798D01*
X125311900Y-141659952D01*
X125442685Y-141719680D01*
X125452466Y-141721086D01*
X124823625Y-142349925D01*
X124900031Y-142403425D01*
X124943655Y-142458002D01*
X124950848Y-142527501D01*
X124919326Y-142589855D01*
X124900029Y-142606576D01*
X124823625Y-142660072D01*
X125452466Y-143288913D01*
X125442685Y-143290320D01*
X125311900Y-143350048D01*
X125203239Y-143444202D01*
X125125507Y-143565156D01*
X125101923Y-143645476D01*
X124470072Y-143013625D01*
X124470072Y-143013626D01*
X124416574Y-143090030D01*
X124361998Y-143133655D01*
X124292499Y-143140849D01*
X124230144Y-143109326D01*
X124213424Y-143090030D01*
X124159925Y-143013626D01*
X124159925Y-143013625D01*
X123528076Y-143645475D01*
X123504493Y-143565156D01*
X123426761Y-143444202D01*
X123318100Y-143350048D01*
X123187315Y-143290320D01*
X123177533Y-143288913D01*
X123806373Y-142660073D01*
X123729969Y-142606576D01*
X123686344Y-142551999D01*
X123679150Y-142482501D01*
X123710672Y-142420146D01*
X123729968Y-142403425D01*
X123806373Y-142349925D01*
X123177533Y-141721086D01*
X123187315Y-141719680D01*
X123318100Y-141659952D01*
X123426761Y-141565798D01*
X123504493Y-141444844D01*
X123528076Y-141364524D01*
X124159925Y-141996373D01*
X124213425Y-141919968D01*
X124268002Y-141876344D01*
X124337501Y-141869151D01*
X124399855Y-141900673D01*
X124416576Y-141919969D01*
X124470073Y-141996372D01*
X125101922Y-141364523D01*
X125125507Y-141444844D01*
G37*
%TD.AperFunction*%
%TA.AperFunction,Conductor*%
G36*
X124399855Y-139361546D02*
G01*
X124416575Y-139380842D01*
X124546500Y-139566395D01*
X124546505Y-139566401D01*
X124713599Y-139733495D01*
X124899594Y-139863730D01*
X124943218Y-139918307D01*
X124950411Y-139987806D01*
X124918889Y-140050160D01*
X124899593Y-140066880D01*
X124823626Y-140120072D01*
X124823625Y-140120072D01*
X125452466Y-140748913D01*
X125442685Y-140750320D01*
X125311900Y-140810048D01*
X125203239Y-140904202D01*
X125125507Y-141025156D01*
X125101923Y-141105476D01*
X124470072Y-140473625D01*
X124470072Y-140473626D01*
X124416574Y-140550030D01*
X124361998Y-140593655D01*
X124292499Y-140600849D01*
X124230144Y-140569326D01*
X124213424Y-140550030D01*
X124159925Y-140473626D01*
X124159925Y-140473625D01*
X123528076Y-141105475D01*
X123504493Y-141025156D01*
X123426761Y-140904202D01*
X123318100Y-140810048D01*
X123187315Y-140750320D01*
X123177533Y-140748913D01*
X123806373Y-140120073D01*
X123806373Y-140120072D01*
X123730405Y-140066880D01*
X123686780Y-140012304D01*
X123679586Y-139942805D01*
X123711108Y-139880451D01*
X123730399Y-139863734D01*
X123916401Y-139733495D01*
X124083495Y-139566401D01*
X124213425Y-139380842D01*
X124268002Y-139337217D01*
X124337500Y-139330023D01*
X124399855Y-139361546D01*
G37*
%TD.AperFunction*%
%TA.AperFunction,Conductor*%
G36*
X108031110Y-111055500D02*
G01*
X108032823Y-111055500D01*
X108054045Y-111055500D01*
X108073444Y-111057026D01*
X108094405Y-111060347D01*
X108139860Y-111056050D01*
X108151530Y-111055500D01*
X110028645Y-111055500D01*
X110095684Y-111075185D01*
X110141439Y-111127989D01*
X110151383Y-111197147D01*
X110141028Y-111231904D01*
X110127473Y-111260972D01*
X110127471Y-111260977D01*
X110072202Y-111467247D01*
X110072200Y-111467258D01*
X110053588Y-111679998D01*
X110053588Y-111680001D01*
X110072200Y-111892741D01*
X110072202Y-111892752D01*
X110127471Y-112099022D01*
X110127473Y-112099026D01*
X110127474Y-112099030D01*
X110154555Y-112157105D01*
X110217727Y-112292578D01*
X110217728Y-112292580D01*
X110217729Y-112292581D01*
X110233253Y-112314752D01*
X110340222Y-112467521D01*
X110491228Y-112618527D01*
X110491231Y-112618529D01*
X110666169Y-112741021D01*
X110666171Y-112741022D01*
X110666170Y-112741022D01*
X110730686Y-112771106D01*
X110859720Y-112831276D01*
X110859733Y-112831279D01*
X110864814Y-112833130D01*
X110864140Y-112834978D01*
X110916430Y-112866857D01*
X110946954Y-112929707D01*
X110938653Y-112999082D01*
X110894163Y-113052956D01*
X110864654Y-113066432D01*
X110864986Y-113067342D01*
X110859890Y-113069197D01*
X110666421Y-113159412D01*
X110666419Y-113159413D01*
X110610719Y-113198415D01*
X110610718Y-113198415D01*
X111234350Y-113822046D01*
X111153602Y-113834835D01*
X111040705Y-113892359D01*
X110951109Y-113981955D01*
X110893585Y-114094852D01*
X110880796Y-114175599D01*
X110257165Y-113551968D01*
X110257165Y-113551969D01*
X110218163Y-113607669D01*
X110218162Y-113607671D01*
X110127463Y-113802178D01*
X110081291Y-113854617D01*
X110014097Y-113873769D01*
X109947216Y-113853553D01*
X109927400Y-113837454D01*
X107907709Y-111817763D01*
X107874224Y-111756440D01*
X107875615Y-111697989D01*
X107880436Y-111679998D01*
X107895063Y-111625408D01*
X107915659Y-111390000D01*
X107898150Y-111189882D01*
X107911916Y-111121385D01*
X107960531Y-111071202D01*
X108025021Y-111056096D01*
X108025021Y-111055500D01*
X108027569Y-111055500D01*
X108028560Y-111055268D01*
X108031110Y-111055500D01*
G37*
%TD.AperFunction*%
%TA.AperFunction,Conductor*%
G36*
X119342892Y-107875185D02*
G01*
X119388647Y-107927989D01*
X119398591Y-107997147D01*
X119369566Y-108060703D01*
X119363534Y-108067181D01*
X117712534Y-109718181D01*
X117651211Y-109751666D01*
X117624853Y-109754500D01*
X112533518Y-109754500D01*
X112466479Y-109734815D01*
X112420724Y-109682011D01*
X112410780Y-109612853D01*
X112421135Y-109578097D01*
X112425362Y-109569031D01*
X112430026Y-109559030D01*
X112485299Y-109352747D01*
X112503912Y-109140000D01*
X112485299Y-108927253D01*
X112432707Y-108730977D01*
X112430028Y-108720977D01*
X112430027Y-108720976D01*
X112430026Y-108720970D01*
X112339771Y-108527419D01*
X112217279Y-108352481D01*
X112217277Y-108352478D01*
X112066271Y-108201472D01*
X111967172Y-108132083D01*
X111894323Y-108081074D01*
X111850699Y-108026499D01*
X111843505Y-107957000D01*
X111875027Y-107894645D01*
X111935257Y-107859231D01*
X111965447Y-107855500D01*
X119275853Y-107855500D01*
X119342892Y-107875185D01*
G37*
%TD.AperFunction*%
%TA.AperFunction,Conductor*%
G36*
X143752539Y-104550185D02*
G01*
X143798294Y-104602989D01*
X143809500Y-104654500D01*
X143809500Y-154405500D01*
X143789815Y-154472539D01*
X143737011Y-154518294D01*
X143685500Y-154529500D01*
X104934500Y-154529500D01*
X104867461Y-154509815D01*
X104821706Y-154457011D01*
X104810500Y-154405500D01*
X104810500Y-138695000D01*
X121689341Y-138695000D01*
X121709936Y-138930403D01*
X121709938Y-138930413D01*
X121771094Y-139158655D01*
X121771096Y-139158659D01*
X121771097Y-139158663D01*
X121775000Y-139167032D01*
X121870965Y-139372830D01*
X121870967Y-139372834D01*
X121979281Y-139527521D01*
X122006505Y-139566401D01*
X122173599Y-139733495D01*
X122359594Y-139863730D01*
X122403218Y-139918307D01*
X122410411Y-139987806D01*
X122378889Y-140050160D01*
X122359593Y-140066880D01*
X122283626Y-140120072D01*
X122283625Y-140120072D01*
X122912466Y-140748913D01*
X122902685Y-140750320D01*
X122771900Y-140810048D01*
X122663239Y-140904202D01*
X122585507Y-141025156D01*
X122561923Y-141105475D01*
X121930073Y-140473625D01*
X121930072Y-140473625D01*
X121871401Y-140557419D01*
X121771570Y-140771507D01*
X121771566Y-140771516D01*
X121710432Y-140999673D01*
X121710430Y-140999684D01*
X121689843Y-141234998D01*
X121689843Y-141235001D01*
X121710430Y-141470315D01*
X121710432Y-141470326D01*
X121771566Y-141698483D01*
X121771570Y-141698492D01*
X121871400Y-141912579D01*
X121871402Y-141912583D01*
X121930072Y-141996373D01*
X121930073Y-141996373D01*
X122561923Y-141364523D01*
X122585507Y-141444844D01*
X122663239Y-141565798D01*
X122771900Y-141659952D01*
X122902685Y-141719680D01*
X122912466Y-141721086D01*
X122283625Y-142349925D01*
X122360031Y-142403425D01*
X122403655Y-142458002D01*
X122410848Y-142527501D01*
X122379326Y-142589855D01*
X122360029Y-142606576D01*
X122283625Y-142660072D01*
X122912466Y-143288913D01*
X122902685Y-143290320D01*
X122771900Y-143350048D01*
X122663239Y-143444202D01*
X122585507Y-143565156D01*
X122561923Y-143645475D01*
X121930073Y-143013625D01*
X121930072Y-143013625D01*
X121871401Y-143097419D01*
X121771570Y-143311507D01*
X121771566Y-143311516D01*
X121710432Y-143539673D01*
X121710430Y-143539684D01*
X121689843Y-143774998D01*
X121689843Y-143775001D01*
X121710430Y-144010315D01*
X121710432Y-144010326D01*
X121771566Y-144238483D01*
X121771570Y-144238492D01*
X121871400Y-144452579D01*
X121871402Y-144452583D01*
X121930072Y-144536373D01*
X121930073Y-144536373D01*
X122561923Y-143904523D01*
X122585507Y-143984844D01*
X122663239Y-144105798D01*
X122771900Y-144199952D01*
X122902685Y-144259680D01*
X122912466Y-144261086D01*
X122283625Y-144889925D01*
X122360031Y-144943425D01*
X122403655Y-144998002D01*
X122410848Y-145067501D01*
X122379326Y-145129855D01*
X122360029Y-145146576D01*
X122283625Y-145200072D01*
X122912466Y-145828913D01*
X122902685Y-145830320D01*
X122771900Y-145890048D01*
X122663239Y-145984202D01*
X122585507Y-146105156D01*
X122561923Y-146185475D01*
X121930073Y-145553625D01*
X121930072Y-145553625D01*
X121871401Y-145637419D01*
X121771570Y-145851507D01*
X121771566Y-145851516D01*
X121710432Y-146079673D01*
X121710430Y-146079684D01*
X121689843Y-146314998D01*
X121689843Y-146315001D01*
X121710430Y-146550315D01*
X121710432Y-146550326D01*
X121771566Y-146778483D01*
X121771570Y-146778492D01*
X121871400Y-146992579D01*
X121871402Y-146992583D01*
X121930072Y-147076373D01*
X121930073Y-147076373D01*
X122561923Y-146444523D01*
X122585507Y-146524844D01*
X122663239Y-146645798D01*
X122771900Y-146739952D01*
X122902685Y-146799680D01*
X122912466Y-146801086D01*
X122279208Y-147434342D01*
X122268788Y-147486193D01*
X122220172Y-147536376D01*
X122198032Y-147546205D01*
X122125674Y-147570182D01*
X122125663Y-147570187D01*
X121976342Y-147662289D01*
X121852289Y-147786342D01*
X121760187Y-147935663D01*
X121760185Y-147935668D01*
X121743701Y-147985414D01*
X121705001Y-148102203D01*
X121705001Y-148102204D01*
X121705000Y-148102204D01*
X121694500Y-148204983D01*
X121694500Y-149505001D01*
X121694501Y-149505018D01*
X121705000Y-149607796D01*
X121705001Y-149607799D01*
X121744303Y-149726402D01*
X121760186Y-149774334D01*
X121852288Y-149923656D01*
X121976344Y-150047712D01*
X122125666Y-150139814D01*
X122292203Y-150194999D01*
X122394991Y-150205500D01*
X123695008Y-150205499D01*
X123797797Y-150194999D01*
X123964334Y-150139814D01*
X124113656Y-150047712D01*
X124237712Y-149923656D01*
X124329814Y-149774334D01*
X124332662Y-149765738D01*
X124372429Y-149708294D01*
X124436944Y-149681468D01*
X124505720Y-149693779D01*
X124542483Y-149722766D01*
X124542677Y-149722573D01*
X124544313Y-149724209D01*
X124545354Y-149725030D01*
X124546501Y-149726397D01*
X124546505Y-149726401D01*
X124713599Y-149893495D01*
X124800860Y-149954596D01*
X124907165Y-150029032D01*
X124907167Y-150029033D01*
X124907170Y-150029035D01*
X125121337Y-150128903D01*
X125349592Y-150190063D01*
X125526034Y-150205500D01*
X125584999Y-150210659D01*
X125585000Y-150210659D01*
X125585001Y-150210659D01*
X125643966Y-150205500D01*
X125820408Y-150190063D01*
X126048663Y-150128903D01*
X126262830Y-150029035D01*
X126456401Y-149893495D01*
X126623495Y-149726401D01*
X126759035Y-149532830D01*
X126858903Y-149318663D01*
X126920063Y-149090408D01*
X126940659Y-148855000D01*
X126920063Y-148619592D01*
X126858903Y-148391337D01*
X126759035Y-148177171D01*
X126714568Y-148113664D01*
X126623494Y-147983597D01*
X126456402Y-147816506D01*
X126456401Y-147816505D01*
X126270405Y-147686269D01*
X126226781Y-147631692D01*
X126219588Y-147562193D01*
X126251110Y-147499839D01*
X126270405Y-147483119D01*
X126346373Y-147429925D01*
X125717533Y-146801086D01*
X125727315Y-146799680D01*
X125858100Y-146739952D01*
X125966761Y-146645798D01*
X126044493Y-146524844D01*
X126068076Y-146444524D01*
X126699925Y-147076373D01*
X126699926Y-147076373D01*
X126758598Y-146992582D01*
X126758600Y-146992578D01*
X126858429Y-146778492D01*
X126858433Y-146778483D01*
X126919567Y-146550326D01*
X126919569Y-146550315D01*
X126940157Y-146315001D01*
X126940157Y-146314998D01*
X126919569Y-146079684D01*
X126919567Y-146079673D01*
X126858433Y-145851516D01*
X126858429Y-145851507D01*
X126758600Y-145637423D01*
X126758599Y-145637421D01*
X126699925Y-145553626D01*
X126699925Y-145553625D01*
X126068076Y-146185475D01*
X126044493Y-146105156D01*
X125966761Y-145984202D01*
X125858100Y-145890048D01*
X125727315Y-145830320D01*
X125717533Y-145828913D01*
X126346373Y-145200073D01*
X126269969Y-145146576D01*
X126226344Y-145091999D01*
X126219150Y-145022501D01*
X126250672Y-144960146D01*
X126269968Y-144943425D01*
X126346373Y-144889925D01*
X125717533Y-144261086D01*
X125727315Y-144259680D01*
X125858100Y-144199952D01*
X125966761Y-144105798D01*
X126044493Y-143984844D01*
X126068076Y-143904524D01*
X126699925Y-144536373D01*
X126699926Y-144536373D01*
X126758598Y-144452582D01*
X126758600Y-144452578D01*
X126858429Y-144238492D01*
X126858433Y-144238483D01*
X126919567Y-144010326D01*
X126919569Y-144010315D01*
X126940157Y-143775001D01*
X126940157Y-143774998D01*
X126919569Y-143539684D01*
X126919567Y-143539673D01*
X126858433Y-143311516D01*
X126858429Y-143311507D01*
X126758600Y-143097423D01*
X126758599Y-143097421D01*
X126699925Y-143013626D01*
X126699925Y-143013625D01*
X126068076Y-143645475D01*
X126044493Y-143565156D01*
X125966761Y-143444202D01*
X125858100Y-143350048D01*
X125727315Y-143290320D01*
X125717533Y-143288913D01*
X126346373Y-142660073D01*
X126269969Y-142606576D01*
X126226344Y-142551999D01*
X126219150Y-142482501D01*
X126250672Y-142420146D01*
X126269968Y-142403425D01*
X126346373Y-142349925D01*
X125717533Y-141721086D01*
X125727315Y-141719680D01*
X125858100Y-141659952D01*
X125966761Y-141565798D01*
X126044493Y-141444844D01*
X126068076Y-141364524D01*
X126699925Y-141996373D01*
X126699926Y-141996373D01*
X126758598Y-141912582D01*
X126758600Y-141912578D01*
X126858429Y-141698492D01*
X126858433Y-141698483D01*
X126919567Y-141470326D01*
X126919569Y-141470315D01*
X126940157Y-141235001D01*
X126940157Y-141234998D01*
X126919569Y-140999684D01*
X126919567Y-140999673D01*
X126858433Y-140771516D01*
X126858429Y-140771507D01*
X126758600Y-140557423D01*
X126758599Y-140557421D01*
X126699925Y-140473626D01*
X126699925Y-140473625D01*
X126068076Y-141105475D01*
X126044493Y-141025156D01*
X125966761Y-140904202D01*
X125858100Y-140810048D01*
X125727315Y-140750320D01*
X125717533Y-140748913D01*
X126346373Y-140120073D01*
X126346373Y-140120072D01*
X126270405Y-140066880D01*
X126226780Y-140012304D01*
X126219586Y-139942805D01*
X126251108Y-139880451D01*
X126270399Y-139863734D01*
X126456401Y-139733495D01*
X126623495Y-139566401D01*
X126759035Y-139372830D01*
X126858903Y-139158663D01*
X126920063Y-138930408D01*
X126940659Y-138695000D01*
X126920063Y-138459592D01*
X126858903Y-138231337D01*
X126759035Y-138017171D01*
X126753425Y-138009158D01*
X126623494Y-137823597D01*
X126456402Y-137656506D01*
X126456395Y-137656501D01*
X126262834Y-137520967D01*
X126262830Y-137520965D01*
X126262828Y-137520964D01*
X126048663Y-137421097D01*
X126048659Y-137421096D01*
X126048655Y-137421094D01*
X125820413Y-137359938D01*
X125820403Y-137359936D01*
X125585001Y-137339341D01*
X125584999Y-137339341D01*
X125349596Y-137359936D01*
X125349586Y-137359938D01*
X125121344Y-137421094D01*
X125121335Y-137421098D01*
X124907171Y-137520964D01*
X124907169Y-137520965D01*
X124713597Y-137656505D01*
X124546505Y-137823597D01*
X124416575Y-138009158D01*
X124361998Y-138052783D01*
X124292500Y-138059977D01*
X124230145Y-138028454D01*
X124213425Y-138009158D01*
X124083494Y-137823597D01*
X123916402Y-137656506D01*
X123916395Y-137656501D01*
X123722834Y-137520967D01*
X123722830Y-137520965D01*
X123722828Y-137520964D01*
X123508663Y-137421097D01*
X123508659Y-137421096D01*
X123508655Y-137421094D01*
X123280413Y-137359938D01*
X123280403Y-137359936D01*
X123045001Y-137339341D01*
X123044999Y-137339341D01*
X122809596Y-137359936D01*
X122809586Y-137359938D01*
X122581344Y-137421094D01*
X122581335Y-137421098D01*
X122367171Y-137520964D01*
X122367169Y-137520965D01*
X122173597Y-137656505D01*
X122006505Y-137823597D01*
X121870965Y-138017169D01*
X121870964Y-138017171D01*
X121771098Y-138231335D01*
X121771094Y-138231344D01*
X121709938Y-138459586D01*
X121709936Y-138459596D01*
X121689341Y-138694999D01*
X121689341Y-138695000D01*
X104810500Y-138695000D01*
X104810500Y-132255000D01*
X115029540Y-132255000D01*
X115049326Y-132443256D01*
X115049327Y-132443259D01*
X115107818Y-132623277D01*
X115107821Y-132623284D01*
X115202467Y-132787216D01*
X115308971Y-132905500D01*
X115329129Y-132927888D01*
X115482265Y-133039148D01*
X115482270Y-133039151D01*
X115655192Y-133116142D01*
X115655197Y-133116144D01*
X115840354Y-133155500D01*
X115840355Y-133155500D01*
X116029644Y-133155500D01*
X116029646Y-133155500D01*
X116214803Y-133116144D01*
X116387730Y-133039151D01*
X116539090Y-132929182D01*
X116604896Y-132905702D01*
X116611975Y-132905500D01*
X123754192Y-132905500D01*
X123821231Y-132925185D01*
X123841873Y-132941819D01*
X140662290Y-149762236D01*
X140695775Y-149823559D01*
X140694384Y-149882008D01*
X140674937Y-149954589D01*
X140674937Y-149954590D01*
X140654341Y-150189999D01*
X140654341Y-150190000D01*
X140674936Y-150425403D01*
X140674938Y-150425413D01*
X140736094Y-150653655D01*
X140736096Y-150653659D01*
X140736097Y-150653663D01*
X140835965Y-150867830D01*
X140835967Y-150867834D01*
X140944281Y-151022521D01*
X140971501Y-151061396D01*
X140971506Y-151061402D01*
X141093818Y-151183714D01*
X141127303Y-151245037D01*
X141122319Y-151314729D01*
X141080447Y-151370662D01*
X141049471Y-151387577D01*
X140917912Y-151436646D01*
X140917906Y-151436649D01*
X140802812Y-151522809D01*
X140802809Y-151522812D01*
X140716649Y-151637906D01*
X140716645Y-151637913D01*
X140666403Y-151772620D01*
X140666401Y-151772627D01*
X140660000Y-151832155D01*
X140660000Y-152480000D01*
X141576314Y-152480000D01*
X141550507Y-152520156D01*
X141510000Y-152658111D01*
X141510000Y-152801889D01*
X141550507Y-152939844D01*
X141576314Y-152980000D01*
X140660000Y-152980000D01*
X140660000Y-153627844D01*
X140666401Y-153687372D01*
X140666403Y-153687379D01*
X140716645Y-153822086D01*
X140716649Y-153822093D01*
X140802809Y-153937187D01*
X140802812Y-153937190D01*
X140917906Y-154023350D01*
X140917913Y-154023354D01*
X141052620Y-154073596D01*
X141052627Y-154073598D01*
X141112155Y-154079999D01*
X141112172Y-154080000D01*
X141760000Y-154080000D01*
X141760000Y-153165501D01*
X141867685Y-153214680D01*
X141974237Y-153230000D01*
X142045763Y-153230000D01*
X142152315Y-153214680D01*
X142260000Y-153165501D01*
X142260000Y-154080000D01*
X142907828Y-154080000D01*
X142907844Y-154079999D01*
X142967372Y-154073598D01*
X142967379Y-154073596D01*
X143102086Y-154023354D01*
X143102093Y-154023350D01*
X143217187Y-153937190D01*
X143217190Y-153937187D01*
X143303350Y-153822093D01*
X143303354Y-153822086D01*
X143353596Y-153687379D01*
X143353598Y-153687372D01*
X143359999Y-153627844D01*
X143360000Y-153627827D01*
X143360000Y-152980000D01*
X142443686Y-152980000D01*
X142469493Y-152939844D01*
X142510000Y-152801889D01*
X142510000Y-152658111D01*
X142469493Y-152520156D01*
X142443686Y-152480000D01*
X143360000Y-152480000D01*
X143360000Y-151832172D01*
X143359999Y-151832155D01*
X143353598Y-151772627D01*
X143353596Y-151772620D01*
X143303354Y-151637913D01*
X143303350Y-151637906D01*
X143217190Y-151522812D01*
X143217187Y-151522809D01*
X143102093Y-151436649D01*
X143102088Y-151436646D01*
X142970528Y-151387577D01*
X142914595Y-151345705D01*
X142890178Y-151280241D01*
X142905030Y-151211968D01*
X142926175Y-151183720D01*
X143048495Y-151061401D01*
X143184035Y-150867830D01*
X143283903Y-150653663D01*
X143345063Y-150425408D01*
X143365659Y-150190000D01*
X143345063Y-149954592D01*
X143293522Y-149762236D01*
X143283905Y-149726344D01*
X143283904Y-149726343D01*
X143283903Y-149726337D01*
X143184035Y-149512171D01*
X143179027Y-149505018D01*
X143048494Y-149318597D01*
X142881402Y-149151506D01*
X142881396Y-149151501D01*
X142695842Y-149021575D01*
X142652217Y-148966998D01*
X142645023Y-148897500D01*
X142676546Y-148835145D01*
X142695842Y-148818425D01*
X142718026Y-148802891D01*
X142881401Y-148688495D01*
X143048495Y-148521401D01*
X143184035Y-148327830D01*
X143283903Y-148113663D01*
X143345063Y-147885408D01*
X143365659Y-147650000D01*
X143345063Y-147414592D01*
X143283903Y-147186337D01*
X143184035Y-146972171D01*
X143167917Y-146949151D01*
X143048494Y-146778597D01*
X142881402Y-146611506D01*
X142881396Y-146611501D01*
X142695842Y-146481575D01*
X142652217Y-146426998D01*
X142645023Y-146357500D01*
X142676546Y-146295145D01*
X142695842Y-146278425D01*
X142746275Y-146243111D01*
X142881401Y-146148495D01*
X143048495Y-145981401D01*
X143184035Y-145787830D01*
X143283903Y-145573663D01*
X143345063Y-145345408D01*
X143365659Y-145110000D01*
X143345063Y-144874592D01*
X143283903Y-144646337D01*
X143184035Y-144432171D01*
X143167917Y-144409151D01*
X143048494Y-144238597D01*
X142881402Y-144071506D01*
X142881395Y-144071501D01*
X142687834Y-143935967D01*
X142687830Y-143935965D01*
X142473663Y-143836097D01*
X142473659Y-143836096D01*
X142473655Y-143836094D01*
X142245413Y-143774938D01*
X142245403Y-143774936D01*
X142010001Y-143754341D01*
X142009999Y-143754341D01*
X141774590Y-143774937D01*
X141774589Y-143774937D01*
X141702008Y-143794384D01*
X141632158Y-143792720D01*
X141582236Y-143762290D01*
X129446819Y-131626873D01*
X129413334Y-131565550D01*
X129410500Y-131539192D01*
X129410500Y-130574142D01*
X129430185Y-130507103D01*
X129482989Y-130461348D01*
X129552147Y-130451404D01*
X129560270Y-130452850D01*
X129690354Y-130480500D01*
X129690355Y-130480500D01*
X129879644Y-130480500D01*
X129879646Y-130480500D01*
X130064803Y-130441144D01*
X130237730Y-130364151D01*
X130390871Y-130252888D01*
X130517533Y-130112216D01*
X130612179Y-129948284D01*
X130670674Y-129768256D01*
X130690460Y-129580000D01*
X130670674Y-129391744D01*
X130624619Y-129250001D01*
X136116088Y-129250001D01*
X136134700Y-129462741D01*
X136134702Y-129462752D01*
X136189971Y-129669022D01*
X136189973Y-129669026D01*
X136189974Y-129669030D01*
X136232421Y-129760058D01*
X136280227Y-129862578D01*
X136402722Y-130037521D01*
X136553728Y-130188527D01*
X136553731Y-130188529D01*
X136728669Y-130311021D01*
X136728671Y-130311022D01*
X136728670Y-130311022D01*
X136793186Y-130341106D01*
X136922220Y-130401276D01*
X137128503Y-130456549D01*
X137280465Y-130469844D01*
X137341248Y-130475162D01*
X137341250Y-130475162D01*
X137341252Y-130475162D01*
X137394436Y-130470508D01*
X137553997Y-130456549D01*
X137760280Y-130401276D01*
X137953831Y-130311021D01*
X138128769Y-130188529D01*
X138279779Y-130037519D01*
X138402271Y-129862581D01*
X138492526Y-129669030D01*
X138547799Y-129462747D01*
X138566412Y-129250000D01*
X138564662Y-129230002D01*
X138547799Y-129037258D01*
X138547799Y-129037253D01*
X138492526Y-128830970D01*
X138402271Y-128637419D01*
X138279779Y-128462481D01*
X138279777Y-128462478D01*
X138128771Y-128311472D01*
X137953828Y-128188977D01*
X137953829Y-128188977D01*
X137824797Y-128128809D01*
X137760280Y-128098724D01*
X137760273Y-128098722D01*
X137755186Y-128096870D01*
X137755959Y-128094746D01*
X137704555Y-128063424D01*
X137674016Y-128000581D01*
X137682300Y-127931204D01*
X137726778Y-127877320D01*
X137755565Y-127864172D01*
X137755186Y-127863130D01*
X137760263Y-127861280D01*
X137760280Y-127861276D01*
X137953831Y-127771021D01*
X138128769Y-127648529D01*
X138279779Y-127497519D01*
X138402271Y-127322581D01*
X138492526Y-127129030D01*
X138547799Y-126922747D01*
X138566412Y-126710000D01*
X138547799Y-126497253D01*
X138492526Y-126290970D01*
X138402271Y-126097419D01*
X138279779Y-125922481D01*
X138279777Y-125922478D01*
X138128771Y-125771472D01*
X137953828Y-125648977D01*
X137953829Y-125648977D01*
X137824797Y-125588809D01*
X137760280Y-125558724D01*
X137760273Y-125558722D01*
X137755186Y-125556870D01*
X137755959Y-125554746D01*
X137704555Y-125523424D01*
X137674016Y-125460581D01*
X137682300Y-125391204D01*
X137726778Y-125337320D01*
X137755565Y-125324172D01*
X137755186Y-125323130D01*
X137760263Y-125321280D01*
X137760280Y-125321276D01*
X137953831Y-125231021D01*
X138128769Y-125108529D01*
X138279779Y-124957519D01*
X138402271Y-124782581D01*
X138492526Y-124589030D01*
X138547799Y-124382747D01*
X138566412Y-124170000D01*
X138565023Y-124154129D01*
X138558723Y-124082111D01*
X138547799Y-123957253D01*
X138492526Y-123750970D01*
X138402271Y-123557419D01*
X138279779Y-123382481D01*
X138279777Y-123382478D01*
X138128771Y-123231472D01*
X137953828Y-123108977D01*
X137953829Y-123108977D01*
X137824797Y-123048809D01*
X137760280Y-123018724D01*
X137760276Y-123018723D01*
X137760272Y-123018721D01*
X137554002Y-122963452D01*
X137553998Y-122963451D01*
X137553997Y-122963451D01*
X137553996Y-122963450D01*
X137553991Y-122963450D01*
X137341252Y-122944838D01*
X137341248Y-122944838D01*
X137128508Y-122963450D01*
X137128497Y-122963452D01*
X136922227Y-123018721D01*
X136922218Y-123018725D01*
X136728671Y-123108977D01*
X136553728Y-123231472D01*
X136402722Y-123382478D01*
X136280227Y-123557421D01*
X136189975Y-123750968D01*
X136189971Y-123750977D01*
X136134702Y-123957247D01*
X136134700Y-123957258D01*
X136116088Y-124169998D01*
X136116088Y-124170001D01*
X136134700Y-124382741D01*
X136134702Y-124382752D01*
X136189971Y-124589022D01*
X136189973Y-124589026D01*
X136189974Y-124589030D01*
X136232421Y-124680058D01*
X136280227Y-124782578D01*
X136280228Y-124782580D01*
X136280229Y-124782581D01*
X136286225Y-124791144D01*
X136402722Y-124957521D01*
X136553728Y-125108527D01*
X136553731Y-125108529D01*
X136728669Y-125231021D01*
X136728671Y-125231022D01*
X136728670Y-125231022D01*
X136786690Y-125258077D01*
X136922220Y-125321276D01*
X136922233Y-125321279D01*
X136927314Y-125323130D01*
X136926542Y-125325250D01*
X136977960Y-125356594D01*
X137008487Y-125419442D01*
X137000189Y-125488817D01*
X136955702Y-125542693D01*
X136926935Y-125555830D01*
X136927314Y-125556870D01*
X136922222Y-125558723D01*
X136922220Y-125558724D01*
X136922218Y-125558725D01*
X136728671Y-125648977D01*
X136553728Y-125771472D01*
X136402722Y-125922478D01*
X136280227Y-126097421D01*
X136189975Y-126290968D01*
X136189971Y-126290977D01*
X136134702Y-126497247D01*
X136134700Y-126497258D01*
X136116088Y-126709998D01*
X136116088Y-126710001D01*
X136134700Y-126922741D01*
X136134702Y-126922752D01*
X136189971Y-127129022D01*
X136189973Y-127129026D01*
X136189974Y-127129030D01*
X136226836Y-127208081D01*
X136280227Y-127322578D01*
X136280228Y-127322580D01*
X136280229Y-127322581D01*
X136292390Y-127339949D01*
X136402722Y-127497521D01*
X136553728Y-127648527D01*
X136553731Y-127648529D01*
X136728669Y-127771021D01*
X136728671Y-127771022D01*
X136728670Y-127771022D01*
X136793186Y-127801106D01*
X136922220Y-127861276D01*
X136922233Y-127861279D01*
X136927314Y-127863130D01*
X136926542Y-127865250D01*
X136977960Y-127896594D01*
X137008487Y-127959442D01*
X137000189Y-128028817D01*
X136955702Y-128082693D01*
X136926935Y-128095830D01*
X136927314Y-128096870D01*
X136922222Y-128098723D01*
X136922220Y-128098724D01*
X136922218Y-128098725D01*
X136728671Y-128188977D01*
X136553728Y-128311472D01*
X136402722Y-128462478D01*
X136280227Y-128637421D01*
X136189975Y-128830968D01*
X136189971Y-128830977D01*
X136134702Y-129037247D01*
X136134700Y-129037258D01*
X136116088Y-129249998D01*
X136116088Y-129250001D01*
X130624619Y-129250001D01*
X130612179Y-129211716D01*
X130517533Y-129047784D01*
X130444072Y-128966197D01*
X130413842Y-128903205D01*
X130412222Y-128883225D01*
X130412222Y-127958302D01*
X130431907Y-127891263D01*
X130444072Y-127875330D01*
X130462613Y-127854737D01*
X130519255Y-127791831D01*
X130613901Y-127627899D01*
X130672396Y-127447871D01*
X130692182Y-127259615D01*
X130672396Y-127071359D01*
X130613901Y-126891331D01*
X130519255Y-126727399D01*
X130392593Y-126586727D01*
X130392592Y-126586726D01*
X130239456Y-126475466D01*
X130239451Y-126475463D01*
X130066529Y-126398472D01*
X130066524Y-126398470D01*
X129920723Y-126367480D01*
X129881368Y-126359115D01*
X129692076Y-126359115D01*
X129560279Y-126387128D01*
X129490613Y-126381812D01*
X129434880Y-126339674D01*
X129410775Y-126274094D01*
X129410500Y-126265838D01*
X129410500Y-124555503D01*
X129412268Y-124539491D01*
X129412026Y-124539469D01*
X129412760Y-124531706D01*
X129410561Y-124461722D01*
X129410500Y-124457828D01*
X129410500Y-124429078D01*
X129410499Y-124429071D01*
X129409950Y-124424725D01*
X129409031Y-124413062D01*
X129408912Y-124409266D01*
X129407598Y-124367431D01*
X129401676Y-124347050D01*
X129397731Y-124327995D01*
X129395072Y-124306949D01*
X129395071Y-124306947D01*
X129395071Y-124306942D01*
X129378267Y-124264501D01*
X129374484Y-124253452D01*
X129361745Y-124209602D01*
X129361142Y-124208583D01*
X129350936Y-124191324D01*
X129342378Y-124173855D01*
X129334568Y-124154129D01*
X129307721Y-124117179D01*
X129301331Y-124107449D01*
X129278081Y-124068135D01*
X129263075Y-124053129D01*
X129250435Y-124038330D01*
X129237961Y-124021160D01*
X129202780Y-123992056D01*
X129194140Y-123984194D01*
X127090434Y-121880488D01*
X127080361Y-121867914D01*
X127080174Y-121868070D01*
X127075198Y-121862054D01*
X127024167Y-121814134D01*
X127021369Y-121811423D01*
X127001035Y-121791089D01*
X126997548Y-121788384D01*
X126988669Y-121780800D01*
X126955396Y-121749554D01*
X126955388Y-121749548D01*
X126936792Y-121739325D01*
X126920531Y-121728644D01*
X126903763Y-121715637D01*
X126887409Y-121708560D01*
X126861853Y-121697501D01*
X126851394Y-121692377D01*
X126811368Y-121670373D01*
X126811365Y-121670372D01*
X126790801Y-121665092D01*
X126772396Y-121658790D01*
X126752927Y-121650365D01*
X126752921Y-121650363D01*
X126707837Y-121643223D01*
X126696398Y-121640854D01*
X126652180Y-121629500D01*
X126652177Y-121629500D01*
X126630955Y-121629500D01*
X126611555Y-121627973D01*
X126590596Y-121624653D01*
X126590595Y-121624653D01*
X126555475Y-121627973D01*
X126545140Y-121628950D01*
X126533470Y-121629500D01*
X124211975Y-121629500D01*
X124144936Y-121609815D01*
X124139090Y-121605818D01*
X123987734Y-121495851D01*
X123987732Y-121495850D01*
X123981394Y-121493028D01*
X123928160Y-121447775D01*
X123907842Y-121380924D01*
X123913905Y-121341433D01*
X123970174Y-121168256D01*
X123989960Y-120980000D01*
X123970174Y-120791744D01*
X123911679Y-120611716D01*
X123817033Y-120447784D01*
X123690371Y-120307112D01*
X123688590Y-120305818D01*
X123537234Y-120195851D01*
X123537229Y-120195848D01*
X123364307Y-120118857D01*
X123364302Y-120118855D01*
X123218501Y-120087865D01*
X123179146Y-120079500D01*
X122989854Y-120079500D01*
X122957397Y-120086398D01*
X122804697Y-120118855D01*
X122804692Y-120118857D01*
X122631770Y-120195848D01*
X122631765Y-120195851D01*
X122480410Y-120305818D01*
X122414604Y-120329298D01*
X122407525Y-120329500D01*
X120962475Y-120329500D01*
X120895436Y-120309815D01*
X120889590Y-120305818D01*
X120738234Y-120195851D01*
X120738229Y-120195848D01*
X120565307Y-120118857D01*
X120565302Y-120118855D01*
X120419501Y-120087865D01*
X120380146Y-120079500D01*
X120190854Y-120079500D01*
X120158397Y-120086398D01*
X120005697Y-120118855D01*
X120005692Y-120118857D01*
X119832770Y-120195848D01*
X119832765Y-120195851D01*
X119679629Y-120307111D01*
X119552966Y-120447785D01*
X119458321Y-120611715D01*
X119458318Y-120611722D01*
X119399827Y-120791740D01*
X119399826Y-120791744D01*
X119380040Y-120980000D01*
X119399826Y-121168256D01*
X119399827Y-121168259D01*
X119458318Y-121348277D01*
X119458321Y-121348284D01*
X119552967Y-121512216D01*
X119658075Y-121628950D01*
X119679629Y-121652888D01*
X119832765Y-121764148D01*
X119832770Y-121764151D01*
X120005692Y-121841142D01*
X120005697Y-121841144D01*
X120190854Y-121880500D01*
X120190855Y-121880500D01*
X120380144Y-121880500D01*
X120380146Y-121880500D01*
X120565303Y-121841144D01*
X120738230Y-121764151D01*
X120889590Y-121654182D01*
X120955396Y-121630702D01*
X120962475Y-121630500D01*
X122407525Y-121630500D01*
X122474564Y-121650185D01*
X122480410Y-121654182D01*
X122631765Y-121764148D01*
X122631766Y-121764148D01*
X122631770Y-121764151D01*
X122638099Y-121766968D01*
X122691336Y-121812217D01*
X122711658Y-121879066D01*
X122705595Y-121918566D01*
X122649326Y-122091744D01*
X122629540Y-122280000D01*
X122649326Y-122468256D01*
X122649327Y-122468259D01*
X122707818Y-122648277D01*
X122707821Y-122648284D01*
X122802467Y-122812216D01*
X122903873Y-122924838D01*
X122929129Y-122952888D01*
X123000417Y-123004682D01*
X123043083Y-123060012D01*
X123049062Y-123129625D01*
X123016456Y-123191420D01*
X123000417Y-123205318D01*
X122929129Y-123257111D01*
X122802466Y-123397785D01*
X122707821Y-123561715D01*
X122707818Y-123561722D01*
X122649327Y-123741739D01*
X122649326Y-123741741D01*
X122635831Y-123870143D01*
X122609246Y-123934757D01*
X122600199Y-123944853D01*
X122476871Y-124068182D01*
X122415551Y-124101666D01*
X122389192Y-124104500D01*
X120686975Y-124104500D01*
X120619936Y-124084815D01*
X120614090Y-124080818D01*
X120462734Y-123970851D01*
X120462729Y-123970848D01*
X120289807Y-123893857D01*
X120289802Y-123893855D01*
X120144001Y-123862865D01*
X120104646Y-123854500D01*
X119915354Y-123854500D01*
X119882897Y-123861398D01*
X119730197Y-123893855D01*
X119730192Y-123893857D01*
X119557270Y-123970848D01*
X119557265Y-123970851D01*
X119404129Y-124082111D01*
X119277466Y-124222785D01*
X119182821Y-124386715D01*
X119182818Y-124386722D01*
X119133188Y-124539469D01*
X119124326Y-124566744D01*
X119104540Y-124755000D01*
X119124326Y-124943256D01*
X119124327Y-124943259D01*
X119182818Y-125123277D01*
X119182821Y-125123284D01*
X119277467Y-125287216D01*
X119378516Y-125399442D01*
X119404129Y-125427888D01*
X119557265Y-125539148D01*
X119557270Y-125539151D01*
X119730192Y-125616142D01*
X119730197Y-125616144D01*
X119915354Y-125655500D01*
X119915355Y-125655500D01*
X120104644Y-125655500D01*
X120104646Y-125655500D01*
X120289803Y-125616144D01*
X120462730Y-125539151D01*
X120614090Y-125429182D01*
X120679896Y-125405702D01*
X120686975Y-125405500D01*
X122624495Y-125405500D01*
X122640505Y-125407267D01*
X122640528Y-125407026D01*
X122648289Y-125407758D01*
X122648296Y-125407760D01*
X122718262Y-125405560D01*
X122722157Y-125405500D01*
X122750925Y-125405500D01*
X122755287Y-125404948D01*
X122766939Y-125404030D01*
X122812569Y-125402597D01*
X122832956Y-125396673D01*
X122851996Y-125392731D01*
X122873058Y-125390071D01*
X122915520Y-125373258D01*
X122926557Y-125369480D01*
X122970398Y-125356744D01*
X122988665Y-125345939D01*
X123006136Y-125337380D01*
X123025871Y-125329568D01*
X123062816Y-125302725D01*
X123072558Y-125296326D01*
X123111865Y-125273081D01*
X123126870Y-125258075D01*
X123141668Y-125245436D01*
X123158837Y-125232963D01*
X123187946Y-125197774D01*
X123195780Y-125189164D01*
X123518128Y-124866816D01*
X123579450Y-124833334D01*
X123605808Y-124830500D01*
X123629644Y-124830500D01*
X123629646Y-124830500D01*
X123814803Y-124791144D01*
X123987730Y-124714151D01*
X124140871Y-124602888D01*
X124267533Y-124462216D01*
X124362179Y-124298284D01*
X124420674Y-124118256D01*
X124440460Y-123930000D01*
X124420674Y-123741744D01*
X124362179Y-123561716D01*
X124267533Y-123397784D01*
X124140871Y-123257112D01*
X124069579Y-123205316D01*
X124026916Y-123149989D01*
X124020937Y-123080375D01*
X124053542Y-123018580D01*
X124069582Y-123004682D01*
X124077782Y-122998725D01*
X124139090Y-122954182D01*
X124204897Y-122930702D01*
X124211975Y-122930500D01*
X126249192Y-122930500D01*
X126316231Y-122950185D01*
X126336873Y-122966819D01*
X127648305Y-124278251D01*
X127681790Y-124339574D01*
X127676806Y-124409266D01*
X127634934Y-124465199D01*
X127586406Y-124487222D01*
X127555196Y-124493856D01*
X127555192Y-124493857D01*
X127382270Y-124570848D01*
X127382265Y-124570851D01*
X127229129Y-124682111D01*
X127102466Y-124822785D01*
X127007821Y-124986715D01*
X127007818Y-124986722D01*
X126968241Y-125108529D01*
X126949326Y-125166744D01*
X126929540Y-125355000D01*
X126949326Y-125543256D01*
X126949327Y-125543259D01*
X127007818Y-125723277D01*
X127007821Y-125723284D01*
X127102467Y-125887216D01*
X127139605Y-125928462D01*
X127152649Y-125942948D01*
X127182880Y-126005940D01*
X127184500Y-126025921D01*
X127184500Y-133406789D01*
X127182304Y-133430020D01*
X127180624Y-133438826D01*
X127180624Y-133438830D01*
X127184255Y-133496542D01*
X127184500Y-133504328D01*
X127184500Y-133520930D01*
X127186579Y-133537398D01*
X127187311Y-133545140D01*
X127190943Y-133602859D01*
X127193714Y-133611384D01*
X127198805Y-133634159D01*
X127199928Y-133643053D01*
X127199930Y-133643060D01*
X127221221Y-133696839D01*
X127223857Y-133704162D01*
X127241731Y-133759169D01*
X127241733Y-133759174D01*
X127246534Y-133766738D01*
X127257129Y-133787530D01*
X127260432Y-133795871D01*
X127260436Y-133795878D01*
X127294434Y-133842672D01*
X127298802Y-133849098D01*
X127319429Y-133881602D01*
X127329797Y-133897939D01*
X127336332Y-133904076D01*
X127351761Y-133921577D01*
X127357033Y-133928833D01*
X127357035Y-133928836D01*
X127401600Y-133965703D01*
X127407442Y-133970853D01*
X127455297Y-134015791D01*
X127455241Y-134015850D01*
X127459783Y-134019729D01*
X140662290Y-147222236D01*
X140695775Y-147283559D01*
X140694384Y-147342008D01*
X140674937Y-147414589D01*
X140674937Y-147414590D01*
X140656246Y-147628218D01*
X140630793Y-147693287D01*
X140574202Y-147734265D01*
X140504440Y-147738143D01*
X140445037Y-147705091D01*
X124595434Y-131855488D01*
X124585361Y-131842914D01*
X124585174Y-131843070D01*
X124580198Y-131837054D01*
X124529167Y-131789134D01*
X124526369Y-131786423D01*
X124506035Y-131766089D01*
X124502548Y-131763384D01*
X124493669Y-131755800D01*
X124460396Y-131724554D01*
X124460388Y-131724548D01*
X124441792Y-131714325D01*
X124425531Y-131703644D01*
X124408763Y-131690637D01*
X124392409Y-131683560D01*
X124366853Y-131672501D01*
X124356394Y-131667377D01*
X124316368Y-131645373D01*
X124316365Y-131645372D01*
X124295801Y-131640092D01*
X124277396Y-131633790D01*
X124257927Y-131625365D01*
X124257921Y-131625363D01*
X124212837Y-131618223D01*
X124201398Y-131615854D01*
X124157180Y-131604500D01*
X124157177Y-131604500D01*
X124135955Y-131604500D01*
X124116555Y-131602973D01*
X124095596Y-131599653D01*
X124095595Y-131599653D01*
X124060475Y-131602973D01*
X124050140Y-131603950D01*
X124038470Y-131604500D01*
X116611975Y-131604500D01*
X116544936Y-131584815D01*
X116539090Y-131580818D01*
X116387734Y-131470851D01*
X116387729Y-131470848D01*
X116214807Y-131393857D01*
X116214802Y-131393855D01*
X116069001Y-131362865D01*
X116029646Y-131354500D01*
X115840354Y-131354500D01*
X115807897Y-131361398D01*
X115655197Y-131393855D01*
X115655192Y-131393857D01*
X115482270Y-131470848D01*
X115482265Y-131470851D01*
X115329129Y-131582111D01*
X115202466Y-131722785D01*
X115107821Y-131886715D01*
X115107818Y-131886722D01*
X115049327Y-132066740D01*
X115049326Y-132066744D01*
X115029540Y-132255000D01*
X104810500Y-132255000D01*
X104810500Y-126690001D01*
X110053588Y-126690001D01*
X110072200Y-126902741D01*
X110072202Y-126902752D01*
X110127471Y-127109022D01*
X110127473Y-127109026D01*
X110127474Y-127109030D01*
X110163446Y-127186172D01*
X110217727Y-127302578D01*
X110340222Y-127477521D01*
X110491228Y-127628527D01*
X110491231Y-127628529D01*
X110666169Y-127751021D01*
X110666171Y-127751022D01*
X110666170Y-127751022D01*
X110709061Y-127771022D01*
X110859720Y-127841276D01*
X110859733Y-127841279D01*
X110864814Y-127843130D01*
X110864140Y-127844978D01*
X110916430Y-127876857D01*
X110946954Y-127939707D01*
X110938653Y-128009082D01*
X110894163Y-128062956D01*
X110864654Y-128076432D01*
X110864986Y-128077342D01*
X110859890Y-128079197D01*
X110666421Y-128169412D01*
X110666419Y-128169413D01*
X110610719Y-128208415D01*
X110610718Y-128208415D01*
X111234350Y-128832046D01*
X111153602Y-128844835D01*
X111040705Y-128902359D01*
X110951109Y-128991955D01*
X110893585Y-129104852D01*
X110880796Y-129185599D01*
X110257165Y-128561968D01*
X110257165Y-128561969D01*
X110218163Y-128617669D01*
X110218162Y-128617671D01*
X110127947Y-128811140D01*
X110127944Y-128811146D01*
X110072695Y-129017337D01*
X110072694Y-129017345D01*
X110054090Y-129229997D01*
X110054090Y-129230002D01*
X110072694Y-129442654D01*
X110072695Y-129442662D01*
X110127944Y-129648853D01*
X110127947Y-129648859D01*
X110218163Y-129842329D01*
X110257165Y-129898030D01*
X110880796Y-129274399D01*
X110893585Y-129355148D01*
X110951109Y-129468045D01*
X111040705Y-129557641D01*
X111153602Y-129615165D01*
X111234349Y-129627953D01*
X110610718Y-130251584D01*
X110666413Y-130290582D01*
X110666419Y-130290586D01*
X110859890Y-130380802D01*
X110859896Y-130380805D01*
X111066087Y-130436054D01*
X111066095Y-130436055D01*
X111278748Y-130454660D01*
X111278752Y-130454660D01*
X111491404Y-130436055D01*
X111491412Y-130436054D01*
X111697603Y-130380805D01*
X111697614Y-130380801D01*
X111891075Y-130290589D01*
X111946780Y-130251583D01*
X111323151Y-129627953D01*
X111403898Y-129615165D01*
X111516795Y-129557641D01*
X111606391Y-129468045D01*
X111663915Y-129355148D01*
X111676703Y-129274400D01*
X112300333Y-129898029D01*
X112339339Y-129842325D01*
X112429551Y-129648864D01*
X112429555Y-129648853D01*
X112484804Y-129442662D01*
X112484805Y-129442654D01*
X112503410Y-129230002D01*
X112503410Y-129229997D01*
X112484805Y-129017345D01*
X112484804Y-129017337D01*
X112429555Y-128811146D01*
X112429552Y-128811140D01*
X112339336Y-128617669D01*
X112339332Y-128617663D01*
X112300334Y-128561968D01*
X111676703Y-129185599D01*
X111663915Y-129104852D01*
X111606391Y-128991955D01*
X111516795Y-128902359D01*
X111403898Y-128844835D01*
X111323150Y-128832046D01*
X111946780Y-128208415D01*
X111891079Y-128169413D01*
X111697609Y-128079197D01*
X111692514Y-128077342D01*
X111693205Y-128075443D01*
X111641075Y-128043667D01*
X111610547Y-127980820D01*
X111618843Y-127911444D01*
X111663329Y-127857567D01*
X111693007Y-127844014D01*
X111692686Y-127843130D01*
X111697763Y-127841280D01*
X111697780Y-127841276D01*
X111891331Y-127751021D01*
X112066269Y-127628529D01*
X112217279Y-127477519D01*
X112237135Y-127449160D01*
X112276196Y-127393377D01*
X112330773Y-127349752D01*
X112377771Y-127340500D01*
X117709495Y-127340500D01*
X117725505Y-127342267D01*
X117725528Y-127342026D01*
X117733289Y-127342758D01*
X117733296Y-127342760D01*
X117803262Y-127340560D01*
X117807157Y-127340500D01*
X117835925Y-127340500D01*
X117840287Y-127339948D01*
X117851939Y-127339030D01*
X117897569Y-127337597D01*
X117917956Y-127331673D01*
X117936996Y-127327731D01*
X117958058Y-127325071D01*
X118000520Y-127308258D01*
X118011557Y-127304480D01*
X118055398Y-127291744D01*
X118073665Y-127280939D01*
X118091136Y-127272380D01*
X118110871Y-127264568D01*
X118147816Y-127237725D01*
X118157558Y-127231326D01*
X118196865Y-127208081D01*
X118211870Y-127193075D01*
X118226668Y-127180436D01*
X118243837Y-127167963D01*
X118272942Y-127132779D01*
X118280797Y-127124148D01*
X118393129Y-127011818D01*
X118454452Y-126978334D01*
X118480809Y-126975500D01*
X118504644Y-126975500D01*
X118504646Y-126975500D01*
X118689803Y-126936144D01*
X118862730Y-126859151D01*
X119015871Y-126747888D01*
X119142533Y-126607216D01*
X119237179Y-126443284D01*
X119295674Y-126263256D01*
X119315460Y-126075000D01*
X119295674Y-125886744D01*
X119237179Y-125706716D01*
X119142533Y-125542784D01*
X119015871Y-125402112D01*
X119012196Y-125399442D01*
X118862734Y-125290851D01*
X118862729Y-125290848D01*
X118689807Y-125213857D01*
X118689802Y-125213855D01*
X118544001Y-125182865D01*
X118504646Y-125174500D01*
X118315354Y-125174500D01*
X118282897Y-125181398D01*
X118130197Y-125213855D01*
X118130192Y-125213857D01*
X117957270Y-125290848D01*
X117957265Y-125290851D01*
X117804129Y-125402111D01*
X117677466Y-125542785D01*
X117582821Y-125706715D01*
X117582818Y-125706722D01*
X117561780Y-125771472D01*
X117524326Y-125886744D01*
X117519941Y-125928464D01*
X117493357Y-125993076D01*
X117436060Y-126033061D01*
X117396621Y-126039500D01*
X112377771Y-126039500D01*
X112310732Y-126019815D01*
X112276196Y-125986623D01*
X112217278Y-125902479D01*
X112066271Y-125751472D01*
X111891328Y-125628977D01*
X111891329Y-125628977D01*
X111740672Y-125558725D01*
X111697780Y-125538724D01*
X111697773Y-125538722D01*
X111692686Y-125536870D01*
X111693459Y-125534746D01*
X111642055Y-125503424D01*
X111611516Y-125440581D01*
X111619800Y-125371204D01*
X111664278Y-125317320D01*
X111693065Y-125304172D01*
X111692686Y-125303130D01*
X111697763Y-125301280D01*
X111697780Y-125301276D01*
X111891331Y-125211021D01*
X112066269Y-125088529D01*
X112217279Y-124937519D01*
X112339771Y-124762581D01*
X112430026Y-124569030D01*
X112485299Y-124362747D01*
X112503912Y-124150000D01*
X112485299Y-123937253D01*
X112430026Y-123730970D01*
X112339771Y-123537419D01*
X112217279Y-123362481D01*
X112217277Y-123362478D01*
X112066271Y-123211472D01*
X111919891Y-123108977D01*
X111891331Y-123088979D01*
X111891330Y-123088978D01*
X111891328Y-123088977D01*
X111891329Y-123088977D01*
X111740672Y-123018725D01*
X111697780Y-122998724D01*
X111697776Y-122998723D01*
X111697772Y-122998721D01*
X111491502Y-122943452D01*
X111491498Y-122943451D01*
X111491497Y-122943451D01*
X111491496Y-122943450D01*
X111491491Y-122943450D01*
X111278752Y-122924838D01*
X111278748Y-122924838D01*
X111066008Y-122943450D01*
X111065997Y-122943452D01*
X110859727Y-122998721D01*
X110859718Y-122998725D01*
X110666171Y-123088977D01*
X110491228Y-123211472D01*
X110340222Y-123362478D01*
X110217727Y-123537421D01*
X110127475Y-123730968D01*
X110127471Y-123730977D01*
X110072202Y-123937247D01*
X110072200Y-123937258D01*
X110053588Y-124149998D01*
X110053588Y-124150001D01*
X110072200Y-124362741D01*
X110072202Y-124362752D01*
X110127471Y-124569022D01*
X110127473Y-124569026D01*
X110127474Y-124569030D01*
X110169921Y-124660058D01*
X110217727Y-124762578D01*
X110340222Y-124937521D01*
X110491228Y-125088527D01*
X110491231Y-125088529D01*
X110666169Y-125211021D01*
X110666171Y-125211022D01*
X110666170Y-125211022D01*
X110709061Y-125231022D01*
X110859720Y-125301276D01*
X110859733Y-125301279D01*
X110864814Y-125303130D01*
X110864042Y-125305250D01*
X110915460Y-125336594D01*
X110945987Y-125399442D01*
X110937689Y-125468817D01*
X110893202Y-125522693D01*
X110864435Y-125535830D01*
X110864814Y-125536870D01*
X110859722Y-125538723D01*
X110859720Y-125538724D01*
X110859718Y-125538725D01*
X110666171Y-125628977D01*
X110491228Y-125751472D01*
X110340222Y-125902478D01*
X110217727Y-126077421D01*
X110127475Y-126270968D01*
X110127471Y-126270977D01*
X110072202Y-126477247D01*
X110072200Y-126477258D01*
X110053588Y-126689998D01*
X110053588Y-126690001D01*
X104810500Y-126690001D01*
X104810500Y-111390000D01*
X105204341Y-111390000D01*
X105224936Y-111625403D01*
X105224938Y-111625413D01*
X105286094Y-111853655D01*
X105286096Y-111853659D01*
X105286097Y-111853663D01*
X105326890Y-111941144D01*
X105385965Y-112067830D01*
X105385967Y-112067834D01*
X105436215Y-112139595D01*
X105519556Y-112258618D01*
X105521501Y-112261395D01*
X105521506Y-112261402D01*
X105643430Y-112383326D01*
X105676915Y-112444649D01*
X105671931Y-112514341D01*
X105630059Y-112570274D01*
X105599083Y-112587189D01*
X105467669Y-112636203D01*
X105467664Y-112636206D01*
X105352455Y-112722452D01*
X105352452Y-112722455D01*
X105266206Y-112837664D01*
X105266202Y-112837671D01*
X105215908Y-112972517D01*
X105209501Y-113032116D01*
X105209500Y-113032135D01*
X105209500Y-114827870D01*
X105209501Y-114827876D01*
X105215908Y-114887483D01*
X105266202Y-115022328D01*
X105266206Y-115022335D01*
X105352452Y-115137544D01*
X105352455Y-115137547D01*
X105467664Y-115223793D01*
X105467671Y-115223797D01*
X105602517Y-115274091D01*
X105602516Y-115274091D01*
X105609444Y-115274835D01*
X105662127Y-115280500D01*
X107457872Y-115280499D01*
X107517483Y-115274091D01*
X107652331Y-115223796D01*
X107767546Y-115137546D01*
X107853796Y-115022331D01*
X107904091Y-114887483D01*
X107910500Y-114827873D01*
X107910499Y-113959806D01*
X107930183Y-113892768D01*
X107982987Y-113847013D01*
X108052146Y-113837069D01*
X108115702Y-113866094D01*
X108122180Y-113872126D01*
X110969564Y-116719510D01*
X110979635Y-116732080D01*
X110979822Y-116731926D01*
X110984795Y-116737937D01*
X111035832Y-116785864D01*
X111038629Y-116788575D01*
X111058967Y-116808913D01*
X111062450Y-116811615D01*
X111071326Y-116819196D01*
X111101682Y-116847702D01*
X111104607Y-116850448D01*
X111123198Y-116860668D01*
X111139463Y-116871352D01*
X111156234Y-116884361D01*
X111156237Y-116884363D01*
X111198144Y-116902497D01*
X111208618Y-116907628D01*
X111248632Y-116929627D01*
X111269193Y-116934905D01*
X111287597Y-116941207D01*
X111307074Y-116949636D01*
X111352178Y-116956779D01*
X111363597Y-116959144D01*
X111407823Y-116970500D01*
X111429045Y-116970500D01*
X111448442Y-116972026D01*
X111469405Y-116975347D01*
X111514860Y-116971050D01*
X111526530Y-116970500D01*
X114423025Y-116970500D01*
X114490064Y-116990185D01*
X114495910Y-116994182D01*
X114647265Y-117104148D01*
X114647270Y-117104151D01*
X114820192Y-117181142D01*
X114820197Y-117181144D01*
X115005354Y-117220500D01*
X115005355Y-117220500D01*
X115194644Y-117220500D01*
X115194646Y-117220500D01*
X115379803Y-117181144D01*
X115552730Y-117104151D01*
X115705871Y-116992888D01*
X115832533Y-116852216D01*
X115927179Y-116688284D01*
X115985674Y-116508256D01*
X116005460Y-116320000D01*
X115985674Y-116131744D01*
X115927179Y-115951716D01*
X115832533Y-115787784D01*
X115705871Y-115647112D01*
X115686697Y-115633181D01*
X115552734Y-115535851D01*
X115552729Y-115535848D01*
X115379807Y-115458857D01*
X115379802Y-115458855D01*
X115234001Y-115427865D01*
X115194646Y-115419500D01*
X115005354Y-115419500D01*
X114972897Y-115426398D01*
X114820197Y-115458855D01*
X114820192Y-115458857D01*
X114647270Y-115535848D01*
X114647265Y-115535851D01*
X114495910Y-115645818D01*
X114430104Y-115669298D01*
X114423025Y-115669500D01*
X111810808Y-115669500D01*
X111743769Y-115649815D01*
X111723127Y-115633181D01*
X111661295Y-115571349D01*
X111627810Y-115510026D01*
X111632794Y-115440334D01*
X111674666Y-115384401D01*
X111696572Y-115371285D01*
X111891079Y-115280586D01*
X111946780Y-115241583D01*
X111323150Y-114617953D01*
X111403898Y-114605165D01*
X111516795Y-114547641D01*
X111606391Y-114458045D01*
X111663915Y-114345148D01*
X111676703Y-114264400D01*
X112300333Y-114888029D01*
X112339339Y-114832325D01*
X112429551Y-114638864D01*
X112429555Y-114638853D01*
X112484804Y-114432662D01*
X112484805Y-114432654D01*
X112503410Y-114220002D01*
X112503410Y-114219997D01*
X112484805Y-114007345D01*
X112484804Y-114007337D01*
X112429555Y-113801146D01*
X112429552Y-113801140D01*
X112339336Y-113607669D01*
X112339332Y-113607663D01*
X112300334Y-113551968D01*
X111676703Y-114175599D01*
X111663915Y-114094852D01*
X111606391Y-113981955D01*
X111516795Y-113892359D01*
X111403898Y-113834835D01*
X111323150Y-113822046D01*
X111946780Y-113198415D01*
X111891079Y-113159413D01*
X111697609Y-113069197D01*
X111692514Y-113067342D01*
X111693205Y-113065443D01*
X111641075Y-113033667D01*
X111610547Y-112970820D01*
X111618843Y-112901444D01*
X111663329Y-112847567D01*
X111693007Y-112834014D01*
X111692686Y-112833130D01*
X111697763Y-112831280D01*
X111697780Y-112831276D01*
X111891331Y-112741021D01*
X112066269Y-112618529D01*
X112217279Y-112467519D01*
X112276231Y-112383326D01*
X112293701Y-112358377D01*
X112348278Y-112314752D01*
X112395276Y-112305500D01*
X117727257Y-112305500D01*
X117742877Y-112307224D01*
X117742904Y-112306939D01*
X117750660Y-112307671D01*
X117750667Y-112307673D01*
X117817873Y-112305561D01*
X117821768Y-112305500D01*
X117849346Y-112305500D01*
X117849350Y-112305500D01*
X117853324Y-112304997D01*
X117864963Y-112304080D01*
X117908627Y-112302709D01*
X117924139Y-112298201D01*
X128875913Y-112298201D01*
X128895699Y-112486457D01*
X128895700Y-112486460D01*
X128954191Y-112666478D01*
X128954194Y-112666485D01*
X129048840Y-112830417D01*
X129073064Y-112857320D01*
X129124023Y-112913916D01*
X129154253Y-112976907D01*
X129155873Y-112996888D01*
X129155873Y-113885341D01*
X129136188Y-113952380D01*
X129124023Y-113968313D01*
X129052466Y-114047785D01*
X128957821Y-114211715D01*
X128957818Y-114211722D01*
X128914466Y-114345148D01*
X128899326Y-114391744D01*
X128879540Y-114580000D01*
X128899326Y-114768256D01*
X128899327Y-114768259D01*
X128957818Y-114948277D01*
X128957821Y-114948284D01*
X129052467Y-115112216D01*
X129152935Y-115223797D01*
X129179129Y-115252888D01*
X129332265Y-115364148D01*
X129332270Y-115364151D01*
X129505192Y-115441142D01*
X129505197Y-115441144D01*
X129690354Y-115480500D01*
X129690355Y-115480500D01*
X129879644Y-115480500D01*
X129879646Y-115480500D01*
X130064803Y-115441144D01*
X130237730Y-115364151D01*
X130390871Y-115252888D01*
X130517533Y-115112216D01*
X130612179Y-114948284D01*
X130670674Y-114768256D01*
X130690460Y-114580000D01*
X130670674Y-114391744D01*
X130618120Y-114230001D01*
X136116088Y-114230001D01*
X136134700Y-114442741D01*
X136134702Y-114442752D01*
X136189971Y-114649022D01*
X136189973Y-114649026D01*
X136189974Y-114649030D01*
X136232421Y-114740058D01*
X136280227Y-114842578D01*
X136402722Y-115017521D01*
X136553728Y-115168527D01*
X136553731Y-115168529D01*
X136728669Y-115291021D01*
X136728671Y-115291022D01*
X136728670Y-115291022D01*
X136793186Y-115321106D01*
X136922220Y-115381276D01*
X136922226Y-115381277D01*
X136922227Y-115381278D01*
X136971877Y-115394581D01*
X137128503Y-115436549D01*
X137280465Y-115449844D01*
X137341248Y-115455162D01*
X137341250Y-115455162D01*
X137341252Y-115455162D01*
X137394436Y-115450508D01*
X137553997Y-115436549D01*
X137760280Y-115381276D01*
X137953831Y-115291021D01*
X138128769Y-115168529D01*
X138279779Y-115017519D01*
X138402271Y-114842581D01*
X138492526Y-114649030D01*
X138547799Y-114442747D01*
X138566412Y-114230000D01*
X138547799Y-114017253D01*
X138492526Y-113810970D01*
X138402271Y-113617419D01*
X138279779Y-113442481D01*
X138279777Y-113442478D01*
X138128771Y-113291472D01*
X137953828Y-113168977D01*
X137953829Y-113168977D01*
X137824797Y-113108809D01*
X137760280Y-113078724D01*
X137760273Y-113078722D01*
X137755186Y-113076870D01*
X137755959Y-113074746D01*
X137704555Y-113043424D01*
X137674016Y-112980581D01*
X137682300Y-112911204D01*
X137726778Y-112857320D01*
X137755565Y-112844172D01*
X137755186Y-112843130D01*
X137760263Y-112841280D01*
X137760280Y-112841276D01*
X137953831Y-112751021D01*
X138128769Y-112628529D01*
X138279779Y-112477519D01*
X138402271Y-112302581D01*
X138492526Y-112109030D01*
X138547799Y-111902747D01*
X138566412Y-111690000D01*
X138547799Y-111477253D01*
X138492526Y-111270970D01*
X138402271Y-111077419D01*
X138296482Y-110926335D01*
X138279777Y-110902478D01*
X138128771Y-110751472D01*
X137953828Y-110628977D01*
X137953829Y-110628977D01*
X137823611Y-110568256D01*
X137760280Y-110538724D01*
X137760273Y-110538722D01*
X137755186Y-110536870D01*
X137755959Y-110534746D01*
X137704555Y-110503424D01*
X137674016Y-110440581D01*
X137682300Y-110371204D01*
X137726778Y-110317320D01*
X137755565Y-110304172D01*
X137755186Y-110303130D01*
X137760263Y-110301280D01*
X137760280Y-110301276D01*
X137953831Y-110211021D01*
X138128769Y-110088529D01*
X138279779Y-109937519D01*
X138402271Y-109762581D01*
X138492526Y-109569030D01*
X138547799Y-109362747D01*
X138566412Y-109150000D01*
X138547799Y-108937253D01*
X138492526Y-108730970D01*
X138402271Y-108537419D01*
X138279779Y-108362481D01*
X138279777Y-108362478D01*
X138128771Y-108211472D01*
X137953828Y-108088977D01*
X137953829Y-108088977D01*
X137819843Y-108026499D01*
X137760280Y-107998724D01*
X137760276Y-107998723D01*
X137760272Y-107998721D01*
X137554002Y-107943452D01*
X137553998Y-107943451D01*
X137553997Y-107943451D01*
X137553996Y-107943450D01*
X137553991Y-107943450D01*
X137341252Y-107924838D01*
X137341248Y-107924838D01*
X137128508Y-107943450D01*
X137128497Y-107943452D01*
X136922227Y-107998721D01*
X136922218Y-107998725D01*
X136728671Y-108088977D01*
X136553728Y-108211472D01*
X136402722Y-108362478D01*
X136280227Y-108537421D01*
X136189975Y-108730968D01*
X136189971Y-108730977D01*
X136134702Y-108937247D01*
X136134700Y-108937258D01*
X136116088Y-109149998D01*
X136116088Y-109150001D01*
X136134700Y-109362741D01*
X136134702Y-109362752D01*
X136189971Y-109569022D01*
X136189973Y-109569026D01*
X136189974Y-109569030D01*
X136206366Y-109604182D01*
X136280227Y-109762578D01*
X136402722Y-109937521D01*
X136553728Y-110088527D01*
X136553731Y-110088529D01*
X136728669Y-110211021D01*
X136728671Y-110211022D01*
X136728670Y-110211022D01*
X136793186Y-110241106D01*
X136922220Y-110301276D01*
X136922233Y-110301279D01*
X136927314Y-110303130D01*
X136926542Y-110305250D01*
X136977960Y-110336594D01*
X137008487Y-110399442D01*
X137000189Y-110468817D01*
X136955702Y-110522693D01*
X136926935Y-110535830D01*
X136927314Y-110536870D01*
X136922222Y-110538723D01*
X136922220Y-110538724D01*
X136922218Y-110538725D01*
X136728671Y-110628977D01*
X136553728Y-110751472D01*
X136402722Y-110902478D01*
X136280227Y-111077421D01*
X136189975Y-111270968D01*
X136189971Y-111270977D01*
X136134702Y-111477247D01*
X136134700Y-111477258D01*
X136116088Y-111689998D01*
X136116088Y-111690001D01*
X136134700Y-111902741D01*
X136134702Y-111902752D01*
X136189971Y-112109022D01*
X136189973Y-112109026D01*
X136189974Y-112109030D01*
X136212392Y-112157105D01*
X136280227Y-112302578D01*
X136280228Y-112302580D01*
X136280229Y-112302581D01*
X136288751Y-112314752D01*
X136402722Y-112477521D01*
X136553728Y-112628527D01*
X136553731Y-112628529D01*
X136728669Y-112751021D01*
X136728671Y-112751022D01*
X136728670Y-112751022D01*
X136793186Y-112781106D01*
X136922220Y-112841276D01*
X136922233Y-112841279D01*
X136927314Y-112843130D01*
X136926542Y-112845250D01*
X136977960Y-112876594D01*
X137008487Y-112939442D01*
X137000189Y-113008817D01*
X136955702Y-113062693D01*
X136926935Y-113075830D01*
X136927314Y-113076870D01*
X136922222Y-113078723D01*
X136922220Y-113078724D01*
X136922218Y-113078725D01*
X136728671Y-113168977D01*
X136553728Y-113291472D01*
X136402722Y-113442478D01*
X136280227Y-113617421D01*
X136189975Y-113810968D01*
X136189971Y-113810977D01*
X136134702Y-114017247D01*
X136134700Y-114017258D01*
X136116088Y-114229998D01*
X136116088Y-114230001D01*
X130618120Y-114230001D01*
X130612179Y-114211716D01*
X130517533Y-114047784D01*
X130517529Y-114047778D01*
X130438723Y-113960255D01*
X130408493Y-113897263D01*
X130406873Y-113877283D01*
X130406873Y-112996888D01*
X130426558Y-112929849D01*
X130438723Y-112913916D01*
X130463364Y-112886549D01*
X130513906Y-112830417D01*
X130608552Y-112666485D01*
X130667047Y-112486457D01*
X130686833Y-112298201D01*
X130667047Y-112109945D01*
X130608552Y-111929917D01*
X130513906Y-111765985D01*
X130387244Y-111625313D01*
X130387243Y-111625312D01*
X130234107Y-111514052D01*
X130234102Y-111514049D01*
X130061180Y-111437058D01*
X130061175Y-111437056D01*
X129915374Y-111406066D01*
X129876019Y-111397701D01*
X129686727Y-111397701D01*
X129654270Y-111404599D01*
X129501570Y-111437056D01*
X129501565Y-111437058D01*
X129328643Y-111514049D01*
X129328638Y-111514052D01*
X129175502Y-111625312D01*
X129048839Y-111765986D01*
X128954194Y-111929916D01*
X128954191Y-111929923D01*
X128895999Y-112109022D01*
X128895699Y-112109945D01*
X128875913Y-112298201D01*
X117924139Y-112298201D01*
X117927869Y-112297117D01*
X117946912Y-112293174D01*
X117966792Y-112290664D01*
X118007401Y-112274585D01*
X118018444Y-112270803D01*
X118060390Y-112258618D01*
X118077629Y-112248422D01*
X118095103Y-112239862D01*
X118113727Y-112232488D01*
X118113727Y-112232487D01*
X118113732Y-112232486D01*
X118149083Y-112206800D01*
X118158814Y-112200408D01*
X118196420Y-112178170D01*
X118210589Y-112163999D01*
X118225379Y-112151368D01*
X118241587Y-112139594D01*
X118269433Y-112105932D01*
X118277286Y-112097303D01*
X118357773Y-112016818D01*
X118419096Y-111983333D01*
X118445453Y-111980500D01*
X118504644Y-111980500D01*
X118504646Y-111980500D01*
X118689803Y-111941144D01*
X118862730Y-111864151D01*
X119015871Y-111752888D01*
X119142533Y-111612216D01*
X119237179Y-111448284D01*
X119295674Y-111268256D01*
X119315460Y-111080000D01*
X119295674Y-110891744D01*
X119237179Y-110711716D01*
X119142533Y-110547784D01*
X119022411Y-110414375D01*
X118992182Y-110351386D01*
X119000807Y-110282051D01*
X119026878Y-110243727D01*
X120282953Y-108987652D01*
X120344274Y-108954169D01*
X120413966Y-108959153D01*
X120469899Y-109001025D01*
X120493952Y-109062371D01*
X120499826Y-109118256D01*
X120499827Y-109118259D01*
X120558318Y-109298277D01*
X120558321Y-109298284D01*
X120652967Y-109462216D01*
X120712050Y-109527834D01*
X120779629Y-109602888D01*
X120932765Y-109714148D01*
X120932770Y-109714151D01*
X121105692Y-109791142D01*
X121105697Y-109791144D01*
X121290854Y-109830500D01*
X121290855Y-109830500D01*
X121480144Y-109830500D01*
X121480146Y-109830500D01*
X121665303Y-109791144D01*
X121838230Y-109714151D01*
X121989590Y-109604182D01*
X122055396Y-109580702D01*
X122062475Y-109580500D01*
X122407525Y-109580500D01*
X122474564Y-109600185D01*
X122480410Y-109604182D01*
X122631765Y-109714148D01*
X122631770Y-109714151D01*
X122804692Y-109791142D01*
X122804697Y-109791144D01*
X122989854Y-109830500D01*
X122989855Y-109830500D01*
X123179144Y-109830500D01*
X123179146Y-109830500D01*
X123364303Y-109791144D01*
X123537230Y-109714151D01*
X123690371Y-109602888D01*
X123817033Y-109462216D01*
X123911679Y-109298284D01*
X123970174Y-109118256D01*
X123989960Y-108930000D01*
X123989959Y-108929998D01*
X123990639Y-108923537D01*
X123991819Y-108923661D01*
X124009645Y-108862954D01*
X124062449Y-108817199D01*
X124063524Y-108816714D01*
X124159446Y-108774005D01*
X124237730Y-108739151D01*
X124390871Y-108627888D01*
X124517533Y-108487216D01*
X124612179Y-108323284D01*
X124612183Y-108323271D01*
X124614627Y-108317784D01*
X124659875Y-108264546D01*
X124726724Y-108244222D01*
X124793948Y-108263265D01*
X124815589Y-108280535D01*
X126900191Y-110365137D01*
X126933676Y-110426460D01*
X126935830Y-110439851D01*
X126949326Y-110568256D01*
X126949327Y-110568259D01*
X127007818Y-110748277D01*
X127007821Y-110748284D01*
X127102467Y-110912216D01*
X127185348Y-111004264D01*
X127229129Y-111052888D01*
X127382265Y-111164148D01*
X127382270Y-111164151D01*
X127555192Y-111241142D01*
X127555197Y-111241144D01*
X127740354Y-111280500D01*
X127740355Y-111280500D01*
X127929644Y-111280500D01*
X127929646Y-111280500D01*
X128114803Y-111241144D01*
X128287730Y-111164151D01*
X128440871Y-111052888D01*
X128567533Y-110912216D01*
X128662179Y-110748284D01*
X128720674Y-110568256D01*
X128740460Y-110380000D01*
X128720674Y-110191744D01*
X128662179Y-110011716D01*
X128567533Y-109847784D01*
X128440871Y-109707112D01*
X128440870Y-109707111D01*
X128287734Y-109595851D01*
X128287729Y-109595848D01*
X128114807Y-109518857D01*
X128114802Y-109518855D01*
X127969001Y-109487865D01*
X127929646Y-109479500D01*
X127929645Y-109479500D01*
X127905808Y-109479500D01*
X127838769Y-109459815D01*
X127818127Y-109443181D01*
X125180434Y-106805488D01*
X125170361Y-106792914D01*
X125170174Y-106793070D01*
X125165198Y-106787054D01*
X125114167Y-106739134D01*
X125111369Y-106736423D01*
X125091035Y-106716089D01*
X125087548Y-106713384D01*
X125078669Y-106705800D01*
X125045396Y-106674554D01*
X125045388Y-106674548D01*
X125026792Y-106664325D01*
X125010531Y-106653644D01*
X124993763Y-106640637D01*
X124977409Y-106633560D01*
X124951853Y-106622501D01*
X124941394Y-106617377D01*
X124901368Y-106595373D01*
X124901365Y-106595372D01*
X124880801Y-106590092D01*
X124862396Y-106583790D01*
X124842927Y-106575365D01*
X124842921Y-106575363D01*
X124797837Y-106568223D01*
X124786398Y-106565854D01*
X124742180Y-106554500D01*
X124742177Y-106554500D01*
X124720955Y-106554500D01*
X124701555Y-106552973D01*
X124680596Y-106549653D01*
X124680595Y-106549653D01*
X124645475Y-106552973D01*
X124635140Y-106553950D01*
X124623470Y-106554500D01*
X124112068Y-106554500D01*
X124045029Y-106534815D01*
X123999274Y-106482011D01*
X123988747Y-106443462D01*
X123986249Y-106419692D01*
X123970174Y-106266744D01*
X123911679Y-106086716D01*
X123817033Y-105922784D01*
X123690371Y-105782112D01*
X123688590Y-105780818D01*
X123537234Y-105670851D01*
X123537229Y-105670848D01*
X123364307Y-105593857D01*
X123364302Y-105593855D01*
X123218501Y-105562865D01*
X123179146Y-105554500D01*
X122989854Y-105554500D01*
X122957397Y-105561398D01*
X122804697Y-105593855D01*
X122804692Y-105593857D01*
X122631770Y-105670848D01*
X122631765Y-105670851D01*
X122480410Y-105780818D01*
X122414604Y-105804298D01*
X122407525Y-105804500D01*
X122062475Y-105804500D01*
X121995436Y-105784815D01*
X121989590Y-105780818D01*
X121838234Y-105670851D01*
X121838229Y-105670848D01*
X121665307Y-105593857D01*
X121665302Y-105593855D01*
X121519501Y-105562865D01*
X121480146Y-105554500D01*
X121290854Y-105554500D01*
X121258397Y-105561398D01*
X121105697Y-105593855D01*
X121105692Y-105593857D01*
X120932770Y-105670848D01*
X120932765Y-105670851D01*
X120779629Y-105782111D01*
X120652966Y-105922785D01*
X120558321Y-106086715D01*
X120558318Y-106086722D01*
X120499827Y-106266740D01*
X120499826Y-106266744D01*
X120495280Y-106309999D01*
X120481253Y-106443462D01*
X120454668Y-106508076D01*
X120397371Y-106548061D01*
X120357932Y-106554500D01*
X108029590Y-106554500D01*
X107962551Y-106534815D01*
X107916796Y-106482011D01*
X107906062Y-106419692D01*
X107915659Y-106310000D01*
X107915659Y-106309999D01*
X107896124Y-106086722D01*
X107895063Y-106074592D01*
X107833903Y-105846337D01*
X107734035Y-105632171D01*
X107707208Y-105593857D01*
X107598494Y-105438597D01*
X107431402Y-105271506D01*
X107431395Y-105271501D01*
X107237834Y-105135967D01*
X107237830Y-105135965D01*
X107237828Y-105135964D01*
X107023663Y-105036097D01*
X107023659Y-105036096D01*
X107023655Y-105036094D01*
X106795413Y-104974938D01*
X106795403Y-104974936D01*
X106560001Y-104954341D01*
X106559999Y-104954341D01*
X106324596Y-104974936D01*
X106324586Y-104974938D01*
X106096344Y-105036094D01*
X106096335Y-105036098D01*
X105882171Y-105135964D01*
X105882169Y-105135965D01*
X105688597Y-105271505D01*
X105521505Y-105438597D01*
X105385965Y-105632169D01*
X105385964Y-105632171D01*
X105286098Y-105846335D01*
X105286094Y-105846344D01*
X105224938Y-106074586D01*
X105224936Y-106074596D01*
X105204341Y-106309999D01*
X105204341Y-106310000D01*
X105224936Y-106545403D01*
X105224938Y-106545413D01*
X105286094Y-106773655D01*
X105286096Y-106773659D01*
X105286097Y-106773663D01*
X105385965Y-106987830D01*
X105385967Y-106987834D01*
X105521501Y-107181395D01*
X105521506Y-107181402D01*
X105688597Y-107348493D01*
X105688603Y-107348498D01*
X105874158Y-107478425D01*
X105917783Y-107533002D01*
X105924977Y-107602500D01*
X105893454Y-107664855D01*
X105874158Y-107681575D01*
X105688597Y-107811505D01*
X105521505Y-107978597D01*
X105385965Y-108172169D01*
X105385964Y-108172171D01*
X105286098Y-108386335D01*
X105286094Y-108386344D01*
X105224938Y-108614586D01*
X105224936Y-108614596D01*
X105204341Y-108849999D01*
X105204341Y-108850000D01*
X105224936Y-109085403D01*
X105224938Y-109085413D01*
X105286094Y-109313655D01*
X105286096Y-109313659D01*
X105286097Y-109313663D01*
X105354249Y-109459815D01*
X105385965Y-109527830D01*
X105385967Y-109527834D01*
X105493924Y-109682011D01*
X105519250Y-109718181D01*
X105521501Y-109721395D01*
X105521506Y-109721402D01*
X105688597Y-109888493D01*
X105688603Y-109888498D01*
X105874158Y-110018425D01*
X105917783Y-110073002D01*
X105924977Y-110142500D01*
X105893454Y-110204855D01*
X105874158Y-110221575D01*
X105688597Y-110351505D01*
X105521505Y-110518597D01*
X105385965Y-110712169D01*
X105385964Y-110712171D01*
X105286098Y-110926335D01*
X105286094Y-110926344D01*
X105224938Y-111154586D01*
X105224936Y-111154596D01*
X105204341Y-111389999D01*
X105204341Y-111390000D01*
X104810500Y-111390000D01*
X104810500Y-104654500D01*
X104830185Y-104587461D01*
X104882989Y-104541706D01*
X104934500Y-104530500D01*
X143685500Y-104530500D01*
X143752539Y-104550185D01*
G37*
%TD.AperFunction*%
%TD*%
M02*
