%TF.GenerationSoftware,KiCad,Pcbnew,7.0.10*%
%TF.CreationDate,2024-02-20T21:55:58-06:00*%
%TF.ProjectId,Dual_VCA,4475616c-5f56-4434-912e-6b696361645f,rev?*%
%TF.SameCoordinates,Original*%
%TF.FileFunction,Legend,Top*%
%TF.FilePolarity,Positive*%
%FSLAX46Y46*%
G04 Gerber Fmt 4.6, Leading zero omitted, Abs format (unit mm)*
G04 Created by KiCad (PCBNEW 7.0.10) date 2024-02-20 21:55:58*
%MOMM*%
%LPD*%
G01*
G04 APERTURE LIST*
%ADD10C,0.125000*%
%ADD11C,0.150000*%
%ADD12C,0.120000*%
G04 APERTURE END LIST*
D10*
X133984809Y-113151428D02*
X133746714Y-113318094D01*
X133984809Y-113437142D02*
X133484809Y-113437142D01*
X133484809Y-113437142D02*
X133484809Y-113246666D01*
X133484809Y-113246666D02*
X133508619Y-113199047D01*
X133508619Y-113199047D02*
X133532428Y-113175237D01*
X133532428Y-113175237D02*
X133580047Y-113151428D01*
X133580047Y-113151428D02*
X133651476Y-113151428D01*
X133651476Y-113151428D02*
X133699095Y-113175237D01*
X133699095Y-113175237D02*
X133722904Y-113199047D01*
X133722904Y-113199047D02*
X133746714Y-113246666D01*
X133746714Y-113246666D02*
X133746714Y-113437142D01*
X133984809Y-112675237D02*
X133984809Y-112960951D01*
X133984809Y-112818094D02*
X133484809Y-112818094D01*
X133484809Y-112818094D02*
X133556238Y-112865713D01*
X133556238Y-112865713D02*
X133603857Y-112913332D01*
X133603857Y-112913332D02*
X133627666Y-112960951D01*
X133984809Y-112437142D02*
X133984809Y-112341904D01*
X133984809Y-112341904D02*
X133961000Y-112294285D01*
X133961000Y-112294285D02*
X133937190Y-112270476D01*
X133937190Y-112270476D02*
X133865761Y-112222857D01*
X133865761Y-112222857D02*
X133770523Y-112199047D01*
X133770523Y-112199047D02*
X133580047Y-112199047D01*
X133580047Y-112199047D02*
X133532428Y-112222857D01*
X133532428Y-112222857D02*
X133508619Y-112246666D01*
X133508619Y-112246666D02*
X133484809Y-112294285D01*
X133484809Y-112294285D02*
X133484809Y-112389523D01*
X133484809Y-112389523D02*
X133508619Y-112437142D01*
X133508619Y-112437142D02*
X133532428Y-112460952D01*
X133532428Y-112460952D02*
X133580047Y-112484761D01*
X133580047Y-112484761D02*
X133699095Y-112484761D01*
X133699095Y-112484761D02*
X133746714Y-112460952D01*
X133746714Y-112460952D02*
X133770523Y-112437142D01*
X133770523Y-112437142D02*
X133794333Y-112389523D01*
X133794333Y-112389523D02*
X133794333Y-112294285D01*
X133794333Y-112294285D02*
X133770523Y-112246666D01*
X133770523Y-112246666D02*
X133746714Y-112222857D01*
X133746714Y-112222857D02*
X133699095Y-112199047D01*
X115103559Y-129608333D02*
X114865464Y-129774999D01*
X115103559Y-129894047D02*
X114603559Y-129894047D01*
X114603559Y-129894047D02*
X114603559Y-129703571D01*
X114603559Y-129703571D02*
X114627369Y-129655952D01*
X114627369Y-129655952D02*
X114651178Y-129632142D01*
X114651178Y-129632142D02*
X114698797Y-129608333D01*
X114698797Y-129608333D02*
X114770226Y-129608333D01*
X114770226Y-129608333D02*
X114817845Y-129632142D01*
X114817845Y-129632142D02*
X114841654Y-129655952D01*
X114841654Y-129655952D02*
X114865464Y-129703571D01*
X114865464Y-129703571D02*
X114865464Y-129894047D01*
X114651178Y-129417856D02*
X114627369Y-129394047D01*
X114627369Y-129394047D02*
X114603559Y-129346428D01*
X114603559Y-129346428D02*
X114603559Y-129227380D01*
X114603559Y-129227380D02*
X114627369Y-129179761D01*
X114627369Y-129179761D02*
X114651178Y-129155952D01*
X114651178Y-129155952D02*
X114698797Y-129132142D01*
X114698797Y-129132142D02*
X114746416Y-129132142D01*
X114746416Y-129132142D02*
X114817845Y-129155952D01*
X114817845Y-129155952D02*
X115103559Y-129441666D01*
X115103559Y-129441666D02*
X115103559Y-129132142D01*
X129834809Y-111401428D02*
X129596714Y-111568094D01*
X129834809Y-111687142D02*
X129334809Y-111687142D01*
X129334809Y-111687142D02*
X129334809Y-111496666D01*
X129334809Y-111496666D02*
X129358619Y-111449047D01*
X129358619Y-111449047D02*
X129382428Y-111425237D01*
X129382428Y-111425237D02*
X129430047Y-111401428D01*
X129430047Y-111401428D02*
X129501476Y-111401428D01*
X129501476Y-111401428D02*
X129549095Y-111425237D01*
X129549095Y-111425237D02*
X129572904Y-111449047D01*
X129572904Y-111449047D02*
X129596714Y-111496666D01*
X129596714Y-111496666D02*
X129596714Y-111687142D01*
X129382428Y-111210951D02*
X129358619Y-111187142D01*
X129358619Y-111187142D02*
X129334809Y-111139523D01*
X129334809Y-111139523D02*
X129334809Y-111020475D01*
X129334809Y-111020475D02*
X129358619Y-110972856D01*
X129358619Y-110972856D02*
X129382428Y-110949047D01*
X129382428Y-110949047D02*
X129430047Y-110925237D01*
X129430047Y-110925237D02*
X129477666Y-110925237D01*
X129477666Y-110925237D02*
X129549095Y-110949047D01*
X129549095Y-110949047D02*
X129834809Y-111234761D01*
X129834809Y-111234761D02*
X129834809Y-110925237D01*
X129834809Y-110449047D02*
X129834809Y-110734761D01*
X129834809Y-110591904D02*
X129334809Y-110591904D01*
X129334809Y-110591904D02*
X129406238Y-110639523D01*
X129406238Y-110639523D02*
X129453857Y-110687142D01*
X129453857Y-110687142D02*
X129477666Y-110734761D01*
X122767190Y-125693333D02*
X122791000Y-125717142D01*
X122791000Y-125717142D02*
X122814809Y-125788571D01*
X122814809Y-125788571D02*
X122814809Y-125836190D01*
X122814809Y-125836190D02*
X122791000Y-125907618D01*
X122791000Y-125907618D02*
X122743380Y-125955237D01*
X122743380Y-125955237D02*
X122695761Y-125979047D01*
X122695761Y-125979047D02*
X122600523Y-126002856D01*
X122600523Y-126002856D02*
X122529095Y-126002856D01*
X122529095Y-126002856D02*
X122433857Y-125979047D01*
X122433857Y-125979047D02*
X122386238Y-125955237D01*
X122386238Y-125955237D02*
X122338619Y-125907618D01*
X122338619Y-125907618D02*
X122314809Y-125836190D01*
X122314809Y-125836190D02*
X122314809Y-125788571D01*
X122314809Y-125788571D02*
X122338619Y-125717142D01*
X122338619Y-125717142D02*
X122362428Y-125693333D01*
X122314809Y-125240952D02*
X122314809Y-125479047D01*
X122314809Y-125479047D02*
X122552904Y-125502856D01*
X122552904Y-125502856D02*
X122529095Y-125479047D01*
X122529095Y-125479047D02*
X122505285Y-125431428D01*
X122505285Y-125431428D02*
X122505285Y-125312380D01*
X122505285Y-125312380D02*
X122529095Y-125264761D01*
X122529095Y-125264761D02*
X122552904Y-125240952D01*
X122552904Y-125240952D02*
X122600523Y-125217142D01*
X122600523Y-125217142D02*
X122719571Y-125217142D01*
X122719571Y-125217142D02*
X122767190Y-125240952D01*
X122767190Y-125240952D02*
X122791000Y-125264761D01*
X122791000Y-125264761D02*
X122814809Y-125312380D01*
X122814809Y-125312380D02*
X122814809Y-125431428D01*
X122814809Y-125431428D02*
X122791000Y-125479047D01*
X122791000Y-125479047D02*
X122767190Y-125502856D01*
X134003559Y-131646428D02*
X133765464Y-131813094D01*
X134003559Y-131932142D02*
X133503559Y-131932142D01*
X133503559Y-131932142D02*
X133503559Y-131741666D01*
X133503559Y-131741666D02*
X133527369Y-131694047D01*
X133527369Y-131694047D02*
X133551178Y-131670237D01*
X133551178Y-131670237D02*
X133598797Y-131646428D01*
X133598797Y-131646428D02*
X133670226Y-131646428D01*
X133670226Y-131646428D02*
X133717845Y-131670237D01*
X133717845Y-131670237D02*
X133741654Y-131694047D01*
X133741654Y-131694047D02*
X133765464Y-131741666D01*
X133765464Y-131741666D02*
X133765464Y-131932142D01*
X134003559Y-131170237D02*
X134003559Y-131455951D01*
X134003559Y-131313094D02*
X133503559Y-131313094D01*
X133503559Y-131313094D02*
X133574988Y-131360713D01*
X133574988Y-131360713D02*
X133622607Y-131408332D01*
X133622607Y-131408332D02*
X133646416Y-131455951D01*
X133503559Y-131003571D02*
X133503559Y-130694047D01*
X133503559Y-130694047D02*
X133694035Y-130860714D01*
X133694035Y-130860714D02*
X133694035Y-130789285D01*
X133694035Y-130789285D02*
X133717845Y-130741666D01*
X133717845Y-130741666D02*
X133741654Y-130717857D01*
X133741654Y-130717857D02*
X133789273Y-130694047D01*
X133789273Y-130694047D02*
X133908321Y-130694047D01*
X133908321Y-130694047D02*
X133955940Y-130717857D01*
X133955940Y-130717857D02*
X133979750Y-130741666D01*
X133979750Y-130741666D02*
X134003559Y-130789285D01*
X134003559Y-130789285D02*
X134003559Y-130932142D01*
X134003559Y-130932142D02*
X133979750Y-130979761D01*
X133979750Y-130979761D02*
X133955940Y-131003571D01*
X118679047Y-110929809D02*
X118679047Y-111334571D01*
X118679047Y-111334571D02*
X118702857Y-111382190D01*
X118702857Y-111382190D02*
X118726666Y-111406000D01*
X118726666Y-111406000D02*
X118774285Y-111429809D01*
X118774285Y-111429809D02*
X118869523Y-111429809D01*
X118869523Y-111429809D02*
X118917142Y-111406000D01*
X118917142Y-111406000D02*
X118940952Y-111382190D01*
X118940952Y-111382190D02*
X118964761Y-111334571D01*
X118964761Y-111334571D02*
X118964761Y-110929809D01*
X119179048Y-110977428D02*
X119202857Y-110953619D01*
X119202857Y-110953619D02*
X119250476Y-110929809D01*
X119250476Y-110929809D02*
X119369524Y-110929809D01*
X119369524Y-110929809D02*
X119417143Y-110953619D01*
X119417143Y-110953619D02*
X119440952Y-110977428D01*
X119440952Y-110977428D02*
X119464762Y-111025047D01*
X119464762Y-111025047D02*
X119464762Y-111072666D01*
X119464762Y-111072666D02*
X119440952Y-111144095D01*
X119440952Y-111144095D02*
X119155238Y-111429809D01*
X119155238Y-111429809D02*
X119464762Y-111429809D01*
X129853559Y-128121428D02*
X129615464Y-128288094D01*
X129853559Y-128407142D02*
X129353559Y-128407142D01*
X129353559Y-128407142D02*
X129353559Y-128216666D01*
X129353559Y-128216666D02*
X129377369Y-128169047D01*
X129377369Y-128169047D02*
X129401178Y-128145237D01*
X129401178Y-128145237D02*
X129448797Y-128121428D01*
X129448797Y-128121428D02*
X129520226Y-128121428D01*
X129520226Y-128121428D02*
X129567845Y-128145237D01*
X129567845Y-128145237D02*
X129591654Y-128169047D01*
X129591654Y-128169047D02*
X129615464Y-128216666D01*
X129615464Y-128216666D02*
X129615464Y-128407142D01*
X129853559Y-127645237D02*
X129853559Y-127930951D01*
X129853559Y-127788094D02*
X129353559Y-127788094D01*
X129353559Y-127788094D02*
X129424988Y-127835713D01*
X129424988Y-127835713D02*
X129472607Y-127883332D01*
X129472607Y-127883332D02*
X129496416Y-127930951D01*
X129401178Y-127454761D02*
X129377369Y-127430952D01*
X129377369Y-127430952D02*
X129353559Y-127383333D01*
X129353559Y-127383333D02*
X129353559Y-127264285D01*
X129353559Y-127264285D02*
X129377369Y-127216666D01*
X129377369Y-127216666D02*
X129401178Y-127192857D01*
X129401178Y-127192857D02*
X129448797Y-127169047D01*
X129448797Y-127169047D02*
X129496416Y-127169047D01*
X129496416Y-127169047D02*
X129567845Y-127192857D01*
X129567845Y-127192857D02*
X129853559Y-127478571D01*
X129853559Y-127478571D02*
X129853559Y-127169047D01*
X134003559Y-127908333D02*
X133765464Y-128074999D01*
X134003559Y-128194047D02*
X133503559Y-128194047D01*
X133503559Y-128194047D02*
X133503559Y-128003571D01*
X133503559Y-128003571D02*
X133527369Y-127955952D01*
X133527369Y-127955952D02*
X133551178Y-127932142D01*
X133551178Y-127932142D02*
X133598797Y-127908333D01*
X133598797Y-127908333D02*
X133670226Y-127908333D01*
X133670226Y-127908333D02*
X133717845Y-127932142D01*
X133717845Y-127932142D02*
X133741654Y-127955952D01*
X133741654Y-127955952D02*
X133765464Y-128003571D01*
X133765464Y-128003571D02*
X133765464Y-128194047D01*
X133717845Y-127622618D02*
X133694035Y-127670237D01*
X133694035Y-127670237D02*
X133670226Y-127694047D01*
X133670226Y-127694047D02*
X133622607Y-127717856D01*
X133622607Y-127717856D02*
X133598797Y-127717856D01*
X133598797Y-127717856D02*
X133551178Y-127694047D01*
X133551178Y-127694047D02*
X133527369Y-127670237D01*
X133527369Y-127670237D02*
X133503559Y-127622618D01*
X133503559Y-127622618D02*
X133503559Y-127527380D01*
X133503559Y-127527380D02*
X133527369Y-127479761D01*
X133527369Y-127479761D02*
X133551178Y-127455952D01*
X133551178Y-127455952D02*
X133598797Y-127432142D01*
X133598797Y-127432142D02*
X133622607Y-127432142D01*
X133622607Y-127432142D02*
X133670226Y-127455952D01*
X133670226Y-127455952D02*
X133694035Y-127479761D01*
X133694035Y-127479761D02*
X133717845Y-127527380D01*
X133717845Y-127527380D02*
X133717845Y-127622618D01*
X133717845Y-127622618D02*
X133741654Y-127670237D01*
X133741654Y-127670237D02*
X133765464Y-127694047D01*
X133765464Y-127694047D02*
X133813083Y-127717856D01*
X133813083Y-127717856D02*
X133908321Y-127717856D01*
X133908321Y-127717856D02*
X133955940Y-127694047D01*
X133955940Y-127694047D02*
X133979750Y-127670237D01*
X133979750Y-127670237D02*
X134003559Y-127622618D01*
X134003559Y-127622618D02*
X134003559Y-127527380D01*
X134003559Y-127527380D02*
X133979750Y-127479761D01*
X133979750Y-127479761D02*
X133955940Y-127455952D01*
X133955940Y-127455952D02*
X133908321Y-127432142D01*
X133908321Y-127432142D02*
X133813083Y-127432142D01*
X133813083Y-127432142D02*
X133765464Y-127455952D01*
X133765464Y-127455952D02*
X133741654Y-127479761D01*
X133741654Y-127479761D02*
X133717845Y-127527380D01*
X115134809Y-114901428D02*
X114896714Y-115068094D01*
X115134809Y-115187142D02*
X114634809Y-115187142D01*
X114634809Y-115187142D02*
X114634809Y-114996666D01*
X114634809Y-114996666D02*
X114658619Y-114949047D01*
X114658619Y-114949047D02*
X114682428Y-114925237D01*
X114682428Y-114925237D02*
X114730047Y-114901428D01*
X114730047Y-114901428D02*
X114801476Y-114901428D01*
X114801476Y-114901428D02*
X114849095Y-114925237D01*
X114849095Y-114925237D02*
X114872904Y-114949047D01*
X114872904Y-114949047D02*
X114896714Y-114996666D01*
X114896714Y-114996666D02*
X114896714Y-115187142D01*
X114682428Y-114710951D02*
X114658619Y-114687142D01*
X114658619Y-114687142D02*
X114634809Y-114639523D01*
X114634809Y-114639523D02*
X114634809Y-114520475D01*
X114634809Y-114520475D02*
X114658619Y-114472856D01*
X114658619Y-114472856D02*
X114682428Y-114449047D01*
X114682428Y-114449047D02*
X114730047Y-114425237D01*
X114730047Y-114425237D02*
X114777666Y-114425237D01*
X114777666Y-114425237D02*
X114849095Y-114449047D01*
X114849095Y-114449047D02*
X115134809Y-114734761D01*
X115134809Y-114734761D02*
X115134809Y-114425237D01*
X114849095Y-114139523D02*
X114825285Y-114187142D01*
X114825285Y-114187142D02*
X114801476Y-114210952D01*
X114801476Y-114210952D02*
X114753857Y-114234761D01*
X114753857Y-114234761D02*
X114730047Y-114234761D01*
X114730047Y-114234761D02*
X114682428Y-114210952D01*
X114682428Y-114210952D02*
X114658619Y-114187142D01*
X114658619Y-114187142D02*
X114634809Y-114139523D01*
X114634809Y-114139523D02*
X114634809Y-114044285D01*
X114634809Y-114044285D02*
X114658619Y-113996666D01*
X114658619Y-113996666D02*
X114682428Y-113972857D01*
X114682428Y-113972857D02*
X114730047Y-113949047D01*
X114730047Y-113949047D02*
X114753857Y-113949047D01*
X114753857Y-113949047D02*
X114801476Y-113972857D01*
X114801476Y-113972857D02*
X114825285Y-113996666D01*
X114825285Y-113996666D02*
X114849095Y-114044285D01*
X114849095Y-114044285D02*
X114849095Y-114139523D01*
X114849095Y-114139523D02*
X114872904Y-114187142D01*
X114872904Y-114187142D02*
X114896714Y-114210952D01*
X114896714Y-114210952D02*
X114944333Y-114234761D01*
X114944333Y-114234761D02*
X115039571Y-114234761D01*
X115039571Y-114234761D02*
X115087190Y-114210952D01*
X115087190Y-114210952D02*
X115111000Y-114187142D01*
X115111000Y-114187142D02*
X115134809Y-114139523D01*
X115134809Y-114139523D02*
X115134809Y-114044285D01*
X115134809Y-114044285D02*
X115111000Y-113996666D01*
X115111000Y-113996666D02*
X115087190Y-113972857D01*
X115087190Y-113972857D02*
X115039571Y-113949047D01*
X115039571Y-113949047D02*
X114944333Y-113949047D01*
X114944333Y-113949047D02*
X114896714Y-113972857D01*
X114896714Y-113972857D02*
X114872904Y-113996666D01*
X114872904Y-113996666D02*
X114849095Y-114044285D01*
X124113571Y-121454809D02*
X123946905Y-121216714D01*
X123827857Y-121454809D02*
X123827857Y-120954809D01*
X123827857Y-120954809D02*
X124018333Y-120954809D01*
X124018333Y-120954809D02*
X124065952Y-120978619D01*
X124065952Y-120978619D02*
X124089762Y-121002428D01*
X124089762Y-121002428D02*
X124113571Y-121050047D01*
X124113571Y-121050047D02*
X124113571Y-121121476D01*
X124113571Y-121121476D02*
X124089762Y-121169095D01*
X124089762Y-121169095D02*
X124065952Y-121192904D01*
X124065952Y-121192904D02*
X124018333Y-121216714D01*
X124018333Y-121216714D02*
X123827857Y-121216714D01*
X124589762Y-121454809D02*
X124304048Y-121454809D01*
X124446905Y-121454809D02*
X124446905Y-120954809D01*
X124446905Y-120954809D02*
X124399286Y-121026238D01*
X124399286Y-121026238D02*
X124351667Y-121073857D01*
X124351667Y-121073857D02*
X124304048Y-121097666D01*
X125042142Y-120954809D02*
X124804047Y-120954809D01*
X124804047Y-120954809D02*
X124780238Y-121192904D01*
X124780238Y-121192904D02*
X124804047Y-121169095D01*
X124804047Y-121169095D02*
X124851666Y-121145285D01*
X124851666Y-121145285D02*
X124970714Y-121145285D01*
X124970714Y-121145285D02*
X125018333Y-121169095D01*
X125018333Y-121169095D02*
X125042142Y-121192904D01*
X125042142Y-121192904D02*
X125065952Y-121240523D01*
X125065952Y-121240523D02*
X125065952Y-121359571D01*
X125065952Y-121359571D02*
X125042142Y-121407190D01*
X125042142Y-121407190D02*
X125018333Y-121431000D01*
X125018333Y-121431000D02*
X124970714Y-121454809D01*
X124970714Y-121454809D02*
X124851666Y-121454809D01*
X124851666Y-121454809D02*
X124804047Y-121431000D01*
X124804047Y-121431000D02*
X124780238Y-121407190D01*
X118176666Y-121474809D02*
X118010000Y-121236714D01*
X117890952Y-121474809D02*
X117890952Y-120974809D01*
X117890952Y-120974809D02*
X118081428Y-120974809D01*
X118081428Y-120974809D02*
X118129047Y-120998619D01*
X118129047Y-120998619D02*
X118152857Y-121022428D01*
X118152857Y-121022428D02*
X118176666Y-121070047D01*
X118176666Y-121070047D02*
X118176666Y-121141476D01*
X118176666Y-121141476D02*
X118152857Y-121189095D01*
X118152857Y-121189095D02*
X118129047Y-121212904D01*
X118129047Y-121212904D02*
X118081428Y-121236714D01*
X118081428Y-121236714D02*
X117890952Y-121236714D01*
X118629047Y-120974809D02*
X118390952Y-120974809D01*
X118390952Y-120974809D02*
X118367143Y-121212904D01*
X118367143Y-121212904D02*
X118390952Y-121189095D01*
X118390952Y-121189095D02*
X118438571Y-121165285D01*
X118438571Y-121165285D02*
X118557619Y-121165285D01*
X118557619Y-121165285D02*
X118605238Y-121189095D01*
X118605238Y-121189095D02*
X118629047Y-121212904D01*
X118629047Y-121212904D02*
X118652857Y-121260523D01*
X118652857Y-121260523D02*
X118652857Y-121379571D01*
X118652857Y-121379571D02*
X118629047Y-121427190D01*
X118629047Y-121427190D02*
X118605238Y-121451000D01*
X118605238Y-121451000D02*
X118557619Y-121474809D01*
X118557619Y-121474809D02*
X118438571Y-121474809D01*
X118438571Y-121474809D02*
X118390952Y-121451000D01*
X118390952Y-121451000D02*
X118367143Y-121427190D01*
X133249880Y-106477428D02*
X133202261Y-106453619D01*
X133202261Y-106453619D02*
X133154642Y-106406000D01*
X133154642Y-106406000D02*
X133083214Y-106334571D01*
X133083214Y-106334571D02*
X133035595Y-106310761D01*
X133035595Y-106310761D02*
X132987976Y-106310761D01*
X133011785Y-106429809D02*
X132964166Y-106406000D01*
X132964166Y-106406000D02*
X132916547Y-106358380D01*
X132916547Y-106358380D02*
X132892738Y-106263142D01*
X132892738Y-106263142D02*
X132892738Y-106096476D01*
X132892738Y-106096476D02*
X132916547Y-106001238D01*
X132916547Y-106001238D02*
X132964166Y-105953619D01*
X132964166Y-105953619D02*
X133011785Y-105929809D01*
X133011785Y-105929809D02*
X133107023Y-105929809D01*
X133107023Y-105929809D02*
X133154642Y-105953619D01*
X133154642Y-105953619D02*
X133202261Y-106001238D01*
X133202261Y-106001238D02*
X133226071Y-106096476D01*
X133226071Y-106096476D02*
X133226071Y-106263142D01*
X133226071Y-106263142D02*
X133202261Y-106358380D01*
X133202261Y-106358380D02*
X133154642Y-106406000D01*
X133154642Y-106406000D02*
X133107023Y-106429809D01*
X133107023Y-106429809D02*
X133011785Y-106429809D01*
X133678452Y-105929809D02*
X133440357Y-105929809D01*
X133440357Y-105929809D02*
X133416548Y-106167904D01*
X133416548Y-106167904D02*
X133440357Y-106144095D01*
X133440357Y-106144095D02*
X133487976Y-106120285D01*
X133487976Y-106120285D02*
X133607024Y-106120285D01*
X133607024Y-106120285D02*
X133654643Y-106144095D01*
X133654643Y-106144095D02*
X133678452Y-106167904D01*
X133678452Y-106167904D02*
X133702262Y-106215523D01*
X133702262Y-106215523D02*
X133702262Y-106334571D01*
X133702262Y-106334571D02*
X133678452Y-106382190D01*
X133678452Y-106382190D02*
X133654643Y-106406000D01*
X133654643Y-106406000D02*
X133607024Y-106429809D01*
X133607024Y-106429809D02*
X133487976Y-106429809D01*
X133487976Y-106429809D02*
X133440357Y-106406000D01*
X133440357Y-106406000D02*
X133416548Y-106382190D01*
X119812190Y-149263333D02*
X119836000Y-149287142D01*
X119836000Y-149287142D02*
X119859809Y-149358571D01*
X119859809Y-149358571D02*
X119859809Y-149406190D01*
X119859809Y-149406190D02*
X119836000Y-149477618D01*
X119836000Y-149477618D02*
X119788380Y-149525237D01*
X119788380Y-149525237D02*
X119740761Y-149549047D01*
X119740761Y-149549047D02*
X119645523Y-149572856D01*
X119645523Y-149572856D02*
X119574095Y-149572856D01*
X119574095Y-149572856D02*
X119478857Y-149549047D01*
X119478857Y-149549047D02*
X119431238Y-149525237D01*
X119431238Y-149525237D02*
X119383619Y-149477618D01*
X119383619Y-149477618D02*
X119359809Y-149406190D01*
X119359809Y-149406190D02*
X119359809Y-149358571D01*
X119359809Y-149358571D02*
X119383619Y-149287142D01*
X119383619Y-149287142D02*
X119407428Y-149263333D01*
X119859809Y-148787142D02*
X119859809Y-149072856D01*
X119859809Y-148929999D02*
X119359809Y-148929999D01*
X119359809Y-148929999D02*
X119431238Y-148977618D01*
X119431238Y-148977618D02*
X119478857Y-149025237D01*
X119478857Y-149025237D02*
X119502666Y-149072856D01*
X129099880Y-106482428D02*
X129052261Y-106458619D01*
X129052261Y-106458619D02*
X129004642Y-106411000D01*
X129004642Y-106411000D02*
X128933214Y-106339571D01*
X128933214Y-106339571D02*
X128885595Y-106315761D01*
X128885595Y-106315761D02*
X128837976Y-106315761D01*
X128861785Y-106434809D02*
X128814166Y-106411000D01*
X128814166Y-106411000D02*
X128766547Y-106363380D01*
X128766547Y-106363380D02*
X128742738Y-106268142D01*
X128742738Y-106268142D02*
X128742738Y-106101476D01*
X128742738Y-106101476D02*
X128766547Y-106006238D01*
X128766547Y-106006238D02*
X128814166Y-105958619D01*
X128814166Y-105958619D02*
X128861785Y-105934809D01*
X128861785Y-105934809D02*
X128957023Y-105934809D01*
X128957023Y-105934809D02*
X129004642Y-105958619D01*
X129004642Y-105958619D02*
X129052261Y-106006238D01*
X129052261Y-106006238D02*
X129076071Y-106101476D01*
X129076071Y-106101476D02*
X129076071Y-106268142D01*
X129076071Y-106268142D02*
X129052261Y-106363380D01*
X129052261Y-106363380D02*
X129004642Y-106411000D01*
X129004642Y-106411000D02*
X128957023Y-106434809D01*
X128957023Y-106434809D02*
X128861785Y-106434809D01*
X129242738Y-105934809D02*
X129552262Y-105934809D01*
X129552262Y-105934809D02*
X129385595Y-106125285D01*
X129385595Y-106125285D02*
X129457024Y-106125285D01*
X129457024Y-106125285D02*
X129504643Y-106149095D01*
X129504643Y-106149095D02*
X129528452Y-106172904D01*
X129528452Y-106172904D02*
X129552262Y-106220523D01*
X129552262Y-106220523D02*
X129552262Y-106339571D01*
X129552262Y-106339571D02*
X129528452Y-106387190D01*
X129528452Y-106387190D02*
X129504643Y-106411000D01*
X129504643Y-106411000D02*
X129457024Y-106434809D01*
X129457024Y-106434809D02*
X129314167Y-106434809D01*
X129314167Y-106434809D02*
X129266548Y-106411000D01*
X129266548Y-106411000D02*
X129242738Y-106387190D01*
X137912190Y-149238333D02*
X137936000Y-149262142D01*
X137936000Y-149262142D02*
X137959809Y-149333571D01*
X137959809Y-149333571D02*
X137959809Y-149381190D01*
X137959809Y-149381190D02*
X137936000Y-149452618D01*
X137936000Y-149452618D02*
X137888380Y-149500237D01*
X137888380Y-149500237D02*
X137840761Y-149524047D01*
X137840761Y-149524047D02*
X137745523Y-149547856D01*
X137745523Y-149547856D02*
X137674095Y-149547856D01*
X137674095Y-149547856D02*
X137578857Y-149524047D01*
X137578857Y-149524047D02*
X137531238Y-149500237D01*
X137531238Y-149500237D02*
X137483619Y-149452618D01*
X137483619Y-149452618D02*
X137459809Y-149381190D01*
X137459809Y-149381190D02*
X137459809Y-149333571D01*
X137459809Y-149333571D02*
X137483619Y-149262142D01*
X137483619Y-149262142D02*
X137507428Y-149238333D01*
X137507428Y-149047856D02*
X137483619Y-149024047D01*
X137483619Y-149024047D02*
X137459809Y-148976428D01*
X137459809Y-148976428D02*
X137459809Y-148857380D01*
X137459809Y-148857380D02*
X137483619Y-148809761D01*
X137483619Y-148809761D02*
X137507428Y-148785952D01*
X137507428Y-148785952D02*
X137555047Y-148762142D01*
X137555047Y-148762142D02*
X137602666Y-148762142D01*
X137602666Y-148762142D02*
X137674095Y-148785952D01*
X137674095Y-148785952D02*
X137959809Y-149071666D01*
X137959809Y-149071666D02*
X137959809Y-148762142D01*
X133964809Y-126401428D02*
X133726714Y-126568094D01*
X133964809Y-126687142D02*
X133464809Y-126687142D01*
X133464809Y-126687142D02*
X133464809Y-126496666D01*
X133464809Y-126496666D02*
X133488619Y-126449047D01*
X133488619Y-126449047D02*
X133512428Y-126425237D01*
X133512428Y-126425237D02*
X133560047Y-126401428D01*
X133560047Y-126401428D02*
X133631476Y-126401428D01*
X133631476Y-126401428D02*
X133679095Y-126425237D01*
X133679095Y-126425237D02*
X133702904Y-126449047D01*
X133702904Y-126449047D02*
X133726714Y-126496666D01*
X133726714Y-126496666D02*
X133726714Y-126687142D01*
X133964809Y-125925237D02*
X133964809Y-126210951D01*
X133964809Y-126068094D02*
X133464809Y-126068094D01*
X133464809Y-126068094D02*
X133536238Y-126115713D01*
X133536238Y-126115713D02*
X133583857Y-126163332D01*
X133583857Y-126163332D02*
X133607666Y-126210951D01*
X133964809Y-125449047D02*
X133964809Y-125734761D01*
X133964809Y-125591904D02*
X133464809Y-125591904D01*
X133464809Y-125591904D02*
X133536238Y-125639523D01*
X133536238Y-125639523D02*
X133583857Y-125687142D01*
X133583857Y-125687142D02*
X133607666Y-125734761D01*
X129809809Y-116641428D02*
X129571714Y-116808094D01*
X129809809Y-116927142D02*
X129309809Y-116927142D01*
X129309809Y-116927142D02*
X129309809Y-116736666D01*
X129309809Y-116736666D02*
X129333619Y-116689047D01*
X129333619Y-116689047D02*
X129357428Y-116665237D01*
X129357428Y-116665237D02*
X129405047Y-116641428D01*
X129405047Y-116641428D02*
X129476476Y-116641428D01*
X129476476Y-116641428D02*
X129524095Y-116665237D01*
X129524095Y-116665237D02*
X129547904Y-116689047D01*
X129547904Y-116689047D02*
X129571714Y-116736666D01*
X129571714Y-116736666D02*
X129571714Y-116927142D01*
X129357428Y-116450951D02*
X129333619Y-116427142D01*
X129333619Y-116427142D02*
X129309809Y-116379523D01*
X129309809Y-116379523D02*
X129309809Y-116260475D01*
X129309809Y-116260475D02*
X129333619Y-116212856D01*
X129333619Y-116212856D02*
X129357428Y-116189047D01*
X129357428Y-116189047D02*
X129405047Y-116165237D01*
X129405047Y-116165237D02*
X129452666Y-116165237D01*
X129452666Y-116165237D02*
X129524095Y-116189047D01*
X129524095Y-116189047D02*
X129809809Y-116474761D01*
X129809809Y-116474761D02*
X129809809Y-116165237D01*
X129357428Y-115974761D02*
X129333619Y-115950952D01*
X129333619Y-115950952D02*
X129309809Y-115903333D01*
X129309809Y-115903333D02*
X129309809Y-115784285D01*
X129309809Y-115784285D02*
X129333619Y-115736666D01*
X129333619Y-115736666D02*
X129357428Y-115712857D01*
X129357428Y-115712857D02*
X129405047Y-115689047D01*
X129405047Y-115689047D02*
X129452666Y-115689047D01*
X129452666Y-115689047D02*
X129524095Y-115712857D01*
X129524095Y-115712857D02*
X129809809Y-115998571D01*
X129809809Y-115998571D02*
X129809809Y-115689047D01*
X125894821Y-106479809D02*
X125728155Y-106241714D01*
X125609107Y-106479809D02*
X125609107Y-105979809D01*
X125609107Y-105979809D02*
X125799583Y-105979809D01*
X125799583Y-105979809D02*
X125847202Y-106003619D01*
X125847202Y-106003619D02*
X125871012Y-106027428D01*
X125871012Y-106027428D02*
X125894821Y-106075047D01*
X125894821Y-106075047D02*
X125894821Y-106146476D01*
X125894821Y-106146476D02*
X125871012Y-106194095D01*
X125871012Y-106194095D02*
X125847202Y-106217904D01*
X125847202Y-106217904D02*
X125799583Y-106241714D01*
X125799583Y-106241714D02*
X125609107Y-106241714D01*
X126085298Y-106027428D02*
X126109107Y-106003619D01*
X126109107Y-106003619D02*
X126156726Y-105979809D01*
X126156726Y-105979809D02*
X126275774Y-105979809D01*
X126275774Y-105979809D02*
X126323393Y-106003619D01*
X126323393Y-106003619D02*
X126347202Y-106027428D01*
X126347202Y-106027428D02*
X126371012Y-106075047D01*
X126371012Y-106075047D02*
X126371012Y-106122666D01*
X126371012Y-106122666D02*
X126347202Y-106194095D01*
X126347202Y-106194095D02*
X126061488Y-106479809D01*
X126061488Y-106479809D02*
X126371012Y-106479809D01*
X126537678Y-105979809D02*
X126871011Y-105979809D01*
X126871011Y-105979809D02*
X126656726Y-106479809D01*
X133984809Y-111376428D02*
X133746714Y-111543094D01*
X133984809Y-111662142D02*
X133484809Y-111662142D01*
X133484809Y-111662142D02*
X133484809Y-111471666D01*
X133484809Y-111471666D02*
X133508619Y-111424047D01*
X133508619Y-111424047D02*
X133532428Y-111400237D01*
X133532428Y-111400237D02*
X133580047Y-111376428D01*
X133580047Y-111376428D02*
X133651476Y-111376428D01*
X133651476Y-111376428D02*
X133699095Y-111400237D01*
X133699095Y-111400237D02*
X133722904Y-111424047D01*
X133722904Y-111424047D02*
X133746714Y-111471666D01*
X133746714Y-111471666D02*
X133746714Y-111662142D01*
X133532428Y-111185951D02*
X133508619Y-111162142D01*
X133508619Y-111162142D02*
X133484809Y-111114523D01*
X133484809Y-111114523D02*
X133484809Y-110995475D01*
X133484809Y-110995475D02*
X133508619Y-110947856D01*
X133508619Y-110947856D02*
X133532428Y-110924047D01*
X133532428Y-110924047D02*
X133580047Y-110900237D01*
X133580047Y-110900237D02*
X133627666Y-110900237D01*
X133627666Y-110900237D02*
X133699095Y-110924047D01*
X133699095Y-110924047D02*
X133984809Y-111209761D01*
X133984809Y-111209761D02*
X133984809Y-110900237D01*
X133484809Y-110447857D02*
X133484809Y-110685952D01*
X133484809Y-110685952D02*
X133722904Y-110709761D01*
X133722904Y-110709761D02*
X133699095Y-110685952D01*
X133699095Y-110685952D02*
X133675285Y-110638333D01*
X133675285Y-110638333D02*
X133675285Y-110519285D01*
X133675285Y-110519285D02*
X133699095Y-110471666D01*
X133699095Y-110471666D02*
X133722904Y-110447857D01*
X133722904Y-110447857D02*
X133770523Y-110424047D01*
X133770523Y-110424047D02*
X133889571Y-110424047D01*
X133889571Y-110424047D02*
X133937190Y-110447857D01*
X133937190Y-110447857D02*
X133961000Y-110471666D01*
X133961000Y-110471666D02*
X133984809Y-110519285D01*
X133984809Y-110519285D02*
X133984809Y-110638333D01*
X133984809Y-110638333D02*
X133961000Y-110685952D01*
X133961000Y-110685952D02*
X133937190Y-110709761D01*
X129878559Y-126396428D02*
X129640464Y-126563094D01*
X129878559Y-126682142D02*
X129378559Y-126682142D01*
X129378559Y-126682142D02*
X129378559Y-126491666D01*
X129378559Y-126491666D02*
X129402369Y-126444047D01*
X129402369Y-126444047D02*
X129426178Y-126420237D01*
X129426178Y-126420237D02*
X129473797Y-126396428D01*
X129473797Y-126396428D02*
X129545226Y-126396428D01*
X129545226Y-126396428D02*
X129592845Y-126420237D01*
X129592845Y-126420237D02*
X129616654Y-126444047D01*
X129616654Y-126444047D02*
X129640464Y-126491666D01*
X129640464Y-126491666D02*
X129640464Y-126682142D01*
X129878559Y-125920237D02*
X129878559Y-126205951D01*
X129878559Y-126063094D02*
X129378559Y-126063094D01*
X129378559Y-126063094D02*
X129449988Y-126110713D01*
X129449988Y-126110713D02*
X129497607Y-126158332D01*
X129497607Y-126158332D02*
X129521416Y-126205951D01*
X129545226Y-125491666D02*
X129878559Y-125491666D01*
X129354750Y-125610714D02*
X129711892Y-125729761D01*
X129711892Y-125729761D02*
X129711892Y-125420238D01*
X115078559Y-126158333D02*
X114840464Y-126324999D01*
X115078559Y-126444047D02*
X114578559Y-126444047D01*
X114578559Y-126444047D02*
X114578559Y-126253571D01*
X114578559Y-126253571D02*
X114602369Y-126205952D01*
X114602369Y-126205952D02*
X114626178Y-126182142D01*
X114626178Y-126182142D02*
X114673797Y-126158333D01*
X114673797Y-126158333D02*
X114745226Y-126158333D01*
X114745226Y-126158333D02*
X114792845Y-126182142D01*
X114792845Y-126182142D02*
X114816654Y-126205952D01*
X114816654Y-126205952D02*
X114840464Y-126253571D01*
X114840464Y-126253571D02*
X114840464Y-126444047D01*
X114745226Y-125729761D02*
X115078559Y-125729761D01*
X114554750Y-125848809D02*
X114911892Y-125967856D01*
X114911892Y-125967856D02*
X114911892Y-125658333D01*
X129834809Y-114901428D02*
X129596714Y-115068094D01*
X129834809Y-115187142D02*
X129334809Y-115187142D01*
X129334809Y-115187142D02*
X129334809Y-114996666D01*
X129334809Y-114996666D02*
X129358619Y-114949047D01*
X129358619Y-114949047D02*
X129382428Y-114925237D01*
X129382428Y-114925237D02*
X129430047Y-114901428D01*
X129430047Y-114901428D02*
X129501476Y-114901428D01*
X129501476Y-114901428D02*
X129549095Y-114925237D01*
X129549095Y-114925237D02*
X129572904Y-114949047D01*
X129572904Y-114949047D02*
X129596714Y-114996666D01*
X129596714Y-114996666D02*
X129596714Y-115187142D01*
X129382428Y-114710951D02*
X129358619Y-114687142D01*
X129358619Y-114687142D02*
X129334809Y-114639523D01*
X129334809Y-114639523D02*
X129334809Y-114520475D01*
X129334809Y-114520475D02*
X129358619Y-114472856D01*
X129358619Y-114472856D02*
X129382428Y-114449047D01*
X129382428Y-114449047D02*
X129430047Y-114425237D01*
X129430047Y-114425237D02*
X129477666Y-114425237D01*
X129477666Y-114425237D02*
X129549095Y-114449047D01*
X129549095Y-114449047D02*
X129834809Y-114734761D01*
X129834809Y-114734761D02*
X129834809Y-114425237D01*
X129334809Y-114115714D02*
X129334809Y-114068095D01*
X129334809Y-114068095D02*
X129358619Y-114020476D01*
X129358619Y-114020476D02*
X129382428Y-113996666D01*
X129382428Y-113996666D02*
X129430047Y-113972857D01*
X129430047Y-113972857D02*
X129525285Y-113949047D01*
X129525285Y-113949047D02*
X129644333Y-113949047D01*
X129644333Y-113949047D02*
X129739571Y-113972857D01*
X129739571Y-113972857D02*
X129787190Y-113996666D01*
X129787190Y-113996666D02*
X129811000Y-114020476D01*
X129811000Y-114020476D02*
X129834809Y-114068095D01*
X129834809Y-114068095D02*
X129834809Y-114115714D01*
X129834809Y-114115714D02*
X129811000Y-114163333D01*
X129811000Y-114163333D02*
X129787190Y-114187142D01*
X129787190Y-114187142D02*
X129739571Y-114210952D01*
X129739571Y-114210952D02*
X129644333Y-114234761D01*
X129644333Y-114234761D02*
X129525285Y-114234761D01*
X129525285Y-114234761D02*
X129430047Y-114210952D01*
X129430047Y-114210952D02*
X129382428Y-114187142D01*
X129382428Y-114187142D02*
X129358619Y-114163333D01*
X129358619Y-114163333D02*
X129334809Y-114115714D01*
X117944821Y-106479809D02*
X117778155Y-106241714D01*
X117659107Y-106479809D02*
X117659107Y-105979809D01*
X117659107Y-105979809D02*
X117849583Y-105979809D01*
X117849583Y-105979809D02*
X117897202Y-106003619D01*
X117897202Y-106003619D02*
X117921012Y-106027428D01*
X117921012Y-106027428D02*
X117944821Y-106075047D01*
X117944821Y-106075047D02*
X117944821Y-106146476D01*
X117944821Y-106146476D02*
X117921012Y-106194095D01*
X117921012Y-106194095D02*
X117897202Y-106217904D01*
X117897202Y-106217904D02*
X117849583Y-106241714D01*
X117849583Y-106241714D02*
X117659107Y-106241714D01*
X118111488Y-105979809D02*
X118421012Y-105979809D01*
X118421012Y-105979809D02*
X118254345Y-106170285D01*
X118254345Y-106170285D02*
X118325774Y-106170285D01*
X118325774Y-106170285D02*
X118373393Y-106194095D01*
X118373393Y-106194095D02*
X118397202Y-106217904D01*
X118397202Y-106217904D02*
X118421012Y-106265523D01*
X118421012Y-106265523D02*
X118421012Y-106384571D01*
X118421012Y-106384571D02*
X118397202Y-106432190D01*
X118397202Y-106432190D02*
X118373393Y-106456000D01*
X118373393Y-106456000D02*
X118325774Y-106479809D01*
X118325774Y-106479809D02*
X118182917Y-106479809D01*
X118182917Y-106479809D02*
X118135298Y-106456000D01*
X118135298Y-106456000D02*
X118111488Y-106432190D01*
X118897202Y-106479809D02*
X118611488Y-106479809D01*
X118754345Y-106479809D02*
X118754345Y-105979809D01*
X118754345Y-105979809D02*
X118706726Y-106051238D01*
X118706726Y-106051238D02*
X118659107Y-106098857D01*
X118659107Y-106098857D02*
X118611488Y-106122666D01*
X129093630Y-121477428D02*
X129046011Y-121453619D01*
X129046011Y-121453619D02*
X128998392Y-121406000D01*
X128998392Y-121406000D02*
X128926964Y-121334571D01*
X128926964Y-121334571D02*
X128879345Y-121310761D01*
X128879345Y-121310761D02*
X128831726Y-121310761D01*
X128855535Y-121429809D02*
X128807916Y-121406000D01*
X128807916Y-121406000D02*
X128760297Y-121358380D01*
X128760297Y-121358380D02*
X128736488Y-121263142D01*
X128736488Y-121263142D02*
X128736488Y-121096476D01*
X128736488Y-121096476D02*
X128760297Y-121001238D01*
X128760297Y-121001238D02*
X128807916Y-120953619D01*
X128807916Y-120953619D02*
X128855535Y-120929809D01*
X128855535Y-120929809D02*
X128950773Y-120929809D01*
X128950773Y-120929809D02*
X128998392Y-120953619D01*
X128998392Y-120953619D02*
X129046011Y-121001238D01*
X129046011Y-121001238D02*
X129069821Y-121096476D01*
X129069821Y-121096476D02*
X129069821Y-121263142D01*
X129069821Y-121263142D02*
X129046011Y-121358380D01*
X129046011Y-121358380D02*
X128998392Y-121406000D01*
X128998392Y-121406000D02*
X128950773Y-121429809D01*
X128950773Y-121429809D02*
X128855535Y-121429809D01*
X129498393Y-121096476D02*
X129498393Y-121429809D01*
X129379345Y-120906000D02*
X129260298Y-121263142D01*
X129260298Y-121263142D02*
X129569821Y-121263142D01*
X133984809Y-116651428D02*
X133746714Y-116818094D01*
X133984809Y-116937142D02*
X133484809Y-116937142D01*
X133484809Y-116937142D02*
X133484809Y-116746666D01*
X133484809Y-116746666D02*
X133508619Y-116699047D01*
X133508619Y-116699047D02*
X133532428Y-116675237D01*
X133532428Y-116675237D02*
X133580047Y-116651428D01*
X133580047Y-116651428D02*
X133651476Y-116651428D01*
X133651476Y-116651428D02*
X133699095Y-116675237D01*
X133699095Y-116675237D02*
X133722904Y-116699047D01*
X133722904Y-116699047D02*
X133746714Y-116746666D01*
X133746714Y-116746666D02*
X133746714Y-116937142D01*
X133532428Y-116460951D02*
X133508619Y-116437142D01*
X133508619Y-116437142D02*
X133484809Y-116389523D01*
X133484809Y-116389523D02*
X133484809Y-116270475D01*
X133484809Y-116270475D02*
X133508619Y-116222856D01*
X133508619Y-116222856D02*
X133532428Y-116199047D01*
X133532428Y-116199047D02*
X133580047Y-116175237D01*
X133580047Y-116175237D02*
X133627666Y-116175237D01*
X133627666Y-116175237D02*
X133699095Y-116199047D01*
X133699095Y-116199047D02*
X133984809Y-116484761D01*
X133984809Y-116484761D02*
X133984809Y-116175237D01*
X133484809Y-115746666D02*
X133484809Y-115841904D01*
X133484809Y-115841904D02*
X133508619Y-115889523D01*
X133508619Y-115889523D02*
X133532428Y-115913333D01*
X133532428Y-115913333D02*
X133603857Y-115960952D01*
X133603857Y-115960952D02*
X133699095Y-115984761D01*
X133699095Y-115984761D02*
X133889571Y-115984761D01*
X133889571Y-115984761D02*
X133937190Y-115960952D01*
X133937190Y-115960952D02*
X133961000Y-115937142D01*
X133961000Y-115937142D02*
X133984809Y-115889523D01*
X133984809Y-115889523D02*
X133984809Y-115794285D01*
X133984809Y-115794285D02*
X133961000Y-115746666D01*
X133961000Y-115746666D02*
X133937190Y-115722857D01*
X133937190Y-115722857D02*
X133889571Y-115699047D01*
X133889571Y-115699047D02*
X133770523Y-115699047D01*
X133770523Y-115699047D02*
X133722904Y-115722857D01*
X133722904Y-115722857D02*
X133699095Y-115746666D01*
X133699095Y-115746666D02*
X133675285Y-115794285D01*
X133675285Y-115794285D02*
X133675285Y-115889523D01*
X133675285Y-115889523D02*
X133699095Y-115937142D01*
X133699095Y-115937142D02*
X133722904Y-115960952D01*
X133722904Y-115960952D02*
X133770523Y-115984761D01*
X126126666Y-121474809D02*
X125960000Y-121236714D01*
X125840952Y-121474809D02*
X125840952Y-120974809D01*
X125840952Y-120974809D02*
X126031428Y-120974809D01*
X126031428Y-120974809D02*
X126079047Y-120998619D01*
X126079047Y-120998619D02*
X126102857Y-121022428D01*
X126102857Y-121022428D02*
X126126666Y-121070047D01*
X126126666Y-121070047D02*
X126126666Y-121141476D01*
X126126666Y-121141476D02*
X126102857Y-121189095D01*
X126102857Y-121189095D02*
X126079047Y-121212904D01*
X126079047Y-121212904D02*
X126031428Y-121236714D01*
X126031428Y-121236714D02*
X125840952Y-121236714D01*
X126555238Y-120974809D02*
X126460000Y-120974809D01*
X126460000Y-120974809D02*
X126412381Y-120998619D01*
X126412381Y-120998619D02*
X126388571Y-121022428D01*
X126388571Y-121022428D02*
X126340952Y-121093857D01*
X126340952Y-121093857D02*
X126317143Y-121189095D01*
X126317143Y-121189095D02*
X126317143Y-121379571D01*
X126317143Y-121379571D02*
X126340952Y-121427190D01*
X126340952Y-121427190D02*
X126364762Y-121451000D01*
X126364762Y-121451000D02*
X126412381Y-121474809D01*
X126412381Y-121474809D02*
X126507619Y-121474809D01*
X126507619Y-121474809D02*
X126555238Y-121451000D01*
X126555238Y-121451000D02*
X126579047Y-121427190D01*
X126579047Y-121427190D02*
X126602857Y-121379571D01*
X126602857Y-121379571D02*
X126602857Y-121260523D01*
X126602857Y-121260523D02*
X126579047Y-121212904D01*
X126579047Y-121212904D02*
X126555238Y-121189095D01*
X126555238Y-121189095D02*
X126507619Y-121165285D01*
X126507619Y-121165285D02*
X126412381Y-121165285D01*
X126412381Y-121165285D02*
X126364762Y-121189095D01*
X126364762Y-121189095D02*
X126340952Y-121212904D01*
X126340952Y-121212904D02*
X126317143Y-121260523D01*
X133984809Y-114901428D02*
X133746714Y-115068094D01*
X133984809Y-115187142D02*
X133484809Y-115187142D01*
X133484809Y-115187142D02*
X133484809Y-114996666D01*
X133484809Y-114996666D02*
X133508619Y-114949047D01*
X133508619Y-114949047D02*
X133532428Y-114925237D01*
X133532428Y-114925237D02*
X133580047Y-114901428D01*
X133580047Y-114901428D02*
X133651476Y-114901428D01*
X133651476Y-114901428D02*
X133699095Y-114925237D01*
X133699095Y-114925237D02*
X133722904Y-114949047D01*
X133722904Y-114949047D02*
X133746714Y-114996666D01*
X133746714Y-114996666D02*
X133746714Y-115187142D01*
X133984809Y-114425237D02*
X133984809Y-114710951D01*
X133984809Y-114568094D02*
X133484809Y-114568094D01*
X133484809Y-114568094D02*
X133556238Y-114615713D01*
X133556238Y-114615713D02*
X133603857Y-114663332D01*
X133603857Y-114663332D02*
X133627666Y-114710951D01*
X133699095Y-114139523D02*
X133675285Y-114187142D01*
X133675285Y-114187142D02*
X133651476Y-114210952D01*
X133651476Y-114210952D02*
X133603857Y-114234761D01*
X133603857Y-114234761D02*
X133580047Y-114234761D01*
X133580047Y-114234761D02*
X133532428Y-114210952D01*
X133532428Y-114210952D02*
X133508619Y-114187142D01*
X133508619Y-114187142D02*
X133484809Y-114139523D01*
X133484809Y-114139523D02*
X133484809Y-114044285D01*
X133484809Y-114044285D02*
X133508619Y-113996666D01*
X133508619Y-113996666D02*
X133532428Y-113972857D01*
X133532428Y-113972857D02*
X133580047Y-113949047D01*
X133580047Y-113949047D02*
X133603857Y-113949047D01*
X133603857Y-113949047D02*
X133651476Y-113972857D01*
X133651476Y-113972857D02*
X133675285Y-113996666D01*
X133675285Y-113996666D02*
X133699095Y-114044285D01*
X133699095Y-114044285D02*
X133699095Y-114139523D01*
X133699095Y-114139523D02*
X133722904Y-114187142D01*
X133722904Y-114187142D02*
X133746714Y-114210952D01*
X133746714Y-114210952D02*
X133794333Y-114234761D01*
X133794333Y-114234761D02*
X133889571Y-114234761D01*
X133889571Y-114234761D02*
X133937190Y-114210952D01*
X133937190Y-114210952D02*
X133961000Y-114187142D01*
X133961000Y-114187142D02*
X133984809Y-114139523D01*
X133984809Y-114139523D02*
X133984809Y-114044285D01*
X133984809Y-114044285D02*
X133961000Y-113996666D01*
X133961000Y-113996666D02*
X133937190Y-113972857D01*
X133937190Y-113972857D02*
X133889571Y-113949047D01*
X133889571Y-113949047D02*
X133794333Y-113949047D01*
X133794333Y-113949047D02*
X133746714Y-113972857D01*
X133746714Y-113972857D02*
X133722904Y-113996666D01*
X133722904Y-113996666D02*
X133699095Y-114044285D01*
X133243630Y-121497428D02*
X133196011Y-121473619D01*
X133196011Y-121473619D02*
X133148392Y-121426000D01*
X133148392Y-121426000D02*
X133076964Y-121354571D01*
X133076964Y-121354571D02*
X133029345Y-121330761D01*
X133029345Y-121330761D02*
X132981726Y-121330761D01*
X133005535Y-121449809D02*
X132957916Y-121426000D01*
X132957916Y-121426000D02*
X132910297Y-121378380D01*
X132910297Y-121378380D02*
X132886488Y-121283142D01*
X132886488Y-121283142D02*
X132886488Y-121116476D01*
X132886488Y-121116476D02*
X132910297Y-121021238D01*
X132910297Y-121021238D02*
X132957916Y-120973619D01*
X132957916Y-120973619D02*
X133005535Y-120949809D01*
X133005535Y-120949809D02*
X133100773Y-120949809D01*
X133100773Y-120949809D02*
X133148392Y-120973619D01*
X133148392Y-120973619D02*
X133196011Y-121021238D01*
X133196011Y-121021238D02*
X133219821Y-121116476D01*
X133219821Y-121116476D02*
X133219821Y-121283142D01*
X133219821Y-121283142D02*
X133196011Y-121378380D01*
X133196011Y-121378380D02*
X133148392Y-121426000D01*
X133148392Y-121426000D02*
X133100773Y-121449809D01*
X133100773Y-121449809D02*
X133005535Y-121449809D01*
X133410298Y-120997428D02*
X133434107Y-120973619D01*
X133434107Y-120973619D02*
X133481726Y-120949809D01*
X133481726Y-120949809D02*
X133600774Y-120949809D01*
X133600774Y-120949809D02*
X133648393Y-120973619D01*
X133648393Y-120973619D02*
X133672202Y-120997428D01*
X133672202Y-120997428D02*
X133696012Y-121045047D01*
X133696012Y-121045047D02*
X133696012Y-121092666D01*
X133696012Y-121092666D02*
X133672202Y-121164095D01*
X133672202Y-121164095D02*
X133386488Y-121449809D01*
X133386488Y-121449809D02*
X133696012Y-121449809D01*
X122757190Y-110703333D02*
X122781000Y-110727142D01*
X122781000Y-110727142D02*
X122804809Y-110798571D01*
X122804809Y-110798571D02*
X122804809Y-110846190D01*
X122804809Y-110846190D02*
X122781000Y-110917618D01*
X122781000Y-110917618D02*
X122733380Y-110965237D01*
X122733380Y-110965237D02*
X122685761Y-110989047D01*
X122685761Y-110989047D02*
X122590523Y-111012856D01*
X122590523Y-111012856D02*
X122519095Y-111012856D01*
X122519095Y-111012856D02*
X122423857Y-110989047D01*
X122423857Y-110989047D02*
X122376238Y-110965237D01*
X122376238Y-110965237D02*
X122328619Y-110917618D01*
X122328619Y-110917618D02*
X122304809Y-110846190D01*
X122304809Y-110846190D02*
X122304809Y-110798571D01*
X122304809Y-110798571D02*
X122328619Y-110727142D01*
X122328619Y-110727142D02*
X122352428Y-110703333D01*
X122304809Y-110536666D02*
X122304809Y-110227142D01*
X122304809Y-110227142D02*
X122495285Y-110393809D01*
X122495285Y-110393809D02*
X122495285Y-110322380D01*
X122495285Y-110322380D02*
X122519095Y-110274761D01*
X122519095Y-110274761D02*
X122542904Y-110250952D01*
X122542904Y-110250952D02*
X122590523Y-110227142D01*
X122590523Y-110227142D02*
X122709571Y-110227142D01*
X122709571Y-110227142D02*
X122757190Y-110250952D01*
X122757190Y-110250952D02*
X122781000Y-110274761D01*
X122781000Y-110274761D02*
X122804809Y-110322380D01*
X122804809Y-110322380D02*
X122804809Y-110465237D01*
X122804809Y-110465237D02*
X122781000Y-110512856D01*
X122781000Y-110512856D02*
X122757190Y-110536666D01*
X134003559Y-129658333D02*
X133765464Y-129824999D01*
X134003559Y-129944047D02*
X133503559Y-129944047D01*
X133503559Y-129944047D02*
X133503559Y-129753571D01*
X133503559Y-129753571D02*
X133527369Y-129705952D01*
X133527369Y-129705952D02*
X133551178Y-129682142D01*
X133551178Y-129682142D02*
X133598797Y-129658333D01*
X133598797Y-129658333D02*
X133670226Y-129658333D01*
X133670226Y-129658333D02*
X133717845Y-129682142D01*
X133717845Y-129682142D02*
X133741654Y-129705952D01*
X133741654Y-129705952D02*
X133765464Y-129753571D01*
X133765464Y-129753571D02*
X133765464Y-129944047D01*
X133503559Y-129491666D02*
X133503559Y-129158333D01*
X133503559Y-129158333D02*
X134003559Y-129372618D01*
X129859809Y-129871428D02*
X129621714Y-130038094D01*
X129859809Y-130157142D02*
X129359809Y-130157142D01*
X129359809Y-130157142D02*
X129359809Y-129966666D01*
X129359809Y-129966666D02*
X129383619Y-129919047D01*
X129383619Y-129919047D02*
X129407428Y-129895237D01*
X129407428Y-129895237D02*
X129455047Y-129871428D01*
X129455047Y-129871428D02*
X129526476Y-129871428D01*
X129526476Y-129871428D02*
X129574095Y-129895237D01*
X129574095Y-129895237D02*
X129597904Y-129919047D01*
X129597904Y-129919047D02*
X129621714Y-129966666D01*
X129621714Y-129966666D02*
X129621714Y-130157142D01*
X129859809Y-129395237D02*
X129859809Y-129680951D01*
X129859809Y-129538094D02*
X129359809Y-129538094D01*
X129359809Y-129538094D02*
X129431238Y-129585713D01*
X129431238Y-129585713D02*
X129478857Y-129633332D01*
X129478857Y-129633332D02*
X129502666Y-129680951D01*
X129359809Y-129085714D02*
X129359809Y-129038095D01*
X129359809Y-129038095D02*
X129383619Y-128990476D01*
X129383619Y-128990476D02*
X129407428Y-128966666D01*
X129407428Y-128966666D02*
X129455047Y-128942857D01*
X129455047Y-128942857D02*
X129550285Y-128919047D01*
X129550285Y-128919047D02*
X129669333Y-128919047D01*
X129669333Y-128919047D02*
X129764571Y-128942857D01*
X129764571Y-128942857D02*
X129812190Y-128966666D01*
X129812190Y-128966666D02*
X129836000Y-128990476D01*
X129836000Y-128990476D02*
X129859809Y-129038095D01*
X129859809Y-129038095D02*
X129859809Y-129085714D01*
X129859809Y-129085714D02*
X129836000Y-129133333D01*
X129836000Y-129133333D02*
X129812190Y-129157142D01*
X129812190Y-129157142D02*
X129764571Y-129180952D01*
X129764571Y-129180952D02*
X129669333Y-129204761D01*
X129669333Y-129204761D02*
X129550285Y-129204761D01*
X129550285Y-129204761D02*
X129455047Y-129180952D01*
X129455047Y-129180952D02*
X129407428Y-129157142D01*
X129407428Y-129157142D02*
X129383619Y-129133333D01*
X129383619Y-129133333D02*
X129359809Y-129085714D01*
X115134809Y-111401428D02*
X114896714Y-111568094D01*
X115134809Y-111687142D02*
X114634809Y-111687142D01*
X114634809Y-111687142D02*
X114634809Y-111496666D01*
X114634809Y-111496666D02*
X114658619Y-111449047D01*
X114658619Y-111449047D02*
X114682428Y-111425237D01*
X114682428Y-111425237D02*
X114730047Y-111401428D01*
X114730047Y-111401428D02*
X114801476Y-111401428D01*
X114801476Y-111401428D02*
X114849095Y-111425237D01*
X114849095Y-111425237D02*
X114872904Y-111449047D01*
X114872904Y-111449047D02*
X114896714Y-111496666D01*
X114896714Y-111496666D02*
X114896714Y-111687142D01*
X114634809Y-111234761D02*
X114634809Y-110925237D01*
X114634809Y-110925237D02*
X114825285Y-111091904D01*
X114825285Y-111091904D02*
X114825285Y-111020475D01*
X114825285Y-111020475D02*
X114849095Y-110972856D01*
X114849095Y-110972856D02*
X114872904Y-110949047D01*
X114872904Y-110949047D02*
X114920523Y-110925237D01*
X114920523Y-110925237D02*
X115039571Y-110925237D01*
X115039571Y-110925237D02*
X115087190Y-110949047D01*
X115087190Y-110949047D02*
X115111000Y-110972856D01*
X115111000Y-110972856D02*
X115134809Y-111020475D01*
X115134809Y-111020475D02*
X115134809Y-111163332D01*
X115134809Y-111163332D02*
X115111000Y-111210951D01*
X115111000Y-111210951D02*
X115087190Y-111234761D01*
X114682428Y-110734761D02*
X114658619Y-110710952D01*
X114658619Y-110710952D02*
X114634809Y-110663333D01*
X114634809Y-110663333D02*
X114634809Y-110544285D01*
X114634809Y-110544285D02*
X114658619Y-110496666D01*
X114658619Y-110496666D02*
X114682428Y-110472857D01*
X114682428Y-110472857D02*
X114730047Y-110449047D01*
X114730047Y-110449047D02*
X114777666Y-110449047D01*
X114777666Y-110449047D02*
X114849095Y-110472857D01*
X114849095Y-110472857D02*
X115134809Y-110758571D01*
X115134809Y-110758571D02*
X115134809Y-110449047D01*
X115078559Y-127858333D02*
X114840464Y-128024999D01*
X115078559Y-128144047D02*
X114578559Y-128144047D01*
X114578559Y-128144047D02*
X114578559Y-127953571D01*
X114578559Y-127953571D02*
X114602369Y-127905952D01*
X114602369Y-127905952D02*
X114626178Y-127882142D01*
X114626178Y-127882142D02*
X114673797Y-127858333D01*
X114673797Y-127858333D02*
X114745226Y-127858333D01*
X114745226Y-127858333D02*
X114792845Y-127882142D01*
X114792845Y-127882142D02*
X114816654Y-127905952D01*
X114816654Y-127905952D02*
X114840464Y-127953571D01*
X114840464Y-127953571D02*
X114840464Y-128144047D01*
X114578559Y-127691666D02*
X114578559Y-127382142D01*
X114578559Y-127382142D02*
X114769035Y-127548809D01*
X114769035Y-127548809D02*
X114769035Y-127477380D01*
X114769035Y-127477380D02*
X114792845Y-127429761D01*
X114792845Y-127429761D02*
X114816654Y-127405952D01*
X114816654Y-127405952D02*
X114864273Y-127382142D01*
X114864273Y-127382142D02*
X114983321Y-127382142D01*
X114983321Y-127382142D02*
X115030940Y-127405952D01*
X115030940Y-127405952D02*
X115054750Y-127429761D01*
X115054750Y-127429761D02*
X115078559Y-127477380D01*
X115078559Y-127477380D02*
X115078559Y-127620237D01*
X115078559Y-127620237D02*
X115054750Y-127667856D01*
X115054750Y-127667856D02*
X115030940Y-127691666D01*
X115274880Y-121497428D02*
X115227261Y-121473619D01*
X115227261Y-121473619D02*
X115179642Y-121426000D01*
X115179642Y-121426000D02*
X115108214Y-121354571D01*
X115108214Y-121354571D02*
X115060595Y-121330761D01*
X115060595Y-121330761D02*
X115012976Y-121330761D01*
X115036785Y-121449809D02*
X114989166Y-121426000D01*
X114989166Y-121426000D02*
X114941547Y-121378380D01*
X114941547Y-121378380D02*
X114917738Y-121283142D01*
X114917738Y-121283142D02*
X114917738Y-121116476D01*
X114917738Y-121116476D02*
X114941547Y-121021238D01*
X114941547Y-121021238D02*
X114989166Y-120973619D01*
X114989166Y-120973619D02*
X115036785Y-120949809D01*
X115036785Y-120949809D02*
X115132023Y-120949809D01*
X115132023Y-120949809D02*
X115179642Y-120973619D01*
X115179642Y-120973619D02*
X115227261Y-121021238D01*
X115227261Y-121021238D02*
X115251071Y-121116476D01*
X115251071Y-121116476D02*
X115251071Y-121283142D01*
X115251071Y-121283142D02*
X115227261Y-121378380D01*
X115227261Y-121378380D02*
X115179642Y-121426000D01*
X115179642Y-121426000D02*
X115132023Y-121449809D01*
X115132023Y-121449809D02*
X115036785Y-121449809D01*
X115727262Y-121449809D02*
X115441548Y-121449809D01*
X115584405Y-121449809D02*
X115584405Y-120949809D01*
X115584405Y-120949809D02*
X115536786Y-121021238D01*
X115536786Y-121021238D02*
X115489167Y-121068857D01*
X115489167Y-121068857D02*
X115441548Y-121092666D01*
X124144821Y-106484809D02*
X123978155Y-106246714D01*
X123859107Y-106484809D02*
X123859107Y-105984809D01*
X123859107Y-105984809D02*
X124049583Y-105984809D01*
X124049583Y-105984809D02*
X124097202Y-106008619D01*
X124097202Y-106008619D02*
X124121012Y-106032428D01*
X124121012Y-106032428D02*
X124144821Y-106080047D01*
X124144821Y-106080047D02*
X124144821Y-106151476D01*
X124144821Y-106151476D02*
X124121012Y-106199095D01*
X124121012Y-106199095D02*
X124097202Y-106222904D01*
X124097202Y-106222904D02*
X124049583Y-106246714D01*
X124049583Y-106246714D02*
X123859107Y-106246714D01*
X124335298Y-106032428D02*
X124359107Y-106008619D01*
X124359107Y-106008619D02*
X124406726Y-105984809D01*
X124406726Y-105984809D02*
X124525774Y-105984809D01*
X124525774Y-105984809D02*
X124573393Y-106008619D01*
X124573393Y-106008619D02*
X124597202Y-106032428D01*
X124597202Y-106032428D02*
X124621012Y-106080047D01*
X124621012Y-106080047D02*
X124621012Y-106127666D01*
X124621012Y-106127666D02*
X124597202Y-106199095D01*
X124597202Y-106199095D02*
X124311488Y-106484809D01*
X124311488Y-106484809D02*
X124621012Y-106484809D01*
X124787678Y-105984809D02*
X125097202Y-105984809D01*
X125097202Y-105984809D02*
X124930535Y-106175285D01*
X124930535Y-106175285D02*
X125001964Y-106175285D01*
X125001964Y-106175285D02*
X125049583Y-106199095D01*
X125049583Y-106199095D02*
X125073392Y-106222904D01*
X125073392Y-106222904D02*
X125097202Y-106270523D01*
X125097202Y-106270523D02*
X125097202Y-106389571D01*
X125097202Y-106389571D02*
X125073392Y-106437190D01*
X125073392Y-106437190D02*
X125049583Y-106461000D01*
X125049583Y-106461000D02*
X125001964Y-106484809D01*
X125001964Y-106484809D02*
X124859107Y-106484809D01*
X124859107Y-106484809D02*
X124811488Y-106461000D01*
X124811488Y-106461000D02*
X124787678Y-106437190D01*
X119688571Y-106479809D02*
X119521905Y-106241714D01*
X119402857Y-106479809D02*
X119402857Y-105979809D01*
X119402857Y-105979809D02*
X119593333Y-105979809D01*
X119593333Y-105979809D02*
X119640952Y-106003619D01*
X119640952Y-106003619D02*
X119664762Y-106027428D01*
X119664762Y-106027428D02*
X119688571Y-106075047D01*
X119688571Y-106075047D02*
X119688571Y-106146476D01*
X119688571Y-106146476D02*
X119664762Y-106194095D01*
X119664762Y-106194095D02*
X119640952Y-106217904D01*
X119640952Y-106217904D02*
X119593333Y-106241714D01*
X119593333Y-106241714D02*
X119402857Y-106241714D01*
X119879048Y-106027428D02*
X119902857Y-106003619D01*
X119902857Y-106003619D02*
X119950476Y-105979809D01*
X119950476Y-105979809D02*
X120069524Y-105979809D01*
X120069524Y-105979809D02*
X120117143Y-106003619D01*
X120117143Y-106003619D02*
X120140952Y-106027428D01*
X120140952Y-106027428D02*
X120164762Y-106075047D01*
X120164762Y-106075047D02*
X120164762Y-106122666D01*
X120164762Y-106122666D02*
X120140952Y-106194095D01*
X120140952Y-106194095D02*
X119855238Y-106479809D01*
X119855238Y-106479809D02*
X120164762Y-106479809D01*
X120593333Y-106146476D02*
X120593333Y-106479809D01*
X120474285Y-105956000D02*
X120355238Y-106313142D01*
X120355238Y-106313142D02*
X120664761Y-106313142D01*
X115274880Y-106477428D02*
X115227261Y-106453619D01*
X115227261Y-106453619D02*
X115179642Y-106406000D01*
X115179642Y-106406000D02*
X115108214Y-106334571D01*
X115108214Y-106334571D02*
X115060595Y-106310761D01*
X115060595Y-106310761D02*
X115012976Y-106310761D01*
X115036785Y-106429809D02*
X114989166Y-106406000D01*
X114989166Y-106406000D02*
X114941547Y-106358380D01*
X114941547Y-106358380D02*
X114917738Y-106263142D01*
X114917738Y-106263142D02*
X114917738Y-106096476D01*
X114917738Y-106096476D02*
X114941547Y-106001238D01*
X114941547Y-106001238D02*
X114989166Y-105953619D01*
X114989166Y-105953619D02*
X115036785Y-105929809D01*
X115036785Y-105929809D02*
X115132023Y-105929809D01*
X115132023Y-105929809D02*
X115179642Y-105953619D01*
X115179642Y-105953619D02*
X115227261Y-106001238D01*
X115227261Y-106001238D02*
X115251071Y-106096476D01*
X115251071Y-106096476D02*
X115251071Y-106263142D01*
X115251071Y-106263142D02*
X115227261Y-106358380D01*
X115227261Y-106358380D02*
X115179642Y-106406000D01*
X115179642Y-106406000D02*
X115132023Y-106429809D01*
X115132023Y-106429809D02*
X115036785Y-106429809D01*
X115679643Y-105929809D02*
X115584405Y-105929809D01*
X115584405Y-105929809D02*
X115536786Y-105953619D01*
X115536786Y-105953619D02*
X115512976Y-105977428D01*
X115512976Y-105977428D02*
X115465357Y-106048857D01*
X115465357Y-106048857D02*
X115441548Y-106144095D01*
X115441548Y-106144095D02*
X115441548Y-106334571D01*
X115441548Y-106334571D02*
X115465357Y-106382190D01*
X115465357Y-106382190D02*
X115489167Y-106406000D01*
X115489167Y-106406000D02*
X115536786Y-106429809D01*
X115536786Y-106429809D02*
X115632024Y-106429809D01*
X115632024Y-106429809D02*
X115679643Y-106406000D01*
X115679643Y-106406000D02*
X115703452Y-106382190D01*
X115703452Y-106382190D02*
X115727262Y-106334571D01*
X115727262Y-106334571D02*
X115727262Y-106215523D01*
X115727262Y-106215523D02*
X115703452Y-106167904D01*
X115703452Y-106167904D02*
X115679643Y-106144095D01*
X115679643Y-106144095D02*
X115632024Y-106120285D01*
X115632024Y-106120285D02*
X115536786Y-106120285D01*
X115536786Y-106120285D02*
X115489167Y-106144095D01*
X115489167Y-106144095D02*
X115465357Y-106167904D01*
X115465357Y-106167904D02*
X115441548Y-106215523D01*
X116787190Y-118163333D02*
X116811000Y-118187142D01*
X116811000Y-118187142D02*
X116834809Y-118258571D01*
X116834809Y-118258571D02*
X116834809Y-118306190D01*
X116834809Y-118306190D02*
X116811000Y-118377618D01*
X116811000Y-118377618D02*
X116763380Y-118425237D01*
X116763380Y-118425237D02*
X116715761Y-118449047D01*
X116715761Y-118449047D02*
X116620523Y-118472856D01*
X116620523Y-118472856D02*
X116549095Y-118472856D01*
X116549095Y-118472856D02*
X116453857Y-118449047D01*
X116453857Y-118449047D02*
X116406238Y-118425237D01*
X116406238Y-118425237D02*
X116358619Y-118377618D01*
X116358619Y-118377618D02*
X116334809Y-118306190D01*
X116334809Y-118306190D02*
X116334809Y-118258571D01*
X116334809Y-118258571D02*
X116358619Y-118187142D01*
X116358619Y-118187142D02*
X116382428Y-118163333D01*
X116501476Y-117734761D02*
X116834809Y-117734761D01*
X116311000Y-117853809D02*
X116668142Y-117972856D01*
X116668142Y-117972856D02*
X116668142Y-117663333D01*
X116787190Y-133188333D02*
X116811000Y-133212142D01*
X116811000Y-133212142D02*
X116834809Y-133283571D01*
X116834809Y-133283571D02*
X116834809Y-133331190D01*
X116834809Y-133331190D02*
X116811000Y-133402618D01*
X116811000Y-133402618D02*
X116763380Y-133450237D01*
X116763380Y-133450237D02*
X116715761Y-133474047D01*
X116715761Y-133474047D02*
X116620523Y-133497856D01*
X116620523Y-133497856D02*
X116549095Y-133497856D01*
X116549095Y-133497856D02*
X116453857Y-133474047D01*
X116453857Y-133474047D02*
X116406238Y-133450237D01*
X116406238Y-133450237D02*
X116358619Y-133402618D01*
X116358619Y-133402618D02*
X116334809Y-133331190D01*
X116334809Y-133331190D02*
X116334809Y-133283571D01*
X116334809Y-133283571D02*
X116358619Y-133212142D01*
X116358619Y-133212142D02*
X116382428Y-133188333D01*
X116334809Y-132759761D02*
X116334809Y-132854999D01*
X116334809Y-132854999D02*
X116358619Y-132902618D01*
X116358619Y-132902618D02*
X116382428Y-132926428D01*
X116382428Y-132926428D02*
X116453857Y-132974047D01*
X116453857Y-132974047D02*
X116549095Y-132997856D01*
X116549095Y-132997856D02*
X116739571Y-132997856D01*
X116739571Y-132997856D02*
X116787190Y-132974047D01*
X116787190Y-132974047D02*
X116811000Y-132950237D01*
X116811000Y-132950237D02*
X116834809Y-132902618D01*
X116834809Y-132902618D02*
X116834809Y-132807380D01*
X116834809Y-132807380D02*
X116811000Y-132759761D01*
X116811000Y-132759761D02*
X116787190Y-132735952D01*
X116787190Y-132735952D02*
X116739571Y-132712142D01*
X116739571Y-132712142D02*
X116620523Y-132712142D01*
X116620523Y-132712142D02*
X116572904Y-132735952D01*
X116572904Y-132735952D02*
X116549095Y-132759761D01*
X116549095Y-132759761D02*
X116525285Y-132807380D01*
X116525285Y-132807380D02*
X116525285Y-132902618D01*
X116525285Y-132902618D02*
X116549095Y-132950237D01*
X116549095Y-132950237D02*
X116572904Y-132974047D01*
X116572904Y-132974047D02*
X116620523Y-132997856D01*
X129828559Y-131408333D02*
X129590464Y-131574999D01*
X129828559Y-131694047D02*
X129328559Y-131694047D01*
X129328559Y-131694047D02*
X129328559Y-131503571D01*
X129328559Y-131503571D02*
X129352369Y-131455952D01*
X129352369Y-131455952D02*
X129376178Y-131432142D01*
X129376178Y-131432142D02*
X129423797Y-131408333D01*
X129423797Y-131408333D02*
X129495226Y-131408333D01*
X129495226Y-131408333D02*
X129542845Y-131432142D01*
X129542845Y-131432142D02*
X129566654Y-131455952D01*
X129566654Y-131455952D02*
X129590464Y-131503571D01*
X129590464Y-131503571D02*
X129590464Y-131694047D01*
X129828559Y-131170237D02*
X129828559Y-131074999D01*
X129828559Y-131074999D02*
X129804750Y-131027380D01*
X129804750Y-131027380D02*
X129780940Y-131003571D01*
X129780940Y-131003571D02*
X129709511Y-130955952D01*
X129709511Y-130955952D02*
X129614273Y-130932142D01*
X129614273Y-130932142D02*
X129423797Y-130932142D01*
X129423797Y-130932142D02*
X129376178Y-130955952D01*
X129376178Y-130955952D02*
X129352369Y-130979761D01*
X129352369Y-130979761D02*
X129328559Y-131027380D01*
X129328559Y-131027380D02*
X129328559Y-131122618D01*
X129328559Y-131122618D02*
X129352369Y-131170237D01*
X129352369Y-131170237D02*
X129376178Y-131194047D01*
X129376178Y-131194047D02*
X129423797Y-131217856D01*
X129423797Y-131217856D02*
X129542845Y-131217856D01*
X129542845Y-131217856D02*
X129590464Y-131194047D01*
X129590464Y-131194047D02*
X129614273Y-131170237D01*
X129614273Y-131170237D02*
X129638083Y-131122618D01*
X129638083Y-131122618D02*
X129638083Y-131027380D01*
X129638083Y-131027380D02*
X129614273Y-130979761D01*
X129614273Y-130979761D02*
X129590464Y-130955952D01*
X129590464Y-130955952D02*
X129542845Y-130932142D01*
D11*
X106226666Y-116154819D02*
X106226666Y-116869104D01*
X106226666Y-116869104D02*
X106179047Y-117011961D01*
X106179047Y-117011961D02*
X106083809Y-117107200D01*
X106083809Y-117107200D02*
X105940952Y-117154819D01*
X105940952Y-117154819D02*
X105845714Y-117154819D01*
X106845714Y-116583390D02*
X106750476Y-116535771D01*
X106750476Y-116535771D02*
X106702857Y-116488152D01*
X106702857Y-116488152D02*
X106655238Y-116392914D01*
X106655238Y-116392914D02*
X106655238Y-116345295D01*
X106655238Y-116345295D02*
X106702857Y-116250057D01*
X106702857Y-116250057D02*
X106750476Y-116202438D01*
X106750476Y-116202438D02*
X106845714Y-116154819D01*
X106845714Y-116154819D02*
X107036190Y-116154819D01*
X107036190Y-116154819D02*
X107131428Y-116202438D01*
X107131428Y-116202438D02*
X107179047Y-116250057D01*
X107179047Y-116250057D02*
X107226666Y-116345295D01*
X107226666Y-116345295D02*
X107226666Y-116392914D01*
X107226666Y-116392914D02*
X107179047Y-116488152D01*
X107179047Y-116488152D02*
X107131428Y-116535771D01*
X107131428Y-116535771D02*
X107036190Y-116583390D01*
X107036190Y-116583390D02*
X106845714Y-116583390D01*
X106845714Y-116583390D02*
X106750476Y-116631009D01*
X106750476Y-116631009D02*
X106702857Y-116678628D01*
X106702857Y-116678628D02*
X106655238Y-116773866D01*
X106655238Y-116773866D02*
X106655238Y-116964342D01*
X106655238Y-116964342D02*
X106702857Y-117059580D01*
X106702857Y-117059580D02*
X106750476Y-117107200D01*
X106750476Y-117107200D02*
X106845714Y-117154819D01*
X106845714Y-117154819D02*
X107036190Y-117154819D01*
X107036190Y-117154819D02*
X107131428Y-117107200D01*
X107131428Y-117107200D02*
X107179047Y-117059580D01*
X107179047Y-117059580D02*
X107226666Y-116964342D01*
X107226666Y-116964342D02*
X107226666Y-116773866D01*
X107226666Y-116773866D02*
X107179047Y-116678628D01*
X107179047Y-116678628D02*
X107131428Y-116631009D01*
X107131428Y-116631009D02*
X107036190Y-116583390D01*
X141200476Y-142034819D02*
X141200476Y-142749104D01*
X141200476Y-142749104D02*
X141152857Y-142891961D01*
X141152857Y-142891961D02*
X141057619Y-142987200D01*
X141057619Y-142987200D02*
X140914762Y-143034819D01*
X140914762Y-143034819D02*
X140819524Y-143034819D01*
X142200476Y-143034819D02*
X141629048Y-143034819D01*
X141914762Y-143034819D02*
X141914762Y-142034819D01*
X141914762Y-142034819D02*
X141819524Y-142177676D01*
X141819524Y-142177676D02*
X141724286Y-142272914D01*
X141724286Y-142272914D02*
X141629048Y-142320533D01*
X142581429Y-142130057D02*
X142629048Y-142082438D01*
X142629048Y-142082438D02*
X142724286Y-142034819D01*
X142724286Y-142034819D02*
X142962381Y-142034819D01*
X142962381Y-142034819D02*
X143057619Y-142082438D01*
X143057619Y-142082438D02*
X143105238Y-142130057D01*
X143105238Y-142130057D02*
X143152857Y-142225295D01*
X143152857Y-142225295D02*
X143152857Y-142320533D01*
X143152857Y-142320533D02*
X143105238Y-142463390D01*
X143105238Y-142463390D02*
X142533810Y-143034819D01*
X142533810Y-143034819D02*
X143152857Y-143034819D01*
D10*
X115134809Y-116601428D02*
X114896714Y-116768094D01*
X115134809Y-116887142D02*
X114634809Y-116887142D01*
X114634809Y-116887142D02*
X114634809Y-116696666D01*
X114634809Y-116696666D02*
X114658619Y-116649047D01*
X114658619Y-116649047D02*
X114682428Y-116625237D01*
X114682428Y-116625237D02*
X114730047Y-116601428D01*
X114730047Y-116601428D02*
X114801476Y-116601428D01*
X114801476Y-116601428D02*
X114849095Y-116625237D01*
X114849095Y-116625237D02*
X114872904Y-116649047D01*
X114872904Y-116649047D02*
X114896714Y-116696666D01*
X114896714Y-116696666D02*
X114896714Y-116887142D01*
X114682428Y-116410951D02*
X114658619Y-116387142D01*
X114658619Y-116387142D02*
X114634809Y-116339523D01*
X114634809Y-116339523D02*
X114634809Y-116220475D01*
X114634809Y-116220475D02*
X114658619Y-116172856D01*
X114658619Y-116172856D02*
X114682428Y-116149047D01*
X114682428Y-116149047D02*
X114730047Y-116125237D01*
X114730047Y-116125237D02*
X114777666Y-116125237D01*
X114777666Y-116125237D02*
X114849095Y-116149047D01*
X114849095Y-116149047D02*
X115134809Y-116434761D01*
X115134809Y-116434761D02*
X115134809Y-116125237D01*
X115134809Y-115887142D02*
X115134809Y-115791904D01*
X115134809Y-115791904D02*
X115111000Y-115744285D01*
X115111000Y-115744285D02*
X115087190Y-115720476D01*
X115087190Y-115720476D02*
X115015761Y-115672857D01*
X115015761Y-115672857D02*
X114920523Y-115649047D01*
X114920523Y-115649047D02*
X114730047Y-115649047D01*
X114730047Y-115649047D02*
X114682428Y-115672857D01*
X114682428Y-115672857D02*
X114658619Y-115696666D01*
X114658619Y-115696666D02*
X114634809Y-115744285D01*
X114634809Y-115744285D02*
X114634809Y-115839523D01*
X114634809Y-115839523D02*
X114658619Y-115887142D01*
X114658619Y-115887142D02*
X114682428Y-115910952D01*
X114682428Y-115910952D02*
X114730047Y-115934761D01*
X114730047Y-115934761D02*
X114849095Y-115934761D01*
X114849095Y-115934761D02*
X114896714Y-115910952D01*
X114896714Y-115910952D02*
X114920523Y-115887142D01*
X114920523Y-115887142D02*
X114944333Y-115839523D01*
X114944333Y-115839523D02*
X114944333Y-115744285D01*
X114944333Y-115744285D02*
X114920523Y-115696666D01*
X114920523Y-115696666D02*
X114896714Y-115672857D01*
X114896714Y-115672857D02*
X114849095Y-115649047D01*
X119272797Y-125924809D02*
X119272797Y-126329571D01*
X119272797Y-126329571D02*
X119296607Y-126377190D01*
X119296607Y-126377190D02*
X119320416Y-126401000D01*
X119320416Y-126401000D02*
X119368035Y-126424809D01*
X119368035Y-126424809D02*
X119463273Y-126424809D01*
X119463273Y-126424809D02*
X119510892Y-126401000D01*
X119510892Y-126401000D02*
X119534702Y-126377190D01*
X119534702Y-126377190D02*
X119558511Y-126329571D01*
X119558511Y-126329571D02*
X119558511Y-125924809D01*
X120058512Y-126424809D02*
X119772798Y-126424809D01*
X119915655Y-126424809D02*
X119915655Y-125924809D01*
X119915655Y-125924809D02*
X119868036Y-125996238D01*
X119868036Y-125996238D02*
X119820417Y-126043857D01*
X119820417Y-126043857D02*
X119772798Y-126067666D01*
X115134809Y-113126428D02*
X114896714Y-113293094D01*
X115134809Y-113412142D02*
X114634809Y-113412142D01*
X114634809Y-113412142D02*
X114634809Y-113221666D01*
X114634809Y-113221666D02*
X114658619Y-113174047D01*
X114658619Y-113174047D02*
X114682428Y-113150237D01*
X114682428Y-113150237D02*
X114730047Y-113126428D01*
X114730047Y-113126428D02*
X114801476Y-113126428D01*
X114801476Y-113126428D02*
X114849095Y-113150237D01*
X114849095Y-113150237D02*
X114872904Y-113174047D01*
X114872904Y-113174047D02*
X114896714Y-113221666D01*
X114896714Y-113221666D02*
X114896714Y-113412142D01*
X114634809Y-112959761D02*
X114634809Y-112650237D01*
X114634809Y-112650237D02*
X114825285Y-112816904D01*
X114825285Y-112816904D02*
X114825285Y-112745475D01*
X114825285Y-112745475D02*
X114849095Y-112697856D01*
X114849095Y-112697856D02*
X114872904Y-112674047D01*
X114872904Y-112674047D02*
X114920523Y-112650237D01*
X114920523Y-112650237D02*
X115039571Y-112650237D01*
X115039571Y-112650237D02*
X115087190Y-112674047D01*
X115087190Y-112674047D02*
X115111000Y-112697856D01*
X115111000Y-112697856D02*
X115134809Y-112745475D01*
X115134809Y-112745475D02*
X115134809Y-112888332D01*
X115134809Y-112888332D02*
X115111000Y-112935951D01*
X115111000Y-112935951D02*
X115087190Y-112959761D01*
X114634809Y-112340714D02*
X114634809Y-112293095D01*
X114634809Y-112293095D02*
X114658619Y-112245476D01*
X114658619Y-112245476D02*
X114682428Y-112221666D01*
X114682428Y-112221666D02*
X114730047Y-112197857D01*
X114730047Y-112197857D02*
X114825285Y-112174047D01*
X114825285Y-112174047D02*
X114944333Y-112174047D01*
X114944333Y-112174047D02*
X115039571Y-112197857D01*
X115039571Y-112197857D02*
X115087190Y-112221666D01*
X115087190Y-112221666D02*
X115111000Y-112245476D01*
X115111000Y-112245476D02*
X115134809Y-112293095D01*
X115134809Y-112293095D02*
X115134809Y-112340714D01*
X115134809Y-112340714D02*
X115111000Y-112388333D01*
X115111000Y-112388333D02*
X115087190Y-112412142D01*
X115087190Y-112412142D02*
X115039571Y-112435952D01*
X115039571Y-112435952D02*
X114944333Y-112459761D01*
X114944333Y-112459761D02*
X114825285Y-112459761D01*
X114825285Y-112459761D02*
X114730047Y-112435952D01*
X114730047Y-112435952D02*
X114682428Y-112412142D01*
X114682428Y-112412142D02*
X114658619Y-112388333D01*
X114658619Y-112388333D02*
X114634809Y-112340714D01*
X115103559Y-131408333D02*
X114865464Y-131574999D01*
X115103559Y-131694047D02*
X114603559Y-131694047D01*
X114603559Y-131694047D02*
X114603559Y-131503571D01*
X114603559Y-131503571D02*
X114627369Y-131455952D01*
X114627369Y-131455952D02*
X114651178Y-131432142D01*
X114651178Y-131432142D02*
X114698797Y-131408333D01*
X114698797Y-131408333D02*
X114770226Y-131408333D01*
X114770226Y-131408333D02*
X114817845Y-131432142D01*
X114817845Y-131432142D02*
X114841654Y-131455952D01*
X114841654Y-131455952D02*
X114865464Y-131503571D01*
X114865464Y-131503571D02*
X114865464Y-131694047D01*
X115103559Y-130932142D02*
X115103559Y-131217856D01*
X115103559Y-131074999D02*
X114603559Y-131074999D01*
X114603559Y-131074999D02*
X114674988Y-131122618D01*
X114674988Y-131122618D02*
X114722607Y-131170237D01*
X114722607Y-131170237D02*
X114746416Y-131217856D01*
X129834809Y-113151428D02*
X129596714Y-113318094D01*
X129834809Y-113437142D02*
X129334809Y-113437142D01*
X129334809Y-113437142D02*
X129334809Y-113246666D01*
X129334809Y-113246666D02*
X129358619Y-113199047D01*
X129358619Y-113199047D02*
X129382428Y-113175237D01*
X129382428Y-113175237D02*
X129430047Y-113151428D01*
X129430047Y-113151428D02*
X129501476Y-113151428D01*
X129501476Y-113151428D02*
X129549095Y-113175237D01*
X129549095Y-113175237D02*
X129572904Y-113199047D01*
X129572904Y-113199047D02*
X129596714Y-113246666D01*
X129596714Y-113246666D02*
X129596714Y-113437142D01*
X129834809Y-112675237D02*
X129834809Y-112960951D01*
X129834809Y-112818094D02*
X129334809Y-112818094D01*
X129334809Y-112818094D02*
X129406238Y-112865713D01*
X129406238Y-112865713D02*
X129453857Y-112913332D01*
X129453857Y-112913332D02*
X129477666Y-112960951D01*
X129334809Y-112508571D02*
X129334809Y-112175238D01*
X129334809Y-112175238D02*
X129834809Y-112389523D01*
X119688571Y-121479809D02*
X119521905Y-121241714D01*
X119402857Y-121479809D02*
X119402857Y-120979809D01*
X119402857Y-120979809D02*
X119593333Y-120979809D01*
X119593333Y-120979809D02*
X119640952Y-121003619D01*
X119640952Y-121003619D02*
X119664762Y-121027428D01*
X119664762Y-121027428D02*
X119688571Y-121075047D01*
X119688571Y-121075047D02*
X119688571Y-121146476D01*
X119688571Y-121146476D02*
X119664762Y-121194095D01*
X119664762Y-121194095D02*
X119640952Y-121217904D01*
X119640952Y-121217904D02*
X119593333Y-121241714D01*
X119593333Y-121241714D02*
X119402857Y-121241714D01*
X120164762Y-121479809D02*
X119879048Y-121479809D01*
X120021905Y-121479809D02*
X120021905Y-120979809D01*
X120021905Y-120979809D02*
X119974286Y-121051238D01*
X119974286Y-121051238D02*
X119926667Y-121098857D01*
X119926667Y-121098857D02*
X119879048Y-121122666D01*
X120593333Y-120979809D02*
X120498095Y-120979809D01*
X120498095Y-120979809D02*
X120450476Y-121003619D01*
X120450476Y-121003619D02*
X120426666Y-121027428D01*
X120426666Y-121027428D02*
X120379047Y-121098857D01*
X120379047Y-121098857D02*
X120355238Y-121194095D01*
X120355238Y-121194095D02*
X120355238Y-121384571D01*
X120355238Y-121384571D02*
X120379047Y-121432190D01*
X120379047Y-121432190D02*
X120402857Y-121456000D01*
X120402857Y-121456000D02*
X120450476Y-121479809D01*
X120450476Y-121479809D02*
X120545714Y-121479809D01*
X120545714Y-121479809D02*
X120593333Y-121456000D01*
X120593333Y-121456000D02*
X120617142Y-121432190D01*
X120617142Y-121432190D02*
X120640952Y-121384571D01*
X120640952Y-121384571D02*
X120640952Y-121265523D01*
X120640952Y-121265523D02*
X120617142Y-121217904D01*
X120617142Y-121217904D02*
X120593333Y-121194095D01*
X120593333Y-121194095D02*
X120545714Y-121170285D01*
X120545714Y-121170285D02*
X120450476Y-121170285D01*
X120450476Y-121170285D02*
X120402857Y-121194095D01*
X120402857Y-121194095D02*
X120379047Y-121217904D01*
X120379047Y-121217904D02*
X120355238Y-121265523D01*
D12*
%TO.C,R19*%
X132103508Y-113347500D02*
X131628992Y-113347500D01*
X132103508Y-112302500D02*
X131628992Y-112302500D01*
%TO.C,R2*%
X116516492Y-129052500D02*
X116991008Y-129052500D01*
X116516492Y-130097500D02*
X116991008Y-130097500D01*
%TO.C,R21*%
X127941008Y-111597500D02*
X127466492Y-111597500D01*
X127941008Y-110552500D02*
X127466492Y-110552500D01*
%TO.C,C5*%
X124294420Y-125120000D02*
X124575580Y-125120000D01*
X124294420Y-126140000D02*
X124575580Y-126140000D01*
%TO.C,R13*%
X132103508Y-131847500D02*
X131628992Y-131847500D01*
X132103508Y-130802500D02*
X131628992Y-130802500D01*
%TO.C,U2*%
X122228750Y-111790000D02*
X118778750Y-111790000D01*
X122228750Y-111790000D02*
X124178750Y-111790000D01*
X122228750Y-116910000D02*
X120278750Y-116910000D01*
X122228750Y-116910000D02*
X124178750Y-116910000D01*
%TO.C,R12*%
X127941008Y-128347500D02*
X127466492Y-128347500D01*
X127941008Y-127302500D02*
X127466492Y-127302500D01*
%TO.C,R8*%
X132103508Y-128347500D02*
X131628992Y-128347500D01*
X132103508Y-127302500D02*
X131628992Y-127302500D01*
%TO.C,R28*%
X116516492Y-114052500D02*
X116991008Y-114052500D01*
X116516492Y-115097500D02*
X116991008Y-115097500D01*
%TO.C,R15*%
X124982500Y-122867742D02*
X124982500Y-123342258D01*
X123937500Y-122867742D02*
X123937500Y-123342258D01*
%TO.C,R5*%
X118782500Y-122862742D02*
X118782500Y-123337258D01*
X117737500Y-122862742D02*
X117737500Y-123337258D01*
%TO.C,Q5*%
X133297500Y-106765000D02*
X131622500Y-106765000D01*
X133297500Y-106765000D02*
X133947500Y-106765000D01*
X133297500Y-109885000D02*
X132647500Y-109885000D01*
X133297500Y-109885000D02*
X133947500Y-109885000D01*
%TO.C,C1*%
X117132500Y-144742500D02*
X117132500Y-145530000D01*
X117526250Y-145136250D02*
X116738750Y-145136250D01*
X117630563Y-145770000D02*
X116345000Y-145770000D01*
X117630563Y-145770000D02*
X118695000Y-146834437D01*
X112939437Y-145770000D02*
X114225000Y-145770000D01*
X112939437Y-145770000D02*
X111875000Y-146834437D01*
X118695000Y-146834437D02*
X118695000Y-152590000D01*
X111875000Y-146834437D02*
X111875000Y-152590000D01*
X118695000Y-152590000D02*
X116345000Y-152590000D01*
X111875000Y-152590000D02*
X114225000Y-152590000D01*
%TO.C,Q3*%
X129147500Y-106770000D02*
X127472500Y-106770000D01*
X129147500Y-106770000D02*
X129797500Y-106770000D01*
X129147500Y-109890000D02*
X128497500Y-109890000D01*
X129147500Y-109890000D02*
X129797500Y-109890000D01*
%TO.C,C2*%
X135232500Y-144717500D02*
X135232500Y-145505000D01*
X135626250Y-145111250D02*
X134838750Y-145111250D01*
X135730563Y-145745000D02*
X134445000Y-145745000D01*
X135730563Y-145745000D02*
X136795000Y-146809437D01*
X131039437Y-145745000D02*
X132325000Y-145745000D01*
X131039437Y-145745000D02*
X129975000Y-146809437D01*
X136795000Y-146809437D02*
X136795000Y-152565000D01*
X129975000Y-146809437D02*
X129975000Y-152565000D01*
X136795000Y-152565000D02*
X134445000Y-152565000D01*
X129975000Y-152565000D02*
X132325000Y-152565000D01*
%TO.C,R11*%
X132097258Y-126602500D02*
X131622742Y-126602500D01*
X132097258Y-125557500D02*
X131622742Y-125557500D01*
%TO.C,R22*%
X127941008Y-116847500D02*
X127466492Y-116847500D01*
X127941008Y-115802500D02*
X127466492Y-115802500D01*
%TO.C,R27*%
X125687500Y-108337258D02*
X125687500Y-107862742D01*
X126732500Y-108337258D02*
X126732500Y-107862742D01*
%TO.C,R25*%
X132097258Y-111602500D02*
X131622742Y-111602500D01*
X132097258Y-110557500D02*
X131622742Y-110557500D01*
%TO.C,R14*%
X127941008Y-126597500D02*
X127466492Y-126597500D01*
X127941008Y-125552500D02*
X127466492Y-125552500D01*
%TO.C,R4*%
X116516492Y-125552500D02*
X116991008Y-125552500D01*
X116516492Y-126597500D02*
X116991008Y-126597500D01*
%TO.C,R20*%
X127941008Y-115097500D02*
X127466492Y-115097500D01*
X127941008Y-114052500D02*
X127466492Y-114052500D01*
%TO.C,R31*%
X118782500Y-107862742D02*
X118782500Y-108337258D01*
X117737500Y-107862742D02*
X117737500Y-108337258D01*
%TO.C,Q4*%
X129147500Y-121770000D02*
X127472500Y-121770000D01*
X129147500Y-121770000D02*
X129797500Y-121770000D01*
X129147500Y-124890000D02*
X128497500Y-124890000D01*
X129147500Y-124890000D02*
X129797500Y-124890000D01*
%TO.C,R26*%
X132103508Y-116847500D02*
X131628992Y-116847500D01*
X132103508Y-115802500D02*
X131628992Y-115802500D01*
%TO.C,R6*%
X125687500Y-123337258D02*
X125687500Y-122862742D01*
X126732500Y-123337258D02*
X126732500Y-122862742D01*
%TO.C,R18*%
X132103508Y-115097500D02*
X131628992Y-115097500D01*
X132103508Y-114052500D02*
X131628992Y-114052500D01*
%TO.C,Q2*%
X133297500Y-121765000D02*
X131622500Y-121765000D01*
X133297500Y-121765000D02*
X133947500Y-121765000D01*
X133297500Y-124885000D02*
X132647500Y-124885000D01*
X133297500Y-124885000D02*
X133947500Y-124885000D01*
%TO.C,C3*%
X124294420Y-110120000D02*
X124575580Y-110120000D01*
X124294420Y-111140000D02*
X124575580Y-111140000D01*
%TO.C,R7*%
X132103508Y-130097500D02*
X131628992Y-130097500D01*
X132103508Y-129052500D02*
X131628992Y-129052500D01*
%TO.C,R10*%
X127941008Y-130097500D02*
X127466492Y-130097500D01*
X127941008Y-129052500D02*
X127466492Y-129052500D01*
%TO.C,R32*%
X116516492Y-110552500D02*
X116991008Y-110552500D01*
X116516492Y-111597500D02*
X116991008Y-111597500D01*
%TO.C,R3*%
X116516492Y-127302500D02*
X116991008Y-127302500D01*
X116516492Y-128347500D02*
X116991008Y-128347500D01*
%TO.C,Q1*%
X115322500Y-121765000D02*
X113647500Y-121765000D01*
X115322500Y-121765000D02*
X115972500Y-121765000D01*
X115322500Y-124885000D02*
X114672500Y-124885000D01*
X115322500Y-124885000D02*
X115972500Y-124885000D01*
%TO.C,R23*%
X124982500Y-107867742D02*
X124982500Y-108342258D01*
X123937500Y-107867742D02*
X123937500Y-108342258D01*
%TO.C,R24*%
X120532500Y-107867742D02*
X120532500Y-108342258D01*
X119487500Y-107867742D02*
X119487500Y-108342258D01*
%TO.C,Q6*%
X115322500Y-106765000D02*
X113647500Y-106765000D01*
X115322500Y-106765000D02*
X115972500Y-106765000D01*
X115322500Y-109885000D02*
X114672500Y-109885000D01*
X115322500Y-109885000D02*
X115972500Y-109885000D01*
%TO.C,C4*%
X118319420Y-117570000D02*
X118600580Y-117570000D01*
X118319420Y-118590000D02*
X118600580Y-118590000D01*
%TO.C,C6*%
X118319420Y-132570000D02*
X118600580Y-132570000D01*
X118319420Y-133590000D02*
X118600580Y-133590000D01*
%TO.C,R9*%
X127941008Y-131847500D02*
X127466492Y-131847500D01*
X127941008Y-130802500D02*
X127466492Y-130802500D01*
%TO.C,J8*%
X107890000Y-112660000D02*
X107890000Y-104980000D01*
X107890000Y-112660000D02*
X105230000Y-112660000D01*
X107890000Y-104980000D02*
X105230000Y-104980000D01*
X106560000Y-115260000D02*
X105230000Y-115260000D01*
X105230000Y-115260000D02*
X105230000Y-113930000D01*
X105230000Y-112660000D02*
X105230000Y-104980000D01*
%TO.C,J12*%
X143340000Y-151460000D02*
X143340000Y-143780000D01*
X143340000Y-151460000D02*
X140680000Y-151460000D01*
X143340000Y-143780000D02*
X140680000Y-143780000D01*
X142010000Y-154060000D02*
X140680000Y-154060000D01*
X140680000Y-154060000D02*
X140680000Y-152730000D01*
X140680000Y-151460000D02*
X140680000Y-143780000D01*
%TO.C,R29*%
X116991008Y-116847500D02*
X116516492Y-116847500D01*
X116991008Y-115802500D02*
X116516492Y-115802500D01*
%TO.C,U1*%
X122228750Y-126790000D02*
X118778750Y-126790000D01*
X122228750Y-126790000D02*
X124178750Y-126790000D01*
X122228750Y-131910000D02*
X120278750Y-131910000D01*
X122228750Y-131910000D02*
X124178750Y-131910000D01*
%TO.C,R30*%
X116516492Y-112302500D02*
X116991008Y-112302500D01*
X116516492Y-113347500D02*
X116991008Y-113347500D01*
%TO.C,R1*%
X116991008Y-131847500D02*
X116516492Y-131847500D01*
X116991008Y-130802500D02*
X116516492Y-130802500D01*
%TO.C,R17*%
X127941008Y-113347500D02*
X127466492Y-113347500D01*
X127941008Y-112302500D02*
X127466492Y-112302500D01*
%TO.C,R16*%
X120532500Y-122867742D02*
X120532500Y-123342258D01*
X119487500Y-122867742D02*
X119487500Y-123342258D01*
%TD*%
M02*
