%TF.GenerationSoftware,KiCad,Pcbnew,7.0.10*%
%TF.CreationDate,2024-02-20T22:03:50-06:00*%
%TF.ProjectId,3340_VCO,33333430-5f56-4434-9f2e-6b696361645f,rev?*%
%TF.SameCoordinates,Original*%
%TF.FileFunction,Legend,Top*%
%TF.FilePolarity,Positive*%
%FSLAX46Y46*%
G04 Gerber Fmt 4.6, Leading zero omitted, Abs format (unit mm)*
G04 Created by KiCad (PCBNEW 7.0.10) date 2024-02-20 22:03:50*
%MOMM*%
%LPD*%
G01*
G04 APERTURE LIST*
%ADD10C,0.125000*%
%ADD11C,0.150000*%
%ADD12C,0.120000*%
G04 APERTURE END LIST*
D10*
X142003571Y-122934809D02*
X141836905Y-122696714D01*
X141717857Y-122934809D02*
X141717857Y-122434809D01*
X141717857Y-122434809D02*
X141908333Y-122434809D01*
X141908333Y-122434809D02*
X141955952Y-122458619D01*
X141955952Y-122458619D02*
X141979762Y-122482428D01*
X141979762Y-122482428D02*
X142003571Y-122530047D01*
X142003571Y-122530047D02*
X142003571Y-122601476D01*
X142003571Y-122601476D02*
X141979762Y-122649095D01*
X141979762Y-122649095D02*
X141955952Y-122672904D01*
X141955952Y-122672904D02*
X141908333Y-122696714D01*
X141908333Y-122696714D02*
X141717857Y-122696714D01*
X142194048Y-122482428D02*
X142217857Y-122458619D01*
X142217857Y-122458619D02*
X142265476Y-122434809D01*
X142265476Y-122434809D02*
X142384524Y-122434809D01*
X142384524Y-122434809D02*
X142432143Y-122458619D01*
X142432143Y-122458619D02*
X142455952Y-122482428D01*
X142455952Y-122482428D02*
X142479762Y-122530047D01*
X142479762Y-122530047D02*
X142479762Y-122577666D01*
X142479762Y-122577666D02*
X142455952Y-122649095D01*
X142455952Y-122649095D02*
X142170238Y-122934809D01*
X142170238Y-122934809D02*
X142479762Y-122934809D01*
X142932142Y-122434809D02*
X142694047Y-122434809D01*
X142694047Y-122434809D02*
X142670238Y-122672904D01*
X142670238Y-122672904D02*
X142694047Y-122649095D01*
X142694047Y-122649095D02*
X142741666Y-122625285D01*
X142741666Y-122625285D02*
X142860714Y-122625285D01*
X142860714Y-122625285D02*
X142908333Y-122649095D01*
X142908333Y-122649095D02*
X142932142Y-122672904D01*
X142932142Y-122672904D02*
X142955952Y-122720523D01*
X142955952Y-122720523D02*
X142955952Y-122839571D01*
X142955952Y-122839571D02*
X142932142Y-122887190D01*
X142932142Y-122887190D02*
X142908333Y-122911000D01*
X142908333Y-122911000D02*
X142860714Y-122934809D01*
X142860714Y-122934809D02*
X142741666Y-122934809D01*
X142741666Y-122934809D02*
X142694047Y-122911000D01*
X142694047Y-122911000D02*
X142670238Y-122887190D01*
X141978571Y-121174809D02*
X141811905Y-120936714D01*
X141692857Y-121174809D02*
X141692857Y-120674809D01*
X141692857Y-120674809D02*
X141883333Y-120674809D01*
X141883333Y-120674809D02*
X141930952Y-120698619D01*
X141930952Y-120698619D02*
X141954762Y-120722428D01*
X141954762Y-120722428D02*
X141978571Y-120770047D01*
X141978571Y-120770047D02*
X141978571Y-120841476D01*
X141978571Y-120841476D02*
X141954762Y-120889095D01*
X141954762Y-120889095D02*
X141930952Y-120912904D01*
X141930952Y-120912904D02*
X141883333Y-120936714D01*
X141883333Y-120936714D02*
X141692857Y-120936714D01*
X142169048Y-120722428D02*
X142192857Y-120698619D01*
X142192857Y-120698619D02*
X142240476Y-120674809D01*
X142240476Y-120674809D02*
X142359524Y-120674809D01*
X142359524Y-120674809D02*
X142407143Y-120698619D01*
X142407143Y-120698619D02*
X142430952Y-120722428D01*
X142430952Y-120722428D02*
X142454762Y-120770047D01*
X142454762Y-120770047D02*
X142454762Y-120817666D01*
X142454762Y-120817666D02*
X142430952Y-120889095D01*
X142430952Y-120889095D02*
X142145238Y-121174809D01*
X142145238Y-121174809D02*
X142454762Y-121174809D01*
X142621428Y-120674809D02*
X142954761Y-120674809D01*
X142954761Y-120674809D02*
X142740476Y-121174809D01*
X117778571Y-125774809D02*
X117611905Y-125536714D01*
X117492857Y-125774809D02*
X117492857Y-125274809D01*
X117492857Y-125274809D02*
X117683333Y-125274809D01*
X117683333Y-125274809D02*
X117730952Y-125298619D01*
X117730952Y-125298619D02*
X117754762Y-125322428D01*
X117754762Y-125322428D02*
X117778571Y-125370047D01*
X117778571Y-125370047D02*
X117778571Y-125441476D01*
X117778571Y-125441476D02*
X117754762Y-125489095D01*
X117754762Y-125489095D02*
X117730952Y-125512904D01*
X117730952Y-125512904D02*
X117683333Y-125536714D01*
X117683333Y-125536714D02*
X117492857Y-125536714D01*
X118254762Y-125774809D02*
X117969048Y-125774809D01*
X118111905Y-125774809D02*
X118111905Y-125274809D01*
X118111905Y-125274809D02*
X118064286Y-125346238D01*
X118064286Y-125346238D02*
X118016667Y-125393857D01*
X118016667Y-125393857D02*
X117969048Y-125417666D01*
X118540476Y-125489095D02*
X118492857Y-125465285D01*
X118492857Y-125465285D02*
X118469047Y-125441476D01*
X118469047Y-125441476D02*
X118445238Y-125393857D01*
X118445238Y-125393857D02*
X118445238Y-125370047D01*
X118445238Y-125370047D02*
X118469047Y-125322428D01*
X118469047Y-125322428D02*
X118492857Y-125298619D01*
X118492857Y-125298619D02*
X118540476Y-125274809D01*
X118540476Y-125274809D02*
X118635714Y-125274809D01*
X118635714Y-125274809D02*
X118683333Y-125298619D01*
X118683333Y-125298619D02*
X118707142Y-125322428D01*
X118707142Y-125322428D02*
X118730952Y-125370047D01*
X118730952Y-125370047D02*
X118730952Y-125393857D01*
X118730952Y-125393857D02*
X118707142Y-125441476D01*
X118707142Y-125441476D02*
X118683333Y-125465285D01*
X118683333Y-125465285D02*
X118635714Y-125489095D01*
X118635714Y-125489095D02*
X118540476Y-125489095D01*
X118540476Y-125489095D02*
X118492857Y-125512904D01*
X118492857Y-125512904D02*
X118469047Y-125536714D01*
X118469047Y-125536714D02*
X118445238Y-125584333D01*
X118445238Y-125584333D02*
X118445238Y-125679571D01*
X118445238Y-125679571D02*
X118469047Y-125727190D01*
X118469047Y-125727190D02*
X118492857Y-125751000D01*
X118492857Y-125751000D02*
X118540476Y-125774809D01*
X118540476Y-125774809D02*
X118635714Y-125774809D01*
X118635714Y-125774809D02*
X118683333Y-125751000D01*
X118683333Y-125751000D02*
X118707142Y-125727190D01*
X118707142Y-125727190D02*
X118730952Y-125679571D01*
X118730952Y-125679571D02*
X118730952Y-125584333D01*
X118730952Y-125584333D02*
X118707142Y-125536714D01*
X118707142Y-125536714D02*
X118683333Y-125512904D01*
X118683333Y-125512904D02*
X118635714Y-125489095D01*
X116478571Y-115924809D02*
X116311905Y-115686714D01*
X116192857Y-115924809D02*
X116192857Y-115424809D01*
X116192857Y-115424809D02*
X116383333Y-115424809D01*
X116383333Y-115424809D02*
X116430952Y-115448619D01*
X116430952Y-115448619D02*
X116454762Y-115472428D01*
X116454762Y-115472428D02*
X116478571Y-115520047D01*
X116478571Y-115520047D02*
X116478571Y-115591476D01*
X116478571Y-115591476D02*
X116454762Y-115639095D01*
X116454762Y-115639095D02*
X116430952Y-115662904D01*
X116430952Y-115662904D02*
X116383333Y-115686714D01*
X116383333Y-115686714D02*
X116192857Y-115686714D01*
X116645238Y-115424809D02*
X116954762Y-115424809D01*
X116954762Y-115424809D02*
X116788095Y-115615285D01*
X116788095Y-115615285D02*
X116859524Y-115615285D01*
X116859524Y-115615285D02*
X116907143Y-115639095D01*
X116907143Y-115639095D02*
X116930952Y-115662904D01*
X116930952Y-115662904D02*
X116954762Y-115710523D01*
X116954762Y-115710523D02*
X116954762Y-115829571D01*
X116954762Y-115829571D02*
X116930952Y-115877190D01*
X116930952Y-115877190D02*
X116907143Y-115901000D01*
X116907143Y-115901000D02*
X116859524Y-115924809D01*
X116859524Y-115924809D02*
X116716667Y-115924809D01*
X116716667Y-115924809D02*
X116669048Y-115901000D01*
X116669048Y-115901000D02*
X116645238Y-115877190D01*
X117383333Y-115424809D02*
X117288095Y-115424809D01*
X117288095Y-115424809D02*
X117240476Y-115448619D01*
X117240476Y-115448619D02*
X117216666Y-115472428D01*
X117216666Y-115472428D02*
X117169047Y-115543857D01*
X117169047Y-115543857D02*
X117145238Y-115639095D01*
X117145238Y-115639095D02*
X117145238Y-115829571D01*
X117145238Y-115829571D02*
X117169047Y-115877190D01*
X117169047Y-115877190D02*
X117192857Y-115901000D01*
X117192857Y-115901000D02*
X117240476Y-115924809D01*
X117240476Y-115924809D02*
X117335714Y-115924809D01*
X117335714Y-115924809D02*
X117383333Y-115901000D01*
X117383333Y-115901000D02*
X117407142Y-115877190D01*
X117407142Y-115877190D02*
X117430952Y-115829571D01*
X117430952Y-115829571D02*
X117430952Y-115710523D01*
X117430952Y-115710523D02*
X117407142Y-115662904D01*
X117407142Y-115662904D02*
X117383333Y-115639095D01*
X117383333Y-115639095D02*
X117335714Y-115615285D01*
X117335714Y-115615285D02*
X117240476Y-115615285D01*
X117240476Y-115615285D02*
X117192857Y-115639095D01*
X117192857Y-115639095D02*
X117169047Y-115662904D01*
X117169047Y-115662904D02*
X117145238Y-115710523D01*
X118328571Y-137027190D02*
X118304762Y-137051000D01*
X118304762Y-137051000D02*
X118233333Y-137074809D01*
X118233333Y-137074809D02*
X118185714Y-137074809D01*
X118185714Y-137074809D02*
X118114286Y-137051000D01*
X118114286Y-137051000D02*
X118066667Y-137003380D01*
X118066667Y-137003380D02*
X118042857Y-136955761D01*
X118042857Y-136955761D02*
X118019048Y-136860523D01*
X118019048Y-136860523D02*
X118019048Y-136789095D01*
X118019048Y-136789095D02*
X118042857Y-136693857D01*
X118042857Y-136693857D02*
X118066667Y-136646238D01*
X118066667Y-136646238D02*
X118114286Y-136598619D01*
X118114286Y-136598619D02*
X118185714Y-136574809D01*
X118185714Y-136574809D02*
X118233333Y-136574809D01*
X118233333Y-136574809D02*
X118304762Y-136598619D01*
X118304762Y-136598619D02*
X118328571Y-136622428D01*
X118804762Y-137074809D02*
X118519048Y-137074809D01*
X118661905Y-137074809D02*
X118661905Y-136574809D01*
X118661905Y-136574809D02*
X118614286Y-136646238D01*
X118614286Y-136646238D02*
X118566667Y-136693857D01*
X118566667Y-136693857D02*
X118519048Y-136717666D01*
X119280952Y-137074809D02*
X118995238Y-137074809D01*
X119138095Y-137074809D02*
X119138095Y-136574809D01*
X119138095Y-136574809D02*
X119090476Y-136646238D01*
X119090476Y-136646238D02*
X119042857Y-136693857D01*
X119042857Y-136693857D02*
X118995238Y-136717666D01*
X116928571Y-123299809D02*
X116761905Y-123061714D01*
X116642857Y-123299809D02*
X116642857Y-122799809D01*
X116642857Y-122799809D02*
X116833333Y-122799809D01*
X116833333Y-122799809D02*
X116880952Y-122823619D01*
X116880952Y-122823619D02*
X116904762Y-122847428D01*
X116904762Y-122847428D02*
X116928571Y-122895047D01*
X116928571Y-122895047D02*
X116928571Y-122966476D01*
X116928571Y-122966476D02*
X116904762Y-123014095D01*
X116904762Y-123014095D02*
X116880952Y-123037904D01*
X116880952Y-123037904D02*
X116833333Y-123061714D01*
X116833333Y-123061714D02*
X116642857Y-123061714D01*
X117119048Y-122847428D02*
X117142857Y-122823619D01*
X117142857Y-122823619D02*
X117190476Y-122799809D01*
X117190476Y-122799809D02*
X117309524Y-122799809D01*
X117309524Y-122799809D02*
X117357143Y-122823619D01*
X117357143Y-122823619D02*
X117380952Y-122847428D01*
X117380952Y-122847428D02*
X117404762Y-122895047D01*
X117404762Y-122895047D02*
X117404762Y-122942666D01*
X117404762Y-122942666D02*
X117380952Y-123014095D01*
X117380952Y-123014095D02*
X117095238Y-123299809D01*
X117095238Y-123299809D02*
X117404762Y-123299809D01*
X117595238Y-122847428D02*
X117619047Y-122823619D01*
X117619047Y-122823619D02*
X117666666Y-122799809D01*
X117666666Y-122799809D02*
X117785714Y-122799809D01*
X117785714Y-122799809D02*
X117833333Y-122823619D01*
X117833333Y-122823619D02*
X117857142Y-122847428D01*
X117857142Y-122847428D02*
X117880952Y-122895047D01*
X117880952Y-122895047D02*
X117880952Y-122942666D01*
X117880952Y-122942666D02*
X117857142Y-123014095D01*
X117857142Y-123014095D02*
X117571428Y-123299809D01*
X117571428Y-123299809D02*
X117880952Y-123299809D01*
X141978571Y-115924809D02*
X141811905Y-115686714D01*
X141692857Y-115924809D02*
X141692857Y-115424809D01*
X141692857Y-115424809D02*
X141883333Y-115424809D01*
X141883333Y-115424809D02*
X141930952Y-115448619D01*
X141930952Y-115448619D02*
X141954762Y-115472428D01*
X141954762Y-115472428D02*
X141978571Y-115520047D01*
X141978571Y-115520047D02*
X141978571Y-115591476D01*
X141978571Y-115591476D02*
X141954762Y-115639095D01*
X141954762Y-115639095D02*
X141930952Y-115662904D01*
X141930952Y-115662904D02*
X141883333Y-115686714D01*
X141883333Y-115686714D02*
X141692857Y-115686714D01*
X142169048Y-115472428D02*
X142192857Y-115448619D01*
X142192857Y-115448619D02*
X142240476Y-115424809D01*
X142240476Y-115424809D02*
X142359524Y-115424809D01*
X142359524Y-115424809D02*
X142407143Y-115448619D01*
X142407143Y-115448619D02*
X142430952Y-115472428D01*
X142430952Y-115472428D02*
X142454762Y-115520047D01*
X142454762Y-115520047D02*
X142454762Y-115567666D01*
X142454762Y-115567666D02*
X142430952Y-115639095D01*
X142430952Y-115639095D02*
X142145238Y-115924809D01*
X142145238Y-115924809D02*
X142454762Y-115924809D01*
X142764285Y-115424809D02*
X142811904Y-115424809D01*
X142811904Y-115424809D02*
X142859523Y-115448619D01*
X142859523Y-115448619D02*
X142883333Y-115472428D01*
X142883333Y-115472428D02*
X142907142Y-115520047D01*
X142907142Y-115520047D02*
X142930952Y-115615285D01*
X142930952Y-115615285D02*
X142930952Y-115734333D01*
X142930952Y-115734333D02*
X142907142Y-115829571D01*
X142907142Y-115829571D02*
X142883333Y-115877190D01*
X142883333Y-115877190D02*
X142859523Y-115901000D01*
X142859523Y-115901000D02*
X142811904Y-115924809D01*
X142811904Y-115924809D02*
X142764285Y-115924809D01*
X142764285Y-115924809D02*
X142716666Y-115901000D01*
X142716666Y-115901000D02*
X142692857Y-115877190D01*
X142692857Y-115877190D02*
X142669047Y-115829571D01*
X142669047Y-115829571D02*
X142645238Y-115734333D01*
X142645238Y-115734333D02*
X142645238Y-115615285D01*
X142645238Y-115615285D02*
X142669047Y-115520047D01*
X142669047Y-115520047D02*
X142692857Y-115472428D01*
X142692857Y-115472428D02*
X142716666Y-115448619D01*
X142716666Y-115448619D02*
X142764285Y-115424809D01*
X117616666Y-90227190D02*
X117592857Y-90251000D01*
X117592857Y-90251000D02*
X117521428Y-90274809D01*
X117521428Y-90274809D02*
X117473809Y-90274809D01*
X117473809Y-90274809D02*
X117402381Y-90251000D01*
X117402381Y-90251000D02*
X117354762Y-90203380D01*
X117354762Y-90203380D02*
X117330952Y-90155761D01*
X117330952Y-90155761D02*
X117307143Y-90060523D01*
X117307143Y-90060523D02*
X117307143Y-89989095D01*
X117307143Y-89989095D02*
X117330952Y-89893857D01*
X117330952Y-89893857D02*
X117354762Y-89846238D01*
X117354762Y-89846238D02*
X117402381Y-89798619D01*
X117402381Y-89798619D02*
X117473809Y-89774809D01*
X117473809Y-89774809D02*
X117521428Y-89774809D01*
X117521428Y-89774809D02*
X117592857Y-89798619D01*
X117592857Y-89798619D02*
X117616666Y-89822428D01*
X117783333Y-89774809D02*
X118092857Y-89774809D01*
X118092857Y-89774809D02*
X117926190Y-89965285D01*
X117926190Y-89965285D02*
X117997619Y-89965285D01*
X117997619Y-89965285D02*
X118045238Y-89989095D01*
X118045238Y-89989095D02*
X118069047Y-90012904D01*
X118069047Y-90012904D02*
X118092857Y-90060523D01*
X118092857Y-90060523D02*
X118092857Y-90179571D01*
X118092857Y-90179571D02*
X118069047Y-90227190D01*
X118069047Y-90227190D02*
X118045238Y-90251000D01*
X118045238Y-90251000D02*
X117997619Y-90274809D01*
X117997619Y-90274809D02*
X117854762Y-90274809D01*
X117854762Y-90274809D02*
X117807143Y-90251000D01*
X117807143Y-90251000D02*
X117783333Y-90227190D01*
X120891666Y-87727190D02*
X120867857Y-87751000D01*
X120867857Y-87751000D02*
X120796428Y-87774809D01*
X120796428Y-87774809D02*
X120748809Y-87774809D01*
X120748809Y-87774809D02*
X120677381Y-87751000D01*
X120677381Y-87751000D02*
X120629762Y-87703380D01*
X120629762Y-87703380D02*
X120605952Y-87655761D01*
X120605952Y-87655761D02*
X120582143Y-87560523D01*
X120582143Y-87560523D02*
X120582143Y-87489095D01*
X120582143Y-87489095D02*
X120605952Y-87393857D01*
X120605952Y-87393857D02*
X120629762Y-87346238D01*
X120629762Y-87346238D02*
X120677381Y-87298619D01*
X120677381Y-87298619D02*
X120748809Y-87274809D01*
X120748809Y-87274809D02*
X120796428Y-87274809D01*
X120796428Y-87274809D02*
X120867857Y-87298619D01*
X120867857Y-87298619D02*
X120891666Y-87322428D01*
X121367857Y-87774809D02*
X121082143Y-87774809D01*
X121225000Y-87774809D02*
X121225000Y-87274809D01*
X121225000Y-87274809D02*
X121177381Y-87346238D01*
X121177381Y-87346238D02*
X121129762Y-87393857D01*
X121129762Y-87393857D02*
X121082143Y-87417666D01*
X136328571Y-137027190D02*
X136304762Y-137051000D01*
X136304762Y-137051000D02*
X136233333Y-137074809D01*
X136233333Y-137074809D02*
X136185714Y-137074809D01*
X136185714Y-137074809D02*
X136114286Y-137051000D01*
X136114286Y-137051000D02*
X136066667Y-137003380D01*
X136066667Y-137003380D02*
X136042857Y-136955761D01*
X136042857Y-136955761D02*
X136019048Y-136860523D01*
X136019048Y-136860523D02*
X136019048Y-136789095D01*
X136019048Y-136789095D02*
X136042857Y-136693857D01*
X136042857Y-136693857D02*
X136066667Y-136646238D01*
X136066667Y-136646238D02*
X136114286Y-136598619D01*
X136114286Y-136598619D02*
X136185714Y-136574809D01*
X136185714Y-136574809D02*
X136233333Y-136574809D01*
X136233333Y-136574809D02*
X136304762Y-136598619D01*
X136304762Y-136598619D02*
X136328571Y-136622428D01*
X136804762Y-137074809D02*
X136519048Y-137074809D01*
X136661905Y-137074809D02*
X136661905Y-136574809D01*
X136661905Y-136574809D02*
X136614286Y-136646238D01*
X136614286Y-136646238D02*
X136566667Y-136693857D01*
X136566667Y-136693857D02*
X136519048Y-136717666D01*
X137233333Y-136741476D02*
X137233333Y-137074809D01*
X137114285Y-136551000D02*
X136995238Y-136908142D01*
X136995238Y-136908142D02*
X137304761Y-136908142D01*
X137828571Y-97974809D02*
X137661905Y-97736714D01*
X137542857Y-97974809D02*
X137542857Y-97474809D01*
X137542857Y-97474809D02*
X137733333Y-97474809D01*
X137733333Y-97474809D02*
X137780952Y-97498619D01*
X137780952Y-97498619D02*
X137804762Y-97522428D01*
X137804762Y-97522428D02*
X137828571Y-97570047D01*
X137828571Y-97570047D02*
X137828571Y-97641476D01*
X137828571Y-97641476D02*
X137804762Y-97689095D01*
X137804762Y-97689095D02*
X137780952Y-97712904D01*
X137780952Y-97712904D02*
X137733333Y-97736714D01*
X137733333Y-97736714D02*
X137542857Y-97736714D01*
X138304762Y-97974809D02*
X138019048Y-97974809D01*
X138161905Y-97974809D02*
X138161905Y-97474809D01*
X138161905Y-97474809D02*
X138114286Y-97546238D01*
X138114286Y-97546238D02*
X138066667Y-97593857D01*
X138066667Y-97593857D02*
X138019048Y-97617666D01*
X138495238Y-97522428D02*
X138519047Y-97498619D01*
X138519047Y-97498619D02*
X138566666Y-97474809D01*
X138566666Y-97474809D02*
X138685714Y-97474809D01*
X138685714Y-97474809D02*
X138733333Y-97498619D01*
X138733333Y-97498619D02*
X138757142Y-97522428D01*
X138757142Y-97522428D02*
X138780952Y-97570047D01*
X138780952Y-97570047D02*
X138780952Y-97617666D01*
X138780952Y-97617666D02*
X138757142Y-97689095D01*
X138757142Y-97689095D02*
X138471428Y-97974809D01*
X138471428Y-97974809D02*
X138780952Y-97974809D01*
D11*
X128788095Y-111624819D02*
X128788095Y-112434342D01*
X128788095Y-112434342D02*
X128835714Y-112529580D01*
X128835714Y-112529580D02*
X128883333Y-112577200D01*
X128883333Y-112577200D02*
X128978571Y-112624819D01*
X128978571Y-112624819D02*
X129169047Y-112624819D01*
X129169047Y-112624819D02*
X129264285Y-112577200D01*
X129264285Y-112577200D02*
X129311904Y-112529580D01*
X129311904Y-112529580D02*
X129359523Y-112434342D01*
X129359523Y-112434342D02*
X129359523Y-111624819D01*
X129788095Y-111720057D02*
X129835714Y-111672438D01*
X129835714Y-111672438D02*
X129930952Y-111624819D01*
X129930952Y-111624819D02*
X130169047Y-111624819D01*
X130169047Y-111624819D02*
X130264285Y-111672438D01*
X130264285Y-111672438D02*
X130311904Y-111720057D01*
X130311904Y-111720057D02*
X130359523Y-111815295D01*
X130359523Y-111815295D02*
X130359523Y-111910533D01*
X130359523Y-111910533D02*
X130311904Y-112053390D01*
X130311904Y-112053390D02*
X129740476Y-112624819D01*
X129740476Y-112624819D02*
X130359523Y-112624819D01*
D10*
X141978571Y-112424809D02*
X141811905Y-112186714D01*
X141692857Y-112424809D02*
X141692857Y-111924809D01*
X141692857Y-111924809D02*
X141883333Y-111924809D01*
X141883333Y-111924809D02*
X141930952Y-111948619D01*
X141930952Y-111948619D02*
X141954762Y-111972428D01*
X141954762Y-111972428D02*
X141978571Y-112020047D01*
X141978571Y-112020047D02*
X141978571Y-112091476D01*
X141978571Y-112091476D02*
X141954762Y-112139095D01*
X141954762Y-112139095D02*
X141930952Y-112162904D01*
X141930952Y-112162904D02*
X141883333Y-112186714D01*
X141883333Y-112186714D02*
X141692857Y-112186714D01*
X142454762Y-112424809D02*
X142169048Y-112424809D01*
X142311905Y-112424809D02*
X142311905Y-111924809D01*
X142311905Y-111924809D02*
X142264286Y-111996238D01*
X142264286Y-111996238D02*
X142216667Y-112043857D01*
X142216667Y-112043857D02*
X142169048Y-112067666D01*
X142883333Y-112091476D02*
X142883333Y-112424809D01*
X142764285Y-111901000D02*
X142645238Y-112258142D01*
X142645238Y-112258142D02*
X142954761Y-112258142D01*
X138066666Y-100477190D02*
X138042857Y-100501000D01*
X138042857Y-100501000D02*
X137971428Y-100524809D01*
X137971428Y-100524809D02*
X137923809Y-100524809D01*
X137923809Y-100524809D02*
X137852381Y-100501000D01*
X137852381Y-100501000D02*
X137804762Y-100453380D01*
X137804762Y-100453380D02*
X137780952Y-100405761D01*
X137780952Y-100405761D02*
X137757143Y-100310523D01*
X137757143Y-100310523D02*
X137757143Y-100239095D01*
X137757143Y-100239095D02*
X137780952Y-100143857D01*
X137780952Y-100143857D02*
X137804762Y-100096238D01*
X137804762Y-100096238D02*
X137852381Y-100048619D01*
X137852381Y-100048619D02*
X137923809Y-100024809D01*
X137923809Y-100024809D02*
X137971428Y-100024809D01*
X137971428Y-100024809D02*
X138042857Y-100048619D01*
X138042857Y-100048619D02*
X138066666Y-100072428D01*
X138233333Y-100024809D02*
X138566666Y-100024809D01*
X138566666Y-100024809D02*
X138352381Y-100524809D01*
X141078571Y-95474809D02*
X140911905Y-95236714D01*
X140792857Y-95474809D02*
X140792857Y-94974809D01*
X140792857Y-94974809D02*
X140983333Y-94974809D01*
X140983333Y-94974809D02*
X141030952Y-94998619D01*
X141030952Y-94998619D02*
X141054762Y-95022428D01*
X141054762Y-95022428D02*
X141078571Y-95070047D01*
X141078571Y-95070047D02*
X141078571Y-95141476D01*
X141078571Y-95141476D02*
X141054762Y-95189095D01*
X141054762Y-95189095D02*
X141030952Y-95212904D01*
X141030952Y-95212904D02*
X140983333Y-95236714D01*
X140983333Y-95236714D02*
X140792857Y-95236714D01*
X141554762Y-95474809D02*
X141269048Y-95474809D01*
X141411905Y-95474809D02*
X141411905Y-94974809D01*
X141411905Y-94974809D02*
X141364286Y-95046238D01*
X141364286Y-95046238D02*
X141316667Y-95093857D01*
X141316667Y-95093857D02*
X141269048Y-95117666D01*
X141864285Y-94974809D02*
X141911904Y-94974809D01*
X141911904Y-94974809D02*
X141959523Y-94998619D01*
X141959523Y-94998619D02*
X141983333Y-95022428D01*
X141983333Y-95022428D02*
X142007142Y-95070047D01*
X142007142Y-95070047D02*
X142030952Y-95165285D01*
X142030952Y-95165285D02*
X142030952Y-95284333D01*
X142030952Y-95284333D02*
X142007142Y-95379571D01*
X142007142Y-95379571D02*
X141983333Y-95427190D01*
X141983333Y-95427190D02*
X141959523Y-95451000D01*
X141959523Y-95451000D02*
X141911904Y-95474809D01*
X141911904Y-95474809D02*
X141864285Y-95474809D01*
X141864285Y-95474809D02*
X141816666Y-95451000D01*
X141816666Y-95451000D02*
X141792857Y-95427190D01*
X141792857Y-95427190D02*
X141769047Y-95379571D01*
X141769047Y-95379571D02*
X141745238Y-95284333D01*
X141745238Y-95284333D02*
X141745238Y-95165285D01*
X141745238Y-95165285D02*
X141769047Y-95070047D01*
X141769047Y-95070047D02*
X141792857Y-95022428D01*
X141792857Y-95022428D02*
X141816666Y-94998619D01*
X141816666Y-94998619D02*
X141864285Y-94974809D01*
X121966666Y-117627190D02*
X121942857Y-117651000D01*
X121942857Y-117651000D02*
X121871428Y-117674809D01*
X121871428Y-117674809D02*
X121823809Y-117674809D01*
X121823809Y-117674809D02*
X121752381Y-117651000D01*
X121752381Y-117651000D02*
X121704762Y-117603380D01*
X121704762Y-117603380D02*
X121680952Y-117555761D01*
X121680952Y-117555761D02*
X121657143Y-117460523D01*
X121657143Y-117460523D02*
X121657143Y-117389095D01*
X121657143Y-117389095D02*
X121680952Y-117293857D01*
X121680952Y-117293857D02*
X121704762Y-117246238D01*
X121704762Y-117246238D02*
X121752381Y-117198619D01*
X121752381Y-117198619D02*
X121823809Y-117174809D01*
X121823809Y-117174809D02*
X121871428Y-117174809D01*
X121871428Y-117174809D02*
X121942857Y-117198619D01*
X121942857Y-117198619D02*
X121966666Y-117222428D01*
X122204762Y-117674809D02*
X122300000Y-117674809D01*
X122300000Y-117674809D02*
X122347619Y-117651000D01*
X122347619Y-117651000D02*
X122371428Y-117627190D01*
X122371428Y-117627190D02*
X122419047Y-117555761D01*
X122419047Y-117555761D02*
X122442857Y-117460523D01*
X122442857Y-117460523D02*
X122442857Y-117270047D01*
X122442857Y-117270047D02*
X122419047Y-117222428D01*
X122419047Y-117222428D02*
X122395238Y-117198619D01*
X122395238Y-117198619D02*
X122347619Y-117174809D01*
X122347619Y-117174809D02*
X122252381Y-117174809D01*
X122252381Y-117174809D02*
X122204762Y-117198619D01*
X122204762Y-117198619D02*
X122180952Y-117222428D01*
X122180952Y-117222428D02*
X122157143Y-117270047D01*
X122157143Y-117270047D02*
X122157143Y-117389095D01*
X122157143Y-117389095D02*
X122180952Y-117436714D01*
X122180952Y-117436714D02*
X122204762Y-117460523D01*
X122204762Y-117460523D02*
X122252381Y-117484333D01*
X122252381Y-117484333D02*
X122347619Y-117484333D01*
X122347619Y-117484333D02*
X122395238Y-117460523D01*
X122395238Y-117460523D02*
X122419047Y-117436714D01*
X122419047Y-117436714D02*
X122442857Y-117389095D01*
X136978571Y-121184809D02*
X136811905Y-120946714D01*
X136692857Y-121184809D02*
X136692857Y-120684809D01*
X136692857Y-120684809D02*
X136883333Y-120684809D01*
X136883333Y-120684809D02*
X136930952Y-120708619D01*
X136930952Y-120708619D02*
X136954762Y-120732428D01*
X136954762Y-120732428D02*
X136978571Y-120780047D01*
X136978571Y-120780047D02*
X136978571Y-120851476D01*
X136978571Y-120851476D02*
X136954762Y-120899095D01*
X136954762Y-120899095D02*
X136930952Y-120922904D01*
X136930952Y-120922904D02*
X136883333Y-120946714D01*
X136883333Y-120946714D02*
X136692857Y-120946714D01*
X137145238Y-120684809D02*
X137454762Y-120684809D01*
X137454762Y-120684809D02*
X137288095Y-120875285D01*
X137288095Y-120875285D02*
X137359524Y-120875285D01*
X137359524Y-120875285D02*
X137407143Y-120899095D01*
X137407143Y-120899095D02*
X137430952Y-120922904D01*
X137430952Y-120922904D02*
X137454762Y-120970523D01*
X137454762Y-120970523D02*
X137454762Y-121089571D01*
X137454762Y-121089571D02*
X137430952Y-121137190D01*
X137430952Y-121137190D02*
X137407143Y-121161000D01*
X137407143Y-121161000D02*
X137359524Y-121184809D01*
X137359524Y-121184809D02*
X137216667Y-121184809D01*
X137216667Y-121184809D02*
X137169048Y-121161000D01*
X137169048Y-121161000D02*
X137145238Y-121137190D01*
X137764285Y-120684809D02*
X137811904Y-120684809D01*
X137811904Y-120684809D02*
X137859523Y-120708619D01*
X137859523Y-120708619D02*
X137883333Y-120732428D01*
X137883333Y-120732428D02*
X137907142Y-120780047D01*
X137907142Y-120780047D02*
X137930952Y-120875285D01*
X137930952Y-120875285D02*
X137930952Y-120994333D01*
X137930952Y-120994333D02*
X137907142Y-121089571D01*
X137907142Y-121089571D02*
X137883333Y-121137190D01*
X137883333Y-121137190D02*
X137859523Y-121161000D01*
X137859523Y-121161000D02*
X137811904Y-121184809D01*
X137811904Y-121184809D02*
X137764285Y-121184809D01*
X137764285Y-121184809D02*
X137716666Y-121161000D01*
X137716666Y-121161000D02*
X137692857Y-121137190D01*
X137692857Y-121137190D02*
X137669047Y-121089571D01*
X137669047Y-121089571D02*
X137645238Y-120994333D01*
X137645238Y-120994333D02*
X137645238Y-120875285D01*
X137645238Y-120875285D02*
X137669047Y-120780047D01*
X137669047Y-120780047D02*
X137692857Y-120732428D01*
X137692857Y-120732428D02*
X137716666Y-120708619D01*
X137716666Y-120708619D02*
X137764285Y-120684809D01*
X117616666Y-97927190D02*
X117592857Y-97951000D01*
X117592857Y-97951000D02*
X117521428Y-97974809D01*
X117521428Y-97974809D02*
X117473809Y-97974809D01*
X117473809Y-97974809D02*
X117402381Y-97951000D01*
X117402381Y-97951000D02*
X117354762Y-97903380D01*
X117354762Y-97903380D02*
X117330952Y-97855761D01*
X117330952Y-97855761D02*
X117307143Y-97760523D01*
X117307143Y-97760523D02*
X117307143Y-97689095D01*
X117307143Y-97689095D02*
X117330952Y-97593857D01*
X117330952Y-97593857D02*
X117354762Y-97546238D01*
X117354762Y-97546238D02*
X117402381Y-97498619D01*
X117402381Y-97498619D02*
X117473809Y-97474809D01*
X117473809Y-97474809D02*
X117521428Y-97474809D01*
X117521428Y-97474809D02*
X117592857Y-97498619D01*
X117592857Y-97498619D02*
X117616666Y-97522428D01*
X118045238Y-97474809D02*
X117950000Y-97474809D01*
X117950000Y-97474809D02*
X117902381Y-97498619D01*
X117902381Y-97498619D02*
X117878571Y-97522428D01*
X117878571Y-97522428D02*
X117830952Y-97593857D01*
X117830952Y-97593857D02*
X117807143Y-97689095D01*
X117807143Y-97689095D02*
X117807143Y-97879571D01*
X117807143Y-97879571D02*
X117830952Y-97927190D01*
X117830952Y-97927190D02*
X117854762Y-97951000D01*
X117854762Y-97951000D02*
X117902381Y-97974809D01*
X117902381Y-97974809D02*
X117997619Y-97974809D01*
X117997619Y-97974809D02*
X118045238Y-97951000D01*
X118045238Y-97951000D02*
X118069047Y-97927190D01*
X118069047Y-97927190D02*
X118092857Y-97879571D01*
X118092857Y-97879571D02*
X118092857Y-97760523D01*
X118092857Y-97760523D02*
X118069047Y-97712904D01*
X118069047Y-97712904D02*
X118045238Y-97689095D01*
X118045238Y-97689095D02*
X117997619Y-97665285D01*
X117997619Y-97665285D02*
X117902381Y-97665285D01*
X117902381Y-97665285D02*
X117854762Y-97689095D01*
X117854762Y-97689095D02*
X117830952Y-97712904D01*
X117830952Y-97712904D02*
X117807143Y-97760523D01*
D11*
X111040476Y-105314819D02*
X111040476Y-106029104D01*
X111040476Y-106029104D02*
X110992857Y-106171961D01*
X110992857Y-106171961D02*
X110897619Y-106267200D01*
X110897619Y-106267200D02*
X110754762Y-106314819D01*
X110754762Y-106314819D02*
X110659524Y-106314819D01*
X112040476Y-106314819D02*
X111469048Y-106314819D01*
X111754762Y-106314819D02*
X111754762Y-105314819D01*
X111754762Y-105314819D02*
X111659524Y-105457676D01*
X111659524Y-105457676D02*
X111564286Y-105552914D01*
X111564286Y-105552914D02*
X111469048Y-105600533D01*
X112992857Y-106314819D02*
X112421429Y-106314819D01*
X112707143Y-106314819D02*
X112707143Y-105314819D01*
X112707143Y-105314819D02*
X112611905Y-105457676D01*
X112611905Y-105457676D02*
X112516667Y-105552914D01*
X112516667Y-105552914D02*
X112421429Y-105600533D01*
D10*
X136978571Y-117617190D02*
X136954762Y-117641000D01*
X136954762Y-117641000D02*
X136883333Y-117664809D01*
X136883333Y-117664809D02*
X136835714Y-117664809D01*
X136835714Y-117664809D02*
X136764286Y-117641000D01*
X136764286Y-117641000D02*
X136716667Y-117593380D01*
X136716667Y-117593380D02*
X136692857Y-117545761D01*
X136692857Y-117545761D02*
X136669048Y-117450523D01*
X136669048Y-117450523D02*
X136669048Y-117379095D01*
X136669048Y-117379095D02*
X136692857Y-117283857D01*
X136692857Y-117283857D02*
X136716667Y-117236238D01*
X136716667Y-117236238D02*
X136764286Y-117188619D01*
X136764286Y-117188619D02*
X136835714Y-117164809D01*
X136835714Y-117164809D02*
X136883333Y-117164809D01*
X136883333Y-117164809D02*
X136954762Y-117188619D01*
X136954762Y-117188619D02*
X136978571Y-117212428D01*
X137454762Y-117664809D02*
X137169048Y-117664809D01*
X137311905Y-117664809D02*
X137311905Y-117164809D01*
X137311905Y-117164809D02*
X137264286Y-117236238D01*
X137264286Y-117236238D02*
X137216667Y-117283857D01*
X137216667Y-117283857D02*
X137169048Y-117307666D01*
X137645238Y-117212428D02*
X137669047Y-117188619D01*
X137669047Y-117188619D02*
X137716666Y-117164809D01*
X137716666Y-117164809D02*
X137835714Y-117164809D01*
X137835714Y-117164809D02*
X137883333Y-117188619D01*
X137883333Y-117188619D02*
X137907142Y-117212428D01*
X137907142Y-117212428D02*
X137930952Y-117260047D01*
X137930952Y-117260047D02*
X137930952Y-117307666D01*
X137930952Y-117307666D02*
X137907142Y-117379095D01*
X137907142Y-117379095D02*
X137621428Y-117664809D01*
X137621428Y-117664809D02*
X137930952Y-117664809D01*
X137828571Y-95474809D02*
X137661905Y-95236714D01*
X137542857Y-95474809D02*
X137542857Y-94974809D01*
X137542857Y-94974809D02*
X137733333Y-94974809D01*
X137733333Y-94974809D02*
X137780952Y-94998619D01*
X137780952Y-94998619D02*
X137804762Y-95022428D01*
X137804762Y-95022428D02*
X137828571Y-95070047D01*
X137828571Y-95070047D02*
X137828571Y-95141476D01*
X137828571Y-95141476D02*
X137804762Y-95189095D01*
X137804762Y-95189095D02*
X137780952Y-95212904D01*
X137780952Y-95212904D02*
X137733333Y-95236714D01*
X137733333Y-95236714D02*
X137542857Y-95236714D01*
X138304762Y-95474809D02*
X138019048Y-95474809D01*
X138161905Y-95474809D02*
X138161905Y-94974809D01*
X138161905Y-94974809D02*
X138114286Y-95046238D01*
X138114286Y-95046238D02*
X138066667Y-95093857D01*
X138066667Y-95093857D02*
X138019048Y-95117666D01*
X138471428Y-94974809D02*
X138780952Y-94974809D01*
X138780952Y-94974809D02*
X138614285Y-95165285D01*
X138614285Y-95165285D02*
X138685714Y-95165285D01*
X138685714Y-95165285D02*
X138733333Y-95189095D01*
X138733333Y-95189095D02*
X138757142Y-95212904D01*
X138757142Y-95212904D02*
X138780952Y-95260523D01*
X138780952Y-95260523D02*
X138780952Y-95379571D01*
X138780952Y-95379571D02*
X138757142Y-95427190D01*
X138757142Y-95427190D02*
X138733333Y-95451000D01*
X138733333Y-95451000D02*
X138685714Y-95474809D01*
X138685714Y-95474809D02*
X138542857Y-95474809D01*
X138542857Y-95474809D02*
X138495238Y-95451000D01*
X138495238Y-95451000D02*
X138471428Y-95427190D01*
X121478571Y-114174809D02*
X121311905Y-113936714D01*
X121192857Y-114174809D02*
X121192857Y-113674809D01*
X121192857Y-113674809D02*
X121383333Y-113674809D01*
X121383333Y-113674809D02*
X121430952Y-113698619D01*
X121430952Y-113698619D02*
X121454762Y-113722428D01*
X121454762Y-113722428D02*
X121478571Y-113770047D01*
X121478571Y-113770047D02*
X121478571Y-113841476D01*
X121478571Y-113841476D02*
X121454762Y-113889095D01*
X121454762Y-113889095D02*
X121430952Y-113912904D01*
X121430952Y-113912904D02*
X121383333Y-113936714D01*
X121383333Y-113936714D02*
X121192857Y-113936714D01*
X121645238Y-113674809D02*
X121954762Y-113674809D01*
X121954762Y-113674809D02*
X121788095Y-113865285D01*
X121788095Y-113865285D02*
X121859524Y-113865285D01*
X121859524Y-113865285D02*
X121907143Y-113889095D01*
X121907143Y-113889095D02*
X121930952Y-113912904D01*
X121930952Y-113912904D02*
X121954762Y-113960523D01*
X121954762Y-113960523D02*
X121954762Y-114079571D01*
X121954762Y-114079571D02*
X121930952Y-114127190D01*
X121930952Y-114127190D02*
X121907143Y-114151000D01*
X121907143Y-114151000D02*
X121859524Y-114174809D01*
X121859524Y-114174809D02*
X121716667Y-114174809D01*
X121716667Y-114174809D02*
X121669048Y-114151000D01*
X121669048Y-114151000D02*
X121645238Y-114127190D01*
X122121428Y-113674809D02*
X122454761Y-113674809D01*
X122454761Y-113674809D02*
X122240476Y-114174809D01*
X113428571Y-123249809D02*
X113261905Y-123011714D01*
X113142857Y-123249809D02*
X113142857Y-122749809D01*
X113142857Y-122749809D02*
X113333333Y-122749809D01*
X113333333Y-122749809D02*
X113380952Y-122773619D01*
X113380952Y-122773619D02*
X113404762Y-122797428D01*
X113404762Y-122797428D02*
X113428571Y-122845047D01*
X113428571Y-122845047D02*
X113428571Y-122916476D01*
X113428571Y-122916476D02*
X113404762Y-122964095D01*
X113404762Y-122964095D02*
X113380952Y-122987904D01*
X113380952Y-122987904D02*
X113333333Y-123011714D01*
X113333333Y-123011714D02*
X113142857Y-123011714D01*
X113619048Y-122797428D02*
X113642857Y-122773619D01*
X113642857Y-122773619D02*
X113690476Y-122749809D01*
X113690476Y-122749809D02*
X113809524Y-122749809D01*
X113809524Y-122749809D02*
X113857143Y-122773619D01*
X113857143Y-122773619D02*
X113880952Y-122797428D01*
X113880952Y-122797428D02*
X113904762Y-122845047D01*
X113904762Y-122845047D02*
X113904762Y-122892666D01*
X113904762Y-122892666D02*
X113880952Y-122964095D01*
X113880952Y-122964095D02*
X113595238Y-123249809D01*
X113595238Y-123249809D02*
X113904762Y-123249809D01*
X114190476Y-122964095D02*
X114142857Y-122940285D01*
X114142857Y-122940285D02*
X114119047Y-122916476D01*
X114119047Y-122916476D02*
X114095238Y-122868857D01*
X114095238Y-122868857D02*
X114095238Y-122845047D01*
X114095238Y-122845047D02*
X114119047Y-122797428D01*
X114119047Y-122797428D02*
X114142857Y-122773619D01*
X114142857Y-122773619D02*
X114190476Y-122749809D01*
X114190476Y-122749809D02*
X114285714Y-122749809D01*
X114285714Y-122749809D02*
X114333333Y-122773619D01*
X114333333Y-122773619D02*
X114357142Y-122797428D01*
X114357142Y-122797428D02*
X114380952Y-122845047D01*
X114380952Y-122845047D02*
X114380952Y-122868857D01*
X114380952Y-122868857D02*
X114357142Y-122916476D01*
X114357142Y-122916476D02*
X114333333Y-122940285D01*
X114333333Y-122940285D02*
X114285714Y-122964095D01*
X114285714Y-122964095D02*
X114190476Y-122964095D01*
X114190476Y-122964095D02*
X114142857Y-122987904D01*
X114142857Y-122987904D02*
X114119047Y-123011714D01*
X114119047Y-123011714D02*
X114095238Y-123059333D01*
X114095238Y-123059333D02*
X114095238Y-123154571D01*
X114095238Y-123154571D02*
X114119047Y-123202190D01*
X114119047Y-123202190D02*
X114142857Y-123226000D01*
X114142857Y-123226000D02*
X114190476Y-123249809D01*
X114190476Y-123249809D02*
X114285714Y-123249809D01*
X114285714Y-123249809D02*
X114333333Y-123226000D01*
X114333333Y-123226000D02*
X114357142Y-123202190D01*
X114357142Y-123202190D02*
X114380952Y-123154571D01*
X114380952Y-123154571D02*
X114380952Y-123059333D01*
X114380952Y-123059333D02*
X114357142Y-123011714D01*
X114357142Y-123011714D02*
X114333333Y-122987904D01*
X114333333Y-122987904D02*
X114285714Y-122964095D01*
X118678571Y-123299809D02*
X118511905Y-123061714D01*
X118392857Y-123299809D02*
X118392857Y-122799809D01*
X118392857Y-122799809D02*
X118583333Y-122799809D01*
X118583333Y-122799809D02*
X118630952Y-122823619D01*
X118630952Y-122823619D02*
X118654762Y-122847428D01*
X118654762Y-122847428D02*
X118678571Y-122895047D01*
X118678571Y-122895047D02*
X118678571Y-122966476D01*
X118678571Y-122966476D02*
X118654762Y-123014095D01*
X118654762Y-123014095D02*
X118630952Y-123037904D01*
X118630952Y-123037904D02*
X118583333Y-123061714D01*
X118583333Y-123061714D02*
X118392857Y-123061714D01*
X118869048Y-122847428D02*
X118892857Y-122823619D01*
X118892857Y-122823619D02*
X118940476Y-122799809D01*
X118940476Y-122799809D02*
X119059524Y-122799809D01*
X119059524Y-122799809D02*
X119107143Y-122823619D01*
X119107143Y-122823619D02*
X119130952Y-122847428D01*
X119130952Y-122847428D02*
X119154762Y-122895047D01*
X119154762Y-122895047D02*
X119154762Y-122942666D01*
X119154762Y-122942666D02*
X119130952Y-123014095D01*
X119130952Y-123014095D02*
X118845238Y-123299809D01*
X118845238Y-123299809D02*
X119154762Y-123299809D01*
X119321428Y-122799809D02*
X119630952Y-122799809D01*
X119630952Y-122799809D02*
X119464285Y-122990285D01*
X119464285Y-122990285D02*
X119535714Y-122990285D01*
X119535714Y-122990285D02*
X119583333Y-123014095D01*
X119583333Y-123014095D02*
X119607142Y-123037904D01*
X119607142Y-123037904D02*
X119630952Y-123085523D01*
X119630952Y-123085523D02*
X119630952Y-123204571D01*
X119630952Y-123204571D02*
X119607142Y-123252190D01*
X119607142Y-123252190D02*
X119583333Y-123276000D01*
X119583333Y-123276000D02*
X119535714Y-123299809D01*
X119535714Y-123299809D02*
X119392857Y-123299809D01*
X119392857Y-123299809D02*
X119345238Y-123276000D01*
X119345238Y-123276000D02*
X119321428Y-123252190D01*
X141978571Y-119474809D02*
X141811905Y-119236714D01*
X141692857Y-119474809D02*
X141692857Y-118974809D01*
X141692857Y-118974809D02*
X141883333Y-118974809D01*
X141883333Y-118974809D02*
X141930952Y-118998619D01*
X141930952Y-118998619D02*
X141954762Y-119022428D01*
X141954762Y-119022428D02*
X141978571Y-119070047D01*
X141978571Y-119070047D02*
X141978571Y-119141476D01*
X141978571Y-119141476D02*
X141954762Y-119189095D01*
X141954762Y-119189095D02*
X141930952Y-119212904D01*
X141930952Y-119212904D02*
X141883333Y-119236714D01*
X141883333Y-119236714D02*
X141692857Y-119236714D01*
X142169048Y-119022428D02*
X142192857Y-118998619D01*
X142192857Y-118998619D02*
X142240476Y-118974809D01*
X142240476Y-118974809D02*
X142359524Y-118974809D01*
X142359524Y-118974809D02*
X142407143Y-118998619D01*
X142407143Y-118998619D02*
X142430952Y-119022428D01*
X142430952Y-119022428D02*
X142454762Y-119070047D01*
X142454762Y-119070047D02*
X142454762Y-119117666D01*
X142454762Y-119117666D02*
X142430952Y-119189095D01*
X142430952Y-119189095D02*
X142145238Y-119474809D01*
X142145238Y-119474809D02*
X142454762Y-119474809D01*
X142692857Y-119474809D02*
X142788095Y-119474809D01*
X142788095Y-119474809D02*
X142835714Y-119451000D01*
X142835714Y-119451000D02*
X142859523Y-119427190D01*
X142859523Y-119427190D02*
X142907142Y-119355761D01*
X142907142Y-119355761D02*
X142930952Y-119260523D01*
X142930952Y-119260523D02*
X142930952Y-119070047D01*
X142930952Y-119070047D02*
X142907142Y-119022428D01*
X142907142Y-119022428D02*
X142883333Y-118998619D01*
X142883333Y-118998619D02*
X142835714Y-118974809D01*
X142835714Y-118974809D02*
X142740476Y-118974809D01*
X142740476Y-118974809D02*
X142692857Y-118998619D01*
X142692857Y-118998619D02*
X142669047Y-119022428D01*
X142669047Y-119022428D02*
X142645238Y-119070047D01*
X142645238Y-119070047D02*
X142645238Y-119189095D01*
X142645238Y-119189095D02*
X142669047Y-119236714D01*
X142669047Y-119236714D02*
X142692857Y-119260523D01*
X142692857Y-119260523D02*
X142740476Y-119284333D01*
X142740476Y-119284333D02*
X142835714Y-119284333D01*
X142835714Y-119284333D02*
X142883333Y-119260523D01*
X142883333Y-119260523D02*
X142907142Y-119236714D01*
X142907142Y-119236714D02*
X142930952Y-119189095D01*
X138066666Y-87724809D02*
X137900000Y-87486714D01*
X137780952Y-87724809D02*
X137780952Y-87224809D01*
X137780952Y-87224809D02*
X137971428Y-87224809D01*
X137971428Y-87224809D02*
X138019047Y-87248619D01*
X138019047Y-87248619D02*
X138042857Y-87272428D01*
X138042857Y-87272428D02*
X138066666Y-87320047D01*
X138066666Y-87320047D02*
X138066666Y-87391476D01*
X138066666Y-87391476D02*
X138042857Y-87439095D01*
X138042857Y-87439095D02*
X138019047Y-87462904D01*
X138019047Y-87462904D02*
X137971428Y-87486714D01*
X137971428Y-87486714D02*
X137780952Y-87486714D01*
X138542857Y-87724809D02*
X138257143Y-87724809D01*
X138400000Y-87724809D02*
X138400000Y-87224809D01*
X138400000Y-87224809D02*
X138352381Y-87296238D01*
X138352381Y-87296238D02*
X138304762Y-87343857D01*
X138304762Y-87343857D02*
X138257143Y-87367666D01*
X137016666Y-112377190D02*
X136992857Y-112401000D01*
X136992857Y-112401000D02*
X136921428Y-112424809D01*
X136921428Y-112424809D02*
X136873809Y-112424809D01*
X136873809Y-112424809D02*
X136802381Y-112401000D01*
X136802381Y-112401000D02*
X136754762Y-112353380D01*
X136754762Y-112353380D02*
X136730952Y-112305761D01*
X136730952Y-112305761D02*
X136707143Y-112210523D01*
X136707143Y-112210523D02*
X136707143Y-112139095D01*
X136707143Y-112139095D02*
X136730952Y-112043857D01*
X136730952Y-112043857D02*
X136754762Y-111996238D01*
X136754762Y-111996238D02*
X136802381Y-111948619D01*
X136802381Y-111948619D02*
X136873809Y-111924809D01*
X136873809Y-111924809D02*
X136921428Y-111924809D01*
X136921428Y-111924809D02*
X136992857Y-111948619D01*
X136992857Y-111948619D02*
X137016666Y-111972428D01*
X137302381Y-112139095D02*
X137254762Y-112115285D01*
X137254762Y-112115285D02*
X137230952Y-112091476D01*
X137230952Y-112091476D02*
X137207143Y-112043857D01*
X137207143Y-112043857D02*
X137207143Y-112020047D01*
X137207143Y-112020047D02*
X137230952Y-111972428D01*
X137230952Y-111972428D02*
X137254762Y-111948619D01*
X137254762Y-111948619D02*
X137302381Y-111924809D01*
X137302381Y-111924809D02*
X137397619Y-111924809D01*
X137397619Y-111924809D02*
X137445238Y-111948619D01*
X137445238Y-111948619D02*
X137469047Y-111972428D01*
X137469047Y-111972428D02*
X137492857Y-112020047D01*
X137492857Y-112020047D02*
X137492857Y-112043857D01*
X137492857Y-112043857D02*
X137469047Y-112091476D01*
X137469047Y-112091476D02*
X137445238Y-112115285D01*
X137445238Y-112115285D02*
X137397619Y-112139095D01*
X137397619Y-112139095D02*
X137302381Y-112139095D01*
X137302381Y-112139095D02*
X137254762Y-112162904D01*
X137254762Y-112162904D02*
X137230952Y-112186714D01*
X137230952Y-112186714D02*
X137207143Y-112234333D01*
X137207143Y-112234333D02*
X137207143Y-112329571D01*
X137207143Y-112329571D02*
X137230952Y-112377190D01*
X137230952Y-112377190D02*
X137254762Y-112401000D01*
X137254762Y-112401000D02*
X137302381Y-112424809D01*
X137302381Y-112424809D02*
X137397619Y-112424809D01*
X137397619Y-112424809D02*
X137445238Y-112401000D01*
X137445238Y-112401000D02*
X137469047Y-112377190D01*
X137469047Y-112377190D02*
X137492857Y-112329571D01*
X137492857Y-112329571D02*
X137492857Y-112234333D01*
X137492857Y-112234333D02*
X137469047Y-112186714D01*
X137469047Y-112186714D02*
X137445238Y-112162904D01*
X137445238Y-112162904D02*
X137397619Y-112139095D01*
X137828571Y-103024809D02*
X137661905Y-102786714D01*
X137542857Y-103024809D02*
X137542857Y-102524809D01*
X137542857Y-102524809D02*
X137733333Y-102524809D01*
X137733333Y-102524809D02*
X137780952Y-102548619D01*
X137780952Y-102548619D02*
X137804762Y-102572428D01*
X137804762Y-102572428D02*
X137828571Y-102620047D01*
X137828571Y-102620047D02*
X137828571Y-102691476D01*
X137828571Y-102691476D02*
X137804762Y-102739095D01*
X137804762Y-102739095D02*
X137780952Y-102762904D01*
X137780952Y-102762904D02*
X137733333Y-102786714D01*
X137733333Y-102786714D02*
X137542857Y-102786714D01*
X137995238Y-102524809D02*
X138304762Y-102524809D01*
X138304762Y-102524809D02*
X138138095Y-102715285D01*
X138138095Y-102715285D02*
X138209524Y-102715285D01*
X138209524Y-102715285D02*
X138257143Y-102739095D01*
X138257143Y-102739095D02*
X138280952Y-102762904D01*
X138280952Y-102762904D02*
X138304762Y-102810523D01*
X138304762Y-102810523D02*
X138304762Y-102929571D01*
X138304762Y-102929571D02*
X138280952Y-102977190D01*
X138280952Y-102977190D02*
X138257143Y-103001000D01*
X138257143Y-103001000D02*
X138209524Y-103024809D01*
X138209524Y-103024809D02*
X138066667Y-103024809D01*
X138066667Y-103024809D02*
X138019048Y-103001000D01*
X138019048Y-103001000D02*
X137995238Y-102977190D01*
X138733333Y-102691476D02*
X138733333Y-103024809D01*
X138614285Y-102501000D02*
X138495238Y-102858142D01*
X138495238Y-102858142D02*
X138804761Y-102858142D01*
X115178571Y-123249809D02*
X115011905Y-123011714D01*
X114892857Y-123249809D02*
X114892857Y-122749809D01*
X114892857Y-122749809D02*
X115083333Y-122749809D01*
X115083333Y-122749809D02*
X115130952Y-122773619D01*
X115130952Y-122773619D02*
X115154762Y-122797428D01*
X115154762Y-122797428D02*
X115178571Y-122845047D01*
X115178571Y-122845047D02*
X115178571Y-122916476D01*
X115178571Y-122916476D02*
X115154762Y-122964095D01*
X115154762Y-122964095D02*
X115130952Y-122987904D01*
X115130952Y-122987904D02*
X115083333Y-123011714D01*
X115083333Y-123011714D02*
X114892857Y-123011714D01*
X115345238Y-122749809D02*
X115654762Y-122749809D01*
X115654762Y-122749809D02*
X115488095Y-122940285D01*
X115488095Y-122940285D02*
X115559524Y-122940285D01*
X115559524Y-122940285D02*
X115607143Y-122964095D01*
X115607143Y-122964095D02*
X115630952Y-122987904D01*
X115630952Y-122987904D02*
X115654762Y-123035523D01*
X115654762Y-123035523D02*
X115654762Y-123154571D01*
X115654762Y-123154571D02*
X115630952Y-123202190D01*
X115630952Y-123202190D02*
X115607143Y-123226000D01*
X115607143Y-123226000D02*
X115559524Y-123249809D01*
X115559524Y-123249809D02*
X115416667Y-123249809D01*
X115416667Y-123249809D02*
X115369048Y-123226000D01*
X115369048Y-123226000D02*
X115345238Y-123202190D01*
X116130952Y-123249809D02*
X115845238Y-123249809D01*
X115988095Y-123249809D02*
X115988095Y-122749809D01*
X115988095Y-122749809D02*
X115940476Y-122821238D01*
X115940476Y-122821238D02*
X115892857Y-122868857D01*
X115892857Y-122868857D02*
X115845238Y-122892666D01*
X116478571Y-114174809D02*
X116311905Y-113936714D01*
X116192857Y-114174809D02*
X116192857Y-113674809D01*
X116192857Y-113674809D02*
X116383333Y-113674809D01*
X116383333Y-113674809D02*
X116430952Y-113698619D01*
X116430952Y-113698619D02*
X116454762Y-113722428D01*
X116454762Y-113722428D02*
X116478571Y-113770047D01*
X116478571Y-113770047D02*
X116478571Y-113841476D01*
X116478571Y-113841476D02*
X116454762Y-113889095D01*
X116454762Y-113889095D02*
X116430952Y-113912904D01*
X116430952Y-113912904D02*
X116383333Y-113936714D01*
X116383333Y-113936714D02*
X116192857Y-113936714D01*
X116645238Y-113674809D02*
X116954762Y-113674809D01*
X116954762Y-113674809D02*
X116788095Y-113865285D01*
X116788095Y-113865285D02*
X116859524Y-113865285D01*
X116859524Y-113865285D02*
X116907143Y-113889095D01*
X116907143Y-113889095D02*
X116930952Y-113912904D01*
X116930952Y-113912904D02*
X116954762Y-113960523D01*
X116954762Y-113960523D02*
X116954762Y-114079571D01*
X116954762Y-114079571D02*
X116930952Y-114127190D01*
X116930952Y-114127190D02*
X116907143Y-114151000D01*
X116907143Y-114151000D02*
X116859524Y-114174809D01*
X116859524Y-114174809D02*
X116716667Y-114174809D01*
X116716667Y-114174809D02*
X116669048Y-114151000D01*
X116669048Y-114151000D02*
X116645238Y-114127190D01*
X117121428Y-113674809D02*
X117430952Y-113674809D01*
X117430952Y-113674809D02*
X117264285Y-113865285D01*
X117264285Y-113865285D02*
X117335714Y-113865285D01*
X117335714Y-113865285D02*
X117383333Y-113889095D01*
X117383333Y-113889095D02*
X117407142Y-113912904D01*
X117407142Y-113912904D02*
X117430952Y-113960523D01*
X117430952Y-113960523D02*
X117430952Y-114079571D01*
X117430952Y-114079571D02*
X117407142Y-114127190D01*
X117407142Y-114127190D02*
X117383333Y-114151000D01*
X117383333Y-114151000D02*
X117335714Y-114174809D01*
X117335714Y-114174809D02*
X117192857Y-114174809D01*
X117192857Y-114174809D02*
X117145238Y-114151000D01*
X117145238Y-114151000D02*
X117121428Y-114127190D01*
D11*
X146490476Y-125834819D02*
X146490476Y-126549104D01*
X146490476Y-126549104D02*
X146442857Y-126691961D01*
X146442857Y-126691961D02*
X146347619Y-126787200D01*
X146347619Y-126787200D02*
X146204762Y-126834819D01*
X146204762Y-126834819D02*
X146109524Y-126834819D01*
X147490476Y-126834819D02*
X146919048Y-126834819D01*
X147204762Y-126834819D02*
X147204762Y-125834819D01*
X147204762Y-125834819D02*
X147109524Y-125977676D01*
X147109524Y-125977676D02*
X147014286Y-126072914D01*
X147014286Y-126072914D02*
X146919048Y-126120533D01*
X147871429Y-125930057D02*
X147919048Y-125882438D01*
X147919048Y-125882438D02*
X148014286Y-125834819D01*
X148014286Y-125834819D02*
X148252381Y-125834819D01*
X148252381Y-125834819D02*
X148347619Y-125882438D01*
X148347619Y-125882438D02*
X148395238Y-125930057D01*
X148395238Y-125930057D02*
X148442857Y-126025295D01*
X148442857Y-126025295D02*
X148442857Y-126120533D01*
X148442857Y-126120533D02*
X148395238Y-126263390D01*
X148395238Y-126263390D02*
X147823810Y-126834819D01*
X147823810Y-126834819D02*
X148442857Y-126834819D01*
D10*
X129274809Y-97821428D02*
X129036714Y-97988094D01*
X129274809Y-98107142D02*
X128774809Y-98107142D01*
X128774809Y-98107142D02*
X128774809Y-97916666D01*
X128774809Y-97916666D02*
X128798619Y-97869047D01*
X128798619Y-97869047D02*
X128822428Y-97845237D01*
X128822428Y-97845237D02*
X128870047Y-97821428D01*
X128870047Y-97821428D02*
X128941476Y-97821428D01*
X128941476Y-97821428D02*
X128989095Y-97845237D01*
X128989095Y-97845237D02*
X129012904Y-97869047D01*
X129012904Y-97869047D02*
X129036714Y-97916666D01*
X129036714Y-97916666D02*
X129036714Y-98107142D01*
X129274809Y-97345237D02*
X129274809Y-97630951D01*
X129274809Y-97488094D02*
X128774809Y-97488094D01*
X128774809Y-97488094D02*
X128846238Y-97535713D01*
X128846238Y-97535713D02*
X128893857Y-97583332D01*
X128893857Y-97583332D02*
X128917666Y-97630951D01*
X129274809Y-96869047D02*
X129274809Y-97154761D01*
X129274809Y-97011904D02*
X128774809Y-97011904D01*
X128774809Y-97011904D02*
X128846238Y-97059523D01*
X128846238Y-97059523D02*
X128893857Y-97107142D01*
X128893857Y-97107142D02*
X128917666Y-97154761D01*
X137003571Y-115924809D02*
X136836905Y-115686714D01*
X136717857Y-115924809D02*
X136717857Y-115424809D01*
X136717857Y-115424809D02*
X136908333Y-115424809D01*
X136908333Y-115424809D02*
X136955952Y-115448619D01*
X136955952Y-115448619D02*
X136979762Y-115472428D01*
X136979762Y-115472428D02*
X137003571Y-115520047D01*
X137003571Y-115520047D02*
X137003571Y-115591476D01*
X137003571Y-115591476D02*
X136979762Y-115639095D01*
X136979762Y-115639095D02*
X136955952Y-115662904D01*
X136955952Y-115662904D02*
X136908333Y-115686714D01*
X136908333Y-115686714D02*
X136717857Y-115686714D01*
X137479762Y-115924809D02*
X137194048Y-115924809D01*
X137336905Y-115924809D02*
X137336905Y-115424809D01*
X137336905Y-115424809D02*
X137289286Y-115496238D01*
X137289286Y-115496238D02*
X137241667Y-115543857D01*
X137241667Y-115543857D02*
X137194048Y-115567666D01*
X137932142Y-115424809D02*
X137694047Y-115424809D01*
X137694047Y-115424809D02*
X137670238Y-115662904D01*
X137670238Y-115662904D02*
X137694047Y-115639095D01*
X137694047Y-115639095D02*
X137741666Y-115615285D01*
X137741666Y-115615285D02*
X137860714Y-115615285D01*
X137860714Y-115615285D02*
X137908333Y-115639095D01*
X137908333Y-115639095D02*
X137932142Y-115662904D01*
X137932142Y-115662904D02*
X137955952Y-115710523D01*
X137955952Y-115710523D02*
X137955952Y-115829571D01*
X137955952Y-115829571D02*
X137932142Y-115877190D01*
X137932142Y-115877190D02*
X137908333Y-115901000D01*
X137908333Y-115901000D02*
X137860714Y-115924809D01*
X137860714Y-115924809D02*
X137741666Y-115924809D01*
X137741666Y-115924809D02*
X137694047Y-115901000D01*
X137694047Y-115901000D02*
X137670238Y-115877190D01*
X115616666Y-93974809D02*
X115450000Y-93736714D01*
X115330952Y-93974809D02*
X115330952Y-93474809D01*
X115330952Y-93474809D02*
X115521428Y-93474809D01*
X115521428Y-93474809D02*
X115569047Y-93498619D01*
X115569047Y-93498619D02*
X115592857Y-93522428D01*
X115592857Y-93522428D02*
X115616666Y-93570047D01*
X115616666Y-93570047D02*
X115616666Y-93641476D01*
X115616666Y-93641476D02*
X115592857Y-93689095D01*
X115592857Y-93689095D02*
X115569047Y-93712904D01*
X115569047Y-93712904D02*
X115521428Y-93736714D01*
X115521428Y-93736714D02*
X115330952Y-93736714D01*
X115807143Y-93522428D02*
X115830952Y-93498619D01*
X115830952Y-93498619D02*
X115878571Y-93474809D01*
X115878571Y-93474809D02*
X115997619Y-93474809D01*
X115997619Y-93474809D02*
X116045238Y-93498619D01*
X116045238Y-93498619D02*
X116069047Y-93522428D01*
X116069047Y-93522428D02*
X116092857Y-93570047D01*
X116092857Y-93570047D02*
X116092857Y-93617666D01*
X116092857Y-93617666D02*
X116069047Y-93689095D01*
X116069047Y-93689095D02*
X115783333Y-93974809D01*
X115783333Y-93974809D02*
X116092857Y-93974809D01*
X120866666Y-100427190D02*
X120842857Y-100451000D01*
X120842857Y-100451000D02*
X120771428Y-100474809D01*
X120771428Y-100474809D02*
X120723809Y-100474809D01*
X120723809Y-100474809D02*
X120652381Y-100451000D01*
X120652381Y-100451000D02*
X120604762Y-100403380D01*
X120604762Y-100403380D02*
X120580952Y-100355761D01*
X120580952Y-100355761D02*
X120557143Y-100260523D01*
X120557143Y-100260523D02*
X120557143Y-100189095D01*
X120557143Y-100189095D02*
X120580952Y-100093857D01*
X120580952Y-100093857D02*
X120604762Y-100046238D01*
X120604762Y-100046238D02*
X120652381Y-99998619D01*
X120652381Y-99998619D02*
X120723809Y-99974809D01*
X120723809Y-99974809D02*
X120771428Y-99974809D01*
X120771428Y-99974809D02*
X120842857Y-99998619D01*
X120842857Y-99998619D02*
X120866666Y-100022428D01*
X121319047Y-99974809D02*
X121080952Y-99974809D01*
X121080952Y-99974809D02*
X121057143Y-100212904D01*
X121057143Y-100212904D02*
X121080952Y-100189095D01*
X121080952Y-100189095D02*
X121128571Y-100165285D01*
X121128571Y-100165285D02*
X121247619Y-100165285D01*
X121247619Y-100165285D02*
X121295238Y-100189095D01*
X121295238Y-100189095D02*
X121319047Y-100212904D01*
X121319047Y-100212904D02*
X121342857Y-100260523D01*
X121342857Y-100260523D02*
X121342857Y-100379571D01*
X121342857Y-100379571D02*
X121319047Y-100427190D01*
X121319047Y-100427190D02*
X121295238Y-100451000D01*
X121295238Y-100451000D02*
X121247619Y-100474809D01*
X121247619Y-100474809D02*
X121128571Y-100474809D01*
X121128571Y-100474809D02*
X121080952Y-100451000D01*
X121080952Y-100451000D02*
X121057143Y-100427190D01*
X141316666Y-92827190D02*
X141292857Y-92851000D01*
X141292857Y-92851000D02*
X141221428Y-92874809D01*
X141221428Y-92874809D02*
X141173809Y-92874809D01*
X141173809Y-92874809D02*
X141102381Y-92851000D01*
X141102381Y-92851000D02*
X141054762Y-92803380D01*
X141054762Y-92803380D02*
X141030952Y-92755761D01*
X141030952Y-92755761D02*
X141007143Y-92660523D01*
X141007143Y-92660523D02*
X141007143Y-92589095D01*
X141007143Y-92589095D02*
X141030952Y-92493857D01*
X141030952Y-92493857D02*
X141054762Y-92446238D01*
X141054762Y-92446238D02*
X141102381Y-92398619D01*
X141102381Y-92398619D02*
X141173809Y-92374809D01*
X141173809Y-92374809D02*
X141221428Y-92374809D01*
X141221428Y-92374809D02*
X141292857Y-92398619D01*
X141292857Y-92398619D02*
X141316666Y-92422428D01*
X141745238Y-92541476D02*
X141745238Y-92874809D01*
X141626190Y-92351000D02*
X141507143Y-92708142D01*
X141507143Y-92708142D02*
X141816666Y-92708142D01*
X137828571Y-105574809D02*
X137661905Y-105336714D01*
X137542857Y-105574809D02*
X137542857Y-105074809D01*
X137542857Y-105074809D02*
X137733333Y-105074809D01*
X137733333Y-105074809D02*
X137780952Y-105098619D01*
X137780952Y-105098619D02*
X137804762Y-105122428D01*
X137804762Y-105122428D02*
X137828571Y-105170047D01*
X137828571Y-105170047D02*
X137828571Y-105241476D01*
X137828571Y-105241476D02*
X137804762Y-105289095D01*
X137804762Y-105289095D02*
X137780952Y-105312904D01*
X137780952Y-105312904D02*
X137733333Y-105336714D01*
X137733333Y-105336714D02*
X137542857Y-105336714D01*
X138019048Y-105122428D02*
X138042857Y-105098619D01*
X138042857Y-105098619D02*
X138090476Y-105074809D01*
X138090476Y-105074809D02*
X138209524Y-105074809D01*
X138209524Y-105074809D02*
X138257143Y-105098619D01*
X138257143Y-105098619D02*
X138280952Y-105122428D01*
X138280952Y-105122428D02*
X138304762Y-105170047D01*
X138304762Y-105170047D02*
X138304762Y-105217666D01*
X138304762Y-105217666D02*
X138280952Y-105289095D01*
X138280952Y-105289095D02*
X137995238Y-105574809D01*
X137995238Y-105574809D02*
X138304762Y-105574809D01*
X138733333Y-105241476D02*
X138733333Y-105574809D01*
X138614285Y-105051000D02*
X138495238Y-105408142D01*
X138495238Y-105408142D02*
X138804761Y-105408142D01*
X136978571Y-119424809D02*
X136811905Y-119186714D01*
X136692857Y-119424809D02*
X136692857Y-118924809D01*
X136692857Y-118924809D02*
X136883333Y-118924809D01*
X136883333Y-118924809D02*
X136930952Y-118948619D01*
X136930952Y-118948619D02*
X136954762Y-118972428D01*
X136954762Y-118972428D02*
X136978571Y-119020047D01*
X136978571Y-119020047D02*
X136978571Y-119091476D01*
X136978571Y-119091476D02*
X136954762Y-119139095D01*
X136954762Y-119139095D02*
X136930952Y-119162904D01*
X136930952Y-119162904D02*
X136883333Y-119186714D01*
X136883333Y-119186714D02*
X136692857Y-119186714D01*
X137169048Y-118972428D02*
X137192857Y-118948619D01*
X137192857Y-118948619D02*
X137240476Y-118924809D01*
X137240476Y-118924809D02*
X137359524Y-118924809D01*
X137359524Y-118924809D02*
X137407143Y-118948619D01*
X137407143Y-118948619D02*
X137430952Y-118972428D01*
X137430952Y-118972428D02*
X137454762Y-119020047D01*
X137454762Y-119020047D02*
X137454762Y-119067666D01*
X137454762Y-119067666D02*
X137430952Y-119139095D01*
X137430952Y-119139095D02*
X137145238Y-119424809D01*
X137145238Y-119424809D02*
X137454762Y-119424809D01*
X137883333Y-118924809D02*
X137788095Y-118924809D01*
X137788095Y-118924809D02*
X137740476Y-118948619D01*
X137740476Y-118948619D02*
X137716666Y-118972428D01*
X137716666Y-118972428D02*
X137669047Y-119043857D01*
X137669047Y-119043857D02*
X137645238Y-119139095D01*
X137645238Y-119139095D02*
X137645238Y-119329571D01*
X137645238Y-119329571D02*
X137669047Y-119377190D01*
X137669047Y-119377190D02*
X137692857Y-119401000D01*
X137692857Y-119401000D02*
X137740476Y-119424809D01*
X137740476Y-119424809D02*
X137835714Y-119424809D01*
X137835714Y-119424809D02*
X137883333Y-119401000D01*
X137883333Y-119401000D02*
X137907142Y-119377190D01*
X137907142Y-119377190D02*
X137930952Y-119329571D01*
X137930952Y-119329571D02*
X137930952Y-119210523D01*
X137930952Y-119210523D02*
X137907142Y-119162904D01*
X137907142Y-119162904D02*
X137883333Y-119139095D01*
X137883333Y-119139095D02*
X137835714Y-119115285D01*
X137835714Y-119115285D02*
X137740476Y-119115285D01*
X137740476Y-119115285D02*
X137692857Y-119139095D01*
X137692857Y-119139095D02*
X137669047Y-119162904D01*
X137669047Y-119162904D02*
X137645238Y-119210523D01*
X120866666Y-90274809D02*
X120700000Y-90036714D01*
X120580952Y-90274809D02*
X120580952Y-89774809D01*
X120580952Y-89774809D02*
X120771428Y-89774809D01*
X120771428Y-89774809D02*
X120819047Y-89798619D01*
X120819047Y-89798619D02*
X120842857Y-89822428D01*
X120842857Y-89822428D02*
X120866666Y-89870047D01*
X120866666Y-89870047D02*
X120866666Y-89941476D01*
X120866666Y-89941476D02*
X120842857Y-89989095D01*
X120842857Y-89989095D02*
X120819047Y-90012904D01*
X120819047Y-90012904D02*
X120771428Y-90036714D01*
X120771428Y-90036714D02*
X120580952Y-90036714D01*
X121295238Y-89941476D02*
X121295238Y-90274809D01*
X121176190Y-89751000D02*
X121057143Y-90108142D01*
X121057143Y-90108142D02*
X121366666Y-90108142D01*
X120428571Y-123299809D02*
X120261905Y-123061714D01*
X120142857Y-123299809D02*
X120142857Y-122799809D01*
X120142857Y-122799809D02*
X120333333Y-122799809D01*
X120333333Y-122799809D02*
X120380952Y-122823619D01*
X120380952Y-122823619D02*
X120404762Y-122847428D01*
X120404762Y-122847428D02*
X120428571Y-122895047D01*
X120428571Y-122895047D02*
X120428571Y-122966476D01*
X120428571Y-122966476D02*
X120404762Y-123014095D01*
X120404762Y-123014095D02*
X120380952Y-123037904D01*
X120380952Y-123037904D02*
X120333333Y-123061714D01*
X120333333Y-123061714D02*
X120142857Y-123061714D01*
X120904762Y-123299809D02*
X120619048Y-123299809D01*
X120761905Y-123299809D02*
X120761905Y-122799809D01*
X120761905Y-122799809D02*
X120714286Y-122871238D01*
X120714286Y-122871238D02*
X120666667Y-122918857D01*
X120666667Y-122918857D02*
X120619048Y-122942666D01*
X121071428Y-122799809D02*
X121404761Y-122799809D01*
X121404761Y-122799809D02*
X121190476Y-123299809D01*
X122178571Y-123299809D02*
X122011905Y-123061714D01*
X121892857Y-123299809D02*
X121892857Y-122799809D01*
X121892857Y-122799809D02*
X122083333Y-122799809D01*
X122083333Y-122799809D02*
X122130952Y-122823619D01*
X122130952Y-122823619D02*
X122154762Y-122847428D01*
X122154762Y-122847428D02*
X122178571Y-122895047D01*
X122178571Y-122895047D02*
X122178571Y-122966476D01*
X122178571Y-122966476D02*
X122154762Y-123014095D01*
X122154762Y-123014095D02*
X122130952Y-123037904D01*
X122130952Y-123037904D02*
X122083333Y-123061714D01*
X122083333Y-123061714D02*
X121892857Y-123061714D01*
X122654762Y-123299809D02*
X122369048Y-123299809D01*
X122511905Y-123299809D02*
X122511905Y-122799809D01*
X122511905Y-122799809D02*
X122464286Y-122871238D01*
X122464286Y-122871238D02*
X122416667Y-122918857D01*
X122416667Y-122918857D02*
X122369048Y-122942666D01*
X122892857Y-123299809D02*
X122988095Y-123299809D01*
X122988095Y-123299809D02*
X123035714Y-123276000D01*
X123035714Y-123276000D02*
X123059523Y-123252190D01*
X123059523Y-123252190D02*
X123107142Y-123180761D01*
X123107142Y-123180761D02*
X123130952Y-123085523D01*
X123130952Y-123085523D02*
X123130952Y-122895047D01*
X123130952Y-122895047D02*
X123107142Y-122847428D01*
X123107142Y-122847428D02*
X123083333Y-122823619D01*
X123083333Y-122823619D02*
X123035714Y-122799809D01*
X123035714Y-122799809D02*
X122940476Y-122799809D01*
X122940476Y-122799809D02*
X122892857Y-122823619D01*
X122892857Y-122823619D02*
X122869047Y-122847428D01*
X122869047Y-122847428D02*
X122845238Y-122895047D01*
X122845238Y-122895047D02*
X122845238Y-123014095D01*
X122845238Y-123014095D02*
X122869047Y-123061714D01*
X122869047Y-123061714D02*
X122892857Y-123085523D01*
X122892857Y-123085523D02*
X122940476Y-123109333D01*
X122940476Y-123109333D02*
X123035714Y-123109333D01*
X123035714Y-123109333D02*
X123083333Y-123085523D01*
X123083333Y-123085523D02*
X123107142Y-123061714D01*
X123107142Y-123061714D02*
X123130952Y-123014095D01*
X141978571Y-114174809D02*
X141811905Y-113936714D01*
X141692857Y-114174809D02*
X141692857Y-113674809D01*
X141692857Y-113674809D02*
X141883333Y-113674809D01*
X141883333Y-113674809D02*
X141930952Y-113698619D01*
X141930952Y-113698619D02*
X141954762Y-113722428D01*
X141954762Y-113722428D02*
X141978571Y-113770047D01*
X141978571Y-113770047D02*
X141978571Y-113841476D01*
X141978571Y-113841476D02*
X141954762Y-113889095D01*
X141954762Y-113889095D02*
X141930952Y-113912904D01*
X141930952Y-113912904D02*
X141883333Y-113936714D01*
X141883333Y-113936714D02*
X141692857Y-113936714D01*
X142454762Y-114174809D02*
X142169048Y-114174809D01*
X142311905Y-114174809D02*
X142311905Y-113674809D01*
X142311905Y-113674809D02*
X142264286Y-113746238D01*
X142264286Y-113746238D02*
X142216667Y-113793857D01*
X142216667Y-113793857D02*
X142169048Y-113817666D01*
X142883333Y-113674809D02*
X142788095Y-113674809D01*
X142788095Y-113674809D02*
X142740476Y-113698619D01*
X142740476Y-113698619D02*
X142716666Y-113722428D01*
X142716666Y-113722428D02*
X142669047Y-113793857D01*
X142669047Y-113793857D02*
X142645238Y-113889095D01*
X142645238Y-113889095D02*
X142645238Y-114079571D01*
X142645238Y-114079571D02*
X142669047Y-114127190D01*
X142669047Y-114127190D02*
X142692857Y-114151000D01*
X142692857Y-114151000D02*
X142740476Y-114174809D01*
X142740476Y-114174809D02*
X142835714Y-114174809D01*
X142835714Y-114174809D02*
X142883333Y-114151000D01*
X142883333Y-114151000D02*
X142907142Y-114127190D01*
X142907142Y-114127190D02*
X142930952Y-114079571D01*
X142930952Y-114079571D02*
X142930952Y-113960523D01*
X142930952Y-113960523D02*
X142907142Y-113912904D01*
X142907142Y-113912904D02*
X142883333Y-113889095D01*
X142883333Y-113889095D02*
X142835714Y-113865285D01*
X142835714Y-113865285D02*
X142740476Y-113865285D01*
X142740476Y-113865285D02*
X142692857Y-113889095D01*
X142692857Y-113889095D02*
X142669047Y-113912904D01*
X142669047Y-113912904D02*
X142645238Y-113960523D01*
X140887190Y-101681428D02*
X140911000Y-101705237D01*
X140911000Y-101705237D02*
X140934809Y-101776666D01*
X140934809Y-101776666D02*
X140934809Y-101824285D01*
X140934809Y-101824285D02*
X140911000Y-101895713D01*
X140911000Y-101895713D02*
X140863380Y-101943332D01*
X140863380Y-101943332D02*
X140815761Y-101967142D01*
X140815761Y-101967142D02*
X140720523Y-101990951D01*
X140720523Y-101990951D02*
X140649095Y-101990951D01*
X140649095Y-101990951D02*
X140553857Y-101967142D01*
X140553857Y-101967142D02*
X140506238Y-101943332D01*
X140506238Y-101943332D02*
X140458619Y-101895713D01*
X140458619Y-101895713D02*
X140434809Y-101824285D01*
X140434809Y-101824285D02*
X140434809Y-101776666D01*
X140434809Y-101776666D02*
X140458619Y-101705237D01*
X140458619Y-101705237D02*
X140482428Y-101681428D01*
X140934809Y-101205237D02*
X140934809Y-101490951D01*
X140934809Y-101348094D02*
X140434809Y-101348094D01*
X140434809Y-101348094D02*
X140506238Y-101395713D01*
X140506238Y-101395713D02*
X140553857Y-101443332D01*
X140553857Y-101443332D02*
X140577666Y-101490951D01*
X140434809Y-101038571D02*
X140434809Y-100729047D01*
X140434809Y-100729047D02*
X140625285Y-100895714D01*
X140625285Y-100895714D02*
X140625285Y-100824285D01*
X140625285Y-100824285D02*
X140649095Y-100776666D01*
X140649095Y-100776666D02*
X140672904Y-100752857D01*
X140672904Y-100752857D02*
X140720523Y-100729047D01*
X140720523Y-100729047D02*
X140839571Y-100729047D01*
X140839571Y-100729047D02*
X140887190Y-100752857D01*
X140887190Y-100752857D02*
X140911000Y-100776666D01*
X140911000Y-100776666D02*
X140934809Y-100824285D01*
X140934809Y-100824285D02*
X140934809Y-100967142D01*
X140934809Y-100967142D02*
X140911000Y-101014761D01*
X140911000Y-101014761D02*
X140887190Y-101038571D01*
X138066666Y-90324809D02*
X137900000Y-90086714D01*
X137780952Y-90324809D02*
X137780952Y-89824809D01*
X137780952Y-89824809D02*
X137971428Y-89824809D01*
X137971428Y-89824809D02*
X138019047Y-89848619D01*
X138019047Y-89848619D02*
X138042857Y-89872428D01*
X138042857Y-89872428D02*
X138066666Y-89920047D01*
X138066666Y-89920047D02*
X138066666Y-89991476D01*
X138066666Y-89991476D02*
X138042857Y-90039095D01*
X138042857Y-90039095D02*
X138019047Y-90062904D01*
X138019047Y-90062904D02*
X137971428Y-90086714D01*
X137971428Y-90086714D02*
X137780952Y-90086714D01*
X138233333Y-89824809D02*
X138542857Y-89824809D01*
X138542857Y-89824809D02*
X138376190Y-90015285D01*
X138376190Y-90015285D02*
X138447619Y-90015285D01*
X138447619Y-90015285D02*
X138495238Y-90039095D01*
X138495238Y-90039095D02*
X138519047Y-90062904D01*
X138519047Y-90062904D02*
X138542857Y-90110523D01*
X138542857Y-90110523D02*
X138542857Y-90229571D01*
X138542857Y-90229571D02*
X138519047Y-90277190D01*
X138519047Y-90277190D02*
X138495238Y-90301000D01*
X138495238Y-90301000D02*
X138447619Y-90324809D01*
X138447619Y-90324809D02*
X138304762Y-90324809D01*
X138304762Y-90324809D02*
X138257143Y-90301000D01*
X138257143Y-90301000D02*
X138233333Y-90277190D01*
X141316666Y-97974809D02*
X141150000Y-97736714D01*
X141030952Y-97974809D02*
X141030952Y-97474809D01*
X141030952Y-97474809D02*
X141221428Y-97474809D01*
X141221428Y-97474809D02*
X141269047Y-97498619D01*
X141269047Y-97498619D02*
X141292857Y-97522428D01*
X141292857Y-97522428D02*
X141316666Y-97570047D01*
X141316666Y-97570047D02*
X141316666Y-97641476D01*
X141316666Y-97641476D02*
X141292857Y-97689095D01*
X141292857Y-97689095D02*
X141269047Y-97712904D01*
X141269047Y-97712904D02*
X141221428Y-97736714D01*
X141221428Y-97736714D02*
X141030952Y-97736714D01*
X141554762Y-97974809D02*
X141650000Y-97974809D01*
X141650000Y-97974809D02*
X141697619Y-97951000D01*
X141697619Y-97951000D02*
X141721428Y-97927190D01*
X141721428Y-97927190D02*
X141769047Y-97855761D01*
X141769047Y-97855761D02*
X141792857Y-97760523D01*
X141792857Y-97760523D02*
X141792857Y-97570047D01*
X141792857Y-97570047D02*
X141769047Y-97522428D01*
X141769047Y-97522428D02*
X141745238Y-97498619D01*
X141745238Y-97498619D02*
X141697619Y-97474809D01*
X141697619Y-97474809D02*
X141602381Y-97474809D01*
X141602381Y-97474809D02*
X141554762Y-97498619D01*
X141554762Y-97498619D02*
X141530952Y-97522428D01*
X141530952Y-97522428D02*
X141507143Y-97570047D01*
X141507143Y-97570047D02*
X141507143Y-97689095D01*
X141507143Y-97689095D02*
X141530952Y-97736714D01*
X141530952Y-97736714D02*
X141554762Y-97760523D01*
X141554762Y-97760523D02*
X141602381Y-97784333D01*
X141602381Y-97784333D02*
X141697619Y-97784333D01*
X141697619Y-97784333D02*
X141745238Y-97760523D01*
X141745238Y-97760523D02*
X141769047Y-97736714D01*
X141769047Y-97736714D02*
X141792857Y-97689095D01*
X117616666Y-95327190D02*
X117592857Y-95351000D01*
X117592857Y-95351000D02*
X117521428Y-95374809D01*
X117521428Y-95374809D02*
X117473809Y-95374809D01*
X117473809Y-95374809D02*
X117402381Y-95351000D01*
X117402381Y-95351000D02*
X117354762Y-95303380D01*
X117354762Y-95303380D02*
X117330952Y-95255761D01*
X117330952Y-95255761D02*
X117307143Y-95160523D01*
X117307143Y-95160523D02*
X117307143Y-95089095D01*
X117307143Y-95089095D02*
X117330952Y-94993857D01*
X117330952Y-94993857D02*
X117354762Y-94946238D01*
X117354762Y-94946238D02*
X117402381Y-94898619D01*
X117402381Y-94898619D02*
X117473809Y-94874809D01*
X117473809Y-94874809D02*
X117521428Y-94874809D01*
X117521428Y-94874809D02*
X117592857Y-94898619D01*
X117592857Y-94898619D02*
X117616666Y-94922428D01*
X117807143Y-94922428D02*
X117830952Y-94898619D01*
X117830952Y-94898619D02*
X117878571Y-94874809D01*
X117878571Y-94874809D02*
X117997619Y-94874809D01*
X117997619Y-94874809D02*
X118045238Y-94898619D01*
X118045238Y-94898619D02*
X118069047Y-94922428D01*
X118069047Y-94922428D02*
X118092857Y-94970047D01*
X118092857Y-94970047D02*
X118092857Y-95017666D01*
X118092857Y-95017666D02*
X118069047Y-95089095D01*
X118069047Y-95089095D02*
X117783333Y-95374809D01*
X117783333Y-95374809D02*
X118092857Y-95374809D01*
X121278571Y-125774809D02*
X121111905Y-125536714D01*
X120992857Y-125774809D02*
X120992857Y-125274809D01*
X120992857Y-125274809D02*
X121183333Y-125274809D01*
X121183333Y-125274809D02*
X121230952Y-125298619D01*
X121230952Y-125298619D02*
X121254762Y-125322428D01*
X121254762Y-125322428D02*
X121278571Y-125370047D01*
X121278571Y-125370047D02*
X121278571Y-125441476D01*
X121278571Y-125441476D02*
X121254762Y-125489095D01*
X121254762Y-125489095D02*
X121230952Y-125512904D01*
X121230952Y-125512904D02*
X121183333Y-125536714D01*
X121183333Y-125536714D02*
X120992857Y-125536714D01*
X121445238Y-125274809D02*
X121754762Y-125274809D01*
X121754762Y-125274809D02*
X121588095Y-125465285D01*
X121588095Y-125465285D02*
X121659524Y-125465285D01*
X121659524Y-125465285D02*
X121707143Y-125489095D01*
X121707143Y-125489095D02*
X121730952Y-125512904D01*
X121730952Y-125512904D02*
X121754762Y-125560523D01*
X121754762Y-125560523D02*
X121754762Y-125679571D01*
X121754762Y-125679571D02*
X121730952Y-125727190D01*
X121730952Y-125727190D02*
X121707143Y-125751000D01*
X121707143Y-125751000D02*
X121659524Y-125774809D01*
X121659524Y-125774809D02*
X121516667Y-125774809D01*
X121516667Y-125774809D02*
X121469048Y-125751000D01*
X121469048Y-125751000D02*
X121445238Y-125727190D01*
X122207142Y-125274809D02*
X121969047Y-125274809D01*
X121969047Y-125274809D02*
X121945238Y-125512904D01*
X121945238Y-125512904D02*
X121969047Y-125489095D01*
X121969047Y-125489095D02*
X122016666Y-125465285D01*
X122016666Y-125465285D02*
X122135714Y-125465285D01*
X122135714Y-125465285D02*
X122183333Y-125489095D01*
X122183333Y-125489095D02*
X122207142Y-125512904D01*
X122207142Y-125512904D02*
X122230952Y-125560523D01*
X122230952Y-125560523D02*
X122230952Y-125679571D01*
X122230952Y-125679571D02*
X122207142Y-125727190D01*
X122207142Y-125727190D02*
X122183333Y-125751000D01*
X122183333Y-125751000D02*
X122135714Y-125774809D01*
X122135714Y-125774809D02*
X122016666Y-125774809D01*
X122016666Y-125774809D02*
X121969047Y-125751000D01*
X121969047Y-125751000D02*
X121945238Y-125727190D01*
X136978571Y-122877190D02*
X136954762Y-122901000D01*
X136954762Y-122901000D02*
X136883333Y-122924809D01*
X136883333Y-122924809D02*
X136835714Y-122924809D01*
X136835714Y-122924809D02*
X136764286Y-122901000D01*
X136764286Y-122901000D02*
X136716667Y-122853380D01*
X136716667Y-122853380D02*
X136692857Y-122805761D01*
X136692857Y-122805761D02*
X136669048Y-122710523D01*
X136669048Y-122710523D02*
X136669048Y-122639095D01*
X136669048Y-122639095D02*
X136692857Y-122543857D01*
X136692857Y-122543857D02*
X136716667Y-122496238D01*
X136716667Y-122496238D02*
X136764286Y-122448619D01*
X136764286Y-122448619D02*
X136835714Y-122424809D01*
X136835714Y-122424809D02*
X136883333Y-122424809D01*
X136883333Y-122424809D02*
X136954762Y-122448619D01*
X136954762Y-122448619D02*
X136978571Y-122472428D01*
X137454762Y-122924809D02*
X137169048Y-122924809D01*
X137311905Y-122924809D02*
X137311905Y-122424809D01*
X137311905Y-122424809D02*
X137264286Y-122496238D01*
X137264286Y-122496238D02*
X137216667Y-122543857D01*
X137216667Y-122543857D02*
X137169048Y-122567666D01*
X137764285Y-122424809D02*
X137811904Y-122424809D01*
X137811904Y-122424809D02*
X137859523Y-122448619D01*
X137859523Y-122448619D02*
X137883333Y-122472428D01*
X137883333Y-122472428D02*
X137907142Y-122520047D01*
X137907142Y-122520047D02*
X137930952Y-122615285D01*
X137930952Y-122615285D02*
X137930952Y-122734333D01*
X137930952Y-122734333D02*
X137907142Y-122829571D01*
X137907142Y-122829571D02*
X137883333Y-122877190D01*
X137883333Y-122877190D02*
X137859523Y-122901000D01*
X137859523Y-122901000D02*
X137811904Y-122924809D01*
X137811904Y-122924809D02*
X137764285Y-122924809D01*
X137764285Y-122924809D02*
X137716666Y-122901000D01*
X137716666Y-122901000D02*
X137692857Y-122877190D01*
X137692857Y-122877190D02*
X137669047Y-122829571D01*
X137669047Y-122829571D02*
X137645238Y-122734333D01*
X137645238Y-122734333D02*
X137645238Y-122615285D01*
X137645238Y-122615285D02*
X137669047Y-122520047D01*
X137669047Y-122520047D02*
X137692857Y-122472428D01*
X137692857Y-122472428D02*
X137716666Y-122448619D01*
X137716666Y-122448619D02*
X137764285Y-122424809D01*
X120866666Y-97974809D02*
X120700000Y-97736714D01*
X120580952Y-97974809D02*
X120580952Y-97474809D01*
X120580952Y-97474809D02*
X120771428Y-97474809D01*
X120771428Y-97474809D02*
X120819047Y-97498619D01*
X120819047Y-97498619D02*
X120842857Y-97522428D01*
X120842857Y-97522428D02*
X120866666Y-97570047D01*
X120866666Y-97570047D02*
X120866666Y-97641476D01*
X120866666Y-97641476D02*
X120842857Y-97689095D01*
X120842857Y-97689095D02*
X120819047Y-97712904D01*
X120819047Y-97712904D02*
X120771428Y-97736714D01*
X120771428Y-97736714D02*
X120580952Y-97736714D01*
X121152381Y-97689095D02*
X121104762Y-97665285D01*
X121104762Y-97665285D02*
X121080952Y-97641476D01*
X121080952Y-97641476D02*
X121057143Y-97593857D01*
X121057143Y-97593857D02*
X121057143Y-97570047D01*
X121057143Y-97570047D02*
X121080952Y-97522428D01*
X121080952Y-97522428D02*
X121104762Y-97498619D01*
X121104762Y-97498619D02*
X121152381Y-97474809D01*
X121152381Y-97474809D02*
X121247619Y-97474809D01*
X121247619Y-97474809D02*
X121295238Y-97498619D01*
X121295238Y-97498619D02*
X121319047Y-97522428D01*
X121319047Y-97522428D02*
X121342857Y-97570047D01*
X121342857Y-97570047D02*
X121342857Y-97593857D01*
X121342857Y-97593857D02*
X121319047Y-97641476D01*
X121319047Y-97641476D02*
X121295238Y-97665285D01*
X121295238Y-97665285D02*
X121247619Y-97689095D01*
X121247619Y-97689095D02*
X121152381Y-97689095D01*
X121152381Y-97689095D02*
X121104762Y-97712904D01*
X121104762Y-97712904D02*
X121080952Y-97736714D01*
X121080952Y-97736714D02*
X121057143Y-97784333D01*
X121057143Y-97784333D02*
X121057143Y-97879571D01*
X121057143Y-97879571D02*
X121080952Y-97927190D01*
X121080952Y-97927190D02*
X121104762Y-97951000D01*
X121104762Y-97951000D02*
X121152381Y-97974809D01*
X121152381Y-97974809D02*
X121247619Y-97974809D01*
X121247619Y-97974809D02*
X121295238Y-97951000D01*
X121295238Y-97951000D02*
X121319047Y-97927190D01*
X121319047Y-97927190D02*
X121342857Y-97879571D01*
X121342857Y-97879571D02*
X121342857Y-97784333D01*
X121342857Y-97784333D02*
X121319047Y-97736714D01*
X121319047Y-97736714D02*
X121295238Y-97712904D01*
X121295238Y-97712904D02*
X121247619Y-97689095D01*
X145619047Y-98924809D02*
X145619047Y-99329571D01*
X145619047Y-99329571D02*
X145642857Y-99377190D01*
X145642857Y-99377190D02*
X145666666Y-99401000D01*
X145666666Y-99401000D02*
X145714285Y-99424809D01*
X145714285Y-99424809D02*
X145809523Y-99424809D01*
X145809523Y-99424809D02*
X145857142Y-99401000D01*
X145857142Y-99401000D02*
X145880952Y-99377190D01*
X145880952Y-99377190D02*
X145904761Y-99329571D01*
X145904761Y-99329571D02*
X145904761Y-98924809D01*
X146095238Y-98924809D02*
X146404762Y-98924809D01*
X146404762Y-98924809D02*
X146238095Y-99115285D01*
X146238095Y-99115285D02*
X146309524Y-99115285D01*
X146309524Y-99115285D02*
X146357143Y-99139095D01*
X146357143Y-99139095D02*
X146380952Y-99162904D01*
X146380952Y-99162904D02*
X146404762Y-99210523D01*
X146404762Y-99210523D02*
X146404762Y-99329571D01*
X146404762Y-99329571D02*
X146380952Y-99377190D01*
X146380952Y-99377190D02*
X146357143Y-99401000D01*
X146357143Y-99401000D02*
X146309524Y-99424809D01*
X146309524Y-99424809D02*
X146166667Y-99424809D01*
X146166667Y-99424809D02*
X146119048Y-99401000D01*
X146119048Y-99401000D02*
X146095238Y-99377190D01*
X120866666Y-92874809D02*
X120700000Y-92636714D01*
X120580952Y-92874809D02*
X120580952Y-92374809D01*
X120580952Y-92374809D02*
X120771428Y-92374809D01*
X120771428Y-92374809D02*
X120819047Y-92398619D01*
X120819047Y-92398619D02*
X120842857Y-92422428D01*
X120842857Y-92422428D02*
X120866666Y-92470047D01*
X120866666Y-92470047D02*
X120866666Y-92541476D01*
X120866666Y-92541476D02*
X120842857Y-92589095D01*
X120842857Y-92589095D02*
X120819047Y-92612904D01*
X120819047Y-92612904D02*
X120771428Y-92636714D01*
X120771428Y-92636714D02*
X120580952Y-92636714D01*
X121295238Y-92374809D02*
X121200000Y-92374809D01*
X121200000Y-92374809D02*
X121152381Y-92398619D01*
X121152381Y-92398619D02*
X121128571Y-92422428D01*
X121128571Y-92422428D02*
X121080952Y-92493857D01*
X121080952Y-92493857D02*
X121057143Y-92589095D01*
X121057143Y-92589095D02*
X121057143Y-92779571D01*
X121057143Y-92779571D02*
X121080952Y-92827190D01*
X121080952Y-92827190D02*
X121104762Y-92851000D01*
X121104762Y-92851000D02*
X121152381Y-92874809D01*
X121152381Y-92874809D02*
X121247619Y-92874809D01*
X121247619Y-92874809D02*
X121295238Y-92851000D01*
X121295238Y-92851000D02*
X121319047Y-92827190D01*
X121319047Y-92827190D02*
X121342857Y-92779571D01*
X121342857Y-92779571D02*
X121342857Y-92660523D01*
X121342857Y-92660523D02*
X121319047Y-92612904D01*
X121319047Y-92612904D02*
X121295238Y-92589095D01*
X121295238Y-92589095D02*
X121247619Y-92565285D01*
X121247619Y-92565285D02*
X121152381Y-92565285D01*
X121152381Y-92565285D02*
X121104762Y-92589095D01*
X121104762Y-92589095D02*
X121080952Y-92612904D01*
X121080952Y-92612904D02*
X121057143Y-92660523D01*
X136978571Y-114164809D02*
X136811905Y-113926714D01*
X136692857Y-114164809D02*
X136692857Y-113664809D01*
X136692857Y-113664809D02*
X136883333Y-113664809D01*
X136883333Y-113664809D02*
X136930952Y-113688619D01*
X136930952Y-113688619D02*
X136954762Y-113712428D01*
X136954762Y-113712428D02*
X136978571Y-113760047D01*
X136978571Y-113760047D02*
X136978571Y-113831476D01*
X136978571Y-113831476D02*
X136954762Y-113879095D01*
X136954762Y-113879095D02*
X136930952Y-113902904D01*
X136930952Y-113902904D02*
X136883333Y-113926714D01*
X136883333Y-113926714D02*
X136692857Y-113926714D01*
X137169048Y-113712428D02*
X137192857Y-113688619D01*
X137192857Y-113688619D02*
X137240476Y-113664809D01*
X137240476Y-113664809D02*
X137359524Y-113664809D01*
X137359524Y-113664809D02*
X137407143Y-113688619D01*
X137407143Y-113688619D02*
X137430952Y-113712428D01*
X137430952Y-113712428D02*
X137454762Y-113760047D01*
X137454762Y-113760047D02*
X137454762Y-113807666D01*
X137454762Y-113807666D02*
X137430952Y-113879095D01*
X137430952Y-113879095D02*
X137145238Y-114164809D01*
X137145238Y-114164809D02*
X137454762Y-114164809D01*
X137930952Y-114164809D02*
X137645238Y-114164809D01*
X137788095Y-114164809D02*
X137788095Y-113664809D01*
X137788095Y-113664809D02*
X137740476Y-113736238D01*
X137740476Y-113736238D02*
X137692857Y-113783857D01*
X137692857Y-113783857D02*
X137645238Y-113807666D01*
X116478571Y-112424809D02*
X116311905Y-112186714D01*
X116192857Y-112424809D02*
X116192857Y-111924809D01*
X116192857Y-111924809D02*
X116383333Y-111924809D01*
X116383333Y-111924809D02*
X116430952Y-111948619D01*
X116430952Y-111948619D02*
X116454762Y-111972428D01*
X116454762Y-111972428D02*
X116478571Y-112020047D01*
X116478571Y-112020047D02*
X116478571Y-112091476D01*
X116478571Y-112091476D02*
X116454762Y-112139095D01*
X116454762Y-112139095D02*
X116430952Y-112162904D01*
X116430952Y-112162904D02*
X116383333Y-112186714D01*
X116383333Y-112186714D02*
X116192857Y-112186714D01*
X116645238Y-111924809D02*
X116954762Y-111924809D01*
X116954762Y-111924809D02*
X116788095Y-112115285D01*
X116788095Y-112115285D02*
X116859524Y-112115285D01*
X116859524Y-112115285D02*
X116907143Y-112139095D01*
X116907143Y-112139095D02*
X116930952Y-112162904D01*
X116930952Y-112162904D02*
X116954762Y-112210523D01*
X116954762Y-112210523D02*
X116954762Y-112329571D01*
X116954762Y-112329571D02*
X116930952Y-112377190D01*
X116930952Y-112377190D02*
X116907143Y-112401000D01*
X116907143Y-112401000D02*
X116859524Y-112424809D01*
X116859524Y-112424809D02*
X116716667Y-112424809D01*
X116716667Y-112424809D02*
X116669048Y-112401000D01*
X116669048Y-112401000D02*
X116645238Y-112377190D01*
X117145238Y-111972428D02*
X117169047Y-111948619D01*
X117169047Y-111948619D02*
X117216666Y-111924809D01*
X117216666Y-111924809D02*
X117335714Y-111924809D01*
X117335714Y-111924809D02*
X117383333Y-111948619D01*
X117383333Y-111948619D02*
X117407142Y-111972428D01*
X117407142Y-111972428D02*
X117430952Y-112020047D01*
X117430952Y-112020047D02*
X117430952Y-112067666D01*
X117430952Y-112067666D02*
X117407142Y-112139095D01*
X117407142Y-112139095D02*
X117121428Y-112424809D01*
X117121428Y-112424809D02*
X117430952Y-112424809D01*
X120866666Y-95374809D02*
X120700000Y-95136714D01*
X120580952Y-95374809D02*
X120580952Y-94874809D01*
X120580952Y-94874809D02*
X120771428Y-94874809D01*
X120771428Y-94874809D02*
X120819047Y-94898619D01*
X120819047Y-94898619D02*
X120842857Y-94922428D01*
X120842857Y-94922428D02*
X120866666Y-94970047D01*
X120866666Y-94970047D02*
X120866666Y-95041476D01*
X120866666Y-95041476D02*
X120842857Y-95089095D01*
X120842857Y-95089095D02*
X120819047Y-95112904D01*
X120819047Y-95112904D02*
X120771428Y-95136714D01*
X120771428Y-95136714D02*
X120580952Y-95136714D01*
X121033333Y-94874809D02*
X121366666Y-94874809D01*
X121366666Y-94874809D02*
X121152381Y-95374809D01*
X138066666Y-92874809D02*
X137900000Y-92636714D01*
X137780952Y-92874809D02*
X137780952Y-92374809D01*
X137780952Y-92374809D02*
X137971428Y-92374809D01*
X137971428Y-92374809D02*
X138019047Y-92398619D01*
X138019047Y-92398619D02*
X138042857Y-92422428D01*
X138042857Y-92422428D02*
X138066666Y-92470047D01*
X138066666Y-92470047D02*
X138066666Y-92541476D01*
X138066666Y-92541476D02*
X138042857Y-92589095D01*
X138042857Y-92589095D02*
X138019047Y-92612904D01*
X138019047Y-92612904D02*
X137971428Y-92636714D01*
X137971428Y-92636714D02*
X137780952Y-92636714D01*
X138519047Y-92374809D02*
X138280952Y-92374809D01*
X138280952Y-92374809D02*
X138257143Y-92612904D01*
X138257143Y-92612904D02*
X138280952Y-92589095D01*
X138280952Y-92589095D02*
X138328571Y-92565285D01*
X138328571Y-92565285D02*
X138447619Y-92565285D01*
X138447619Y-92565285D02*
X138495238Y-92589095D01*
X138495238Y-92589095D02*
X138519047Y-92612904D01*
X138519047Y-92612904D02*
X138542857Y-92660523D01*
X138542857Y-92660523D02*
X138542857Y-92779571D01*
X138542857Y-92779571D02*
X138519047Y-92827190D01*
X138519047Y-92827190D02*
X138495238Y-92851000D01*
X138495238Y-92851000D02*
X138447619Y-92874809D01*
X138447619Y-92874809D02*
X138328571Y-92874809D01*
X138328571Y-92874809D02*
X138280952Y-92851000D01*
X138280952Y-92851000D02*
X138257143Y-92827190D01*
D12*
%TO.C,R25*%
X140287258Y-123222500D02*
X139812742Y-123222500D01*
X140287258Y-122177500D02*
X139812742Y-122177500D01*
%TO.C,R27*%
X139812742Y-120427500D02*
X140287258Y-120427500D01*
X139812742Y-121472500D02*
X140287258Y-121472500D01*
%TO.C,R18*%
X117862742Y-123877500D02*
X118337258Y-123877500D01*
X117862742Y-124922500D02*
X118337258Y-124922500D01*
%TO.C,R36*%
X119287258Y-116222500D02*
X118812742Y-116222500D01*
X119287258Y-115177500D02*
X118812742Y-115177500D01*
%TO.C,C11*%
X122397500Y-136412500D02*
X122397500Y-137200000D01*
X122791250Y-136806250D02*
X122003750Y-136806250D01*
X122895563Y-137440000D02*
X121610000Y-137440000D01*
X122895563Y-137440000D02*
X123960000Y-138504437D01*
X118204437Y-137440000D02*
X119490000Y-137440000D01*
X118204437Y-137440000D02*
X117140000Y-138504437D01*
X123960000Y-138504437D02*
X123960000Y-144260000D01*
X117140000Y-138504437D02*
X117140000Y-144260000D01*
X123960000Y-144260000D02*
X121610000Y-144260000D01*
X117140000Y-144260000D02*
X119490000Y-144260000D01*
%TO.C,R22*%
X116727500Y-121362258D02*
X116727500Y-120887742D01*
X117772500Y-121362258D02*
X117772500Y-120887742D01*
%TO.C,R20*%
X139812742Y-115177500D02*
X140287258Y-115177500D01*
X139812742Y-116222500D02*
X140287258Y-116222500D01*
%TO.C,C3*%
X117559420Y-90640000D02*
X117840580Y-90640000D01*
X117559420Y-91660000D02*
X117840580Y-91660000D01*
%TO.C,C1*%
X120834420Y-88140000D02*
X121115580Y-88140000D01*
X120834420Y-89160000D02*
X121115580Y-89160000D01*
%TO.C,C14*%
X140397500Y-136412500D02*
X140397500Y-137200000D01*
X140791250Y-136806250D02*
X140003750Y-136806250D01*
X140895563Y-137440000D02*
X139610000Y-137440000D01*
X140895563Y-137440000D02*
X141960000Y-138504437D01*
X136204437Y-137440000D02*
X137490000Y-137440000D01*
X136204437Y-137440000D02*
X135140000Y-138504437D01*
X141960000Y-138504437D02*
X141960000Y-144260000D01*
X135140000Y-138504437D02*
X135140000Y-144260000D01*
X141960000Y-144260000D02*
X139610000Y-144260000D01*
X135140000Y-144260000D02*
X137490000Y-144260000D01*
%TO.C,R12*%
X137912742Y-98327500D02*
X138387258Y-98327500D01*
X137912742Y-99372500D02*
X138387258Y-99372500D01*
%TO.C,U2*%
X129550000Y-113015000D02*
X126100000Y-113015000D01*
X129550000Y-113015000D02*
X131500000Y-113015000D01*
X129550000Y-121885000D02*
X127600000Y-121885000D01*
X129550000Y-121885000D02*
X131500000Y-121885000D01*
%TO.C,R14*%
X140287258Y-112722500D02*
X139812742Y-112722500D01*
X140287258Y-111677500D02*
X139812742Y-111677500D01*
%TO.C,C7*%
X138290580Y-101910000D02*
X138009420Y-101910000D01*
X138290580Y-100890000D02*
X138009420Y-100890000D01*
%TO.C,R10*%
X141637258Y-96872500D02*
X141162742Y-96872500D01*
X141637258Y-95827500D02*
X141162742Y-95827500D01*
%TO.C,C9*%
X123909420Y-116940000D02*
X124190580Y-116940000D01*
X123909420Y-117960000D02*
X124190580Y-117960000D01*
%TO.C,R30*%
X134812742Y-120427500D02*
X135287258Y-120427500D01*
X134812742Y-121472500D02*
X135287258Y-121472500D01*
%TO.C,C6*%
X117840580Y-99360000D02*
X117559420Y-99360000D01*
X117840580Y-98340000D02*
X117559420Y-98340000D01*
%TO.C,J11*%
X110520000Y-89220000D02*
X110520000Y-104520000D01*
X110520000Y-89220000D02*
X113180000Y-89220000D01*
X110520000Y-104520000D02*
X113180000Y-104520000D01*
X111850000Y-86620000D02*
X113180000Y-86620000D01*
X113180000Y-86620000D02*
X113180000Y-87950000D01*
X113180000Y-89220000D02*
X113180000Y-104520000D01*
%TO.C,C12*%
X135190580Y-117950000D02*
X134909420Y-117950000D01*
X135190580Y-116930000D02*
X134909420Y-116930000D01*
%TO.C,R13*%
X138387258Y-96872500D02*
X137912742Y-96872500D01*
X138387258Y-95827500D02*
X137912742Y-95827500D01*
%TO.C,R37*%
X124287258Y-114472500D02*
X123812742Y-114472500D01*
X124287258Y-113427500D02*
X123812742Y-113427500D01*
%TO.C,R28*%
X114272500Y-120887742D02*
X114272500Y-121362258D01*
X113227500Y-120887742D02*
X113227500Y-121362258D01*
%TO.C,R23*%
X119522500Y-120887742D02*
X119522500Y-121362258D01*
X118477500Y-120887742D02*
X118477500Y-121362258D01*
%TO.C,R29*%
X139812742Y-118677500D02*
X140287258Y-118677500D01*
X139812742Y-119722500D02*
X140287258Y-119722500D01*
%TO.C,R1*%
X137912742Y-88127500D02*
X138387258Y-88127500D01*
X137912742Y-89172500D02*
X138387258Y-89172500D01*
%TO.C,C8*%
X134909420Y-111690000D02*
X135190580Y-111690000D01*
X134909420Y-112710000D02*
X135190580Y-112710000D01*
%TO.C,R34*%
X137912742Y-103377500D02*
X138387258Y-103377500D01*
X137912742Y-104422500D02*
X138387258Y-104422500D01*
%TO.C,R31*%
X116022500Y-120887742D02*
X116022500Y-121362258D01*
X114977500Y-120887742D02*
X114977500Y-121362258D01*
%TO.C,R33*%
X119287258Y-114472500D02*
X118812742Y-114472500D01*
X119287258Y-113427500D02*
X118812742Y-113427500D01*
%TO.C,J12*%
X145970000Y-130420000D02*
X145970000Y-145720000D01*
X145970000Y-130420000D02*
X148630000Y-130420000D01*
X145970000Y-145720000D02*
X148630000Y-145720000D01*
X147300000Y-127820000D02*
X148630000Y-127820000D01*
X148630000Y-127820000D02*
X148630000Y-129150000D01*
X148630000Y-130420000D02*
X148630000Y-145720000D01*
%TO.C,R11*%
X129957500Y-97737258D02*
X129957500Y-97262742D01*
X131002500Y-97737258D02*
X131002500Y-97262742D01*
%TO.C,R15*%
X134812742Y-115177500D02*
X135287258Y-115177500D01*
X134812742Y-116222500D02*
X135287258Y-116222500D01*
%TO.C,R2*%
X117462742Y-93227500D02*
X117937258Y-93227500D01*
X117462742Y-94272500D02*
X117937258Y-94272500D01*
%TO.C,C5*%
X120809420Y-100840000D02*
X121090580Y-100840000D01*
X120809420Y-101860000D02*
X121090580Y-101860000D01*
%TO.C,C4*%
X141540580Y-94260000D02*
X141259420Y-94260000D01*
X141540580Y-93240000D02*
X141259420Y-93240000D01*
%TO.C,R24*%
X138387258Y-106972500D02*
X137912742Y-106972500D01*
X138387258Y-105927500D02*
X137912742Y-105927500D01*
%TO.C,R26*%
X134812742Y-118677500D02*
X135287258Y-118677500D01*
X134812742Y-119722500D02*
X135287258Y-119722500D01*
%TO.C,R4*%
X120712742Y-90627500D02*
X121187258Y-90627500D01*
X120712742Y-91672500D02*
X121187258Y-91672500D01*
%TO.C,R17*%
X120227500Y-121362258D02*
X120227500Y-120887742D01*
X121272500Y-121362258D02*
X121272500Y-120887742D01*
%TO.C,R19*%
X123022500Y-120887742D02*
X123022500Y-121362258D01*
X121977500Y-120887742D02*
X121977500Y-121362258D01*
%TO.C,R16*%
X139812742Y-113427500D02*
X140287258Y-113427500D01*
X139812742Y-114472500D02*
X140287258Y-114472500D01*
%TO.C,C13*%
X141630000Y-101500580D02*
X141630000Y-101219420D01*
X142650000Y-101500580D02*
X142650000Y-101219420D01*
%TO.C,R3*%
X137912742Y-90727500D02*
X138387258Y-90727500D01*
X137912742Y-91772500D02*
X138387258Y-91772500D01*
%TO.C,R9*%
X141637258Y-99372500D02*
X141162742Y-99372500D01*
X141637258Y-98327500D02*
X141162742Y-98327500D01*
%TO.C,C2*%
X117559420Y-95740000D02*
X117840580Y-95740000D01*
X117559420Y-96760000D02*
X117840580Y-96760000D01*
%TO.C,R35*%
X121837258Y-124922500D02*
X121362742Y-124922500D01*
X121837258Y-123877500D02*
X121362742Y-123877500D01*
%TO.C,C10*%
X134909420Y-122190000D02*
X135190580Y-122190000D01*
X134909420Y-123210000D02*
X135190580Y-123210000D01*
%TO.C,R8*%
X121187258Y-99372500D02*
X120712742Y-99372500D01*
X121187258Y-98327500D02*
X120712742Y-98327500D01*
%TO.C,U3*%
X143500000Y-99970000D02*
X144640000Y-99970000D01*
X144640000Y-99740000D02*
X144640000Y-99970000D01*
X144640000Y-99740000D02*
X147360000Y-99740000D01*
X144640000Y-104460000D02*
X144640000Y-104230000D01*
X147360000Y-99740000D02*
X147360000Y-101050000D01*
X147360000Y-103150000D02*
X147360000Y-104460000D01*
X147360000Y-104460000D02*
X144640000Y-104460000D01*
%TO.C,R6*%
X120712742Y-93227500D02*
X121187258Y-93227500D01*
X120712742Y-94272500D02*
X121187258Y-94272500D01*
%TO.C,R21*%
X134812742Y-113427500D02*
X135287258Y-113427500D01*
X134812742Y-114472500D02*
X135287258Y-114472500D01*
%TO.C,R32*%
X118812742Y-111677500D02*
X119287258Y-111677500D01*
X118812742Y-112722500D02*
X119287258Y-112722500D01*
%TO.C,R7*%
X121187258Y-96772500D02*
X120712742Y-96772500D01*
X121187258Y-95727500D02*
X120712742Y-95727500D01*
%TO.C,R5*%
X137912742Y-93227500D02*
X138387258Y-93227500D01*
X137912742Y-94272500D02*
X138387258Y-94272500D01*
%TD*%
M02*
