%TF.GenerationSoftware,KiCad,Pcbnew,7.0.10*%
%TF.CreationDate,2024-02-20T22:03:50-06:00*%
%TF.ProjectId,3340_VCO,33333430-5f56-4434-9f2e-6b696361645f,rev?*%
%TF.SameCoordinates,Original*%
%TF.FileFunction,Soldermask,Bot*%
%TF.FilePolarity,Negative*%
%FSLAX46Y46*%
G04 Gerber Fmt 4.6, Leading zero omitted, Abs format (unit mm)*
G04 Created by KiCad (PCBNEW 7.0.10) date 2024-02-20 22:03:50*
%MOMM*%
%LPD*%
G01*
G04 APERTURE LIST*
G04 Aperture macros list*
%AMRoundRect*
0 Rectangle with rounded corners*
0 $1 Rounding radius*
0 $2 $3 $4 $5 $6 $7 $8 $9 X,Y pos of 4 corners*
0 Add a 4 corners polygon primitive as box body*
4,1,4,$2,$3,$4,$5,$6,$7,$8,$9,$2,$3,0*
0 Add four circle primitives for the rounded corners*
1,1,$1+$1,$2,$3*
1,1,$1+$1,$4,$5*
1,1,$1+$1,$6,$7*
1,1,$1+$1,$8,$9*
0 Add four rect primitives between the rounded corners*
20,1,$1+$1,$2,$3,$4,$5,0*
20,1,$1+$1,$4,$5,$6,$7,0*
20,1,$1+$1,$6,$7,$8,$9,0*
20,1,$1+$1,$8,$9,$2,$3,0*%
G04 Aperture macros list end*
%ADD10R,1.700000X1.700000*%
%ADD11O,1.700000X1.700000*%
%ADD12C,1.440000*%
%ADD13RoundRect,0.250000X-0.600000X-0.600000X0.600000X-0.600000X0.600000X0.600000X-0.600000X0.600000X0*%
%ADD14C,1.700000*%
%ADD15R,2.400000X1.600000*%
%ADD16O,2.400000X1.600000*%
G04 APERTURE END LIST*
D10*
%TO.C,J11*%
X111850000Y-87950000D03*
D11*
X111850000Y-90490000D03*
X111850000Y-93030000D03*
X111850000Y-95570000D03*
X111850000Y-98110000D03*
X111850000Y-100650000D03*
X111850000Y-103190000D03*
%TD*%
D10*
%TO.C,J12*%
X147300000Y-129150000D03*
D11*
X147300000Y-131690000D03*
X147300000Y-134230000D03*
X147300000Y-136770000D03*
X147300000Y-139310000D03*
X147300000Y-141850000D03*
X147300000Y-144390000D03*
%TD*%
D12*
%TO.C,RV7*%
X145850000Y-107650000D03*
X145850000Y-110190000D03*
X145850000Y-112730000D03*
%TD*%
D13*
%TO.C,J7*%
X128310000Y-140550000D03*
D14*
X130850000Y-140550000D03*
X128310000Y-138010000D03*
X130850000Y-138010000D03*
X128310000Y-135470000D03*
X130850000Y-135470000D03*
X128310000Y-132930000D03*
X130850000Y-132930000D03*
X128310000Y-130390000D03*
X130850000Y-130390000D03*
%TD*%
D15*
%TO.C,U1*%
X133350000Y-88675000D03*
D16*
X133350000Y-91215000D03*
X133350000Y-93755000D03*
X133350000Y-96295000D03*
X133350000Y-98835000D03*
X133350000Y-101375000D03*
X133350000Y-103915000D03*
X133350000Y-106455000D03*
X125730000Y-106455000D03*
X125730000Y-103915000D03*
X125730000Y-101375000D03*
X125730000Y-98835000D03*
X125730000Y-96295000D03*
X125730000Y-93755000D03*
X125730000Y-91215000D03*
X125730000Y-88675000D03*
%TD*%
D12*
%TO.C,RV1*%
X145850000Y-89150000D03*
X145850000Y-91690000D03*
X145850000Y-94230000D03*
%TD*%
M02*
