%TF.GenerationSoftware,KiCad,Pcbnew,7.0.10*%
%TF.CreationDate,2024-02-20T22:03:49-06:00*%
%TF.ProjectId,3340_VCO,33333430-5f56-4434-9f2e-6b696361645f,rev?*%
%TF.SameCoordinates,Original*%
%TF.FileFunction,Copper,L2,Bot*%
%TF.FilePolarity,Positive*%
%FSLAX46Y46*%
G04 Gerber Fmt 4.6, Leading zero omitted, Abs format (unit mm)*
G04 Created by KiCad (PCBNEW 7.0.10) date 2024-02-20 22:03:49*
%MOMM*%
%LPD*%
G01*
G04 APERTURE LIST*
G04 Aperture macros list*
%AMRoundRect*
0 Rectangle with rounded corners*
0 $1 Rounding radius*
0 $2 $3 $4 $5 $6 $7 $8 $9 X,Y pos of 4 corners*
0 Add a 4 corners polygon primitive as box body*
4,1,4,$2,$3,$4,$5,$6,$7,$8,$9,$2,$3,0*
0 Add four circle primitives for the rounded corners*
1,1,$1+$1,$2,$3*
1,1,$1+$1,$4,$5*
1,1,$1+$1,$6,$7*
1,1,$1+$1,$8,$9*
0 Add four rect primitives between the rounded corners*
20,1,$1+$1,$2,$3,$4,$5,0*
20,1,$1+$1,$4,$5,$6,$7,0*
20,1,$1+$1,$6,$7,$8,$9,0*
20,1,$1+$1,$8,$9,$2,$3,0*%
G04 Aperture macros list end*
%TA.AperFunction,ComponentPad*%
%ADD10R,1.700000X1.700000*%
%TD*%
%TA.AperFunction,ComponentPad*%
%ADD11O,1.700000X1.700000*%
%TD*%
%TA.AperFunction,ComponentPad*%
%ADD12C,1.440000*%
%TD*%
%TA.AperFunction,ComponentPad*%
%ADD13RoundRect,0.250000X-0.600000X-0.600000X0.600000X-0.600000X0.600000X0.600000X-0.600000X0.600000X0*%
%TD*%
%TA.AperFunction,ComponentPad*%
%ADD14C,1.700000*%
%TD*%
%TA.AperFunction,ComponentPad*%
%ADD15R,2.400000X1.600000*%
%TD*%
%TA.AperFunction,ComponentPad*%
%ADD16O,2.400000X1.600000*%
%TD*%
%TA.AperFunction,ViaPad*%
%ADD17C,0.800000*%
%TD*%
%TA.AperFunction,Conductor*%
%ADD18C,0.500000*%
%TD*%
%TA.AperFunction,Conductor*%
%ADD19C,0.300000*%
%TD*%
G04 APERTURE END LIST*
D10*
%TO.P,J11,1,Pin_1*%
%TO.N,/coarse2_a*%
X111850000Y-87950000D03*
D11*
%TO.P,J11,2,Pin_2*%
%TO.N,/coarse3_a*%
X111850000Y-90490000D03*
%TO.P,J11,3,Pin_3*%
%TO.N,/fine2_a*%
X111850000Y-93030000D03*
%TO.P,J11,4,Pin_4*%
%TO.N,/fine3_a*%
X111850000Y-95570000D03*
%TO.P,J11,5,Pin_5*%
%TO.N,/linfm_a*%
X111850000Y-98110000D03*
%TO.P,J11,6,Pin_6*%
%TO.N,/cvmod_a*%
X111850000Y-100650000D03*
%TO.P,J11,7,Pin_7*%
%TO.N,/voct_a*%
X111850000Y-103190000D03*
%TD*%
D10*
%TO.P,J12,1,Pin_1*%
%TO.N,+5V*%
X147300000Y-129150000D03*
D11*
%TO.P,J12,2,Pin_2*%
%TO.N,/pwm_a*%
X147300000Y-131690000D03*
%TO.P,J12,3,Pin_3*%
%TO.N,/sync_a*%
X147300000Y-134230000D03*
%TO.P,J12,4,Pin_4*%
%TO.N,/pulse_a*%
X147300000Y-136770000D03*
%TO.P,J12,5,Pin_5*%
%TO.N,/saw_a*%
X147300000Y-139310000D03*
%TO.P,J12,6,Pin_6*%
%TO.N,/tri_a*%
X147300000Y-141850000D03*
%TO.P,J12,7,Pin_7*%
%TO.N,GND*%
X147300000Y-144390000D03*
%TD*%
D12*
%TO.P,RV7,1,1*%
%TO.N,GND*%
X145850000Y-107650000D03*
%TO.P,RV7,2,2*%
%TO.N,Net-(R35-Pad1)*%
X145850000Y-110190000D03*
%TO.P,RV7,3,3*%
%TO.N,Net-(R34-Pad2)*%
X145850000Y-112730000D03*
%TD*%
D13*
%TO.P,J7,1,Pin_1*%
%TO.N,-12V*%
X128310000Y-140550000D03*
D14*
%TO.P,J7,2,Pin_2*%
X130850000Y-140550000D03*
%TO.P,J7,3,Pin_3*%
%TO.N,GND*%
X128310000Y-138010000D03*
%TO.P,J7,4,Pin_4*%
X130850000Y-138010000D03*
%TO.P,J7,5,Pin_5*%
X128310000Y-135470000D03*
%TO.P,J7,6,Pin_6*%
X130850000Y-135470000D03*
%TO.P,J7,7,Pin_7*%
X128310000Y-132930000D03*
%TO.P,J7,8,Pin_8*%
X130850000Y-132930000D03*
%TO.P,J7,9,Pin_9*%
%TO.N,+12V*%
X128310000Y-130390000D03*
%TO.P,J7,10,Pin_10*%
X130850000Y-130390000D03*
%TD*%
D15*
%TO.P,U1,1,SCALE1*%
%TO.N,Net-(U1-SCALE1)*%
X133350000Y-88675000D03*
D16*
%TO.P,U1,2,SCALE2*%
%TO.N,Net-(U1-SCALE2)*%
X133350000Y-91215000D03*
%TO.P,U1,3,VEE*%
%TO.N,Net-(U1-VEE)*%
X133350000Y-93755000D03*
%TO.P,U1,4,VP*%
%TO.N,/PULSE*%
X133350000Y-96295000D03*
%TO.P,U1,5,PWM*%
%TO.N,/PWM*%
X133350000Y-98835000D03*
%TO.P,U1,6,VHSI*%
%TO.N,/HSYNC*%
X133350000Y-101375000D03*
%TO.P,U1,7,VHFT*%
%TO.N,/VHFT*%
X133350000Y-103915000D03*
%TO.P,U1,8,VSO*%
%TO.N,/SAW*%
X133350000Y-106455000D03*
%TO.P,U1,9,VSSI*%
%TO.N,unconnected-(U1-VSSI-Pad9)*%
X125730000Y-106455000D03*
%TO.P,U1,10,VTO*%
%TO.N,/TRI*%
X125730000Y-103915000D03*
%TO.P,U1,11,CAP*%
%TO.N,Net-(U1-CAP)*%
X125730000Y-101375000D03*
%TO.P,U1,12,GND*%
%TO.N,GND*%
X125730000Y-98835000D03*
%TO.P,U1,13,VLFI*%
%TO.N,/LIN_FM*%
X125730000Y-96295000D03*
%TO.P,U1,14,VS*%
%TO.N,Net-(U1-VS)*%
X125730000Y-93755000D03*
%TO.P,U1,15,VFCI*%
%TO.N,/CV_IN*%
X125730000Y-91215000D03*
%TO.P,U1,16,VCC*%
%TO.N,+12V*%
X125730000Y-88675000D03*
%TD*%
D12*
%TO.P,RV1,1,1*%
%TO.N,Net-(R1-Pad2)*%
X145850000Y-89150000D03*
%TO.P,RV1,2,2*%
%TO.N,Net-(U1-VEE)*%
X145850000Y-91690000D03*
%TO.P,RV1,3,3*%
X145850000Y-94230000D03*
%TD*%
D17*
%TO.N,GND*%
X145850000Y-106300000D03*
X120100000Y-92850000D03*
X116500500Y-115700000D03*
X140900000Y-116600000D03*
X141800000Y-89950000D03*
X117400000Y-99700000D03*
X116950000Y-90250000D03*
X119150000Y-143650000D03*
X143050000Y-93750000D03*
X119749500Y-102250000D03*
X125650000Y-118700000D03*
X123840000Y-98840000D03*
X136700000Y-119200000D03*
X119350000Y-88650000D03*
X139000000Y-99900000D03*
X137300000Y-127350000D03*
X142800000Y-102950000D03*
X132050000Y-111400000D03*
X145850000Y-117900000D03*
X140900000Y-118300000D03*
%TO.N,+5V*%
X145300000Y-100600000D03*
%TO.N,/sync_a*%
X140050000Y-101400000D03*
%TO.N,/CV_IN*%
X123600000Y-121950000D03*
%TO.N,Net-(U2C-+)*%
X137300000Y-118300000D03*
X138950000Y-105300000D03*
%TO.N,Net-(U2D-+)*%
X137300000Y-116500000D03*
X139000000Y-95200000D03*
%TO.N,Net-(R34-Pad2)*%
X142749500Y-107650000D03*
X141050500Y-107650000D03*
%TO.N,Net-(R35-Pad1)*%
X130750688Y-125449312D03*
X128310500Y-125450000D03*
%TO.N,/TRI*%
X125450000Y-116180000D03*
%TO.N,/pwm_a*%
X143350000Y-96350000D03*
%TO.N,/pulse_a*%
X140900000Y-111050000D03*
%TO.N,/coarse3_a*%
X120750000Y-119200000D03*
%TO.N,/coarse2_a*%
X122500000Y-119200000D03*
%TO.N,/fine3_a*%
X117250000Y-119200000D03*
%TO.N,/fine2_a*%
X119000000Y-119200000D03*
%TO.N,/saw_a*%
X140900000Y-123650500D03*
%TO.N,/cvmod_a*%
X115500000Y-119200000D03*
%TO.N,/tri_a*%
X118250000Y-111000000D03*
%TO.N,GND*%
X145710000Y-144390000D03*
X136550000Y-115000000D03*
X123250000Y-116350000D03*
X132100000Y-122650000D03*
X124850000Y-111400000D03*
X130100000Y-116250000D03*
X139950000Y-138050000D03*
X136700000Y-117450000D03*
X130680000Y-102710000D03*
%TD*%
D18*
%TO.N,+5V*%
X147300000Y-102600000D02*
X147300000Y-129150000D01*
D19*
%TO.N,/sync_a*%
X143700000Y-105050000D02*
X140050000Y-101400000D01*
X143700000Y-130630000D02*
X147300000Y-134230000D01*
%TO.N,Net-(U2D-+)*%
X137300000Y-96900000D02*
X139000000Y-95200000D01*
D18*
%TO.N,+5V*%
X145300000Y-100600000D02*
X147300000Y-102600000D01*
D19*
%TO.N,/sync_a*%
X143700000Y-130630000D02*
X143700000Y-105050000D01*
%TO.N,Net-(U2C-+)*%
X138950000Y-105300000D02*
X138950000Y-116650000D01*
X138950000Y-116650000D02*
X137300000Y-118300000D01*
%TO.N,/CV_IN*%
X126855000Y-91215000D02*
X125730000Y-91215000D01*
X123600000Y-121950000D02*
X129140000Y-116410000D01*
X129140000Y-93500000D02*
X126855000Y-91215000D01*
X129140000Y-116410000D02*
X129140000Y-93500000D01*
%TO.N,Net-(U2D-+)*%
X137300000Y-116500000D02*
X137300000Y-96900000D01*
%TO.N,/tri_a*%
X131850000Y-126400000D02*
X119800000Y-126400000D01*
X118250000Y-124850000D02*
X118250000Y-111000000D01*
X147300000Y-141850000D02*
X131850000Y-126400000D01*
X119800000Y-126400000D02*
X118250000Y-124850000D01*
%TO.N,/cvmod_a*%
X111850000Y-100650000D02*
X115500000Y-104300000D01*
X115500000Y-119200000D02*
X115500000Y-104300000D01*
%TO.N,/saw_a*%
X140900000Y-132910000D02*
X147300000Y-139310000D01*
X140900000Y-123650500D02*
X140900000Y-132910000D01*
%TO.N,/fine2_a*%
X119000000Y-119200000D02*
X119000000Y-100180000D01*
X111850000Y-93030000D02*
X119000000Y-100180000D01*
%TO.N,/fine3_a*%
X117250000Y-119200000D02*
X117250000Y-100970000D01*
X111850000Y-95570000D02*
X117250000Y-100970000D01*
%TO.N,/coarse2_a*%
X111850000Y-87950000D02*
X122500000Y-98600000D01*
X122500000Y-119200000D02*
X122500000Y-98600000D01*
%TO.N,/coarse3_a*%
X111850000Y-90490000D02*
X120750000Y-99390000D01*
X120750000Y-119200000D02*
X120750000Y-99390000D01*
%TO.N,/pulse_a*%
X142100000Y-131570000D02*
X142100000Y-112250000D01*
X142100000Y-131570000D02*
X147300000Y-136770000D01*
X142100000Y-112250000D02*
X140900000Y-111050000D01*
%TO.N,/pwm_a*%
X144550000Y-97550000D02*
X143350000Y-96350000D01*
X144550000Y-128940000D02*
X144550000Y-97550000D01*
X144550000Y-128940000D02*
X147300000Y-131690000D01*
%TO.N,/TRI*%
X126815000Y-103915000D02*
X125730000Y-103915000D01*
X125450000Y-116180000D02*
X127900000Y-113730000D01*
X127900000Y-105000000D02*
X126815000Y-103915000D01*
X127900000Y-113730000D02*
X127900000Y-105000000D01*
%TO.N,Net-(R35-Pad1)*%
X128311188Y-125449312D02*
X130750688Y-125449312D01*
X128310500Y-125450000D02*
X128311188Y-125449312D01*
%TO.N,Net-(R34-Pad2)*%
X141050500Y-107650000D02*
X142749500Y-107650000D01*
%TD*%
%TA.AperFunction,Conductor*%
%TO.N,GND*%
G36*
X146505956Y-113850776D02*
G01*
X146544196Y-113909253D01*
X146549500Y-113945131D01*
X146549500Y-127675500D01*
X146529815Y-127742539D01*
X146477011Y-127788294D01*
X146425505Y-127799500D01*
X146402132Y-127799500D01*
X146402123Y-127799501D01*
X146342516Y-127805908D01*
X146207671Y-127856202D01*
X146207664Y-127856206D01*
X146092455Y-127942452D01*
X146092452Y-127942455D01*
X146006206Y-128057664D01*
X146006202Y-128057671D01*
X145955908Y-128192517D01*
X145949501Y-128252116D01*
X145949501Y-128252123D01*
X145949500Y-128252135D01*
X145949500Y-129120192D01*
X145929815Y-129187231D01*
X145877011Y-129232986D01*
X145807853Y-129242930D01*
X145744297Y-129213905D01*
X145737819Y-129207873D01*
X145236819Y-128706873D01*
X145203334Y-128645550D01*
X145200500Y-128619192D01*
X145200500Y-113968446D01*
X145220185Y-113901407D01*
X145272989Y-113855652D01*
X145342147Y-113845708D01*
X145376897Y-113856061D01*
X145430970Y-113881276D01*
X145637253Y-113936549D01*
X145789215Y-113949844D01*
X145849998Y-113955162D01*
X145850000Y-113955162D01*
X145850002Y-113955162D01*
X145903186Y-113950508D01*
X146062747Y-113936549D01*
X146269030Y-113881276D01*
X146373096Y-113832748D01*
X146442172Y-113822257D01*
X146505956Y-113850776D01*
G37*
%TD.AperFunction*%
%TA.AperFunction,Conductor*%
G36*
X113414962Y-98054908D02*
G01*
X116563181Y-101203127D01*
X116596666Y-101264450D01*
X116599500Y-101290808D01*
X116599500Y-118529078D01*
X116579815Y-118596117D01*
X116567650Y-118612050D01*
X116517466Y-118667785D01*
X116482387Y-118728544D01*
X116431820Y-118776760D01*
X116363213Y-118789983D01*
X116298348Y-118764015D01*
X116267613Y-118728544D01*
X116256549Y-118709381D01*
X116232533Y-118667784D01*
X116182350Y-118612050D01*
X116152120Y-118549058D01*
X116150500Y-118529078D01*
X116150500Y-104385503D01*
X116152268Y-104369491D01*
X116152026Y-104369469D01*
X116152760Y-104361706D01*
X116150561Y-104291722D01*
X116150500Y-104287828D01*
X116150500Y-104259078D01*
X116150499Y-104259071D01*
X116149950Y-104254725D01*
X116149031Y-104243062D01*
X116147598Y-104197431D01*
X116141676Y-104177050D01*
X116137731Y-104157995D01*
X116135072Y-104136949D01*
X116135071Y-104136947D01*
X116135071Y-104136942D01*
X116118267Y-104094501D01*
X116114484Y-104083452D01*
X116108076Y-104061395D01*
X116101745Y-104039602D01*
X116096180Y-104030192D01*
X116090936Y-104021324D01*
X116082378Y-104003855D01*
X116074568Y-103984129D01*
X116047721Y-103947179D01*
X116041331Y-103937449D01*
X116018081Y-103898135D01*
X116003075Y-103883129D01*
X115990435Y-103868330D01*
X115977961Y-103851160D01*
X115942780Y-103822056D01*
X115934140Y-103814194D01*
X113197709Y-101077763D01*
X113164224Y-101016440D01*
X113165615Y-100957989D01*
X113173364Y-100929070D01*
X113185063Y-100885408D01*
X113205659Y-100650000D01*
X113185063Y-100414592D01*
X113123903Y-100186337D01*
X113024035Y-99972171D01*
X113021854Y-99969055D01*
X112888494Y-99778597D01*
X112721402Y-99611506D01*
X112721396Y-99611501D01*
X112535842Y-99481575D01*
X112492217Y-99426998D01*
X112485023Y-99357500D01*
X112516546Y-99295145D01*
X112535842Y-99278425D01*
X112558026Y-99262891D01*
X112721401Y-99148495D01*
X112888495Y-98981401D01*
X113024035Y-98787830D01*
X113123903Y-98573663D01*
X113185063Y-98345408D01*
X113203753Y-98131781D01*
X113229205Y-98066713D01*
X113285796Y-98025734D01*
X113355558Y-98021856D01*
X113414962Y-98054908D01*
G37*
%TD.AperFunction*%
%TA.AperFunction,Conductor*%
G36*
X113414962Y-92974908D02*
G01*
X120063181Y-99623127D01*
X120096666Y-99684450D01*
X120099500Y-99710808D01*
X120099500Y-118529078D01*
X120079815Y-118596117D01*
X120067650Y-118612050D01*
X120017466Y-118667785D01*
X119982387Y-118728544D01*
X119931820Y-118776760D01*
X119863213Y-118789983D01*
X119798348Y-118764015D01*
X119767613Y-118728544D01*
X119756549Y-118709381D01*
X119732533Y-118667784D01*
X119682350Y-118612050D01*
X119652120Y-118549058D01*
X119650500Y-118529078D01*
X119650500Y-100265502D01*
X119652268Y-100249489D01*
X119652026Y-100249467D01*
X119652758Y-100241711D01*
X119652760Y-100241704D01*
X119650561Y-100171736D01*
X119650500Y-100167841D01*
X119650500Y-100139077D01*
X119650499Y-100139070D01*
X119649949Y-100134716D01*
X119649030Y-100123054D01*
X119647597Y-100077431D01*
X119641676Y-100057053D01*
X119637731Y-100038004D01*
X119635071Y-100016942D01*
X119618263Y-99974491D01*
X119614480Y-99963442D01*
X119601744Y-99919602D01*
X119590940Y-99901334D01*
X119582378Y-99883856D01*
X119574568Y-99864129D01*
X119574565Y-99864125D01*
X119547730Y-99827189D01*
X119541331Y-99817448D01*
X119518081Y-99778135D01*
X119518079Y-99778133D01*
X119518078Y-99778131D01*
X119503075Y-99763129D01*
X119490435Y-99748330D01*
X119477961Y-99731160D01*
X119442780Y-99702056D01*
X119434140Y-99694194D01*
X113197709Y-93457763D01*
X113164224Y-93396440D01*
X113165615Y-93337989D01*
X113166545Y-93334517D01*
X113185063Y-93265408D01*
X113203753Y-93051781D01*
X113229205Y-92986713D01*
X113285796Y-92945734D01*
X113355558Y-92941856D01*
X113414962Y-92974908D01*
G37*
%TD.AperFunction*%
%TA.AperFunction,Conductor*%
G36*
X113414962Y-95514908D02*
G01*
X118313181Y-100413127D01*
X118346666Y-100474450D01*
X118349500Y-100500808D01*
X118349500Y-109975500D01*
X118329815Y-110042539D01*
X118277011Y-110088294D01*
X118225500Y-110099500D01*
X118155354Y-110099500D01*
X118050280Y-110121834D01*
X117980613Y-110116517D01*
X117924880Y-110074379D01*
X117900775Y-110008799D01*
X117900500Y-110000543D01*
X117900500Y-101055501D01*
X117902268Y-101039488D01*
X117902026Y-101039466D01*
X117902758Y-101031710D01*
X117902760Y-101031703D01*
X117900561Y-100961735D01*
X117900500Y-100957840D01*
X117900500Y-100929077D01*
X117900499Y-100929070D01*
X117900428Y-100928511D01*
X117899948Y-100924714D01*
X117899030Y-100913054D01*
X117897597Y-100867430D01*
X117891676Y-100847052D01*
X117887731Y-100828003D01*
X117885071Y-100806942D01*
X117868261Y-100764487D01*
X117864481Y-100753445D01*
X117856831Y-100727111D01*
X117851744Y-100709601D01*
X117840939Y-100691332D01*
X117832379Y-100673858D01*
X117831351Y-100671262D01*
X117824568Y-100654129D01*
X117797737Y-100617199D01*
X117791323Y-100607435D01*
X117768082Y-100568137D01*
X117768081Y-100568135D01*
X117753075Y-100553129D01*
X117740435Y-100538330D01*
X117738641Y-100535861D01*
X117727963Y-100521163D01*
X117727961Y-100521160D01*
X117692780Y-100492056D01*
X117684140Y-100484194D01*
X113197709Y-95997763D01*
X113164224Y-95936440D01*
X113165615Y-95877989D01*
X113166982Y-95872888D01*
X113185063Y-95805408D01*
X113203753Y-95591781D01*
X113229205Y-95526713D01*
X113285796Y-95485734D01*
X113355558Y-95481856D01*
X113414962Y-95514908D01*
G37*
%TD.AperFunction*%
%TA.AperFunction,Conductor*%
G36*
X145405703Y-101767516D02*
G01*
X145412181Y-101773548D01*
X146513181Y-102874548D01*
X146546666Y-102935871D01*
X146549500Y-102962229D01*
X146549500Y-106435420D01*
X146529815Y-106502459D01*
X146477011Y-106548214D01*
X146407853Y-106558158D01*
X146373096Y-106547802D01*
X146268864Y-106499198D01*
X146268853Y-106499194D01*
X146062662Y-106443945D01*
X146062654Y-106443944D01*
X145850002Y-106425340D01*
X145849998Y-106425340D01*
X145637345Y-106443944D01*
X145637337Y-106443945D01*
X145431146Y-106499194D01*
X145431135Y-106499198D01*
X145376904Y-106524487D01*
X145307827Y-106534979D01*
X145244043Y-106506459D01*
X145205804Y-106447982D01*
X145200500Y-106412105D01*
X145200500Y-101861229D01*
X145220185Y-101794190D01*
X145272989Y-101748435D01*
X145342147Y-101738491D01*
X145405703Y-101767516D01*
G37*
%TD.AperFunction*%
%TA.AperFunction,Conductor*%
G36*
X130390507Y-138219844D02*
G01*
X130468239Y-138340798D01*
X130576900Y-138434952D01*
X130707685Y-138494680D01*
X130717466Y-138496086D01*
X130088625Y-139124925D01*
X130164594Y-139178119D01*
X130208219Y-139232696D01*
X130215413Y-139302194D01*
X130183890Y-139364549D01*
X130164595Y-139381269D01*
X129978594Y-139511508D01*
X129811503Y-139678599D01*
X129810349Y-139679975D01*
X129809688Y-139680414D01*
X129807676Y-139682427D01*
X129807271Y-139682022D01*
X129752173Y-139718671D01*
X129682312Y-139719772D01*
X129622946Y-139682928D01*
X129597663Y-139639265D01*
X129594814Y-139630666D01*
X129502712Y-139481344D01*
X129378656Y-139357288D01*
X129229334Y-139265186D01*
X129156966Y-139241205D01*
X129099522Y-139201433D01*
X129072699Y-139136917D01*
X129072585Y-139126137D01*
X128442533Y-138496086D01*
X128452315Y-138494680D01*
X128583100Y-138434952D01*
X128691761Y-138340798D01*
X128769493Y-138219844D01*
X128793076Y-138139524D01*
X129424925Y-138771373D01*
X129478425Y-138694968D01*
X129533002Y-138651344D01*
X129602501Y-138644151D01*
X129664855Y-138675673D01*
X129681576Y-138694969D01*
X129735073Y-138771372D01*
X130366922Y-138139523D01*
X130390507Y-138219844D01*
G37*
%TD.AperFunction*%
%TA.AperFunction,Conductor*%
G36*
X130390507Y-135679844D02*
G01*
X130468239Y-135800798D01*
X130576900Y-135894952D01*
X130707685Y-135954680D01*
X130717466Y-135956086D01*
X130088625Y-136584925D01*
X130165031Y-136638425D01*
X130208655Y-136693002D01*
X130215848Y-136762501D01*
X130184326Y-136824855D01*
X130165029Y-136841576D01*
X130088625Y-136895072D01*
X130717466Y-137523913D01*
X130707685Y-137525320D01*
X130576900Y-137585048D01*
X130468239Y-137679202D01*
X130390507Y-137800156D01*
X130366923Y-137880475D01*
X129735073Y-137248625D01*
X129735072Y-137248626D01*
X129681574Y-137325030D01*
X129626998Y-137368655D01*
X129557499Y-137375849D01*
X129495144Y-137344326D01*
X129478424Y-137325030D01*
X129424925Y-137248626D01*
X129424925Y-137248625D01*
X128793076Y-137880475D01*
X128769493Y-137800156D01*
X128691761Y-137679202D01*
X128583100Y-137585048D01*
X128452315Y-137525320D01*
X128442533Y-137523913D01*
X129071373Y-136895073D01*
X128994969Y-136841576D01*
X128951344Y-136786999D01*
X128944150Y-136717501D01*
X128975672Y-136655146D01*
X128994968Y-136638425D01*
X129071373Y-136584925D01*
X128442533Y-135956086D01*
X128452315Y-135954680D01*
X128583100Y-135894952D01*
X128691761Y-135800798D01*
X128769493Y-135679844D01*
X128793076Y-135599524D01*
X129424925Y-136231373D01*
X129478425Y-136154968D01*
X129533002Y-136111344D01*
X129602501Y-136104151D01*
X129664855Y-136135673D01*
X129681576Y-136154969D01*
X129735073Y-136231372D01*
X130366922Y-135599523D01*
X130390507Y-135679844D01*
G37*
%TD.AperFunction*%
%TA.AperFunction,Conductor*%
G36*
X130390507Y-133139844D02*
G01*
X130468239Y-133260798D01*
X130576900Y-133354952D01*
X130707685Y-133414680D01*
X130717466Y-133416086D01*
X130088625Y-134044925D01*
X130165031Y-134098425D01*
X130208655Y-134153002D01*
X130215848Y-134222501D01*
X130184326Y-134284855D01*
X130165029Y-134301576D01*
X130088625Y-134355072D01*
X130717466Y-134983913D01*
X130707685Y-134985320D01*
X130576900Y-135045048D01*
X130468239Y-135139202D01*
X130390507Y-135260156D01*
X130366923Y-135340475D01*
X129735073Y-134708625D01*
X129735072Y-134708626D01*
X129681574Y-134785030D01*
X129626998Y-134828655D01*
X129557499Y-134835849D01*
X129495144Y-134804326D01*
X129478424Y-134785030D01*
X129424925Y-134708626D01*
X129424925Y-134708625D01*
X128793076Y-135340475D01*
X128769493Y-135260156D01*
X128691761Y-135139202D01*
X128583100Y-135045048D01*
X128452315Y-134985320D01*
X128442533Y-134983913D01*
X129071373Y-134355073D01*
X128994969Y-134301576D01*
X128951344Y-134246999D01*
X128944150Y-134177501D01*
X128975672Y-134115146D01*
X128994968Y-134098425D01*
X129071373Y-134044925D01*
X128442533Y-133416086D01*
X128452315Y-133414680D01*
X128583100Y-133354952D01*
X128691761Y-133260798D01*
X128769493Y-133139844D01*
X128793076Y-133059524D01*
X129424925Y-133691373D01*
X129478425Y-133614968D01*
X129533002Y-133571344D01*
X129602501Y-133564151D01*
X129664855Y-133595673D01*
X129681576Y-133614969D01*
X129735073Y-133691372D01*
X130366922Y-133059523D01*
X130390507Y-133139844D01*
G37*
%TD.AperFunction*%
%TA.AperFunction,Conductor*%
G36*
X129664855Y-131056546D02*
G01*
X129681575Y-131075842D01*
X129811500Y-131261395D01*
X129811505Y-131261401D01*
X129978599Y-131428495D01*
X130164594Y-131558730D01*
X130208218Y-131613307D01*
X130215411Y-131682806D01*
X130183889Y-131745160D01*
X130164593Y-131761880D01*
X130088626Y-131815072D01*
X130088625Y-131815072D01*
X130717466Y-132443913D01*
X130707685Y-132445320D01*
X130576900Y-132505048D01*
X130468239Y-132599202D01*
X130390507Y-132720156D01*
X130366923Y-132800475D01*
X129735073Y-132168625D01*
X129735072Y-132168626D01*
X129681574Y-132245030D01*
X129626998Y-132288655D01*
X129557499Y-132295849D01*
X129495144Y-132264326D01*
X129478424Y-132245030D01*
X129424925Y-132168626D01*
X129424925Y-132168625D01*
X128793076Y-132800475D01*
X128769493Y-132720156D01*
X128691761Y-132599202D01*
X128583100Y-132505048D01*
X128452315Y-132445320D01*
X128442533Y-132443913D01*
X129071373Y-131815073D01*
X129071373Y-131815072D01*
X128995405Y-131761880D01*
X128951780Y-131707304D01*
X128944586Y-131637805D01*
X128976108Y-131575451D01*
X128995399Y-131558734D01*
X129181401Y-131428495D01*
X129348495Y-131261401D01*
X129478425Y-131075842D01*
X129533002Y-131032217D01*
X129602500Y-131025023D01*
X129664855Y-131056546D01*
G37*
%TD.AperFunction*%
%TA.AperFunction,Conductor*%
G36*
X126997859Y-92283426D02*
G01*
X127022691Y-92302637D01*
X128453181Y-93733127D01*
X128486666Y-93794450D01*
X128489500Y-93820808D01*
X128489500Y-104370192D01*
X128469815Y-104437231D01*
X128417011Y-104482986D01*
X128347853Y-104492930D01*
X128284297Y-104463905D01*
X128277819Y-104457873D01*
X127405228Y-103585282D01*
X127373134Y-103529693D01*
X127356742Y-103468513D01*
X127356738Y-103468502D01*
X127336643Y-103425408D01*
X127260568Y-103262266D01*
X127130047Y-103075861D01*
X127130045Y-103075858D01*
X126969141Y-102914954D01*
X126782734Y-102784432D01*
X126782728Y-102784429D01*
X126724725Y-102757382D01*
X126672285Y-102711210D01*
X126653133Y-102644017D01*
X126673348Y-102577135D01*
X126724725Y-102532618D01*
X126782734Y-102505568D01*
X126969139Y-102375047D01*
X127130047Y-102214139D01*
X127260568Y-102027734D01*
X127356739Y-101821496D01*
X127415635Y-101601692D01*
X127435468Y-101375000D01*
X127433590Y-101353539D01*
X127425796Y-101264450D01*
X127415635Y-101148308D01*
X127356739Y-100928504D01*
X127260568Y-100722266D01*
X127130047Y-100535861D01*
X127130045Y-100535858D01*
X126969141Y-100374954D01*
X126782734Y-100244432D01*
X126782732Y-100244431D01*
X126755475Y-100231721D01*
X126724132Y-100217105D01*
X126671694Y-100170934D01*
X126652542Y-100103740D01*
X126672758Y-100036859D01*
X126724134Y-99992341D01*
X126782484Y-99965132D01*
X126968820Y-99834657D01*
X127129657Y-99673820D01*
X127260134Y-99487482D01*
X127356265Y-99281326D01*
X127356269Y-99281317D01*
X127408872Y-99085000D01*
X126045686Y-99085000D01*
X126057641Y-99073045D01*
X126115165Y-98960148D01*
X126134986Y-98835000D01*
X126115165Y-98709852D01*
X126057641Y-98596955D01*
X126045686Y-98585000D01*
X127408872Y-98585000D01*
X127408872Y-98584999D01*
X127356269Y-98388682D01*
X127356265Y-98388673D01*
X127260134Y-98182517D01*
X127129657Y-97996179D01*
X126968820Y-97835342D01*
X126782482Y-97704865D01*
X126724133Y-97677657D01*
X126671694Y-97631484D01*
X126652542Y-97564291D01*
X126672758Y-97497410D01*
X126724129Y-97452895D01*
X126782734Y-97425568D01*
X126969139Y-97295047D01*
X127130047Y-97134139D01*
X127260568Y-96947734D01*
X127356739Y-96741496D01*
X127415635Y-96521692D01*
X127435468Y-96295000D01*
X127415635Y-96068308D01*
X127356739Y-95848504D01*
X127260568Y-95642266D01*
X127130047Y-95455861D01*
X127130045Y-95455858D01*
X126969141Y-95294954D01*
X126782734Y-95164432D01*
X126782728Y-95164429D01*
X126724725Y-95137382D01*
X126672285Y-95091210D01*
X126653133Y-95024017D01*
X126673348Y-94957135D01*
X126724725Y-94912618D01*
X126782734Y-94885568D01*
X126969139Y-94755047D01*
X127130047Y-94594139D01*
X127260568Y-94407734D01*
X127356739Y-94201496D01*
X127415635Y-93981692D01*
X127435468Y-93755000D01*
X127415635Y-93528308D01*
X127356739Y-93308504D01*
X127260568Y-93102266D01*
X127130047Y-92915861D01*
X127130045Y-92915858D01*
X126969141Y-92754954D01*
X126782734Y-92624432D01*
X126782728Y-92624429D01*
X126724725Y-92597382D01*
X126672285Y-92551210D01*
X126653133Y-92484017D01*
X126673348Y-92417135D01*
X126724725Y-92372618D01*
X126782734Y-92345568D01*
X126863889Y-92288742D01*
X126930092Y-92266416D01*
X126997859Y-92283426D01*
G37*
%TD.AperFunction*%
%TA.AperFunction,Conductor*%
G36*
X148992539Y-86170185D02*
G01*
X149038294Y-86222989D01*
X149049500Y-86274500D01*
X149049500Y-146025500D01*
X149029815Y-146092539D01*
X148977011Y-146138294D01*
X148925500Y-146149500D01*
X110174500Y-146149500D01*
X110107461Y-146129815D01*
X110061706Y-146077011D01*
X110050500Y-146025500D01*
X110050500Y-130390000D01*
X126954341Y-130390000D01*
X126974936Y-130625403D01*
X126974938Y-130625413D01*
X127036094Y-130853655D01*
X127036096Y-130853659D01*
X127036097Y-130853663D01*
X127119194Y-131031865D01*
X127135965Y-131067830D01*
X127135967Y-131067834D01*
X127244281Y-131222521D01*
X127271505Y-131261401D01*
X127438599Y-131428495D01*
X127624594Y-131558730D01*
X127668218Y-131613307D01*
X127675411Y-131682806D01*
X127643889Y-131745160D01*
X127624593Y-131761880D01*
X127548626Y-131815072D01*
X127548625Y-131815072D01*
X128177466Y-132443913D01*
X128167685Y-132445320D01*
X128036900Y-132505048D01*
X127928239Y-132599202D01*
X127850507Y-132720156D01*
X127826923Y-132800475D01*
X127195073Y-132168625D01*
X127195072Y-132168625D01*
X127136401Y-132252419D01*
X127036570Y-132466507D01*
X127036566Y-132466516D01*
X126975432Y-132694673D01*
X126975430Y-132694684D01*
X126954843Y-132929998D01*
X126954843Y-132930001D01*
X126975430Y-133165315D01*
X126975432Y-133165326D01*
X127036566Y-133393483D01*
X127036570Y-133393492D01*
X127136400Y-133607579D01*
X127136402Y-133607583D01*
X127195072Y-133691373D01*
X127195073Y-133691373D01*
X127826923Y-133059523D01*
X127850507Y-133139844D01*
X127928239Y-133260798D01*
X128036900Y-133354952D01*
X128167685Y-133414680D01*
X128177466Y-133416086D01*
X127548625Y-134044925D01*
X127625031Y-134098425D01*
X127668655Y-134153002D01*
X127675848Y-134222501D01*
X127644326Y-134284855D01*
X127625029Y-134301576D01*
X127548625Y-134355072D01*
X128177466Y-134983913D01*
X128167685Y-134985320D01*
X128036900Y-135045048D01*
X127928239Y-135139202D01*
X127850507Y-135260156D01*
X127826923Y-135340475D01*
X127195073Y-134708625D01*
X127195072Y-134708625D01*
X127136401Y-134792419D01*
X127036570Y-135006507D01*
X127036566Y-135006516D01*
X126975432Y-135234673D01*
X126975430Y-135234684D01*
X126954843Y-135469998D01*
X126954843Y-135470001D01*
X126975430Y-135705315D01*
X126975432Y-135705326D01*
X127036566Y-135933483D01*
X127036570Y-135933492D01*
X127136400Y-136147579D01*
X127136402Y-136147583D01*
X127195072Y-136231373D01*
X127195073Y-136231373D01*
X127826923Y-135599523D01*
X127850507Y-135679844D01*
X127928239Y-135800798D01*
X128036900Y-135894952D01*
X128167685Y-135954680D01*
X128177466Y-135956086D01*
X127548625Y-136584925D01*
X127625031Y-136638425D01*
X127668655Y-136693002D01*
X127675848Y-136762501D01*
X127644326Y-136824855D01*
X127625029Y-136841576D01*
X127548625Y-136895072D01*
X128177466Y-137523913D01*
X128167685Y-137525320D01*
X128036900Y-137585048D01*
X127928239Y-137679202D01*
X127850507Y-137800156D01*
X127826923Y-137880475D01*
X127195073Y-137248625D01*
X127195072Y-137248625D01*
X127136401Y-137332419D01*
X127036570Y-137546507D01*
X127036566Y-137546516D01*
X126975432Y-137774673D01*
X126975430Y-137774684D01*
X126954843Y-138009998D01*
X126954843Y-138010001D01*
X126975430Y-138245315D01*
X126975432Y-138245326D01*
X127036566Y-138473483D01*
X127036570Y-138473492D01*
X127136400Y-138687579D01*
X127136402Y-138687583D01*
X127195072Y-138771373D01*
X127195073Y-138771373D01*
X127826923Y-138139523D01*
X127850507Y-138219844D01*
X127928239Y-138340798D01*
X128036900Y-138434952D01*
X128167685Y-138494680D01*
X128177466Y-138496086D01*
X127544208Y-139129342D01*
X127533788Y-139181193D01*
X127485172Y-139231376D01*
X127463032Y-139241205D01*
X127390674Y-139265182D01*
X127390663Y-139265187D01*
X127241342Y-139357289D01*
X127117289Y-139481342D01*
X127025187Y-139630663D01*
X127025185Y-139630668D01*
X127008701Y-139680414D01*
X126970001Y-139797203D01*
X126970001Y-139797204D01*
X126970000Y-139797204D01*
X126959500Y-139899983D01*
X126959500Y-141200001D01*
X126959501Y-141200018D01*
X126970000Y-141302796D01*
X126970001Y-141302799D01*
X127009303Y-141421402D01*
X127025186Y-141469334D01*
X127117288Y-141618656D01*
X127241344Y-141742712D01*
X127390666Y-141834814D01*
X127557203Y-141889999D01*
X127659991Y-141900500D01*
X128960008Y-141900499D01*
X129062797Y-141889999D01*
X129229334Y-141834814D01*
X129378656Y-141742712D01*
X129502712Y-141618656D01*
X129594814Y-141469334D01*
X129597662Y-141460738D01*
X129637429Y-141403294D01*
X129701944Y-141376468D01*
X129770720Y-141388779D01*
X129807483Y-141417766D01*
X129807677Y-141417573D01*
X129809313Y-141419209D01*
X129810354Y-141420030D01*
X129811501Y-141421397D01*
X129811505Y-141421401D01*
X129978599Y-141588495D01*
X130021675Y-141618657D01*
X130172165Y-141724032D01*
X130172167Y-141724033D01*
X130172170Y-141724035D01*
X130386337Y-141823903D01*
X130614592Y-141885063D01*
X130791034Y-141900500D01*
X130849999Y-141905659D01*
X130850000Y-141905659D01*
X130850001Y-141905659D01*
X130908966Y-141900500D01*
X131085408Y-141885063D01*
X131313663Y-141823903D01*
X131527830Y-141724035D01*
X131721401Y-141588495D01*
X131888495Y-141421401D01*
X132024035Y-141227830D01*
X132123903Y-141013663D01*
X132185063Y-140785408D01*
X132205659Y-140550000D01*
X132185063Y-140314592D01*
X132123903Y-140086337D01*
X132024035Y-139872171D01*
X131955060Y-139773663D01*
X131888494Y-139678597D01*
X131721402Y-139511506D01*
X131721401Y-139511505D01*
X131535405Y-139381269D01*
X131491781Y-139326692D01*
X131484588Y-139257193D01*
X131516110Y-139194839D01*
X131535405Y-139178119D01*
X131611373Y-139124925D01*
X130982533Y-138496086D01*
X130992315Y-138494680D01*
X131123100Y-138434952D01*
X131231761Y-138340798D01*
X131309493Y-138219844D01*
X131333076Y-138139524D01*
X131964925Y-138771373D01*
X131964926Y-138771373D01*
X132023598Y-138687582D01*
X132023600Y-138687578D01*
X132123429Y-138473492D01*
X132123433Y-138473483D01*
X132184567Y-138245326D01*
X132184569Y-138245315D01*
X132205157Y-138010001D01*
X132205157Y-138009998D01*
X132184569Y-137774684D01*
X132184567Y-137774673D01*
X132123433Y-137546516D01*
X132123429Y-137546507D01*
X132023600Y-137332423D01*
X132023599Y-137332421D01*
X131964925Y-137248626D01*
X131964925Y-137248625D01*
X131333076Y-137880475D01*
X131309493Y-137800156D01*
X131231761Y-137679202D01*
X131123100Y-137585048D01*
X130992315Y-137525320D01*
X130982533Y-137523913D01*
X131611373Y-136895073D01*
X131534969Y-136841576D01*
X131491344Y-136786999D01*
X131484150Y-136717501D01*
X131515672Y-136655146D01*
X131534968Y-136638425D01*
X131611373Y-136584925D01*
X130982533Y-135956086D01*
X130992315Y-135954680D01*
X131123100Y-135894952D01*
X131231761Y-135800798D01*
X131309493Y-135679844D01*
X131333076Y-135599524D01*
X131964925Y-136231373D01*
X131964926Y-136231373D01*
X132023598Y-136147582D01*
X132023600Y-136147578D01*
X132123429Y-135933492D01*
X132123433Y-135933483D01*
X132184567Y-135705326D01*
X132184569Y-135705315D01*
X132205157Y-135470001D01*
X132205157Y-135469998D01*
X132184569Y-135234684D01*
X132184567Y-135234673D01*
X132123433Y-135006516D01*
X132123429Y-135006507D01*
X132023600Y-134792423D01*
X132023599Y-134792421D01*
X131964925Y-134708626D01*
X131964925Y-134708625D01*
X131333076Y-135340475D01*
X131309493Y-135260156D01*
X131231761Y-135139202D01*
X131123100Y-135045048D01*
X130992315Y-134985320D01*
X130982533Y-134983913D01*
X131611373Y-134355073D01*
X131534969Y-134301576D01*
X131491344Y-134246999D01*
X131484150Y-134177501D01*
X131515672Y-134115146D01*
X131534968Y-134098425D01*
X131611373Y-134044925D01*
X130982533Y-133416086D01*
X130992315Y-133414680D01*
X131123100Y-133354952D01*
X131231761Y-133260798D01*
X131309493Y-133139844D01*
X131333076Y-133059524D01*
X131964925Y-133691373D01*
X131964926Y-133691373D01*
X132023598Y-133607582D01*
X132023600Y-133607578D01*
X132123429Y-133393492D01*
X132123433Y-133393483D01*
X132184567Y-133165326D01*
X132184569Y-133165315D01*
X132205157Y-132930001D01*
X132205157Y-132929998D01*
X132184569Y-132694684D01*
X132184567Y-132694673D01*
X132123433Y-132466516D01*
X132123429Y-132466507D01*
X132023600Y-132252423D01*
X132023599Y-132252421D01*
X131964925Y-132168626D01*
X131964925Y-132168625D01*
X131333076Y-132800475D01*
X131309493Y-132720156D01*
X131231761Y-132599202D01*
X131123100Y-132505048D01*
X130992315Y-132445320D01*
X130982533Y-132443913D01*
X131611373Y-131815073D01*
X131611373Y-131815072D01*
X131535405Y-131761880D01*
X131491780Y-131707304D01*
X131484586Y-131637805D01*
X131516108Y-131575451D01*
X131535399Y-131558734D01*
X131721401Y-131428495D01*
X131888495Y-131261401D01*
X132024035Y-131067830D01*
X132123903Y-130853663D01*
X132185063Y-130625408D01*
X132205659Y-130390000D01*
X132185063Y-130154592D01*
X132123903Y-129926337D01*
X132024035Y-129712171D01*
X132018425Y-129704158D01*
X131888494Y-129518597D01*
X131721402Y-129351506D01*
X131721395Y-129351501D01*
X131527834Y-129215967D01*
X131527830Y-129215965D01*
X131466210Y-129187231D01*
X131313663Y-129116097D01*
X131313659Y-129116096D01*
X131313655Y-129116094D01*
X131085413Y-129054938D01*
X131085403Y-129054936D01*
X130850001Y-129034341D01*
X130849999Y-129034341D01*
X130614596Y-129054936D01*
X130614586Y-129054938D01*
X130386344Y-129116094D01*
X130386335Y-129116098D01*
X130172171Y-129215964D01*
X130172169Y-129215965D01*
X129978597Y-129351505D01*
X129811505Y-129518597D01*
X129681575Y-129704158D01*
X129626998Y-129747783D01*
X129557500Y-129754977D01*
X129495145Y-129723454D01*
X129478425Y-129704158D01*
X129348494Y-129518597D01*
X129181402Y-129351506D01*
X129181395Y-129351501D01*
X128987834Y-129215967D01*
X128987830Y-129215965D01*
X128926210Y-129187231D01*
X128773663Y-129116097D01*
X128773659Y-129116096D01*
X128773655Y-129116094D01*
X128545413Y-129054938D01*
X128545403Y-129054936D01*
X128310001Y-129034341D01*
X128309999Y-129034341D01*
X128074596Y-129054936D01*
X128074586Y-129054938D01*
X127846344Y-129116094D01*
X127846335Y-129116098D01*
X127632171Y-129215964D01*
X127632169Y-129215965D01*
X127438597Y-129351505D01*
X127271505Y-129518597D01*
X127135965Y-129712169D01*
X127135964Y-129712171D01*
X127036098Y-129926335D01*
X127036094Y-129926344D01*
X126974938Y-130154586D01*
X126974936Y-130154596D01*
X126954341Y-130389999D01*
X126954341Y-130390000D01*
X110050500Y-130390000D01*
X110050500Y-103190000D01*
X110494341Y-103190000D01*
X110514936Y-103425403D01*
X110514938Y-103425413D01*
X110576094Y-103653655D01*
X110576096Y-103653659D01*
X110576097Y-103653663D01*
X110592255Y-103688313D01*
X110675965Y-103867830D01*
X110675967Y-103867834D01*
X110757400Y-103984131D01*
X110811505Y-104061401D01*
X110978599Y-104228495D01*
X111022266Y-104259071D01*
X111172165Y-104364032D01*
X111172167Y-104364033D01*
X111172170Y-104364035D01*
X111386337Y-104463903D01*
X111614592Y-104525063D01*
X111802918Y-104541539D01*
X111849999Y-104545659D01*
X111850000Y-104545659D01*
X111850001Y-104545659D01*
X111889234Y-104542226D01*
X112085408Y-104525063D01*
X112313663Y-104463903D01*
X112527830Y-104364035D01*
X112721401Y-104228495D01*
X112888495Y-104061401D01*
X113024035Y-103867830D01*
X113123903Y-103653663D01*
X113185063Y-103425408D01*
X113203753Y-103211781D01*
X113229205Y-103146713D01*
X113285796Y-103105734D01*
X113355558Y-103101856D01*
X113414962Y-103134908D01*
X114813181Y-104533127D01*
X114846666Y-104594450D01*
X114849500Y-104620808D01*
X114849500Y-118529078D01*
X114829815Y-118596117D01*
X114817650Y-118612050D01*
X114767466Y-118667785D01*
X114672821Y-118831715D01*
X114672818Y-118831722D01*
X114626951Y-118972888D01*
X114614326Y-119011744D01*
X114594540Y-119200000D01*
X114614326Y-119388256D01*
X114614327Y-119388259D01*
X114672818Y-119568277D01*
X114672821Y-119568284D01*
X114767467Y-119732216D01*
X114894129Y-119872888D01*
X115047265Y-119984148D01*
X115047270Y-119984151D01*
X115220192Y-120061142D01*
X115220197Y-120061144D01*
X115405354Y-120100500D01*
X115405355Y-120100500D01*
X115594644Y-120100500D01*
X115594646Y-120100500D01*
X115779803Y-120061144D01*
X115952730Y-119984151D01*
X116105871Y-119872888D01*
X116232533Y-119732216D01*
X116267613Y-119671454D01*
X116318179Y-119623240D01*
X116386786Y-119610016D01*
X116451651Y-119635984D01*
X116482385Y-119671453D01*
X116517466Y-119732214D01*
X116517467Y-119732216D01*
X116644129Y-119872888D01*
X116797265Y-119984148D01*
X116797270Y-119984151D01*
X116970192Y-120061142D01*
X116970197Y-120061144D01*
X117155354Y-120100500D01*
X117155355Y-120100500D01*
X117344644Y-120100500D01*
X117344646Y-120100500D01*
X117449719Y-120078166D01*
X117519386Y-120083482D01*
X117575120Y-120125619D01*
X117599225Y-120191199D01*
X117599500Y-120199456D01*
X117599500Y-124764494D01*
X117597732Y-124780505D01*
X117597974Y-124780528D01*
X117597240Y-124788294D01*
X117599439Y-124858262D01*
X117599500Y-124862157D01*
X117599500Y-124890920D01*
X117599501Y-124890938D01*
X117600053Y-124895311D01*
X117600968Y-124906941D01*
X117602402Y-124952567D01*
X117602403Y-124952570D01*
X117608323Y-124972948D01*
X117612268Y-124991996D01*
X117614928Y-125013054D01*
X117614931Y-125013065D01*
X117631737Y-125055514D01*
X117635520Y-125066563D01*
X117648254Y-125110395D01*
X117648255Y-125110397D01*
X117659060Y-125128666D01*
X117667617Y-125146134D01*
X117673226Y-125160300D01*
X117675432Y-125165872D01*
X117702266Y-125202806D01*
X117708678Y-125212568D01*
X117731919Y-125251865D01*
X117731923Y-125251869D01*
X117746925Y-125266871D01*
X117759563Y-125281669D01*
X117772033Y-125298833D01*
X117772036Y-125298837D01*
X117807213Y-125327937D01*
X117815854Y-125335800D01*
X119279564Y-126799510D01*
X119289635Y-126812080D01*
X119289822Y-126811926D01*
X119294795Y-126817937D01*
X119345832Y-126865864D01*
X119348629Y-126868575D01*
X119368967Y-126888913D01*
X119372450Y-126891615D01*
X119381326Y-126899196D01*
X119407145Y-126923441D01*
X119414607Y-126930448D01*
X119414610Y-126930450D01*
X119414612Y-126930451D01*
X119433207Y-126940674D01*
X119449468Y-126951356D01*
X119466232Y-126964359D01*
X119466236Y-126964362D01*
X119508138Y-126982494D01*
X119518612Y-126987625D01*
X119558632Y-127009627D01*
X119579204Y-127014908D01*
X119597594Y-127021205D01*
X119617074Y-127029635D01*
X119662175Y-127036777D01*
X119673586Y-127039141D01*
X119717823Y-127050500D01*
X119739045Y-127050500D01*
X119758444Y-127052026D01*
X119779405Y-127055347D01*
X119824860Y-127051050D01*
X119836530Y-127050500D01*
X131529192Y-127050500D01*
X131596231Y-127070185D01*
X131616873Y-127086819D01*
X145952290Y-141422236D01*
X145985775Y-141483559D01*
X145984384Y-141542008D01*
X145964937Y-141614589D01*
X145964937Y-141614590D01*
X145944341Y-141849999D01*
X145944341Y-141850000D01*
X145964936Y-142085403D01*
X145964938Y-142085413D01*
X146026094Y-142313655D01*
X146026096Y-142313659D01*
X146026097Y-142313663D01*
X146125965Y-142527830D01*
X146125967Y-142527834D01*
X146261501Y-142721395D01*
X146261506Y-142721402D01*
X146428597Y-142888493D01*
X146428603Y-142888498D01*
X146614594Y-143018730D01*
X146658219Y-143073307D01*
X146665413Y-143142805D01*
X146633890Y-143205160D01*
X146614595Y-143221880D01*
X146428922Y-143351890D01*
X146428920Y-143351891D01*
X146261891Y-143518920D01*
X146261886Y-143518926D01*
X146126400Y-143712420D01*
X146126399Y-143712422D01*
X146026570Y-143926507D01*
X146026567Y-143926513D01*
X145969364Y-144139999D01*
X145969364Y-144140000D01*
X146866314Y-144140000D01*
X146840507Y-144180156D01*
X146800000Y-144318111D01*
X146800000Y-144461889D01*
X146840507Y-144599844D01*
X146866314Y-144640000D01*
X145969364Y-144640000D01*
X146026567Y-144853486D01*
X146026570Y-144853492D01*
X146126399Y-145067578D01*
X146261894Y-145261082D01*
X146428917Y-145428105D01*
X146622421Y-145563600D01*
X146836507Y-145663429D01*
X146836516Y-145663433D01*
X147050000Y-145720634D01*
X147050000Y-144825501D01*
X147157685Y-144874680D01*
X147264237Y-144890000D01*
X147335763Y-144890000D01*
X147442315Y-144874680D01*
X147550000Y-144825501D01*
X147550000Y-145720633D01*
X147763483Y-145663433D01*
X147763492Y-145663429D01*
X147977578Y-145563600D01*
X148171082Y-145428105D01*
X148338105Y-145261082D01*
X148473600Y-145067578D01*
X148573429Y-144853492D01*
X148573432Y-144853486D01*
X148630636Y-144640000D01*
X147733686Y-144640000D01*
X147759493Y-144599844D01*
X147800000Y-144461889D01*
X147800000Y-144318111D01*
X147759493Y-144180156D01*
X147733686Y-144140000D01*
X148630636Y-144140000D01*
X148630635Y-144139999D01*
X148573432Y-143926513D01*
X148573429Y-143926507D01*
X148473600Y-143712422D01*
X148473599Y-143712420D01*
X148338113Y-143518926D01*
X148338108Y-143518920D01*
X148171078Y-143351890D01*
X147985405Y-143221879D01*
X147941780Y-143167302D01*
X147934588Y-143097804D01*
X147966110Y-143035449D01*
X147985406Y-143018730D01*
X148171401Y-142888495D01*
X148338495Y-142721401D01*
X148474035Y-142527830D01*
X148573903Y-142313663D01*
X148635063Y-142085408D01*
X148655659Y-141850000D01*
X148635063Y-141614592D01*
X148573903Y-141386337D01*
X148474035Y-141172171D01*
X148363042Y-141013655D01*
X148338494Y-140978597D01*
X148171402Y-140811506D01*
X148171396Y-140811501D01*
X147985842Y-140681575D01*
X147942217Y-140626998D01*
X147935023Y-140557500D01*
X147966546Y-140495145D01*
X147985842Y-140478425D01*
X148008026Y-140462891D01*
X148171401Y-140348495D01*
X148338495Y-140181401D01*
X148474035Y-139987830D01*
X148573903Y-139773663D01*
X148635063Y-139545408D01*
X148655659Y-139310000D01*
X148635063Y-139074592D01*
X148573903Y-138846337D01*
X148474035Y-138632171D01*
X148388491Y-138510000D01*
X148338494Y-138438597D01*
X148171402Y-138271506D01*
X148171396Y-138271501D01*
X147985842Y-138141575D01*
X147942217Y-138086998D01*
X147935023Y-138017500D01*
X147966546Y-137955145D01*
X147985842Y-137938425D01*
X148008026Y-137922891D01*
X148171401Y-137808495D01*
X148338495Y-137641401D01*
X148474035Y-137447830D01*
X148573903Y-137233663D01*
X148635063Y-137005408D01*
X148655659Y-136770000D01*
X148635063Y-136534592D01*
X148573903Y-136306337D01*
X148474035Y-136092171D01*
X148388491Y-135970000D01*
X148338494Y-135898597D01*
X148171402Y-135731506D01*
X148171396Y-135731501D01*
X147985842Y-135601575D01*
X147942217Y-135546998D01*
X147935023Y-135477500D01*
X147966546Y-135415145D01*
X147985842Y-135398425D01*
X148008026Y-135382891D01*
X148171401Y-135268495D01*
X148338495Y-135101401D01*
X148474035Y-134907830D01*
X148573903Y-134693663D01*
X148635063Y-134465408D01*
X148655659Y-134230000D01*
X148635063Y-133994592D01*
X148573903Y-133766337D01*
X148474035Y-133552171D01*
X148388491Y-133430000D01*
X148338494Y-133358597D01*
X148171402Y-133191506D01*
X148171396Y-133191501D01*
X147985842Y-133061575D01*
X147942217Y-133006998D01*
X147935023Y-132937500D01*
X147966546Y-132875145D01*
X147985842Y-132858425D01*
X148034300Y-132824494D01*
X148171401Y-132728495D01*
X148338495Y-132561401D01*
X148474035Y-132367830D01*
X148573903Y-132153663D01*
X148635063Y-131925408D01*
X148655659Y-131690000D01*
X148635063Y-131454592D01*
X148573903Y-131226337D01*
X148474035Y-131012171D01*
X148453473Y-130982806D01*
X148338496Y-130818600D01*
X148282213Y-130762317D01*
X148216567Y-130696671D01*
X148183084Y-130635351D01*
X148188068Y-130565659D01*
X148229939Y-130509725D01*
X148260915Y-130492810D01*
X148392331Y-130443796D01*
X148507546Y-130357546D01*
X148593796Y-130242331D01*
X148644091Y-130107483D01*
X148650500Y-130047873D01*
X148650499Y-128252128D01*
X148644091Y-128192517D01*
X148593796Y-128057669D01*
X148593795Y-128057668D01*
X148593793Y-128057664D01*
X148507547Y-127942455D01*
X148507544Y-127942452D01*
X148392335Y-127856206D01*
X148392328Y-127856202D01*
X148257482Y-127805908D01*
X148257483Y-127805908D01*
X148197883Y-127799501D01*
X148197881Y-127799500D01*
X148197873Y-127799500D01*
X148197865Y-127799500D01*
X148174500Y-127799500D01*
X148107461Y-127779815D01*
X148061706Y-127727011D01*
X148050500Y-127675500D01*
X148050500Y-102663705D01*
X148051809Y-102645735D01*
X148055289Y-102621974D01*
X148050972Y-102572635D01*
X148050500Y-102561826D01*
X148050500Y-102556296D01*
X148050500Y-102556291D01*
X148046894Y-102525443D01*
X148046534Y-102521916D01*
X148045681Y-102512169D01*
X148039998Y-102447203D01*
X148039997Y-102447201D01*
X148038538Y-102440135D01*
X148038598Y-102440122D01*
X148036966Y-102432764D01*
X148036908Y-102432778D01*
X148035242Y-102425750D01*
X148035241Y-102425748D01*
X148035241Y-102425745D01*
X148009567Y-102355206D01*
X148008420Y-102351908D01*
X147984814Y-102280666D01*
X147984811Y-102280662D01*
X147981762Y-102274121D01*
X147981815Y-102274095D01*
X147978531Y-102267311D01*
X147978479Y-102267338D01*
X147975236Y-102260882D01*
X147934025Y-102198222D01*
X147932088Y-102195181D01*
X147892714Y-102131347D01*
X147888234Y-102125681D01*
X147888280Y-102125643D01*
X147883519Y-102119799D01*
X147883474Y-102119838D01*
X147878831Y-102114305D01*
X147824290Y-102062848D01*
X147821703Y-102060335D01*
X146212770Y-100451402D01*
X146182521Y-100402041D01*
X146138157Y-100265502D01*
X146127181Y-100231721D01*
X146127178Y-100231715D01*
X146118903Y-100217382D01*
X146032533Y-100067784D01*
X145905871Y-99927112D01*
X145905870Y-99927111D01*
X145752734Y-99815851D01*
X145752729Y-99815848D01*
X145579807Y-99738857D01*
X145579802Y-99738855D01*
X145434001Y-99707865D01*
X145394646Y-99699500D01*
X145324500Y-99699500D01*
X145257461Y-99679815D01*
X145211706Y-99627011D01*
X145200500Y-99575500D01*
X145200500Y-97635501D01*
X145202268Y-97619488D01*
X145202026Y-97619466D01*
X145202758Y-97611710D01*
X145202760Y-97611703D01*
X145200561Y-97541735D01*
X145200500Y-97537840D01*
X145200500Y-97509077D01*
X145200499Y-97509070D01*
X145199949Y-97504716D01*
X145199030Y-97493054D01*
X145197597Y-97447430D01*
X145191676Y-97427052D01*
X145187731Y-97408003D01*
X145185071Y-97386942D01*
X145168261Y-97344487D01*
X145164481Y-97333445D01*
X145153326Y-97295047D01*
X145151744Y-97289601D01*
X145140939Y-97271332D01*
X145132379Y-97253858D01*
X145131049Y-97250500D01*
X145124568Y-97234129D01*
X145097737Y-97197199D01*
X145091323Y-97187435D01*
X145068082Y-97148137D01*
X145068081Y-97148135D01*
X145053073Y-97133127D01*
X145040435Y-97118330D01*
X145027961Y-97101160D01*
X144992780Y-97072056D01*
X144984140Y-97064194D01*
X144284808Y-96364862D01*
X144251323Y-96303539D01*
X144249168Y-96290141D01*
X144235674Y-96161745D01*
X144235672Y-96161740D01*
X144177179Y-95981716D01*
X144082533Y-95817784D01*
X143955871Y-95677112D01*
X143907911Y-95642267D01*
X143802734Y-95565851D01*
X143802729Y-95565848D01*
X143629807Y-95488857D01*
X143629802Y-95488855D01*
X143471284Y-95455162D01*
X143444646Y-95449500D01*
X143255354Y-95449500D01*
X143228716Y-95455162D01*
X143070197Y-95488855D01*
X143070192Y-95488857D01*
X142897270Y-95565848D01*
X142897265Y-95565851D01*
X142744129Y-95677111D01*
X142617466Y-95817785D01*
X142522821Y-95981715D01*
X142522818Y-95981722D01*
X142464327Y-96161740D01*
X142464326Y-96161744D01*
X142444540Y-96350000D01*
X142464326Y-96538256D01*
X142464327Y-96538259D01*
X142522818Y-96718277D01*
X142522821Y-96718284D01*
X142617467Y-96882216D01*
X142676458Y-96947732D01*
X142744129Y-97022888D01*
X142897265Y-97134148D01*
X142897270Y-97134151D01*
X143070192Y-97211142D01*
X143070197Y-97211144D01*
X143255354Y-97250500D01*
X143279192Y-97250500D01*
X143346231Y-97270185D01*
X143366873Y-97286819D01*
X143863181Y-97783127D01*
X143896666Y-97844450D01*
X143899500Y-97870808D01*
X143899500Y-104030192D01*
X143879815Y-104097231D01*
X143827011Y-104142986D01*
X143757853Y-104152930D01*
X143694297Y-104123905D01*
X143687819Y-104117873D01*
X140984808Y-101414862D01*
X140951323Y-101353539D01*
X140949168Y-101340141D01*
X140935674Y-101211745D01*
X140935672Y-101211740D01*
X140877179Y-101031716D01*
X140782533Y-100867784D01*
X140655871Y-100727112D01*
X140655870Y-100727111D01*
X140502734Y-100615851D01*
X140502729Y-100615848D01*
X140329807Y-100538857D01*
X140329802Y-100538855D01*
X140184001Y-100507865D01*
X140144646Y-100499500D01*
X139955354Y-100499500D01*
X139922897Y-100506398D01*
X139770197Y-100538855D01*
X139770192Y-100538857D01*
X139597270Y-100615848D01*
X139597265Y-100615851D01*
X139444129Y-100727111D01*
X139317466Y-100867785D01*
X139222821Y-101031715D01*
X139222818Y-101031722D01*
X139184936Y-101148313D01*
X139164326Y-101211744D01*
X139144540Y-101400000D01*
X139164326Y-101588256D01*
X139164327Y-101588259D01*
X139222818Y-101768277D01*
X139222821Y-101768284D01*
X139317467Y-101932216D01*
X139403470Y-102027732D01*
X139444129Y-102072888D01*
X139597265Y-102184148D01*
X139597270Y-102184151D01*
X139770192Y-102261142D01*
X139770197Y-102261144D01*
X139955354Y-102300500D01*
X139979192Y-102300500D01*
X140046231Y-102320185D01*
X140066873Y-102336819D01*
X143013181Y-105283127D01*
X143046666Y-105344450D01*
X143049500Y-105370808D01*
X143049500Y-106640022D01*
X143029815Y-106707061D01*
X142977011Y-106752816D01*
X142907853Y-106762760D01*
X142899733Y-106761315D01*
X142844146Y-106749500D01*
X142654854Y-106749500D01*
X142622397Y-106756398D01*
X142469697Y-106788855D01*
X142469692Y-106788857D01*
X142296770Y-106865848D01*
X142296765Y-106865851D01*
X142145410Y-106975818D01*
X142079604Y-106999298D01*
X142072525Y-106999500D01*
X141727475Y-106999500D01*
X141660436Y-106979815D01*
X141654590Y-106975818D01*
X141503234Y-106865851D01*
X141503229Y-106865848D01*
X141330307Y-106788857D01*
X141330302Y-106788855D01*
X141184501Y-106757865D01*
X141145146Y-106749500D01*
X140955854Y-106749500D01*
X140923397Y-106756398D01*
X140770697Y-106788855D01*
X140770692Y-106788857D01*
X140597770Y-106865848D01*
X140597765Y-106865851D01*
X140444629Y-106977111D01*
X140317966Y-107117785D01*
X140223321Y-107281715D01*
X140223318Y-107281722D01*
X140167002Y-107455047D01*
X140164826Y-107461744D01*
X140145040Y-107650000D01*
X140164826Y-107838256D01*
X140164827Y-107838259D01*
X140223318Y-108018277D01*
X140223321Y-108018284D01*
X140317967Y-108182216D01*
X140424471Y-108300500D01*
X140444629Y-108322888D01*
X140597765Y-108434148D01*
X140597770Y-108434151D01*
X140770692Y-108511142D01*
X140770697Y-108511144D01*
X140955854Y-108550500D01*
X140955855Y-108550500D01*
X141145144Y-108550500D01*
X141145146Y-108550500D01*
X141330303Y-108511144D01*
X141503230Y-108434151D01*
X141654590Y-108324182D01*
X141720396Y-108300702D01*
X141727475Y-108300500D01*
X142072525Y-108300500D01*
X142139564Y-108320185D01*
X142145410Y-108324182D01*
X142296765Y-108434148D01*
X142296770Y-108434151D01*
X142469692Y-108511142D01*
X142469697Y-108511144D01*
X142654854Y-108550500D01*
X142654855Y-108550500D01*
X142844144Y-108550500D01*
X142844146Y-108550500D01*
X142899721Y-108538687D01*
X142969385Y-108544003D01*
X143025119Y-108586139D01*
X143049225Y-108651719D01*
X143049500Y-108659977D01*
X143049500Y-130544494D01*
X143047732Y-130560505D01*
X143047974Y-130560528D01*
X143047240Y-130568294D01*
X143049439Y-130638262D01*
X143049500Y-130642157D01*
X143049500Y-130670920D01*
X143049501Y-130670938D01*
X143050053Y-130675311D01*
X143050968Y-130686941D01*
X143052402Y-130732567D01*
X143052403Y-130732570D01*
X143058323Y-130752948D01*
X143062268Y-130771996D01*
X143064928Y-130793054D01*
X143064931Y-130793065D01*
X143081737Y-130835514D01*
X143085520Y-130846563D01*
X143098254Y-130890395D01*
X143098255Y-130890397D01*
X143109060Y-130908666D01*
X143117617Y-130926134D01*
X143123226Y-130940300D01*
X143125432Y-130945872D01*
X143152266Y-130982806D01*
X143158678Y-130992568D01*
X143177872Y-131025023D01*
X143181919Y-131031865D01*
X143181923Y-131031869D01*
X143196925Y-131046871D01*
X143209563Y-131061669D01*
X143222033Y-131078833D01*
X143222036Y-131078837D01*
X143257213Y-131107937D01*
X143265854Y-131115800D01*
X145952290Y-133802236D01*
X145985775Y-133863559D01*
X145984384Y-133922008D01*
X145964937Y-133994589D01*
X145964937Y-133994590D01*
X145946246Y-134208218D01*
X145920793Y-134273287D01*
X145864202Y-134314265D01*
X145794440Y-134318143D01*
X145735037Y-134285091D01*
X142786819Y-131336873D01*
X142753334Y-131275550D01*
X142750500Y-131249192D01*
X142750500Y-112335501D01*
X142752268Y-112319488D01*
X142752026Y-112319466D01*
X142752758Y-112311710D01*
X142752760Y-112311703D01*
X142750561Y-112241735D01*
X142750500Y-112237840D01*
X142750500Y-112209077D01*
X142750499Y-112209070D01*
X142749949Y-112204716D01*
X142749030Y-112193054D01*
X142747597Y-112147430D01*
X142741676Y-112127052D01*
X142737731Y-112108003D01*
X142735071Y-112086942D01*
X142718261Y-112044487D01*
X142714481Y-112033445D01*
X142701743Y-111989599D01*
X142690941Y-111971335D01*
X142682379Y-111953858D01*
X142681049Y-111950500D01*
X142674568Y-111934129D01*
X142647737Y-111897199D01*
X142641323Y-111887435D01*
X142618082Y-111848137D01*
X142618081Y-111848135D01*
X142603075Y-111833129D01*
X142590435Y-111818330D01*
X142577961Y-111801160D01*
X142542780Y-111772056D01*
X142534140Y-111764194D01*
X141834808Y-111064862D01*
X141801323Y-111003539D01*
X141799168Y-110990141D01*
X141785674Y-110861745D01*
X141785672Y-110861740D01*
X141727179Y-110681716D01*
X141632533Y-110517784D01*
X141505871Y-110377112D01*
X141505870Y-110377111D01*
X141352734Y-110265851D01*
X141352729Y-110265848D01*
X141179807Y-110188857D01*
X141179802Y-110188855D01*
X141034001Y-110157865D01*
X140994646Y-110149500D01*
X140805354Y-110149500D01*
X140772897Y-110156398D01*
X140620197Y-110188855D01*
X140620192Y-110188857D01*
X140447270Y-110265848D01*
X140447265Y-110265851D01*
X140294129Y-110377111D01*
X140167466Y-110517785D01*
X140072821Y-110681715D01*
X140072818Y-110681722D01*
X140014327Y-110861740D01*
X140014326Y-110861744D01*
X139994540Y-111050000D01*
X140014326Y-111238256D01*
X140014327Y-111238259D01*
X140072818Y-111418277D01*
X140072821Y-111418284D01*
X140167467Y-111582216D01*
X140294129Y-111722888D01*
X140447265Y-111834148D01*
X140447270Y-111834151D01*
X140620192Y-111911142D01*
X140620197Y-111911144D01*
X140805354Y-111950500D01*
X140829192Y-111950500D01*
X140896231Y-111970185D01*
X140916873Y-111986819D01*
X141413181Y-112483127D01*
X141446666Y-112544450D01*
X141449500Y-112570808D01*
X141449500Y-122718490D01*
X141429815Y-122785529D01*
X141377011Y-122831284D01*
X141307853Y-122841228D01*
X141275064Y-122831769D01*
X141179807Y-122789357D01*
X141179802Y-122789355D01*
X141034001Y-122758365D01*
X140994646Y-122750000D01*
X140805354Y-122750000D01*
X140772897Y-122756898D01*
X140620197Y-122789355D01*
X140620192Y-122789357D01*
X140447270Y-122866348D01*
X140447265Y-122866351D01*
X140294129Y-122977611D01*
X140167466Y-123118285D01*
X140072821Y-123282215D01*
X140072818Y-123282222D01*
X140014327Y-123462240D01*
X140014326Y-123462244D01*
X139994540Y-123650500D01*
X140014326Y-123838756D01*
X140014327Y-123838759D01*
X140072818Y-124018777D01*
X140072821Y-124018784D01*
X140167466Y-124182715D01*
X140217649Y-124238448D01*
X140247880Y-124301440D01*
X140249500Y-124321421D01*
X140249500Y-132824494D01*
X140247732Y-132840505D01*
X140247974Y-132840528D01*
X140247240Y-132848294D01*
X140247240Y-132848296D01*
X140247558Y-132858425D01*
X140249439Y-132918262D01*
X140249500Y-132922157D01*
X140249500Y-132950920D01*
X140249501Y-132950938D01*
X140250053Y-132955311D01*
X140250968Y-132966941D01*
X140252402Y-133012567D01*
X140252403Y-133012570D01*
X140258323Y-133032948D01*
X140262268Y-133051996D01*
X140264928Y-133073054D01*
X140264931Y-133073065D01*
X140281737Y-133115514D01*
X140285520Y-133126563D01*
X140298254Y-133170395D01*
X140298255Y-133170397D01*
X140309060Y-133188666D01*
X140317617Y-133206134D01*
X140323226Y-133220300D01*
X140325432Y-133225872D01*
X140352266Y-133262806D01*
X140358678Y-133272568D01*
X140381919Y-133311865D01*
X140381923Y-133311869D01*
X140396925Y-133326871D01*
X140409563Y-133341669D01*
X140422033Y-133358833D01*
X140422036Y-133358837D01*
X140457213Y-133387937D01*
X140465854Y-133395800D01*
X143225023Y-136154969D01*
X145952290Y-138882235D01*
X145985775Y-138943558D01*
X145984385Y-139002007D01*
X145964936Y-139074595D01*
X145946246Y-139288218D01*
X145920793Y-139353287D01*
X145864202Y-139394265D01*
X145794440Y-139398143D01*
X145735037Y-139365091D01*
X132370434Y-126000488D01*
X132360361Y-125987914D01*
X132360174Y-125988070D01*
X132355198Y-125982054D01*
X132304167Y-125934134D01*
X132301369Y-125931423D01*
X132281035Y-125911089D01*
X132277548Y-125908384D01*
X132268669Y-125900800D01*
X132235396Y-125869554D01*
X132235388Y-125869548D01*
X132216792Y-125859325D01*
X132200531Y-125848644D01*
X132183763Y-125835637D01*
X132167409Y-125828560D01*
X132141853Y-125817501D01*
X132131394Y-125812377D01*
X132091368Y-125790373D01*
X132091365Y-125790372D01*
X132070801Y-125785092D01*
X132052396Y-125778790D01*
X132032927Y-125770365D01*
X132032921Y-125770363D01*
X131987837Y-125763223D01*
X131976398Y-125760854D01*
X131932180Y-125749500D01*
X131932177Y-125749500D01*
X131910955Y-125749500D01*
X131891555Y-125747973D01*
X131870596Y-125744653D01*
X131870595Y-125744653D01*
X131835475Y-125747973D01*
X131825140Y-125748950D01*
X131813470Y-125749500D01*
X131762313Y-125749500D01*
X131695274Y-125729815D01*
X131649519Y-125677011D01*
X131638992Y-125612541D01*
X131656148Y-125449312D01*
X131636362Y-125261056D01*
X131581800Y-125093135D01*
X131577869Y-125081034D01*
X131577868Y-125081033D01*
X131577867Y-125081028D01*
X131483221Y-124917096D01*
X131356559Y-124776424D01*
X131356558Y-124776423D01*
X131203422Y-124665163D01*
X131203417Y-124665160D01*
X131030495Y-124588169D01*
X131030490Y-124588167D01*
X130877034Y-124555550D01*
X130845334Y-124548812D01*
X130656042Y-124548812D01*
X130624342Y-124555550D01*
X130470885Y-124588167D01*
X130470880Y-124588169D01*
X130297958Y-124665160D01*
X130297953Y-124665163D01*
X130146598Y-124775130D01*
X130080792Y-124798610D01*
X130073713Y-124798812D01*
X128986530Y-124798812D01*
X128919491Y-124779127D01*
X128913645Y-124775131D01*
X128838437Y-124720490D01*
X128763230Y-124665849D01*
X128763228Y-124665848D01*
X128763229Y-124665848D01*
X128590307Y-124588857D01*
X128590302Y-124588855D01*
X128433609Y-124555550D01*
X128405146Y-124549500D01*
X128215854Y-124549500D01*
X128187391Y-124555550D01*
X128030697Y-124588855D01*
X128030692Y-124588857D01*
X127857770Y-124665848D01*
X127857765Y-124665851D01*
X127704629Y-124777111D01*
X127577966Y-124917785D01*
X127483321Y-125081715D01*
X127483318Y-125081722D01*
X127424827Y-125261740D01*
X127424826Y-125261744D01*
X127405040Y-125450000D01*
X127422123Y-125612541D01*
X127409555Y-125681268D01*
X127361823Y-125732292D01*
X127298803Y-125749500D01*
X120120808Y-125749500D01*
X120053769Y-125729815D01*
X120033127Y-125713181D01*
X118936819Y-124616873D01*
X118903334Y-124555550D01*
X118900500Y-124529192D01*
X118900500Y-121950000D01*
X122694540Y-121950000D01*
X122714326Y-122138256D01*
X122714327Y-122138259D01*
X122772818Y-122318277D01*
X122772821Y-122318284D01*
X122867467Y-122482216D01*
X122994129Y-122622888D01*
X123147265Y-122734148D01*
X123147270Y-122734151D01*
X123320192Y-122811142D01*
X123320197Y-122811144D01*
X123505354Y-122850500D01*
X123505355Y-122850500D01*
X123694644Y-122850500D01*
X123694646Y-122850500D01*
X123879803Y-122811144D01*
X124052730Y-122734151D01*
X124205871Y-122622888D01*
X124332533Y-122482216D01*
X124427179Y-122318284D01*
X124485674Y-122138256D01*
X124499168Y-122009855D01*
X124525752Y-121945242D01*
X124534799Y-121935145D01*
X128169944Y-118300000D01*
X136394540Y-118300000D01*
X136414326Y-118488256D01*
X136414327Y-118488259D01*
X136472818Y-118668277D01*
X136472821Y-118668284D01*
X136567467Y-118832216D01*
X136694129Y-118972888D01*
X136847265Y-119084148D01*
X136847270Y-119084151D01*
X137020192Y-119161142D01*
X137020197Y-119161144D01*
X137205354Y-119200500D01*
X137205355Y-119200500D01*
X137394644Y-119200500D01*
X137394646Y-119200500D01*
X137579803Y-119161144D01*
X137752730Y-119084151D01*
X137905871Y-118972888D01*
X138032533Y-118832216D01*
X138127179Y-118668284D01*
X138185674Y-118488256D01*
X138199168Y-118359855D01*
X138225752Y-118295242D01*
X138234799Y-118285145D01*
X139349513Y-117170431D01*
X139362079Y-117160365D01*
X139361925Y-117160178D01*
X139367933Y-117155205D01*
X139367940Y-117155202D01*
X139391227Y-117130402D01*
X139415865Y-117104167D01*
X139418578Y-117101367D01*
X139438911Y-117081035D01*
X139441606Y-117077560D01*
X139449199Y-117068669D01*
X139480448Y-117035393D01*
X139490674Y-117016790D01*
X139501353Y-117000533D01*
X139514362Y-116983764D01*
X139532491Y-116941866D01*
X139537620Y-116931395D01*
X139559627Y-116891368D01*
X139564905Y-116870806D01*
X139571207Y-116852399D01*
X139579635Y-116832927D01*
X139586777Y-116787825D01*
X139589140Y-116776418D01*
X139600500Y-116732177D01*
X139600500Y-116710949D01*
X139602027Y-116691549D01*
X139602548Y-116688259D01*
X139605346Y-116670595D01*
X139601050Y-116625147D01*
X139600500Y-116613478D01*
X139600500Y-105970921D01*
X139620185Y-105903882D01*
X139632351Y-105887948D01*
X139682533Y-105832216D01*
X139777179Y-105668284D01*
X139835674Y-105488256D01*
X139855460Y-105300000D01*
X139835674Y-105111744D01*
X139777179Y-104931716D01*
X139682533Y-104767784D01*
X139555871Y-104627112D01*
X139555870Y-104627111D01*
X139402734Y-104515851D01*
X139402729Y-104515848D01*
X139229807Y-104438857D01*
X139229802Y-104438855D01*
X139084001Y-104407865D01*
X139044646Y-104399500D01*
X138855354Y-104399500D01*
X138822897Y-104406398D01*
X138670197Y-104438855D01*
X138670192Y-104438857D01*
X138497270Y-104515848D01*
X138497265Y-104515851D01*
X138344129Y-104627111D01*
X138217466Y-104767785D01*
X138181887Y-104829410D01*
X138131320Y-104877626D01*
X138062713Y-104890849D01*
X137997848Y-104864881D01*
X137957320Y-104807967D01*
X137950500Y-104767410D01*
X137950500Y-97220808D01*
X137970185Y-97153769D01*
X137986819Y-97133127D01*
X138983127Y-96136819D01*
X139044450Y-96103334D01*
X139070808Y-96100500D01*
X139094644Y-96100500D01*
X139094646Y-96100500D01*
X139279803Y-96061144D01*
X139452730Y-95984151D01*
X139605871Y-95872888D01*
X139732533Y-95732216D01*
X139827179Y-95568284D01*
X139885674Y-95388256D01*
X139905460Y-95200000D01*
X139885674Y-95011744D01*
X139827179Y-94831716D01*
X139732533Y-94667784D01*
X139605871Y-94527112D01*
X139605870Y-94527111D01*
X139452734Y-94415851D01*
X139452729Y-94415848D01*
X139279807Y-94338857D01*
X139279802Y-94338855D01*
X139134001Y-94307865D01*
X139094646Y-94299500D01*
X138905354Y-94299500D01*
X138872897Y-94306398D01*
X138720197Y-94338855D01*
X138720192Y-94338857D01*
X138547270Y-94415848D01*
X138547265Y-94415851D01*
X138394129Y-94527111D01*
X138267466Y-94667785D01*
X138172821Y-94831715D01*
X138172818Y-94831722D01*
X138114327Y-95011739D01*
X138114326Y-95011741D01*
X138100831Y-95140142D01*
X138074246Y-95204757D01*
X138065191Y-95214861D01*
X136900483Y-96379569D01*
X136887910Y-96389643D01*
X136888065Y-96389830D01*
X136882058Y-96394799D01*
X136834133Y-96445833D01*
X136831427Y-96448625D01*
X136811090Y-96468963D01*
X136811077Y-96468978D01*
X136808373Y-96472463D01*
X136800806Y-96481322D01*
X136769552Y-96514607D01*
X136759322Y-96533213D01*
X136748646Y-96549464D01*
X136735640Y-96566232D01*
X136735636Y-96566238D01*
X136717508Y-96608130D01*
X136712369Y-96618619D01*
X136690372Y-96658630D01*
X136690372Y-96658631D01*
X136685091Y-96679199D01*
X136678791Y-96697601D01*
X136670364Y-96717073D01*
X136663223Y-96762162D01*
X136660854Y-96773600D01*
X136649500Y-96817817D01*
X136649500Y-96839044D01*
X136647973Y-96858444D01*
X136644653Y-96879403D01*
X136648950Y-96924858D01*
X136649500Y-96936528D01*
X136649500Y-115829078D01*
X136629815Y-115896117D01*
X136617650Y-115912050D01*
X136567466Y-115967785D01*
X136472821Y-116131715D01*
X136472818Y-116131722D01*
X136414327Y-116311740D01*
X136414326Y-116311744D01*
X136394540Y-116500000D01*
X136414326Y-116688256D01*
X136414327Y-116688259D01*
X136472818Y-116868277D01*
X136472821Y-116868284D01*
X136567467Y-117032216D01*
X136682685Y-117160178D01*
X136694129Y-117172888D01*
X136847265Y-117284148D01*
X136847267Y-117284149D01*
X136847270Y-117284151D01*
X136853043Y-117286721D01*
X136906280Y-117331972D01*
X136926600Y-117398822D01*
X136907554Y-117466045D01*
X136855187Y-117512300D01*
X136853072Y-117513265D01*
X136850151Y-117514566D01*
X136847267Y-117515850D01*
X136847265Y-117515851D01*
X136694129Y-117627111D01*
X136567466Y-117767785D01*
X136472821Y-117931715D01*
X136472818Y-117931722D01*
X136414327Y-118111740D01*
X136414326Y-118111744D01*
X136394540Y-118300000D01*
X128169944Y-118300000D01*
X129539513Y-116930431D01*
X129552079Y-116920365D01*
X129551925Y-116920178D01*
X129557933Y-116915205D01*
X129557940Y-116915202D01*
X129581227Y-116890402D01*
X129605865Y-116864167D01*
X129608578Y-116861367D01*
X129617552Y-116852393D01*
X129628911Y-116841035D01*
X129631606Y-116837560D01*
X129639199Y-116828669D01*
X129670448Y-116795393D01*
X129680674Y-116776790D01*
X129691353Y-116760533D01*
X129704362Y-116743764D01*
X129722498Y-116701850D01*
X129727620Y-116691395D01*
X129749627Y-116651368D01*
X129754906Y-116630807D01*
X129761208Y-116612398D01*
X129769635Y-116592926D01*
X129776777Y-116547828D01*
X129779144Y-116536404D01*
X129790499Y-116492179D01*
X129790500Y-116492177D01*
X129790500Y-116470949D01*
X129792027Y-116451549D01*
X129795346Y-116430595D01*
X129791050Y-116385147D01*
X129790500Y-116373478D01*
X129790500Y-106455001D01*
X131644532Y-106455001D01*
X131664364Y-106681686D01*
X131664366Y-106681697D01*
X131723258Y-106901488D01*
X131723261Y-106901497D01*
X131819431Y-107107732D01*
X131819432Y-107107734D01*
X131949954Y-107294141D01*
X132110858Y-107455045D01*
X132110861Y-107455047D01*
X132297266Y-107585568D01*
X132503504Y-107681739D01*
X132723308Y-107740635D01*
X132893214Y-107755499D01*
X132893215Y-107755500D01*
X132893216Y-107755500D01*
X133806785Y-107755500D01*
X133806785Y-107755499D01*
X133976692Y-107740635D01*
X134196496Y-107681739D01*
X134402734Y-107585568D01*
X134589139Y-107455047D01*
X134750047Y-107294139D01*
X134880568Y-107107734D01*
X134976739Y-106901496D01*
X135035635Y-106681692D01*
X135055468Y-106455000D01*
X135035635Y-106228308D01*
X134976739Y-106008504D01*
X134880568Y-105802266D01*
X134750047Y-105615861D01*
X134750045Y-105615858D01*
X134589141Y-105454954D01*
X134402734Y-105324432D01*
X134402728Y-105324429D01*
X134375038Y-105311517D01*
X134344724Y-105297381D01*
X134292285Y-105251210D01*
X134273133Y-105184017D01*
X134293348Y-105117135D01*
X134344725Y-105072618D01*
X134402734Y-105045568D01*
X134589139Y-104915047D01*
X134750047Y-104754139D01*
X134880568Y-104567734D01*
X134976739Y-104361496D01*
X135035635Y-104141692D01*
X135055468Y-103915000D01*
X135035635Y-103688308D01*
X134990916Y-103521415D01*
X134976741Y-103468511D01*
X134976738Y-103468502D01*
X134956643Y-103425408D01*
X134880568Y-103262266D01*
X134750047Y-103075861D01*
X134750045Y-103075858D01*
X134589141Y-102914954D01*
X134402734Y-102784432D01*
X134402728Y-102784429D01*
X134344725Y-102757382D01*
X134292285Y-102711210D01*
X134273133Y-102644017D01*
X134293348Y-102577135D01*
X134344725Y-102532618D01*
X134402734Y-102505568D01*
X134589139Y-102375047D01*
X134750047Y-102214139D01*
X134880568Y-102027734D01*
X134976739Y-101821496D01*
X135035635Y-101601692D01*
X135055468Y-101375000D01*
X135053590Y-101353539D01*
X135045796Y-101264450D01*
X135035635Y-101148308D01*
X134976739Y-100928504D01*
X134880568Y-100722266D01*
X134750047Y-100535861D01*
X134750045Y-100535858D01*
X134589141Y-100374954D01*
X134402734Y-100244432D01*
X134402728Y-100244429D01*
X134344725Y-100217382D01*
X134292285Y-100171210D01*
X134273133Y-100104017D01*
X134293348Y-100037135D01*
X134344725Y-99992618D01*
X134345319Y-99992341D01*
X134402734Y-99965568D01*
X134589139Y-99835047D01*
X134750047Y-99674139D01*
X134880568Y-99487734D01*
X134976739Y-99281496D01*
X135035635Y-99061692D01*
X135055468Y-98835000D01*
X135035635Y-98608308D01*
X134978346Y-98394500D01*
X134976741Y-98388511D01*
X134976738Y-98388502D01*
X134956643Y-98345408D01*
X134880568Y-98182266D01*
X134750047Y-97995861D01*
X134750045Y-97995858D01*
X134589141Y-97834954D01*
X134402734Y-97704432D01*
X134402728Y-97704429D01*
X134344725Y-97677382D01*
X134292285Y-97631210D01*
X134273133Y-97564017D01*
X134293348Y-97497135D01*
X134344725Y-97452618D01*
X134402734Y-97425568D01*
X134589139Y-97295047D01*
X134750047Y-97134139D01*
X134880568Y-96947734D01*
X134976739Y-96741496D01*
X135035635Y-96521692D01*
X135055468Y-96295000D01*
X135035635Y-96068308D01*
X134976739Y-95848504D01*
X134880568Y-95642266D01*
X134750047Y-95455861D01*
X134750045Y-95455858D01*
X134589141Y-95294954D01*
X134402734Y-95164432D01*
X134402728Y-95164429D01*
X134344725Y-95137382D01*
X134292285Y-95091210D01*
X134273133Y-95024017D01*
X134293348Y-94957135D01*
X134344725Y-94912618D01*
X134402734Y-94885568D01*
X134589139Y-94755047D01*
X134750047Y-94594139D01*
X134880568Y-94407734D01*
X134963447Y-94230001D01*
X144624838Y-94230001D01*
X144643450Y-94442741D01*
X144643452Y-94442752D01*
X144698721Y-94649022D01*
X144698723Y-94649026D01*
X144698724Y-94649030D01*
X144707470Y-94667785D01*
X144788977Y-94842578D01*
X144911472Y-95017521D01*
X145062478Y-95168527D01*
X145097607Y-95193124D01*
X145237419Y-95291021D01*
X145237421Y-95291022D01*
X145237420Y-95291022D01*
X145301936Y-95321106D01*
X145430970Y-95381276D01*
X145637253Y-95436549D01*
X145785283Y-95449500D01*
X145849998Y-95455162D01*
X145850000Y-95455162D01*
X145850002Y-95455162D01*
X145903186Y-95450508D01*
X146062747Y-95436549D01*
X146269030Y-95381276D01*
X146462581Y-95291021D01*
X146637519Y-95168529D01*
X146788529Y-95017519D01*
X146911021Y-94842581D01*
X147001276Y-94649030D01*
X147056549Y-94442747D01*
X147075162Y-94230000D01*
X147056549Y-94017253D01*
X147001276Y-93810970D01*
X146911021Y-93617419D01*
X146800145Y-93459070D01*
X146788527Y-93442478D01*
X146637521Y-93291472D01*
X146462578Y-93168977D01*
X146462579Y-93168977D01*
X146333547Y-93108809D01*
X146269030Y-93078724D01*
X146269023Y-93078722D01*
X146263936Y-93076870D01*
X146264709Y-93074746D01*
X146213305Y-93043424D01*
X146182766Y-92980581D01*
X146191050Y-92911204D01*
X146235528Y-92857320D01*
X146264315Y-92844172D01*
X146263936Y-92843130D01*
X146269013Y-92841280D01*
X146269030Y-92841276D01*
X146462581Y-92751021D01*
X146637519Y-92628529D01*
X146788529Y-92477519D01*
X146911021Y-92302581D01*
X147001276Y-92109030D01*
X147056549Y-91902747D01*
X147075162Y-91690000D01*
X147056549Y-91477253D01*
X147001276Y-91270970D01*
X146911021Y-91077419D01*
X146813124Y-90937607D01*
X146788527Y-90902478D01*
X146637521Y-90751472D01*
X146462578Y-90628977D01*
X146462579Y-90628977D01*
X146333547Y-90568809D01*
X146269030Y-90538724D01*
X146269023Y-90538722D01*
X146263936Y-90536870D01*
X146264709Y-90534746D01*
X146213305Y-90503424D01*
X146182766Y-90440581D01*
X146191050Y-90371204D01*
X146235528Y-90317320D01*
X146264315Y-90304172D01*
X146263936Y-90303130D01*
X146269013Y-90301280D01*
X146269030Y-90301276D01*
X146462581Y-90211021D01*
X146637519Y-90088529D01*
X146788529Y-89937519D01*
X146911021Y-89762581D01*
X147001276Y-89569030D01*
X147056549Y-89362747D01*
X147075162Y-89150000D01*
X147056549Y-88937253D01*
X147001276Y-88730970D01*
X146911021Y-88537419D01*
X146788529Y-88362481D01*
X146788527Y-88362478D01*
X146637521Y-88211472D01*
X146462578Y-88088977D01*
X146462579Y-88088977D01*
X146333547Y-88028809D01*
X146269030Y-87998724D01*
X146269026Y-87998723D01*
X146269022Y-87998721D01*
X146062752Y-87943452D01*
X146062748Y-87943451D01*
X146062747Y-87943451D01*
X146062746Y-87943450D01*
X146062741Y-87943450D01*
X145850002Y-87924838D01*
X145849998Y-87924838D01*
X145637258Y-87943450D01*
X145637247Y-87943452D01*
X145430977Y-87998721D01*
X145430968Y-87998725D01*
X145237421Y-88088977D01*
X145062478Y-88211472D01*
X144911472Y-88362478D01*
X144788977Y-88537421D01*
X144698725Y-88730968D01*
X144698721Y-88730977D01*
X144643452Y-88937247D01*
X144643450Y-88937258D01*
X144624838Y-89149998D01*
X144624838Y-89150001D01*
X144643450Y-89362741D01*
X144643452Y-89362752D01*
X144698721Y-89569022D01*
X144698723Y-89569026D01*
X144698724Y-89569030D01*
X144721839Y-89618599D01*
X144788977Y-89762578D01*
X144911472Y-89937521D01*
X145062478Y-90088527D01*
X145062481Y-90088529D01*
X145237419Y-90211021D01*
X145237421Y-90211022D01*
X145237420Y-90211022D01*
X145301936Y-90241106D01*
X145430970Y-90301276D01*
X145430983Y-90301279D01*
X145436064Y-90303130D01*
X145435292Y-90305250D01*
X145486710Y-90336594D01*
X145517237Y-90399442D01*
X145508939Y-90468817D01*
X145464452Y-90522693D01*
X145435685Y-90535830D01*
X145436064Y-90536870D01*
X145430972Y-90538723D01*
X145430970Y-90538724D01*
X145430968Y-90538725D01*
X145237421Y-90628977D01*
X145062478Y-90751472D01*
X144911472Y-90902478D01*
X144788977Y-91077421D01*
X144698725Y-91270968D01*
X144698721Y-91270977D01*
X144643452Y-91477247D01*
X144643450Y-91477258D01*
X144624838Y-91689998D01*
X144624838Y-91690001D01*
X144643450Y-91902741D01*
X144643452Y-91902752D01*
X144698721Y-92109022D01*
X144698723Y-92109026D01*
X144698724Y-92109030D01*
X144721838Y-92158597D01*
X144788977Y-92302578D01*
X144911472Y-92477521D01*
X145062478Y-92628527D01*
X145062481Y-92628529D01*
X145237419Y-92751021D01*
X145237421Y-92751022D01*
X145237420Y-92751022D01*
X145301936Y-92781106D01*
X145430970Y-92841276D01*
X145430983Y-92841279D01*
X145436064Y-92843130D01*
X145435292Y-92845250D01*
X145486710Y-92876594D01*
X145517237Y-92939442D01*
X145508939Y-93008817D01*
X145464452Y-93062693D01*
X145435685Y-93075830D01*
X145436064Y-93076870D01*
X145430972Y-93078723D01*
X145430970Y-93078724D01*
X145430968Y-93078725D01*
X145237421Y-93168977D01*
X145062478Y-93291472D01*
X144911472Y-93442478D01*
X144788977Y-93617421D01*
X144698725Y-93810968D01*
X144698721Y-93810977D01*
X144643452Y-94017247D01*
X144643450Y-94017258D01*
X144624838Y-94229998D01*
X144624838Y-94230001D01*
X134963447Y-94230001D01*
X134976739Y-94201496D01*
X135035635Y-93981692D01*
X135055468Y-93755000D01*
X135035635Y-93528308D01*
X134976739Y-93308504D01*
X134880568Y-93102266D01*
X134750047Y-92915861D01*
X134750045Y-92915858D01*
X134589141Y-92754954D01*
X134402734Y-92624432D01*
X134402728Y-92624429D01*
X134344725Y-92597382D01*
X134292285Y-92551210D01*
X134273133Y-92484017D01*
X134293348Y-92417135D01*
X134344725Y-92372618D01*
X134402734Y-92345568D01*
X134589139Y-92215047D01*
X134750047Y-92054139D01*
X134880568Y-91867734D01*
X134976739Y-91661496D01*
X135035635Y-91441692D01*
X135055468Y-91215000D01*
X135035635Y-90988308D01*
X134976739Y-90768504D01*
X134880568Y-90562266D01*
X134750047Y-90375861D01*
X134750045Y-90375858D01*
X134589143Y-90214956D01*
X134564536Y-90197726D01*
X134520912Y-90143149D01*
X134513719Y-90073650D01*
X134545241Y-90011296D01*
X134605471Y-89975882D01*
X134622404Y-89972861D01*
X134657483Y-89969091D01*
X134792331Y-89918796D01*
X134907546Y-89832546D01*
X134993796Y-89717331D01*
X135044091Y-89582483D01*
X135050500Y-89522873D01*
X135050499Y-87827128D01*
X135044091Y-87767517D01*
X135009567Y-87674954D01*
X134993797Y-87632671D01*
X134993793Y-87632664D01*
X134907547Y-87517455D01*
X134907544Y-87517452D01*
X134792335Y-87431206D01*
X134792328Y-87431202D01*
X134657482Y-87380908D01*
X134657483Y-87380908D01*
X134597883Y-87374501D01*
X134597881Y-87374500D01*
X134597873Y-87374500D01*
X134597864Y-87374500D01*
X132102129Y-87374500D01*
X132102123Y-87374501D01*
X132042516Y-87380908D01*
X131907671Y-87431202D01*
X131907664Y-87431206D01*
X131792455Y-87517452D01*
X131792452Y-87517455D01*
X131706206Y-87632664D01*
X131706202Y-87632671D01*
X131655908Y-87767517D01*
X131649501Y-87827116D01*
X131649501Y-87827123D01*
X131649500Y-87827135D01*
X131649500Y-89522870D01*
X131649501Y-89522876D01*
X131655908Y-89582483D01*
X131706202Y-89717328D01*
X131706206Y-89717335D01*
X131792452Y-89832544D01*
X131792455Y-89832547D01*
X131907664Y-89918793D01*
X131907671Y-89918797D01*
X131952618Y-89935561D01*
X132042517Y-89969091D01*
X132077596Y-89972862D01*
X132142144Y-89999599D01*
X132181993Y-90056991D01*
X132184488Y-90126816D01*
X132148836Y-90186905D01*
X132135464Y-90197725D01*
X132110858Y-90214954D01*
X131949954Y-90375858D01*
X131819432Y-90562265D01*
X131819431Y-90562267D01*
X131723261Y-90768502D01*
X131723258Y-90768511D01*
X131664366Y-90988302D01*
X131664364Y-90988313D01*
X131644532Y-91214998D01*
X131644532Y-91215001D01*
X131664364Y-91441686D01*
X131664366Y-91441697D01*
X131723258Y-91661488D01*
X131723261Y-91661497D01*
X131819431Y-91867732D01*
X131819432Y-91867734D01*
X131949954Y-92054141D01*
X132110858Y-92215045D01*
X132110861Y-92215047D01*
X132297266Y-92345568D01*
X132355275Y-92372618D01*
X132407714Y-92418791D01*
X132426866Y-92485984D01*
X132406650Y-92552865D01*
X132355275Y-92597382D01*
X132297267Y-92624431D01*
X132297265Y-92624432D01*
X132110858Y-92754954D01*
X131949954Y-92915858D01*
X131819432Y-93102265D01*
X131819431Y-93102267D01*
X131723261Y-93308502D01*
X131723258Y-93308511D01*
X131664366Y-93528302D01*
X131664364Y-93528313D01*
X131644532Y-93754998D01*
X131644532Y-93755001D01*
X131664364Y-93981686D01*
X131664366Y-93981697D01*
X131723258Y-94201488D01*
X131723261Y-94201497D01*
X131819431Y-94407732D01*
X131819432Y-94407734D01*
X131949954Y-94594141D01*
X132110858Y-94755045D01*
X132110861Y-94755047D01*
X132297266Y-94885568D01*
X132355275Y-94912618D01*
X132407714Y-94958791D01*
X132426866Y-95025984D01*
X132406650Y-95092865D01*
X132355275Y-95137382D01*
X132297267Y-95164431D01*
X132297265Y-95164432D01*
X132110858Y-95294954D01*
X131949954Y-95455858D01*
X131819432Y-95642265D01*
X131819431Y-95642267D01*
X131723261Y-95848502D01*
X131723258Y-95848511D01*
X131664366Y-96068302D01*
X131664364Y-96068313D01*
X131644532Y-96294998D01*
X131644532Y-96295001D01*
X131664364Y-96521686D01*
X131664366Y-96521697D01*
X131723258Y-96741488D01*
X131723261Y-96741497D01*
X131819431Y-96947732D01*
X131819432Y-96947734D01*
X131949954Y-97134141D01*
X132110858Y-97295045D01*
X132110861Y-97295047D01*
X132297266Y-97425568D01*
X132344147Y-97447429D01*
X132355275Y-97452618D01*
X132407714Y-97498791D01*
X132426866Y-97565984D01*
X132406650Y-97632865D01*
X132355275Y-97677382D01*
X132297267Y-97704431D01*
X132297265Y-97704432D01*
X132110858Y-97834954D01*
X131949954Y-97995858D01*
X131819432Y-98182265D01*
X131819431Y-98182267D01*
X131723261Y-98388502D01*
X131723258Y-98388511D01*
X131664366Y-98608302D01*
X131664364Y-98608313D01*
X131644532Y-98834998D01*
X131644532Y-98835001D01*
X131664364Y-99061686D01*
X131664366Y-99061697D01*
X131723258Y-99281488D01*
X131723261Y-99281497D01*
X131819431Y-99487732D01*
X131819432Y-99487734D01*
X131949954Y-99674141D01*
X132110858Y-99835045D01*
X132110861Y-99835047D01*
X132297266Y-99965568D01*
X132354681Y-99992341D01*
X132355275Y-99992618D01*
X132407714Y-100038791D01*
X132426866Y-100105984D01*
X132406650Y-100172865D01*
X132355275Y-100217382D01*
X132297267Y-100244431D01*
X132297265Y-100244432D01*
X132110858Y-100374954D01*
X131949954Y-100535858D01*
X131819432Y-100722265D01*
X131819431Y-100722267D01*
X131723261Y-100928502D01*
X131723258Y-100928511D01*
X131664366Y-101148302D01*
X131664364Y-101148313D01*
X131644532Y-101374998D01*
X131644532Y-101375001D01*
X131664364Y-101601686D01*
X131664366Y-101601697D01*
X131723258Y-101821488D01*
X131723261Y-101821497D01*
X131819431Y-102027732D01*
X131819432Y-102027734D01*
X131949954Y-102214141D01*
X132110858Y-102375045D01*
X132110861Y-102375047D01*
X132297266Y-102505568D01*
X132355275Y-102532618D01*
X132407714Y-102578791D01*
X132426866Y-102645984D01*
X132406650Y-102712865D01*
X132355275Y-102757382D01*
X132297267Y-102784431D01*
X132297265Y-102784432D01*
X132110858Y-102914954D01*
X131949954Y-103075858D01*
X131819432Y-103262265D01*
X131819431Y-103262267D01*
X131723261Y-103468502D01*
X131723258Y-103468511D01*
X131664366Y-103688302D01*
X131664364Y-103688313D01*
X131644532Y-103914998D01*
X131644532Y-103915001D01*
X131664364Y-104141686D01*
X131664366Y-104141697D01*
X131723258Y-104361488D01*
X131723261Y-104361497D01*
X131819431Y-104567732D01*
X131819432Y-104567734D01*
X131949954Y-104754141D01*
X132110858Y-104915045D01*
X132110861Y-104915047D01*
X132297266Y-105045568D01*
X132355275Y-105072618D01*
X132407714Y-105118791D01*
X132426866Y-105185984D01*
X132406650Y-105252865D01*
X132355275Y-105297381D01*
X132338272Y-105305310D01*
X132297267Y-105324431D01*
X132297265Y-105324432D01*
X132110858Y-105454954D01*
X131949954Y-105615858D01*
X131819432Y-105802265D01*
X131819431Y-105802267D01*
X131723261Y-106008502D01*
X131723258Y-106008511D01*
X131664366Y-106228302D01*
X131664364Y-106228313D01*
X131644532Y-106454998D01*
X131644532Y-106455001D01*
X129790500Y-106455001D01*
X129790500Y-93585502D01*
X129792268Y-93569489D01*
X129792026Y-93569467D01*
X129792758Y-93561711D01*
X129792760Y-93561704D01*
X129790561Y-93491736D01*
X129790500Y-93487841D01*
X129790500Y-93459077D01*
X129790499Y-93459070D01*
X129789949Y-93454716D01*
X129789030Y-93443054D01*
X129789012Y-93442478D01*
X129787597Y-93397431D01*
X129781676Y-93377053D01*
X129777731Y-93358004D01*
X129775071Y-93336942D01*
X129758263Y-93294491D01*
X129754480Y-93283442D01*
X129741744Y-93239602D01*
X129730940Y-93221334D01*
X129722378Y-93203856D01*
X129714568Y-93184129D01*
X129714565Y-93184125D01*
X129703561Y-93168979D01*
X129687730Y-93147189D01*
X129681331Y-93137448D01*
X129658081Y-93098135D01*
X129658079Y-93098133D01*
X129658078Y-93098131D01*
X129643075Y-93083129D01*
X129630435Y-93068330D01*
X129617961Y-93051160D01*
X129582780Y-93022056D01*
X129574140Y-93014194D01*
X127390588Y-90830642D01*
X127358494Y-90775053D01*
X127356740Y-90768508D01*
X127356739Y-90768504D01*
X127336643Y-90725408D01*
X127260568Y-90562266D01*
X127130047Y-90375861D01*
X127130045Y-90375858D01*
X126969141Y-90214954D01*
X126782734Y-90084432D01*
X126782728Y-90084429D01*
X126724725Y-90057382D01*
X126672285Y-90011210D01*
X126653133Y-89944017D01*
X126673348Y-89877135D01*
X126724725Y-89832618D01*
X126782734Y-89805568D01*
X126969139Y-89675047D01*
X127130047Y-89514139D01*
X127260568Y-89327734D01*
X127356739Y-89121496D01*
X127415635Y-88901692D01*
X127435468Y-88675000D01*
X127415635Y-88448308D01*
X127356739Y-88228504D01*
X127260568Y-88022266D01*
X127130047Y-87835861D01*
X127130045Y-87835858D01*
X126969141Y-87674954D01*
X126782734Y-87544432D01*
X126782732Y-87544431D01*
X126576497Y-87448261D01*
X126576488Y-87448258D01*
X126356697Y-87389366D01*
X126356687Y-87389364D01*
X126186785Y-87374500D01*
X126186784Y-87374500D01*
X125273216Y-87374500D01*
X125273215Y-87374500D01*
X125103312Y-87389364D01*
X125103302Y-87389366D01*
X124883511Y-87448258D01*
X124883502Y-87448261D01*
X124677267Y-87544431D01*
X124677265Y-87544432D01*
X124490858Y-87674954D01*
X124329954Y-87835858D01*
X124199432Y-88022265D01*
X124199431Y-88022267D01*
X124103261Y-88228502D01*
X124103258Y-88228511D01*
X124044366Y-88448302D01*
X124044364Y-88448313D01*
X124024532Y-88674998D01*
X124024532Y-88675001D01*
X124044364Y-88901686D01*
X124044366Y-88901697D01*
X124103258Y-89121488D01*
X124103261Y-89121497D01*
X124199431Y-89327732D01*
X124199432Y-89327734D01*
X124329954Y-89514141D01*
X124490858Y-89675045D01*
X124490861Y-89675047D01*
X124677266Y-89805568D01*
X124735275Y-89832618D01*
X124787714Y-89878791D01*
X124806866Y-89945984D01*
X124786650Y-90012865D01*
X124735275Y-90057382D01*
X124677267Y-90084431D01*
X124677265Y-90084432D01*
X124490858Y-90214954D01*
X124329954Y-90375858D01*
X124199432Y-90562265D01*
X124199431Y-90562267D01*
X124103261Y-90768502D01*
X124103258Y-90768511D01*
X124044366Y-90988302D01*
X124044364Y-90988313D01*
X124024532Y-91214998D01*
X124024532Y-91215001D01*
X124044364Y-91441686D01*
X124044366Y-91441697D01*
X124103258Y-91661488D01*
X124103261Y-91661497D01*
X124199431Y-91867732D01*
X124199432Y-91867734D01*
X124329954Y-92054141D01*
X124490858Y-92215045D01*
X124490861Y-92215047D01*
X124677266Y-92345568D01*
X124735275Y-92372618D01*
X124787714Y-92418791D01*
X124806866Y-92485984D01*
X124786650Y-92552865D01*
X124735275Y-92597382D01*
X124677267Y-92624431D01*
X124677265Y-92624432D01*
X124490858Y-92754954D01*
X124329954Y-92915858D01*
X124199432Y-93102265D01*
X124199431Y-93102267D01*
X124103261Y-93308502D01*
X124103258Y-93308511D01*
X124044366Y-93528302D01*
X124044364Y-93528313D01*
X124024532Y-93754998D01*
X124024532Y-93755001D01*
X124044364Y-93981686D01*
X124044366Y-93981697D01*
X124103258Y-94201488D01*
X124103261Y-94201497D01*
X124199431Y-94407732D01*
X124199432Y-94407734D01*
X124329954Y-94594141D01*
X124490858Y-94755045D01*
X124490861Y-94755047D01*
X124677266Y-94885568D01*
X124735275Y-94912618D01*
X124787714Y-94958791D01*
X124806866Y-95025984D01*
X124786650Y-95092865D01*
X124735275Y-95137382D01*
X124677267Y-95164431D01*
X124677265Y-95164432D01*
X124490858Y-95294954D01*
X124329954Y-95455858D01*
X124199432Y-95642265D01*
X124199431Y-95642267D01*
X124103261Y-95848502D01*
X124103258Y-95848511D01*
X124044366Y-96068302D01*
X124044364Y-96068313D01*
X124024532Y-96294998D01*
X124024532Y-96295001D01*
X124044364Y-96521686D01*
X124044366Y-96521697D01*
X124103258Y-96741488D01*
X124103261Y-96741497D01*
X124199431Y-96947732D01*
X124199432Y-96947734D01*
X124329954Y-97134141D01*
X124490858Y-97295045D01*
X124490861Y-97295047D01*
X124677266Y-97425568D01*
X124735865Y-97452893D01*
X124788305Y-97499065D01*
X124807457Y-97566258D01*
X124787242Y-97633139D01*
X124735867Y-97677657D01*
X124677515Y-97704867D01*
X124491179Y-97835342D01*
X124330342Y-97996179D01*
X124199865Y-98182517D01*
X124103734Y-98388673D01*
X124103730Y-98388682D01*
X124051127Y-98584999D01*
X124051128Y-98585000D01*
X125414314Y-98585000D01*
X125402359Y-98596955D01*
X125344835Y-98709852D01*
X125325014Y-98835000D01*
X125344835Y-98960148D01*
X125402359Y-99073045D01*
X125414314Y-99085000D01*
X124051128Y-99085000D01*
X124103730Y-99281317D01*
X124103734Y-99281326D01*
X124199865Y-99487482D01*
X124330342Y-99673820D01*
X124491179Y-99834657D01*
X124677518Y-99965134D01*
X124677520Y-99965135D01*
X124735865Y-99992342D01*
X124788305Y-100038514D01*
X124807457Y-100105707D01*
X124787242Y-100172589D01*
X124735867Y-100217105D01*
X124677268Y-100244431D01*
X124677264Y-100244433D01*
X124490858Y-100374954D01*
X124329954Y-100535858D01*
X124199432Y-100722265D01*
X124199431Y-100722267D01*
X124103261Y-100928502D01*
X124103258Y-100928511D01*
X124044366Y-101148302D01*
X124044364Y-101148313D01*
X124024532Y-101374998D01*
X124024532Y-101375001D01*
X124044364Y-101601686D01*
X124044366Y-101601697D01*
X124103258Y-101821488D01*
X124103261Y-101821497D01*
X124199431Y-102027732D01*
X124199432Y-102027734D01*
X124329954Y-102214141D01*
X124490858Y-102375045D01*
X124490861Y-102375047D01*
X124677266Y-102505568D01*
X124735275Y-102532618D01*
X124787714Y-102578791D01*
X124806866Y-102645984D01*
X124786650Y-102712865D01*
X124735275Y-102757382D01*
X124677267Y-102784431D01*
X124677265Y-102784432D01*
X124490858Y-102914954D01*
X124329954Y-103075858D01*
X124199432Y-103262265D01*
X124199431Y-103262267D01*
X124103261Y-103468502D01*
X124103258Y-103468511D01*
X124044366Y-103688302D01*
X124044364Y-103688313D01*
X124024532Y-103914998D01*
X124024532Y-103915001D01*
X124044364Y-104141686D01*
X124044366Y-104141697D01*
X124103258Y-104361488D01*
X124103261Y-104361497D01*
X124199431Y-104567732D01*
X124199432Y-104567734D01*
X124329954Y-104754141D01*
X124490858Y-104915045D01*
X124490861Y-104915047D01*
X124677266Y-105045568D01*
X124735275Y-105072618D01*
X124787714Y-105118791D01*
X124806866Y-105185984D01*
X124786650Y-105252865D01*
X124735275Y-105297381D01*
X124718272Y-105305310D01*
X124677267Y-105324431D01*
X124677265Y-105324432D01*
X124490858Y-105454954D01*
X124329954Y-105615858D01*
X124199432Y-105802265D01*
X124199431Y-105802267D01*
X124103261Y-106008502D01*
X124103258Y-106008511D01*
X124044366Y-106228302D01*
X124044364Y-106228313D01*
X124024532Y-106454998D01*
X124024532Y-106455001D01*
X124044364Y-106681686D01*
X124044366Y-106681697D01*
X124103258Y-106901488D01*
X124103261Y-106901497D01*
X124199431Y-107107732D01*
X124199432Y-107107734D01*
X124329954Y-107294141D01*
X124490858Y-107455045D01*
X124490861Y-107455047D01*
X124677266Y-107585568D01*
X124883504Y-107681739D01*
X125103308Y-107740635D01*
X125273214Y-107755499D01*
X125273215Y-107755500D01*
X125273216Y-107755500D01*
X126186785Y-107755500D01*
X126186785Y-107755499D01*
X126356692Y-107740635D01*
X126576496Y-107681739D01*
X126782734Y-107585568D01*
X126969139Y-107455047D01*
X126969141Y-107455045D01*
X127037819Y-107386368D01*
X127099142Y-107352883D01*
X127168834Y-107357867D01*
X127224767Y-107399739D01*
X127249184Y-107465203D01*
X127249500Y-107474049D01*
X127249500Y-113409192D01*
X127229815Y-113476231D01*
X127213181Y-113496873D01*
X125466873Y-115243181D01*
X125405550Y-115276666D01*
X125379192Y-115279500D01*
X125355354Y-115279500D01*
X125322897Y-115286398D01*
X125170197Y-115318855D01*
X125170192Y-115318857D01*
X124997270Y-115395848D01*
X124997265Y-115395851D01*
X124844129Y-115507111D01*
X124717466Y-115647785D01*
X124622821Y-115811715D01*
X124622818Y-115811722D01*
X124564327Y-115991740D01*
X124564326Y-115991744D01*
X124544540Y-116180000D01*
X124564326Y-116368256D01*
X124564327Y-116368259D01*
X124622818Y-116548277D01*
X124622821Y-116548284D01*
X124717467Y-116712216D01*
X124833458Y-116841037D01*
X124844129Y-116852888D01*
X124997265Y-116964148D01*
X124997270Y-116964151D01*
X125170192Y-117041142D01*
X125170197Y-117041144D01*
X125355354Y-117080500D01*
X125355355Y-117080500D01*
X125544644Y-117080500D01*
X125544646Y-117080500D01*
X125729803Y-117041144D01*
X125902730Y-116964151D01*
X126055871Y-116852888D01*
X126182533Y-116712216D01*
X126277179Y-116548284D01*
X126335674Y-116368256D01*
X126349168Y-116239855D01*
X126375752Y-116175242D01*
X126384799Y-116165145D01*
X128277819Y-114272126D01*
X128339142Y-114238641D01*
X128408834Y-114243625D01*
X128464767Y-114285497D01*
X128489184Y-114350961D01*
X128489500Y-114359807D01*
X128489500Y-116089192D01*
X128469815Y-116156231D01*
X128453181Y-116176873D01*
X123616873Y-121013181D01*
X123555550Y-121046666D01*
X123529192Y-121049500D01*
X123505354Y-121049500D01*
X123472897Y-121056398D01*
X123320197Y-121088855D01*
X123320192Y-121088857D01*
X123147270Y-121165848D01*
X123147265Y-121165851D01*
X122994129Y-121277111D01*
X122867466Y-121417785D01*
X122772821Y-121581715D01*
X122772818Y-121581722D01*
X122714327Y-121761740D01*
X122714326Y-121761744D01*
X122694540Y-121950000D01*
X118900500Y-121950000D01*
X118900500Y-120224500D01*
X118920185Y-120157461D01*
X118972989Y-120111706D01*
X119024500Y-120100500D01*
X119094644Y-120100500D01*
X119094646Y-120100500D01*
X119279803Y-120061144D01*
X119452730Y-119984151D01*
X119605871Y-119872888D01*
X119732533Y-119732216D01*
X119767613Y-119671454D01*
X119818179Y-119623240D01*
X119886786Y-119610016D01*
X119951651Y-119635984D01*
X119982385Y-119671453D01*
X120017466Y-119732214D01*
X120017467Y-119732216D01*
X120144129Y-119872888D01*
X120297265Y-119984148D01*
X120297270Y-119984151D01*
X120470192Y-120061142D01*
X120470197Y-120061144D01*
X120655354Y-120100500D01*
X120655355Y-120100500D01*
X120844644Y-120100500D01*
X120844646Y-120100500D01*
X121029803Y-120061144D01*
X121202730Y-119984151D01*
X121355871Y-119872888D01*
X121482533Y-119732216D01*
X121517613Y-119671454D01*
X121568179Y-119623240D01*
X121636786Y-119610016D01*
X121701651Y-119635984D01*
X121732385Y-119671453D01*
X121767466Y-119732214D01*
X121767467Y-119732216D01*
X121894129Y-119872888D01*
X122047265Y-119984148D01*
X122047270Y-119984151D01*
X122220192Y-120061142D01*
X122220197Y-120061144D01*
X122405354Y-120100500D01*
X122405355Y-120100500D01*
X122594644Y-120100500D01*
X122594646Y-120100500D01*
X122779803Y-120061144D01*
X122952730Y-119984151D01*
X123105871Y-119872888D01*
X123232533Y-119732216D01*
X123327179Y-119568284D01*
X123385674Y-119388256D01*
X123405460Y-119200000D01*
X123385674Y-119011744D01*
X123331112Y-118843823D01*
X123327181Y-118831722D01*
X123327180Y-118831721D01*
X123327179Y-118831716D01*
X123232533Y-118667784D01*
X123182350Y-118612050D01*
X123152120Y-118549058D01*
X123150500Y-118529078D01*
X123150500Y-98685501D01*
X123152268Y-98669488D01*
X123152026Y-98669466D01*
X123152758Y-98661710D01*
X123152760Y-98661703D01*
X123150561Y-98591735D01*
X123150500Y-98587840D01*
X123150500Y-98559077D01*
X123150499Y-98559070D01*
X123149949Y-98554716D01*
X123149030Y-98543054D01*
X123147597Y-98497430D01*
X123141676Y-98477052D01*
X123137731Y-98458003D01*
X123135071Y-98436942D01*
X123118261Y-98394487D01*
X123114481Y-98383445D01*
X123103431Y-98345408D01*
X123101744Y-98339601D01*
X123090939Y-98321332D01*
X123082379Y-98303858D01*
X123081351Y-98301262D01*
X123074568Y-98284129D01*
X123047737Y-98247199D01*
X123041323Y-98237435D01*
X123018082Y-98198137D01*
X123018081Y-98198135D01*
X123003075Y-98183129D01*
X122990435Y-98168330D01*
X122977961Y-98151160D01*
X122942780Y-98122056D01*
X122934140Y-98114194D01*
X113236818Y-88416872D01*
X113203333Y-88355549D01*
X113200499Y-88329191D01*
X113200499Y-87052129D01*
X113200498Y-87052123D01*
X113200497Y-87052116D01*
X113194091Y-86992517D01*
X113143796Y-86857669D01*
X113143795Y-86857668D01*
X113143793Y-86857664D01*
X113057547Y-86742455D01*
X113057544Y-86742452D01*
X112942335Y-86656206D01*
X112942328Y-86656202D01*
X112807482Y-86605908D01*
X112807483Y-86605908D01*
X112747883Y-86599501D01*
X112747881Y-86599500D01*
X112747873Y-86599500D01*
X112747864Y-86599500D01*
X110952129Y-86599500D01*
X110952123Y-86599501D01*
X110892516Y-86605908D01*
X110757671Y-86656202D01*
X110757664Y-86656206D01*
X110642455Y-86742452D01*
X110642452Y-86742455D01*
X110556206Y-86857664D01*
X110556202Y-86857671D01*
X110505908Y-86992517D01*
X110499501Y-87052116D01*
X110499501Y-87052123D01*
X110499500Y-87052135D01*
X110499500Y-88847870D01*
X110499501Y-88847876D01*
X110505908Y-88907483D01*
X110556202Y-89042328D01*
X110556206Y-89042335D01*
X110642452Y-89157544D01*
X110642455Y-89157547D01*
X110757664Y-89243793D01*
X110757671Y-89243797D01*
X110889081Y-89292810D01*
X110945015Y-89334681D01*
X110969432Y-89400145D01*
X110954580Y-89468418D01*
X110933430Y-89496673D01*
X110811503Y-89618600D01*
X110675965Y-89812169D01*
X110675964Y-89812171D01*
X110576098Y-90026335D01*
X110576094Y-90026344D01*
X110514938Y-90254586D01*
X110514936Y-90254596D01*
X110494341Y-90489999D01*
X110494341Y-90490000D01*
X110514936Y-90725403D01*
X110514938Y-90725413D01*
X110576094Y-90953655D01*
X110576096Y-90953659D01*
X110576097Y-90953663D01*
X110675965Y-91167830D01*
X110675967Y-91167834D01*
X110811501Y-91361395D01*
X110811506Y-91361402D01*
X110978597Y-91528493D01*
X110978603Y-91528498D01*
X111164158Y-91658425D01*
X111207783Y-91713002D01*
X111214977Y-91782500D01*
X111183454Y-91844855D01*
X111164158Y-91861575D01*
X110978597Y-91991505D01*
X110811505Y-92158597D01*
X110675965Y-92352169D01*
X110675964Y-92352171D01*
X110576098Y-92566335D01*
X110576094Y-92566344D01*
X110514938Y-92794586D01*
X110514936Y-92794596D01*
X110494341Y-93029999D01*
X110494341Y-93030000D01*
X110514936Y-93265403D01*
X110514938Y-93265413D01*
X110576094Y-93493655D01*
X110576096Y-93493659D01*
X110576097Y-93493663D01*
X110675965Y-93707830D01*
X110675967Y-93707834D01*
X110811501Y-93901395D01*
X110811506Y-93901402D01*
X110978597Y-94068493D01*
X110978603Y-94068498D01*
X111164158Y-94198425D01*
X111207783Y-94253002D01*
X111214977Y-94322500D01*
X111183454Y-94384855D01*
X111164158Y-94401575D01*
X110978597Y-94531505D01*
X110811505Y-94698597D01*
X110675965Y-94892169D01*
X110675964Y-94892171D01*
X110576098Y-95106335D01*
X110576094Y-95106344D01*
X110514938Y-95334586D01*
X110514936Y-95334596D01*
X110494341Y-95569999D01*
X110494341Y-95570000D01*
X110514936Y-95805403D01*
X110514938Y-95805413D01*
X110576094Y-96033655D01*
X110576096Y-96033659D01*
X110576097Y-96033663D01*
X110635823Y-96161745D01*
X110675965Y-96247830D01*
X110675967Y-96247834D01*
X110811501Y-96441395D01*
X110811506Y-96441402D01*
X110978597Y-96608493D01*
X110978603Y-96608498D01*
X111164158Y-96738425D01*
X111207783Y-96793002D01*
X111214977Y-96862500D01*
X111183454Y-96924855D01*
X111164158Y-96941575D01*
X110978597Y-97071505D01*
X110811505Y-97238597D01*
X110675965Y-97432169D01*
X110675964Y-97432171D01*
X110576098Y-97646335D01*
X110576094Y-97646344D01*
X110514938Y-97874586D01*
X110514936Y-97874596D01*
X110494341Y-98109999D01*
X110494341Y-98110000D01*
X110514936Y-98345403D01*
X110514938Y-98345413D01*
X110576094Y-98573655D01*
X110576096Y-98573659D01*
X110576097Y-98573663D01*
X110628248Y-98685501D01*
X110675965Y-98787830D01*
X110675967Y-98787834D01*
X110733113Y-98869446D01*
X110796623Y-98960148D01*
X110811501Y-98981395D01*
X110811506Y-98981402D01*
X110978597Y-99148493D01*
X110978603Y-99148498D01*
X111164158Y-99278425D01*
X111207783Y-99333002D01*
X111214977Y-99402500D01*
X111183454Y-99464855D01*
X111164158Y-99481575D01*
X110978597Y-99611505D01*
X110811505Y-99778597D01*
X110675965Y-99972169D01*
X110675964Y-99972171D01*
X110576098Y-100186335D01*
X110576094Y-100186344D01*
X110514938Y-100414586D01*
X110514936Y-100414596D01*
X110494341Y-100649999D01*
X110494341Y-100650000D01*
X110514936Y-100885403D01*
X110514938Y-100885413D01*
X110576094Y-101113655D01*
X110576096Y-101113659D01*
X110576097Y-101113663D01*
X110592255Y-101148313D01*
X110675965Y-101327830D01*
X110675967Y-101327834D01*
X110811501Y-101521395D01*
X110811506Y-101521402D01*
X110978597Y-101688493D01*
X110978603Y-101688498D01*
X111164158Y-101818425D01*
X111207783Y-101873002D01*
X111214977Y-101942500D01*
X111183454Y-102004855D01*
X111164158Y-102021575D01*
X110978597Y-102151505D01*
X110811505Y-102318597D01*
X110675965Y-102512169D01*
X110675964Y-102512171D01*
X110576098Y-102726335D01*
X110576094Y-102726344D01*
X110514938Y-102954586D01*
X110514936Y-102954596D01*
X110494341Y-103189999D01*
X110494341Y-103190000D01*
X110050500Y-103190000D01*
X110050500Y-86274500D01*
X110070185Y-86207461D01*
X110122989Y-86161706D01*
X110174500Y-86150500D01*
X148925500Y-86150500D01*
X148992539Y-86170185D01*
G37*
%TD.AperFunction*%
%TD*%
M02*
