%TF.GenerationSoftware,KiCad,Pcbnew,7.0.10*%
%TF.CreationDate,2024-02-20T22:03:50-06:00*%
%TF.ProjectId,3340_VCO,33333430-5f56-4434-9f2e-6b696361645f,rev?*%
%TF.SameCoordinates,Original*%
%TF.FileFunction,Legend,Bot*%
%TF.FilePolarity,Positive*%
%FSLAX46Y46*%
G04 Gerber Fmt 4.6, Leading zero omitted, Abs format (unit mm)*
G04 Created by KiCad (PCBNEW 7.0.10) date 2024-02-20 22:03:50*
%MOMM*%
%LPD*%
G01*
G04 APERTURE LIST*
%ADD10C,0.250000*%
%ADD11C,0.125000*%
%ADD12C,0.150000*%
%ADD13C,0.120000*%
G04 APERTURE END LIST*
D10*
G36*
X122716713Y-140596106D02*
G01*
X123111898Y-140596106D01*
X123111898Y-140471053D01*
X122716713Y-140471053D01*
X122716713Y-140596106D01*
G37*
G36*
X122134193Y-140769518D02*
G01*
X122132884Y-140780430D01*
X122128956Y-140790269D01*
X122122408Y-140799035D01*
X122113242Y-140806727D01*
X122101457Y-140813346D01*
X122092145Y-140817162D01*
X122081669Y-140820501D01*
X122070030Y-140823364D01*
X122057226Y-140825749D01*
X122043258Y-140827657D01*
X122028127Y-140829088D01*
X122011831Y-140830042D01*
X121994372Y-140830519D01*
X121985205Y-140830579D01*
X121985205Y-140940000D01*
X122584333Y-140940000D01*
X122584333Y-140830579D01*
X122573604Y-140830519D01*
X122563216Y-140830341D01*
X122553168Y-140830044D01*
X122534094Y-140829094D01*
X122516383Y-140827669D01*
X122500034Y-140825768D01*
X122485047Y-140823392D01*
X122471423Y-140820542D01*
X122459161Y-140817216D01*
X122448262Y-140813415D01*
X122438725Y-140809139D01*
X122426974Y-140801833D01*
X122418288Y-140793459D01*
X122412669Y-140784016D01*
X122410114Y-140773504D01*
X122409944Y-140769762D01*
X122409944Y-140252212D01*
X122597034Y-140252212D01*
X122602651Y-140142791D01*
X122590467Y-140142357D01*
X122578522Y-140141604D01*
X122566816Y-140140533D01*
X122555348Y-140139142D01*
X122544120Y-140137434D01*
X122533131Y-140135406D01*
X122522381Y-140133060D01*
X122511869Y-140130396D01*
X122501597Y-140127412D01*
X122491564Y-140124110D01*
X122481769Y-140120489D01*
X122472214Y-140116550D01*
X122462898Y-140112292D01*
X122453821Y-140107715D01*
X122444982Y-140102820D01*
X122436383Y-140097606D01*
X122428023Y-140092073D01*
X122419901Y-140086222D01*
X122412019Y-140080052D01*
X122404376Y-140073563D01*
X122396971Y-140066756D01*
X122389806Y-140059630D01*
X122382880Y-140052185D01*
X122376192Y-140044422D01*
X122369744Y-140036340D01*
X122363535Y-140027939D01*
X122357564Y-140019220D01*
X122351833Y-140010182D01*
X122346341Y-140000826D01*
X122341087Y-139991150D01*
X122336073Y-139981156D01*
X122331297Y-139970844D01*
X122125889Y-139986475D01*
X122127139Y-139998184D01*
X122128294Y-140009345D01*
X122129353Y-140019956D01*
X122130316Y-140030019D01*
X122131347Y-140041371D01*
X122132240Y-140051933D01*
X122132904Y-140061913D01*
X122133430Y-140071705D01*
X122133871Y-140082890D01*
X122134125Y-140093817D01*
X122134193Y-140102979D01*
X122134193Y-140769518D01*
G37*
G36*
X121039497Y-140687941D02*
G01*
X121038140Y-140698863D01*
X121037194Y-140709610D01*
X121036566Y-140719815D01*
X121036125Y-140730767D01*
X121036078Y-140732393D01*
X121035792Y-140743217D01*
X121035577Y-140753036D01*
X121035416Y-140763027D01*
X121035345Y-140773670D01*
X121035583Y-140785176D01*
X121036299Y-140796492D01*
X121037492Y-140807616D01*
X121039161Y-140818550D01*
X121041308Y-140829293D01*
X121043932Y-140839845D01*
X121045115Y-140844012D01*
X121048484Y-140854119D01*
X121052485Y-140863833D01*
X121057118Y-140873153D01*
X121062383Y-140882080D01*
X121068281Y-140890613D01*
X121074810Y-140898752D01*
X121077599Y-140901898D01*
X121084913Y-140909356D01*
X121092812Y-140916314D01*
X121101295Y-140922770D01*
X121110362Y-140928726D01*
X121120013Y-140934181D01*
X121130249Y-140939135D01*
X121134508Y-140940976D01*
X121145597Y-140945198D01*
X121154942Y-140948060D01*
X121164706Y-140950465D01*
X121174889Y-140952411D01*
X121185493Y-140953899D01*
X121196516Y-140954930D01*
X121207960Y-140955502D01*
X121216817Y-140955631D01*
X121231075Y-140955502D01*
X121244813Y-140955116D01*
X121258031Y-140954472D01*
X121270730Y-140953570D01*
X121282910Y-140952411D01*
X121294570Y-140950994D01*
X121305710Y-140949320D01*
X121316331Y-140947388D01*
X121326433Y-140945198D01*
X121336015Y-140942751D01*
X121342114Y-140940976D01*
X121353883Y-140937267D01*
X121365378Y-140933466D01*
X121376598Y-140929573D01*
X121387543Y-140925589D01*
X121398213Y-140921513D01*
X121408609Y-140917346D01*
X121418730Y-140913087D01*
X121428576Y-140908736D01*
X121438227Y-140904386D01*
X121447886Y-140900127D01*
X121457553Y-140895959D01*
X121467227Y-140891884D01*
X121476909Y-140887899D01*
X121486599Y-140884007D01*
X121496296Y-140880206D01*
X121506001Y-140876496D01*
X121515946Y-140873062D01*
X121526487Y-140870085D01*
X121537623Y-140867566D01*
X121549354Y-140865505D01*
X121561681Y-140863903D01*
X121574603Y-140862758D01*
X121584685Y-140862200D01*
X121595102Y-140861899D01*
X121602233Y-140861842D01*
X121614292Y-140862147D01*
X121625802Y-140863063D01*
X121636762Y-140864590D01*
X121647173Y-140866727D01*
X121657035Y-140869474D01*
X121666346Y-140872833D01*
X121677213Y-140877889D01*
X121683321Y-140881381D01*
X121692875Y-140887964D01*
X121701845Y-140895502D01*
X121710230Y-140903993D01*
X121716517Y-140911473D01*
X121722430Y-140919563D01*
X121727970Y-140928264D01*
X121733135Y-140937576D01*
X121734368Y-140940000D01*
X121835729Y-140940000D01*
X121833012Y-140925268D01*
X121830115Y-140910870D01*
X121827036Y-140896806D01*
X121823776Y-140883076D01*
X121820335Y-140869680D01*
X121816712Y-140856617D01*
X121812908Y-140843889D01*
X121808923Y-140831495D01*
X121804757Y-140819434D01*
X121800409Y-140807708D01*
X121795880Y-140796315D01*
X121791170Y-140785256D01*
X121786278Y-140774532D01*
X121781205Y-140764141D01*
X121775951Y-140754084D01*
X121770516Y-140744361D01*
X121764921Y-140734904D01*
X121759250Y-140725646D01*
X121753503Y-140716586D01*
X121747679Y-140707725D01*
X121741779Y-140699062D01*
X121735803Y-140690597D01*
X121729750Y-140682331D01*
X121723621Y-140674263D01*
X121717416Y-140666394D01*
X121711134Y-140658723D01*
X121704776Y-140651251D01*
X121695096Y-140640415D01*
X121685245Y-140630025D01*
X121675221Y-140620081D01*
X121671842Y-140616866D01*
X121661652Y-140607393D01*
X121651414Y-140598207D01*
X121641129Y-140589309D01*
X121630798Y-140580699D01*
X121620418Y-140572377D01*
X121609992Y-140564342D01*
X121599518Y-140556594D01*
X121588998Y-140549135D01*
X121578430Y-140541963D01*
X121567814Y-140535078D01*
X121560711Y-140530648D01*
X121550127Y-140524043D01*
X121539714Y-140517416D01*
X121529473Y-140510768D01*
X121519404Y-140504099D01*
X121509506Y-140497407D01*
X121499780Y-140490695D01*
X121490226Y-140483961D01*
X121480844Y-140477205D01*
X121471633Y-140470428D01*
X121462594Y-140463630D01*
X121456664Y-140459085D01*
X121447973Y-140452169D01*
X121439579Y-140445069D01*
X121431481Y-140437784D01*
X121423680Y-140430314D01*
X121416174Y-140422660D01*
X121408965Y-140414821D01*
X121402052Y-140406798D01*
X121395435Y-140398589D01*
X121389115Y-140390197D01*
X121383090Y-140381619D01*
X121379239Y-140375799D01*
X121373826Y-140366709D01*
X121368946Y-140357117D01*
X121364599Y-140347022D01*
X121360783Y-140336426D01*
X121357500Y-140325327D01*
X121354750Y-140313726D01*
X121352531Y-140301622D01*
X121350846Y-140289016D01*
X121349692Y-140275908D01*
X121349071Y-140262297D01*
X121348953Y-140252944D01*
X121349331Y-140239057D01*
X121350464Y-140225788D01*
X121352353Y-140213137D01*
X121354998Y-140201104D01*
X121358398Y-140189689D01*
X121362554Y-140178893D01*
X121367466Y-140168715D01*
X121373133Y-140159155D01*
X121379556Y-140150214D01*
X121386734Y-140141890D01*
X121391939Y-140136685D01*
X121400264Y-140129395D01*
X121409116Y-140122823D01*
X121418496Y-140116968D01*
X121428404Y-140111829D01*
X121438841Y-140107408D01*
X121449805Y-140103703D01*
X121461298Y-140100716D01*
X121473318Y-140098446D01*
X121485867Y-140096892D01*
X121498944Y-140096056D01*
X121507955Y-140095896D01*
X121520835Y-140096083D01*
X121533097Y-140096643D01*
X121544740Y-140097577D01*
X121555765Y-140098884D01*
X121566172Y-140100565D01*
X121575961Y-140102620D01*
X121588051Y-140105940D01*
X121599042Y-140109924D01*
X121608934Y-140114572D01*
X121613468Y-140117145D01*
X121621951Y-140122553D01*
X121631686Y-140129753D01*
X121640456Y-140137441D01*
X121648259Y-140145619D01*
X121655096Y-140154286D01*
X121660967Y-140163441D01*
X121664026Y-140169169D01*
X121653098Y-140170629D01*
X121642479Y-140173909D01*
X121632169Y-140179009D01*
X121623814Y-140184650D01*
X121615674Y-140191555D01*
X121609316Y-140197990D01*
X121601998Y-140206866D01*
X121595920Y-140216399D01*
X121591083Y-140226587D01*
X121587486Y-140237431D01*
X121585130Y-140248931D01*
X121584014Y-140261087D01*
X121583914Y-140266133D01*
X121584388Y-140278204D01*
X121585807Y-140289749D01*
X121588173Y-140300766D01*
X121591486Y-140311257D01*
X121595745Y-140321222D01*
X121600950Y-140330659D01*
X121607102Y-140339570D01*
X121614200Y-140347955D01*
X121622157Y-140355511D01*
X121630885Y-140362060D01*
X121640384Y-140367601D01*
X121650654Y-140372135D01*
X121661694Y-140375661D01*
X121673506Y-140378180D01*
X121686088Y-140379691D01*
X121696031Y-140380163D01*
X121699441Y-140380195D01*
X121709254Y-140379892D01*
X121721662Y-140378547D01*
X121733300Y-140376126D01*
X121744167Y-140372628D01*
X121754263Y-140368054D01*
X121763588Y-140362404D01*
X121772142Y-140355678D01*
X121779926Y-140347875D01*
X121781751Y-140345757D01*
X121788506Y-140336849D01*
X121794360Y-140327347D01*
X121799314Y-140317249D01*
X121803367Y-140306556D01*
X121806519Y-140295267D01*
X121808770Y-140283383D01*
X121810121Y-140270904D01*
X121810572Y-140257829D01*
X121810255Y-140246827D01*
X121809305Y-140235679D01*
X121807721Y-140224387D01*
X121805504Y-140212950D01*
X121802653Y-140201367D01*
X121799169Y-140189640D01*
X121795051Y-140177767D01*
X121790300Y-140165750D01*
X121786245Y-140156718D01*
X121781773Y-140147849D01*
X121776885Y-140139144D01*
X121771581Y-140130602D01*
X121765860Y-140122222D01*
X121759722Y-140114006D01*
X121753169Y-140105954D01*
X121746198Y-140098064D01*
X121738812Y-140090337D01*
X121731009Y-140082774D01*
X121725575Y-140077822D01*
X121717026Y-140070567D01*
X121708047Y-140063548D01*
X121698639Y-140056766D01*
X121688801Y-140050219D01*
X121678535Y-140043909D01*
X121667838Y-140037834D01*
X121656713Y-140031996D01*
X121645158Y-140026394D01*
X121633174Y-140021028D01*
X121620761Y-140015898D01*
X121612247Y-140012609D01*
X121599052Y-140007939D01*
X121585390Y-140003728D01*
X121571260Y-139999976D01*
X121561580Y-139997730D01*
X121551692Y-139995689D01*
X121541596Y-139993851D01*
X121531292Y-139992218D01*
X121520780Y-139990789D01*
X121510060Y-139989564D01*
X121499132Y-139988543D01*
X121487996Y-139987726D01*
X121476652Y-139987113D01*
X121465100Y-139986705D01*
X121453341Y-139986501D01*
X121447383Y-139986475D01*
X121433988Y-139986600D01*
X121420641Y-139986973D01*
X121407341Y-139987596D01*
X121394088Y-139988468D01*
X121380882Y-139989588D01*
X121367724Y-139990958D01*
X121354613Y-139992576D01*
X121341549Y-139994444D01*
X121328532Y-139996560D01*
X121315563Y-139998926D01*
X121306943Y-140000642D01*
X121294120Y-140003426D01*
X121281572Y-140006558D01*
X121269299Y-140010037D01*
X121257301Y-140013865D01*
X121245577Y-140018040D01*
X121234128Y-140022563D01*
X121222954Y-140027434D01*
X121212055Y-140032653D01*
X121201430Y-140038219D01*
X121191080Y-140044133D01*
X121184333Y-140048269D01*
X121174484Y-140054742D01*
X121164996Y-140061615D01*
X121155868Y-140068888D01*
X121147101Y-140076559D01*
X121138695Y-140084630D01*
X121130649Y-140093100D01*
X121122964Y-140101969D01*
X121115640Y-140111238D01*
X121108676Y-140120906D01*
X121102073Y-140130973D01*
X121097871Y-140137906D01*
X121091979Y-140148684D01*
X121086666Y-140159951D01*
X121081932Y-140171707D01*
X121077778Y-140183953D01*
X121074204Y-140196689D01*
X121071210Y-140209914D01*
X121068795Y-140223628D01*
X121066959Y-140237832D01*
X121066058Y-140247573D01*
X121065414Y-140257532D01*
X121065027Y-140267708D01*
X121064898Y-140278101D01*
X121065058Y-140290082D01*
X121065536Y-140301781D01*
X121066332Y-140313201D01*
X121067448Y-140324340D01*
X121068882Y-140335198D01*
X121070634Y-140345776D01*
X121072705Y-140356073D01*
X121075095Y-140366090D01*
X121077804Y-140375826D01*
X121080831Y-140385282D01*
X121085970Y-140398940D01*
X121091825Y-140411966D01*
X121098398Y-140424362D01*
X121105687Y-140436127D01*
X121113526Y-140447334D01*
X121121747Y-140458151D01*
X121130350Y-140468578D01*
X121139335Y-140478613D01*
X121148702Y-140488258D01*
X121158452Y-140497513D01*
X121168583Y-140506376D01*
X121179097Y-140514849D01*
X121189993Y-140522931D01*
X121201271Y-140530623D01*
X121209002Y-140535533D01*
X121220826Y-140542640D01*
X121232852Y-140549490D01*
X121245081Y-140556081D01*
X121257511Y-140562415D01*
X121270142Y-140568492D01*
X121282976Y-140574311D01*
X121296011Y-140579872D01*
X121309248Y-140585176D01*
X121322687Y-140590222D01*
X121336327Y-140595010D01*
X121345533Y-140598060D01*
X121359310Y-140602504D01*
X121372979Y-140606952D01*
X121386541Y-140611405D01*
X121399996Y-140615863D01*
X121413343Y-140620324D01*
X121426583Y-140624790D01*
X121439715Y-140629260D01*
X121452741Y-140633734D01*
X121465659Y-140638213D01*
X121478469Y-140642696D01*
X121486950Y-140645687D01*
X121499437Y-140650231D01*
X121511619Y-140654886D01*
X121523497Y-140659653D01*
X121535070Y-140664532D01*
X121546337Y-140669522D01*
X121557300Y-140674624D01*
X121567959Y-140679837D01*
X121578312Y-140685163D01*
X121588361Y-140690599D01*
X121598104Y-140696148D01*
X121604431Y-140699909D01*
X121613460Y-140705733D01*
X121621862Y-140711939D01*
X121629637Y-140718527D01*
X121636785Y-140725497D01*
X121643307Y-140732849D01*
X121651027Y-140743247D01*
X121657633Y-140754324D01*
X121663125Y-140766080D01*
X121666512Y-140775343D01*
X121668422Y-140781730D01*
X121660738Y-140774201D01*
X121652981Y-140767093D01*
X121645150Y-140760405D01*
X121637247Y-140754138D01*
X121629271Y-140748292D01*
X121618522Y-140741152D01*
X121607644Y-140734760D01*
X121596636Y-140729115D01*
X121585498Y-140724219D01*
X121582693Y-140723112D01*
X121571225Y-140718990D01*
X121559414Y-140715418D01*
X121547259Y-140712396D01*
X121534760Y-140709923D01*
X121521919Y-140707999D01*
X121512062Y-140706917D01*
X121502012Y-140706145D01*
X121491769Y-140705681D01*
X121481332Y-140705526D01*
X121469563Y-140705683D01*
X121458190Y-140706152D01*
X121447215Y-140706935D01*
X121436636Y-140708030D01*
X121426454Y-140709438D01*
X121416669Y-140711159D01*
X121404996Y-140713751D01*
X121398290Y-140715540D01*
X121387436Y-140718635D01*
X121376857Y-140721813D01*
X121366551Y-140725075D01*
X121356520Y-140728420D01*
X121346764Y-140731849D01*
X121337282Y-140735361D01*
X121333565Y-140736789D01*
X121324366Y-140740341D01*
X121313421Y-140744508D01*
X121302579Y-140748573D01*
X121291840Y-140752534D01*
X121281204Y-140756392D01*
X121275924Y-140758283D01*
X121265185Y-140761603D01*
X121254034Y-140764236D01*
X121242470Y-140766183D01*
X121232520Y-140767280D01*
X121222282Y-140767900D01*
X121213886Y-140768053D01*
X121201926Y-140767659D01*
X121190621Y-140766478D01*
X121179973Y-140764511D01*
X121169980Y-140761756D01*
X121160643Y-140758214D01*
X121150305Y-140752924D01*
X121148674Y-140751933D01*
X121139543Y-140744771D01*
X121132958Y-140737098D01*
X121127302Y-140727875D01*
X121122577Y-140717101D01*
X121119467Y-140707365D01*
X121116952Y-140696638D01*
X121115457Y-140687941D01*
X121039497Y-140687941D01*
G37*
G36*
X119778471Y-140002107D02*
G01*
X119790050Y-140002201D01*
X119800971Y-140002485D01*
X119811236Y-140002957D01*
X119823900Y-140003881D01*
X119835397Y-140005140D01*
X119845726Y-140006735D01*
X119856994Y-140009201D01*
X119866438Y-140012192D01*
X119868108Y-140012854D01*
X119877147Y-140017118D01*
X119886000Y-140022919D01*
X119893884Y-140030635D01*
X119899387Y-140039512D01*
X119900837Y-140043140D01*
X120216154Y-140940000D01*
X120500209Y-140940000D01*
X120798429Y-140044605D01*
X120803631Y-140034645D01*
X120811420Y-140026012D01*
X120821797Y-140018708D01*
X120831277Y-140014101D01*
X120842213Y-140010241D01*
X120854604Y-140007129D01*
X120868451Y-140004763D01*
X120878490Y-140003601D01*
X120889177Y-140002771D01*
X120900510Y-140002273D01*
X120912491Y-140002107D01*
X120912491Y-139892686D01*
X120348290Y-139892686D01*
X120348290Y-140002107D01*
X120456734Y-140002107D01*
X120468484Y-140002691D01*
X120478243Y-140004444D01*
X120487325Y-140008091D01*
X120494973Y-140015571D01*
X120497522Y-140026043D01*
X120496057Y-140034347D01*
X120493217Y-140043767D01*
X120493126Y-140044117D01*
X120270865Y-140739232D01*
X120038834Y-140055596D01*
X120035854Y-140046262D01*
X120034686Y-140036423D01*
X120034682Y-140035812D01*
X120036226Y-140026102D01*
X120042157Y-140016623D01*
X120050497Y-140010533D01*
X120061925Y-140006090D01*
X120073292Y-140003720D01*
X120083115Y-140002634D01*
X120094049Y-140002140D01*
X120097941Y-140002107D01*
X120178053Y-140002107D01*
X120178053Y-139892686D01*
X119779937Y-139892686D01*
X119778471Y-140002107D01*
G37*
G36*
X147373956Y-97422107D02*
G01*
X147385535Y-97422201D01*
X147396456Y-97422485D01*
X147406721Y-97422957D01*
X147419385Y-97423881D01*
X147430882Y-97425140D01*
X147441211Y-97426735D01*
X147452479Y-97429201D01*
X147461923Y-97432192D01*
X147463593Y-97432854D01*
X147472632Y-97437118D01*
X147481485Y-97442919D01*
X147489369Y-97450635D01*
X147494872Y-97459512D01*
X147496322Y-97463140D01*
X147811639Y-98360000D01*
X148095694Y-98360000D01*
X148393914Y-97464605D01*
X148399116Y-97454645D01*
X148406905Y-97446012D01*
X148417282Y-97438708D01*
X148426762Y-97434101D01*
X148437698Y-97430241D01*
X148450089Y-97427129D01*
X148463936Y-97424763D01*
X148473975Y-97423601D01*
X148484662Y-97422771D01*
X148495995Y-97422273D01*
X148507976Y-97422107D01*
X148507976Y-97312686D01*
X147943775Y-97312686D01*
X147943775Y-97422107D01*
X148052219Y-97422107D01*
X148063969Y-97422691D01*
X148073728Y-97424444D01*
X148082810Y-97428091D01*
X148090458Y-97435571D01*
X148093007Y-97446043D01*
X148091542Y-97454347D01*
X148088702Y-97463767D01*
X148088611Y-97464117D01*
X147866350Y-98159232D01*
X147634319Y-97475596D01*
X147631339Y-97466262D01*
X147630171Y-97456423D01*
X147630167Y-97455812D01*
X147631711Y-97446102D01*
X147637642Y-97436623D01*
X147645982Y-97430533D01*
X147657410Y-97426090D01*
X147668777Y-97423720D01*
X147678600Y-97422634D01*
X147689534Y-97422140D01*
X147693426Y-97422107D01*
X147773538Y-97422107D01*
X147773538Y-97312686D01*
X147375422Y-97312686D01*
X147373956Y-97422107D01*
G37*
G36*
X147406929Y-98406894D02*
G01*
X147553230Y-98406894D01*
X147139727Y-97312686D01*
X146994891Y-97312686D01*
X147406929Y-98406894D01*
G37*
G36*
X146453205Y-97297204D02*
G01*
X146470983Y-97297654D01*
X146488421Y-97298403D01*
X146505520Y-97299451D01*
X146522280Y-97300799D01*
X146538699Y-97302447D01*
X146554779Y-97304394D01*
X146570519Y-97306641D01*
X146585920Y-97309188D01*
X146600981Y-97312034D01*
X146615702Y-97315179D01*
X146630084Y-97318624D01*
X146644126Y-97322369D01*
X146657829Y-97326413D01*
X146671191Y-97330757D01*
X146684214Y-97335401D01*
X146696892Y-97340298D01*
X146709280Y-97345464D01*
X146721378Y-97350900D01*
X146733185Y-97356604D01*
X146744703Y-97362578D01*
X146755930Y-97368820D01*
X146766868Y-97375332D01*
X146777515Y-97382112D01*
X146787873Y-97389162D01*
X146797940Y-97396481D01*
X146807717Y-97404068D01*
X146817205Y-97411925D01*
X146826402Y-97420051D01*
X146835309Y-97428446D01*
X146843926Y-97437110D01*
X146852254Y-97446043D01*
X146860269Y-97455206D01*
X146868011Y-97464620D01*
X146875480Y-97474287D01*
X146882677Y-97484206D01*
X146889601Y-97494376D01*
X146896252Y-97504798D01*
X146902630Y-97515473D01*
X146908735Y-97526399D01*
X146914567Y-97537577D01*
X146920126Y-97549006D01*
X146925413Y-97560688D01*
X146930426Y-97572622D01*
X146935167Y-97584807D01*
X146939635Y-97597244D01*
X146943830Y-97609934D01*
X146947752Y-97622875D01*
X146951420Y-97636014D01*
X146954851Y-97649360D01*
X146958045Y-97662911D01*
X146961003Y-97676669D01*
X146963724Y-97690633D01*
X146966208Y-97704803D01*
X146968456Y-97719179D01*
X146970467Y-97733761D01*
X146972242Y-97748549D01*
X146973780Y-97763543D01*
X146975081Y-97778744D01*
X146976146Y-97794150D01*
X146976974Y-97809762D01*
X146977565Y-97825581D01*
X146977920Y-97841606D01*
X146978039Y-97857836D01*
X146977888Y-97875764D01*
X146977436Y-97893339D01*
X146976682Y-97910561D01*
X146975627Y-97927430D01*
X146974270Y-97943946D01*
X146972612Y-97960109D01*
X146970652Y-97975919D01*
X146968391Y-97991376D01*
X146965828Y-98006480D01*
X146962964Y-98021231D01*
X146959799Y-98035629D01*
X146956331Y-98049674D01*
X146952563Y-98063366D01*
X146948493Y-98076705D01*
X146944121Y-98089690D01*
X146939448Y-98102323D01*
X146934474Y-98114597D01*
X146929259Y-98126568D01*
X146923803Y-98138236D01*
X146918107Y-98149600D01*
X146912171Y-98160660D01*
X146905995Y-98171417D01*
X146899577Y-98181871D01*
X146892920Y-98192021D01*
X146886022Y-98201868D01*
X146878884Y-98211412D01*
X146871505Y-98220652D01*
X146863886Y-98229589D01*
X146856026Y-98238222D01*
X146847926Y-98246553D01*
X146839585Y-98254579D01*
X146831004Y-98262302D01*
X146822201Y-98269712D01*
X146813194Y-98276858D01*
X146803982Y-98283740D01*
X146794566Y-98290360D01*
X146784946Y-98296716D01*
X146775122Y-98302809D01*
X146765094Y-98308638D01*
X146754862Y-98314204D01*
X146744425Y-98319507D01*
X146733784Y-98324546D01*
X146722939Y-98329322D01*
X146711890Y-98333835D01*
X146700637Y-98338084D01*
X146689179Y-98342071D01*
X146677518Y-98345793D01*
X146665652Y-98349253D01*
X146653613Y-98352447D01*
X146641434Y-98355435D01*
X146629113Y-98358217D01*
X146616651Y-98360793D01*
X146604047Y-98363163D01*
X146591303Y-98365327D01*
X146578417Y-98367285D01*
X146565390Y-98369036D01*
X146552222Y-98370582D01*
X146538913Y-98371922D01*
X146525462Y-98373055D01*
X146511871Y-98373982D01*
X146498138Y-98374704D01*
X146484264Y-98375219D01*
X146470248Y-98375528D01*
X146456092Y-98375631D01*
X146438834Y-98375484D01*
X146421867Y-98375043D01*
X146405190Y-98374309D01*
X146388803Y-98373280D01*
X146372706Y-98371958D01*
X146356898Y-98370342D01*
X146341381Y-98368432D01*
X146326154Y-98366228D01*
X146311217Y-98363730D01*
X146296571Y-98360938D01*
X146282214Y-98357853D01*
X146268147Y-98354474D01*
X146254370Y-98350800D01*
X146240883Y-98346833D01*
X146227686Y-98342572D01*
X146214780Y-98338018D01*
X146202153Y-98333191D01*
X146189798Y-98328114D01*
X146177714Y-98322788D01*
X146165901Y-98317211D01*
X146154358Y-98311385D01*
X146143087Y-98305308D01*
X146132086Y-98298982D01*
X146121357Y-98292405D01*
X146110898Y-98285579D01*
X146100711Y-98278503D01*
X146090794Y-98271176D01*
X146081148Y-98263600D01*
X146071774Y-98255774D01*
X146062670Y-98247697D01*
X146053837Y-98239371D01*
X146045275Y-98230795D01*
X146036983Y-98221975D01*
X146028960Y-98212916D01*
X146021207Y-98203618D01*
X146013722Y-98194082D01*
X146006506Y-98184308D01*
X145999560Y-98174295D01*
X145992882Y-98164043D01*
X145986474Y-98153553D01*
X145980334Y-98142825D01*
X145974464Y-98131858D01*
X145968862Y-98120652D01*
X145963530Y-98109208D01*
X145958467Y-98097525D01*
X145953673Y-98085604D01*
X145949147Y-98073444D01*
X145944891Y-98061046D01*
X145940869Y-98048431D01*
X145937106Y-98035618D01*
X145933603Y-98022609D01*
X145930359Y-98009404D01*
X145927375Y-97996002D01*
X145924650Y-97982404D01*
X145922184Y-97968609D01*
X145919979Y-97954617D01*
X145918032Y-97940429D01*
X145916345Y-97926045D01*
X145914918Y-97911464D01*
X145913750Y-97896686D01*
X145912842Y-97881712D01*
X145912193Y-97866541D01*
X145911804Y-97851174D01*
X145911770Y-97847090D01*
X146193042Y-97847090D01*
X146193057Y-97853713D01*
X146193173Y-97866771D01*
X146193406Y-97879575D01*
X146193755Y-97892124D01*
X146194221Y-97904421D01*
X146194803Y-97916463D01*
X146195501Y-97928251D01*
X146196316Y-97939786D01*
X146197247Y-97951067D01*
X146198294Y-97962094D01*
X146199458Y-97972868D01*
X146200739Y-97983387D01*
X146202136Y-97993653D01*
X146203649Y-98003665D01*
X146205278Y-98013423D01*
X146207941Y-98027585D01*
X146209839Y-98036697D01*
X146212938Y-98049962D01*
X146216337Y-98062741D01*
X146220036Y-98075035D01*
X146224036Y-98086843D01*
X146228337Y-98098167D01*
X146232938Y-98109006D01*
X146237839Y-98119359D01*
X146243041Y-98129227D01*
X146248544Y-98138610D01*
X146254347Y-98147508D01*
X146258358Y-98153179D01*
X146264646Y-98161314D01*
X146271261Y-98169002D01*
X146278202Y-98176243D01*
X146285469Y-98183038D01*
X146293062Y-98189386D01*
X146300982Y-98195288D01*
X146309228Y-98200744D01*
X146317801Y-98205753D01*
X146326699Y-98210315D01*
X146335924Y-98214431D01*
X146342232Y-98216915D01*
X146351996Y-98220341D01*
X146362119Y-98223407D01*
X146372603Y-98226111D01*
X146383448Y-98228456D01*
X146394654Y-98230439D01*
X146406220Y-98232062D01*
X146418147Y-98233324D01*
X146430435Y-98234226D01*
X146443083Y-98234767D01*
X146456092Y-98234947D01*
X146459426Y-98234930D01*
X146469323Y-98234672D01*
X146482271Y-98233848D01*
X146494938Y-98232474D01*
X146507322Y-98230551D01*
X146519423Y-98228078D01*
X146531242Y-98225055D01*
X146542779Y-98221483D01*
X146554033Y-98217362D01*
X146564879Y-98212427D01*
X146575313Y-98206539D01*
X146585334Y-98199696D01*
X146594944Y-98191899D01*
X146604141Y-98183149D01*
X146610768Y-98175959D01*
X146617164Y-98168234D01*
X146623328Y-98159971D01*
X146629260Y-98151172D01*
X146631170Y-98148113D01*
X146636736Y-98138494D01*
X146642057Y-98128214D01*
X146647134Y-98117274D01*
X146651967Y-98105672D01*
X146656554Y-98093408D01*
X146660897Y-98080484D01*
X146664995Y-98066899D01*
X146667591Y-98057474D01*
X146670078Y-98047756D01*
X146672456Y-98037744D01*
X146674726Y-98027438D01*
X146676887Y-98016838D01*
X146678928Y-98005894D01*
X146680837Y-97994555D01*
X146682614Y-97982821D01*
X146684260Y-97970692D01*
X146685774Y-97958168D01*
X146687157Y-97945248D01*
X146688408Y-97931934D01*
X146689527Y-97918225D01*
X146690514Y-97904121D01*
X146691370Y-97889622D01*
X146692094Y-97874728D01*
X146692687Y-97859439D01*
X146693147Y-97843755D01*
X146693477Y-97827676D01*
X146693674Y-97811202D01*
X146693740Y-97794333D01*
X146693676Y-97782710D01*
X146693485Y-97771288D01*
X146693167Y-97760068D01*
X146692721Y-97749049D01*
X146692148Y-97738231D01*
X146691447Y-97727615D01*
X146690619Y-97717200D01*
X146689664Y-97706986D01*
X146688581Y-97696973D01*
X146687371Y-97687162D01*
X146684569Y-97668143D01*
X146681258Y-97649930D01*
X146677437Y-97632522D01*
X146673106Y-97615919D01*
X146668266Y-97600122D01*
X146662917Y-97585130D01*
X146657058Y-97570942D01*
X146650689Y-97557561D01*
X146643811Y-97544984D01*
X146636424Y-97533213D01*
X146628527Y-97522247D01*
X146620073Y-97512013D01*
X146611075Y-97502440D01*
X146601533Y-97493527D01*
X146591448Y-97485274D01*
X146580819Y-97477682D01*
X146569645Y-97470749D01*
X146557928Y-97464477D01*
X146545668Y-97458866D01*
X146532863Y-97453914D01*
X146519515Y-97449622D01*
X146505622Y-97445991D01*
X146491186Y-97443020D01*
X146476206Y-97440709D01*
X146460683Y-97439059D01*
X146444615Y-97438069D01*
X146428004Y-97437739D01*
X146415128Y-97438017D01*
X146402511Y-97438853D01*
X146390154Y-97440246D01*
X146378056Y-97442196D01*
X146366218Y-97444703D01*
X146354639Y-97447768D01*
X146343320Y-97451389D01*
X146332260Y-97455568D01*
X146324177Y-97459119D01*
X146313753Y-97464641D01*
X146303733Y-97471064D01*
X146294118Y-97478387D01*
X146284907Y-97486611D01*
X146276101Y-97495736D01*
X146269762Y-97503171D01*
X146263650Y-97511112D01*
X146257766Y-97519560D01*
X146252075Y-97528503D01*
X146246632Y-97538021D01*
X146241439Y-97548115D01*
X146236494Y-97558784D01*
X146231799Y-97570028D01*
X146227352Y-97581848D01*
X146223155Y-97594242D01*
X146219207Y-97607213D01*
X146215507Y-97620758D01*
X146212057Y-97634879D01*
X146209895Y-97644612D01*
X146207854Y-97654619D01*
X146205945Y-97664980D01*
X146204168Y-97675693D01*
X146202522Y-97686759D01*
X146201008Y-97698179D01*
X146199625Y-97709951D01*
X146198374Y-97722076D01*
X146197255Y-97734555D01*
X146196268Y-97747386D01*
X146195412Y-97760570D01*
X146194688Y-97774108D01*
X146194095Y-97787998D01*
X146193635Y-97802241D01*
X146193305Y-97816838D01*
X146193108Y-97831787D01*
X146193042Y-97847090D01*
X145911770Y-97847090D01*
X145911674Y-97835610D01*
X145911826Y-97816839D01*
X145912281Y-97798443D01*
X145913040Y-97780424D01*
X145914101Y-97762780D01*
X145915467Y-97745512D01*
X145917135Y-97728620D01*
X145919107Y-97712104D01*
X145921383Y-97695964D01*
X145923962Y-97680200D01*
X145926844Y-97664812D01*
X145930030Y-97649799D01*
X145933519Y-97635163D01*
X145937311Y-97620903D01*
X145941407Y-97607018D01*
X145945806Y-97593509D01*
X145950509Y-97580376D01*
X145955454Y-97567562D01*
X145960641Y-97555070D01*
X145966071Y-97542901D01*
X145971743Y-97531055D01*
X145977657Y-97519530D01*
X145983814Y-97508329D01*
X145990213Y-97497449D01*
X145996854Y-97486892D01*
X146003738Y-97476658D01*
X146010864Y-97466746D01*
X146018232Y-97457157D01*
X146025843Y-97447890D01*
X146033696Y-97438945D01*
X146041791Y-97430323D01*
X146050129Y-97422024D01*
X146058709Y-97414047D01*
X146067515Y-97406340D01*
X146076531Y-97398912D01*
X146085756Y-97391762D01*
X146095192Y-97384890D01*
X146104838Y-97378298D01*
X146114694Y-97371984D01*
X146124759Y-97365948D01*
X146135034Y-97360191D01*
X146145520Y-97354713D01*
X146156215Y-97349513D01*
X146167120Y-97344592D01*
X146178235Y-97339950D01*
X146189560Y-97335586D01*
X146201094Y-97331501D01*
X146212839Y-97327694D01*
X146224794Y-97324166D01*
X146236892Y-97320883D01*
X146249130Y-97317811D01*
X146261507Y-97314952D01*
X146274024Y-97312305D01*
X146286680Y-97309869D01*
X146299475Y-97307645D01*
X146312409Y-97305633D01*
X146325483Y-97303832D01*
X146338696Y-97302244D01*
X146352048Y-97300867D01*
X146365540Y-97299702D01*
X146379170Y-97298749D01*
X146392941Y-97298008D01*
X146406850Y-97297478D01*
X146420899Y-97297161D01*
X146435087Y-97297055D01*
X146453205Y-97297204D01*
G37*
G36*
X145067815Y-98121374D02*
G01*
X145070170Y-98133628D01*
X145072960Y-98145844D01*
X145076184Y-98158022D01*
X145079844Y-98170162D01*
X145083939Y-98182263D01*
X145088469Y-98194327D01*
X145093434Y-98206352D01*
X145097443Y-98215345D01*
X145098834Y-98218339D01*
X145103191Y-98227190D01*
X145107836Y-98235792D01*
X145114476Y-98246875D01*
X145121628Y-98257515D01*
X145129291Y-98267712D01*
X145137466Y-98277466D01*
X145146151Y-98286778D01*
X145155349Y-98295647D01*
X145160139Y-98299916D01*
X145170073Y-98308090D01*
X145177899Y-98313971D01*
X145186047Y-98319636D01*
X145194517Y-98325088D01*
X145203309Y-98330324D01*
X145212423Y-98335346D01*
X145221859Y-98340153D01*
X145231617Y-98344745D01*
X145241697Y-98349123D01*
X145252099Y-98353286D01*
X145255638Y-98354626D01*
X145266489Y-98358380D01*
X145277700Y-98361765D01*
X145289272Y-98364780D01*
X145301205Y-98367426D01*
X145313498Y-98369703D01*
X145326152Y-98371611D01*
X145339166Y-98373149D01*
X145352541Y-98374318D01*
X145366277Y-98375118D01*
X145380374Y-98375549D01*
X145389972Y-98375631D01*
X145401333Y-98375546D01*
X145412579Y-98375291D01*
X145423711Y-98374867D01*
X145434729Y-98374272D01*
X145445632Y-98373508D01*
X145456421Y-98372574D01*
X145467095Y-98371470D01*
X145477655Y-98370197D01*
X145488100Y-98368753D01*
X145498431Y-98367140D01*
X145508647Y-98365357D01*
X145518749Y-98363404D01*
X145528736Y-98361281D01*
X145538609Y-98358988D01*
X145548367Y-98356526D01*
X145558011Y-98353893D01*
X145567512Y-98351084D01*
X145576844Y-98348089D01*
X145590523Y-98343250D01*
X145603821Y-98337994D01*
X145616736Y-98332322D01*
X145629269Y-98326233D01*
X145641419Y-98319728D01*
X145653188Y-98312806D01*
X145664575Y-98305468D01*
X145675579Y-98297714D01*
X145686202Y-98289543D01*
X145689658Y-98286727D01*
X145699701Y-98277942D01*
X145709315Y-98268715D01*
X145718500Y-98259045D01*
X145727256Y-98248934D01*
X145735582Y-98238380D01*
X145743479Y-98227384D01*
X145750946Y-98215946D01*
X145757984Y-98204066D01*
X145764593Y-98191743D01*
X145770773Y-98178978D01*
X145774654Y-98170223D01*
X145780067Y-98156689D01*
X145783379Y-98147385D01*
X145786455Y-98137855D01*
X145789294Y-98128101D01*
X145791897Y-98118121D01*
X145794263Y-98107917D01*
X145796393Y-98097487D01*
X145798286Y-98086832D01*
X145799942Y-98075951D01*
X145801361Y-98064846D01*
X145802545Y-98053515D01*
X145803491Y-98041960D01*
X145804201Y-98030179D01*
X145804674Y-98018173D01*
X145804911Y-98005941D01*
X145804940Y-97999741D01*
X145804842Y-97989081D01*
X145804547Y-97978534D01*
X145804056Y-97968099D01*
X145803368Y-97957777D01*
X145802483Y-97947568D01*
X145801402Y-97937471D01*
X145800125Y-97927486D01*
X145798651Y-97917615D01*
X145796980Y-97907855D01*
X145795113Y-97898209D01*
X145791944Y-97883950D01*
X145788333Y-97869944D01*
X145784279Y-97856192D01*
X145779783Y-97842693D01*
X145774799Y-97829447D01*
X145769373Y-97816544D01*
X145763505Y-97803984D01*
X145757195Y-97791769D01*
X145750442Y-97779896D01*
X145743247Y-97768367D01*
X145735610Y-97757181D01*
X145727530Y-97746339D01*
X145719009Y-97735841D01*
X145710045Y-97725686D01*
X145703824Y-97719106D01*
X145694090Y-97709558D01*
X145683940Y-97700422D01*
X145673373Y-97691698D01*
X145662390Y-97683386D01*
X145650991Y-97675486D01*
X145639175Y-97667998D01*
X145626942Y-97660923D01*
X145614293Y-97654260D01*
X145601228Y-97648009D01*
X145592286Y-97644070D01*
X145583160Y-97640315D01*
X145578527Y-97638506D01*
X145569121Y-97635016D01*
X145559526Y-97631751D01*
X145549742Y-97628712D01*
X145539769Y-97625897D01*
X145529607Y-97623308D01*
X145519256Y-97620944D01*
X145508717Y-97618805D01*
X145497988Y-97616891D01*
X145487071Y-97615202D01*
X145475964Y-97613738D01*
X145464669Y-97612500D01*
X145453185Y-97611487D01*
X145441512Y-97610699D01*
X145429650Y-97610136D01*
X145417599Y-97609798D01*
X145405359Y-97609685D01*
X145392037Y-97609806D01*
X145378909Y-97610166D01*
X145365974Y-97610767D01*
X145353232Y-97611609D01*
X145340683Y-97612691D01*
X145328328Y-97614013D01*
X145316166Y-97615576D01*
X145304197Y-97617379D01*
X145292421Y-97619423D01*
X145280838Y-97621707D01*
X145273224Y-97623363D01*
X145262010Y-97625998D01*
X145251084Y-97628864D01*
X145240446Y-97631963D01*
X145230096Y-97635293D01*
X145220033Y-97638855D01*
X145210258Y-97642649D01*
X145200770Y-97646674D01*
X145191570Y-97650932D01*
X145182658Y-97655421D01*
X145174033Y-97660143D01*
X145168443Y-97663419D01*
X145157697Y-97670250D01*
X145147561Y-97677554D01*
X145138035Y-97685332D01*
X145129120Y-97693583D01*
X145120816Y-97702307D01*
X145113122Y-97711504D01*
X145106039Y-97721175D01*
X145099567Y-97731318D01*
X145093785Y-97741848D01*
X145088774Y-97752797D01*
X145084534Y-97764165D01*
X145081065Y-97775954D01*
X145078367Y-97788162D01*
X145076440Y-97800790D01*
X145075501Y-97810537D01*
X145074995Y-97820520D01*
X145074898Y-97827306D01*
X145075330Y-97839407D01*
X145076623Y-97851043D01*
X145078779Y-97862213D01*
X145081798Y-97872918D01*
X145085679Y-97883157D01*
X145090423Y-97892931D01*
X145096029Y-97902239D01*
X145102498Y-97911081D01*
X145109833Y-97919153D01*
X145118160Y-97926148D01*
X145127479Y-97932067D01*
X145137791Y-97936910D01*
X145149095Y-97940677D01*
X145161391Y-97943367D01*
X145171264Y-97944679D01*
X145181695Y-97945385D01*
X145188960Y-97945519D01*
X145201870Y-97945081D01*
X145213979Y-97943764D01*
X145225287Y-97941570D01*
X145235793Y-97938497D01*
X145245498Y-97934548D01*
X145254402Y-97929720D01*
X145262504Y-97924015D01*
X145269804Y-97917431D01*
X145277685Y-97908374D01*
X145284230Y-97898755D01*
X145289439Y-97888577D01*
X145293312Y-97877837D01*
X145295850Y-97866538D01*
X145297052Y-97854677D01*
X145297159Y-97849776D01*
X145296557Y-97838958D01*
X145294750Y-97828486D01*
X145291739Y-97818360D01*
X145287523Y-97808579D01*
X145282103Y-97799145D01*
X145275478Y-97790056D01*
X145272491Y-97786517D01*
X145264424Y-97778360D01*
X145255642Y-97771443D01*
X145246144Y-97765766D01*
X145235931Y-97761330D01*
X145225002Y-97758134D01*
X145213357Y-97756178D01*
X145208499Y-97755743D01*
X145216430Y-97746402D01*
X145225478Y-97737980D01*
X145235642Y-97730476D01*
X145246922Y-97723892D01*
X145259318Y-97718226D01*
X145272830Y-97713479D01*
X145282459Y-97710825D01*
X145292584Y-97708579D01*
X145303204Y-97706741D01*
X145314321Y-97705312D01*
X145325934Y-97704291D01*
X145338043Y-97703679D01*
X145350648Y-97703475D01*
X145361602Y-97703747D01*
X145372298Y-97704562D01*
X145382737Y-97705922D01*
X145392918Y-97707825D01*
X145402841Y-97710273D01*
X145412507Y-97713264D01*
X145421915Y-97716798D01*
X145431065Y-97720877D01*
X145439958Y-97725500D01*
X145448594Y-97730666D01*
X145456971Y-97736376D01*
X145465092Y-97742630D01*
X145472954Y-97749428D01*
X145480559Y-97756769D01*
X145487906Y-97764655D01*
X145494996Y-97773084D01*
X145501710Y-97782008D01*
X145507990Y-97791440D01*
X145513838Y-97801380D01*
X145519252Y-97811827D01*
X145524234Y-97822782D01*
X145528782Y-97834244D01*
X145532897Y-97846214D01*
X145536578Y-97858691D01*
X145539827Y-97871676D01*
X145542642Y-97885169D01*
X145545025Y-97899169D01*
X145546974Y-97913676D01*
X145548490Y-97928691D01*
X145549573Y-97944214D01*
X145550223Y-97960245D01*
X145550439Y-97976782D01*
X145550249Y-97995623D01*
X145549680Y-98013797D01*
X145548730Y-98031305D01*
X145547401Y-98048147D01*
X145545693Y-98064323D01*
X145543604Y-98079834D01*
X145541136Y-98094678D01*
X145538288Y-98108857D01*
X145535060Y-98122369D01*
X145531453Y-98135216D01*
X145527466Y-98147397D01*
X145523099Y-98158911D01*
X145518353Y-98169760D01*
X145513226Y-98179943D01*
X145507720Y-98189460D01*
X145501835Y-98198311D01*
X145495587Y-98206533D01*
X145488993Y-98214225D01*
X145482054Y-98221386D01*
X145474770Y-98228017D01*
X145463196Y-98236968D01*
X145450844Y-98244726D01*
X145437716Y-98251291D01*
X145428532Y-98255004D01*
X145419003Y-98258187D01*
X145409128Y-98260839D01*
X145398908Y-98262961D01*
X145388343Y-98264553D01*
X145377432Y-98265613D01*
X145366176Y-98266144D01*
X145360418Y-98266210D01*
X145348420Y-98265890D01*
X145336696Y-98264931D01*
X145325247Y-98263332D01*
X145314073Y-98261093D01*
X145303174Y-98258214D01*
X145292549Y-98254696D01*
X145282199Y-98250537D01*
X145272124Y-98245740D01*
X145262324Y-98240302D01*
X145252799Y-98234225D01*
X145246601Y-98229818D01*
X145237685Y-98222552D01*
X145229439Y-98214491D01*
X145221863Y-98205636D01*
X145214956Y-98195987D01*
X145208720Y-98185543D01*
X145203153Y-98174305D01*
X145198255Y-98162273D01*
X145194028Y-98149447D01*
X145190470Y-98135826D01*
X145187582Y-98121411D01*
X145186029Y-98111360D01*
X145067815Y-98121374D01*
G37*
G36*
X144584214Y-97656580D02*
G01*
X144399811Y-97656580D01*
X144406894Y-97766001D01*
X144416794Y-97763944D01*
X144426830Y-97762047D01*
X144437005Y-97760311D01*
X144447316Y-97758735D01*
X144457765Y-97757319D01*
X144468352Y-97756063D01*
X144479076Y-97754968D01*
X144489937Y-97754033D01*
X144500973Y-97753174D01*
X144512224Y-97752430D01*
X144523688Y-97751800D01*
X144535366Y-97751285D01*
X144547257Y-97750885D01*
X144559363Y-97750598D01*
X144571682Y-97750427D01*
X144584214Y-97750369D01*
X144584214Y-98202463D01*
X144583794Y-98214052D01*
X144582531Y-98224456D01*
X144579995Y-98235097D01*
X144575694Y-98245282D01*
X144572247Y-98250579D01*
X144565163Y-98257418D01*
X144555882Y-98262302D01*
X144545958Y-98264974D01*
X144536112Y-98266073D01*
X144530725Y-98266210D01*
X144520287Y-98265618D01*
X144509736Y-98263429D01*
X144499825Y-98258952D01*
X144492204Y-98252369D01*
X144489937Y-98249357D01*
X144485021Y-98240137D01*
X144481872Y-98230767D01*
X144479799Y-98220182D01*
X144478877Y-98210141D01*
X144478702Y-98202951D01*
X144478702Y-98135296D01*
X144395659Y-98135296D01*
X144395659Y-98179016D01*
X144395823Y-98190110D01*
X144396315Y-98200921D01*
X144397136Y-98211450D01*
X144398285Y-98221697D01*
X144399761Y-98231661D01*
X144401567Y-98241343D01*
X144404284Y-98253049D01*
X144406161Y-98259860D01*
X144409789Y-98270835D01*
X144414109Y-98281322D01*
X144419120Y-98291319D01*
X144424823Y-98300828D01*
X144431218Y-98309847D01*
X144438304Y-98318378D01*
X144441332Y-98321653D01*
X144449417Y-98329452D01*
X144458253Y-98336666D01*
X144467840Y-98343295D01*
X144478179Y-98349341D01*
X144486991Y-98353756D01*
X144496283Y-98357797D01*
X144506057Y-98361465D01*
X144516349Y-98364785D01*
X144527199Y-98367663D01*
X144538606Y-98370097D01*
X144550570Y-98372090D01*
X144563091Y-98373639D01*
X144572848Y-98374510D01*
X144582918Y-98375133D01*
X144593301Y-98375507D01*
X144603998Y-98375631D01*
X144620030Y-98375413D01*
X144635460Y-98374757D01*
X144650286Y-98373665D01*
X144664509Y-98372135D01*
X144678130Y-98370169D01*
X144691147Y-98367766D01*
X144703561Y-98364925D01*
X144715373Y-98361648D01*
X144726581Y-98357934D01*
X144737187Y-98353783D01*
X144747189Y-98349195D01*
X144756589Y-98344170D01*
X144765385Y-98338707D01*
X144773579Y-98332808D01*
X144781170Y-98326472D01*
X144788157Y-98319699D01*
X144797716Y-98308860D01*
X144806335Y-98297317D01*
X144814014Y-98285069D01*
X144820752Y-98272118D01*
X144824722Y-98263092D01*
X144828274Y-98253754D01*
X144831408Y-98244102D01*
X144834124Y-98234138D01*
X144836423Y-98223861D01*
X144838303Y-98213271D01*
X144839766Y-98202367D01*
X144840811Y-98191151D01*
X144841437Y-98179622D01*
X144841646Y-98167780D01*
X144841646Y-97750369D01*
X144962547Y-97750369D01*
X144962547Y-97656580D01*
X144950734Y-97655603D01*
X144938957Y-97654352D01*
X144927216Y-97652827D01*
X144915511Y-97651027D01*
X144903841Y-97648953D01*
X144892208Y-97646605D01*
X144887564Y-97645589D01*
X144876095Y-97642696D01*
X144865043Y-97639206D01*
X144854409Y-97635121D01*
X144844192Y-97630438D01*
X144834392Y-97625160D01*
X144825010Y-97619285D01*
X144821374Y-97616769D01*
X144812572Y-97609881D01*
X144804330Y-97602195D01*
X144796648Y-97593710D01*
X144789527Y-97584425D01*
X144782967Y-97574342D01*
X144778122Y-97565700D01*
X144774724Y-97558883D01*
X144770602Y-97549197D01*
X144767030Y-97538825D01*
X144764008Y-97527765D01*
X144761535Y-97516018D01*
X144759611Y-97503585D01*
X144758529Y-97493809D01*
X144757757Y-97483647D01*
X144757293Y-97473098D01*
X144757138Y-97462163D01*
X144757138Y-97431877D01*
X144584214Y-97422107D01*
X144584214Y-97656580D01*
G37*
G36*
X143696147Y-98209546D02*
G01*
X143698235Y-98214351D01*
X143704310Y-98223113D01*
X143711705Y-98229853D01*
X143721040Y-98235729D01*
X143730586Y-98240076D01*
X143732328Y-98240722D01*
X143742012Y-98243645D01*
X143753317Y-98246056D01*
X143763530Y-98247615D01*
X143774780Y-98248845D01*
X143787069Y-98249748D01*
X143796966Y-98250209D01*
X143807448Y-98250486D01*
X143818513Y-98250579D01*
X143817048Y-98360000D01*
X143418932Y-98360000D01*
X143418932Y-98250579D01*
X143499043Y-98250579D01*
X143502950Y-98250541D01*
X143513927Y-98249968D01*
X143526826Y-98248136D01*
X143537741Y-98245083D01*
X143548593Y-98239550D01*
X143556345Y-98232108D01*
X143560996Y-98222758D01*
X143562547Y-98211500D01*
X143562529Y-98210505D01*
X143560997Y-98200583D01*
X143558150Y-98191228D01*
X143522979Y-98078632D01*
X143143182Y-98078632D01*
X143103859Y-98203684D01*
X143101170Y-98212797D01*
X143099706Y-98222491D01*
X143099866Y-98225892D01*
X143102933Y-98236068D01*
X143109904Y-98243557D01*
X143118985Y-98247836D01*
X143128744Y-98249893D01*
X143140495Y-98250579D01*
X143248695Y-98250579D01*
X143248695Y-98360000D01*
X142684494Y-98360000D01*
X142684494Y-98250579D01*
X142696646Y-98250413D01*
X142708128Y-98249915D01*
X142718940Y-98249085D01*
X142729083Y-98247923D01*
X142743041Y-98245557D01*
X142755493Y-98242444D01*
X142766437Y-98238585D01*
X142775875Y-98233978D01*
X142786114Y-98226673D01*
X142793674Y-98218041D01*
X142798555Y-98208080D01*
X142878113Y-97969211D01*
X143179818Y-97969211D01*
X143482191Y-97969211D01*
X143326120Y-97510523D01*
X143179818Y-97969211D01*
X142878113Y-97969211D01*
X143096775Y-97312686D01*
X143381074Y-97312686D01*
X143696147Y-98209546D01*
G37*
G36*
X142220921Y-97390844D02*
G01*
X142213558Y-97390906D01*
X142199533Y-97391402D01*
X142186443Y-97392394D01*
X142174288Y-97393883D01*
X142163068Y-97395867D01*
X142152783Y-97398348D01*
X142139109Y-97402999D01*
X142127538Y-97408766D01*
X142118072Y-97415650D01*
X142110708Y-97423650D01*
X142105449Y-97432766D01*
X142102294Y-97442998D01*
X142101242Y-97454347D01*
X142101242Y-97681249D01*
X142105529Y-97677735D01*
X142114551Y-97671056D01*
X142124168Y-97664843D01*
X142134380Y-97659096D01*
X142145188Y-97653814D01*
X142156591Y-97648998D01*
X142168590Y-97644648D01*
X142177979Y-97641690D01*
X142187704Y-97638995D01*
X142194339Y-97637338D01*
X142204446Y-97635054D01*
X142214738Y-97633011D01*
X142225215Y-97631207D01*
X142235876Y-97629645D01*
X142246721Y-97628322D01*
X142257752Y-97627240D01*
X142268967Y-97626399D01*
X142280366Y-97625798D01*
X142291950Y-97625437D01*
X142303719Y-97625317D01*
X142313019Y-97625395D01*
X142326812Y-97625806D01*
X142340416Y-97626569D01*
X142353832Y-97627684D01*
X142367058Y-97629150D01*
X142380095Y-97630969D01*
X142392944Y-97633140D01*
X142405604Y-97635663D01*
X142418074Y-97638539D01*
X142430356Y-97641766D01*
X142442449Y-97645345D01*
X142450385Y-97647915D01*
X142462053Y-97652136D01*
X142473437Y-97656794D01*
X142484538Y-97661890D01*
X142495356Y-97667424D01*
X142505891Y-97673396D01*
X142516142Y-97679806D01*
X142526109Y-97686654D01*
X142535794Y-97693940D01*
X142545195Y-97701663D01*
X142554312Y-97709825D01*
X142560187Y-97715517D01*
X142568707Y-97724449D01*
X142576874Y-97733852D01*
X142584689Y-97743729D01*
X142592153Y-97754077D01*
X142599264Y-97764898D01*
X142606023Y-97776190D01*
X142612430Y-97787956D01*
X142618485Y-97800193D01*
X142624188Y-97812903D01*
X142629539Y-97826085D01*
X142632851Y-97835124D01*
X142635950Y-97844410D01*
X142638835Y-97853945D01*
X142641507Y-97863729D01*
X142643965Y-97873760D01*
X142646209Y-97884039D01*
X142648239Y-97894566D01*
X142650055Y-97905341D01*
X142651658Y-97916365D01*
X142653047Y-97927636D01*
X142654223Y-97939156D01*
X142655184Y-97950923D01*
X142655932Y-97962939D01*
X142656467Y-97975203D01*
X142656787Y-97987714D01*
X142656894Y-98000474D01*
X142656796Y-98013054D01*
X142656501Y-98025394D01*
X142656010Y-98037494D01*
X142655322Y-98049353D01*
X142654437Y-98060972D01*
X142653356Y-98072350D01*
X142652079Y-98083488D01*
X142650605Y-98094385D01*
X142648934Y-98105042D01*
X142647067Y-98115459D01*
X142645004Y-98125635D01*
X142642743Y-98135571D01*
X142640287Y-98145266D01*
X142636233Y-98159358D01*
X142631737Y-98172909D01*
X142628493Y-98181664D01*
X142623370Y-98194424D01*
X142617937Y-98206737D01*
X142612196Y-98218604D01*
X142606145Y-98230024D01*
X142599785Y-98240998D01*
X142593116Y-98251525D01*
X142586138Y-98261606D01*
X142578851Y-98271240D01*
X142571255Y-98280428D01*
X142563349Y-98289169D01*
X142557914Y-98294722D01*
X142549528Y-98302693D01*
X142540864Y-98310235D01*
X142531920Y-98317348D01*
X142522697Y-98324031D01*
X142513195Y-98330285D01*
X142503414Y-98336109D01*
X142493354Y-98341505D01*
X142483015Y-98346471D01*
X142472397Y-98351007D01*
X142461500Y-98355115D01*
X142454078Y-98357599D01*
X142442820Y-98361025D01*
X142431412Y-98364091D01*
X142419854Y-98366795D01*
X142408145Y-98369140D01*
X142396286Y-98371123D01*
X142384277Y-98372746D01*
X142372118Y-98374008D01*
X142359808Y-98374910D01*
X142347348Y-98375451D01*
X142334738Y-98375631D01*
X142323214Y-98375505D01*
X142311844Y-98375127D01*
X142300629Y-98374498D01*
X142289568Y-98373616D01*
X142278662Y-98372483D01*
X142267911Y-98371097D01*
X142257314Y-98369460D01*
X142246871Y-98367571D01*
X142236584Y-98365430D01*
X142226450Y-98363037D01*
X142216472Y-98360393D01*
X142206648Y-98357496D01*
X142196978Y-98354348D01*
X142187463Y-98350947D01*
X142178103Y-98347295D01*
X142168897Y-98343391D01*
X142159892Y-98339226D01*
X142146965Y-98332469D01*
X142134733Y-98325103D01*
X142123197Y-98317128D01*
X142112357Y-98308542D01*
X142102211Y-98299348D01*
X142092762Y-98289543D01*
X142084008Y-98279129D01*
X142075949Y-98268105D01*
X142068586Y-98256472D01*
X142061919Y-98244228D01*
X142052149Y-98360000D01*
X141721444Y-98360000D01*
X141721444Y-98246427D01*
X141728972Y-98246365D01*
X141743312Y-98245873D01*
X141756696Y-98244888D01*
X141769124Y-98243411D01*
X141780595Y-98241442D01*
X141791111Y-98238981D01*
X141805092Y-98234365D01*
X141816923Y-98228642D01*
X141826602Y-98221811D01*
X141834130Y-98213873D01*
X141839508Y-98204827D01*
X141842734Y-98194673D01*
X141843810Y-98183412D01*
X141843810Y-97985575D01*
X142080237Y-97985575D01*
X142080368Y-98000990D01*
X142080763Y-98015911D01*
X142081422Y-98030337D01*
X142082343Y-98044270D01*
X142083528Y-98057708D01*
X142084977Y-98070652D01*
X142086688Y-98083102D01*
X142088663Y-98095057D01*
X142090901Y-98106518D01*
X142093403Y-98117485D01*
X142096168Y-98127958D01*
X142099196Y-98137937D01*
X142102488Y-98147421D01*
X142107919Y-98160721D01*
X142113942Y-98172909D01*
X142118364Y-98180422D01*
X142125781Y-98190782D01*
X142134138Y-98200051D01*
X142143435Y-98208230D01*
X142153673Y-98215318D01*
X142164850Y-98221316D01*
X142176968Y-98226223D01*
X142190027Y-98230040D01*
X142204025Y-98232766D01*
X142213880Y-98233978D01*
X142224152Y-98234705D01*
X142234842Y-98234947D01*
X142240170Y-98234887D01*
X142250553Y-98234402D01*
X142260570Y-98233433D01*
X142274914Y-98231070D01*
X142288437Y-98227617D01*
X142301140Y-98223073D01*
X142313023Y-98217438D01*
X142324087Y-98210714D01*
X142334330Y-98202898D01*
X142343753Y-98193993D01*
X142352356Y-98183996D01*
X142360139Y-98172909D01*
X142362558Y-98168970D01*
X142369355Y-98156412D01*
X142373503Y-98147421D01*
X142377343Y-98137937D01*
X142380876Y-98127958D01*
X142384102Y-98117485D01*
X142387020Y-98106518D01*
X142389631Y-98095057D01*
X142391935Y-98083102D01*
X142393932Y-98070652D01*
X142395622Y-98057708D01*
X142397004Y-98044270D01*
X142398080Y-98030337D01*
X142398848Y-98015911D01*
X142399309Y-98000990D01*
X142399462Y-97985575D01*
X142399424Y-97977790D01*
X142399117Y-97962590D01*
X142398502Y-97947882D01*
X142397580Y-97933666D01*
X142396352Y-97919943D01*
X142394816Y-97906712D01*
X142392972Y-97893973D01*
X142390822Y-97881727D01*
X142388364Y-97869972D01*
X142385599Y-97858711D01*
X142382527Y-97847941D01*
X142379148Y-97837664D01*
X142375461Y-97827879D01*
X142371467Y-97818586D01*
X142367167Y-97809786D01*
X142360139Y-97797508D01*
X142355041Y-97789907D01*
X142346712Y-97779425D01*
X142337562Y-97770046D01*
X142327592Y-97761771D01*
X142316802Y-97754599D01*
X142305192Y-97748530D01*
X142292762Y-97743565D01*
X142279512Y-97739703D01*
X142265442Y-97736945D01*
X142255607Y-97735719D01*
X142245407Y-97734983D01*
X142234842Y-97734738D01*
X142229445Y-97734799D01*
X142218964Y-97735290D01*
X142208900Y-97736270D01*
X142194588Y-97738661D01*
X142181217Y-97742155D01*
X142168785Y-97746752D01*
X142157294Y-97752453D01*
X142146743Y-97759258D01*
X142137133Y-97767165D01*
X142128462Y-97776176D01*
X142120732Y-97786290D01*
X142113942Y-97797508D01*
X142107919Y-97809786D01*
X142102488Y-97823171D01*
X142099196Y-97832710D01*
X142096168Y-97842741D01*
X142093403Y-97853264D01*
X142090901Y-97864280D01*
X142088663Y-97875788D01*
X142086688Y-97887788D01*
X142084977Y-97900281D01*
X142083528Y-97913266D01*
X142082343Y-97926743D01*
X142081422Y-97940713D01*
X142080763Y-97955175D01*
X142080368Y-97970129D01*
X142080237Y-97985575D01*
X141843810Y-97985575D01*
X141843810Y-97281423D01*
X142220921Y-97281423D01*
X142220921Y-97390844D01*
G37*
G36*
X141133063Y-98415443D02*
G01*
X141133354Y-98432227D01*
X141134228Y-98448479D01*
X141135684Y-98464198D01*
X141137723Y-98479385D01*
X141140344Y-98494038D01*
X141143547Y-98508159D01*
X141147333Y-98521746D01*
X141151702Y-98534801D01*
X141156653Y-98547323D01*
X141162186Y-98559312D01*
X141168302Y-98570768D01*
X141175000Y-98581692D01*
X141182281Y-98592082D01*
X141190144Y-98601940D01*
X141198590Y-98611265D01*
X141207618Y-98620057D01*
X141217229Y-98628316D01*
X141227422Y-98636043D01*
X141238197Y-98643236D01*
X141249555Y-98649897D01*
X141261496Y-98656024D01*
X141274019Y-98661619D01*
X141287124Y-98666681D01*
X141300812Y-98671211D01*
X141315082Y-98675207D01*
X141329935Y-98678671D01*
X141345370Y-98681601D01*
X141361388Y-98683999D01*
X141377988Y-98685864D01*
X141395171Y-98687196D01*
X141412936Y-98687995D01*
X141431284Y-98688262D01*
X141447565Y-98688092D01*
X141463375Y-98687583D01*
X141478713Y-98686733D01*
X141493581Y-98685545D01*
X141507977Y-98684016D01*
X141521901Y-98682148D01*
X141535355Y-98679940D01*
X141548337Y-98677393D01*
X141560848Y-98674506D01*
X141572887Y-98671279D01*
X141584455Y-98667713D01*
X141595552Y-98663807D01*
X141606178Y-98659561D01*
X141616332Y-98654976D01*
X141626015Y-98650051D01*
X141635226Y-98644787D01*
X141643922Y-98639127D01*
X141652056Y-98633017D01*
X141659630Y-98626457D01*
X141666642Y-98619446D01*
X141673093Y-98611986D01*
X141678984Y-98604074D01*
X141684313Y-98595713D01*
X141689082Y-98586901D01*
X141693289Y-98577639D01*
X141696936Y-98567926D01*
X141700021Y-98557764D01*
X141702546Y-98547151D01*
X141704509Y-98536087D01*
X141705912Y-98524573D01*
X141706753Y-98512609D01*
X141707034Y-98500195D01*
X141706415Y-98489659D01*
X141704828Y-98479905D01*
X141702263Y-98469784D01*
X141699218Y-98460628D01*
X141694928Y-98450385D01*
X141689631Y-98440661D01*
X141683327Y-98431456D01*
X141676984Y-98423827D01*
X141676015Y-98422770D01*
X141668944Y-98415666D01*
X141661195Y-98409099D01*
X141652769Y-98403070D01*
X141643664Y-98397579D01*
X141638157Y-98394682D01*
X141628046Y-98390304D01*
X141617374Y-98387002D01*
X141607780Y-98385027D01*
X141597773Y-98383842D01*
X141587355Y-98383447D01*
X141575101Y-98383821D01*
X141563617Y-98384943D01*
X141552905Y-98386813D01*
X141542964Y-98389431D01*
X141531621Y-98393755D01*
X141521483Y-98399248D01*
X141512549Y-98405910D01*
X141510907Y-98407383D01*
X141503378Y-98415202D01*
X141497125Y-98423702D01*
X141492148Y-98432881D01*
X141488448Y-98442741D01*
X141486023Y-98453280D01*
X141484875Y-98464498D01*
X141484773Y-98469176D01*
X141485357Y-98479893D01*
X141487110Y-98490061D01*
X141490032Y-98499680D01*
X141494123Y-98508751D01*
X141499382Y-98517273D01*
X141505810Y-98525247D01*
X141508709Y-98528283D01*
X141516600Y-98535244D01*
X141525314Y-98541168D01*
X141534851Y-98546054D01*
X141545211Y-98549902D01*
X141556394Y-98552713D01*
X141568400Y-98554486D01*
X141573433Y-98554905D01*
X141567444Y-98563081D01*
X141560590Y-98570299D01*
X141552871Y-98576559D01*
X141544288Y-98581860D01*
X141538995Y-98584459D01*
X141528771Y-98588361D01*
X141518874Y-98590942D01*
X141507929Y-98592820D01*
X141498008Y-98593847D01*
X141487359Y-98594385D01*
X141480621Y-98594473D01*
X141468729Y-98594053D01*
X141457723Y-98592793D01*
X141447602Y-98590695D01*
X141436196Y-98586890D01*
X141426174Y-98581774D01*
X141417534Y-98575346D01*
X141410279Y-98567606D01*
X141404157Y-98558763D01*
X141399073Y-98549025D01*
X141395027Y-98538393D01*
X141392018Y-98526867D01*
X141390358Y-98517002D01*
X141389362Y-98506564D01*
X141389030Y-98495554D01*
X141389030Y-97815338D01*
X141390229Y-97803727D01*
X141393829Y-97793259D01*
X141399829Y-97783932D01*
X141408229Y-97775748D01*
X141419029Y-97768705D01*
X141432229Y-97762805D01*
X141442362Y-97759506D01*
X141453562Y-97756714D01*
X141465829Y-97754430D01*
X141479162Y-97752653D01*
X141493562Y-97751384D01*
X141509028Y-97750623D01*
X141525561Y-97750369D01*
X141525561Y-97640949D01*
X141133063Y-97640949D01*
X141133063Y-98415443D01*
G37*
G36*
X141117676Y-97423572D02*
G01*
X141118071Y-97434535D01*
X141119256Y-97445257D01*
X141121231Y-97455738D01*
X141123995Y-97465979D01*
X141127550Y-97475980D01*
X141128911Y-97479260D01*
X141133425Y-97488728D01*
X141138539Y-97497715D01*
X141144255Y-97506222D01*
X141150572Y-97514248D01*
X141157490Y-97521792D01*
X141159930Y-97524200D01*
X141167463Y-97530995D01*
X141175409Y-97537275D01*
X141183766Y-97543040D01*
X141192536Y-97548289D01*
X141201718Y-97553023D01*
X141204870Y-97554487D01*
X141214542Y-97558305D01*
X141224505Y-97561333D01*
X141234761Y-97563571D01*
X141245308Y-97565020D01*
X141256147Y-97565678D01*
X141259825Y-97565722D01*
X141270787Y-97565327D01*
X141281509Y-97564142D01*
X141291991Y-97562167D01*
X141302232Y-97559402D01*
X141312232Y-97555847D01*
X141315512Y-97554487D01*
X141324981Y-97549924D01*
X141333968Y-97544847D01*
X141342475Y-97539254D01*
X141350500Y-97533146D01*
X141358045Y-97526523D01*
X141360453Y-97524200D01*
X141367239Y-97516816D01*
X141373493Y-97508951D01*
X141379215Y-97500604D01*
X141384404Y-97491777D01*
X141389061Y-97482469D01*
X141390495Y-97479260D01*
X141394313Y-97469339D01*
X141397341Y-97459178D01*
X141399580Y-97448777D01*
X141401028Y-97438135D01*
X141401686Y-97427253D01*
X141401730Y-97423572D01*
X141401335Y-97412619D01*
X141400150Y-97401923D01*
X141398175Y-97391484D01*
X141395410Y-97381303D01*
X141391855Y-97371380D01*
X141390495Y-97368129D01*
X141386016Y-97358578D01*
X141381004Y-97349525D01*
X141375460Y-97340970D01*
X141369383Y-97332913D01*
X141362774Y-97325353D01*
X141360453Y-97322944D01*
X141353069Y-97316075D01*
X141345203Y-97309755D01*
X141336857Y-97303985D01*
X141328030Y-97298764D01*
X141318722Y-97294093D01*
X141315512Y-97292658D01*
X141305592Y-97288840D01*
X141295431Y-97285812D01*
X141285030Y-97283574D01*
X141274388Y-97282125D01*
X141263506Y-97281467D01*
X141259825Y-97281423D01*
X141248888Y-97281818D01*
X141238244Y-97283003D01*
X141227891Y-97284978D01*
X141217831Y-97287743D01*
X141208062Y-97291298D01*
X141204870Y-97292658D01*
X141195551Y-97297146D01*
X141186644Y-97302184D01*
X141178149Y-97307771D01*
X141170066Y-97313907D01*
X141162395Y-97320594D01*
X141159930Y-97322944D01*
X141152811Y-97330337D01*
X141146294Y-97338229D01*
X141140378Y-97346618D01*
X141135063Y-97355505D01*
X141130349Y-97364890D01*
X141128911Y-97368129D01*
X141125093Y-97377967D01*
X141122064Y-97388062D01*
X141119826Y-97398414D01*
X141118378Y-97409025D01*
X141117720Y-97419893D01*
X141117676Y-97423572D01*
G37*
G36*
X147304849Y-116302107D02*
G01*
X147320200Y-116302364D01*
X147334559Y-116303134D01*
X147347929Y-116304417D01*
X147360308Y-116306213D01*
X147371697Y-116308523D01*
X147382095Y-116311346D01*
X147391503Y-116314683D01*
X147403759Y-116320650D01*
X147413786Y-116327772D01*
X147421584Y-116336048D01*
X147427155Y-116345480D01*
X147430497Y-116356067D01*
X147431612Y-116367808D01*
X147431612Y-117064877D01*
X147430497Y-117076619D01*
X147427155Y-117087206D01*
X147421584Y-117096637D01*
X147413786Y-117104914D01*
X147403759Y-117112036D01*
X147391503Y-117118003D01*
X147382095Y-117121339D01*
X147371697Y-117124163D01*
X147360308Y-117126472D01*
X147347929Y-117128269D01*
X147334559Y-117129552D01*
X147320200Y-117130322D01*
X147304849Y-117130579D01*
X147304849Y-117240000D01*
X147826796Y-117240000D01*
X147826796Y-117130579D01*
X147813694Y-117130319D01*
X147801437Y-117129541D01*
X147790025Y-117128243D01*
X147779459Y-117126427D01*
X147769738Y-117124091D01*
X147756741Y-117119614D01*
X147745647Y-117113970D01*
X147736454Y-117107158D01*
X147729163Y-117099178D01*
X147723774Y-117090031D01*
X147720287Y-117079715D01*
X147718703Y-117068232D01*
X147718597Y-117064145D01*
X147718597Y-116755422D01*
X148087159Y-116755422D01*
X148087159Y-117064145D01*
X148086195Y-117076017D01*
X148083304Y-117086722D01*
X148078485Y-117096259D01*
X148071738Y-117104628D01*
X148063063Y-117111829D01*
X148052461Y-117117863D01*
X148039931Y-117122729D01*
X148030506Y-117125324D01*
X148020225Y-117127400D01*
X148009087Y-117128957D01*
X147997093Y-117129995D01*
X147984241Y-117130514D01*
X147977494Y-117130579D01*
X147977494Y-117240000D01*
X148497976Y-117240000D01*
X148497976Y-117130579D01*
X148482803Y-117130322D01*
X148468609Y-117129552D01*
X148455395Y-117128269D01*
X148443159Y-117126472D01*
X148431901Y-117124163D01*
X148421623Y-117121339D01*
X148412324Y-117118003D01*
X148400210Y-117112036D01*
X148390299Y-117104914D01*
X148382590Y-117096637D01*
X148377084Y-117087206D01*
X148373780Y-117076619D01*
X148372679Y-117064877D01*
X148372679Y-116367808D01*
X148373780Y-116356067D01*
X148377084Y-116345480D01*
X148382590Y-116336048D01*
X148390299Y-116327772D01*
X148400210Y-116320650D01*
X148412324Y-116314683D01*
X148421623Y-116311346D01*
X148431901Y-116308523D01*
X148443159Y-116306213D01*
X148455395Y-116304417D01*
X148468609Y-116303134D01*
X148482803Y-116302364D01*
X148497976Y-116302107D01*
X148497976Y-116192686D01*
X147977494Y-116192686D01*
X147977494Y-116302107D01*
X147990774Y-116302359D01*
X148003197Y-116303114D01*
X148014763Y-116304374D01*
X148025473Y-116306137D01*
X148035325Y-116308404D01*
X148048498Y-116312749D01*
X148059743Y-116318227D01*
X148069060Y-116324839D01*
X148076450Y-116332584D01*
X148081912Y-116341463D01*
X148085446Y-116351475D01*
X148087052Y-116362620D01*
X148087159Y-116366587D01*
X148087159Y-116614738D01*
X147718597Y-116614738D01*
X147718597Y-116366587D01*
X147719548Y-116355064D01*
X147722401Y-116344674D01*
X147727156Y-116335417D01*
X147733812Y-116327295D01*
X147742371Y-116320305D01*
X147752832Y-116314449D01*
X147765195Y-116309726D01*
X147779459Y-116306137D01*
X147790025Y-116304374D01*
X147801437Y-116303114D01*
X147813694Y-116302359D01*
X147826796Y-116302107D01*
X147826796Y-116192686D01*
X147304849Y-116192686D01*
X147304849Y-116302107D01*
G37*
G36*
X146829553Y-117066587D02*
G01*
X146828999Y-117078023D01*
X146826238Y-117088334D01*
X146821271Y-117097521D01*
X146814097Y-117105582D01*
X146804716Y-117112519D01*
X146793128Y-117118330D01*
X146779334Y-117123017D01*
X146768911Y-117125517D01*
X146757508Y-117127517D01*
X146745125Y-117129016D01*
X146731760Y-117130016D01*
X146717414Y-117130516D01*
X146709874Y-117130579D01*
X146709874Y-117240000D01*
X147206420Y-117240000D01*
X147206420Y-117130579D01*
X147191957Y-117130326D01*
X147178427Y-117129567D01*
X147165830Y-117128303D01*
X147154167Y-117126533D01*
X147143436Y-117124258D01*
X147133639Y-117121477D01*
X147120693Y-117116357D01*
X147109845Y-117110100D01*
X147101098Y-117102704D01*
X147094450Y-117094171D01*
X147089901Y-117084501D01*
X147087451Y-117073692D01*
X147086985Y-117065854D01*
X147086985Y-116696559D01*
X147088035Y-116684730D01*
X147091184Y-116674065D01*
X147096432Y-116664563D01*
X147103780Y-116656225D01*
X147113228Y-116649050D01*
X147124775Y-116643038D01*
X147138421Y-116638191D01*
X147148685Y-116635605D01*
X147159882Y-116633537D01*
X147172012Y-116631985D01*
X147185075Y-116630951D01*
X147199072Y-116630434D01*
X147206420Y-116630369D01*
X147206420Y-116520949D01*
X146829553Y-116520949D01*
X146829553Y-117066587D01*
G37*
G36*
X146816852Y-116302107D02*
G01*
X146817247Y-116313069D01*
X146818432Y-116323791D01*
X146820407Y-116334273D01*
X146823172Y-116344514D01*
X146826727Y-116354514D01*
X146828087Y-116357794D01*
X146832575Y-116367288D01*
X146837613Y-116376353D01*
X146843200Y-116384988D01*
X146849337Y-116393194D01*
X146856023Y-116400971D01*
X146858374Y-116403468D01*
X146865767Y-116410512D01*
X146873658Y-116416989D01*
X146882047Y-116422899D01*
X146890934Y-116428243D01*
X146900319Y-116433020D01*
X146903558Y-116434487D01*
X146913396Y-116438305D01*
X146923491Y-116441333D01*
X146933844Y-116443571D01*
X146944454Y-116445020D01*
X146955322Y-116445678D01*
X146959002Y-116445722D01*
X146969938Y-116445327D01*
X146980583Y-116444142D01*
X146990935Y-116442167D01*
X147000996Y-116439402D01*
X147010765Y-116435847D01*
X147013956Y-116434487D01*
X147023201Y-116429898D01*
X147032068Y-116424744D01*
X147040558Y-116419022D01*
X147048669Y-116412734D01*
X147056403Y-116405879D01*
X147058897Y-116403468D01*
X147065932Y-116395834D01*
X147072384Y-116387771D01*
X147078251Y-116379279D01*
X147083535Y-116370358D01*
X147088235Y-116361007D01*
X147089672Y-116357794D01*
X147093490Y-116347874D01*
X147096518Y-116337713D01*
X147098756Y-116327312D01*
X147100204Y-116316670D01*
X147100863Y-116305788D01*
X147100907Y-116302107D01*
X147100512Y-116291179D01*
X147099327Y-116280560D01*
X147097352Y-116270250D01*
X147094587Y-116260250D01*
X147091032Y-116250558D01*
X147089672Y-116247397D01*
X147085166Y-116238094D01*
X147080077Y-116229239D01*
X147074404Y-116220829D01*
X147068148Y-116212867D01*
X147061307Y-116205351D01*
X147058897Y-116202944D01*
X147051289Y-116196075D01*
X147043304Y-116189755D01*
X147034940Y-116183985D01*
X147026199Y-116178764D01*
X147017080Y-116174093D01*
X147013956Y-116172658D01*
X147004285Y-116168840D01*
X146994321Y-116165812D01*
X146984066Y-116163574D01*
X146973519Y-116162125D01*
X146962680Y-116161467D01*
X146959002Y-116161423D01*
X146948048Y-116161818D01*
X146937352Y-116163003D01*
X146926913Y-116164978D01*
X146916732Y-116167743D01*
X146906809Y-116171298D01*
X146903558Y-116172658D01*
X146894007Y-116177146D01*
X146884954Y-116182184D01*
X146876399Y-116187771D01*
X146868342Y-116193907D01*
X146860783Y-116200594D01*
X146858374Y-116202944D01*
X146851504Y-116210312D01*
X146845184Y-116218126D01*
X146839414Y-116226386D01*
X146834193Y-116235093D01*
X146829522Y-116244246D01*
X146828087Y-116247397D01*
X146824269Y-116256985D01*
X146821241Y-116266883D01*
X146819003Y-116277089D01*
X146817554Y-116287605D01*
X146816896Y-116298430D01*
X146816852Y-116302107D01*
G37*
G36*
X145814148Y-116505527D02*
G01*
X145825119Y-116506157D01*
X145835916Y-116507206D01*
X145846536Y-116508675D01*
X145856982Y-116510564D01*
X145867251Y-116512873D01*
X145877345Y-116515602D01*
X145887264Y-116518750D01*
X145896988Y-116522425D01*
X145906498Y-116526734D01*
X145915795Y-116531676D01*
X145924877Y-116537252D01*
X145933746Y-116543461D01*
X145942402Y-116550303D01*
X145950843Y-116557780D01*
X145959071Y-116565889D01*
X145961895Y-116564421D01*
X145973479Y-116558808D01*
X145982473Y-116554868D01*
X145991729Y-116551160D01*
X146001246Y-116547684D01*
X146011026Y-116544439D01*
X146021067Y-116541427D01*
X146031370Y-116538646D01*
X146041936Y-116536097D01*
X146052763Y-116533780D01*
X146063852Y-116531695D01*
X146071394Y-116530394D01*
X146082945Y-116528599D01*
X146094779Y-116526994D01*
X146106896Y-116525577D01*
X146119297Y-116524349D01*
X146131981Y-116523310D01*
X146144948Y-116522460D01*
X146158198Y-116521799D01*
X146171732Y-116521326D01*
X146185550Y-116521043D01*
X146199651Y-116520949D01*
X146209422Y-116521007D01*
X146223858Y-116521312D01*
X146238027Y-116521880D01*
X146251930Y-116522709D01*
X146265568Y-116523800D01*
X146278938Y-116525153D01*
X146292043Y-116526768D01*
X146304882Y-116528645D01*
X146317454Y-116530784D01*
X146329760Y-116533185D01*
X146341800Y-116535847D01*
X146349636Y-116537746D01*
X146361121Y-116540844D01*
X146372284Y-116544243D01*
X146383126Y-116547943D01*
X146393645Y-116551943D01*
X146403843Y-116556243D01*
X146413718Y-116560844D01*
X146423271Y-116565746D01*
X146432503Y-116570948D01*
X146441412Y-116576450D01*
X146450000Y-116582254D01*
X146455535Y-116586291D01*
X146463531Y-116592605D01*
X146471157Y-116599228D01*
X146478414Y-116606161D01*
X146485302Y-116613402D01*
X146491821Y-116620953D01*
X146497970Y-116628812D01*
X146503751Y-116636981D01*
X146509162Y-116645459D01*
X146514203Y-116654246D01*
X146518876Y-116663342D01*
X146521774Y-116669551D01*
X146525772Y-116679137D01*
X146529348Y-116689049D01*
X146532503Y-116699287D01*
X146535238Y-116709851D01*
X146537552Y-116720742D01*
X146539446Y-116731959D01*
X146540918Y-116743502D01*
X146541970Y-116755372D01*
X146542601Y-116767568D01*
X146542812Y-116780090D01*
X146542499Y-116795483D01*
X146541560Y-116810338D01*
X146539995Y-116824655D01*
X146537805Y-116838434D01*
X146534988Y-116851674D01*
X146531546Y-116864377D01*
X146527478Y-116876541D01*
X146522784Y-116888168D01*
X146517464Y-116899256D01*
X146511518Y-116909806D01*
X146504947Y-116919818D01*
X146497749Y-116929292D01*
X146489926Y-116938228D01*
X146481476Y-116946626D01*
X146472401Y-116954485D01*
X146462700Y-116961807D01*
X146470863Y-116967821D01*
X146482120Y-116977301D01*
X146492192Y-116987330D01*
X146501080Y-116997909D01*
X146508782Y-117009037D01*
X146515299Y-117020715D01*
X146520631Y-117032943D01*
X146524779Y-117045720D01*
X146527741Y-117059046D01*
X146529519Y-117072922D01*
X146530111Y-117087348D01*
X146529707Y-117099930D01*
X146528493Y-117111909D01*
X146526470Y-117123286D01*
X146523639Y-117134059D01*
X146519998Y-117144230D01*
X146515548Y-117153797D01*
X146510289Y-117162762D01*
X146504221Y-117171123D01*
X146497371Y-117178924D01*
X146489887Y-117186327D01*
X146481770Y-117193334D01*
X146473019Y-117199944D01*
X146463635Y-117206157D01*
X146453617Y-117211973D01*
X146442966Y-117217392D01*
X146431681Y-117222414D01*
X146428763Y-117223611D01*
X146416732Y-117228229D01*
X146407333Y-117231512D01*
X146397613Y-117234640D01*
X146387570Y-117237614D01*
X146377205Y-117240434D01*
X146366518Y-117243098D01*
X146355509Y-117245608D01*
X146344178Y-117247964D01*
X146332526Y-117250165D01*
X146320551Y-117252212D01*
X146312416Y-117253547D01*
X146300050Y-117255522D01*
X146287486Y-117257463D01*
X146274725Y-117259369D01*
X146261766Y-117261241D01*
X146248610Y-117263079D01*
X146235257Y-117264882D01*
X146221705Y-117266651D01*
X146207957Y-117268385D01*
X146194011Y-117270085D01*
X146179867Y-117271751D01*
X146169291Y-117272976D01*
X146158996Y-117274209D01*
X146148981Y-117275449D01*
X146139246Y-117276697D01*
X146125171Y-117278583D01*
X146111726Y-117280487D01*
X146098913Y-117282407D01*
X146086730Y-117284345D01*
X146075179Y-117286300D01*
X146064259Y-117288272D01*
X146053970Y-117290261D01*
X146044312Y-117292267D01*
X146032169Y-117294985D01*
X146020773Y-117297763D01*
X146010126Y-117300602D01*
X146000226Y-117303503D01*
X145988904Y-117307214D01*
X145978750Y-117311021D01*
X145968108Y-117315715D01*
X145964914Y-117317346D01*
X145956202Y-117322401D01*
X145947686Y-117328602D01*
X145940130Y-117336090D01*
X145934403Y-117345024D01*
X145931357Y-117352582D01*
X145928541Y-117363159D01*
X145927076Y-117373371D01*
X145926587Y-117384347D01*
X145926808Y-117391014D01*
X145928261Y-117402149D01*
X145931069Y-117412606D01*
X145935233Y-117422385D01*
X145940753Y-117431486D01*
X145942563Y-117433961D01*
X145949995Y-117442172D01*
X145957723Y-117448652D01*
X145966704Y-117454617D01*
X145976940Y-117460067D01*
X145986427Y-117464214D01*
X145992510Y-117466584D01*
X146003432Y-117470275D01*
X146012873Y-117472996D01*
X146022941Y-117475511D01*
X146033634Y-117477820D01*
X146044953Y-117479922D01*
X146056898Y-117481819D01*
X146069469Y-117483510D01*
X146075977Y-117484308D01*
X146086100Y-117485409D01*
X146096656Y-117486395D01*
X146107647Y-117487264D01*
X146119070Y-117488018D01*
X146130928Y-117488655D01*
X146143219Y-117489177D01*
X146155944Y-117489583D01*
X146169102Y-117489872D01*
X146182694Y-117490046D01*
X146196720Y-117490104D01*
X146204053Y-117490076D01*
X146218391Y-117489851D01*
X146232290Y-117489401D01*
X146245750Y-117488725D01*
X146258771Y-117487824D01*
X146271354Y-117486699D01*
X146283497Y-117485348D01*
X146295202Y-117483772D01*
X146306467Y-117481970D01*
X146317294Y-117479944D01*
X146327682Y-117477692D01*
X146337631Y-117475215D01*
X146351732Y-117471078D01*
X146364845Y-117466434D01*
X146376971Y-117461284D01*
X146388014Y-117455725D01*
X146397971Y-117449858D01*
X146406842Y-117443681D01*
X146414626Y-117437195D01*
X146423316Y-117428066D01*
X146430075Y-117418388D01*
X146434902Y-117408161D01*
X146437799Y-117397383D01*
X146438764Y-117386057D01*
X146438554Y-117380138D01*
X146437177Y-117370091D01*
X146434514Y-117360443D01*
X146430565Y-117351191D01*
X146425331Y-117342337D01*
X146422608Y-117338747D01*
X146414669Y-117330936D01*
X146406097Y-117324874D01*
X146395893Y-117319396D01*
X146386144Y-117315276D01*
X146375261Y-117311563D01*
X146411898Y-117269309D01*
X146416797Y-117269341D01*
X146428903Y-117269706D01*
X146440806Y-117270476D01*
X146452507Y-117271652D01*
X146464004Y-117273234D01*
X146475299Y-117275221D01*
X146486392Y-117277613D01*
X146490753Y-117278714D01*
X146501347Y-117281750D01*
X146511499Y-117285192D01*
X146521210Y-117289039D01*
X146530480Y-117293292D01*
X146539309Y-117297950D01*
X146547697Y-117303014D01*
X146550893Y-117305154D01*
X146560000Y-117311975D01*
X146568387Y-117319397D01*
X146576052Y-117327419D01*
X146582995Y-117336043D01*
X146589218Y-117345268D01*
X146593651Y-117353445D01*
X146597978Y-117363886D01*
X146601224Y-117375014D01*
X146603103Y-117384813D01*
X146604230Y-117395088D01*
X146604605Y-117405840D01*
X146604585Y-117408636D01*
X146604110Y-117419544D01*
X146603002Y-117430018D01*
X146601260Y-117440057D01*
X146598884Y-117449661D01*
X146595023Y-117461054D01*
X146590173Y-117471767D01*
X146584333Y-117481800D01*
X146580246Y-117487552D01*
X146572365Y-117496653D01*
X146565099Y-117503496D01*
X146556978Y-117509949D01*
X146548002Y-117516013D01*
X146538171Y-117521688D01*
X146527486Y-117526973D01*
X146515945Y-117531870D01*
X146509847Y-117534181D01*
X146500270Y-117537502D01*
X146490177Y-117540647D01*
X146479570Y-117543616D01*
X146468447Y-117546409D01*
X146456810Y-117549026D01*
X146444657Y-117551466D01*
X146431988Y-117553731D01*
X146418805Y-117555820D01*
X146405107Y-117557732D01*
X146390893Y-117559469D01*
X146381071Y-117560534D01*
X146370964Y-117561530D01*
X146360570Y-117562457D01*
X146349890Y-117563316D01*
X146338924Y-117564106D01*
X146327672Y-117564827D01*
X146316133Y-117565480D01*
X146304309Y-117566064D01*
X146292198Y-117566579D01*
X146279800Y-117567025D01*
X146267117Y-117567403D01*
X146254147Y-117567712D01*
X146240891Y-117567953D01*
X146227349Y-117568125D01*
X146213521Y-117568228D01*
X146199406Y-117568262D01*
X146185022Y-117568208D01*
X146170872Y-117568047D01*
X146156957Y-117567779D01*
X146143276Y-117567403D01*
X146129831Y-117566920D01*
X146116619Y-117566330D01*
X146103643Y-117565632D01*
X146090901Y-117564827D01*
X146078395Y-117563915D01*
X146066122Y-117562895D01*
X146054085Y-117561768D01*
X146042282Y-117560534D01*
X146030714Y-117559192D01*
X146019380Y-117557743D01*
X146008282Y-117556187D01*
X145997418Y-117554523D01*
X145986788Y-117552752D01*
X145976394Y-117550874D01*
X145966234Y-117548888D01*
X145956308Y-117546795D01*
X145937162Y-117542287D01*
X145918954Y-117537350D01*
X145901686Y-117531983D01*
X145885356Y-117526187D01*
X145869965Y-117519962D01*
X145855512Y-117513307D01*
X145841966Y-117506181D01*
X145829294Y-117498481D01*
X145817496Y-117490206D01*
X145806572Y-117481357D01*
X145796522Y-117471934D01*
X145787346Y-117461936D01*
X145779043Y-117451364D01*
X145771615Y-117440218D01*
X145765061Y-117428497D01*
X145759380Y-117416202D01*
X145754573Y-117403332D01*
X145750641Y-117389888D01*
X145747582Y-117375870D01*
X145745397Y-117361278D01*
X145744086Y-117346111D01*
X145743649Y-117330369D01*
X145743713Y-117323325D01*
X145744049Y-117313021D01*
X145744672Y-117303029D01*
X145745950Y-117290195D01*
X145747740Y-117277918D01*
X145750041Y-117266198D01*
X145752854Y-117255036D01*
X145756178Y-117244430D01*
X145760013Y-117234382D01*
X145764452Y-117224753D01*
X145769707Y-117215529D01*
X145775779Y-117206710D01*
X145782667Y-117198295D01*
X145790372Y-117190285D01*
X145798894Y-117182679D01*
X145808232Y-117175477D01*
X145818387Y-117168681D01*
X145821043Y-117167042D01*
X145832261Y-117160700D01*
X145841301Y-117156163D01*
X145850877Y-117151815D01*
X145860990Y-117147657D01*
X145871639Y-117143687D01*
X145882826Y-117139906D01*
X145894549Y-117136314D01*
X145906808Y-117132910D01*
X145919604Y-117129696D01*
X145932937Y-117126671D01*
X145937511Y-117125698D01*
X145951717Y-117122828D01*
X145961591Y-117120955D01*
X145971787Y-117119115D01*
X145982306Y-117117307D01*
X145993147Y-117115531D01*
X146004311Y-117113788D01*
X146015797Y-117112077D01*
X146027605Y-117110399D01*
X146039736Y-117108753D01*
X146052190Y-117107140D01*
X146064966Y-117105559D01*
X146078064Y-117104011D01*
X146091485Y-117102495D01*
X146105229Y-117101011D01*
X146119295Y-117099560D01*
X146125678Y-117098933D01*
X146138184Y-117097672D01*
X146150343Y-117096401D01*
X146162154Y-117095120D01*
X146173618Y-117093830D01*
X146184735Y-117092531D01*
X146195505Y-117091222D01*
X146205927Y-117089903D01*
X146216002Y-117088575D01*
X146230463Y-117086565D01*
X146244143Y-117084534D01*
X146257042Y-117082481D01*
X146269159Y-117080407D01*
X146280495Y-117078311D01*
X146291187Y-117076165D01*
X146301372Y-117074032D01*
X146314164Y-117071208D01*
X146326056Y-117068406D01*
X146337047Y-117065628D01*
X146347137Y-117062873D01*
X146358483Y-117059461D01*
X146368422Y-117056085D01*
X146378715Y-117052063D01*
X146388726Y-117047393D01*
X146397534Y-117042085D01*
X146405059Y-117034836D01*
X146405480Y-117034166D01*
X146409968Y-117025243D01*
X146411898Y-117015540D01*
X146411451Y-117009667D01*
X146407420Y-117000005D01*
X146399197Y-116994535D01*
X146389897Y-116998230D01*
X146380192Y-117001618D01*
X146370082Y-117004702D01*
X146359569Y-117007480D01*
X146348650Y-117009953D01*
X146337327Y-117012121D01*
X146325600Y-117013983D01*
X146313468Y-117015540D01*
X146310369Y-117015886D01*
X146297674Y-117017159D01*
X146287838Y-117017998D01*
X146277730Y-117018739D01*
X146267353Y-117019380D01*
X146256704Y-117019924D01*
X146245786Y-117020368D01*
X146234597Y-117020714D01*
X146223137Y-117020960D01*
X146211407Y-117021109D01*
X146199406Y-117021158D01*
X146189805Y-117021115D01*
X146175574Y-117020890D01*
X146161549Y-117020471D01*
X146147730Y-117019859D01*
X146134117Y-117019054D01*
X146120711Y-117018056D01*
X146107510Y-117016865D01*
X146094515Y-117015480D01*
X146081727Y-117013902D01*
X146069145Y-117012131D01*
X146056769Y-117010167D01*
X146048655Y-117008696D01*
X146036743Y-117006239D01*
X146025139Y-117003481D01*
X146013845Y-117000423D01*
X146002860Y-116997064D01*
X145992183Y-116993404D01*
X145981816Y-116989445D01*
X145971759Y-116985184D01*
X145962010Y-116980623D01*
X145952570Y-116975762D01*
X145943440Y-116970600D01*
X145937536Y-116966949D01*
X145928981Y-116961181D01*
X145920786Y-116955060D01*
X145912952Y-116948587D01*
X145905479Y-116941762D01*
X145898367Y-116934585D01*
X145891615Y-116927056D01*
X145885223Y-116919175D01*
X145879193Y-116910941D01*
X145873522Y-116902356D01*
X145868213Y-116893419D01*
X145864900Y-116887239D01*
X145860332Y-116877580D01*
X145856245Y-116867453D01*
X145852639Y-116856858D01*
X145849513Y-116845794D01*
X145846869Y-116834263D01*
X145844705Y-116822264D01*
X145843022Y-116809797D01*
X145841820Y-116796862D01*
X145841098Y-116783459D01*
X145840858Y-116769588D01*
X145840871Y-116768855D01*
X146064584Y-116768855D01*
X146064714Y-116780166D01*
X146065103Y-116791077D01*
X146065752Y-116801590D01*
X146066660Y-116811704D01*
X146068509Y-116826128D01*
X146070942Y-116839654D01*
X146073959Y-116852283D01*
X146077560Y-116864014D01*
X146081744Y-116874849D01*
X146086513Y-116884785D01*
X146091865Y-116893825D01*
X146097801Y-116901967D01*
X146104286Y-116909300D01*
X146113875Y-116917956D01*
X146124539Y-116925329D01*
X146133244Y-116930017D01*
X146142554Y-116933984D01*
X146152470Y-116937230D01*
X146162991Y-116939754D01*
X146174117Y-116941558D01*
X146185848Y-116942640D01*
X146198185Y-116943000D01*
X146207005Y-116942849D01*
X146219647Y-116942052D01*
X146231585Y-116940573D01*
X146242820Y-116938411D01*
X146253350Y-116935567D01*
X146263176Y-116932040D01*
X146272298Y-116927830D01*
X146283365Y-116921156D01*
X146293180Y-116913267D01*
X146301744Y-116904166D01*
X146309129Y-116893579D01*
X146314021Y-116884487D01*
X146318359Y-116874408D01*
X146322144Y-116863341D01*
X146325375Y-116851287D01*
X146328051Y-116838245D01*
X146330175Y-116824216D01*
X146331282Y-116814315D01*
X146332144Y-116803974D01*
X146332759Y-116793195D01*
X146333128Y-116781977D01*
X146333251Y-116770321D01*
X146333223Y-116764617D01*
X146332992Y-116753517D01*
X146332530Y-116742828D01*
X146331837Y-116732548D01*
X146330365Y-116717899D01*
X146328374Y-116704172D01*
X146325863Y-116691369D01*
X146322833Y-116679489D01*
X146319283Y-116668531D01*
X146315213Y-116658497D01*
X146310625Y-116649386D01*
X146303698Y-116638674D01*
X146297749Y-116631602D01*
X146288548Y-116623256D01*
X146277897Y-116616147D01*
X146268956Y-116611626D01*
X146259201Y-116607800D01*
X146248629Y-116604670D01*
X146237242Y-116602236D01*
X146225038Y-116600497D01*
X146212020Y-116599454D01*
X146198185Y-116599106D01*
X146194259Y-116599143D01*
X146182809Y-116599690D01*
X146171853Y-116600894D01*
X146161391Y-116602756D01*
X146151423Y-116605274D01*
X146141948Y-116608449D01*
X146130083Y-116613704D01*
X146119096Y-116620126D01*
X146108987Y-116627717D01*
X146099755Y-116636475D01*
X146097591Y-116638867D01*
X146091512Y-116646718D01*
X146086051Y-116655583D01*
X146081208Y-116665460D01*
X146076983Y-116676351D01*
X146073377Y-116688255D01*
X146070389Y-116701172D01*
X146068019Y-116715103D01*
X146066782Y-116724952D01*
X146065821Y-116735253D01*
X146065134Y-116746003D01*
X146064722Y-116757204D01*
X146064584Y-116768855D01*
X145840871Y-116768855D01*
X145841067Y-116757776D01*
X145841694Y-116746278D01*
X145842738Y-116735092D01*
X145844201Y-116724220D01*
X145846081Y-116713660D01*
X145848380Y-116703413D01*
X145851096Y-116693479D01*
X145854230Y-116683859D01*
X145857782Y-116674551D01*
X145861752Y-116665556D01*
X145868490Y-116652650D01*
X145876169Y-116640448D01*
X145884788Y-116628951D01*
X145894347Y-116618157D01*
X145891366Y-116616023D01*
X145882555Y-116610029D01*
X145873941Y-116604643D01*
X145862763Y-116598411D01*
X145851936Y-116593263D01*
X145841460Y-116589199D01*
X145831336Y-116586218D01*
X145821562Y-116584321D01*
X145809839Y-116583475D01*
X145805979Y-116583524D01*
X145794604Y-116584269D01*
X145783539Y-116585906D01*
X145772783Y-116588436D01*
X145762336Y-116591859D01*
X145752198Y-116596175D01*
X145744219Y-116600383D01*
X145735747Y-116606061D01*
X145727382Y-116613555D01*
X145720654Y-116621983D01*
X145715561Y-116631346D01*
X145720594Y-116631606D01*
X145732600Y-116632922D01*
X145743783Y-116635193D01*
X145754143Y-116638418D01*
X145763680Y-116642597D01*
X145772394Y-116647730D01*
X145780286Y-116653817D01*
X145783184Y-116656515D01*
X145789612Y-116663895D01*
X145794871Y-116672181D01*
X145798962Y-116681373D01*
X145801884Y-116691472D01*
X145803637Y-116702477D01*
X145804221Y-116714389D01*
X145804123Y-116718744D01*
X145803018Y-116729274D01*
X145800684Y-116739290D01*
X145797121Y-116748794D01*
X145792331Y-116757785D01*
X145786312Y-116766263D01*
X145779064Y-116774228D01*
X145777455Y-116775731D01*
X145768749Y-116782529D01*
X145758946Y-116788134D01*
X145748046Y-116792547D01*
X145738535Y-116795218D01*
X145728323Y-116797126D01*
X145717408Y-116798271D01*
X145705792Y-116798653D01*
X145694843Y-116798225D01*
X145684466Y-116796943D01*
X145674662Y-116794806D01*
X145663212Y-116790932D01*
X145652656Y-116785723D01*
X145642995Y-116779178D01*
X145634228Y-116771297D01*
X145626488Y-116762111D01*
X145621241Y-116753843D01*
X145616833Y-116744758D01*
X145613265Y-116734857D01*
X145610536Y-116724139D01*
X145608647Y-116712604D01*
X145607598Y-116700253D01*
X145607362Y-116690453D01*
X145607671Y-116678004D01*
X145608598Y-116666059D01*
X145610144Y-116654618D01*
X145612308Y-116643681D01*
X145615090Y-116633247D01*
X145618490Y-116623317D01*
X145622509Y-116613891D01*
X145627145Y-116604968D01*
X145630897Y-116598529D01*
X145636173Y-116590284D01*
X145643208Y-116580525D01*
X145650732Y-116571374D01*
X145658745Y-116562831D01*
X145667247Y-116554897D01*
X145676238Y-116547571D01*
X145679951Y-116544782D01*
X145689402Y-116538253D01*
X145699090Y-116532355D01*
X145709017Y-116527090D01*
X145719183Y-116522457D01*
X145729587Y-116518456D01*
X145740230Y-116515087D01*
X145750843Y-116512272D01*
X145761157Y-116509935D01*
X145771174Y-116508074D01*
X145780892Y-116506691D01*
X145792161Y-116505660D01*
X145803000Y-116505317D01*
X145814148Y-116505527D01*
G37*
G36*
X145213642Y-116678485D02*
G01*
X145207371Y-116669128D01*
X145200892Y-116660045D01*
X145194205Y-116651237D01*
X145187310Y-116642704D01*
X145180207Y-116634445D01*
X145172896Y-116626461D01*
X145165377Y-116618753D01*
X145157650Y-116611318D01*
X145149715Y-116604159D01*
X145141571Y-116597274D01*
X145133220Y-116590665D01*
X145124661Y-116584330D01*
X145115895Y-116578269D01*
X145106920Y-116572484D01*
X145097737Y-116566973D01*
X145088346Y-116561737D01*
X145078751Y-116556798D01*
X145068959Y-116552177D01*
X145058968Y-116547875D01*
X145048778Y-116543892D01*
X145038390Y-116540228D01*
X145027804Y-116536882D01*
X145017019Y-116533854D01*
X145006036Y-116531146D01*
X144994854Y-116528756D01*
X144983474Y-116526684D01*
X144971895Y-116524932D01*
X144960118Y-116523498D01*
X144948143Y-116522383D01*
X144935969Y-116521586D01*
X144923596Y-116521108D01*
X144911025Y-116520949D01*
X144897526Y-116521142D01*
X144884445Y-116521723D01*
X144871781Y-116522692D01*
X144859536Y-116524047D01*
X144847708Y-116525790D01*
X144836298Y-116527921D01*
X144825307Y-116530439D01*
X144814733Y-116533344D01*
X144804576Y-116536636D01*
X144794838Y-116540316D01*
X144785518Y-116544383D01*
X144776615Y-116548838D01*
X144764045Y-116556246D01*
X144752415Y-116564526D01*
X144745184Y-116570530D01*
X144735102Y-116580300D01*
X144726010Y-116591109D01*
X144717911Y-116602957D01*
X144710803Y-116615845D01*
X144706616Y-116625013D01*
X144702869Y-116634644D01*
X144699563Y-116644736D01*
X144696698Y-116655290D01*
X144694274Y-116666305D01*
X144692291Y-116677783D01*
X144690748Y-116689722D01*
X144689646Y-116702123D01*
X144688985Y-116714986D01*
X144688764Y-116728311D01*
X144688764Y-117068053D01*
X144687702Y-117079227D01*
X144684514Y-117089302D01*
X144679201Y-117098278D01*
X144671763Y-117106154D01*
X144662199Y-117112932D01*
X144650511Y-117118611D01*
X144636697Y-117123190D01*
X144626307Y-117125633D01*
X144614973Y-117127587D01*
X144602694Y-117129052D01*
X144589470Y-117130029D01*
X144575302Y-117130518D01*
X144567864Y-117130579D01*
X144567864Y-117240000D01*
X145025087Y-117240000D01*
X145025087Y-117130579D01*
X145010988Y-117130014D01*
X144998276Y-117128320D01*
X144986951Y-117125498D01*
X144977013Y-117121546D01*
X144968461Y-117116464D01*
X144959216Y-117107933D01*
X144952437Y-117097394D01*
X144948970Y-117088173D01*
X144946890Y-117077822D01*
X144946196Y-117066343D01*
X144946196Y-116834556D01*
X144946282Y-116823510D01*
X144946540Y-116812842D01*
X144946969Y-116802551D01*
X144947570Y-116792638D01*
X144948794Y-116778477D01*
X144950404Y-116765167D01*
X144952400Y-116752706D01*
X144954783Y-116741095D01*
X144957552Y-116730335D01*
X144960708Y-116720424D01*
X144965516Y-116708533D01*
X144968178Y-116703154D01*
X144973952Y-116693422D01*
X144980406Y-116684988D01*
X144987538Y-116677852D01*
X144997409Y-116670756D01*
X145008342Y-116665687D01*
X145017852Y-116663092D01*
X145028041Y-116661795D01*
X145033391Y-116661632D01*
X145044381Y-116662053D01*
X145055187Y-116663315D01*
X145065808Y-116665419D01*
X145076244Y-116668364D01*
X145086496Y-116672151D01*
X145096563Y-116676779D01*
X145106446Y-116682249D01*
X145116144Y-116688560D01*
X145125657Y-116695713D01*
X145134986Y-116703707D01*
X145141102Y-116709504D01*
X145149999Y-116718776D01*
X145158461Y-116728641D01*
X145166491Y-116739098D01*
X145174086Y-116750148D01*
X145181248Y-116761790D01*
X145187977Y-116774024D01*
X145194271Y-116786851D01*
X145200133Y-116800271D01*
X145203799Y-116809546D01*
X145207273Y-116819085D01*
X145210554Y-116828887D01*
X145213642Y-116838953D01*
X145213642Y-117066343D01*
X145212949Y-117077822D01*
X145210869Y-117088173D01*
X145207402Y-117097394D01*
X145200622Y-117107933D01*
X145191377Y-117116464D01*
X145182826Y-117121546D01*
X145172887Y-117125498D01*
X145161562Y-117128320D01*
X145148850Y-117130014D01*
X145134752Y-117130579D01*
X145134752Y-117240000D01*
X145590509Y-117240000D01*
X145590509Y-117130579D01*
X145576046Y-117130331D01*
X145562516Y-117129586D01*
X145549920Y-117128346D01*
X145538256Y-117126610D01*
X145527526Y-117124377D01*
X145517728Y-117121649D01*
X145504782Y-117116625D01*
X145493935Y-117110486D01*
X145485187Y-117103230D01*
X145478539Y-117094858D01*
X145473990Y-117085370D01*
X145471541Y-117074765D01*
X145471074Y-117067076D01*
X145471074Y-116334347D01*
X145472113Y-116322998D01*
X145475230Y-116312766D01*
X145480425Y-116303650D01*
X145487698Y-116295650D01*
X145497049Y-116288766D01*
X145508478Y-116282999D01*
X145521984Y-116278348D01*
X145532143Y-116275867D01*
X145543226Y-116273883D01*
X145555232Y-116272394D01*
X145568162Y-116271402D01*
X145582015Y-116270906D01*
X145589288Y-116270844D01*
X145589288Y-116161423D01*
X145213642Y-116161423D01*
X145213642Y-116678485D01*
G37*
G36*
X143035729Y-116506294D02*
G01*
X143153942Y-116513377D01*
X143155022Y-116502302D01*
X143156339Y-116491579D01*
X143157892Y-116481208D01*
X143159682Y-116471188D01*
X143161708Y-116461520D01*
X143166471Y-116443238D01*
X143172180Y-116426362D01*
X143178836Y-116410893D01*
X143186438Y-116396830D01*
X143194987Y-116384173D01*
X143204481Y-116372922D01*
X143214923Y-116363078D01*
X143226311Y-116354640D01*
X143238645Y-116347609D01*
X143251926Y-116341984D01*
X143266153Y-116337765D01*
X143281326Y-116334952D01*
X143297446Y-116333546D01*
X143305861Y-116333370D01*
X143574528Y-116333370D01*
X143574528Y-116661632D01*
X143459246Y-116661632D01*
X143447043Y-116660121D01*
X143435807Y-116655587D01*
X143425537Y-116648031D01*
X143416232Y-116637452D01*
X143410566Y-116628721D01*
X143405329Y-116618646D01*
X143400522Y-116607227D01*
X143396143Y-116594466D01*
X143392194Y-116580361D01*
X143388675Y-116564912D01*
X143385585Y-116548121D01*
X143382924Y-116529986D01*
X143380692Y-116510507D01*
X143379737Y-116500264D01*
X143378890Y-116489685D01*
X143262142Y-116489685D01*
X143283391Y-116971088D01*
X143397208Y-116971088D01*
X143398225Y-116960705D01*
X143399320Y-116950651D01*
X143400495Y-116940927D01*
X143403083Y-116922467D01*
X143405987Y-116905326D01*
X143409208Y-116889504D01*
X143412746Y-116875000D01*
X143416600Y-116861815D01*
X143420771Y-116849948D01*
X143425259Y-116839400D01*
X143430064Y-116830170D01*
X143437865Y-116818798D01*
X143446379Y-116810392D01*
X143455605Y-116804953D01*
X143465544Y-116802481D01*
X143469016Y-116802316D01*
X143574528Y-116802316D01*
X143574528Y-117066099D01*
X143573144Y-117077622D01*
X143568990Y-117088012D01*
X143562067Y-117097268D01*
X143552375Y-117105391D01*
X143539913Y-117112381D01*
X143530067Y-117116411D01*
X143518991Y-117119937D01*
X143506683Y-117122959D01*
X143493145Y-117125478D01*
X143478376Y-117127493D01*
X143462376Y-117129004D01*
X143445145Y-117130012D01*
X143426684Y-117130516D01*
X143416992Y-117130579D01*
X143416992Y-117240000D01*
X143985345Y-117240000D01*
X143985345Y-117130579D01*
X143970172Y-117130322D01*
X143955979Y-117129552D01*
X143942764Y-117128269D01*
X143930528Y-117126472D01*
X143919271Y-117124163D01*
X143908992Y-117121339D01*
X143899693Y-117118003D01*
X143887579Y-117112036D01*
X143877668Y-117104914D01*
X143869960Y-117096637D01*
X143864453Y-117087206D01*
X143861150Y-117076619D01*
X143860048Y-117064877D01*
X143860048Y-116367808D01*
X143861150Y-116356067D01*
X143864453Y-116345480D01*
X143869960Y-116336048D01*
X143877668Y-116327772D01*
X143887579Y-116320650D01*
X143899693Y-116314683D01*
X143908992Y-116311346D01*
X143919271Y-116308523D01*
X143930528Y-116306213D01*
X143942764Y-116304417D01*
X143955979Y-116303134D01*
X143970172Y-116302364D01*
X143985345Y-116302107D01*
X143985345Y-116192686D01*
X143035729Y-116192686D01*
X143035729Y-116506294D01*
G37*
G36*
X142602198Y-116651863D02*
G01*
X142597542Y-116642032D01*
X142592733Y-116632568D01*
X142587772Y-116623469D01*
X142582658Y-116614738D01*
X142577392Y-116606372D01*
X142569206Y-116594511D01*
X142560676Y-116583475D01*
X142551804Y-116573262D01*
X142542587Y-116563874D01*
X142533027Y-116555310D01*
X142523124Y-116547571D01*
X142512877Y-116540656D01*
X142509385Y-116538534D01*
X142498710Y-116532598D01*
X142487841Y-116527245D01*
X142476780Y-116522477D01*
X142465525Y-116518292D01*
X142454077Y-116514692D01*
X142442435Y-116511675D01*
X142430601Y-116509242D01*
X142418573Y-116507393D01*
X142406352Y-116506128D01*
X142393938Y-116505447D01*
X142385554Y-116505317D01*
X142374986Y-116505567D01*
X142364345Y-116506319D01*
X142353633Y-116507571D01*
X142342850Y-116509324D01*
X142331995Y-116511578D01*
X142321068Y-116514333D01*
X142316678Y-116515575D01*
X142305878Y-116519019D01*
X142295459Y-116522941D01*
X142285422Y-116527339D01*
X142275767Y-116532214D01*
X142266494Y-116537567D01*
X142257602Y-116543396D01*
X142254152Y-116545861D01*
X142245771Y-116552388D01*
X142237880Y-116559452D01*
X142230477Y-116567052D01*
X142223564Y-116575190D01*
X142217140Y-116583863D01*
X142211204Y-116593074D01*
X142208967Y-116596908D01*
X142203901Y-116606871D01*
X142199693Y-116617526D01*
X142196344Y-116628872D01*
X142194284Y-116638447D01*
X142192772Y-116648465D01*
X142191811Y-116658925D01*
X142191398Y-116669828D01*
X142191381Y-116672623D01*
X142191677Y-116685042D01*
X142192566Y-116697018D01*
X142194047Y-116708552D01*
X142196121Y-116719644D01*
X142198787Y-116730294D01*
X142202046Y-116740501D01*
X142205897Y-116750266D01*
X142210341Y-116759589D01*
X142215377Y-116768470D01*
X142221005Y-116776908D01*
X142225087Y-116782288D01*
X142231630Y-116789840D01*
X142241048Y-116798753D01*
X142251261Y-116806345D01*
X142262267Y-116812617D01*
X142274067Y-116817569D01*
X142283438Y-116820416D01*
X142293255Y-116822520D01*
X142303519Y-116823882D01*
X142314230Y-116824501D01*
X142317899Y-116824542D01*
X142327980Y-116824296D01*
X142340726Y-116823198D01*
X142352679Y-116821223D01*
X142363838Y-116818371D01*
X142374203Y-116814640D01*
X142383774Y-116810032D01*
X142392551Y-116804546D01*
X142400535Y-116798183D01*
X142402407Y-116796454D01*
X142409334Y-116789135D01*
X142415337Y-116781342D01*
X142421542Y-116770935D01*
X142426304Y-116759789D01*
X142429074Y-116750340D01*
X142430921Y-116740418D01*
X142431845Y-116730022D01*
X142431960Y-116724647D01*
X142431448Y-116713829D01*
X142429909Y-116703357D01*
X142427345Y-116693231D01*
X142423755Y-116683450D01*
X142419140Y-116674016D01*
X142413499Y-116664927D01*
X142410956Y-116661388D01*
X142403629Y-116653161D01*
X142394932Y-116646185D01*
X142384863Y-116640462D01*
X142373422Y-116635991D01*
X142363282Y-116633316D01*
X142352265Y-116631442D01*
X142340369Y-116630369D01*
X142347162Y-116622844D01*
X142354841Y-116616386D01*
X142363405Y-116610998D01*
X142372854Y-116606678D01*
X142382807Y-116603365D01*
X142393126Y-116600999D01*
X142403811Y-116599579D01*
X142414863Y-116599106D01*
X142425479Y-116599682D01*
X142436078Y-116601407D01*
X142446660Y-116604284D01*
X142457224Y-116608311D01*
X142467772Y-116613489D01*
X142471284Y-116615471D01*
X142479995Y-116620824D01*
X142488576Y-116626810D01*
X142497026Y-116633427D01*
X142505344Y-116640677D01*
X142513531Y-116648559D01*
X142521587Y-116657073D01*
X142524773Y-116660655D01*
X142532591Y-116670019D01*
X142538675Y-116677913D01*
X142544605Y-116686165D01*
X142550383Y-116694777D01*
X142556008Y-116703747D01*
X142561481Y-116713076D01*
X142566801Y-116722764D01*
X142570690Y-116730265D01*
X142575617Y-116740443D01*
X142580262Y-116750827D01*
X142584624Y-116761417D01*
X142588703Y-116772213D01*
X142592500Y-116783216D01*
X142596015Y-116794424D01*
X142599248Y-116805839D01*
X142602198Y-116817459D01*
X142602198Y-117066831D01*
X142601285Y-117076571D01*
X142597782Y-117087173D01*
X142591651Y-117096590D01*
X142584535Y-117103532D01*
X142575594Y-117109651D01*
X142564829Y-117114947D01*
X142555128Y-117118611D01*
X142544709Y-117121786D01*
X142533573Y-117124473D01*
X142521720Y-117126671D01*
X142509149Y-117128381D01*
X142499250Y-117129342D01*
X142488947Y-117130029D01*
X142478241Y-117130441D01*
X142467131Y-117130579D01*
X142467131Y-117240000D01*
X142979064Y-117240000D01*
X142979064Y-117130579D01*
X142964602Y-117130326D01*
X142951072Y-117129567D01*
X142938475Y-117128303D01*
X142926812Y-117126533D01*
X142916081Y-117124258D01*
X142906284Y-117121477D01*
X142893337Y-117116357D01*
X142882490Y-117110100D01*
X142873743Y-117102704D01*
X142867094Y-117094171D01*
X142862546Y-117084501D01*
X142860096Y-117073692D01*
X142859630Y-117065854D01*
X142859630Y-116695094D01*
X142860669Y-116683527D01*
X142863786Y-116673098D01*
X142868981Y-116663806D01*
X142876253Y-116655652D01*
X142885604Y-116648636D01*
X142897033Y-116642758D01*
X142910540Y-116638017D01*
X142920699Y-116635489D01*
X142931781Y-116633467D01*
X142943788Y-116631950D01*
X142956717Y-116630938D01*
X142970570Y-116630433D01*
X142977843Y-116630369D01*
X142977843Y-116520949D01*
X142602198Y-116520949D01*
X142602198Y-116651863D01*
G37*
G36*
X141697161Y-116489789D02*
G01*
X141708837Y-116490101D01*
X141720341Y-116490621D01*
X141731670Y-116491349D01*
X141742826Y-116492285D01*
X141753809Y-116493429D01*
X141764617Y-116494781D01*
X141775252Y-116496341D01*
X141785714Y-116498109D01*
X141796002Y-116500085D01*
X141806116Y-116502269D01*
X141816056Y-116504661D01*
X141825823Y-116507260D01*
X141835416Y-116510068D01*
X141844836Y-116513084D01*
X141854082Y-116516308D01*
X141863124Y-116519729D01*
X141876361Y-116525212D01*
X141889207Y-116531115D01*
X141901663Y-116537439D01*
X141913728Y-116544184D01*
X141925402Y-116551350D01*
X141936686Y-116558936D01*
X141947578Y-116566943D01*
X141958081Y-116575371D01*
X141968192Y-116584219D01*
X141977913Y-116593489D01*
X141984137Y-116599888D01*
X141993116Y-116609783D01*
X142001666Y-116620035D01*
X142009786Y-116630643D01*
X142017476Y-116641607D01*
X142024738Y-116652928D01*
X142031570Y-116664605D01*
X142037973Y-116676639D01*
X142043946Y-116689029D01*
X142049490Y-116701775D01*
X142054605Y-116714877D01*
X142056198Y-116719321D01*
X142060673Y-116732860D01*
X142064693Y-116746707D01*
X142068258Y-116760864D01*
X142070382Y-116770473D01*
X142072303Y-116780220D01*
X142074023Y-116790104D01*
X142075540Y-116800126D01*
X142076854Y-116810285D01*
X142077967Y-116820581D01*
X142078877Y-116831015D01*
X142079585Y-116841586D01*
X142080090Y-116852295D01*
X142080394Y-116863140D01*
X142080495Y-116874124D01*
X142080366Y-116887807D01*
X142079980Y-116901197D01*
X142079336Y-116914292D01*
X142078434Y-116927094D01*
X142077275Y-116939602D01*
X142075858Y-116951816D01*
X142074184Y-116963736D01*
X142072252Y-116975362D01*
X142070062Y-116986695D01*
X142067615Y-116997733D01*
X142064910Y-117008478D01*
X142061948Y-117018929D01*
X142058728Y-117029086D01*
X142055250Y-117038949D01*
X142051515Y-117048519D01*
X142047522Y-117057794D01*
X142045424Y-117062330D01*
X142041092Y-117071234D01*
X142036581Y-117079912D01*
X142029479Y-117092507D01*
X142021973Y-117104596D01*
X142014063Y-117116178D01*
X142005749Y-117127253D01*
X141997033Y-117137822D01*
X141987912Y-117147884D01*
X141978388Y-117157440D01*
X141968460Y-117166489D01*
X141958129Y-117175031D01*
X141951039Y-117180456D01*
X141940145Y-117188214D01*
X141928942Y-117195517D01*
X141917430Y-117202365D01*
X141905609Y-117208757D01*
X141893479Y-117214695D01*
X141881040Y-117220178D01*
X141868292Y-117225205D01*
X141855234Y-117229778D01*
X141841868Y-117233895D01*
X141828192Y-117237557D01*
X141818918Y-117239746D01*
X141804916Y-117242764D01*
X141790808Y-117245464D01*
X141776592Y-117247847D01*
X141762268Y-117249912D01*
X141747838Y-117251660D01*
X141733300Y-117253089D01*
X141723548Y-117253866D01*
X141713749Y-117254501D01*
X141703902Y-117254996D01*
X141694007Y-117255349D01*
X141684065Y-117255560D01*
X141674075Y-117255631D01*
X141664649Y-117255556D01*
X141650767Y-117255160D01*
X141637194Y-117254425D01*
X141623931Y-117253351D01*
X141610976Y-117251938D01*
X141598331Y-117250185D01*
X141585995Y-117248094D01*
X141573968Y-117245663D01*
X141562250Y-117242893D01*
X141550841Y-117239784D01*
X141539741Y-117236336D01*
X141536110Y-117235118D01*
X141525423Y-117231321D01*
X141515044Y-117227310D01*
X141504975Y-117223084D01*
X141495215Y-117218643D01*
X141485764Y-117213988D01*
X141476622Y-117209118D01*
X141467789Y-117204033D01*
X141459265Y-117198733D01*
X141451051Y-117193219D01*
X141440579Y-117185533D01*
X141430580Y-117177386D01*
X141421100Y-117168818D01*
X141412140Y-117159831D01*
X141403698Y-117150423D01*
X141395775Y-117140596D01*
X141388372Y-117130350D01*
X141381487Y-117119683D01*
X141375122Y-117108597D01*
X141369187Y-117097182D01*
X141363719Y-117085653D01*
X141358715Y-117074010D01*
X141354178Y-117062252D01*
X141350106Y-117050379D01*
X141346499Y-117038392D01*
X141343359Y-117026291D01*
X141340683Y-117014075D01*
X141458653Y-117001374D01*
X141461083Y-117010358D01*
X141465254Y-117023289D01*
X141470056Y-117035568D01*
X141475489Y-117047195D01*
X141481553Y-117058168D01*
X141488249Y-117068490D01*
X141495575Y-117078158D01*
X141503533Y-117087174D01*
X141512122Y-117095537D01*
X141521342Y-117103248D01*
X141531193Y-117110307D01*
X141538022Y-117114654D01*
X141548459Y-117120650D01*
X141559128Y-117126014D01*
X141570029Y-117130748D01*
X141581161Y-117134850D01*
X141592526Y-117138321D01*
X141604122Y-117141161D01*
X141615950Y-117143370D01*
X141628010Y-117144948D01*
X141640302Y-117145895D01*
X141652826Y-117146210D01*
X141663721Y-117145951D01*
X141674243Y-117145172D01*
X141684390Y-117143875D01*
X141694164Y-117142058D01*
X141708123Y-117138360D01*
X141721240Y-117133494D01*
X141733517Y-117127461D01*
X141744951Y-117120259D01*
X141755544Y-117111890D01*
X141765296Y-117102353D01*
X141774206Y-117091649D01*
X141782274Y-117079776D01*
X141787225Y-117071212D01*
X141791880Y-117062130D01*
X141796239Y-117052528D01*
X141800303Y-117042407D01*
X141804070Y-117031767D01*
X141807542Y-117020608D01*
X141810718Y-117008931D01*
X141813599Y-116996734D01*
X141816183Y-116984018D01*
X141818472Y-116970783D01*
X141820465Y-116957029D01*
X141822162Y-116942756D01*
X141823564Y-116927964D01*
X141824670Y-116912653D01*
X141825480Y-116896823D01*
X141825994Y-116880474D01*
X141315282Y-116880474D01*
X141315371Y-116867836D01*
X141315637Y-116855413D01*
X141316081Y-116843207D01*
X141316702Y-116831217D01*
X141317500Y-116819443D01*
X141318476Y-116807885D01*
X141319630Y-116796543D01*
X141320809Y-116786685D01*
X141530460Y-116786685D01*
X141823063Y-116786685D01*
X141822499Y-116780116D01*
X141821190Y-116767314D01*
X141819640Y-116754961D01*
X141817850Y-116743056D01*
X141815820Y-116731599D01*
X141813549Y-116720591D01*
X141811038Y-116710031D01*
X141808287Y-116699920D01*
X141805295Y-116690257D01*
X141800356Y-116676604D01*
X141794876Y-116663959D01*
X141788856Y-116652324D01*
X141782294Y-116641697D01*
X141775191Y-116632079D01*
X141770183Y-116626193D01*
X141762319Y-116618077D01*
X141754034Y-116610815D01*
X141745328Y-116604407D01*
X141736202Y-116598853D01*
X141726655Y-116594154D01*
X141716688Y-116590310D01*
X141706299Y-116587319D01*
X141695490Y-116585183D01*
X141684260Y-116583902D01*
X141672609Y-116583475D01*
X141667892Y-116583544D01*
X141656489Y-116584328D01*
X141645647Y-116585982D01*
X141635366Y-116588507D01*
X141625645Y-116591902D01*
X141616485Y-116596168D01*
X141607885Y-116601304D01*
X141604566Y-116603547D01*
X141596610Y-116609536D01*
X141589143Y-116616074D01*
X141582165Y-116623160D01*
X141575676Y-116630795D01*
X141569677Y-116638978D01*
X141564166Y-116647711D01*
X141562092Y-116651315D01*
X141557202Y-116660610D01*
X141552728Y-116670311D01*
X141548672Y-116680417D01*
X141545034Y-116690928D01*
X141541812Y-116701845D01*
X141539009Y-116713168D01*
X141537973Y-116717748D01*
X141535678Y-116729208D01*
X141533799Y-116740679D01*
X141532338Y-116752163D01*
X141531295Y-116763658D01*
X141530669Y-116775166D01*
X141530460Y-116786685D01*
X141320809Y-116786685D01*
X141320961Y-116785418D01*
X141322469Y-116774508D01*
X141324155Y-116763815D01*
X141326018Y-116753337D01*
X141328059Y-116743076D01*
X141330277Y-116733031D01*
X141332673Y-116723202D01*
X141335246Y-116713589D01*
X141337997Y-116704192D01*
X141344030Y-116686046D01*
X141350774Y-116668765D01*
X141358227Y-116652348D01*
X141366390Y-116636796D01*
X141375263Y-116622108D01*
X141384846Y-116608284D01*
X141395138Y-116595325D01*
X141406140Y-116583230D01*
X141417850Y-116571903D01*
X141430324Y-116561306D01*
X141443564Y-116551440D01*
X141457569Y-116542305D01*
X141472339Y-116533900D01*
X141487874Y-116526226D01*
X141504174Y-116519284D01*
X141521240Y-116513072D01*
X141539071Y-116507591D01*
X141557666Y-116502840D01*
X141567251Y-116500739D01*
X141577027Y-116498821D01*
X141586995Y-116497085D01*
X141597154Y-116495532D01*
X141607504Y-116494162D01*
X141618045Y-116492974D01*
X141628778Y-116491969D01*
X141639702Y-116491147D01*
X141650817Y-116490508D01*
X141662123Y-116490051D01*
X141673621Y-116489777D01*
X141685310Y-116489685D01*
X141697161Y-116489789D01*
G37*
G36*
X140894746Y-116505389D02*
G01*
X140907485Y-116505764D01*
X140920036Y-116506462D01*
X140932398Y-116507482D01*
X140944571Y-116508823D01*
X140956555Y-116510487D01*
X140968350Y-116512473D01*
X140979957Y-116514780D01*
X140991374Y-116517410D01*
X141002603Y-116520362D01*
X141013642Y-116523635D01*
X141020876Y-116525998D01*
X141031491Y-116529933D01*
X141041822Y-116534336D01*
X141051870Y-116539207D01*
X141061634Y-116544546D01*
X141071115Y-116550352D01*
X141080313Y-116556627D01*
X141089227Y-116563370D01*
X141097858Y-116570580D01*
X141106206Y-116578259D01*
X141114270Y-116586406D01*
X141121988Y-116595063D01*
X141129389Y-116604274D01*
X141136471Y-116614040D01*
X141143236Y-116624359D01*
X141149683Y-116635232D01*
X141155813Y-116646658D01*
X141161624Y-116658639D01*
X141167118Y-116671173D01*
X141172295Y-116684261D01*
X141177153Y-116697903D01*
X141180216Y-116707306D01*
X141183114Y-116716981D01*
X141185826Y-116726956D01*
X141188350Y-116737230D01*
X141190688Y-116747804D01*
X141192838Y-116758678D01*
X141194802Y-116769851D01*
X141196578Y-116781324D01*
X141198168Y-116793096D01*
X141199570Y-116805168D01*
X141200786Y-116817540D01*
X141201814Y-116830211D01*
X141202656Y-116843181D01*
X141203310Y-116856451D01*
X141203778Y-116870021D01*
X141204058Y-116883891D01*
X141204152Y-116898060D01*
X141204128Y-116904832D01*
X141203941Y-116918160D01*
X141203567Y-116931200D01*
X141203006Y-116943953D01*
X141202258Y-116956417D01*
X141201323Y-116968593D01*
X141200201Y-116980480D01*
X141198892Y-116992080D01*
X141197396Y-117003391D01*
X141195713Y-117014415D01*
X141193843Y-117025150D01*
X141191786Y-117035597D01*
X141189542Y-117045756D01*
X141187111Y-117055627D01*
X141184493Y-117065210D01*
X141180216Y-117079043D01*
X141177158Y-117087935D01*
X141172324Y-117100844D01*
X141167195Y-117113237D01*
X141161769Y-117125116D01*
X141156046Y-117136479D01*
X141150028Y-117147327D01*
X141143713Y-117157659D01*
X141137102Y-117167477D01*
X141130195Y-117176779D01*
X141122991Y-117185566D01*
X141115491Y-117193838D01*
X141110333Y-117199052D01*
X141102369Y-117206504D01*
X141094135Y-117213514D01*
X141085631Y-117220082D01*
X141076856Y-117226208D01*
X141067811Y-117231892D01*
X141058495Y-117237133D01*
X141048909Y-117241933D01*
X141039052Y-117246290D01*
X141028925Y-117250205D01*
X141018527Y-117253677D01*
X141011448Y-117255807D01*
X141000729Y-117258743D01*
X140989890Y-117261371D01*
X140978930Y-117263689D01*
X140967850Y-117265698D01*
X140956651Y-117267399D01*
X140945331Y-117268790D01*
X140933890Y-117269872D01*
X140922330Y-117270644D01*
X140910649Y-117271108D01*
X140898848Y-117271263D01*
X140893587Y-117271237D01*
X140883190Y-117271031D01*
X140872958Y-117270619D01*
X140862893Y-117270000D01*
X140852993Y-117269176D01*
X140843260Y-117268146D01*
X140828971Y-117266214D01*
X140815055Y-117263818D01*
X140801513Y-117260959D01*
X140788345Y-117257636D01*
X140775550Y-117253849D01*
X140763129Y-117249598D01*
X140751081Y-117244884D01*
X140743305Y-117241533D01*
X140732136Y-117236187D01*
X140721558Y-117230459D01*
X140711573Y-117224349D01*
X140702181Y-117217856D01*
X140693381Y-117210982D01*
X140685174Y-117203726D01*
X140677559Y-117196087D01*
X140670536Y-117188066D01*
X140664106Y-117179664D01*
X140658269Y-117170879D01*
X140658269Y-117395338D01*
X140658858Y-117403028D01*
X140661948Y-117413632D01*
X140667687Y-117423121D01*
X140676076Y-117431493D01*
X140687113Y-117438748D01*
X140695943Y-117442965D01*
X140705951Y-117446686D01*
X140717135Y-117449911D01*
X140729497Y-117452640D01*
X140743036Y-117454872D01*
X140757753Y-117456609D01*
X140773647Y-117457849D01*
X140790718Y-117458593D01*
X140808967Y-117458841D01*
X140808967Y-117568262D01*
X140278471Y-117568262D01*
X140278471Y-117458841D01*
X140285924Y-117458779D01*
X140300121Y-117458283D01*
X140313371Y-117457291D01*
X140325675Y-117455802D01*
X140337032Y-117453818D01*
X140347443Y-117451337D01*
X140361285Y-117446686D01*
X140372997Y-117440919D01*
X140382580Y-117434035D01*
X140390033Y-117426035D01*
X140395357Y-117416919D01*
X140398551Y-117406687D01*
X140399616Y-117395338D01*
X140399616Y-116888290D01*
X140635799Y-116888290D01*
X140635942Y-116903284D01*
X140636371Y-116917797D01*
X140637087Y-116931830D01*
X140638088Y-116945382D01*
X140639376Y-116958452D01*
X140640951Y-116971042D01*
X140642811Y-116983151D01*
X140644958Y-116994780D01*
X140647391Y-117005927D01*
X140650110Y-117016594D01*
X140653115Y-117026779D01*
X140656407Y-117036484D01*
X140659984Y-117045708D01*
X140665888Y-117058643D01*
X140672435Y-117070495D01*
X140679762Y-117081233D01*
X140688003Y-117090914D01*
X140697158Y-117099539D01*
X140707228Y-117107108D01*
X140718213Y-117113621D01*
X140730112Y-117119078D01*
X140742925Y-117123479D01*
X140756653Y-117126823D01*
X140766313Y-117128466D01*
X140776379Y-117129640D01*
X140786852Y-117130344D01*
X140797732Y-117130579D01*
X140803039Y-117130520D01*
X140813351Y-117130051D01*
X140823258Y-117129112D01*
X140837360Y-117126823D01*
X140850552Y-117123479D01*
X140862834Y-117119078D01*
X140874205Y-117113621D01*
X140884667Y-117107108D01*
X140894218Y-117099539D01*
X140902859Y-117090914D01*
X140910590Y-117081233D01*
X140917411Y-117070495D01*
X140923434Y-117058643D01*
X140928865Y-117045708D01*
X140932157Y-117036484D01*
X140935185Y-117026779D01*
X140937950Y-117016594D01*
X140940451Y-117005927D01*
X140942690Y-116994780D01*
X140944665Y-116983151D01*
X140946376Y-116971042D01*
X140947824Y-116958452D01*
X140949009Y-116945382D01*
X140949931Y-116931830D01*
X140950589Y-116917797D01*
X140950984Y-116903284D01*
X140951116Y-116888290D01*
X140950984Y-116873297D01*
X140950589Y-116858786D01*
X140949931Y-116844758D01*
X140949009Y-116831213D01*
X140947824Y-116818151D01*
X140946376Y-116805572D01*
X140944665Y-116793475D01*
X140942690Y-116781861D01*
X140940451Y-116770730D01*
X140937950Y-116760081D01*
X140935185Y-116749916D01*
X140932157Y-116740233D01*
X140928865Y-116731033D01*
X140923434Y-116718138D01*
X140917411Y-116706329D01*
X140912965Y-116699024D01*
X140905537Y-116688949D01*
X140897199Y-116679935D01*
X140887952Y-116671982D01*
X140877794Y-116665089D01*
X140866725Y-116659257D01*
X140854747Y-116654485D01*
X140841858Y-116650773D01*
X140828060Y-116648122D01*
X140818355Y-116646944D01*
X140808245Y-116646237D01*
X140797732Y-116646001D01*
X140786852Y-116646237D01*
X140776379Y-116646944D01*
X140766313Y-116648122D01*
X140756653Y-116649771D01*
X140742925Y-116653129D01*
X140730112Y-116657548D01*
X140718213Y-116663027D01*
X140707228Y-116669567D01*
X140697158Y-116677166D01*
X140688003Y-116685827D01*
X140679762Y-116695548D01*
X140672435Y-116706329D01*
X140665888Y-116718138D01*
X140659984Y-116731033D01*
X140656407Y-116740233D01*
X140653115Y-116749916D01*
X140650110Y-116760081D01*
X140647391Y-116770730D01*
X140644958Y-116781861D01*
X140642811Y-116793475D01*
X140640951Y-116805572D01*
X140639376Y-116818151D01*
X140638088Y-116831213D01*
X140637087Y-116844758D01*
X140636371Y-116858786D01*
X140635942Y-116873297D01*
X140635799Y-116888290D01*
X140399616Y-116888290D01*
X140399616Y-116520949D01*
X140579623Y-116520949D01*
X140620411Y-116644780D01*
X140622403Y-116638410D01*
X140626222Y-116628785D01*
X140631036Y-116619073D01*
X140636846Y-116609276D01*
X140642449Y-116601046D01*
X140648743Y-116592756D01*
X140652793Y-116587757D01*
X140660040Y-116579597D01*
X140667906Y-116571652D01*
X140676392Y-116563922D01*
X140685499Y-116556406D01*
X140695226Y-116549105D01*
X140703454Y-116543419D01*
X140712079Y-116538030D01*
X140721100Y-116533100D01*
X140730519Y-116528627D01*
X140740334Y-116524612D01*
X140750547Y-116521055D01*
X140761156Y-116517957D01*
X140772162Y-116515316D01*
X140783565Y-116513133D01*
X140786475Y-116512652D01*
X140798306Y-116510881D01*
X140810442Y-116509355D01*
X140822883Y-116508072D01*
X140835629Y-116507034D01*
X140845389Y-116506416D01*
X140855321Y-116505935D01*
X140865425Y-116505592D01*
X140875700Y-116505386D01*
X140886147Y-116505317D01*
X140894746Y-116505389D01*
G37*
G36*
X139619993Y-117089546D02*
G01*
X139622080Y-117094351D01*
X139628156Y-117103113D01*
X139635550Y-117109853D01*
X139644885Y-117115729D01*
X139654431Y-117120076D01*
X139656173Y-117120722D01*
X139665857Y-117123645D01*
X139677163Y-117126056D01*
X139687375Y-117127615D01*
X139698625Y-117128845D01*
X139710914Y-117129748D01*
X139720811Y-117130209D01*
X139731293Y-117130486D01*
X139742358Y-117130579D01*
X139740893Y-117240000D01*
X139342777Y-117240000D01*
X139342777Y-117130579D01*
X139422889Y-117130579D01*
X139426795Y-117130541D01*
X139437772Y-117129968D01*
X139450671Y-117128136D01*
X139461586Y-117125083D01*
X139472438Y-117119550D01*
X139480190Y-117112108D01*
X139484841Y-117102758D01*
X139486392Y-117091500D01*
X139486375Y-117090505D01*
X139484842Y-117080583D01*
X139481995Y-117071228D01*
X139446824Y-116958632D01*
X139067027Y-116958632D01*
X139027704Y-117083684D01*
X139025015Y-117092797D01*
X139023551Y-117102491D01*
X139023711Y-117105892D01*
X139026778Y-117116068D01*
X139033749Y-117123557D01*
X139042830Y-117127836D01*
X139052589Y-117129893D01*
X139064340Y-117130579D01*
X139172540Y-117130579D01*
X139172540Y-117240000D01*
X138608339Y-117240000D01*
X138608339Y-117130579D01*
X138620491Y-117130413D01*
X138631973Y-117129915D01*
X138642785Y-117129085D01*
X138652928Y-117127923D01*
X138666887Y-117125557D01*
X138679338Y-117122444D01*
X138690282Y-117118585D01*
X138699720Y-117113978D01*
X138709959Y-117106673D01*
X138717519Y-117098041D01*
X138722400Y-117088080D01*
X138801958Y-116849211D01*
X139103663Y-116849211D01*
X139406036Y-116849211D01*
X139249965Y-116390523D01*
X139103663Y-116849211D01*
X138801958Y-116849211D01*
X139020621Y-116192686D01*
X139304919Y-116192686D01*
X139619993Y-117089546D01*
G37*
G36*
X138144766Y-116270844D02*
G01*
X138137403Y-116270906D01*
X138123378Y-116271402D01*
X138110288Y-116272394D01*
X138098133Y-116273883D01*
X138086913Y-116275867D01*
X138076628Y-116278348D01*
X138062954Y-116282999D01*
X138051383Y-116288766D01*
X138041917Y-116295650D01*
X138034554Y-116303650D01*
X138029294Y-116312766D01*
X138026139Y-116322998D01*
X138025087Y-116334347D01*
X138025087Y-116561249D01*
X138029374Y-116557735D01*
X138038396Y-116551056D01*
X138048013Y-116544843D01*
X138058226Y-116539096D01*
X138069033Y-116533814D01*
X138080436Y-116528998D01*
X138092435Y-116524648D01*
X138101824Y-116521690D01*
X138111549Y-116518995D01*
X138118184Y-116517338D01*
X138128291Y-116515054D01*
X138138583Y-116513011D01*
X138149060Y-116511207D01*
X138159721Y-116509645D01*
X138170566Y-116508322D01*
X138181597Y-116507240D01*
X138192812Y-116506399D01*
X138204211Y-116505798D01*
X138215795Y-116505437D01*
X138227564Y-116505317D01*
X138236864Y-116505395D01*
X138250657Y-116505806D01*
X138264262Y-116506569D01*
X138277677Y-116507684D01*
X138290903Y-116509150D01*
X138303941Y-116510969D01*
X138316789Y-116513140D01*
X138329449Y-116515663D01*
X138341919Y-116518539D01*
X138354201Y-116521766D01*
X138366294Y-116525345D01*
X138374230Y-116527915D01*
X138385898Y-116532136D01*
X138397282Y-116536794D01*
X138408383Y-116541890D01*
X138419201Y-116547424D01*
X138429736Y-116553396D01*
X138439987Y-116559806D01*
X138449954Y-116566654D01*
X138459639Y-116573940D01*
X138469040Y-116581663D01*
X138478157Y-116589825D01*
X138484032Y-116595517D01*
X138492552Y-116604449D01*
X138500719Y-116613852D01*
X138508534Y-116623729D01*
X138515998Y-116634077D01*
X138523109Y-116644898D01*
X138529868Y-116656190D01*
X138536275Y-116667956D01*
X138542330Y-116680193D01*
X138548033Y-116692903D01*
X138553384Y-116706085D01*
X138556697Y-116715124D01*
X138559795Y-116724410D01*
X138562681Y-116733945D01*
X138565352Y-116743729D01*
X138567810Y-116753760D01*
X138570054Y-116764039D01*
X138572084Y-116774566D01*
X138573900Y-116785341D01*
X138575503Y-116796365D01*
X138576892Y-116807636D01*
X138578068Y-116819156D01*
X138579030Y-116830923D01*
X138579778Y-116842939D01*
X138580312Y-116855203D01*
X138580632Y-116867714D01*
X138580739Y-116880474D01*
X138580641Y-116893054D01*
X138580346Y-116905394D01*
X138579855Y-116917494D01*
X138579167Y-116929353D01*
X138578282Y-116940972D01*
X138577202Y-116952350D01*
X138575924Y-116963488D01*
X138574450Y-116974385D01*
X138572779Y-116985042D01*
X138570912Y-116995459D01*
X138568849Y-117005635D01*
X138566588Y-117015571D01*
X138564132Y-117025266D01*
X138560078Y-117039358D01*
X138555582Y-117052909D01*
X138552338Y-117061664D01*
X138547215Y-117074424D01*
X138541782Y-117086737D01*
X138536041Y-117098604D01*
X138529990Y-117110024D01*
X138523630Y-117120998D01*
X138516961Y-117131525D01*
X138509983Y-117141606D01*
X138502696Y-117151240D01*
X138495100Y-117160428D01*
X138487194Y-117169169D01*
X138481759Y-117174722D01*
X138473373Y-117182693D01*
X138464709Y-117190235D01*
X138455765Y-117197348D01*
X138446542Y-117204031D01*
X138437040Y-117210285D01*
X138427259Y-117216109D01*
X138417199Y-117221505D01*
X138406860Y-117226471D01*
X138396242Y-117231007D01*
X138385345Y-117235115D01*
X138377923Y-117237599D01*
X138366665Y-117241025D01*
X138355257Y-117244091D01*
X138343699Y-117246795D01*
X138331990Y-117249140D01*
X138320131Y-117251123D01*
X138308122Y-117252746D01*
X138295963Y-117254008D01*
X138283653Y-117254910D01*
X138271193Y-117255451D01*
X138258583Y-117255631D01*
X138247059Y-117255505D01*
X138235689Y-117255127D01*
X138224474Y-117254498D01*
X138213413Y-117253616D01*
X138202507Y-117252483D01*
X138191756Y-117251097D01*
X138181159Y-117249460D01*
X138170717Y-117247571D01*
X138160429Y-117245430D01*
X138150296Y-117243037D01*
X138140317Y-117240393D01*
X138130493Y-117237496D01*
X138120823Y-117234348D01*
X138111308Y-117230947D01*
X138101948Y-117227295D01*
X138092742Y-117223391D01*
X138083737Y-117219226D01*
X138070810Y-117212469D01*
X138058579Y-117205103D01*
X138047042Y-117197128D01*
X138036202Y-117188542D01*
X138026057Y-117179348D01*
X138016607Y-117169543D01*
X138007853Y-117159129D01*
X137999794Y-117148105D01*
X137992431Y-117136472D01*
X137985764Y-117124228D01*
X137975994Y-117240000D01*
X137645289Y-117240000D01*
X137645289Y-117126427D01*
X137652817Y-117126365D01*
X137667157Y-117125873D01*
X137680541Y-117124888D01*
X137692969Y-117123411D01*
X137704440Y-117121442D01*
X137714956Y-117118981D01*
X137728938Y-117114365D01*
X137740768Y-117108642D01*
X137750447Y-117101811D01*
X137757975Y-117093873D01*
X137763353Y-117084827D01*
X137766579Y-117074673D01*
X137767655Y-117063412D01*
X137767655Y-116865575D01*
X138004082Y-116865575D01*
X138004214Y-116880990D01*
X138004608Y-116895911D01*
X138005267Y-116910337D01*
X138006188Y-116924270D01*
X138007373Y-116937708D01*
X138008822Y-116950652D01*
X138010533Y-116963102D01*
X138012508Y-116975057D01*
X138014746Y-116986518D01*
X138017248Y-116997485D01*
X138020013Y-117007958D01*
X138023041Y-117017937D01*
X138026333Y-117027421D01*
X138031764Y-117040721D01*
X138037787Y-117052909D01*
X138042209Y-117060422D01*
X138049626Y-117070782D01*
X138057983Y-117080051D01*
X138067280Y-117088230D01*
X138077518Y-117095318D01*
X138088696Y-117101316D01*
X138100813Y-117106223D01*
X138113872Y-117110040D01*
X138127870Y-117112766D01*
X138137725Y-117113978D01*
X138147997Y-117114705D01*
X138158688Y-117114947D01*
X138164015Y-117114887D01*
X138174398Y-117114402D01*
X138184415Y-117113433D01*
X138198759Y-117111070D01*
X138212282Y-117107617D01*
X138224985Y-117103073D01*
X138236868Y-117097438D01*
X138247932Y-117090714D01*
X138258175Y-117082898D01*
X138267598Y-117073993D01*
X138276201Y-117063996D01*
X138283984Y-117052909D01*
X138286403Y-117048970D01*
X138293200Y-117036412D01*
X138297348Y-117027421D01*
X138301188Y-117017937D01*
X138304721Y-117007958D01*
X138307947Y-116997485D01*
X138310865Y-116986518D01*
X138313476Y-116975057D01*
X138315781Y-116963102D01*
X138317777Y-116950652D01*
X138319467Y-116937708D01*
X138320850Y-116924270D01*
X138321925Y-116910337D01*
X138322693Y-116895911D01*
X138323154Y-116880990D01*
X138323307Y-116865575D01*
X138323269Y-116857790D01*
X138322962Y-116842590D01*
X138322347Y-116827882D01*
X138321426Y-116813666D01*
X138320197Y-116799943D01*
X138318661Y-116786712D01*
X138316817Y-116773973D01*
X138314667Y-116761727D01*
X138312209Y-116749972D01*
X138309444Y-116738711D01*
X138306372Y-116727941D01*
X138302993Y-116717664D01*
X138299306Y-116707879D01*
X138295313Y-116698586D01*
X138291012Y-116689786D01*
X138283984Y-116677508D01*
X138278887Y-116669907D01*
X138270557Y-116659425D01*
X138261407Y-116650046D01*
X138251437Y-116641771D01*
X138240647Y-116634599D01*
X138229037Y-116628530D01*
X138216607Y-116623565D01*
X138203358Y-116619703D01*
X138189288Y-116616945D01*
X138179452Y-116615719D01*
X138169252Y-116614983D01*
X138158688Y-116614738D01*
X138153290Y-116614799D01*
X138142809Y-116615290D01*
X138132745Y-116616270D01*
X138118433Y-116618661D01*
X138105062Y-116622155D01*
X138092630Y-116626752D01*
X138081139Y-116632453D01*
X138070588Y-116639258D01*
X138060978Y-116647165D01*
X138052307Y-116656176D01*
X138044577Y-116666290D01*
X138037787Y-116677508D01*
X138031764Y-116689786D01*
X138026333Y-116703171D01*
X138023041Y-116712710D01*
X138020013Y-116722741D01*
X138017248Y-116733264D01*
X138014746Y-116744280D01*
X138012508Y-116755788D01*
X138010533Y-116767788D01*
X138008822Y-116780281D01*
X138007373Y-116793266D01*
X138006188Y-116806743D01*
X138005267Y-116820713D01*
X138004608Y-116835175D01*
X138004214Y-116850129D01*
X138004082Y-116865575D01*
X137767655Y-116865575D01*
X137767655Y-116161423D01*
X138144766Y-116161423D01*
X138144766Y-116270844D01*
G37*
G36*
X137056908Y-117295443D02*
G01*
X137057199Y-117312227D01*
X137058073Y-117328479D01*
X137059529Y-117344198D01*
X137061568Y-117359385D01*
X137064189Y-117374038D01*
X137067392Y-117388159D01*
X137071178Y-117401746D01*
X137075547Y-117414801D01*
X137080498Y-117427323D01*
X137086031Y-117439312D01*
X137092147Y-117450768D01*
X137098845Y-117461692D01*
X137106126Y-117472082D01*
X137113989Y-117481940D01*
X137122435Y-117491265D01*
X137131463Y-117500057D01*
X137141074Y-117508316D01*
X137151267Y-117516043D01*
X137162042Y-117523236D01*
X137173400Y-117529897D01*
X137185341Y-117536024D01*
X137197864Y-117541619D01*
X137210969Y-117546681D01*
X137224657Y-117551211D01*
X137238927Y-117555207D01*
X137253780Y-117558671D01*
X137269215Y-117561601D01*
X137285233Y-117563999D01*
X137301833Y-117565864D01*
X137319016Y-117567196D01*
X137336781Y-117567995D01*
X137355129Y-117568262D01*
X137371410Y-117568092D01*
X137387220Y-117567583D01*
X137402558Y-117566733D01*
X137417426Y-117565545D01*
X137431822Y-117564016D01*
X137445747Y-117562148D01*
X137459200Y-117559940D01*
X137472182Y-117557393D01*
X137484693Y-117554506D01*
X137496732Y-117551279D01*
X137508300Y-117547713D01*
X137519397Y-117543807D01*
X137530023Y-117539561D01*
X137540177Y-117534976D01*
X137549860Y-117530051D01*
X137559071Y-117524787D01*
X137567767Y-117519127D01*
X137575901Y-117513017D01*
X137583475Y-117506457D01*
X137590487Y-117499446D01*
X137596939Y-117491986D01*
X137602829Y-117484074D01*
X137608158Y-117475713D01*
X137612927Y-117466901D01*
X137617134Y-117457639D01*
X137620781Y-117447926D01*
X137623866Y-117437764D01*
X137626391Y-117427151D01*
X137628354Y-117416087D01*
X137629757Y-117404573D01*
X137630598Y-117392609D01*
X137630879Y-117380195D01*
X137630261Y-117369659D01*
X137628673Y-117359905D01*
X137626108Y-117349784D01*
X137623063Y-117340628D01*
X137618773Y-117330385D01*
X137613476Y-117320661D01*
X137607172Y-117311456D01*
X137600829Y-117303827D01*
X137599860Y-117302770D01*
X137592789Y-117295666D01*
X137585040Y-117289099D01*
X137576614Y-117283070D01*
X137567509Y-117277579D01*
X137562002Y-117274682D01*
X137551891Y-117270304D01*
X137541219Y-117267002D01*
X137531625Y-117265027D01*
X137521618Y-117263842D01*
X137511200Y-117263447D01*
X137498946Y-117263821D01*
X137487462Y-117264943D01*
X137476750Y-117266813D01*
X137466809Y-117269431D01*
X137455466Y-117273755D01*
X137445328Y-117279248D01*
X137436394Y-117285910D01*
X137434752Y-117287383D01*
X137427223Y-117295202D01*
X137420970Y-117303702D01*
X137415993Y-117312881D01*
X137412293Y-117322741D01*
X137409868Y-117333280D01*
X137408720Y-117344498D01*
X137408618Y-117349176D01*
X137409202Y-117359893D01*
X137410955Y-117370061D01*
X137413877Y-117379680D01*
X137417968Y-117388751D01*
X137423227Y-117397273D01*
X137429655Y-117405247D01*
X137432554Y-117408283D01*
X137440445Y-117415244D01*
X137449159Y-117421168D01*
X137458696Y-117426054D01*
X137469056Y-117429902D01*
X137480239Y-117432713D01*
X137492245Y-117434486D01*
X137497278Y-117434905D01*
X137491289Y-117443081D01*
X137484435Y-117450299D01*
X137476716Y-117456559D01*
X137468133Y-117461860D01*
X137462840Y-117464459D01*
X137452617Y-117468361D01*
X137442719Y-117470942D01*
X137431774Y-117472820D01*
X137421853Y-117473847D01*
X137411204Y-117474385D01*
X137404466Y-117474473D01*
X137392574Y-117474053D01*
X137381568Y-117472793D01*
X137371447Y-117470695D01*
X137360041Y-117466890D01*
X137350019Y-117461774D01*
X137341379Y-117455346D01*
X137334124Y-117447606D01*
X137328002Y-117438763D01*
X137322918Y-117429025D01*
X137318872Y-117418393D01*
X137315863Y-117406867D01*
X137314203Y-117397002D01*
X137313207Y-117386564D01*
X137312875Y-117375554D01*
X137312875Y-116695338D01*
X137314075Y-116683727D01*
X137317675Y-116673259D01*
X137323674Y-116663932D01*
X137332074Y-116655748D01*
X137342874Y-116648705D01*
X137356074Y-116642805D01*
X137366207Y-116639506D01*
X137377407Y-116636714D01*
X137389674Y-116634430D01*
X137403007Y-116632653D01*
X137417407Y-116631384D01*
X137432873Y-116630623D01*
X137449406Y-116630369D01*
X137449406Y-116520949D01*
X137056908Y-116520949D01*
X137056908Y-117295443D01*
G37*
G36*
X137041521Y-116303572D02*
G01*
X137041916Y-116314535D01*
X137043101Y-116325257D01*
X137045076Y-116335738D01*
X137047841Y-116345979D01*
X137051395Y-116355980D01*
X137052756Y-116359260D01*
X137057270Y-116368728D01*
X137062384Y-116377715D01*
X137068100Y-116386222D01*
X137074417Y-116394248D01*
X137081335Y-116401792D01*
X137083775Y-116404200D01*
X137091308Y-116410995D01*
X137099254Y-116417275D01*
X137107611Y-116423040D01*
X137116381Y-116428289D01*
X137125563Y-116433023D01*
X137128715Y-116434487D01*
X137138387Y-116438305D01*
X137148350Y-116441333D01*
X137158606Y-116443571D01*
X137169153Y-116445020D01*
X137179992Y-116445678D01*
X137183670Y-116445722D01*
X137194632Y-116445327D01*
X137205354Y-116444142D01*
X137215836Y-116442167D01*
X137226077Y-116439402D01*
X137236077Y-116435847D01*
X137239357Y-116434487D01*
X137248826Y-116429924D01*
X137257813Y-116424847D01*
X137266320Y-116419254D01*
X137274345Y-116413146D01*
X137281890Y-116406523D01*
X137284298Y-116404200D01*
X137291084Y-116396816D01*
X137297338Y-116388951D01*
X137303060Y-116380604D01*
X137308249Y-116371777D01*
X137312906Y-116362469D01*
X137314340Y-116359260D01*
X137318158Y-116349339D01*
X137321186Y-116339178D01*
X137323425Y-116328777D01*
X137324873Y-116318135D01*
X137325531Y-116307253D01*
X137325575Y-116303572D01*
X137325180Y-116292619D01*
X137323995Y-116281923D01*
X137322020Y-116271484D01*
X137319255Y-116261303D01*
X137315701Y-116251380D01*
X137314340Y-116248129D01*
X137309861Y-116238578D01*
X137304849Y-116229525D01*
X137299305Y-116220970D01*
X137293228Y-116212913D01*
X137286619Y-116205353D01*
X137284298Y-116202944D01*
X137276914Y-116196075D01*
X137269048Y-116189755D01*
X137260702Y-116183985D01*
X137251875Y-116178764D01*
X137242567Y-116174093D01*
X137239357Y-116172658D01*
X137229437Y-116168840D01*
X137219276Y-116165812D01*
X137208875Y-116163574D01*
X137198233Y-116162125D01*
X137187351Y-116161467D01*
X137183670Y-116161423D01*
X137172734Y-116161818D01*
X137162089Y-116163003D01*
X137151736Y-116164978D01*
X137141676Y-116167743D01*
X137131907Y-116171298D01*
X137128715Y-116172658D01*
X137119396Y-116177146D01*
X137110489Y-116182184D01*
X137101994Y-116187771D01*
X137093911Y-116193907D01*
X137086240Y-116200594D01*
X137083775Y-116202944D01*
X137076656Y-116210337D01*
X137070139Y-116218229D01*
X137064223Y-116226618D01*
X137058908Y-116235505D01*
X137054194Y-116244890D01*
X137052756Y-116248129D01*
X137048938Y-116257967D01*
X137045910Y-116268062D01*
X137043671Y-116278414D01*
X137042223Y-116289025D01*
X137041565Y-116299893D01*
X137041521Y-116303572D01*
G37*
D11*
X142647618Y-105754809D02*
X142814284Y-105516714D01*
X142933332Y-105754809D02*
X142933332Y-105254809D01*
X142933332Y-105254809D02*
X142742856Y-105254809D01*
X142742856Y-105254809D02*
X142695237Y-105278619D01*
X142695237Y-105278619D02*
X142671427Y-105302428D01*
X142671427Y-105302428D02*
X142647618Y-105350047D01*
X142647618Y-105350047D02*
X142647618Y-105421476D01*
X142647618Y-105421476D02*
X142671427Y-105469095D01*
X142671427Y-105469095D02*
X142695237Y-105492904D01*
X142695237Y-105492904D02*
X142742856Y-105516714D01*
X142742856Y-105516714D02*
X142933332Y-105516714D01*
X142504760Y-105254809D02*
X142338094Y-105754809D01*
X142338094Y-105754809D02*
X142171427Y-105254809D01*
X142052380Y-105254809D02*
X141719047Y-105254809D01*
X141719047Y-105254809D02*
X141933332Y-105754809D01*
D12*
X123983333Y-125554819D02*
X123983333Y-126269104D01*
X123983333Y-126269104D02*
X124030952Y-126411961D01*
X124030952Y-126411961D02*
X124126190Y-126507200D01*
X124126190Y-126507200D02*
X124269047Y-126554819D01*
X124269047Y-126554819D02*
X124364285Y-126554819D01*
X123602380Y-125554819D02*
X122935714Y-125554819D01*
X122935714Y-125554819D02*
X123364285Y-126554819D01*
X130311904Y-88924819D02*
X130311904Y-89734342D01*
X130311904Y-89734342D02*
X130264285Y-89829580D01*
X130264285Y-89829580D02*
X130216666Y-89877200D01*
X130216666Y-89877200D02*
X130121428Y-89924819D01*
X130121428Y-89924819D02*
X129930952Y-89924819D01*
X129930952Y-89924819D02*
X129835714Y-89877200D01*
X129835714Y-89877200D02*
X129788095Y-89829580D01*
X129788095Y-89829580D02*
X129740476Y-89734342D01*
X129740476Y-89734342D02*
X129740476Y-88924819D01*
X128740476Y-89924819D02*
X129311904Y-89924819D01*
X129026190Y-89924819D02*
X129026190Y-88924819D01*
X129026190Y-88924819D02*
X129121428Y-89067676D01*
X129121428Y-89067676D02*
X129216666Y-89162914D01*
X129216666Y-89162914D02*
X129311904Y-89210533D01*
D11*
X142647618Y-87624809D02*
X142814284Y-87386714D01*
X142933332Y-87624809D02*
X142933332Y-87124809D01*
X142933332Y-87124809D02*
X142742856Y-87124809D01*
X142742856Y-87124809D02*
X142695237Y-87148619D01*
X142695237Y-87148619D02*
X142671427Y-87172428D01*
X142671427Y-87172428D02*
X142647618Y-87220047D01*
X142647618Y-87220047D02*
X142647618Y-87291476D01*
X142647618Y-87291476D02*
X142671427Y-87339095D01*
X142671427Y-87339095D02*
X142695237Y-87362904D01*
X142695237Y-87362904D02*
X142742856Y-87386714D01*
X142742856Y-87386714D02*
X142933332Y-87386714D01*
X142504760Y-87124809D02*
X142338094Y-87624809D01*
X142338094Y-87624809D02*
X142171427Y-87124809D01*
X141742856Y-87624809D02*
X142028570Y-87624809D01*
X141885713Y-87624809D02*
X141885713Y-87124809D01*
X141885713Y-87124809D02*
X141933332Y-87196238D01*
X141933332Y-87196238D02*
X141980951Y-87243857D01*
X141980951Y-87243857D02*
X142028570Y-87267666D01*
D13*
%TO.C,RV7*%
X143310000Y-115075000D02*
X143310000Y-105305000D01*
X148380000Y-115075000D02*
X143310000Y-115075000D01*
X148380000Y-115075000D02*
X148380000Y-105305000D01*
X148380000Y-105305000D02*
X143310000Y-105305000D01*
%TO.C,J7*%
X123630000Y-140050000D02*
X124630000Y-140550000D01*
X123630000Y-141050000D02*
X123630000Y-140050000D01*
X124630000Y-140550000D02*
X123630000Y-141050000D01*
X125020000Y-125180000D02*
X125020000Y-145760000D01*
X125020000Y-137520000D02*
X126330000Y-137520000D01*
X125020000Y-145760000D02*
X134140000Y-145760000D01*
X126330000Y-126480000D02*
X126330000Y-133420000D01*
X126330000Y-133420000D02*
X125020000Y-133420000D01*
X126330000Y-133420000D02*
X126330000Y-133420000D01*
X126330000Y-137520000D02*
X126330000Y-144460000D01*
X126330000Y-144460000D02*
X132830000Y-144460000D01*
X132830000Y-126480000D02*
X126330000Y-126480000D01*
X132830000Y-144460000D02*
X132830000Y-126480000D01*
X134140000Y-125180000D02*
X125020000Y-125180000D01*
X134140000Y-145760000D02*
X134140000Y-125180000D01*
%TO.C,U1*%
X134790000Y-107845000D02*
X124290000Y-107845000D01*
X134790000Y-87285000D02*
X134790000Y-107845000D01*
X131790000Y-107785000D02*
X127290000Y-107785000D01*
X131790000Y-87345000D02*
X131790000Y-107785000D01*
X130540000Y-87345000D02*
X131790000Y-87345000D01*
X127290000Y-107785000D02*
X127290000Y-87345000D01*
X127290000Y-87345000D02*
X128540000Y-87345000D01*
X124290000Y-107845000D02*
X124290000Y-87285000D01*
X124290000Y-87285000D02*
X134790000Y-87285000D01*
X128540000Y-87345000D02*
G75*
G03*
X130540000Y-87345000I1000000J0D01*
G01*
%TO.C,RV1*%
X143310000Y-96575000D02*
X143310000Y-86805000D01*
X148380000Y-96575000D02*
X143310000Y-96575000D01*
X148380000Y-96575000D02*
X148380000Y-86805000D01*
X148380000Y-86805000D02*
X143310000Y-86805000D01*
%TD*%
M02*
