M48
; DRILL file {KiCad 7.0.10} date Tuesday, February 20, 2024 at 10:03:47 PM
; FORMAT={-:-/ absolute / inch / decimal}
; #@! TF.CreationDate,2024-02-20T22:03:47-06:00
; #@! TF.GenerationSoftware,Kicad,Pcbnew,7.0.10
; #@! TF.FileFunction,Plated,1,2,PTH
FMAT,2
INCH
; #@! TA.AperFunction,Plated,PTH,ViaDrill
T1C0.0157
; #@! TA.AperFunction,Plated,PTH,ComponentDrill
T2C0.0315
; #@! TA.AperFunction,Plated,PTH,ComponentDrill
T3C0.0394
%
G90
G05
T1
X4.5472Y-4.6929
X4.5866Y-4.5551
X4.6043Y-3.5531
X4.6161Y-4.6929
X4.622Y-3.9252
X4.6555Y-4.3701
X4.685Y-4.6929
X4.6909Y-5.6555
X4.6988Y-3.4902
X4.7145Y-4.0256
X4.7283Y-3.6555
X4.7539Y-4.6929
X4.8228Y-4.6929
X4.8524Y-4.5807
X4.8661Y-4.8012
X4.8756Y-3.8913
X4.9154Y-4.3858
X4.939Y-4.574
X4.9469Y-4.6732
X5.0516Y-4.939
X5.122Y-4.5768
X5.1449Y-4.0437
X5.1477Y-4.9389
X5.1988Y-4.3858
X5.2008Y-4.8287
X5.376Y-4.5276
X5.3819Y-4.624
X5.3819Y-4.6929
X5.4055Y-4.5866
X5.4055Y-4.6575
X5.4055Y-5.0138
X5.4705Y-4.1457
X5.4724Y-3.748
X5.4724Y-3.9331
X5.5098Y-5.435
X5.5138Y-3.9921
X5.5472Y-4.372
X5.5472Y-4.5906
X5.5472Y-4.6575
X5.5472Y-4.8681
X5.5532Y-4.2382
X5.5827Y-3.5413
X5.6201Y-4.2382
X5.622Y-4.0531
X5.6319Y-3.6909
X5.6437Y-3.7933
X5.7205Y-3.9606
X5.7366Y-5.6846
X5.7421Y-4.185
X5.7421Y-4.6417
T2
X4.95Y-3.4911
X4.95Y-3.5911
X4.95Y-3.6911
X4.95Y-3.7911
X4.95Y-3.8911
X4.95Y-3.9911
X4.95Y-4.0911
X4.95Y-4.1911
X5.25Y-3.4911
X5.25Y-3.5911
X5.25Y-3.6911
X5.25Y-3.7911
X5.25Y-3.8911
X5.25Y-3.9911
X5.25Y-4.0911
X5.25Y-4.1911
X5.7421Y-3.5098
X5.7421Y-3.6098
X5.7421Y-3.7098
X5.7421Y-4.2382
X5.7421Y-4.3382
X5.7421Y-4.4382
T3
X4.4035Y-3.4626
X4.4035Y-3.5626
X4.4035Y-3.6626
X4.4035Y-3.7626
X4.4035Y-3.8626
X4.4035Y-3.9626
X4.4035Y-4.0626
X5.0516Y-5.1335
X5.0516Y-5.2335
X5.0516Y-5.3335
X5.0516Y-5.4335
X5.0516Y-5.5335
X5.1516Y-5.1335
X5.1516Y-5.2335
X5.1516Y-5.3335
X5.1516Y-5.4335
X5.1516Y-5.5335
X5.7992Y-5.0846
X5.7992Y-5.1846
X5.7992Y-5.2846
X5.7992Y-5.3846
X5.7992Y-5.4846
X5.7992Y-5.5846
X5.7992Y-5.6846
M30
