%TF.GenerationSoftware,KiCad,Pcbnew,7.0.2-0*%
%TF.CreationDate,2023-10-10T18:08:06-05:00*%
%TF.ProjectId,Untitled,556e7469-746c-4656-942e-6b696361645f,rev?*%
%TF.SameCoordinates,Original*%
%TF.FileFunction,Soldermask,Top*%
%TF.FilePolarity,Negative*%
%FSLAX46Y46*%
G04 Gerber Fmt 4.6, Leading zero omitted, Abs format (unit mm)*
G04 Created by KiCad (PCBNEW 7.0.2-0) date 2023-10-10 18:08:06*
%MOMM*%
%LPD*%
G01*
G04 APERTURE LIST*
G04 Aperture macros list*
%AMRoundRect*
0 Rectangle with rounded corners*
0 $1 Rounding radius*
0 $2 $3 $4 $5 $6 $7 $8 $9 X,Y pos of 4 corners*
0 Add a 4 corners polygon primitive as box body*
4,1,4,$2,$3,$4,$5,$6,$7,$8,$9,$2,$3,0*
0 Add four circle primitives for the rounded corners*
1,1,$1+$1,$2,$3*
1,1,$1+$1,$4,$5*
1,1,$1+$1,$6,$7*
1,1,$1+$1,$8,$9*
0 Add four rect primitives between the rounded corners*
20,1,$1+$1,$2,$3,$4,$5,0*
20,1,$1+$1,$4,$5,$6,$7,0*
20,1,$1+$1,$6,$7,$8,$9,0*
20,1,$1+$1,$8,$9,$2,$3,0*%
%AMFreePoly0*
4,1,9,3.862500,-0.866500,0.737500,-0.866500,0.737500,-0.450000,-0.737500,-0.450000,-0.737500,0.450000,0.737500,0.450000,0.737500,0.866500,3.862500,0.866500,3.862500,-0.866500,3.862500,-0.866500,$1*%
G04 Aperture macros list end*
%ADD10RoundRect,0.200000X0.200000X0.275000X-0.200000X0.275000X-0.200000X-0.275000X0.200000X-0.275000X0*%
%ADD11RoundRect,0.225000X0.225000X0.250000X-0.225000X0.250000X-0.225000X-0.250000X0.225000X-0.250000X0*%
%ADD12RoundRect,0.250000X-0.550000X1.500000X-0.550000X-1.500000X0.550000X-1.500000X0.550000X1.500000X0*%
%ADD13RoundRect,0.200000X0.275000X-0.200000X0.275000X0.200000X-0.275000X0.200000X-0.275000X-0.200000X0*%
%ADD14RoundRect,0.225000X-0.225000X-0.250000X0.225000X-0.250000X0.225000X0.250000X-0.225000X0.250000X0*%
%ADD15RoundRect,0.200000X-0.200000X-0.275000X0.200000X-0.275000X0.200000X0.275000X-0.200000X0.275000X0*%
%ADD16C,1.440000*%
%ADD17RoundRect,0.225000X0.250000X-0.225000X0.250000X0.225000X-0.250000X0.225000X-0.250000X-0.225000X0*%
%ADD18R,1.300000X0.900000*%
%ADD19FreePoly0,0.000000*%
%ADD20RoundRect,0.250000X-0.600000X-0.600000X0.600000X-0.600000X0.600000X0.600000X-0.600000X0.600000X0*%
%ADD21C,1.700000*%
%ADD22R,2.400000X1.600000*%
%ADD23O,2.400000X1.600000*%
%ADD24RoundRect,0.200000X-0.275000X0.200000X-0.275000X-0.200000X0.275000X-0.200000X0.275000X0.200000X0*%
%ADD25R,1.700000X1.700000*%
%ADD26O,1.700000X1.700000*%
%ADD27RoundRect,0.150000X-0.825000X-0.150000X0.825000X-0.150000X0.825000X0.150000X-0.825000X0.150000X0*%
G04 APERTURE END LIST*
D10*
%TO.C,R10*%
X142225000Y-96350000D03*
X140575000Y-96350000D03*
%TD*%
D11*
%TO.C,C6*%
X118475000Y-98850000D03*
X116925000Y-98850000D03*
%TD*%
D12*
%TO.C,C11*%
X120550000Y-138050000D03*
X120550000Y-143650000D03*
%TD*%
D13*
%TO.C,R22*%
X117250000Y-121950000D03*
X117250000Y-120300000D03*
%TD*%
D14*
%TO.C,C1*%
X120200000Y-88650000D03*
X121750000Y-88650000D03*
%TD*%
D10*
%TO.C,R36*%
X119875000Y-115700000D03*
X118225000Y-115700000D03*
%TD*%
D15*
%TO.C,R30*%
X134225000Y-120950000D03*
X135875000Y-120950000D03*
%TD*%
%TO.C,R27*%
X139225000Y-120950000D03*
X140875000Y-120950000D03*
%TD*%
D16*
%TO.C,RV1*%
X145850000Y-89150000D03*
X145850000Y-91690000D03*
X145850000Y-94230000D03*
%TD*%
D15*
%TO.C,R16*%
X139225000Y-113950000D03*
X140875000Y-113950000D03*
%TD*%
D17*
%TO.C,C13*%
X142140000Y-102135000D03*
X142140000Y-100585000D03*
%TD*%
D15*
%TO.C,R3*%
X137325000Y-91250000D03*
X138975000Y-91250000D03*
%TD*%
D10*
%TO.C,R9*%
X142225000Y-98850000D03*
X140575000Y-98850000D03*
%TD*%
D14*
%TO.C,C2*%
X116925000Y-96250000D03*
X118475000Y-96250000D03*
%TD*%
D10*
%TO.C,R35*%
X122425000Y-124400000D03*
X120775000Y-124400000D03*
%TD*%
D14*
%TO.C,C10*%
X134275000Y-122700000D03*
X135825000Y-122700000D03*
%TD*%
D10*
%TO.C,R8*%
X121775000Y-98850000D03*
X120125000Y-98850000D03*
%TD*%
D18*
%TO.C,U3*%
X144050000Y-100600000D03*
D19*
X144137500Y-102100000D03*
D18*
X144050000Y-103600000D03*
%TD*%
D15*
%TO.C,R6*%
X120125000Y-93750000D03*
X121775000Y-93750000D03*
%TD*%
%TO.C,R21*%
X134225000Y-113950000D03*
X135875000Y-113950000D03*
%TD*%
%TO.C,R32*%
X118225000Y-112200000D03*
X119875000Y-112200000D03*
%TD*%
D10*
%TO.C,R7*%
X121775000Y-96250000D03*
X120125000Y-96250000D03*
%TD*%
D15*
%TO.C,R5*%
X137325000Y-93750000D03*
X138975000Y-93750000D03*
%TD*%
D16*
%TO.C,RV7*%
X145850000Y-107650000D03*
X145850000Y-110190000D03*
X145850000Y-112730000D03*
%TD*%
D20*
%TO.C,J7*%
X128310000Y-140550000D03*
D21*
X130850000Y-140550000D03*
X128310000Y-138010000D03*
X130850000Y-138010000D03*
X128310000Y-135470000D03*
X130850000Y-135470000D03*
X128310000Y-132930000D03*
X130850000Y-132930000D03*
X128310000Y-130390000D03*
X130850000Y-130390000D03*
%TD*%
D22*
%TO.C,U1*%
X134625000Y-88675000D03*
D23*
X134625000Y-91215000D03*
X134625000Y-93755000D03*
X134625000Y-96295000D03*
X134625000Y-98835000D03*
X134625000Y-101375000D03*
X134625000Y-103915000D03*
X134625000Y-106455000D03*
X124465000Y-106455000D03*
X124465000Y-103915000D03*
X124465000Y-101375000D03*
X124465000Y-98835000D03*
X124465000Y-96295000D03*
X124465000Y-93755000D03*
X124465000Y-91215000D03*
X124465000Y-88675000D03*
%TD*%
D15*
%TO.C,R26*%
X134225000Y-119200000D03*
X135875000Y-119200000D03*
%TD*%
D10*
%TO.C,R24*%
X138975000Y-106450000D03*
X137325000Y-106450000D03*
%TD*%
D15*
%TO.C,R4*%
X120125000Y-91150000D03*
X121775000Y-91150000D03*
%TD*%
D13*
%TO.C,R17*%
X120750000Y-121950000D03*
X120750000Y-120300000D03*
%TD*%
D24*
%TO.C,R19*%
X122500000Y-120300000D03*
X122500000Y-121950000D03*
%TD*%
D25*
%TO.C,J11*%
X111900000Y-88000000D03*
D26*
X111900000Y-90540000D03*
X111900000Y-93080000D03*
X111900000Y-95620000D03*
X111900000Y-98160000D03*
X111900000Y-100700000D03*
X111900000Y-103240000D03*
%TD*%
D15*
%TO.C,R12*%
X137325000Y-98850000D03*
X138975000Y-98850000D03*
%TD*%
D14*
%TO.C,C9*%
X123275000Y-117450000D03*
X124825000Y-117450000D03*
%TD*%
D15*
%TO.C,R18*%
X117275000Y-124400000D03*
X118925000Y-124400000D03*
%TD*%
%TO.C,R29*%
X139225000Y-119200000D03*
X140875000Y-119200000D03*
%TD*%
D10*
%TO.C,R37*%
X124875000Y-113950000D03*
X123225000Y-113950000D03*
%TD*%
%TO.C,R13*%
X138975000Y-96350000D03*
X137325000Y-96350000D03*
%TD*%
D24*
%TO.C,R28*%
X113750000Y-120300000D03*
X113750000Y-121950000D03*
%TD*%
%TO.C,R23*%
X119000000Y-120300000D03*
X119000000Y-121950000D03*
%TD*%
D15*
%TO.C,R1*%
X137325000Y-88650000D03*
X138975000Y-88650000D03*
%TD*%
D14*
%TO.C,C8*%
X134275000Y-112200000D03*
X135825000Y-112200000D03*
%TD*%
D15*
%TO.C,R34*%
X137325000Y-103900000D03*
X138975000Y-103900000D03*
%TD*%
D24*
%TO.C,R31*%
X115500000Y-120300000D03*
X115500000Y-121950000D03*
%TD*%
D10*
%TO.C,R33*%
X119875000Y-113950000D03*
X118225000Y-113950000D03*
%TD*%
D13*
%TO.C,R11*%
X131550000Y-98325000D03*
X131550000Y-96675000D03*
%TD*%
D15*
%TO.C,R15*%
X134225000Y-115700000D03*
X135875000Y-115700000D03*
%TD*%
%TO.C,R2*%
X116875000Y-93750000D03*
X118525000Y-93750000D03*
%TD*%
D11*
%TO.C,C4*%
X142175000Y-93750000D03*
X140625000Y-93750000D03*
%TD*%
D14*
%TO.C,C5*%
X120175000Y-101350000D03*
X121725000Y-101350000D03*
%TD*%
D10*
%TO.C,R25*%
X140875000Y-122700000D03*
X139225000Y-122700000D03*
%TD*%
D25*
%TO.C,J12*%
X147200000Y-129010000D03*
D26*
X147200000Y-131550000D03*
X147200000Y-134090000D03*
X147200000Y-136630000D03*
X147200000Y-139170000D03*
X147200000Y-141710000D03*
X147200000Y-144250000D03*
%TD*%
D11*
%TO.C,C12*%
X135825000Y-117440000D03*
X134275000Y-117440000D03*
%TD*%
D27*
%TO.C,U2*%
X127075000Y-113640000D03*
X127075000Y-114910000D03*
X127075000Y-116180000D03*
X127075000Y-117450000D03*
X127075000Y-118720000D03*
X127075000Y-119990000D03*
X127075000Y-121260000D03*
X132025000Y-121260000D03*
X132025000Y-119990000D03*
X132025000Y-118720000D03*
X132025000Y-117450000D03*
X132025000Y-116180000D03*
X132025000Y-114910000D03*
X132025000Y-113640000D03*
%TD*%
D10*
%TO.C,R14*%
X140875000Y-112200000D03*
X139225000Y-112200000D03*
%TD*%
D15*
%TO.C,R20*%
X139225000Y-115700000D03*
X140875000Y-115700000D03*
%TD*%
D12*
%TO.C,C14*%
X138550000Y-138050000D03*
X138550000Y-143650000D03*
%TD*%
D11*
%TO.C,C7*%
X138925000Y-101400000D03*
X137375000Y-101400000D03*
%TD*%
D14*
%TO.C,C3*%
X116925000Y-91150000D03*
X118475000Y-91150000D03*
%TD*%
M02*
