%TF.GenerationSoftware,KiCad,Pcbnew,7.0.2-0*%
%TF.CreationDate,2023-10-10T18:08:06-05:00*%
%TF.ProjectId,Untitled,556e7469-746c-4656-942e-6b696361645f,rev?*%
%TF.SameCoordinates,Original*%
%TF.FileFunction,Copper,L1,Top*%
%TF.FilePolarity,Positive*%
%FSLAX46Y46*%
G04 Gerber Fmt 4.6, Leading zero omitted, Abs format (unit mm)*
G04 Created by KiCad (PCBNEW 7.0.2-0) date 2023-10-10 18:08:06*
%MOMM*%
%LPD*%
G01*
G04 APERTURE LIST*
G04 Aperture macros list*
%AMRoundRect*
0 Rectangle with rounded corners*
0 $1 Rounding radius*
0 $2 $3 $4 $5 $6 $7 $8 $9 X,Y pos of 4 corners*
0 Add a 4 corners polygon primitive as box body*
4,1,4,$2,$3,$4,$5,$6,$7,$8,$9,$2,$3,0*
0 Add four circle primitives for the rounded corners*
1,1,$1+$1,$2,$3*
1,1,$1+$1,$4,$5*
1,1,$1+$1,$6,$7*
1,1,$1+$1,$8,$9*
0 Add four rect primitives between the rounded corners*
20,1,$1+$1,$2,$3,$4,$5,0*
20,1,$1+$1,$4,$5,$6,$7,0*
20,1,$1+$1,$6,$7,$8,$9,0*
20,1,$1+$1,$8,$9,$2,$3,0*%
%AMFreePoly0*
4,1,9,3.862500,-0.866500,0.737500,-0.866500,0.737500,-0.450000,-0.737500,-0.450000,-0.737500,0.450000,0.737500,0.450000,0.737500,0.866500,3.862500,0.866500,3.862500,-0.866500,3.862500,-0.866500,$1*%
G04 Aperture macros list end*
%TA.AperFunction,SMDPad,CuDef*%
%ADD10RoundRect,0.200000X0.200000X0.275000X-0.200000X0.275000X-0.200000X-0.275000X0.200000X-0.275000X0*%
%TD*%
%TA.AperFunction,SMDPad,CuDef*%
%ADD11RoundRect,0.225000X0.225000X0.250000X-0.225000X0.250000X-0.225000X-0.250000X0.225000X-0.250000X0*%
%TD*%
%TA.AperFunction,SMDPad,CuDef*%
%ADD12RoundRect,0.250000X-0.550000X1.500000X-0.550000X-1.500000X0.550000X-1.500000X0.550000X1.500000X0*%
%TD*%
%TA.AperFunction,SMDPad,CuDef*%
%ADD13RoundRect,0.200000X0.275000X-0.200000X0.275000X0.200000X-0.275000X0.200000X-0.275000X-0.200000X0*%
%TD*%
%TA.AperFunction,SMDPad,CuDef*%
%ADD14RoundRect,0.225000X-0.225000X-0.250000X0.225000X-0.250000X0.225000X0.250000X-0.225000X0.250000X0*%
%TD*%
%TA.AperFunction,SMDPad,CuDef*%
%ADD15RoundRect,0.200000X-0.200000X-0.275000X0.200000X-0.275000X0.200000X0.275000X-0.200000X0.275000X0*%
%TD*%
%TA.AperFunction,ComponentPad*%
%ADD16C,1.440000*%
%TD*%
%TA.AperFunction,SMDPad,CuDef*%
%ADD17RoundRect,0.225000X0.250000X-0.225000X0.250000X0.225000X-0.250000X0.225000X-0.250000X-0.225000X0*%
%TD*%
%TA.AperFunction,SMDPad,CuDef*%
%ADD18R,1.300000X0.900000*%
%TD*%
%TA.AperFunction,SMDPad,CuDef*%
%ADD19FreePoly0,0.000000*%
%TD*%
%TA.AperFunction,ComponentPad*%
%ADD20RoundRect,0.250000X-0.600000X-0.600000X0.600000X-0.600000X0.600000X0.600000X-0.600000X0.600000X0*%
%TD*%
%TA.AperFunction,ComponentPad*%
%ADD21C,1.700000*%
%TD*%
%TA.AperFunction,ComponentPad*%
%ADD22R,2.400000X1.600000*%
%TD*%
%TA.AperFunction,ComponentPad*%
%ADD23O,2.400000X1.600000*%
%TD*%
%TA.AperFunction,SMDPad,CuDef*%
%ADD24RoundRect,0.200000X-0.275000X0.200000X-0.275000X-0.200000X0.275000X-0.200000X0.275000X0.200000X0*%
%TD*%
%TA.AperFunction,ComponentPad*%
%ADD25R,1.700000X1.700000*%
%TD*%
%TA.AperFunction,ComponentPad*%
%ADD26O,1.700000X1.700000*%
%TD*%
%TA.AperFunction,SMDPad,CuDef*%
%ADD27RoundRect,0.150000X-0.825000X-0.150000X0.825000X-0.150000X0.825000X0.150000X-0.825000X0.150000X0*%
%TD*%
%TA.AperFunction,ViaPad*%
%ADD28C,0.800000*%
%TD*%
%TA.AperFunction,Conductor*%
%ADD29C,0.300000*%
%TD*%
%TA.AperFunction,Conductor*%
%ADD30C,0.500000*%
%TD*%
G04 APERTURE END LIST*
D10*
%TO.P,R10,1*%
%TO.N,/pwm_a*%
X142225000Y-96350000D03*
%TO.P,R10,2*%
%TO.N,/PWM*%
X140575000Y-96350000D03*
%TD*%
D11*
%TO.P,C6,1*%
%TO.N,Net-(C6-Pad1)*%
X118475000Y-98850000D03*
%TO.P,C6,2*%
%TO.N,GND*%
X116925000Y-98850000D03*
%TD*%
D12*
%TO.P,C11,1*%
%TO.N,+12V*%
X120550000Y-138050000D03*
%TO.P,C11,2*%
%TO.N,GND*%
X120550000Y-143650000D03*
%TD*%
D13*
%TO.P,R22,1*%
%TO.N,+12V*%
X117250000Y-121950000D03*
%TO.P,R22,2*%
%TO.N,/fine3_a*%
X117250000Y-120300000D03*
%TD*%
D14*
%TO.P,C1,1*%
%TO.N,GND*%
X120200000Y-88650000D03*
%TO.P,C1,2*%
%TO.N,+12V*%
X121750000Y-88650000D03*
%TD*%
D10*
%TO.P,R36,1*%
%TO.N,Net-(U2A--)*%
X119875000Y-115700000D03*
%TO.P,R36,2*%
%TO.N,GND*%
X118225000Y-115700000D03*
%TD*%
D15*
%TO.P,R30,1*%
%TO.N,Net-(C10-Pad1)*%
X134225000Y-120950000D03*
%TO.P,R30,2*%
%TO.N,Net-(U2C--)*%
X135875000Y-120950000D03*
%TD*%
%TO.P,R27,1*%
%TO.N,Net-(U2C--)*%
X139225000Y-120950000D03*
%TO.P,R27,2*%
%TO.N,+12V*%
X140875000Y-120950000D03*
%TD*%
D16*
%TO.P,RV1,1,1*%
%TO.N,Net-(R1-Pad2)*%
X145850000Y-89150000D03*
%TO.P,RV1,2,2*%
%TO.N,Net-(U1-VEE)*%
X145850000Y-91690000D03*
%TO.P,RV1,3,3*%
X145850000Y-94230000D03*
%TD*%
D15*
%TO.P,R16,1*%
%TO.N,Net-(U2D--)*%
X139225000Y-113950000D03*
%TO.P,R16,2*%
%TO.N,+12V*%
X140875000Y-113950000D03*
%TD*%
D17*
%TO.P,C13,1*%
%TO.N,GND*%
X142140000Y-102135000D03*
%TO.P,C13,2*%
%TO.N,+5V*%
X142140000Y-100585000D03*
%TD*%
D15*
%TO.P,R3,1*%
%TO.N,Net-(U1-SCALE2)*%
X137325000Y-91250000D03*
%TO.P,R3,2*%
%TO.N,Net-(U1-VEE)*%
X138975000Y-91250000D03*
%TD*%
D10*
%TO.P,R9,1*%
%TO.N,+5V*%
X142225000Y-98850000D03*
%TO.P,R9,2*%
%TO.N,/PWM*%
X140575000Y-98850000D03*
%TD*%
D14*
%TO.P,C2,1*%
%TO.N,/linfm_a*%
X116925000Y-96250000D03*
%TO.P,C2,2*%
%TO.N,Net-(C2-Pad2)*%
X118475000Y-96250000D03*
%TD*%
D10*
%TO.P,R35,1*%
%TO.N,Net-(R35-Pad1)*%
X122425000Y-124400000D03*
%TO.P,R35,2*%
%TO.N,/CV_IN*%
X120775000Y-124400000D03*
%TD*%
D14*
%TO.P,C10,1*%
%TO.N,Net-(C10-Pad1)*%
X134275000Y-122700000D03*
%TO.P,C10,2*%
%TO.N,Net-(U2C--)*%
X135825000Y-122700000D03*
%TD*%
D10*
%TO.P,R8,1*%
%TO.N,/LIN_FM*%
X121775000Y-98850000D03*
%TO.P,R8,2*%
%TO.N,Net-(C6-Pad1)*%
X120125000Y-98850000D03*
%TD*%
D18*
%TO.P,U3,1,OUT*%
%TO.N,+5V*%
X144050000Y-100600000D03*
D19*
%TO.P,U3,2,GND*%
%TO.N,GND*%
X144137500Y-102100000D03*
D18*
%TO.P,U3,3,IN*%
%TO.N,+12V*%
X144050000Y-103600000D03*
%TD*%
D15*
%TO.P,R6,1*%
%TO.N,GND*%
X120125000Y-93750000D03*
%TO.P,R6,2*%
%TO.N,Net-(U1-VS)*%
X121775000Y-93750000D03*
%TD*%
%TO.P,R21,1*%
%TO.N,Net-(C8-Pad1)*%
X134225000Y-113950000D03*
%TO.P,R21,2*%
%TO.N,Net-(U2D--)*%
X135875000Y-113950000D03*
%TD*%
%TO.P,R32,1*%
%TO.N,/tri_a*%
X118225000Y-112200000D03*
%TO.P,R32,2*%
%TO.N,Net-(R32-Pad2)*%
X119875000Y-112200000D03*
%TD*%
D10*
%TO.P,R7,1*%
%TO.N,/LIN_FM*%
X121775000Y-96250000D03*
%TO.P,R7,2*%
%TO.N,+12V*%
X120125000Y-96250000D03*
%TD*%
D15*
%TO.P,R5,1*%
%TO.N,Net-(U1-VEE)*%
X137325000Y-93750000D03*
%TO.P,R5,2*%
%TO.N,-12V*%
X138975000Y-93750000D03*
%TD*%
D16*
%TO.P,RV7,1,1*%
%TO.N,GND*%
X145850000Y-107650000D03*
%TO.P,RV7,2,2*%
%TO.N,Net-(R35-Pad1)*%
X145850000Y-110190000D03*
%TO.P,RV7,3,3*%
%TO.N,Net-(R34-Pad2)*%
X145850000Y-112730000D03*
%TD*%
D20*
%TO.P,J7,1,Pin_1*%
%TO.N,-12V*%
X128310000Y-140550000D03*
D21*
%TO.P,J7,2,Pin_2*%
X130850000Y-140550000D03*
%TO.P,J7,3,Pin_3*%
%TO.N,GND*%
X128310000Y-138010000D03*
%TO.P,J7,4,Pin_4*%
X130850000Y-138010000D03*
%TO.P,J7,5,Pin_5*%
X128310000Y-135470000D03*
%TO.P,J7,6,Pin_6*%
X130850000Y-135470000D03*
%TO.P,J7,7,Pin_7*%
X128310000Y-132930000D03*
%TO.P,J7,8,Pin_8*%
X130850000Y-132930000D03*
%TO.P,J7,9,Pin_9*%
%TO.N,+12V*%
X128310000Y-130390000D03*
%TO.P,J7,10,Pin_10*%
X130850000Y-130390000D03*
%TD*%
D22*
%TO.P,U1,1,SCALE1*%
%TO.N,Net-(U1-SCALE1)*%
X134625000Y-88675000D03*
D23*
%TO.P,U1,2,SCALE2*%
%TO.N,Net-(U1-SCALE2)*%
X134625000Y-91215000D03*
%TO.P,U1,3,VEE*%
%TO.N,Net-(U1-VEE)*%
X134625000Y-93755000D03*
%TO.P,U1,4,VP*%
%TO.N,/PULSE*%
X134625000Y-96295000D03*
%TO.P,U1,5,PWM*%
%TO.N,/PWM*%
X134625000Y-98835000D03*
%TO.P,U1,6,VHSI*%
%TO.N,/HSYNC*%
X134625000Y-101375000D03*
%TO.P,U1,7,VHFT*%
%TO.N,/VHFT*%
X134625000Y-103915000D03*
%TO.P,U1,8,VSO*%
%TO.N,/SAW*%
X134625000Y-106455000D03*
%TO.P,U1,9,VSSI*%
%TO.N,unconnected-(U1-VSSI-Pad9)*%
X124465000Y-106455000D03*
%TO.P,U1,10,VTO*%
%TO.N,/TRI*%
X124465000Y-103915000D03*
%TO.P,U1,11,CAP*%
%TO.N,Net-(U1-CAP)*%
X124465000Y-101375000D03*
%TO.P,U1,12,GND*%
%TO.N,GND*%
X124465000Y-98835000D03*
%TO.P,U1,13,VLFI*%
%TO.N,/LIN_FM*%
X124465000Y-96295000D03*
%TO.P,U1,14,VS*%
%TO.N,Net-(U1-VS)*%
X124465000Y-93755000D03*
%TO.P,U1,15,VFCI*%
%TO.N,/CV_IN*%
X124465000Y-91215000D03*
%TO.P,U1,16,VCC*%
%TO.N,+12V*%
X124465000Y-88675000D03*
%TD*%
D15*
%TO.P,R26,1*%
%TO.N,Net-(U2C-+)*%
X134225000Y-119200000D03*
%TO.P,R26,2*%
%TO.N,GND*%
X135875000Y-119200000D03*
%TD*%
D10*
%TO.P,R24,1*%
%TO.N,Net-(U2C-+)*%
X138975000Y-106450000D03*
%TO.P,R24,2*%
%TO.N,/SAW*%
X137325000Y-106450000D03*
%TD*%
D15*
%TO.P,R4,1*%
%TO.N,Net-(C3-Pad2)*%
X120125000Y-91150000D03*
%TO.P,R4,2*%
%TO.N,/CV_IN*%
X121775000Y-91150000D03*
%TD*%
D13*
%TO.P,R17,1*%
%TO.N,+12V*%
X120750000Y-121950000D03*
%TO.P,R17,2*%
%TO.N,/coarse3_a*%
X120750000Y-120300000D03*
%TD*%
D24*
%TO.P,R19,1*%
%TO.N,/coarse2_a*%
X122500000Y-120300000D03*
%TO.P,R19,2*%
%TO.N,/CV_IN*%
X122500000Y-121950000D03*
%TD*%
D25*
%TO.P,J11,1,Pin_1*%
%TO.N,/coarse2_a*%
X111900000Y-88000000D03*
D26*
%TO.P,J11,2,Pin_2*%
%TO.N,/coarse3_a*%
X111900000Y-90540000D03*
%TO.P,J11,3,Pin_3*%
%TO.N,/fine2_a*%
X111900000Y-93080000D03*
%TO.P,J11,4,Pin_4*%
%TO.N,/fine3_a*%
X111900000Y-95620000D03*
%TO.P,J11,5,Pin_5*%
%TO.N,/linfm_a*%
X111900000Y-98160000D03*
%TO.P,J11,6,Pin_6*%
%TO.N,/cvmod_a*%
X111900000Y-100700000D03*
%TO.P,J11,7,Pin_7*%
%TO.N,/voct_a*%
X111900000Y-103240000D03*
%TD*%
D15*
%TO.P,R12,1*%
%TO.N,/PWM*%
X137325000Y-98850000D03*
%TO.P,R12,2*%
%TO.N,GND*%
X138975000Y-98850000D03*
%TD*%
D14*
%TO.P,C9,1*%
%TO.N,GND*%
X123275000Y-117450000D03*
%TO.P,C9,2*%
%TO.N,+12V*%
X124825000Y-117450000D03*
%TD*%
D15*
%TO.P,R18,1*%
%TO.N,/CV_IN*%
X117275000Y-124400000D03*
%TO.P,R18,2*%
%TO.N,+12V*%
X118925000Y-124400000D03*
%TD*%
%TO.P,R29,1*%
%TO.N,Net-(U2C--)*%
X139225000Y-119200000D03*
%TO.P,R29,2*%
%TO.N,GND*%
X140875000Y-119200000D03*
%TD*%
D10*
%TO.P,R37,1*%
%TO.N,Net-(R32-Pad2)*%
X124875000Y-113950000D03*
%TO.P,R37,2*%
%TO.N,Net-(U2A--)*%
X123225000Y-113950000D03*
%TD*%
%TO.P,R13,1*%
%TO.N,Net-(U2D-+)*%
X138975000Y-96350000D03*
%TO.P,R13,2*%
%TO.N,/PULSE*%
X137325000Y-96350000D03*
%TD*%
D24*
%TO.P,R28,1*%
%TO.N,/voct_a*%
X113750000Y-120300000D03*
%TO.P,R28,2*%
%TO.N,/CV_IN*%
X113750000Y-121950000D03*
%TD*%
%TO.P,R23,1*%
%TO.N,/fine2_a*%
X119000000Y-120300000D03*
%TO.P,R23,2*%
%TO.N,/CV_IN*%
X119000000Y-121950000D03*
%TD*%
D15*
%TO.P,R1,1*%
%TO.N,Net-(U1-SCALE1)*%
X137325000Y-88650000D03*
%TO.P,R1,2*%
%TO.N,Net-(R1-Pad2)*%
X138975000Y-88650000D03*
%TD*%
D14*
%TO.P,C8,1*%
%TO.N,Net-(C8-Pad1)*%
X134275000Y-112200000D03*
%TO.P,C8,2*%
%TO.N,Net-(U2D--)*%
X135825000Y-112200000D03*
%TD*%
D15*
%TO.P,R34,1*%
%TO.N,/VHFT*%
X137325000Y-103900000D03*
%TO.P,R34,2*%
%TO.N,Net-(R34-Pad2)*%
X138975000Y-103900000D03*
%TD*%
D24*
%TO.P,R31,1*%
%TO.N,/cvmod_a*%
X115500000Y-120300000D03*
%TO.P,R31,2*%
%TO.N,/CV_IN*%
X115500000Y-121950000D03*
%TD*%
D10*
%TO.P,R33,1*%
%TO.N,Net-(U2A--)*%
X119875000Y-113950000D03*
%TO.P,R33,2*%
%TO.N,+12V*%
X118225000Y-113950000D03*
%TD*%
D13*
%TO.P,R11,1*%
%TO.N,/PWM*%
X131550000Y-98325000D03*
%TO.P,R11,2*%
%TO.N,/PULSE*%
X131550000Y-96675000D03*
%TD*%
D15*
%TO.P,R15,1*%
%TO.N,Net-(U2D-+)*%
X134225000Y-115700000D03*
%TO.P,R15,2*%
%TO.N,GND*%
X135875000Y-115700000D03*
%TD*%
%TO.P,R2,1*%
%TO.N,Net-(C2-Pad2)*%
X116875000Y-93750000D03*
%TO.P,R2,2*%
%TO.N,/LIN_FM*%
X118525000Y-93750000D03*
%TD*%
D11*
%TO.P,C4,1*%
%TO.N,GND*%
X142175000Y-93750000D03*
%TO.P,C4,2*%
%TO.N,-12V*%
X140625000Y-93750000D03*
%TD*%
D14*
%TO.P,C5,1*%
%TO.N,GND*%
X120175000Y-101350000D03*
%TO.P,C5,2*%
%TO.N,Net-(U1-CAP)*%
X121725000Y-101350000D03*
%TD*%
D10*
%TO.P,R25,1*%
%TO.N,/saw_a*%
X140875000Y-122700000D03*
%TO.P,R25,2*%
%TO.N,Net-(C10-Pad1)*%
X139225000Y-122700000D03*
%TD*%
D25*
%TO.P,J12,1,Pin_1*%
%TO.N,+5V*%
X147200000Y-129010000D03*
D26*
%TO.P,J12,2,Pin_2*%
%TO.N,/pwm_a*%
X147200000Y-131550000D03*
%TO.P,J12,3,Pin_3*%
%TO.N,/sync_a*%
X147200000Y-134090000D03*
%TO.P,J12,4,Pin_4*%
%TO.N,/pulse_a*%
X147200000Y-136630000D03*
%TO.P,J12,5,Pin_5*%
%TO.N,/saw_a*%
X147200000Y-139170000D03*
%TO.P,J12,6,Pin_6*%
%TO.N,/tri_a*%
X147200000Y-141710000D03*
%TO.P,J12,7,Pin_7*%
%TO.N,GND*%
X147200000Y-144250000D03*
%TD*%
D11*
%TO.P,C12,1*%
%TO.N,GND*%
X135825000Y-117440000D03*
%TO.P,C12,2*%
%TO.N,-12V*%
X134275000Y-117440000D03*
%TD*%
D27*
%TO.P,U2,1*%
%TO.N,Net-(R32-Pad2)*%
X127075000Y-113640000D03*
%TO.P,U2,2,-*%
%TO.N,Net-(U2A--)*%
X127075000Y-114910000D03*
%TO.P,U2,3,+*%
%TO.N,/TRI*%
X127075000Y-116180000D03*
%TO.P,U2,4,V+*%
%TO.N,+12V*%
X127075000Y-117450000D03*
%TO.P,U2,5,+*%
%TO.N,GND*%
X127075000Y-118720000D03*
%TO.P,U2,6,-*%
%TO.N,Net-(U2B--)*%
X127075000Y-119990000D03*
%TO.P,U2,7*%
X127075000Y-121260000D03*
%TO.P,U2,8*%
%TO.N,Net-(C10-Pad1)*%
X132025000Y-121260000D03*
%TO.P,U2,9,-*%
%TO.N,Net-(U2C--)*%
X132025000Y-119990000D03*
%TO.P,U2,10,+*%
%TO.N,Net-(U2C-+)*%
X132025000Y-118720000D03*
%TO.P,U2,11,V-*%
%TO.N,-12V*%
X132025000Y-117450000D03*
%TO.P,U2,12,+*%
%TO.N,Net-(U2D-+)*%
X132025000Y-116180000D03*
%TO.P,U2,13,-*%
%TO.N,Net-(U2D--)*%
X132025000Y-114910000D03*
%TO.P,U2,14*%
%TO.N,Net-(C8-Pad1)*%
X132025000Y-113640000D03*
%TD*%
D10*
%TO.P,R14,1*%
%TO.N,/pulse_a*%
X140875000Y-112200000D03*
%TO.P,R14,2*%
%TO.N,Net-(C8-Pad1)*%
X139225000Y-112200000D03*
%TD*%
D15*
%TO.P,R20,1*%
%TO.N,Net-(U2D--)*%
X139225000Y-115700000D03*
%TO.P,R20,2*%
%TO.N,GND*%
X140875000Y-115700000D03*
%TD*%
D12*
%TO.P,C14,1*%
%TO.N,GND*%
X138550000Y-138050000D03*
%TO.P,C14,2*%
%TO.N,-12V*%
X138550000Y-143650000D03*
%TD*%
D11*
%TO.P,C7,1*%
%TO.N,/sync_a*%
X138925000Y-101400000D03*
%TO.P,C7,2*%
%TO.N,/HSYNC*%
X137375000Y-101400000D03*
%TD*%
D14*
%TO.P,C3,1*%
%TO.N,GND*%
X116925000Y-91150000D03*
%TO.P,C3,2*%
%TO.N,Net-(C3-Pad2)*%
X118475000Y-91150000D03*
%TD*%
D28*
%TO.N,GND*%
X136700000Y-117450000D03*
X136550000Y-115000000D03*
X123250000Y-116350000D03*
X132100000Y-122650000D03*
X124850000Y-111400000D03*
X130100000Y-116250000D03*
X139950000Y-138050000D03*
X145850000Y-106300000D03*
X146100000Y-103400000D03*
X120100000Y-92850000D03*
X116500500Y-115700000D03*
X140900000Y-116600000D03*
X141800000Y-89950000D03*
X117400000Y-99700000D03*
X116950000Y-90250000D03*
X119150000Y-143650000D03*
X145400000Y-144250000D03*
X143050000Y-93750000D03*
X119749500Y-102250000D03*
X125650000Y-118700000D03*
X136700000Y-119200000D03*
X119350000Y-88650000D03*
X139000000Y-99900000D03*
X137300000Y-127350000D03*
X142800000Y-102950000D03*
X127150000Y-91000000D03*
X132050000Y-111400000D03*
X126300000Y-98800000D03*
X145850000Y-117900000D03*
X140900000Y-118300000D03*
%TO.N,+5V*%
X145300000Y-100600000D03*
%TO.N,/sync_a*%
X140050000Y-101400000D03*
%TO.N,/CV_IN*%
X123600000Y-121950000D03*
%TO.N,Net-(U2C-+)*%
X137300000Y-118300000D03*
X138950000Y-105300000D03*
%TO.N,Net-(U2D-+)*%
X137300000Y-116500000D03*
X139000000Y-95200000D03*
%TO.N,Net-(R34-Pad2)*%
X142749500Y-107650000D03*
X141050500Y-107650000D03*
%TO.N,Net-(R35-Pad1)*%
X130750688Y-125449312D03*
X128310500Y-125450000D03*
%TO.N,/TRI*%
X125450000Y-116180000D03*
%TO.N,/pwm_a*%
X143350000Y-96350000D03*
%TO.N,/pulse_a*%
X140900000Y-111050000D03*
%TO.N,/coarse3_a*%
X120750000Y-119200000D03*
%TO.N,/coarse2_a*%
X122500000Y-119200000D03*
%TO.N,/fine3_a*%
X117250000Y-119200000D03*
%TO.N,/fine2_a*%
X119000000Y-119200000D03*
%TO.N,/saw_a*%
X140900000Y-123650500D03*
%TO.N,/cvmod_a*%
X115500000Y-119200000D03*
%TO.N,/tri_a*%
X118250000Y-111000000D03*
%TD*%
D29*
%TO.N,Net-(C8-Pad1)*%
X134275000Y-113900000D02*
X134225000Y-113950000D01*
X135100000Y-111375000D02*
X134275000Y-112200000D01*
X139225000Y-112200000D02*
X138400000Y-111375000D01*
X133915000Y-113640000D02*
X134225000Y-113950000D01*
X132025000Y-113640000D02*
X133915000Y-113640000D01*
%TO.N,Net-(U2C--)*%
X132135000Y-120100000D02*
X135025000Y-120100000D01*
X139225000Y-120950000D02*
X135875000Y-120950000D01*
X135025000Y-120100000D02*
X135875000Y-120950000D01*
X132025000Y-119990000D02*
X132135000Y-120100000D01*
X135825000Y-121000000D02*
X135875000Y-120950000D01*
X139225000Y-119200000D02*
X139225000Y-120950000D01*
%TO.N,/VHFT*%
X137325000Y-103900000D02*
X134640000Y-103900000D01*
X134640000Y-103900000D02*
X134625000Y-103915000D01*
%TO.N,Net-(R34-Pad2)*%
X142749500Y-107650000D02*
X142749500Y-110249500D01*
X139300000Y-103900000D02*
X138975000Y-103900000D01*
X141050500Y-107650000D02*
X141050500Y-105650500D01*
X142749500Y-110249500D02*
X145230000Y-112730000D01*
X141050500Y-105650500D02*
X139300000Y-103900000D01*
X145230000Y-112730000D02*
X145850000Y-112730000D01*
%TO.N,Net-(R35-Pad1)*%
X147300000Y-111000000D02*
X146490000Y-110190000D01*
X130750688Y-125449312D02*
X142600688Y-125449312D01*
X146490000Y-110190000D02*
X145850000Y-110190000D01*
X147300000Y-120750000D02*
X147300000Y-111000000D01*
X127260500Y-124400000D02*
X128310500Y-125450000D01*
X122425000Y-124400000D02*
X127260500Y-124400000D01*
X142600688Y-125449312D02*
X147300000Y-120750000D01*
%TO.N,/TRI*%
X125450000Y-116180000D02*
X127075000Y-116180000D01*
%TO.N,/pwm_a*%
X143350000Y-96350000D02*
X142225000Y-96350000D01*
%TO.N,/pulse_a*%
X140900000Y-111050000D02*
X140900000Y-112175000D01*
X140900000Y-112175000D02*
X140875000Y-112200000D01*
%TO.N,/coarse3_a*%
X120750000Y-120300000D02*
X120750000Y-119200000D01*
%TO.N,/coarse2_a*%
X122500000Y-120300000D02*
X122500000Y-119200000D01*
%TO.N,/fine3_a*%
X117250000Y-120300000D02*
X117250000Y-119200000D01*
%TO.N,/fine2_a*%
X119000000Y-120300000D02*
X119000000Y-119200000D01*
%TO.N,/saw_a*%
X140900000Y-123650500D02*
X140900000Y-122725000D01*
X140900000Y-122725000D02*
X140875000Y-122700000D01*
%TO.N,/voct_a*%
X113750000Y-120300000D02*
X113750000Y-105090000D01*
X113750000Y-105090000D02*
X111900000Y-103240000D01*
%TO.N,/cvmod_a*%
X115500000Y-120300000D02*
X115500000Y-119200000D01*
%TO.N,/tri_a*%
X118250000Y-111000000D02*
X118250000Y-112175000D01*
X118250000Y-112175000D02*
X118225000Y-112200000D01*
D30*
%TO.N,Net-(U2B--)*%
X127075000Y-119990000D02*
X127075000Y-121260000D01*
%TO.N,GND*%
X118225000Y-115700000D02*
X116500500Y-115700000D01*
X116925000Y-99225000D02*
X117400000Y-99700000D01*
X120175000Y-101350000D02*
X120175000Y-101824500D01*
X116925000Y-90275000D02*
X116950000Y-90250000D01*
X146100000Y-102700000D02*
X146100000Y-103400000D01*
X120550000Y-143650000D02*
X119150000Y-143650000D01*
X116925000Y-98850000D02*
X116925000Y-99225000D01*
X135875000Y-115700000D02*
X135875000Y-115675000D01*
X120175000Y-101824500D02*
X119749500Y-102250000D01*
X142140000Y-102290000D02*
X142800000Y-102950000D01*
X140875000Y-116575000D02*
X140900000Y-116600000D01*
X123275000Y-116375000D02*
X123250000Y-116350000D01*
X138550000Y-138050000D02*
X139950000Y-138050000D01*
X123275000Y-117450000D02*
X123275000Y-116375000D01*
X127075000Y-118720000D02*
X125670000Y-118720000D01*
X142175000Y-93750000D02*
X143050000Y-93750000D01*
X140875000Y-118325000D02*
X140900000Y-118300000D01*
X147200000Y-144250000D02*
X145400000Y-144250000D01*
X135875000Y-119200000D02*
X136700000Y-119200000D01*
X135875000Y-115675000D02*
X136550000Y-115000000D01*
X138975000Y-99875000D02*
X139000000Y-99900000D01*
X135825000Y-117440000D02*
X136690000Y-117440000D01*
X145850000Y-107650000D02*
X145850000Y-106300000D01*
X126265000Y-98835000D02*
X126300000Y-98800000D01*
X120125000Y-93750000D02*
X120125000Y-92875000D01*
X120125000Y-92875000D02*
X120100000Y-92850000D01*
X145500000Y-102100000D02*
X146100000Y-102700000D01*
X120200000Y-88650000D02*
X119350000Y-88650000D01*
X116925000Y-91150000D02*
X116925000Y-90275000D01*
X124465000Y-98835000D02*
X126265000Y-98835000D01*
X144137500Y-102100000D02*
X145500000Y-102100000D01*
X140875000Y-115700000D02*
X140875000Y-116575000D01*
X125670000Y-118720000D02*
X125650000Y-118700000D01*
X140875000Y-119200000D02*
X140875000Y-118325000D01*
X142140000Y-102135000D02*
X142140000Y-102290000D01*
X136690000Y-117440000D02*
X136700000Y-117450000D01*
X138975000Y-98850000D02*
X138975000Y-99875000D01*
%TO.N,+12V*%
X141900000Y-112925000D02*
X141900000Y-119925000D01*
X129160000Y-109950000D02*
X129160000Y-90510000D01*
X127075000Y-117450000D02*
X124825000Y-117450000D01*
X121775000Y-88675000D02*
X121750000Y-88650000D01*
X115800000Y-108700000D02*
X115800000Y-111525000D01*
X119250000Y-97550000D02*
X116400000Y-97550000D01*
X115800000Y-108700000D02*
X115800000Y-109950000D01*
X127075000Y-117450000D02*
X129160000Y-117450000D01*
X122150000Y-123350000D02*
X118650000Y-123350000D01*
X115800000Y-111525000D02*
X118225000Y-113950000D01*
X141900000Y-113950000D02*
X140875000Y-113950000D01*
X141900000Y-109950000D02*
X141900000Y-112925000D01*
X116400000Y-97550000D02*
X115800000Y-98150000D01*
X141900000Y-109950000D02*
X141900000Y-105750000D01*
X115800000Y-98150000D02*
X115800000Y-108700000D01*
X118925000Y-124400000D02*
X118925000Y-123350000D01*
X141900000Y-105750000D02*
X144050000Y-103600000D01*
X120125000Y-96250000D02*
X120125000Y-96675000D01*
X129160000Y-124650000D02*
X129160000Y-123350000D01*
X127325000Y-88675000D02*
X124465000Y-88675000D01*
X130850000Y-130390000D02*
X128310000Y-130390000D01*
X129160000Y-123350000D02*
X129160000Y-117450000D01*
X129160000Y-109950000D02*
X133700000Y-109950000D01*
X120750000Y-123350000D02*
X120750000Y-121950000D01*
X117250000Y-122550000D02*
X117250000Y-121950000D01*
X118650000Y-123350000D02*
X118050000Y-123350000D01*
X120550000Y-138050000D02*
X120650000Y-138050000D01*
X133700000Y-109950000D02*
X141900000Y-109950000D01*
X129160000Y-123350000D02*
X122150000Y-123350000D01*
X129160000Y-90510000D02*
X127325000Y-88675000D01*
X120650000Y-138050000D02*
X128310000Y-130390000D01*
X118925000Y-123350000D02*
X118650000Y-123350000D01*
X128310000Y-130390000D02*
X129160000Y-129540000D01*
X141900000Y-112925000D02*
X141900000Y-113950000D01*
X115800000Y-109950000D02*
X129160000Y-109950000D01*
X122150000Y-123350000D02*
X120750000Y-123350000D01*
X129160000Y-117450000D02*
X129160000Y-109950000D01*
X141900000Y-119925000D02*
X140875000Y-120950000D01*
X118050000Y-123350000D02*
X117250000Y-122550000D01*
X120125000Y-96675000D02*
X119250000Y-97550000D01*
X129160000Y-129540000D02*
X129160000Y-124650000D01*
X124465000Y-88675000D02*
X121775000Y-88675000D01*
D29*
%TO.N,Net-(C2-Pad2)*%
X116875000Y-94175000D02*
X116875000Y-93750000D01*
X118475000Y-95775000D02*
X116875000Y-94175000D01*
X118475000Y-96250000D02*
X118475000Y-95775000D01*
%TO.N,Net-(C3-Pad2)*%
X120125000Y-91150000D02*
X118475000Y-91150000D01*
D30*
%TO.N,-12V*%
X139750000Y-129850000D02*
X133950000Y-129850000D01*
X131471472Y-117450000D02*
X132025000Y-117450000D01*
X148500000Y-99950000D02*
X148500000Y-121100000D01*
X138550000Y-143650000D02*
X135450000Y-140550000D01*
X129900000Y-125800000D02*
X133950000Y-129850000D01*
X138975000Y-93750000D02*
X140625000Y-93750000D01*
X129900000Y-119021472D02*
X131471472Y-117450000D01*
X129900000Y-125800000D02*
X129900000Y-119021472D01*
X143600000Y-95050000D02*
X148500000Y-99950000D01*
X132025000Y-117450000D02*
X134265000Y-117450000D01*
X141925000Y-95050000D02*
X143600000Y-95050000D01*
X133950000Y-140550000D02*
X130850000Y-140550000D01*
X140625000Y-93750000D02*
X141925000Y-95050000D01*
X148500000Y-121100000D02*
X139750000Y-129850000D01*
X133950000Y-129850000D02*
X133950000Y-140550000D01*
X128310000Y-140550000D02*
X130850000Y-140550000D01*
X135450000Y-140550000D02*
X133950000Y-140550000D01*
D29*
%TO.N,Net-(U1-CAP)*%
X121750000Y-101375000D02*
X121725000Y-101350000D01*
X124465000Y-101375000D02*
X121750000Y-101375000D01*
%TO.N,Net-(C6-Pad1)*%
X118475000Y-98850000D02*
X120125000Y-98850000D01*
%TO.N,/linfm_a*%
X113810000Y-96250000D02*
X111900000Y-98160000D01*
X116925000Y-96250000D02*
X113810000Y-96250000D01*
%TO.N,Net-(U2D--)*%
X139225000Y-115700000D02*
X139225000Y-113950000D01*
X135875000Y-112250000D02*
X135825000Y-112200000D01*
X135025000Y-114800000D02*
X135875000Y-113950000D01*
X132025000Y-114910000D02*
X132135000Y-114800000D01*
X135875000Y-113950000D02*
X139225000Y-113950000D01*
X132135000Y-114800000D02*
X135025000Y-114800000D01*
X135875000Y-113950000D02*
X135875000Y-112250000D01*
%TO.N,Net-(C8-Pad1)*%
X138400000Y-111375000D02*
X135100000Y-111375000D01*
X134275000Y-112200000D02*
X134275000Y-113900000D01*
%TO.N,/HSYNC*%
X137375000Y-101400000D02*
X134650000Y-101400000D01*
X134650000Y-101400000D02*
X134625000Y-101375000D01*
%TO.N,Net-(C10-Pad1)*%
X132025000Y-121260000D02*
X133915000Y-121260000D01*
X134750000Y-123600000D02*
X138325000Y-123600000D01*
X134225000Y-120950000D02*
X134225000Y-122650000D01*
X134225000Y-122650000D02*
X134275000Y-122700000D01*
X134275000Y-123125000D02*
X134750000Y-123600000D01*
X133915000Y-121260000D02*
X134225000Y-120950000D01*
X138325000Y-123600000D02*
X139225000Y-122700000D01*
X134275000Y-122700000D02*
X134275000Y-123125000D01*
%TO.N,Net-(U2A--)*%
X119875000Y-113950000D02*
X119875000Y-115700000D01*
X127075000Y-114910000D02*
X124185000Y-114910000D01*
X123225000Y-113950000D02*
X119875000Y-113950000D01*
X124185000Y-114910000D02*
X123225000Y-113950000D01*
D30*
%TO.N,+5V*%
X144035000Y-100585000D02*
X144050000Y-100600000D01*
X145300000Y-100600000D02*
X144050000Y-100600000D01*
X142140000Y-100585000D02*
X142140000Y-98935000D01*
X142140000Y-98935000D02*
X142225000Y-98850000D01*
X142140000Y-100585000D02*
X144035000Y-100585000D01*
D29*
%TO.N,/sync_a*%
X140050000Y-101400000D02*
X138925000Y-101400000D01*
%TO.N,Net-(U1-SCALE1)*%
X137300000Y-88675000D02*
X137325000Y-88650000D01*
X134625000Y-88675000D02*
X137300000Y-88675000D01*
%TO.N,Net-(R1-Pad2)*%
X145350000Y-88650000D02*
X145850000Y-89150000D01*
X138975000Y-88650000D02*
X145350000Y-88650000D01*
%TO.N,Net-(U1-SCALE2)*%
X137290000Y-91215000D02*
X137325000Y-91250000D01*
X134625000Y-91215000D02*
X137290000Y-91215000D01*
%TO.N,Net-(U1-VEE)*%
X145410000Y-91250000D02*
X145850000Y-91690000D01*
X134630000Y-93750000D02*
X134625000Y-93755000D01*
X137325000Y-93750000D02*
X134630000Y-93750000D01*
X138975000Y-91250000D02*
X138975000Y-91675000D01*
X138975000Y-91250000D02*
X145410000Y-91250000D01*
X137325000Y-93325000D02*
X137325000Y-93750000D01*
X138975000Y-91675000D02*
X137325000Y-93325000D01*
X145850000Y-91690000D02*
X145850000Y-94230000D01*
%TO.N,/CV_IN*%
X121840000Y-91215000D02*
X121775000Y-91150000D01*
X119875000Y-125300000D02*
X120775000Y-124400000D01*
X117300000Y-125300000D02*
X119875000Y-125300000D01*
X122500000Y-121950000D02*
X123600000Y-121950000D01*
X115650000Y-125300000D02*
X117300000Y-125300000D01*
X116250000Y-121200000D02*
X119000000Y-121200000D01*
X117275000Y-125275000D02*
X117300000Y-125300000D01*
X124465000Y-91215000D02*
X121840000Y-91215000D01*
X113750000Y-123400000D02*
X113750000Y-121950000D01*
X116250000Y-121200000D02*
X115500000Y-121950000D01*
X115650000Y-125300000D02*
X113750000Y-123400000D01*
X117275000Y-124400000D02*
X117275000Y-125275000D01*
X115500000Y-121950000D02*
X113750000Y-121950000D01*
X119000000Y-121200000D02*
X121750000Y-121200000D01*
X121750000Y-121200000D02*
X122500000Y-121950000D01*
X119000000Y-121200000D02*
X119000000Y-121950000D01*
%TO.N,Net-(U1-VS)*%
X124465000Y-93755000D02*
X121780000Y-93755000D01*
X121780000Y-93755000D02*
X121775000Y-93750000D01*
%TO.N,/LIN_FM*%
X124465000Y-96295000D02*
X121820000Y-96295000D01*
X121775000Y-96250000D02*
X121775000Y-98850000D01*
X120525000Y-95000000D02*
X121775000Y-96250000D01*
X119775000Y-95000000D02*
X120525000Y-95000000D01*
X121820000Y-96295000D02*
X121775000Y-96250000D01*
X118525000Y-93750000D02*
X119775000Y-95000000D01*
%TO.N,/PWM*%
X140575000Y-97600000D02*
X138575000Y-97600000D01*
X137325000Y-98850000D02*
X134640000Y-98850000D01*
X134625000Y-98835000D02*
X132060000Y-98835000D01*
X132060000Y-98835000D02*
X131550000Y-98325000D01*
X138575000Y-97600000D02*
X137325000Y-98850000D01*
X134640000Y-98850000D02*
X134625000Y-98835000D01*
X140575000Y-98850000D02*
X140575000Y-96350000D01*
X140575000Y-98850000D02*
X140575000Y-97600000D01*
%TO.N,/PULSE*%
X131930000Y-96295000D02*
X131550000Y-96675000D01*
X134680000Y-96350000D02*
X134625000Y-96295000D01*
X137325000Y-96350000D02*
X134680000Y-96350000D01*
X134625000Y-96295000D02*
X131930000Y-96295000D01*
%TO.N,Net-(U2C-+)*%
X133700000Y-119200000D02*
X134225000Y-119200000D01*
X133220000Y-118720000D02*
X133700000Y-119200000D01*
X135125000Y-118300000D02*
X134225000Y-119200000D01*
X137300000Y-118300000D02*
X135125000Y-118300000D01*
X132025000Y-118720000D02*
X133220000Y-118720000D01*
X138950000Y-105300000D02*
X138950000Y-106425000D01*
X138950000Y-106425000D02*
X138975000Y-106450000D01*
%TO.N,Net-(U2D-+)*%
X138975000Y-96350000D02*
X138975000Y-95225000D01*
X137300000Y-116500000D02*
X137250000Y-116550000D01*
X137250000Y-116550000D02*
X135075000Y-116550000D01*
X138975000Y-95225000D02*
X139000000Y-95200000D01*
X133220000Y-116180000D02*
X133700000Y-115700000D01*
X132025000Y-116180000D02*
X133220000Y-116180000D01*
X133700000Y-115700000D02*
X134225000Y-115700000D01*
X135075000Y-116550000D02*
X134225000Y-115700000D01*
%TO.N,/SAW*%
X134630000Y-106450000D02*
X134625000Y-106455000D01*
X137325000Y-106450000D02*
X134630000Y-106450000D01*
%TO.N,Net-(R32-Pad2)*%
X125185000Y-113640000D02*
X124875000Y-113950000D01*
X123125000Y-112200000D02*
X119875000Y-112200000D01*
X127075000Y-113640000D02*
X125185000Y-113640000D01*
X124875000Y-113950000D02*
X123125000Y-112200000D01*
%TO.N,Net-(U2C--)*%
X135825000Y-122700000D02*
X135825000Y-121000000D01*
%TD*%
%TA.AperFunction,Conductor*%
%TO.N,GND*%
G36*
X148992539Y-86170185D02*
G01*
X149038294Y-86222989D01*
X149049500Y-86274500D01*
X149049500Y-99138770D01*
X149029815Y-99205809D01*
X148977011Y-99251564D01*
X148907853Y-99261508D01*
X148844297Y-99232483D01*
X148837819Y-99226451D01*
X145106924Y-95495556D01*
X145073439Y-95434233D01*
X145078423Y-95364541D01*
X145120295Y-95308608D01*
X145185759Y-95284191D01*
X145247008Y-95295492D01*
X145430970Y-95381276D01*
X145637253Y-95436549D01*
X145773750Y-95448491D01*
X145849999Y-95455162D01*
X145849999Y-95455161D01*
X145850000Y-95455162D01*
X146062747Y-95436549D01*
X146269030Y-95381276D01*
X146462581Y-95291021D01*
X146637519Y-95168529D01*
X146788529Y-95017519D01*
X146911021Y-94842581D01*
X147001276Y-94649030D01*
X147056549Y-94442747D01*
X147075162Y-94230000D01*
X147074900Y-94227011D01*
X147056549Y-94017255D01*
X147056549Y-94017253D01*
X147001276Y-93810970D01*
X146911021Y-93617419D01*
X146859377Y-93543663D01*
X146788531Y-93442483D01*
X146761623Y-93415575D01*
X146637519Y-93291471D01*
X146637515Y-93291468D01*
X146553376Y-93232552D01*
X146509751Y-93177975D01*
X146500500Y-93130978D01*
X146500500Y-92789020D01*
X146520185Y-92721981D01*
X146553375Y-92687446D01*
X146637519Y-92628529D01*
X146788529Y-92477519D01*
X146911021Y-92302581D01*
X147001276Y-92109030D01*
X147056549Y-91902747D01*
X147075162Y-91690000D01*
X147056549Y-91477253D01*
X147001276Y-91270970D01*
X146911021Y-91077419D01*
X146859377Y-91003662D01*
X146788528Y-90902479D01*
X146637520Y-90751471D01*
X146462582Y-90628979D01*
X146259198Y-90534139D01*
X146260195Y-90531999D01*
X146213294Y-90503413D01*
X146182762Y-90440567D01*
X146191055Y-90371191D01*
X146235539Y-90317312D01*
X146259446Y-90306393D01*
X146259198Y-90305861D01*
X146404731Y-90237997D01*
X146462581Y-90211021D01*
X146637519Y-90088529D01*
X146788529Y-89937519D01*
X146911021Y-89762581D01*
X147001276Y-89569030D01*
X147056549Y-89362747D01*
X147075162Y-89150000D01*
X147056549Y-88937253D01*
X147001276Y-88730970D01*
X146911021Y-88537419D01*
X146788529Y-88362481D01*
X146788528Y-88362479D01*
X146637520Y-88211471D01*
X146462582Y-88088979D01*
X146269031Y-87998724D01*
X146062744Y-87943450D01*
X145849999Y-87924837D01*
X145637253Y-87943450D01*
X145443841Y-87995275D01*
X145411748Y-87999500D01*
X145410955Y-87999500D01*
X145391556Y-87997973D01*
X145370596Y-87994653D01*
X145370595Y-87994653D01*
X145348558Y-87996736D01*
X145325139Y-87998950D01*
X145313470Y-87999500D01*
X139836489Y-87999500D01*
X139769450Y-87979815D01*
X139732704Y-87942046D01*
X139610186Y-87819528D01*
X139476071Y-87738453D01*
X139464606Y-87731522D01*
X139314189Y-87684651D01*
X139302193Y-87680913D01*
X139234424Y-87674755D01*
X139234420Y-87674754D01*
X139231616Y-87674500D01*
X138718384Y-87674500D01*
X138715580Y-87674754D01*
X138715575Y-87674755D01*
X138647806Y-87680913D01*
X138566598Y-87706217D01*
X138485394Y-87731522D01*
X138485392Y-87731522D01*
X138485392Y-87731523D01*
X138339813Y-87819528D01*
X138237681Y-87921661D01*
X138176358Y-87955146D01*
X138106666Y-87950162D01*
X138062319Y-87921661D01*
X137960186Y-87819528D01*
X137826071Y-87738453D01*
X137814606Y-87731522D01*
X137664189Y-87684651D01*
X137652193Y-87680913D01*
X137584424Y-87674755D01*
X137584420Y-87674754D01*
X137581616Y-87674500D01*
X137068384Y-87674500D01*
X137065580Y-87674754D01*
X137065575Y-87674755D01*
X136997806Y-87680913D01*
X136916598Y-87706217D01*
X136835394Y-87731522D01*
X136835392Y-87731522D01*
X136835392Y-87731523D01*
X136689813Y-87819528D01*
X136569527Y-87939814D01*
X136555615Y-87962828D01*
X136504087Y-88010015D01*
X136435227Y-88021853D01*
X136370899Y-87994583D01*
X136331526Y-87936864D01*
X136325499Y-87898677D01*
X136325499Y-87830439D01*
X136325499Y-87830438D01*
X136325499Y-87827128D01*
X136319091Y-87767517D01*
X136268796Y-87632669D01*
X136182546Y-87517454D01*
X136067331Y-87431204D01*
X135932483Y-87380909D01*
X135872873Y-87374500D01*
X135869550Y-87374500D01*
X133380439Y-87374500D01*
X133380420Y-87374500D01*
X133377128Y-87374501D01*
X133373848Y-87374853D01*
X133373840Y-87374854D01*
X133317515Y-87380909D01*
X133182669Y-87431204D01*
X133067454Y-87517454D01*
X132981204Y-87632668D01*
X132930910Y-87767515D01*
X132930909Y-87767517D01*
X132924500Y-87827127D01*
X132924500Y-87830448D01*
X132924500Y-87830449D01*
X132924500Y-89519560D01*
X132924500Y-89519578D01*
X132924501Y-89522872D01*
X132924853Y-89526152D01*
X132924854Y-89526159D01*
X132929463Y-89569030D01*
X132930909Y-89582483D01*
X132981204Y-89717331D01*
X133067454Y-89832546D01*
X133182669Y-89918796D01*
X133317517Y-89969091D01*
X133352594Y-89972862D01*
X133417143Y-89999598D01*
X133456993Y-90056989D01*
X133459488Y-90126814D01*
X133423837Y-90186904D01*
X133410463Y-90197725D01*
X133385861Y-90214951D01*
X133224953Y-90375859D01*
X133094432Y-90562264D01*
X132998261Y-90768502D01*
X132939364Y-90988310D01*
X132919531Y-91215000D01*
X132939364Y-91441689D01*
X132998261Y-91661497D01*
X133094432Y-91867735D01*
X133224953Y-92054140D01*
X133385859Y-92215046D01*
X133510875Y-92302582D01*
X133572266Y-92345568D01*
X133630275Y-92372618D01*
X133682714Y-92418791D01*
X133701865Y-92485985D01*
X133681649Y-92552866D01*
X133630275Y-92597382D01*
X133572263Y-92624433D01*
X133385859Y-92754953D01*
X133224953Y-92915859D01*
X133094432Y-93102264D01*
X132998261Y-93308502D01*
X132939364Y-93528310D01*
X132919531Y-93755000D01*
X132939364Y-93981689D01*
X132998261Y-94201497D01*
X133094432Y-94407735D01*
X133224953Y-94594140D01*
X133385859Y-94755046D01*
X133510875Y-94842582D01*
X133572266Y-94885568D01*
X133630275Y-94912618D01*
X133682714Y-94958791D01*
X133701865Y-95025985D01*
X133681649Y-95092866D01*
X133630275Y-95137382D01*
X133572263Y-95164433D01*
X133385859Y-95294953D01*
X133224953Y-95455859D01*
X133129892Y-95591623D01*
X133075316Y-95635248D01*
X133028317Y-95644500D01*
X132015504Y-95644500D01*
X131994294Y-95642158D01*
X131921737Y-95644439D01*
X131917842Y-95644500D01*
X131889075Y-95644500D01*
X131885213Y-95644987D01*
X131885192Y-95644989D01*
X131884681Y-95645054D01*
X131873059Y-95645968D01*
X131827428Y-95647402D01*
X131807052Y-95653322D01*
X131788006Y-95657267D01*
X131766939Y-95659928D01*
X131724492Y-95676734D01*
X131713445Y-95680516D01*
X131669601Y-95693255D01*
X131651330Y-95704060D01*
X131633864Y-95712617D01*
X131614129Y-95720431D01*
X131577202Y-95747260D01*
X131567446Y-95753669D01*
X131561429Y-95757228D01*
X131498301Y-95774500D01*
X131218384Y-95774500D01*
X131215580Y-95774754D01*
X131215575Y-95774755D01*
X131147806Y-95780913D01*
X131066598Y-95806217D01*
X130985394Y-95831522D01*
X130985392Y-95831522D01*
X130985392Y-95831523D01*
X130839813Y-95919528D01*
X130719528Y-96039813D01*
X130631523Y-96185392D01*
X130580913Y-96347806D01*
X130574755Y-96415575D01*
X130574500Y-96418384D01*
X130574500Y-96931616D01*
X130574754Y-96934420D01*
X130574755Y-96934424D01*
X130580913Y-97002193D01*
X130580914Y-97002196D01*
X130631522Y-97164606D01*
X130642352Y-97182521D01*
X130719528Y-97310186D01*
X130821661Y-97412319D01*
X130855146Y-97473642D01*
X130850162Y-97543334D01*
X130821661Y-97587681D01*
X130719528Y-97689813D01*
X130631554Y-97835341D01*
X130631522Y-97835394D01*
X130619257Y-97874755D01*
X130580913Y-97997806D01*
X130574943Y-98063506D01*
X130574500Y-98068384D01*
X130574500Y-98581616D01*
X130574754Y-98584420D01*
X130574755Y-98584424D01*
X130580913Y-98652193D01*
X130580914Y-98652196D01*
X130631522Y-98814606D01*
X130664674Y-98869446D01*
X130719528Y-98960186D01*
X130839813Y-99080471D01*
X130839815Y-99080472D01*
X130985394Y-99168478D01*
X131147804Y-99219086D01*
X131218384Y-99225500D01*
X131476482Y-99225500D01*
X131543521Y-99245185D01*
X131561365Y-99259108D01*
X131605831Y-99300864D01*
X131608629Y-99303575D01*
X131628965Y-99323911D01*
X131632036Y-99326293D01*
X131632437Y-99326604D01*
X131641323Y-99334192D01*
X131666173Y-99357528D01*
X131674607Y-99365448D01*
X131693206Y-99375673D01*
X131709466Y-99386354D01*
X131726236Y-99399362D01*
X131745042Y-99407500D01*
X131768131Y-99417492D01*
X131778623Y-99422632D01*
X131818629Y-99444626D01*
X131818631Y-99444626D01*
X131818632Y-99444627D01*
X131820755Y-99445172D01*
X131839185Y-99449904D01*
X131857594Y-99456206D01*
X131877074Y-99464636D01*
X131922178Y-99471779D01*
X131933597Y-99474144D01*
X131977823Y-99485500D01*
X131999045Y-99485500D01*
X132018443Y-99487026D01*
X132039405Y-99490347D01*
X132081319Y-99486384D01*
X132084861Y-99486050D01*
X132096530Y-99485500D01*
X133028317Y-99485500D01*
X133095356Y-99505185D01*
X133129892Y-99538377D01*
X133224953Y-99674140D01*
X133385859Y-99835046D01*
X133572263Y-99965566D01*
X133572266Y-99965568D01*
X133629683Y-99992342D01*
X133630275Y-99992618D01*
X133682714Y-100038791D01*
X133701865Y-100105985D01*
X133681649Y-100172866D01*
X133630275Y-100217382D01*
X133572263Y-100244433D01*
X133385859Y-100374953D01*
X133224953Y-100535859D01*
X133094432Y-100722264D01*
X132998261Y-100928502D01*
X132939364Y-101148310D01*
X132919531Y-101375000D01*
X132939364Y-101601689D01*
X132998261Y-101821497D01*
X133094432Y-102027735D01*
X133224953Y-102214140D01*
X133385859Y-102375046D01*
X133400075Y-102385000D01*
X133572266Y-102505568D01*
X133630275Y-102532618D01*
X133682714Y-102578791D01*
X133701865Y-102645985D01*
X133681649Y-102712866D01*
X133630275Y-102757382D01*
X133572263Y-102784433D01*
X133385859Y-102914953D01*
X133224953Y-103075859D01*
X133094432Y-103262264D01*
X132998261Y-103468502D01*
X132939364Y-103688310D01*
X132919531Y-103915000D01*
X132939364Y-104141689D01*
X132998261Y-104361497D01*
X133094432Y-104567735D01*
X133224953Y-104754140D01*
X133385859Y-104915046D01*
X133489237Y-104987431D01*
X133572266Y-105045568D01*
X133630275Y-105072618D01*
X133682714Y-105118791D01*
X133701865Y-105185985D01*
X133681649Y-105252866D01*
X133630275Y-105297381D01*
X133609576Y-105307033D01*
X133572263Y-105324433D01*
X133385859Y-105454953D01*
X133224953Y-105615859D01*
X133094432Y-105802264D01*
X132998261Y-106008502D01*
X132939364Y-106228310D01*
X132919531Y-106455000D01*
X132939364Y-106681689D01*
X132998261Y-106901497D01*
X133094432Y-107107735D01*
X133224953Y-107294140D01*
X133385859Y-107455046D01*
X133572264Y-107585567D01*
X133572265Y-107585567D01*
X133572266Y-107585568D01*
X133778504Y-107681739D01*
X133998308Y-107740635D01*
X134168216Y-107755500D01*
X134170925Y-107755500D01*
X135079075Y-107755500D01*
X135081784Y-107755500D01*
X135251692Y-107740635D01*
X135471496Y-107681739D01*
X135677734Y-107585568D01*
X135864139Y-107455047D01*
X136025047Y-107294139D01*
X136123608Y-107153377D01*
X136178185Y-107109752D01*
X136225184Y-107100500D01*
X136463511Y-107100500D01*
X136530550Y-107120185D01*
X136567295Y-107157953D01*
X136689813Y-107280471D01*
X136716239Y-107296446D01*
X136835394Y-107368478D01*
X136997804Y-107419086D01*
X137068384Y-107425500D01*
X137071203Y-107425500D01*
X137578797Y-107425500D01*
X137581616Y-107425500D01*
X137652196Y-107419086D01*
X137814606Y-107368478D01*
X137960185Y-107280472D01*
X138009519Y-107231138D01*
X138062319Y-107178339D01*
X138123642Y-107144854D01*
X138193334Y-107149838D01*
X138237681Y-107178339D01*
X138339813Y-107280471D01*
X138366239Y-107296446D01*
X138485394Y-107368478D01*
X138647804Y-107419086D01*
X138718384Y-107425500D01*
X138721203Y-107425500D01*
X139228797Y-107425500D01*
X139231616Y-107425500D01*
X139302196Y-107419086D01*
X139464606Y-107368478D01*
X139610185Y-107280472D01*
X139730472Y-107160185D01*
X139818478Y-107014606D01*
X139869086Y-106852196D01*
X139875500Y-106781616D01*
X139875500Y-106118384D01*
X139869086Y-106047804D01*
X139818478Y-105885394D01*
X139771140Y-105807089D01*
X139753305Y-105739536D01*
X139769871Y-105680940D01*
X139777179Y-105668284D01*
X139805672Y-105580589D01*
X139845108Y-105522917D01*
X139909466Y-105495718D01*
X139978313Y-105507632D01*
X140011283Y-105531229D01*
X140363681Y-105883627D01*
X140397166Y-105944950D01*
X140400000Y-105971308D01*
X140400000Y-106979077D01*
X140380315Y-107046116D01*
X140368150Y-107062049D01*
X140317966Y-107117783D01*
X140223320Y-107281715D01*
X140164826Y-107461742D01*
X140145040Y-107649999D01*
X140164826Y-107838257D01*
X140223320Y-108018284D01*
X140317966Y-108182216D01*
X140444629Y-108322889D01*
X140597769Y-108434151D01*
X140770697Y-108511144D01*
X140955852Y-108550500D01*
X141025500Y-108550500D01*
X141092539Y-108570185D01*
X141138294Y-108622989D01*
X141149500Y-108674500D01*
X141149500Y-109075500D01*
X141129815Y-109142539D01*
X141077011Y-109188294D01*
X141025500Y-109199500D01*
X130034500Y-109199500D01*
X129967461Y-109179815D01*
X129921706Y-109127011D01*
X129910500Y-109075500D01*
X129910500Y-90573705D01*
X129911809Y-90555735D01*
X129913408Y-90544815D01*
X129915289Y-90531977D01*
X129910972Y-90482629D01*
X129910500Y-90471823D01*
X129910500Y-90469901D01*
X129910500Y-90466291D01*
X129906903Y-90435520D01*
X129906536Y-90431929D01*
X129901570Y-90375162D01*
X129899999Y-90357203D01*
X129899998Y-90357201D01*
X129899889Y-90355949D01*
X129895672Y-90336930D01*
X129889338Y-90319528D01*
X129869591Y-90265273D01*
X129868408Y-90261868D01*
X129860498Y-90237997D01*
X129844814Y-90190666D01*
X129844812Y-90190663D01*
X129844415Y-90189464D01*
X129835929Y-90171936D01*
X129835237Y-90170884D01*
X129835237Y-90170883D01*
X129794001Y-90108188D01*
X129792086Y-90105181D01*
X129781814Y-90088528D01*
X129752712Y-90041345D01*
X129752711Y-90041344D01*
X129752047Y-90040267D01*
X129739748Y-90025169D01*
X129684274Y-89972832D01*
X129681687Y-89970319D01*
X127900728Y-88189360D01*
X127888946Y-88175727D01*
X127874609Y-88156469D01*
X127836666Y-88124631D01*
X127828691Y-88117323D01*
X127827329Y-88115961D01*
X127824777Y-88113409D01*
X127800444Y-88094169D01*
X127797647Y-88091890D01*
X127739251Y-88042890D01*
X127722821Y-88032422D01*
X127653691Y-88000186D01*
X127650447Y-87998615D01*
X127582306Y-87964394D01*
X127563903Y-87957997D01*
X127510433Y-87946956D01*
X127489206Y-87942572D01*
X127485692Y-87941794D01*
X127411490Y-87924208D01*
X127392121Y-87922229D01*
X127315869Y-87924448D01*
X127312263Y-87924500D01*
X125991663Y-87924500D01*
X125924624Y-87904815D01*
X125890088Y-87871623D01*
X125865046Y-87835859D01*
X125704140Y-87674953D01*
X125517735Y-87544432D01*
X125311497Y-87448261D01*
X125091689Y-87389364D01*
X124924484Y-87374736D01*
X124924479Y-87374735D01*
X124921784Y-87374500D01*
X124008216Y-87374500D01*
X124005521Y-87374735D01*
X124005515Y-87374736D01*
X123838310Y-87389364D01*
X123618502Y-87448261D01*
X123412264Y-87544432D01*
X123225859Y-87674953D01*
X123064953Y-87835859D01*
X123039912Y-87871623D01*
X122985336Y-87915248D01*
X122938337Y-87924500D01*
X122576874Y-87924500D01*
X122509835Y-87904815D01*
X122489197Y-87888185D01*
X122428044Y-87827032D01*
X122428043Y-87827031D01*
X122428041Y-87827029D01*
X122283699Y-87737997D01*
X122122707Y-87684650D01*
X122026477Y-87674819D01*
X122026458Y-87674818D01*
X122023345Y-87674500D01*
X122020196Y-87674500D01*
X121479805Y-87674500D01*
X121479785Y-87674500D01*
X121476656Y-87674501D01*
X121473524Y-87674820D01*
X121473522Y-87674821D01*
X121377292Y-87684650D01*
X121216300Y-87737997D01*
X121071954Y-87827031D01*
X121062325Y-87836661D01*
X121001001Y-87870145D01*
X120931310Y-87865159D01*
X120886965Y-87836659D01*
X120877732Y-87827426D01*
X120733486Y-87738453D01*
X120572606Y-87685143D01*
X120476445Y-87675319D01*
X120470168Y-87675000D01*
X120450000Y-87675000D01*
X120450000Y-89624999D01*
X120470165Y-89624999D01*
X120476447Y-89624678D01*
X120572605Y-89614856D01*
X120733484Y-89561546D01*
X120877732Y-89472572D01*
X120886963Y-89463341D01*
X120948285Y-89429854D01*
X121017977Y-89434837D01*
X121062329Y-89463341D01*
X121071957Y-89472969D01*
X121216300Y-89562002D01*
X121377292Y-89615349D01*
X121473522Y-89625180D01*
X121473523Y-89625180D01*
X121476655Y-89625500D01*
X122023344Y-89625499D01*
X122122708Y-89615349D01*
X122283697Y-89562003D01*
X122341798Y-89526166D01*
X122428044Y-89472968D01*
X122439194Y-89461819D01*
X122500517Y-89428334D01*
X122526875Y-89425500D01*
X122938337Y-89425500D01*
X123005376Y-89445185D01*
X123039912Y-89478377D01*
X123064953Y-89514140D01*
X123225859Y-89675046D01*
X123350875Y-89762582D01*
X123412266Y-89805568D01*
X123470275Y-89832618D01*
X123522714Y-89878791D01*
X123541865Y-89945985D01*
X123521649Y-90012866D01*
X123470275Y-90057382D01*
X123412263Y-90084433D01*
X123225859Y-90214953D01*
X123064953Y-90375859D01*
X122969892Y-90511623D01*
X122915316Y-90555248D01*
X122868317Y-90564500D01*
X122675783Y-90564500D01*
X122608744Y-90544815D01*
X122569666Y-90504650D01*
X122549821Y-90471823D01*
X122530472Y-90439815D01*
X122530471Y-90439814D01*
X122530470Y-90439812D01*
X122410186Y-90319528D01*
X122320438Y-90265274D01*
X122264606Y-90231522D01*
X122114189Y-90184651D01*
X122102193Y-90180913D01*
X122034424Y-90174755D01*
X122034420Y-90174754D01*
X122031616Y-90174500D01*
X121518384Y-90174500D01*
X121515580Y-90174754D01*
X121515575Y-90174755D01*
X121447806Y-90180913D01*
X121393851Y-90197726D01*
X121285394Y-90231522D01*
X121285392Y-90231522D01*
X121285392Y-90231523D01*
X121139813Y-90319528D01*
X121037681Y-90421661D01*
X120976358Y-90455146D01*
X120906666Y-90450162D01*
X120862319Y-90421661D01*
X120760186Y-90319528D01*
X120670438Y-90265274D01*
X120614606Y-90231522D01*
X120464189Y-90184651D01*
X120452193Y-90180913D01*
X120384424Y-90174755D01*
X120384420Y-90174754D01*
X120381616Y-90174500D01*
X119868384Y-90174500D01*
X119865580Y-90174754D01*
X119865575Y-90174755D01*
X119797806Y-90180913D01*
X119743851Y-90197726D01*
X119635394Y-90231522D01*
X119635392Y-90231522D01*
X119635392Y-90231523D01*
X119489815Y-90319527D01*
X119405358Y-90403984D01*
X119344034Y-90437468D01*
X119274343Y-90432484D01*
X119229996Y-90403983D01*
X119153044Y-90327031D01*
X119008699Y-90237997D01*
X118847707Y-90184650D01*
X118751477Y-90174819D01*
X118751458Y-90174818D01*
X118748345Y-90174500D01*
X118745196Y-90174500D01*
X118204805Y-90174500D01*
X118204785Y-90174500D01*
X118201656Y-90174501D01*
X118198524Y-90174820D01*
X118198522Y-90174821D01*
X118102292Y-90184650D01*
X117941300Y-90237997D01*
X117796954Y-90327031D01*
X117787325Y-90336661D01*
X117726001Y-90370145D01*
X117656310Y-90365159D01*
X117611965Y-90336659D01*
X117602732Y-90327426D01*
X117458486Y-90238453D01*
X117297606Y-90185143D01*
X117201445Y-90175319D01*
X117195168Y-90175000D01*
X117175000Y-90175000D01*
X117175000Y-92124999D01*
X117195165Y-92124999D01*
X117201447Y-92124678D01*
X117297605Y-92114856D01*
X117458484Y-92061546D01*
X117602732Y-91972572D01*
X117611963Y-91963341D01*
X117673285Y-91929854D01*
X117742977Y-91934837D01*
X117787329Y-91963341D01*
X117796957Y-91972969D01*
X117941300Y-92062002D01*
X118102292Y-92115349D01*
X118198522Y-92125180D01*
X118198523Y-92125180D01*
X118201655Y-92125500D01*
X118748344Y-92125499D01*
X118847708Y-92115349D01*
X119008697Y-92062003D01*
X119021447Y-92054139D01*
X119153041Y-91972970D01*
X119153041Y-91972969D01*
X119153044Y-91972968D01*
X119229997Y-91896014D01*
X119291318Y-91862531D01*
X119361010Y-91867515D01*
X119405358Y-91896016D01*
X119489813Y-91980471D01*
X119489815Y-91980472D01*
X119635394Y-92068478D01*
X119797804Y-92119086D01*
X119868384Y-92125500D01*
X119871203Y-92125500D01*
X120378797Y-92125500D01*
X120381616Y-92125500D01*
X120452196Y-92119086D01*
X120614606Y-92068478D01*
X120760185Y-91980472D01*
X120810803Y-91929854D01*
X120862319Y-91878339D01*
X120923642Y-91844854D01*
X120993334Y-91849838D01*
X121037681Y-91878339D01*
X121139813Y-91980471D01*
X121139815Y-91980472D01*
X121285394Y-92068478D01*
X121447804Y-92119086D01*
X121518384Y-92125500D01*
X121521203Y-92125500D01*
X122028797Y-92125500D01*
X122031616Y-92125500D01*
X122102196Y-92119086D01*
X122264606Y-92068478D01*
X122410185Y-91980472D01*
X122488839Y-91901817D01*
X122550160Y-91868334D01*
X122576519Y-91865500D01*
X122868317Y-91865500D01*
X122935356Y-91885185D01*
X122969892Y-91918377D01*
X123064953Y-92054140D01*
X123225859Y-92215046D01*
X123350875Y-92302582D01*
X123412266Y-92345568D01*
X123470275Y-92372618D01*
X123522714Y-92418791D01*
X123541865Y-92485985D01*
X123521649Y-92552866D01*
X123470275Y-92597382D01*
X123412263Y-92624433D01*
X123225859Y-92754953D01*
X123064953Y-92915859D01*
X122969892Y-93051623D01*
X122915316Y-93095248D01*
X122868317Y-93104500D01*
X122639511Y-93104500D01*
X122572472Y-93084815D01*
X122533394Y-93044649D01*
X122530472Y-93039815D01*
X122410185Y-92919528D01*
X122410184Y-92919527D01*
X122276071Y-92838453D01*
X122264606Y-92831522D01*
X122114189Y-92784651D01*
X122102193Y-92780913D01*
X122034424Y-92774755D01*
X122034420Y-92774754D01*
X122031616Y-92774500D01*
X121518384Y-92774500D01*
X121515580Y-92774754D01*
X121515575Y-92774755D01*
X121447806Y-92780913D01*
X121421790Y-92789020D01*
X121285394Y-92831522D01*
X121285392Y-92831522D01*
X121285392Y-92831523D01*
X121139813Y-92919528D01*
X121037327Y-93022015D01*
X120976004Y-93055500D01*
X120906312Y-93050516D01*
X120861965Y-93022015D01*
X120759875Y-92919925D01*
X120614396Y-92831980D01*
X120452106Y-92781409D01*
X120384384Y-92775255D01*
X120378756Y-92775000D01*
X120375000Y-92775000D01*
X120375000Y-93876000D01*
X120355315Y-93943039D01*
X120302511Y-93988794D01*
X120251000Y-94000000D01*
X119999000Y-94000000D01*
X119931961Y-93980315D01*
X119886206Y-93927511D01*
X119875000Y-93876000D01*
X119874999Y-92775000D01*
X119874998Y-92774999D01*
X119871228Y-92775000D01*
X119865628Y-92775255D01*
X119797895Y-92781408D01*
X119635602Y-92831981D01*
X119490124Y-92919925D01*
X119413035Y-92997015D01*
X119351712Y-93030500D01*
X119282020Y-93025516D01*
X119237673Y-92997015D01*
X119160186Y-92919528D01*
X119026071Y-92838453D01*
X119014606Y-92831522D01*
X118864189Y-92784651D01*
X118852193Y-92780913D01*
X118784424Y-92774755D01*
X118784420Y-92774754D01*
X118781616Y-92774500D01*
X118268384Y-92774500D01*
X118265580Y-92774754D01*
X118265575Y-92774755D01*
X118197806Y-92780913D01*
X118171790Y-92789020D01*
X118035394Y-92831522D01*
X118035392Y-92831522D01*
X118035392Y-92831523D01*
X117889813Y-92919528D01*
X117787681Y-93021661D01*
X117726358Y-93055146D01*
X117656666Y-93050162D01*
X117612319Y-93021661D01*
X117510186Y-92919528D01*
X117376071Y-92838453D01*
X117364606Y-92831522D01*
X117214189Y-92784651D01*
X117202193Y-92780913D01*
X117134424Y-92774755D01*
X117134420Y-92774754D01*
X117131616Y-92774500D01*
X116618384Y-92774500D01*
X116615580Y-92774754D01*
X116615575Y-92774755D01*
X116547806Y-92780913D01*
X116521790Y-92789020D01*
X116385394Y-92831522D01*
X116385392Y-92831522D01*
X116385392Y-92831523D01*
X116239813Y-92919528D01*
X116119528Y-93039813D01*
X116050000Y-93154827D01*
X116031522Y-93185394D01*
X116028364Y-93195529D01*
X115980913Y-93347806D01*
X115974755Y-93415575D01*
X115974500Y-93418384D01*
X115974500Y-94081616D01*
X115974754Y-94084420D01*
X115974755Y-94084424D01*
X115980913Y-94152193D01*
X115980914Y-94152196D01*
X116031522Y-94314606D01*
X116046507Y-94339394D01*
X116119528Y-94460186D01*
X116239812Y-94580470D01*
X116239814Y-94580471D01*
X116239815Y-94580472D01*
X116385394Y-94668478D01*
X116447932Y-94687965D01*
X116498723Y-94718669D01*
X116842873Y-95062819D01*
X116876358Y-95124142D01*
X116871374Y-95193834D01*
X116829502Y-95249767D01*
X116764038Y-95274184D01*
X116755193Y-95274500D01*
X116654805Y-95274500D01*
X116654785Y-95274500D01*
X116651656Y-95274501D01*
X116648524Y-95274820D01*
X116648522Y-95274821D01*
X116552292Y-95284650D01*
X116391300Y-95337997D01*
X116246958Y-95427029D01*
X116206798Y-95467190D01*
X116127032Y-95546956D01*
X116127030Y-95546958D01*
X116116785Y-95557204D01*
X116114751Y-95555171D01*
X116079002Y-95587324D01*
X116025416Y-95599500D01*
X113895505Y-95599500D01*
X113874295Y-95597158D01*
X113801738Y-95599439D01*
X113797843Y-95599500D01*
X113769075Y-95599500D01*
X113765213Y-95599987D01*
X113765192Y-95599989D01*
X113764681Y-95600054D01*
X113753059Y-95600968D01*
X113707428Y-95602402D01*
X113687052Y-95608322D01*
X113668006Y-95612267D01*
X113646939Y-95614928D01*
X113604487Y-95631736D01*
X113593439Y-95635519D01*
X113549600Y-95648256D01*
X113531330Y-95659061D01*
X113513862Y-95667618D01*
X113502463Y-95672132D01*
X113494126Y-95675433D01*
X113457191Y-95702266D01*
X113447441Y-95708671D01*
X113441967Y-95711909D01*
X113374245Y-95729098D01*
X113307980Y-95706945D01*
X113264212Y-95652483D01*
X113255308Y-95615990D01*
X113254875Y-95611045D01*
X113235063Y-95384592D01*
X113173903Y-95156337D01*
X113074035Y-94942171D01*
X112938495Y-94748599D01*
X112771401Y-94581505D01*
X112585839Y-94451573D01*
X112542216Y-94396998D01*
X112535022Y-94327500D01*
X112566545Y-94265145D01*
X112585837Y-94248428D01*
X112771401Y-94118495D01*
X112938495Y-93951401D01*
X113074035Y-93757830D01*
X113173903Y-93543663D01*
X113235063Y-93315408D01*
X113255659Y-93080000D01*
X113235063Y-92844592D01*
X113173903Y-92616337D01*
X113074035Y-92402171D01*
X112938495Y-92208599D01*
X112771401Y-92041505D01*
X112585839Y-91911573D01*
X112542215Y-91856997D01*
X112535023Y-91787498D01*
X112566545Y-91725144D01*
X112585831Y-91708432D01*
X112771401Y-91578495D01*
X112938495Y-91411401D01*
X112946478Y-91400000D01*
X115975001Y-91400000D01*
X115975001Y-91445165D01*
X115975321Y-91451447D01*
X115985143Y-91547605D01*
X116038453Y-91708486D01*
X116127426Y-91852732D01*
X116247267Y-91972573D01*
X116391513Y-92061546D01*
X116552393Y-92114856D01*
X116648536Y-92124678D01*
X116654851Y-92124999D01*
X116675000Y-92124999D01*
X116675000Y-91400000D01*
X115975001Y-91400000D01*
X112946478Y-91400000D01*
X113074035Y-91217830D01*
X113173903Y-91003663D01*
X113201679Y-90900000D01*
X115975000Y-90900000D01*
X116675000Y-90900000D01*
X116675000Y-90175000D01*
X116654836Y-90175000D01*
X116648550Y-90175321D01*
X116552394Y-90185143D01*
X116391513Y-90238453D01*
X116247267Y-90327426D01*
X116127426Y-90447267D01*
X116038453Y-90591513D01*
X115985143Y-90752393D01*
X115975319Y-90848554D01*
X115975000Y-90854832D01*
X115975000Y-90900000D01*
X113201679Y-90900000D01*
X113235063Y-90775408D01*
X113255659Y-90540000D01*
X113250711Y-90483451D01*
X113235063Y-90304592D01*
X113215484Y-90231522D01*
X113173903Y-90076337D01*
X113074035Y-89862171D01*
X112938495Y-89668599D01*
X112816569Y-89546673D01*
X112783084Y-89485350D01*
X112788068Y-89415658D01*
X112829940Y-89359725D01*
X112860915Y-89342810D01*
X112992331Y-89293796D01*
X113107546Y-89207546D01*
X113193796Y-89092331D01*
X113244091Y-88957483D01*
X113250271Y-88900000D01*
X119250001Y-88900000D01*
X119250001Y-88945165D01*
X119250321Y-88951447D01*
X119260143Y-89047605D01*
X119313453Y-89208486D01*
X119402426Y-89352732D01*
X119522267Y-89472573D01*
X119666513Y-89561546D01*
X119827393Y-89614856D01*
X119923536Y-89624678D01*
X119929851Y-89624999D01*
X119950000Y-89624999D01*
X119950000Y-88900000D01*
X119250001Y-88900000D01*
X113250271Y-88900000D01*
X113250500Y-88897873D01*
X113250500Y-88400000D01*
X119250000Y-88400000D01*
X119950000Y-88400000D01*
X119950000Y-87675000D01*
X119929836Y-87675000D01*
X119923550Y-87675321D01*
X119827394Y-87685143D01*
X119666513Y-87738453D01*
X119522267Y-87827426D01*
X119402426Y-87947267D01*
X119313453Y-88091513D01*
X119260143Y-88252393D01*
X119250319Y-88348554D01*
X119250000Y-88354832D01*
X119250000Y-88400000D01*
X113250500Y-88400000D01*
X113250499Y-87102128D01*
X113244091Y-87042517D01*
X113193796Y-86907669D01*
X113107546Y-86792454D01*
X112992331Y-86706204D01*
X112857483Y-86655909D01*
X112797873Y-86649500D01*
X112794550Y-86649500D01*
X111005439Y-86649500D01*
X111005420Y-86649500D01*
X111002128Y-86649501D01*
X110998848Y-86649853D01*
X110998840Y-86649854D01*
X110942515Y-86655909D01*
X110807669Y-86706204D01*
X110692454Y-86792454D01*
X110606204Y-86907668D01*
X110555910Y-87042515D01*
X110555909Y-87042517D01*
X110549500Y-87102127D01*
X110549500Y-87105448D01*
X110549500Y-87105449D01*
X110549500Y-88894560D01*
X110549500Y-88894578D01*
X110549501Y-88897872D01*
X110549853Y-88901152D01*
X110549854Y-88901159D01*
X110555260Y-88951447D01*
X110555909Y-88957483D01*
X110606204Y-89092331D01*
X110692454Y-89207546D01*
X110807669Y-89293796D01*
X110919907Y-89335658D01*
X110939082Y-89342810D01*
X110995016Y-89384681D01*
X111019433Y-89450146D01*
X111004581Y-89518419D01*
X110983431Y-89546673D01*
X110861503Y-89668601D01*
X110725965Y-89862170D01*
X110626097Y-90076336D01*
X110564936Y-90304592D01*
X110544340Y-90539999D01*
X110564936Y-90775407D01*
X110584536Y-90848554D01*
X110626097Y-91003663D01*
X110725965Y-91217830D01*
X110861505Y-91411401D01*
X111028599Y-91578495D01*
X111214160Y-91708426D01*
X111257783Y-91763002D01*
X111264976Y-91832501D01*
X111233454Y-91894855D01*
X111214160Y-91911574D01*
X111126451Y-91972989D01*
X111028595Y-92041508D01*
X110861505Y-92208598D01*
X110725965Y-92402170D01*
X110626097Y-92616336D01*
X110564936Y-92844592D01*
X110544340Y-93080000D01*
X110564936Y-93315407D01*
X110574847Y-93352394D01*
X110626097Y-93543663D01*
X110725965Y-93757830D01*
X110861505Y-93951401D01*
X111028599Y-94118495D01*
X111214160Y-94248426D01*
X111257783Y-94303002D01*
X111264976Y-94372501D01*
X111233454Y-94434855D01*
X111214159Y-94451575D01*
X111209802Y-94454626D01*
X111030075Y-94580472D01*
X111028595Y-94581508D01*
X110861505Y-94748598D01*
X110725965Y-94942170D01*
X110626097Y-95156336D01*
X110564936Y-95384592D01*
X110544340Y-95619999D01*
X110564936Y-95855407D01*
X110583085Y-95923139D01*
X110626097Y-96083663D01*
X110725965Y-96297830D01*
X110861505Y-96491401D01*
X111028599Y-96658495D01*
X111214160Y-96788426D01*
X111257783Y-96843002D01*
X111264976Y-96912501D01*
X111233454Y-96974855D01*
X111214158Y-96991575D01*
X111073288Y-97090214D01*
X111028595Y-97121508D01*
X110861505Y-97288598D01*
X110725965Y-97482170D01*
X110626097Y-97696336D01*
X110564936Y-97924592D01*
X110544340Y-98160000D01*
X110564936Y-98395407D01*
X110582476Y-98460867D01*
X110626097Y-98623663D01*
X110725965Y-98837830D01*
X110861505Y-99031401D01*
X111028599Y-99198495D01*
X111214160Y-99328426D01*
X111257783Y-99383002D01*
X111264976Y-99452501D01*
X111233454Y-99514855D01*
X111214158Y-99531575D01*
X111045239Y-99649854D01*
X111028595Y-99661508D01*
X110861505Y-99828598D01*
X110725965Y-100022170D01*
X110626097Y-100236336D01*
X110564936Y-100464592D01*
X110544340Y-100699999D01*
X110564936Y-100935407D01*
X110590742Y-101031715D01*
X110626097Y-101163663D01*
X110725965Y-101377830D01*
X110861505Y-101571401D01*
X111028599Y-101738495D01*
X111214160Y-101868426D01*
X111257783Y-101923002D01*
X111264976Y-101992501D01*
X111233454Y-102054855D01*
X111214160Y-102071574D01*
X111051900Y-102185190D01*
X111028595Y-102201508D01*
X110861505Y-102368598D01*
X110725965Y-102562170D01*
X110626097Y-102776336D01*
X110564936Y-103004592D01*
X110544340Y-103240000D01*
X110564936Y-103475407D01*
X110608441Y-103637769D01*
X110626097Y-103703663D01*
X110725965Y-103917830D01*
X110861505Y-104111401D01*
X111028599Y-104278495D01*
X111222170Y-104414035D01*
X111436337Y-104513903D01*
X111646387Y-104570185D01*
X111664592Y-104575063D01*
X111899999Y-104595659D01*
X111899999Y-104595658D01*
X111900000Y-104595659D01*
X112135408Y-104575063D01*
X112207988Y-104555615D01*
X112277838Y-104557278D01*
X112327763Y-104587709D01*
X113063181Y-105323127D01*
X113096666Y-105384450D01*
X113099500Y-105410808D01*
X113099500Y-119438511D01*
X113079815Y-119505550D01*
X113042054Y-119542289D01*
X112919527Y-119664815D01*
X112831523Y-119810392D01*
X112780913Y-119972806D01*
X112777065Y-120015157D01*
X112774500Y-120043384D01*
X112774500Y-120556616D01*
X112774754Y-120559420D01*
X112774755Y-120559424D01*
X112780913Y-120627193D01*
X112780914Y-120627196D01*
X112831522Y-120789606D01*
X112866326Y-120847179D01*
X112919528Y-120935186D01*
X113021661Y-121037319D01*
X113055146Y-121098642D01*
X113050162Y-121168334D01*
X113021661Y-121212681D01*
X112919528Y-121314813D01*
X112851671Y-121427063D01*
X112831522Y-121460394D01*
X112825996Y-121478128D01*
X112780913Y-121622806D01*
X112774755Y-121690575D01*
X112774500Y-121693384D01*
X112774500Y-122206616D01*
X112774754Y-122209420D01*
X112774755Y-122209424D01*
X112780913Y-122277193D01*
X112780914Y-122277196D01*
X112831522Y-122439606D01*
X112831523Y-122439607D01*
X112919528Y-122585186D01*
X113050461Y-122716119D01*
X113049954Y-122716625D01*
X113086837Y-122756900D01*
X113099499Y-122811489D01*
X113099500Y-123314494D01*
X113097158Y-123335702D01*
X113099439Y-123408262D01*
X113099500Y-123412157D01*
X113099500Y-123440925D01*
X113099987Y-123444785D01*
X113099989Y-123444808D01*
X113100054Y-123445320D01*
X113100968Y-123456942D01*
X113102402Y-123502569D01*
X113108323Y-123522950D01*
X113112267Y-123541995D01*
X113114928Y-123563059D01*
X113131737Y-123605515D01*
X113135520Y-123616563D01*
X113148256Y-123660400D01*
X113159061Y-123678670D01*
X113167621Y-123696143D01*
X113175431Y-123715869D01*
X113202267Y-123752808D01*
X113208673Y-123762560D01*
X113231919Y-123801865D01*
X113231920Y-123801867D01*
X113231921Y-123801867D01*
X113246925Y-123816871D01*
X113259562Y-123831667D01*
X113272037Y-123848837D01*
X113307212Y-123877936D01*
X113315854Y-123885800D01*
X115129564Y-125699509D01*
X115142909Y-125716167D01*
X115195848Y-125765879D01*
X115198645Y-125768590D01*
X115218966Y-125788911D01*
X115222442Y-125791607D01*
X115231322Y-125799191D01*
X115264607Y-125830448D01*
X115283212Y-125840676D01*
X115299466Y-125851353D01*
X115316237Y-125864363D01*
X115358144Y-125882497D01*
X115368618Y-125887628D01*
X115408632Y-125909627D01*
X115429197Y-125914906D01*
X115447593Y-125921205D01*
X115467074Y-125929636D01*
X115512178Y-125936779D01*
X115523597Y-125939144D01*
X115567823Y-125950500D01*
X115589045Y-125950500D01*
X115608443Y-125952026D01*
X115629405Y-125955347D01*
X115671319Y-125951384D01*
X115674861Y-125951050D01*
X115686530Y-125950500D01*
X117217823Y-125950500D01*
X117239051Y-125950500D01*
X117258449Y-125952026D01*
X117279405Y-125955346D01*
X117324851Y-125951050D01*
X117336521Y-125950500D01*
X119789495Y-125950500D01*
X119810704Y-125952841D01*
X119813294Y-125952759D01*
X119813296Y-125952760D01*
X119883262Y-125950560D01*
X119887157Y-125950500D01*
X119912025Y-125950500D01*
X119915925Y-125950500D01*
X119920294Y-125949947D01*
X119931939Y-125949030D01*
X119977569Y-125947597D01*
X119997949Y-125941675D01*
X120016989Y-125937732D01*
X120038058Y-125935071D01*
X120080520Y-125918258D01*
X120091557Y-125914480D01*
X120135398Y-125901744D01*
X120153670Y-125890936D01*
X120171136Y-125882380D01*
X120190871Y-125874568D01*
X120227816Y-125847725D01*
X120237548Y-125841332D01*
X120276865Y-125818081D01*
X120291874Y-125803071D01*
X120306663Y-125790439D01*
X120323837Y-125777963D01*
X120352946Y-125742774D01*
X120360780Y-125734164D01*
X120683128Y-125411816D01*
X120744450Y-125378334D01*
X120770808Y-125375500D01*
X121028797Y-125375500D01*
X121031616Y-125375500D01*
X121102196Y-125369086D01*
X121264606Y-125318478D01*
X121410185Y-125230472D01*
X121410186Y-125230470D01*
X121512319Y-125128339D01*
X121573642Y-125094854D01*
X121643334Y-125099838D01*
X121687681Y-125128339D01*
X121789813Y-125230471D01*
X121789815Y-125230472D01*
X121935394Y-125318478D01*
X122097804Y-125369086D01*
X122168384Y-125375500D01*
X122171203Y-125375500D01*
X122678797Y-125375500D01*
X122681616Y-125375500D01*
X122752196Y-125369086D01*
X122914606Y-125318478D01*
X123060185Y-125230472D01*
X123060186Y-125230471D01*
X123191119Y-125099539D01*
X123191625Y-125100045D01*
X123231897Y-125063164D01*
X123286489Y-125050500D01*
X126939692Y-125050500D01*
X127006731Y-125070185D01*
X127027373Y-125086819D01*
X127375691Y-125435137D01*
X127409176Y-125496460D01*
X127411331Y-125509856D01*
X127424826Y-125638257D01*
X127483320Y-125818284D01*
X127577966Y-125982216D01*
X127704629Y-126122889D01*
X127857769Y-126234151D01*
X128030697Y-126311144D01*
X128215852Y-126350500D01*
X128285500Y-126350500D01*
X128352539Y-126370185D01*
X128398294Y-126422989D01*
X128409500Y-126474500D01*
X128409500Y-128912010D01*
X128389815Y-128979049D01*
X128337011Y-129024804D01*
X128296308Y-129035538D01*
X128074592Y-129054936D01*
X127846336Y-129116097D01*
X127632170Y-129215965D01*
X127438598Y-129351505D01*
X127271505Y-129518598D01*
X127135965Y-129712170D01*
X127036097Y-129926336D01*
X126974936Y-130154592D01*
X126954340Y-130390000D01*
X126972977Y-130603013D01*
X126959210Y-130671513D01*
X126937130Y-130701501D01*
X121707683Y-135930948D01*
X121646360Y-135964433D01*
X121576668Y-135959449D01*
X121554906Y-135948806D01*
X121419334Y-135865186D01*
X121252797Y-135810000D01*
X121153141Y-135799819D01*
X121153122Y-135799818D01*
X121150009Y-135799500D01*
X121146860Y-135799500D01*
X119953140Y-135799500D01*
X119953120Y-135799500D01*
X119949992Y-135799501D01*
X119946860Y-135799820D01*
X119946858Y-135799821D01*
X119847203Y-135810000D01*
X119680665Y-135865186D01*
X119531342Y-135957288D01*
X119407288Y-136081342D01*
X119315186Y-136230665D01*
X119260000Y-136397202D01*
X119249819Y-136496858D01*
X119249817Y-136496878D01*
X119249500Y-136499991D01*
X119249500Y-136503138D01*
X119249500Y-136503139D01*
X119249500Y-139596859D01*
X119249500Y-139596878D01*
X119249501Y-139600008D01*
X119249820Y-139603140D01*
X119249821Y-139603141D01*
X119260000Y-139702796D01*
X119315186Y-139869334D01*
X119407288Y-140018657D01*
X119531342Y-140142711D01*
X119531344Y-140142712D01*
X119680666Y-140234814D01*
X119792017Y-140271712D01*
X119847202Y-140289999D01*
X119946858Y-140300180D01*
X119946859Y-140300180D01*
X119949991Y-140300500D01*
X121150008Y-140300499D01*
X121252797Y-140289999D01*
X121419334Y-140234814D01*
X121568656Y-140142712D01*
X121692712Y-140018656D01*
X121784814Y-139869334D01*
X121839999Y-139702797D01*
X121850500Y-139600009D01*
X121850499Y-137962228D01*
X121870184Y-137895190D01*
X121886813Y-137874553D01*
X126756880Y-133004486D01*
X126818199Y-132971004D01*
X126887891Y-132975988D01*
X126943824Y-133017860D01*
X126968085Y-133081363D01*
X126975430Y-133165318D01*
X127036569Y-133393492D01*
X127136400Y-133607580D01*
X127195073Y-133691373D01*
X127826922Y-133059523D01*
X127850507Y-133139844D01*
X127928239Y-133260798D01*
X128036900Y-133354952D01*
X128167685Y-133414680D01*
X128177466Y-133416086D01*
X127548625Y-134044925D01*
X127625031Y-134098425D01*
X127668655Y-134153002D01*
X127675848Y-134222501D01*
X127644326Y-134284855D01*
X127625029Y-134301576D01*
X127548625Y-134355072D01*
X128177466Y-134983913D01*
X128167685Y-134985320D01*
X128036900Y-135045048D01*
X127928239Y-135139202D01*
X127850507Y-135260156D01*
X127826923Y-135340475D01*
X127195073Y-134708625D01*
X127195072Y-134708625D01*
X127136399Y-134792422D01*
X127036569Y-135006507D01*
X126975430Y-135234681D01*
X126954842Y-135469999D01*
X126975430Y-135705318D01*
X127036569Y-135933492D01*
X127136400Y-136147580D01*
X127195073Y-136231373D01*
X127826923Y-135599523D01*
X127850507Y-135679844D01*
X127928239Y-135800798D01*
X128036900Y-135894952D01*
X128167685Y-135954680D01*
X128177466Y-135956086D01*
X127548625Y-136584925D01*
X127625031Y-136638425D01*
X127668655Y-136693002D01*
X127675848Y-136762501D01*
X127644326Y-136824855D01*
X127625029Y-136841576D01*
X127548625Y-136895072D01*
X128177466Y-137523913D01*
X128167685Y-137525320D01*
X128036900Y-137585048D01*
X127928239Y-137679202D01*
X127850507Y-137800156D01*
X127826923Y-137880475D01*
X127195073Y-137248625D01*
X127195072Y-137248625D01*
X127136399Y-137332422D01*
X127036569Y-137546507D01*
X126975430Y-137774681D01*
X126954842Y-138010000D01*
X126975430Y-138245318D01*
X127036569Y-138473492D01*
X127136400Y-138687580D01*
X127195073Y-138771373D01*
X127826923Y-138139523D01*
X127850507Y-138219844D01*
X127928239Y-138340798D01*
X128036900Y-138434952D01*
X128167685Y-138494680D01*
X128177466Y-138496086D01*
X127544208Y-139129342D01*
X127533788Y-139181193D01*
X127485172Y-139231376D01*
X127463032Y-139241206D01*
X127390664Y-139265186D01*
X127241342Y-139357288D01*
X127117288Y-139481342D01*
X127025186Y-139630665D01*
X126970000Y-139797202D01*
X126959819Y-139896858D01*
X126959817Y-139896878D01*
X126959500Y-139899991D01*
X126959500Y-139903138D01*
X126959500Y-139903139D01*
X126959500Y-141196859D01*
X126959500Y-141196878D01*
X126959501Y-141200008D01*
X126959820Y-141203140D01*
X126959821Y-141203141D01*
X126970000Y-141302796D01*
X127025186Y-141469334D01*
X127117288Y-141618657D01*
X127241342Y-141742711D01*
X127241344Y-141742712D01*
X127390666Y-141834814D01*
X127502017Y-141871712D01*
X127557202Y-141889999D01*
X127656858Y-141900180D01*
X127656859Y-141900180D01*
X127659991Y-141900500D01*
X128960008Y-141900499D01*
X129062797Y-141889999D01*
X129229334Y-141834814D01*
X129378656Y-141742712D01*
X129502712Y-141618656D01*
X129594814Y-141469334D01*
X129597538Y-141461111D01*
X129637307Y-141403668D01*
X129701822Y-141376843D01*
X129770599Y-141389155D01*
X129801654Y-141415909D01*
X129803834Y-141413730D01*
X129811505Y-141421401D01*
X129978599Y-141588495D01*
X130172170Y-141724035D01*
X130386337Y-141823903D01*
X130614592Y-141885063D01*
X130850000Y-141905659D01*
X131085408Y-141885063D01*
X131313663Y-141823903D01*
X131527830Y-141724035D01*
X131721401Y-141588495D01*
X131888495Y-141421401D01*
X131936127Y-141353374D01*
X131990703Y-141309751D01*
X132037701Y-141300500D01*
X133862279Y-141300500D01*
X133924554Y-141300500D01*
X133931764Y-141300710D01*
X133993934Y-141304331D01*
X133993934Y-141304330D01*
X133993935Y-141304331D01*
X134002052Y-141302899D01*
X134004977Y-141302384D01*
X134026510Y-141300500D01*
X135087770Y-141300500D01*
X135154809Y-141320185D01*
X135175451Y-141336819D01*
X137213181Y-143374549D01*
X137246666Y-143435872D01*
X137249500Y-143462230D01*
X137249500Y-145196859D01*
X137249500Y-145196878D01*
X137249501Y-145200008D01*
X137249820Y-145203140D01*
X137249821Y-145203141D01*
X137260000Y-145302796D01*
X137315186Y-145469334D01*
X137407288Y-145618657D01*
X137531342Y-145742711D01*
X137531344Y-145742712D01*
X137680666Y-145834814D01*
X137792017Y-145871712D01*
X137847202Y-145889999D01*
X137946858Y-145900180D01*
X137946859Y-145900180D01*
X137949991Y-145900500D01*
X139150008Y-145900499D01*
X139252797Y-145889999D01*
X139419334Y-145834814D01*
X139568656Y-145742712D01*
X139692712Y-145618656D01*
X139784814Y-145469334D01*
X139839999Y-145302797D01*
X139850500Y-145200009D01*
X139850499Y-142099992D01*
X139839999Y-141997203D01*
X139784814Y-141830666D01*
X139710387Y-141710000D01*
X145844340Y-141710000D01*
X145864936Y-141945407D01*
X145878815Y-141997203D01*
X145926097Y-142173663D01*
X146025965Y-142387830D01*
X146161505Y-142581401D01*
X146328599Y-142748495D01*
X146514596Y-142878732D01*
X146558219Y-142933307D01*
X146565412Y-143002806D01*
X146533890Y-143065160D01*
X146514595Y-143081880D01*
X146328919Y-143211892D01*
X146161890Y-143378921D01*
X146026400Y-143572421D01*
X145926569Y-143786507D01*
X145869364Y-143999999D01*
X145869364Y-144000000D01*
X146766314Y-144000000D01*
X146740507Y-144040156D01*
X146700000Y-144178111D01*
X146700000Y-144321889D01*
X146740507Y-144459844D01*
X146766314Y-144500000D01*
X145869364Y-144500000D01*
X145926569Y-144713492D01*
X146026399Y-144927576D01*
X146161893Y-145121081D01*
X146328918Y-145288106D01*
X146522423Y-145423600D01*
X146736509Y-145523430D01*
X146950000Y-145580634D01*
X146950000Y-144685501D01*
X147057685Y-144734680D01*
X147164237Y-144750000D01*
X147235763Y-144750000D01*
X147342315Y-144734680D01*
X147450000Y-144685501D01*
X147450000Y-145580633D01*
X147663490Y-145523430D01*
X147877576Y-145423600D01*
X148071081Y-145288106D01*
X148238106Y-145121081D01*
X148373600Y-144927576D01*
X148473430Y-144713492D01*
X148530636Y-144500000D01*
X147633686Y-144500000D01*
X147659493Y-144459844D01*
X147700000Y-144321889D01*
X147700000Y-144178111D01*
X147659493Y-144040156D01*
X147633686Y-144000000D01*
X148530636Y-144000000D01*
X148530635Y-143999999D01*
X148473430Y-143786507D01*
X148373599Y-143572421D01*
X148238109Y-143378921D01*
X148071081Y-143211893D01*
X147885404Y-143081880D01*
X147841780Y-143027303D01*
X147834587Y-142957804D01*
X147866109Y-142895450D01*
X147885399Y-142878734D01*
X148071401Y-142748495D01*
X148238495Y-142581401D01*
X148374035Y-142387830D01*
X148473903Y-142173663D01*
X148535063Y-141945408D01*
X148555659Y-141710000D01*
X148535063Y-141474592D01*
X148473903Y-141246337D01*
X148374035Y-141032171D01*
X148238495Y-140838599D01*
X148071401Y-140671505D01*
X147885839Y-140541573D01*
X147842216Y-140486998D01*
X147835022Y-140417500D01*
X147866545Y-140355145D01*
X147885837Y-140338428D01*
X148071401Y-140208495D01*
X148238495Y-140041401D01*
X148374035Y-139847830D01*
X148473903Y-139633663D01*
X148535063Y-139405408D01*
X148555659Y-139170000D01*
X148535063Y-138934592D01*
X148473903Y-138706337D01*
X148374035Y-138492171D01*
X148238495Y-138298599D01*
X148071401Y-138131505D01*
X147885839Y-138001573D01*
X147842216Y-137946998D01*
X147835022Y-137877500D01*
X147866545Y-137815145D01*
X147885837Y-137798428D01*
X148071401Y-137668495D01*
X148238495Y-137501401D01*
X148374035Y-137307830D01*
X148473903Y-137093663D01*
X148535063Y-136865408D01*
X148555659Y-136630000D01*
X148535063Y-136394592D01*
X148473903Y-136166337D01*
X148374035Y-135952171D01*
X148238495Y-135758599D01*
X148071401Y-135591505D01*
X147885839Y-135461573D01*
X147842216Y-135406998D01*
X147835022Y-135337500D01*
X147866545Y-135275145D01*
X147885837Y-135258428D01*
X148071401Y-135128495D01*
X148238495Y-134961401D01*
X148374035Y-134767830D01*
X148473903Y-134553663D01*
X148535063Y-134325408D01*
X148555659Y-134090000D01*
X148535063Y-133854592D01*
X148473903Y-133626337D01*
X148374035Y-133412171D01*
X148238495Y-133218599D01*
X148071401Y-133051505D01*
X147885839Y-132921573D01*
X147842216Y-132866998D01*
X147835022Y-132797500D01*
X147866545Y-132735145D01*
X147885837Y-132718428D01*
X148071401Y-132588495D01*
X148238495Y-132421401D01*
X148374035Y-132227830D01*
X148473903Y-132013663D01*
X148535063Y-131785408D01*
X148555659Y-131550000D01*
X148535063Y-131314592D01*
X148473903Y-131086337D01*
X148374035Y-130872171D01*
X148238495Y-130678599D01*
X148116569Y-130556673D01*
X148083084Y-130495350D01*
X148088068Y-130425658D01*
X148129940Y-130369725D01*
X148160915Y-130352810D01*
X148292331Y-130303796D01*
X148407546Y-130217546D01*
X148493796Y-130102331D01*
X148544091Y-129967483D01*
X148550500Y-129907873D01*
X148550499Y-128112128D01*
X148544091Y-128052517D01*
X148493796Y-127917669D01*
X148407546Y-127802454D01*
X148292331Y-127716204D01*
X148157483Y-127665909D01*
X148097873Y-127659500D01*
X148094550Y-127659500D01*
X146305439Y-127659500D01*
X146305420Y-127659500D01*
X146302128Y-127659501D01*
X146298848Y-127659853D01*
X146298840Y-127659854D01*
X146242515Y-127665909D01*
X146107669Y-127716204D01*
X145992454Y-127802454D01*
X145906204Y-127917668D01*
X145855910Y-128052515D01*
X145855909Y-128052517D01*
X145849500Y-128112127D01*
X145849500Y-128115448D01*
X145849500Y-128115449D01*
X145849500Y-129904560D01*
X145849500Y-129904578D01*
X145849501Y-129907872D01*
X145855909Y-129967483D01*
X145906204Y-130102331D01*
X145992454Y-130217546D01*
X146107669Y-130303796D01*
X146219907Y-130345658D01*
X146239082Y-130352810D01*
X146295016Y-130394681D01*
X146319433Y-130460146D01*
X146304581Y-130528419D01*
X146283431Y-130556673D01*
X146161503Y-130678601D01*
X146025965Y-130872170D01*
X145926097Y-131086336D01*
X145864936Y-131314592D01*
X145844340Y-131549999D01*
X145864936Y-131785407D01*
X145909709Y-131952501D01*
X145926097Y-132013663D01*
X146025965Y-132227830D01*
X146161505Y-132421401D01*
X146328599Y-132588495D01*
X146514160Y-132718426D01*
X146557783Y-132773002D01*
X146564976Y-132842501D01*
X146533454Y-132904855D01*
X146514159Y-132921575D01*
X146328595Y-133051508D01*
X146161505Y-133218598D01*
X146025965Y-133412170D01*
X145926097Y-133626336D01*
X145864936Y-133854592D01*
X145844340Y-134090000D01*
X145864936Y-134325407D01*
X145909709Y-134492501D01*
X145926097Y-134553663D01*
X146025965Y-134767830D01*
X146161505Y-134961401D01*
X146328599Y-135128495D01*
X146514160Y-135258426D01*
X146557783Y-135313002D01*
X146564976Y-135382501D01*
X146533454Y-135444855D01*
X146514159Y-135461575D01*
X146328595Y-135591508D01*
X146161505Y-135758598D01*
X146025965Y-135952170D01*
X145926097Y-136166336D01*
X145864936Y-136394592D01*
X145844340Y-136630000D01*
X145864936Y-136865407D01*
X145909709Y-137032501D01*
X145926097Y-137093663D01*
X146025965Y-137307830D01*
X146161505Y-137501401D01*
X146328599Y-137668495D01*
X146514160Y-137798426D01*
X146557783Y-137853002D01*
X146564976Y-137922501D01*
X146533454Y-137984855D01*
X146514159Y-138001575D01*
X146328595Y-138131508D01*
X146161505Y-138298598D01*
X146025965Y-138492170D01*
X145926097Y-138706336D01*
X145864936Y-138934592D01*
X145844340Y-139169999D01*
X145864936Y-139405407D01*
X145893365Y-139511505D01*
X145926097Y-139633663D01*
X146025965Y-139847830D01*
X146161505Y-140041401D01*
X146328599Y-140208495D01*
X146514160Y-140338426D01*
X146557783Y-140393002D01*
X146564976Y-140462501D01*
X146533454Y-140524855D01*
X146514159Y-140541575D01*
X146328595Y-140671508D01*
X146161505Y-140838598D01*
X146025965Y-141032170D01*
X145926097Y-141246336D01*
X145864936Y-141474592D01*
X145844340Y-141710000D01*
X139710387Y-141710000D01*
X139692712Y-141681344D01*
X139692711Y-141681342D01*
X139568657Y-141557288D01*
X139419334Y-141465186D01*
X139252797Y-141410000D01*
X139153141Y-141399819D01*
X139153122Y-141399818D01*
X139150009Y-141399500D01*
X139146860Y-141399500D01*
X137953140Y-141399500D01*
X137953120Y-141399500D01*
X137949992Y-141399501D01*
X137946860Y-141399820D01*
X137946858Y-141399821D01*
X137847203Y-141410000D01*
X137680665Y-141465186D01*
X137606944Y-141510657D01*
X137539551Y-141529097D01*
X137472888Y-141508174D01*
X137454167Y-141492799D01*
X136025728Y-140064360D01*
X136013946Y-140050727D01*
X136007005Y-140041404D01*
X135999610Y-140031470D01*
X135961667Y-139999631D01*
X135953691Y-139992323D01*
X135952329Y-139990961D01*
X135949777Y-139988409D01*
X135925444Y-139969169D01*
X135922647Y-139966890D01*
X135864251Y-139917890D01*
X135847821Y-139907422D01*
X135778691Y-139875186D01*
X135775447Y-139873615D01*
X135707306Y-139839394D01*
X135688903Y-139832997D01*
X135614211Y-139817574D01*
X135610692Y-139816794D01*
X135536490Y-139799208D01*
X135517121Y-139797229D01*
X135440869Y-139799448D01*
X135437263Y-139799500D01*
X134824500Y-139799500D01*
X134757461Y-139779815D01*
X134711706Y-139727011D01*
X134700500Y-139675500D01*
X134700500Y-138300000D01*
X137250001Y-138300000D01*
X137250001Y-139596829D01*
X137250321Y-139603111D01*
X137260493Y-139702695D01*
X137315642Y-139869122D01*
X137407683Y-140018345D01*
X137531654Y-140142316D01*
X137680877Y-140234357D01*
X137847303Y-140289506D01*
X137946890Y-140299680D01*
X137953168Y-140299999D01*
X138299999Y-140299999D01*
X138300000Y-140299998D01*
X138300000Y-138300000D01*
X138800000Y-138300000D01*
X138800000Y-140299999D01*
X139146829Y-140299999D01*
X139153111Y-140299678D01*
X139252695Y-140289506D01*
X139419122Y-140234357D01*
X139568345Y-140142316D01*
X139692316Y-140018345D01*
X139784357Y-139869122D01*
X139839506Y-139702696D01*
X139849680Y-139603109D01*
X139850000Y-139596831D01*
X139850000Y-138300000D01*
X138800000Y-138300000D01*
X138300000Y-138300000D01*
X137250001Y-138300000D01*
X134700500Y-138300000D01*
X134700500Y-137800000D01*
X137250000Y-137800000D01*
X138300000Y-137800000D01*
X138300000Y-135800000D01*
X138800000Y-135800000D01*
X138800000Y-137800000D01*
X139849999Y-137800000D01*
X139849999Y-136503170D01*
X139849678Y-136496888D01*
X139839506Y-136397304D01*
X139784357Y-136230877D01*
X139692316Y-136081654D01*
X139568345Y-135957683D01*
X139419122Y-135865642D01*
X139252696Y-135810493D01*
X139153109Y-135800319D01*
X139146832Y-135800000D01*
X138800000Y-135800000D01*
X138300000Y-135800000D01*
X137953171Y-135800000D01*
X137946888Y-135800321D01*
X137847304Y-135810493D01*
X137680877Y-135865642D01*
X137531654Y-135957683D01*
X137407683Y-136081654D01*
X137315642Y-136230877D01*
X137260493Y-136397303D01*
X137250319Y-136496890D01*
X137250000Y-136503168D01*
X137250000Y-137800000D01*
X134700500Y-137800000D01*
X134700500Y-130724500D01*
X134720185Y-130657461D01*
X134772989Y-130611706D01*
X134824500Y-130600500D01*
X139686294Y-130600500D01*
X139704264Y-130601809D01*
X139708320Y-130602402D01*
X139728023Y-130605289D01*
X139777368Y-130600972D01*
X139788176Y-130600500D01*
X139790100Y-130600500D01*
X139793709Y-130600500D01*
X139824550Y-130596894D01*
X139828031Y-130596539D01*
X139902797Y-130589999D01*
X139902797Y-130589998D01*
X139904052Y-130589889D01*
X139923062Y-130585674D01*
X139924250Y-130585241D01*
X139924255Y-130585241D01*
X139994820Y-130559557D01*
X139998095Y-130558419D01*
X140069334Y-130534814D01*
X140069336Y-130534812D01*
X140070536Y-130534415D01*
X140088063Y-130525929D01*
X140089112Y-130525238D01*
X140089117Y-130525237D01*
X140151806Y-130484005D01*
X140154798Y-130482099D01*
X140218656Y-130442712D01*
X140218656Y-130442711D01*
X140219729Y-130442050D01*
X140234824Y-130429753D01*
X140235692Y-130428832D01*
X140235696Y-130428830D01*
X140287185Y-130374253D01*
X140289631Y-130371735D01*
X148837819Y-121823546D01*
X148899142Y-121790062D01*
X148968834Y-121795046D01*
X149024767Y-121836918D01*
X149049184Y-121902382D01*
X149049500Y-121911228D01*
X149049500Y-146025500D01*
X149029815Y-146092539D01*
X148977011Y-146138294D01*
X148925500Y-146149500D01*
X110174500Y-146149500D01*
X110107461Y-146129815D01*
X110061706Y-146077011D01*
X110050500Y-146025500D01*
X110050500Y-143900000D01*
X119250001Y-143900000D01*
X119250001Y-145196829D01*
X119250321Y-145203111D01*
X119260493Y-145302695D01*
X119315642Y-145469122D01*
X119407683Y-145618345D01*
X119531654Y-145742316D01*
X119680877Y-145834357D01*
X119847303Y-145889506D01*
X119946890Y-145899680D01*
X119953168Y-145899999D01*
X120299999Y-145899999D01*
X120300000Y-145899998D01*
X120300000Y-143900000D01*
X120800000Y-143900000D01*
X120800000Y-145899999D01*
X121146829Y-145899999D01*
X121153111Y-145899678D01*
X121252695Y-145889506D01*
X121419122Y-145834357D01*
X121568345Y-145742316D01*
X121692316Y-145618345D01*
X121784357Y-145469122D01*
X121839506Y-145302696D01*
X121849680Y-145203109D01*
X121850000Y-145196831D01*
X121850000Y-143900000D01*
X120800000Y-143900000D01*
X120300000Y-143900000D01*
X119250001Y-143900000D01*
X110050500Y-143900000D01*
X110050500Y-143400000D01*
X119250000Y-143400000D01*
X120300000Y-143400000D01*
X120300000Y-143399999D01*
X120799999Y-143399999D01*
X120800000Y-143400000D01*
X121849999Y-143400000D01*
X121849998Y-142103170D01*
X121849678Y-142096888D01*
X121839506Y-141997304D01*
X121784357Y-141830877D01*
X121692316Y-141681654D01*
X121568345Y-141557683D01*
X121419122Y-141465642D01*
X121252696Y-141410493D01*
X121153109Y-141400319D01*
X121146832Y-141400000D01*
X120800000Y-141400000D01*
X120799999Y-143399999D01*
X120300000Y-143399999D01*
X120300000Y-141400000D01*
X119953171Y-141400000D01*
X119946888Y-141400321D01*
X119847304Y-141410493D01*
X119680877Y-141465642D01*
X119531654Y-141557683D01*
X119407683Y-141681654D01*
X119315642Y-141830877D01*
X119260493Y-141997303D01*
X119250319Y-142096890D01*
X119250000Y-142103168D01*
X119250000Y-143400000D01*
X110050500Y-143400000D01*
X110050500Y-86274500D01*
X110070185Y-86207461D01*
X110122989Y-86161706D01*
X110174500Y-86150500D01*
X148925500Y-86150500D01*
X148992539Y-86170185D01*
G37*
%TD.AperFunction*%
%TA.AperFunction,Conductor*%
G36*
X130115703Y-127077517D02*
G01*
X130122181Y-127083549D01*
X133163181Y-130124549D01*
X133196666Y-130185872D01*
X133199500Y-130212230D01*
X133199500Y-139675500D01*
X133179815Y-139742539D01*
X133127011Y-139788294D01*
X133075500Y-139799500D01*
X132037701Y-139799500D01*
X131970662Y-139779815D01*
X131936126Y-139746623D01*
X131888494Y-139678598D01*
X131721404Y-139511508D01*
X131721401Y-139511505D01*
X131535402Y-139381267D01*
X131491780Y-139326692D01*
X131484587Y-139257193D01*
X131516109Y-139194839D01*
X131535405Y-139178119D01*
X131611373Y-139124925D01*
X130982533Y-138496086D01*
X130992315Y-138494680D01*
X131123100Y-138434952D01*
X131231761Y-138340798D01*
X131309493Y-138219844D01*
X131333076Y-138139524D01*
X131964925Y-138771373D01*
X132023600Y-138687576D01*
X132123430Y-138473492D01*
X132184569Y-138245318D01*
X132205157Y-138010000D01*
X132184569Y-137774681D01*
X132123430Y-137546507D01*
X132023599Y-137332421D01*
X131964926Y-137248626D01*
X131964925Y-137248625D01*
X131333076Y-137880475D01*
X131309493Y-137800156D01*
X131231761Y-137679202D01*
X131123100Y-137585048D01*
X130992315Y-137525320D01*
X130982533Y-137523913D01*
X131611373Y-136895073D01*
X131611373Y-136895072D01*
X131534969Y-136841574D01*
X131491344Y-136786997D01*
X131484150Y-136717499D01*
X131515673Y-136655144D01*
X131534969Y-136638424D01*
X131611373Y-136584925D01*
X130982533Y-135956086D01*
X130992315Y-135954680D01*
X131123100Y-135894952D01*
X131231761Y-135800798D01*
X131309493Y-135679844D01*
X131333076Y-135599524D01*
X131964925Y-136231373D01*
X132023600Y-136147576D01*
X132123430Y-135933492D01*
X132184569Y-135705318D01*
X132205157Y-135469999D01*
X132184569Y-135234681D01*
X132123430Y-135006507D01*
X132023599Y-134792421D01*
X131964926Y-134708626D01*
X131964925Y-134708625D01*
X131333076Y-135340474D01*
X131309493Y-135260156D01*
X131231761Y-135139202D01*
X131123100Y-135045048D01*
X130992315Y-134985320D01*
X130982533Y-134983913D01*
X131611373Y-134355073D01*
X131611373Y-134355072D01*
X131534969Y-134301574D01*
X131491344Y-134246997D01*
X131484150Y-134177499D01*
X131515673Y-134115144D01*
X131534969Y-134098424D01*
X131611373Y-134044925D01*
X130982533Y-133416086D01*
X130992315Y-133414680D01*
X131123100Y-133354952D01*
X131231761Y-133260798D01*
X131309493Y-133139844D01*
X131333076Y-133059524D01*
X131964925Y-133691373D01*
X132023600Y-133607576D01*
X132123430Y-133393492D01*
X132184569Y-133165318D01*
X132205157Y-132930000D01*
X132184569Y-132694681D01*
X132123430Y-132466507D01*
X132023599Y-132252421D01*
X131964926Y-132168626D01*
X131964925Y-132168625D01*
X131333076Y-132800474D01*
X131309493Y-132720156D01*
X131231761Y-132599202D01*
X131123100Y-132505048D01*
X130992315Y-132445320D01*
X130982533Y-132443913D01*
X131611373Y-131815073D01*
X131611373Y-131815072D01*
X131535405Y-131761880D01*
X131491780Y-131707304D01*
X131484586Y-131637805D01*
X131516108Y-131575451D01*
X131535399Y-131558734D01*
X131721401Y-131428495D01*
X131888495Y-131261401D01*
X132024035Y-131067830D01*
X132123903Y-130853663D01*
X132185063Y-130625408D01*
X132205659Y-130390000D01*
X132204284Y-130374289D01*
X132185063Y-130154592D01*
X132171060Y-130102331D01*
X132123903Y-129926337D01*
X132024035Y-129712171D01*
X131888495Y-129518599D01*
X131721401Y-129351505D01*
X131527830Y-129215965D01*
X131313663Y-129116097D01*
X131241145Y-129096666D01*
X131085407Y-129054936D01*
X130850000Y-129034340D01*
X130614592Y-129054936D01*
X130386336Y-129116097D01*
X130172170Y-129215965D01*
X130105623Y-129262562D01*
X130039417Y-129284889D01*
X129971650Y-129267879D01*
X129923837Y-129216930D01*
X129910500Y-129160987D01*
X129910500Y-127171230D01*
X129930185Y-127104191D01*
X129982989Y-127058436D01*
X130052147Y-127048492D01*
X130115703Y-127077517D01*
G37*
%TD.AperFunction*%
%TA.AperFunction,Conductor*%
G36*
X130390507Y-138219844D02*
G01*
X130468239Y-138340798D01*
X130576900Y-138434952D01*
X130707685Y-138494680D01*
X130717466Y-138496086D01*
X130088625Y-139124925D01*
X130164594Y-139178119D01*
X130208219Y-139232696D01*
X130215413Y-139302194D01*
X130183890Y-139364549D01*
X130164595Y-139381269D01*
X129978595Y-139511508D01*
X129803833Y-139686270D01*
X129801122Y-139683559D01*
X129762210Y-139714646D01*
X129692710Y-139721820D01*
X129630364Y-139690281D01*
X129597539Y-139638890D01*
X129594814Y-139630666D01*
X129502712Y-139481344D01*
X129502711Y-139481342D01*
X129378657Y-139357288D01*
X129229334Y-139265186D01*
X129156967Y-139241206D01*
X129099522Y-139201433D01*
X129072699Y-139136917D01*
X129072585Y-139126137D01*
X128442533Y-138496086D01*
X128452315Y-138494680D01*
X128583100Y-138434952D01*
X128691761Y-138340798D01*
X128769493Y-138219844D01*
X128793076Y-138139524D01*
X129424925Y-138771373D01*
X129478424Y-138694969D01*
X129533001Y-138651344D01*
X129602499Y-138644150D01*
X129664854Y-138675673D01*
X129681574Y-138694969D01*
X129735072Y-138771373D01*
X129735073Y-138771373D01*
X130366923Y-138139523D01*
X130390507Y-138219844D01*
G37*
%TD.AperFunction*%
%TA.AperFunction,Conductor*%
G36*
X130390507Y-135679844D02*
G01*
X130468239Y-135800798D01*
X130576900Y-135894952D01*
X130707685Y-135954680D01*
X130717466Y-135956086D01*
X130088625Y-136584925D01*
X130165031Y-136638425D01*
X130208655Y-136693002D01*
X130215848Y-136762501D01*
X130184326Y-136824855D01*
X130165029Y-136841576D01*
X130088625Y-136895072D01*
X130717466Y-137523913D01*
X130707685Y-137525320D01*
X130576900Y-137585048D01*
X130468239Y-137679202D01*
X130390507Y-137800156D01*
X130366923Y-137880475D01*
X129735073Y-137248625D01*
X129735072Y-137248626D01*
X129681574Y-137325030D01*
X129626998Y-137368655D01*
X129557499Y-137375849D01*
X129495144Y-137344326D01*
X129478424Y-137325030D01*
X129424925Y-137248626D01*
X129424925Y-137248625D01*
X128793076Y-137880475D01*
X128769493Y-137800156D01*
X128691761Y-137679202D01*
X128583100Y-137585048D01*
X128452315Y-137525320D01*
X128442533Y-137523913D01*
X129071373Y-136895073D01*
X129071373Y-136895072D01*
X128994969Y-136841574D01*
X128951344Y-136786997D01*
X128944150Y-136717499D01*
X128975673Y-136655144D01*
X128994969Y-136638424D01*
X129071373Y-136584925D01*
X128442533Y-135956086D01*
X128452315Y-135954680D01*
X128583100Y-135894952D01*
X128691761Y-135800798D01*
X128769493Y-135679844D01*
X128793077Y-135599523D01*
X129424925Y-136231372D01*
X129478424Y-136154969D01*
X129533001Y-136111344D01*
X129602499Y-136104150D01*
X129664854Y-136135673D01*
X129681574Y-136154969D01*
X129735072Y-136231373D01*
X129735073Y-136231373D01*
X130366923Y-135599523D01*
X130390507Y-135679844D01*
G37*
%TD.AperFunction*%
%TA.AperFunction,Conductor*%
G36*
X130390507Y-133139844D02*
G01*
X130468239Y-133260798D01*
X130576900Y-133354952D01*
X130707685Y-133414680D01*
X130717466Y-133416086D01*
X130088625Y-134044925D01*
X130165031Y-134098425D01*
X130208655Y-134153002D01*
X130215848Y-134222501D01*
X130184326Y-134284855D01*
X130165029Y-134301576D01*
X130088625Y-134355072D01*
X130717466Y-134983913D01*
X130707685Y-134985320D01*
X130576900Y-135045048D01*
X130468239Y-135139202D01*
X130390507Y-135260156D01*
X130366923Y-135340475D01*
X129735073Y-134708625D01*
X129735072Y-134708626D01*
X129681574Y-134785030D01*
X129626998Y-134828655D01*
X129557499Y-134835849D01*
X129495144Y-134804326D01*
X129478424Y-134785030D01*
X129424925Y-134708626D01*
X129424925Y-134708625D01*
X128793076Y-135340474D01*
X128769493Y-135260156D01*
X128691761Y-135139202D01*
X128583100Y-135045048D01*
X128452315Y-134985320D01*
X128442533Y-134983913D01*
X129071373Y-134355073D01*
X129071373Y-134355072D01*
X128994969Y-134301574D01*
X128951344Y-134246997D01*
X128944150Y-134177499D01*
X128975673Y-134115144D01*
X128994969Y-134098424D01*
X129071373Y-134044925D01*
X128442533Y-133416086D01*
X128452315Y-133414680D01*
X128583100Y-133354952D01*
X128691761Y-133260798D01*
X128769493Y-133139844D01*
X128793076Y-133059524D01*
X129424925Y-133691373D01*
X129478424Y-133614969D01*
X129533001Y-133571344D01*
X129602499Y-133564150D01*
X129664854Y-133595673D01*
X129681574Y-133614969D01*
X129735072Y-133691373D01*
X129735073Y-133691373D01*
X130366923Y-133059523D01*
X130390507Y-133139844D01*
G37*
%TD.AperFunction*%
%TA.AperFunction,Conductor*%
G36*
X129729338Y-131160185D02*
G01*
X129763871Y-131193373D01*
X129811505Y-131261401D01*
X129978599Y-131428495D01*
X130164596Y-131558732D01*
X130208219Y-131613307D01*
X130215412Y-131682806D01*
X130183890Y-131745160D01*
X130164594Y-131761881D01*
X130088626Y-131815073D01*
X130717466Y-132443913D01*
X130707685Y-132445320D01*
X130576900Y-132505048D01*
X130468239Y-132599202D01*
X130390507Y-132720156D01*
X130366923Y-132800475D01*
X129735073Y-132168625D01*
X129735072Y-132168626D01*
X129681574Y-132245030D01*
X129626998Y-132288655D01*
X129557499Y-132295849D01*
X129495144Y-132264326D01*
X129478424Y-132245030D01*
X129424925Y-132168626D01*
X129424925Y-132168625D01*
X128793076Y-132800475D01*
X128769493Y-132720156D01*
X128691761Y-132599202D01*
X128583100Y-132505048D01*
X128452315Y-132445320D01*
X128442532Y-132443913D01*
X129071373Y-131815073D01*
X129071373Y-131815072D01*
X128995405Y-131761880D01*
X128951780Y-131707304D01*
X128944586Y-131637805D01*
X128976108Y-131575451D01*
X128995399Y-131558734D01*
X129181401Y-131428495D01*
X129348495Y-131261401D01*
X129396127Y-131193374D01*
X129450703Y-131149751D01*
X129497701Y-131140500D01*
X129662299Y-131140500D01*
X129729338Y-131160185D01*
G37*
%TD.AperFunction*%
%TA.AperFunction,Conductor*%
G36*
X142206497Y-126119497D02*
G01*
X142252252Y-126172301D01*
X142262196Y-126241459D01*
X142233171Y-126305015D01*
X142227139Y-126311493D01*
X139475451Y-129063181D01*
X139414128Y-129096666D01*
X139387770Y-129099500D01*
X134312229Y-129099500D01*
X134245190Y-129079815D01*
X134224548Y-129063181D01*
X131472860Y-126311493D01*
X131439375Y-126250170D01*
X131444359Y-126180478D01*
X131486231Y-126124545D01*
X131551695Y-126100128D01*
X131560541Y-126099812D01*
X142139458Y-126099812D01*
X142206497Y-126119497D01*
G37*
%TD.AperFunction*%
%TA.AperFunction,Conductor*%
G36*
X115755808Y-96920185D02*
G01*
X115801563Y-96972989D01*
X115811507Y-97042147D01*
X115782482Y-97105703D01*
X115776450Y-97112181D01*
X115314358Y-97574272D01*
X115300727Y-97586053D01*
X115281468Y-97600391D01*
X115249635Y-97638328D01*
X115242338Y-97646292D01*
X115240972Y-97647657D01*
X115240950Y-97647681D01*
X115238409Y-97650223D01*
X115236173Y-97653050D01*
X115236171Y-97653053D01*
X115219176Y-97674546D01*
X115216902Y-97677337D01*
X115167894Y-97735744D01*
X115157418Y-97752187D01*
X115125192Y-97821294D01*
X115123622Y-97824536D01*
X115089393Y-97892692D01*
X115082996Y-97911098D01*
X115067573Y-97985788D01*
X115066793Y-97989305D01*
X115049208Y-98063506D01*
X115047229Y-98082879D01*
X115049448Y-98159129D01*
X115049500Y-98162735D01*
X115049500Y-109924554D01*
X115049290Y-109931764D01*
X115045668Y-109993933D01*
X115047616Y-110004975D01*
X115049500Y-110026509D01*
X115049500Y-111461294D01*
X115048191Y-111479264D01*
X115044711Y-111503023D01*
X115049028Y-111552368D01*
X115049500Y-111563175D01*
X115049500Y-111568709D01*
X115049916Y-111572272D01*
X115049917Y-111572282D01*
X115053098Y-111599496D01*
X115053464Y-111603082D01*
X115060109Y-111679041D01*
X115064329Y-111698071D01*
X115064758Y-111699251D01*
X115064759Y-111699255D01*
X115090413Y-111769742D01*
X115091582Y-111773107D01*
X115115580Y-111845524D01*
X115124075Y-111863072D01*
X115165979Y-111926784D01*
X115167889Y-111929782D01*
X115203881Y-111988132D01*
X115207952Y-111994732D01*
X115220253Y-112009830D01*
X115221168Y-112010693D01*
X115221170Y-112010696D01*
X115248739Y-112036706D01*
X115275708Y-112062150D01*
X115278295Y-112064663D01*
X117288181Y-114074549D01*
X117321666Y-114135872D01*
X117324500Y-114162229D01*
X117324500Y-114281616D01*
X117324754Y-114284420D01*
X117324755Y-114284424D01*
X117330913Y-114352193D01*
X117330914Y-114352196D01*
X117381522Y-114514606D01*
X117381523Y-114514607D01*
X117469528Y-114660186D01*
X117547015Y-114737673D01*
X117580500Y-114798996D01*
X117575516Y-114868688D01*
X117547015Y-114913035D01*
X117469925Y-114990124D01*
X117381980Y-115135603D01*
X117331409Y-115297893D01*
X117325255Y-115365615D01*
X117325000Y-115371244D01*
X117325000Y-115450000D01*
X118351000Y-115450000D01*
X118418039Y-115469685D01*
X118463794Y-115522489D01*
X118475000Y-115574000D01*
X118475000Y-116674999D01*
X118478753Y-116674999D01*
X118484389Y-116674743D01*
X118552104Y-116668591D01*
X118714397Y-116618018D01*
X118859873Y-116530075D01*
X118961964Y-116427984D01*
X119023287Y-116394499D01*
X119092979Y-116399483D01*
X119137325Y-116427982D01*
X119239815Y-116530472D01*
X119385394Y-116618478D01*
X119547804Y-116669086D01*
X119618384Y-116675500D01*
X119621203Y-116675500D01*
X120128797Y-116675500D01*
X120131616Y-116675500D01*
X120202196Y-116669086D01*
X120364606Y-116618478D01*
X120510185Y-116530472D01*
X120630472Y-116410185D01*
X120718478Y-116264606D01*
X120769086Y-116102196D01*
X120775500Y-116031616D01*
X120775500Y-115368384D01*
X120769086Y-115297804D01*
X120718478Y-115135394D01*
X120630472Y-114989815D01*
X120630471Y-114989813D01*
X120561819Y-114921161D01*
X120528334Y-114859838D01*
X120525500Y-114833480D01*
X120525500Y-114816519D01*
X120545185Y-114749480D01*
X120561814Y-114728842D01*
X120630472Y-114660185D01*
X120630472Y-114660184D01*
X120641119Y-114649538D01*
X120641625Y-114650044D01*
X120681897Y-114613164D01*
X120736489Y-114600500D01*
X122363511Y-114600500D01*
X122430550Y-114620185D01*
X122467295Y-114657953D01*
X122589813Y-114780471D01*
X122589815Y-114780472D01*
X122735394Y-114868478D01*
X122897804Y-114919086D01*
X122968384Y-114925500D01*
X123229192Y-114925500D01*
X123296231Y-114945185D01*
X123316873Y-114961819D01*
X123664564Y-115309510D01*
X123677911Y-115326169D01*
X123730832Y-115375864D01*
X123733629Y-115378575D01*
X123753965Y-115398911D01*
X123757036Y-115401293D01*
X123757437Y-115401604D01*
X123766323Y-115409192D01*
X123793881Y-115435071D01*
X123799607Y-115440448D01*
X123818206Y-115450673D01*
X123834466Y-115461354D01*
X123851236Y-115474362D01*
X123871046Y-115482934D01*
X123893129Y-115492491D01*
X123903620Y-115497630D01*
X123943632Y-115519627D01*
X123964196Y-115524906D01*
X123982601Y-115531208D01*
X124002074Y-115539635D01*
X124047171Y-115546777D01*
X124058586Y-115549141D01*
X124102823Y-115560500D01*
X124124045Y-115560500D01*
X124143444Y-115562027D01*
X124145799Y-115562399D01*
X124164405Y-115565347D01*
X124206319Y-115561384D01*
X124209861Y-115561050D01*
X124221530Y-115560500D01*
X124553086Y-115560500D01*
X124620125Y-115580185D01*
X124665880Y-115632989D01*
X124675824Y-115702147D01*
X124660473Y-115746500D01*
X124622820Y-115811715D01*
X124564326Y-115991742D01*
X124544540Y-116180000D01*
X124562240Y-116348410D01*
X124549670Y-116417140D01*
X124501938Y-116468163D01*
X124465142Y-116480253D01*
X124465184Y-116480379D01*
X124291300Y-116537997D01*
X124146954Y-116627031D01*
X124137325Y-116636661D01*
X124076001Y-116670145D01*
X124006310Y-116665159D01*
X123961965Y-116636659D01*
X123952732Y-116627426D01*
X123808486Y-116538453D01*
X123647606Y-116485143D01*
X123551445Y-116475319D01*
X123545168Y-116475000D01*
X123525000Y-116475000D01*
X123525000Y-118424999D01*
X123545165Y-118424999D01*
X123551447Y-118424678D01*
X123647605Y-118414856D01*
X123808484Y-118361546D01*
X123952732Y-118272572D01*
X123961963Y-118263341D01*
X124023285Y-118229854D01*
X124092977Y-118234837D01*
X124137329Y-118263341D01*
X124146957Y-118272969D01*
X124291300Y-118362002D01*
X124452292Y-118415349D01*
X124548522Y-118425180D01*
X124548523Y-118425180D01*
X124551655Y-118425500D01*
X125098344Y-118425499D01*
X125197708Y-118415349D01*
X125358697Y-118362003D01*
X125419577Y-118324451D01*
X125486967Y-118306011D01*
X125553631Y-118326933D01*
X125598401Y-118380574D01*
X125607063Y-118449905D01*
X125603750Y-118464581D01*
X125602900Y-118467504D01*
X125602704Y-118469999D01*
X125602705Y-118470000D01*
X127201000Y-118470000D01*
X127268039Y-118489685D01*
X127313794Y-118542489D01*
X127325000Y-118594000D01*
X127325000Y-118846000D01*
X127305315Y-118913039D01*
X127252511Y-118958794D01*
X127201000Y-118970000D01*
X125602704Y-118970000D01*
X125602900Y-118972488D01*
X125648719Y-119130200D01*
X125740291Y-119285040D01*
X125738252Y-119286245D01*
X125761210Y-119328288D01*
X125756226Y-119397980D01*
X125739309Y-119424306D01*
X125739893Y-119424652D01*
X125648255Y-119579602D01*
X125602402Y-119737427D01*
X125599691Y-119771871D01*
X125599690Y-119771886D01*
X125599500Y-119774306D01*
X125599500Y-120205694D01*
X125599690Y-120208114D01*
X125599691Y-120208128D01*
X125602402Y-120242572D01*
X125648255Y-120400397D01*
X125739893Y-120555348D01*
X125737870Y-120556543D01*
X125760858Y-120598642D01*
X125755874Y-120668334D01*
X125739216Y-120694252D01*
X125739893Y-120694652D01*
X125648255Y-120849602D01*
X125602402Y-121007427D01*
X125599691Y-121041871D01*
X125599690Y-121041886D01*
X125599500Y-121044306D01*
X125599500Y-121475694D01*
X125599690Y-121478114D01*
X125599691Y-121478128D01*
X125602402Y-121512572D01*
X125648255Y-121670397D01*
X125687833Y-121737319D01*
X125731919Y-121811865D01*
X125848135Y-121928081D01*
X125887620Y-121951432D01*
X125989602Y-122011744D01*
X126147427Y-122057597D01*
X126147431Y-122057598D01*
X126184306Y-122060500D01*
X126186751Y-122060500D01*
X127963249Y-122060500D01*
X127965694Y-122060500D01*
X128002569Y-122057598D01*
X128160398Y-122011744D01*
X128222381Y-121975087D01*
X128290102Y-121957905D01*
X128356365Y-121980064D01*
X128400128Y-122034530D01*
X128409500Y-122081820D01*
X128409500Y-122475500D01*
X128389815Y-122542539D01*
X128337011Y-122588294D01*
X128285500Y-122599500D01*
X124479594Y-122599500D01*
X124412555Y-122579815D01*
X124366800Y-122527011D01*
X124356856Y-122457853D01*
X124372207Y-122413500D01*
X124427179Y-122318284D01*
X124463462Y-122206616D01*
X124485674Y-122138256D01*
X124505460Y-121950000D01*
X124485674Y-121761744D01*
X124440530Y-121622806D01*
X124427179Y-121581715D01*
X124332533Y-121417783D01*
X124205870Y-121277110D01*
X124052730Y-121165848D01*
X123879802Y-121088855D01*
X123694648Y-121049500D01*
X123694646Y-121049500D01*
X123505354Y-121049500D01*
X123492321Y-121049500D01*
X123492321Y-121048502D01*
X123435695Y-121044178D01*
X123379963Y-121002038D01*
X123355862Y-120936457D01*
X123371042Y-120868256D01*
X123373453Y-120864085D01*
X123418478Y-120789606D01*
X123469086Y-120627196D01*
X123475500Y-120556616D01*
X123475500Y-120043384D01*
X123469086Y-119972804D01*
X123418478Y-119810394D01*
X123337267Y-119676056D01*
X123319432Y-119608502D01*
X123325454Y-119573588D01*
X123327175Y-119568290D01*
X123327179Y-119568284D01*
X123385674Y-119388256D01*
X123405460Y-119200000D01*
X123385674Y-119011744D01*
X123331820Y-118846000D01*
X123327179Y-118831715D01*
X123232533Y-118667783D01*
X123105871Y-118527112D01*
X123076114Y-118505492D01*
X123033449Y-118450162D01*
X123025000Y-118405174D01*
X123025000Y-117700000D01*
X122325001Y-117700000D01*
X122325001Y-117745165D01*
X122325321Y-117751447D01*
X122335143Y-117847605D01*
X122388452Y-118008483D01*
X122456712Y-118119149D01*
X122475152Y-118186542D01*
X122454229Y-118253205D01*
X122400587Y-118297975D01*
X122376954Y-118305536D01*
X122220197Y-118338855D01*
X122047269Y-118415848D01*
X121894129Y-118527110D01*
X121767466Y-118667784D01*
X121732387Y-118728543D01*
X121681820Y-118776759D01*
X121613213Y-118789981D01*
X121548348Y-118764013D01*
X121517613Y-118728543D01*
X121482533Y-118667784D01*
X121355870Y-118527110D01*
X121202730Y-118415848D01*
X121029802Y-118338855D01*
X120844648Y-118299500D01*
X120844646Y-118299500D01*
X120655354Y-118299500D01*
X120655352Y-118299500D01*
X120470197Y-118338855D01*
X120297269Y-118415848D01*
X120144129Y-118527110D01*
X120017464Y-118667785D01*
X119982385Y-118728544D01*
X119931818Y-118776759D01*
X119863210Y-118789981D01*
X119798346Y-118764013D01*
X119767612Y-118728543D01*
X119732533Y-118667784D01*
X119732532Y-118667782D01*
X119605870Y-118527110D01*
X119452730Y-118415848D01*
X119279802Y-118338855D01*
X119094648Y-118299500D01*
X119094646Y-118299500D01*
X118905354Y-118299500D01*
X118905352Y-118299500D01*
X118720197Y-118338855D01*
X118547269Y-118415848D01*
X118394129Y-118527110D01*
X118267466Y-118667784D01*
X118232387Y-118728543D01*
X118181820Y-118776759D01*
X118113213Y-118789981D01*
X118048348Y-118764013D01*
X118017613Y-118728543D01*
X117982533Y-118667784D01*
X117855870Y-118527110D01*
X117702730Y-118415848D01*
X117529802Y-118338855D01*
X117344648Y-118299500D01*
X117344646Y-118299500D01*
X117155354Y-118299500D01*
X117155352Y-118299500D01*
X116970197Y-118338855D01*
X116797269Y-118415848D01*
X116644129Y-118527110D01*
X116517466Y-118667784D01*
X116482387Y-118728543D01*
X116431820Y-118776759D01*
X116363213Y-118789981D01*
X116298348Y-118764013D01*
X116267613Y-118728543D01*
X116232533Y-118667784D01*
X116105870Y-118527110D01*
X115952730Y-118415848D01*
X115779802Y-118338855D01*
X115594648Y-118299500D01*
X115594646Y-118299500D01*
X115405354Y-118299500D01*
X115405352Y-118299500D01*
X115220197Y-118338855D01*
X115047269Y-118415848D01*
X114894129Y-118527110D01*
X114767466Y-118667783D01*
X114672820Y-118831715D01*
X114642431Y-118925246D01*
X114602994Y-118982921D01*
X114538635Y-119010120D01*
X114469789Y-118998205D01*
X114418313Y-118950961D01*
X114400500Y-118886928D01*
X114400500Y-117200000D01*
X122325000Y-117200000D01*
X123025000Y-117200000D01*
X123025000Y-116475000D01*
X123004836Y-116475000D01*
X122998550Y-116475321D01*
X122902394Y-116485143D01*
X122741513Y-116538453D01*
X122597267Y-116627426D01*
X122477426Y-116747267D01*
X122388453Y-116891513D01*
X122335143Y-117052393D01*
X122325319Y-117148554D01*
X122325000Y-117154832D01*
X122325000Y-117200000D01*
X114400500Y-117200000D01*
X114400500Y-115950000D01*
X117325001Y-115950000D01*
X117325001Y-116028753D01*
X117325256Y-116034389D01*
X117331408Y-116102104D01*
X117381981Y-116264397D01*
X117469925Y-116409875D01*
X117590124Y-116530074D01*
X117735603Y-116618019D01*
X117897893Y-116668590D01*
X117965620Y-116674745D01*
X117971238Y-116674999D01*
X117974999Y-116674998D01*
X117975000Y-116674998D01*
X117975000Y-115950000D01*
X117325001Y-115950000D01*
X114400500Y-115950000D01*
X114400500Y-105175502D01*
X114402841Y-105154299D01*
X114402759Y-105151705D01*
X114402760Y-105151703D01*
X114400561Y-105081736D01*
X114400500Y-105077841D01*
X114400500Y-105052976D01*
X114400500Y-105049075D01*
X114399948Y-105044709D01*
X114399030Y-105033055D01*
X114397597Y-104987431D01*
X114391675Y-104967048D01*
X114387732Y-104948011D01*
X114385071Y-104926942D01*
X114368264Y-104884492D01*
X114364483Y-104873448D01*
X114351745Y-104829604D01*
X114351744Y-104829603D01*
X114351744Y-104829601D01*
X114340934Y-104811322D01*
X114332380Y-104793862D01*
X114324568Y-104774129D01*
X114297723Y-104737180D01*
X114291332Y-104727451D01*
X114268081Y-104688135D01*
X114253068Y-104673122D01*
X114240435Y-104658330D01*
X114227963Y-104641163D01*
X114192779Y-104612056D01*
X114184140Y-104604194D01*
X113247709Y-103667763D01*
X113214224Y-103606440D01*
X113215615Y-103547988D01*
X113235063Y-103475408D01*
X113255659Y-103240000D01*
X113243596Y-103102128D01*
X113235063Y-103004592D01*
X113213671Y-102924755D01*
X113173903Y-102776337D01*
X113074035Y-102562171D01*
X112938495Y-102368599D01*
X112771401Y-102201505D01*
X112585839Y-102071573D01*
X112542215Y-102016997D01*
X112535023Y-101947498D01*
X112566545Y-101885144D01*
X112585831Y-101868432D01*
X112771401Y-101738495D01*
X112938495Y-101571401D01*
X113074035Y-101377830D01*
X113173903Y-101163663D01*
X113235063Y-100935408D01*
X113255659Y-100700000D01*
X113248641Y-100619791D01*
X113235063Y-100464592D01*
X113227040Y-100434650D01*
X113173903Y-100236337D01*
X113074035Y-100022171D01*
X112938495Y-99828599D01*
X112771401Y-99661505D01*
X112585839Y-99531573D01*
X112542216Y-99476998D01*
X112535022Y-99407500D01*
X112566545Y-99345145D01*
X112585837Y-99328428D01*
X112771401Y-99198495D01*
X112938495Y-99031401D01*
X113074035Y-98837830D01*
X113173903Y-98623663D01*
X113235063Y-98395408D01*
X113255659Y-98160000D01*
X113235063Y-97924592D01*
X113215615Y-97852010D01*
X113217278Y-97782161D01*
X113247709Y-97732236D01*
X113644695Y-97335251D01*
X114043126Y-96936819D01*
X114104450Y-96903334D01*
X114130808Y-96900500D01*
X115688769Y-96900500D01*
X115755808Y-96920185D01*
G37*
%TD.AperFunction*%
%TA.AperFunction,Conductor*%
G36*
X128352539Y-110720185D02*
G01*
X128398294Y-110772989D01*
X128409500Y-110824500D01*
X128409500Y-112818179D01*
X128389815Y-112885218D01*
X128337011Y-112930973D01*
X128267853Y-112940917D01*
X128222379Y-112924911D01*
X128160397Y-112888255D01*
X128002572Y-112842402D01*
X127968128Y-112839691D01*
X127968114Y-112839690D01*
X127965694Y-112839500D01*
X126184306Y-112839500D01*
X126181886Y-112839690D01*
X126181871Y-112839691D01*
X126147427Y-112842402D01*
X125989602Y-112888255D01*
X125847606Y-112972232D01*
X125784485Y-112989500D01*
X125270504Y-112989500D01*
X125249290Y-112987158D01*
X125245569Y-112987275D01*
X125204791Y-112981722D01*
X125202198Y-112980914D01*
X125134424Y-112974755D01*
X125134420Y-112974754D01*
X125131616Y-112974500D01*
X125128797Y-112974500D01*
X124870808Y-112974500D01*
X124803769Y-112954815D01*
X124783127Y-112938181D01*
X123645434Y-111800488D01*
X123632091Y-111783833D01*
X123579166Y-111734134D01*
X123576369Y-111731423D01*
X123558789Y-111713843D01*
X123556035Y-111711089D01*
X123552956Y-111708701D01*
X123552951Y-111708696D01*
X123552548Y-111708383D01*
X123543669Y-111700800D01*
X123526201Y-111684397D01*
X123510393Y-111669552D01*
X123510392Y-111669551D01*
X123491793Y-111659326D01*
X123475532Y-111648645D01*
X123466063Y-111641300D01*
X123458764Y-111635638D01*
X123416870Y-111617508D01*
X123406379Y-111612369D01*
X123366367Y-111590372D01*
X123345800Y-111585091D01*
X123327398Y-111578791D01*
X123307924Y-111570364D01*
X123262837Y-111563223D01*
X123251398Y-111560854D01*
X123207178Y-111549500D01*
X123207177Y-111549500D01*
X123185955Y-111549500D01*
X123166556Y-111547973D01*
X123145596Y-111544653D01*
X123145595Y-111544653D01*
X123123558Y-111546736D01*
X123100139Y-111548950D01*
X123088470Y-111549500D01*
X120736489Y-111549500D01*
X120669450Y-111529815D01*
X120632704Y-111492046D01*
X120510186Y-111369528D01*
X120392676Y-111298491D01*
X120364606Y-111281522D01*
X120214189Y-111234651D01*
X120202193Y-111230913D01*
X120134424Y-111224755D01*
X120134420Y-111224754D01*
X120131616Y-111224500D01*
X119618384Y-111224500D01*
X119615580Y-111224754D01*
X119615575Y-111224755D01*
X119547806Y-111230913D01*
X119385390Y-111281523D01*
X119321816Y-111319955D01*
X119254261Y-111337791D01*
X119187788Y-111316273D01*
X119143500Y-111262232D01*
X119134346Y-111200876D01*
X119135671Y-111188263D01*
X119135674Y-111188256D01*
X119155460Y-111000000D01*
X119138376Y-110837458D01*
X119150945Y-110768732D01*
X119198677Y-110717708D01*
X119261697Y-110700500D01*
X128285500Y-110700500D01*
X128352539Y-110720185D01*
G37*
%TD.AperFunction*%
%TA.AperFunction,Conductor*%
G36*
X134617278Y-110720185D02*
G01*
X134663033Y-110772989D01*
X134672977Y-110842147D01*
X134645779Y-110903544D01*
X134622055Y-110932219D01*
X134614196Y-110940856D01*
X134366871Y-111188181D01*
X134305548Y-111221666D01*
X134279190Y-111224500D01*
X134004805Y-111224500D01*
X134004785Y-111224500D01*
X134001656Y-111224501D01*
X133998524Y-111224820D01*
X133998522Y-111224821D01*
X133902292Y-111234650D01*
X133741300Y-111287997D01*
X133596955Y-111377031D01*
X133477031Y-111496955D01*
X133387997Y-111641300D01*
X133334650Y-111802292D01*
X133324819Y-111898522D01*
X133324817Y-111898542D01*
X133324500Y-111901655D01*
X133324500Y-111904802D01*
X133324500Y-111904803D01*
X133324500Y-112495194D01*
X133324500Y-112495213D01*
X133324501Y-112498344D01*
X133324820Y-112501476D01*
X133324821Y-112501477D01*
X133334650Y-112597707D01*
X133387997Y-112758699D01*
X133409510Y-112793576D01*
X133427951Y-112860968D01*
X133407029Y-112927632D01*
X133353387Y-112972402D01*
X133284056Y-112981063D01*
X133240851Y-112965405D01*
X133110397Y-112888255D01*
X132952572Y-112842402D01*
X132918128Y-112839691D01*
X132918114Y-112839690D01*
X132915694Y-112839500D01*
X131134306Y-112839500D01*
X131131886Y-112839690D01*
X131131871Y-112839691D01*
X131097427Y-112842402D01*
X130939602Y-112888255D01*
X130798134Y-112971919D01*
X130681919Y-113088134D01*
X130598255Y-113229602D01*
X130552402Y-113387427D01*
X130549691Y-113421871D01*
X130549690Y-113421886D01*
X130549500Y-113424306D01*
X130549500Y-113855694D01*
X130549690Y-113858114D01*
X130549691Y-113858128D01*
X130552402Y-113892572D01*
X130598255Y-114050397D01*
X130689893Y-114205348D01*
X130687870Y-114206543D01*
X130710858Y-114248642D01*
X130705874Y-114318334D01*
X130689216Y-114344252D01*
X130689893Y-114344652D01*
X130598255Y-114499602D01*
X130552402Y-114657427D01*
X130549691Y-114691871D01*
X130549690Y-114691886D01*
X130549500Y-114694306D01*
X130549500Y-115125694D01*
X130549690Y-115128114D01*
X130549691Y-115128128D01*
X130552402Y-115162572D01*
X130598255Y-115320397D01*
X130637036Y-115385972D01*
X130681617Y-115461355D01*
X130689893Y-115475348D01*
X130687870Y-115476543D01*
X130710858Y-115518642D01*
X130705874Y-115588334D01*
X130689216Y-115614252D01*
X130689893Y-115614652D01*
X130598255Y-115769602D01*
X130552402Y-115927427D01*
X130549691Y-115961871D01*
X130549690Y-115961886D01*
X130549500Y-115964306D01*
X130549500Y-116395694D01*
X130549690Y-116398114D01*
X130549691Y-116398128D01*
X130552402Y-116432572D01*
X130598255Y-116590397D01*
X130689893Y-116745348D01*
X130687870Y-116746543D01*
X130710858Y-116788642D01*
X130705874Y-116858334D01*
X130689216Y-116884252D01*
X130689893Y-116884652D01*
X130598255Y-117039602D01*
X130552402Y-117197427D01*
X130549689Y-117231896D01*
X130549688Y-117231912D01*
X130549500Y-117234306D01*
X130549499Y-117236702D01*
X130549499Y-117236727D01*
X130549499Y-117259246D01*
X130529812Y-117326285D01*
X130513180Y-117346922D01*
X130122180Y-117737922D01*
X130060857Y-117771407D01*
X129991165Y-117766423D01*
X129935232Y-117724551D01*
X129910815Y-117659087D01*
X129910500Y-117650268D01*
X129910500Y-117475409D01*
X129910707Y-117468271D01*
X129914331Y-117406065D01*
X129912383Y-117395022D01*
X129910500Y-117373490D01*
X129910500Y-110824500D01*
X129930185Y-110757461D01*
X129982989Y-110711706D01*
X130034500Y-110700500D01*
X133612279Y-110700500D01*
X134550239Y-110700500D01*
X134617278Y-110720185D01*
G37*
%TD.AperFunction*%
%TA.AperFunction,Conductor*%
G36*
X142855703Y-111276094D02*
G01*
X142862181Y-111282126D01*
X144664116Y-113084061D01*
X144696209Y-113139647D01*
X144698722Y-113149027D01*
X144788979Y-113342582D01*
X144911471Y-113517520D01*
X145062479Y-113668528D01*
X145237417Y-113791020D01*
X145237418Y-113791020D01*
X145237419Y-113791021D01*
X145430970Y-113881276D01*
X145637253Y-113936549D01*
X145850000Y-113955162D01*
X146062747Y-113936549D01*
X146269030Y-113881276D01*
X146462581Y-113791021D01*
X146462582Y-113791020D01*
X146472413Y-113786436D01*
X146474126Y-113790111D01*
X146520527Y-113774440D01*
X146588302Y-113791420D01*
X146636138Y-113842346D01*
X146649500Y-113898340D01*
X146649500Y-120429192D01*
X146629815Y-120496231D01*
X146613181Y-120516873D01*
X142367561Y-124762493D01*
X142306238Y-124795978D01*
X142279880Y-124798812D01*
X141008563Y-124798812D01*
X140941524Y-124779127D01*
X140898778Y-124729796D01*
X140866219Y-124773724D01*
X140800872Y-124798453D01*
X140791437Y-124798812D01*
X131427663Y-124798812D01*
X131360624Y-124779127D01*
X131354793Y-124775141D01*
X131203418Y-124665161D01*
X131203417Y-124665160D01*
X131203415Y-124665159D01*
X131030490Y-124588167D01*
X130845336Y-124548812D01*
X130845334Y-124548812D01*
X130774500Y-124548812D01*
X130707461Y-124529127D01*
X130661706Y-124476323D01*
X130650500Y-124424812D01*
X130650500Y-122058164D01*
X130670185Y-121991125D01*
X130722989Y-121945370D01*
X130792147Y-121935426D01*
X130837615Y-121951429D01*
X130939602Y-122011744D01*
X130939604Y-122011744D01*
X130939605Y-122011745D01*
X131097427Y-122057597D01*
X131097431Y-122057598D01*
X131134306Y-122060500D01*
X131136751Y-122060500D01*
X132913249Y-122060500D01*
X132915694Y-122060500D01*
X132952569Y-122057598D01*
X133110398Y-122011744D01*
X133240852Y-121934593D01*
X133308574Y-121917411D01*
X133374837Y-121939571D01*
X133418601Y-121994037D01*
X133425970Y-122063517D01*
X133409511Y-122106422D01*
X133387997Y-122141301D01*
X133334650Y-122302292D01*
X133324819Y-122398522D01*
X133324817Y-122398542D01*
X133324500Y-122401655D01*
X133324500Y-122404802D01*
X133324500Y-122404803D01*
X133324500Y-122995194D01*
X133324500Y-122995213D01*
X133324501Y-122998344D01*
X133324820Y-123001476D01*
X133324821Y-123001477D01*
X133334650Y-123097707D01*
X133387997Y-123258699D01*
X133477031Y-123403044D01*
X133596953Y-123522966D01*
X133596955Y-123522967D01*
X133596956Y-123522968D01*
X133741303Y-123612003D01*
X133857482Y-123650500D01*
X133864091Y-123652690D01*
X133912769Y-123682715D01*
X134229564Y-123999510D01*
X134242911Y-124016169D01*
X134295832Y-124065864D01*
X134298629Y-124068575D01*
X134318965Y-124088911D01*
X134322036Y-124091293D01*
X134322437Y-124091604D01*
X134331323Y-124099192D01*
X134364607Y-124130448D01*
X134375251Y-124136299D01*
X134383204Y-124140672D01*
X134399464Y-124151352D01*
X134416236Y-124164362D01*
X134458140Y-124182495D01*
X134468620Y-124187629D01*
X134508632Y-124209627D01*
X134529195Y-124214906D01*
X134547598Y-124221207D01*
X134567073Y-124229635D01*
X134612170Y-124236777D01*
X134623589Y-124239142D01*
X134667823Y-124250500D01*
X134689050Y-124250500D01*
X134708448Y-124252026D01*
X134729404Y-124255346D01*
X134774852Y-124251049D01*
X134786520Y-124250500D01*
X138239495Y-124250500D01*
X138260704Y-124252841D01*
X138263294Y-124252759D01*
X138263296Y-124252760D01*
X138333262Y-124250560D01*
X138337157Y-124250500D01*
X138362025Y-124250500D01*
X138365925Y-124250500D01*
X138370294Y-124249947D01*
X138381939Y-124249030D01*
X138427569Y-124247597D01*
X138447949Y-124241675D01*
X138466989Y-124237732D01*
X138488058Y-124235071D01*
X138530520Y-124218258D01*
X138541557Y-124214480D01*
X138585398Y-124201744D01*
X138603670Y-124190936D01*
X138621136Y-124182380D01*
X138640871Y-124174568D01*
X138677816Y-124147725D01*
X138687548Y-124141332D01*
X138726865Y-124118081D01*
X138741874Y-124103071D01*
X138756663Y-124090439D01*
X138773837Y-124077963D01*
X138802946Y-124042774D01*
X138810780Y-124034164D01*
X139133128Y-123711816D01*
X139194450Y-123678334D01*
X139220808Y-123675500D01*
X139478797Y-123675500D01*
X139481616Y-123675500D01*
X139552196Y-123669086D01*
X139714606Y-123618478D01*
X139807587Y-123562268D01*
X139875140Y-123544432D01*
X139941614Y-123565949D01*
X139985902Y-123619989D01*
X139995057Y-123655423D01*
X140014326Y-123838757D01*
X140072820Y-124018784D01*
X140167466Y-124182716D01*
X140294129Y-124323389D01*
X140447269Y-124434651D01*
X140620197Y-124511644D01*
X140817218Y-124553522D01*
X140878700Y-124586714D01*
X140900210Y-124625665D01*
X140914850Y-124593609D01*
X140973628Y-124555835D01*
X140982782Y-124553522D01*
X141114615Y-124525500D01*
X141179803Y-124511644D01*
X141352730Y-124434651D01*
X141366272Y-124424812D01*
X141505870Y-124323389D01*
X141601365Y-124217332D01*
X141632533Y-124182716D01*
X141727179Y-124018784D01*
X141785674Y-123838756D01*
X141805460Y-123650500D01*
X141785674Y-123462244D01*
X141732131Y-123297456D01*
X141730136Y-123227615D01*
X141731664Y-123222289D01*
X141769086Y-123102196D01*
X141775500Y-123031616D01*
X141775500Y-122368384D01*
X141769086Y-122297804D01*
X141718478Y-122135394D01*
X141630472Y-121989815D01*
X141630471Y-121989813D01*
X141553339Y-121912681D01*
X141519854Y-121851358D01*
X141524838Y-121781666D01*
X141553339Y-121737319D01*
X141630471Y-121660186D01*
X141636602Y-121650044D01*
X141718478Y-121514606D01*
X141769086Y-121352196D01*
X141775500Y-121281616D01*
X141775500Y-121162229D01*
X141795185Y-121095190D01*
X141811815Y-121074552D01*
X142385642Y-120500724D01*
X142399260Y-120488954D01*
X142418530Y-120474610D01*
X142450366Y-120436667D01*
X142457680Y-120428688D01*
X142458264Y-120428103D01*
X142461591Y-120424777D01*
X142480833Y-120400439D01*
X142483090Y-120397670D01*
X142497853Y-120380075D01*
X142531302Y-120340214D01*
X142531303Y-120340211D01*
X142532115Y-120339244D01*
X142542573Y-120322827D01*
X142543106Y-120321682D01*
X142543111Y-120321677D01*
X142574833Y-120253646D01*
X142576362Y-120250488D01*
X142610040Y-120183433D01*
X142610040Y-120183432D01*
X142610612Y-120182294D01*
X142617000Y-120163914D01*
X142617255Y-120162675D01*
X142617257Y-120162673D01*
X142632447Y-120089103D01*
X142633186Y-120085770D01*
X142650500Y-120012721D01*
X142650500Y-120012716D01*
X142650791Y-120011489D01*
X142652770Y-119992121D01*
X142652733Y-119990859D01*
X142652734Y-119990856D01*
X142650552Y-119915868D01*
X142650500Y-119912262D01*
X142650500Y-113975444D01*
X142650710Y-113968233D01*
X142654331Y-113906065D01*
X142652384Y-113895023D01*
X142650500Y-113873490D01*
X142650500Y-111369807D01*
X142670185Y-111302768D01*
X142722989Y-111257013D01*
X142792147Y-111247069D01*
X142855703Y-111276094D01*
G37*
%TD.AperFunction*%
%TA.AperFunction,Conductor*%
G36*
X138285075Y-118678092D02*
G01*
X138325604Y-118735006D01*
X138331915Y-118786785D01*
X138327787Y-118832216D01*
X138324500Y-118868384D01*
X138324500Y-119531616D01*
X138324754Y-119534420D01*
X138324755Y-119534424D01*
X138330913Y-119602193D01*
X138330914Y-119602196D01*
X138381522Y-119764606D01*
X138469528Y-119910185D01*
X138538182Y-119978839D01*
X138571666Y-120040160D01*
X138574500Y-120066519D01*
X138574500Y-120083480D01*
X138554815Y-120150519D01*
X138538181Y-120171161D01*
X138458881Y-120250461D01*
X138458374Y-120249954D01*
X138418103Y-120286836D01*
X138363511Y-120299500D01*
X136736489Y-120299500D01*
X136669450Y-120279815D01*
X136632744Y-120242087D01*
X136593905Y-120203248D01*
X136552982Y-120162325D01*
X136519499Y-120101005D01*
X136524483Y-120031313D01*
X136552984Y-119986964D01*
X136630075Y-119909873D01*
X136718019Y-119764396D01*
X136768590Y-119602106D01*
X136774744Y-119534384D01*
X136775000Y-119528755D01*
X136775000Y-119450000D01*
X135749000Y-119450000D01*
X135681961Y-119430315D01*
X135636206Y-119377511D01*
X135625000Y-119326000D01*
X135625000Y-119074500D01*
X135644685Y-119007461D01*
X135697489Y-118961706D01*
X135749000Y-118950500D01*
X136623025Y-118950500D01*
X136690064Y-118970185D01*
X136695894Y-118974170D01*
X136847270Y-119084151D01*
X136847271Y-119084151D01*
X136847272Y-119084152D01*
X137020197Y-119161144D01*
X137205352Y-119200500D01*
X137205354Y-119200500D01*
X137394648Y-119200500D01*
X137518083Y-119174262D01*
X137579803Y-119161144D01*
X137752730Y-119084151D01*
X137852393Y-119011742D01*
X137905870Y-118972889D01*
X137959759Y-118913039D01*
X138032533Y-118832216D01*
X138101036Y-118713564D01*
X138151603Y-118665348D01*
X138220210Y-118652124D01*
X138285075Y-118678092D01*
G37*
%TD.AperFunction*%
%TA.AperFunction,Conductor*%
G36*
X138430550Y-114620185D02*
G01*
X138467255Y-114657912D01*
X138469527Y-114660184D01*
X138469528Y-114660185D01*
X138538182Y-114728839D01*
X138571666Y-114790160D01*
X138574500Y-114816519D01*
X138574500Y-114833480D01*
X138554815Y-114900519D01*
X138538181Y-114921161D01*
X138469528Y-114989813D01*
X138387386Y-115125694D01*
X138381522Y-115135394D01*
X138381457Y-115135603D01*
X138330913Y-115297806D01*
X138324755Y-115365575D01*
X138324500Y-115368384D01*
X138324500Y-115371203D01*
X138324500Y-116010710D01*
X138304815Y-116077749D01*
X138252011Y-116123504D01*
X138182853Y-116133448D01*
X138119297Y-116104423D01*
X138093113Y-116072710D01*
X138032533Y-115967784D01*
X137905870Y-115827110D01*
X137752730Y-115715848D01*
X137579802Y-115638855D01*
X137394648Y-115599500D01*
X137394646Y-115599500D01*
X137205354Y-115599500D01*
X137205352Y-115599500D01*
X137020197Y-115638855D01*
X136949435Y-115670361D01*
X136880185Y-115679646D01*
X136816908Y-115650018D01*
X136779695Y-115590883D01*
X136774999Y-115557082D01*
X136774999Y-115371246D01*
X136774743Y-115365610D01*
X136768591Y-115297895D01*
X136718018Y-115135602D01*
X136630075Y-114990126D01*
X136552984Y-114913036D01*
X136519499Y-114851713D01*
X136524483Y-114782021D01*
X136552982Y-114737674D01*
X136630472Y-114660185D01*
X136630472Y-114660184D01*
X136641119Y-114649538D01*
X136641625Y-114650044D01*
X136681897Y-114613164D01*
X136736489Y-114600500D01*
X138363511Y-114600500D01*
X138430550Y-114620185D01*
G37*
%TD.AperFunction*%
%TA.AperFunction,Conductor*%
G36*
X141068039Y-115469685D02*
G01*
X141113794Y-115522489D01*
X141125000Y-115574000D01*
X141125000Y-116684823D01*
X141146666Y-116724499D01*
X141149500Y-116750860D01*
X141149500Y-118149138D01*
X141129815Y-118216177D01*
X141125000Y-118222152D01*
X141125000Y-119326000D01*
X141105315Y-119393039D01*
X141052511Y-119438794D01*
X141001000Y-119450000D01*
X140749000Y-119450000D01*
X140681961Y-119430315D01*
X140636206Y-119377511D01*
X140625000Y-119326000D01*
X140625000Y-118225000D01*
X140624999Y-118224999D01*
X140621228Y-118225000D01*
X140615628Y-118225255D01*
X140547895Y-118231408D01*
X140385602Y-118281981D01*
X140240124Y-118369925D01*
X140138035Y-118472015D01*
X140076712Y-118505500D01*
X140007020Y-118500516D01*
X139962673Y-118472015D01*
X139860186Y-118369528D01*
X139772179Y-118316326D01*
X139714606Y-118281522D01*
X139564786Y-118234837D01*
X139552193Y-118230913D01*
X139484424Y-118224755D01*
X139484420Y-118224754D01*
X139481616Y-118224500D01*
X138968384Y-118224500D01*
X138965580Y-118224754D01*
X138965575Y-118224755D01*
X138897806Y-118230913D01*
X138844262Y-118247598D01*
X138735394Y-118281522D01*
X138735392Y-118281522D01*
X138735392Y-118281523D01*
X138589813Y-118369528D01*
X138469527Y-118489814D01*
X138411109Y-118586449D01*
X138359581Y-118633636D01*
X138290722Y-118645474D01*
X138226393Y-118618205D01*
X138187020Y-118560486D01*
X138185395Y-118501331D01*
X138184311Y-118501218D01*
X138185168Y-118493060D01*
X138185102Y-118490642D01*
X138185600Y-118488946D01*
X138185671Y-118488262D01*
X138185674Y-118488256D01*
X138205460Y-118300000D01*
X138185674Y-118111744D01*
X138127179Y-117931716D01*
X138127179Y-117931715D01*
X138032533Y-117767783D01*
X137905870Y-117627110D01*
X137752731Y-117515849D01*
X137746961Y-117513280D01*
X137693723Y-117468031D01*
X137673401Y-117401182D01*
X137692445Y-117333958D01*
X137744810Y-117287702D01*
X137746961Y-117286720D01*
X137749527Y-117285576D01*
X137752730Y-117284151D01*
X137840772Y-117220185D01*
X137905870Y-117172889D01*
X138032533Y-117032216D01*
X138127179Y-116868284D01*
X138153056Y-116788642D01*
X138185674Y-116688256D01*
X138205460Y-116500000D01*
X138196555Y-116415278D01*
X138209124Y-116346552D01*
X138256856Y-116295528D01*
X138324596Y-116278410D01*
X138390838Y-116300632D01*
X138425993Y-116338170D01*
X138469528Y-116410186D01*
X138589813Y-116530471D01*
X138589815Y-116530472D01*
X138735394Y-116618478D01*
X138897804Y-116669086D01*
X138968384Y-116675500D01*
X138971203Y-116675500D01*
X139478797Y-116675500D01*
X139481616Y-116675500D01*
X139552196Y-116669086D01*
X139714606Y-116618478D01*
X139860185Y-116530472D01*
X139962674Y-116427982D01*
X140023995Y-116394499D01*
X140093687Y-116399483D01*
X140138036Y-116427984D01*
X140240126Y-116530075D01*
X140385603Y-116618019D01*
X140547893Y-116668590D01*
X140615620Y-116674745D01*
X140621238Y-116674999D01*
X140624999Y-116674998D01*
X140625000Y-116674998D01*
X140625000Y-115574000D01*
X140644685Y-115506961D01*
X140697489Y-115461206D01*
X140749000Y-115450000D01*
X141001000Y-115450000D01*
X141068039Y-115469685D01*
G37*
%TD.AperFunction*%
%TA.AperFunction,Conductor*%
G36*
X136018039Y-117220185D02*
G01*
X136063794Y-117272989D01*
X136075000Y-117324500D01*
X136075000Y-117525500D01*
X136055315Y-117592539D01*
X136002511Y-117638294D01*
X135951000Y-117649500D01*
X135699000Y-117649500D01*
X135631961Y-117629815D01*
X135586206Y-117577011D01*
X135575000Y-117525500D01*
X135575000Y-117324500D01*
X135594685Y-117257461D01*
X135647489Y-117211706D01*
X135699000Y-117200500D01*
X135951000Y-117200500D01*
X136018039Y-117220185D01*
G37*
%TD.AperFunction*%
%TA.AperFunction,Conductor*%
G36*
X136068039Y-115469685D02*
G01*
X136113794Y-115522489D01*
X136125000Y-115574000D01*
X136125000Y-115775500D01*
X136105315Y-115842539D01*
X136052511Y-115888294D01*
X136001000Y-115899500D01*
X135749000Y-115899500D01*
X135681961Y-115879815D01*
X135636206Y-115827011D01*
X135625000Y-115775500D01*
X135625000Y-115574000D01*
X135644685Y-115506961D01*
X135697489Y-115461206D01*
X135749000Y-115450000D01*
X136001000Y-115450000D01*
X136068039Y-115469685D01*
G37*
%TD.AperFunction*%
%TA.AperFunction,Conductor*%
G36*
X144291302Y-96803910D02*
G01*
X144302332Y-96813700D01*
X147713181Y-100224548D01*
X147746666Y-100285871D01*
X147749500Y-100312229D01*
X147749500Y-110230192D01*
X147729815Y-110297231D01*
X147677011Y-110342986D01*
X147607853Y-110352930D01*
X147544297Y-110323905D01*
X147537819Y-110317873D01*
X147025788Y-109805842D01*
X147001088Y-109770568D01*
X146911021Y-109577419D01*
X146788529Y-109402481D01*
X146788528Y-109402479D01*
X146637520Y-109251471D01*
X146462582Y-109128979D01*
X146259198Y-109034139D01*
X146260075Y-109032257D01*
X146212317Y-109003142D01*
X146181793Y-108940293D01*
X146190094Y-108870918D01*
X146234584Y-108817044D01*
X146259216Y-108805797D01*
X146259026Y-108805389D01*
X146462325Y-108710589D01*
X146518030Y-108671583D01*
X145894401Y-108047953D01*
X145975148Y-108035165D01*
X146088045Y-107977641D01*
X146177641Y-107888045D01*
X146235165Y-107775148D01*
X146247953Y-107694400D01*
X146871583Y-108318030D01*
X146910589Y-108262325D01*
X147000802Y-108068861D01*
X147056055Y-107862657D01*
X147074660Y-107649999D01*
X147056055Y-107437342D01*
X147000802Y-107231138D01*
X146910587Y-107037670D01*
X146871583Y-106981967D01*
X146247953Y-107605598D01*
X146235165Y-107524852D01*
X146177641Y-107411955D01*
X146088045Y-107322359D01*
X145975148Y-107264835D01*
X145894400Y-107252046D01*
X146518031Y-106628415D01*
X146462326Y-106589410D01*
X146268861Y-106499197D01*
X146062657Y-106443944D01*
X145849999Y-106425339D01*
X145637342Y-106443944D01*
X145431138Y-106499197D01*
X145237672Y-106589411D01*
X145181968Y-106628414D01*
X145181967Y-106628415D01*
X145805599Y-107252046D01*
X145724852Y-107264835D01*
X145611955Y-107322359D01*
X145522359Y-107411955D01*
X145464835Y-107524852D01*
X145452046Y-107605599D01*
X144828414Y-106981967D01*
X144789411Y-107037672D01*
X144699197Y-107231138D01*
X144643944Y-107437342D01*
X144625339Y-107650000D01*
X144643944Y-107862657D01*
X144699197Y-108068861D01*
X144789410Y-108262326D01*
X144828415Y-108318030D01*
X144828416Y-108318031D01*
X145452046Y-107694400D01*
X145464835Y-107775148D01*
X145522359Y-107888045D01*
X145611955Y-107977641D01*
X145724852Y-108035165D01*
X145805599Y-108047953D01*
X145181967Y-108671583D01*
X145237670Y-108710587D01*
X145440974Y-108805389D01*
X145440074Y-108807317D01*
X145487668Y-108836322D01*
X145518202Y-108899166D01*
X145509914Y-108968543D01*
X145465433Y-109022424D01*
X145440624Y-109033757D01*
X145440802Y-109034139D01*
X145237417Y-109128979D01*
X145062479Y-109251471D01*
X144911471Y-109402479D01*
X144788979Y-109577417D01*
X144698724Y-109770968D01*
X144643450Y-109977255D01*
X144624837Y-110189999D01*
X144643450Y-110402744D01*
X144698724Y-110609031D01*
X144788979Y-110802582D01*
X144911471Y-110977520D01*
X145062479Y-111128528D01*
X145237417Y-111251020D01*
X145440802Y-111345861D01*
X145439803Y-111348002D01*
X145486697Y-111376577D01*
X145517234Y-111439420D01*
X145508949Y-111508796D01*
X145464471Y-111562680D01*
X145440553Y-111573606D01*
X145440802Y-111574139D01*
X145237412Y-111668981D01*
X145235301Y-111670460D01*
X145231478Y-111671748D01*
X145227588Y-111673563D01*
X145227385Y-111673128D01*
X145169093Y-111692782D01*
X145101327Y-111675765D01*
X145076506Y-111656560D01*
X143436319Y-110016373D01*
X143402834Y-109955050D01*
X143400000Y-109928692D01*
X143400000Y-108320922D01*
X143419685Y-108253883D01*
X143431850Y-108237949D01*
X143482033Y-108182216D01*
X143576679Y-108018284D01*
X143635174Y-107838256D01*
X143654960Y-107650000D01*
X143635174Y-107461744D01*
X143576679Y-107281716D01*
X143576679Y-107281715D01*
X143482033Y-107117783D01*
X143355370Y-106977110D01*
X143202230Y-106865848D01*
X143029302Y-106788855D01*
X142844148Y-106749500D01*
X142844146Y-106749500D01*
X142774500Y-106749500D01*
X142707461Y-106729815D01*
X142661706Y-106677011D01*
X142650500Y-106625500D01*
X142650500Y-106112228D01*
X142670185Y-106045189D01*
X142686814Y-106024552D01*
X144124548Y-104586817D01*
X144185871Y-104553333D01*
X144212229Y-104550499D01*
X144744561Y-104550499D01*
X144747872Y-104550499D01*
X144807483Y-104544091D01*
X144942331Y-104493796D01*
X145057546Y-104407546D01*
X145143796Y-104292331D01*
X145194091Y-104157483D01*
X145200500Y-104097873D01*
X145200499Y-103102128D01*
X145194091Y-103042517D01*
X145143796Y-102907669D01*
X145057546Y-102792454D01*
X144942331Y-102706204D01*
X144807483Y-102655909D01*
X144747873Y-102649500D01*
X144744550Y-102649500D01*
X143355439Y-102649500D01*
X143355420Y-102649500D01*
X143352128Y-102649501D01*
X143348848Y-102649853D01*
X143348840Y-102649854D01*
X143292515Y-102655909D01*
X143264741Y-102666268D01*
X143195049Y-102671251D01*
X143133727Y-102637764D01*
X143100243Y-102576440D01*
X143103706Y-102511076D01*
X143104856Y-102507605D01*
X143114680Y-102411445D01*
X143115000Y-102405167D01*
X143115000Y-102385000D01*
X142390000Y-102385000D01*
X142390000Y-103084999D01*
X142435165Y-103084999D01*
X142441447Y-103084678D01*
X142537605Y-103074856D01*
X142698482Y-103021547D01*
X142710400Y-103014196D01*
X142777792Y-102995754D01*
X142844456Y-103016674D01*
X142889227Y-103070315D01*
X142899500Y-103119733D01*
X142899500Y-103637769D01*
X142879815Y-103704808D01*
X142863181Y-103725450D01*
X141541969Y-105046661D01*
X141480646Y-105080146D01*
X141410954Y-105075162D01*
X141366607Y-105046661D01*
X139905963Y-103586017D01*
X139872478Y-103524694D01*
X139870155Y-103509578D01*
X139869086Y-103497804D01*
X139818478Y-103335394D01*
X139730472Y-103189815D01*
X139730471Y-103189813D01*
X139610186Y-103069528D01*
X139488148Y-102995754D01*
X139464606Y-102981522D01*
X139302196Y-102930914D01*
X139302193Y-102930913D01*
X139234424Y-102924755D01*
X139234420Y-102924754D01*
X139231616Y-102924500D01*
X138718384Y-102924500D01*
X138715580Y-102924754D01*
X138715575Y-102924755D01*
X138647806Y-102930913D01*
X138566598Y-102956217D01*
X138485394Y-102981522D01*
X138485392Y-102981522D01*
X138485392Y-102981523D01*
X138339813Y-103069528D01*
X138237681Y-103171661D01*
X138176358Y-103205146D01*
X138106666Y-103200162D01*
X138062319Y-103171661D01*
X137960186Y-103069528D01*
X137838148Y-102995754D01*
X137814606Y-102981522D01*
X137652196Y-102930914D01*
X137652193Y-102930913D01*
X137584424Y-102924755D01*
X137584420Y-102924754D01*
X137581616Y-102924500D01*
X137068384Y-102924500D01*
X137065580Y-102924754D01*
X137065575Y-102924755D01*
X136997806Y-102930913D01*
X136916598Y-102956217D01*
X136835394Y-102981522D01*
X136835392Y-102981522D01*
X136835392Y-102981523D01*
X136689813Y-103069528D01*
X136558881Y-103200461D01*
X136558374Y-103199954D01*
X136518103Y-103236836D01*
X136463511Y-103249500D01*
X136211180Y-103249500D01*
X136144141Y-103229815D01*
X136109605Y-103196623D01*
X136025046Y-103075859D01*
X135864140Y-102914953D01*
X135677733Y-102784431D01*
X135619725Y-102757382D01*
X135567285Y-102711210D01*
X135548133Y-102644017D01*
X135568348Y-102577135D01*
X135619725Y-102532618D01*
X135677734Y-102505568D01*
X135849925Y-102385000D01*
X141165001Y-102385000D01*
X141165001Y-102405165D01*
X141165321Y-102411447D01*
X141175143Y-102507605D01*
X141228453Y-102668486D01*
X141317426Y-102812732D01*
X141437267Y-102932573D01*
X141581513Y-103021546D01*
X141742393Y-103074856D01*
X141838535Y-103084678D01*
X141844852Y-103084999D01*
X141889999Y-103084999D01*
X141890000Y-103084998D01*
X141890000Y-102385000D01*
X141165001Y-102385000D01*
X135849925Y-102385000D01*
X135864139Y-102375047D01*
X136025047Y-102214139D01*
X136080574Y-102134837D01*
X136102603Y-102103377D01*
X136157179Y-102059752D01*
X136204178Y-102050500D01*
X136475416Y-102050500D01*
X136542455Y-102070185D01*
X136565708Y-102093872D01*
X136566785Y-102092796D01*
X136577030Y-102103041D01*
X136577032Y-102103044D01*
X136637329Y-102163341D01*
X136696958Y-102222970D01*
X136841300Y-102312002D01*
X137002292Y-102365349D01*
X137098522Y-102375180D01*
X137098523Y-102375180D01*
X137101655Y-102375500D01*
X137648344Y-102375499D01*
X137747708Y-102365349D01*
X137908697Y-102312003D01*
X138053044Y-102222968D01*
X138062318Y-102213692D01*
X138123639Y-102180207D01*
X138193331Y-102185190D01*
X138237680Y-102213692D01*
X138246956Y-102222968D01*
X138391303Y-102312003D01*
X138552292Y-102365348D01*
X138552292Y-102365349D01*
X138648522Y-102375180D01*
X138648523Y-102375180D01*
X138651655Y-102375500D01*
X139198344Y-102375499D01*
X139297708Y-102365349D01*
X139458697Y-102312003D01*
X139458699Y-102312002D01*
X139581450Y-102236288D01*
X139648842Y-102217847D01*
X139696983Y-102228547D01*
X139770197Y-102261144D01*
X139955352Y-102300500D01*
X139955354Y-102300500D01*
X140144648Y-102300500D01*
X140268083Y-102274262D01*
X140329803Y-102261144D01*
X140502730Y-102184151D01*
X140582753Y-102126011D01*
X140655870Y-102072889D01*
X140662105Y-102065965D01*
X140782533Y-101932216D01*
X140877179Y-101768284D01*
X140935674Y-101588256D01*
X140955460Y-101400000D01*
X140935674Y-101211744D01*
X140877179Y-101031716D01*
X140877179Y-101031715D01*
X140782533Y-100867783D01*
X140655870Y-100727110D01*
X140502730Y-100615848D01*
X140329802Y-100538855D01*
X140144648Y-100499500D01*
X140144646Y-100499500D01*
X139955354Y-100499500D01*
X139955352Y-100499500D01*
X139770198Y-100538854D01*
X139696981Y-100571453D01*
X139627730Y-100580737D01*
X139581449Y-100563711D01*
X139458699Y-100487997D01*
X139297707Y-100434650D01*
X139201477Y-100424819D01*
X139201458Y-100424818D01*
X139198345Y-100424500D01*
X139195196Y-100424500D01*
X138654805Y-100424500D01*
X138654785Y-100424500D01*
X138651656Y-100424501D01*
X138648524Y-100424820D01*
X138648522Y-100424821D01*
X138552292Y-100434650D01*
X138391300Y-100487997D01*
X138246955Y-100577031D01*
X138237681Y-100586306D01*
X138176358Y-100619791D01*
X138106666Y-100614807D01*
X138062319Y-100586306D01*
X138053044Y-100577031D01*
X137908699Y-100487997D01*
X137747707Y-100434650D01*
X137651477Y-100424819D01*
X137651458Y-100424818D01*
X137648345Y-100424500D01*
X137645196Y-100424500D01*
X137104805Y-100424500D01*
X137104785Y-100424500D01*
X137101656Y-100424501D01*
X137098524Y-100424820D01*
X137098522Y-100424821D01*
X137002292Y-100434650D01*
X136841300Y-100487997D01*
X136696958Y-100577029D01*
X136659181Y-100614807D01*
X136577032Y-100696956D01*
X136577030Y-100696958D01*
X136566785Y-100707204D01*
X136564751Y-100705171D01*
X136529002Y-100737324D01*
X136475416Y-100749500D01*
X136239188Y-100749500D01*
X136172149Y-100729815D01*
X136137613Y-100696623D01*
X136025046Y-100535859D01*
X135864140Y-100374953D01*
X135677733Y-100244431D01*
X135619725Y-100217382D01*
X135567285Y-100171210D01*
X135548133Y-100104017D01*
X135568348Y-100037135D01*
X135619725Y-99992618D01*
X135620317Y-99992342D01*
X135677734Y-99965568D01*
X135864139Y-99835047D01*
X136025047Y-99674139D01*
X136104838Y-99560185D01*
X136109605Y-99553377D01*
X136164181Y-99509752D01*
X136211180Y-99500500D01*
X136463511Y-99500500D01*
X136530550Y-99520185D01*
X136567295Y-99557953D01*
X136689813Y-99680471D01*
X136720245Y-99698868D01*
X136835394Y-99768478D01*
X136997804Y-99819086D01*
X137068384Y-99825500D01*
X137071203Y-99825500D01*
X137578797Y-99825500D01*
X137581616Y-99825500D01*
X137652196Y-99819086D01*
X137814606Y-99768478D01*
X137960185Y-99680472D01*
X138062674Y-99577982D01*
X138123995Y-99544499D01*
X138193687Y-99549483D01*
X138238036Y-99577984D01*
X138340126Y-99680075D01*
X138485603Y-99768019D01*
X138647893Y-99818590D01*
X138715620Y-99824745D01*
X138721238Y-99824999D01*
X138724999Y-99824998D01*
X138725000Y-99824998D01*
X138725000Y-98724000D01*
X138744685Y-98656961D01*
X138797489Y-98611206D01*
X138849000Y-98600000D01*
X139101000Y-98600000D01*
X139168039Y-98619685D01*
X139213794Y-98672489D01*
X139225000Y-98724000D01*
X139225000Y-99824999D01*
X139228753Y-99824999D01*
X139234389Y-99824743D01*
X139302104Y-99818591D01*
X139464397Y-99768018D01*
X139609873Y-99680075D01*
X139686964Y-99602984D01*
X139748287Y-99569499D01*
X139817979Y-99574483D01*
X139862325Y-99602982D01*
X139939815Y-99680472D01*
X140085394Y-99768478D01*
X140247804Y-99819086D01*
X140318384Y-99825500D01*
X140321203Y-99825500D01*
X140828797Y-99825500D01*
X140831616Y-99825500D01*
X140902196Y-99819086D01*
X141064606Y-99768478D01*
X141179086Y-99699271D01*
X141246641Y-99681436D01*
X141313114Y-99702954D01*
X141357402Y-99756994D01*
X141365443Y-99826399D01*
X141334684Y-99889134D01*
X141330917Y-99893070D01*
X141317031Y-99906955D01*
X141227997Y-100051300D01*
X141174650Y-100212292D01*
X141164819Y-100308522D01*
X141164817Y-100308542D01*
X141164500Y-100311655D01*
X141164500Y-100314802D01*
X141164500Y-100314803D01*
X141164500Y-100855194D01*
X141164500Y-100855213D01*
X141164501Y-100858344D01*
X141164820Y-100861476D01*
X141164821Y-100861477D01*
X141174650Y-100957707D01*
X141227997Y-101118699D01*
X141317031Y-101263044D01*
X141326659Y-101272672D01*
X141360144Y-101333995D01*
X141355160Y-101403687D01*
X141326661Y-101448032D01*
X141317426Y-101457266D01*
X141228453Y-101601513D01*
X141175143Y-101762393D01*
X141165319Y-101858554D01*
X141165000Y-101864832D01*
X141165000Y-101885000D01*
X143114999Y-101885000D01*
X143114999Y-101864834D01*
X143114678Y-101858552D01*
X143104856Y-101762394D01*
X143077237Y-101679046D01*
X143074835Y-101609218D01*
X143110567Y-101549176D01*
X143173087Y-101517983D01*
X143238277Y-101523861D01*
X143292513Y-101544090D01*
X143292514Y-101544090D01*
X143292517Y-101544091D01*
X143352127Y-101550500D01*
X144747872Y-101550499D01*
X144807483Y-101544091D01*
X144942331Y-101493796D01*
X144948471Y-101489198D01*
X145013932Y-101464780D01*
X145048564Y-101467174D01*
X145205352Y-101500500D01*
X145205354Y-101500500D01*
X145394648Y-101500500D01*
X145528715Y-101472003D01*
X145579803Y-101461144D01*
X145752730Y-101384151D01*
X145905871Y-101272888D01*
X146032533Y-101132216D01*
X146127179Y-100968284D01*
X146185674Y-100788256D01*
X146205460Y-100600000D01*
X146185674Y-100411744D01*
X146131311Y-100244432D01*
X146127179Y-100231715D01*
X146032533Y-100067783D01*
X145905870Y-99927110D01*
X145752730Y-99815848D01*
X145579802Y-99738855D01*
X145394648Y-99699500D01*
X145394646Y-99699500D01*
X145205354Y-99699500D01*
X145205351Y-99699500D01*
X145048565Y-99732825D01*
X144978898Y-99727509D01*
X144948475Y-99710803D01*
X144942330Y-99706203D01*
X144807485Y-99655909D01*
X144751166Y-99649854D01*
X144751165Y-99649853D01*
X144747873Y-99649500D01*
X144744550Y-99649500D01*
X143355439Y-99649500D01*
X143355420Y-99649500D01*
X143352128Y-99649501D01*
X143348848Y-99649853D01*
X143348840Y-99649854D01*
X143292515Y-99655909D01*
X143148625Y-99709577D01*
X143078933Y-99714561D01*
X143017610Y-99681076D01*
X142984126Y-99619753D01*
X142989110Y-99550061D01*
X142999173Y-99529248D01*
X143068478Y-99414606D01*
X143119086Y-99252196D01*
X143125500Y-99181616D01*
X143125500Y-98518384D01*
X143119086Y-98447804D01*
X143068478Y-98285394D01*
X142980472Y-98139815D01*
X142980471Y-98139813D01*
X142860186Y-98019528D01*
X142772180Y-97966326D01*
X142714606Y-97931522D01*
X142552196Y-97880914D01*
X142552193Y-97880913D01*
X142484424Y-97874755D01*
X142484420Y-97874754D01*
X142481616Y-97874500D01*
X141968384Y-97874500D01*
X141965580Y-97874754D01*
X141965575Y-97874755D01*
X141897806Y-97880913D01*
X141860006Y-97892692D01*
X141735394Y-97931522D01*
X141735392Y-97931522D01*
X141735392Y-97931523D01*
X141589815Y-98019527D01*
X141487680Y-98121662D01*
X141426357Y-98155146D01*
X141356665Y-98150162D01*
X141312318Y-98121661D01*
X141261819Y-98071162D01*
X141228334Y-98009839D01*
X141225500Y-97983481D01*
X141225500Y-97673208D01*
X141227697Y-97649970D01*
X141229376Y-97641168D01*
X141225745Y-97583457D01*
X141225500Y-97575670D01*
X141225500Y-97216519D01*
X141245185Y-97149480D01*
X141261818Y-97128839D01*
X141286830Y-97103827D01*
X141312319Y-97078337D01*
X141373640Y-97044853D01*
X141443331Y-97049837D01*
X141487680Y-97078338D01*
X141589813Y-97180471D01*
X141620246Y-97198868D01*
X141735394Y-97268478D01*
X141897804Y-97319086D01*
X141968384Y-97325500D01*
X141971203Y-97325500D01*
X142478797Y-97325500D01*
X142481616Y-97325500D01*
X142552196Y-97319086D01*
X142714606Y-97268478D01*
X142860185Y-97180472D01*
X142860186Y-97180470D01*
X142864617Y-97177792D01*
X142932171Y-97159956D01*
X142979200Y-97170629D01*
X143059081Y-97206194D01*
X143070199Y-97211145D01*
X143255352Y-97250500D01*
X143255354Y-97250500D01*
X143444648Y-97250500D01*
X143604515Y-97216519D01*
X143629803Y-97211144D01*
X143802730Y-97134151D01*
X143820136Y-97121505D01*
X143955870Y-97022889D01*
X143984065Y-96991575D01*
X144082533Y-96882216D01*
X144086432Y-96875462D01*
X144107264Y-96839382D01*
X144157830Y-96791166D01*
X144226437Y-96777942D01*
X144291302Y-96803910D01*
G37*
%TD.AperFunction*%
%TA.AperFunction,Conductor*%
G36*
X127029809Y-89445185D02*
G01*
X127050451Y-89461819D01*
X128373181Y-90784549D01*
X128406666Y-90845872D01*
X128409500Y-90872230D01*
X128409500Y-109075500D01*
X128389815Y-109142539D01*
X128337011Y-109188294D01*
X128285500Y-109199500D01*
X116674500Y-109199500D01*
X116607461Y-109179815D01*
X116561706Y-109127011D01*
X116550500Y-109075500D01*
X116550500Y-108870918D01*
X116550500Y-108656291D01*
X116550499Y-108656290D01*
X116550499Y-101600000D01*
X119225001Y-101600000D01*
X119225001Y-101645165D01*
X119225321Y-101651447D01*
X119235143Y-101747605D01*
X119288453Y-101908486D01*
X119377426Y-102052732D01*
X119497267Y-102172573D01*
X119641513Y-102261546D01*
X119802393Y-102314856D01*
X119898536Y-102324678D01*
X119904851Y-102324999D01*
X119925000Y-102324999D01*
X119925000Y-101600000D01*
X119225001Y-101600000D01*
X116550499Y-101600000D01*
X116550499Y-101100000D01*
X119225000Y-101100000D01*
X119925000Y-101100000D01*
X119925000Y-100375000D01*
X119904836Y-100375000D01*
X119898550Y-100375321D01*
X119802394Y-100385143D01*
X119641513Y-100438453D01*
X119497267Y-100527426D01*
X119377426Y-100647267D01*
X119288453Y-100791513D01*
X119235143Y-100952393D01*
X119225319Y-101048554D01*
X119225000Y-101054832D01*
X119225000Y-101100000D01*
X116550499Y-101100000D01*
X116550499Y-99948996D01*
X116570184Y-99881960D01*
X116622988Y-99836205D01*
X116674494Y-99824999D01*
X116675000Y-99824998D01*
X116675000Y-98724000D01*
X116694685Y-98656961D01*
X116747489Y-98611206D01*
X116799000Y-98600000D01*
X117051000Y-98600000D01*
X117118039Y-98619685D01*
X117163794Y-98672489D01*
X117175000Y-98724000D01*
X117175000Y-99824999D01*
X117195165Y-99824999D01*
X117201447Y-99824678D01*
X117297605Y-99814856D01*
X117458484Y-99761546D01*
X117602732Y-99672572D01*
X117611963Y-99663341D01*
X117673285Y-99629854D01*
X117742977Y-99634837D01*
X117787329Y-99663341D01*
X117796957Y-99672969D01*
X117941300Y-99762002D01*
X118102292Y-99815349D01*
X118198522Y-99825180D01*
X118198523Y-99825180D01*
X118201655Y-99825500D01*
X118748344Y-99825499D01*
X118847708Y-99815349D01*
X119008697Y-99762003D01*
X119030724Y-99748417D01*
X119153041Y-99672970D01*
X119153041Y-99672969D01*
X119153044Y-99672968D01*
X119229997Y-99596014D01*
X119291318Y-99562531D01*
X119361010Y-99567515D01*
X119405358Y-99596016D01*
X119489813Y-99680471D01*
X119520246Y-99698868D01*
X119635394Y-99768478D01*
X119797804Y-99819086D01*
X119868384Y-99825500D01*
X119871203Y-99825500D01*
X120378797Y-99825500D01*
X120381616Y-99825500D01*
X120452196Y-99819086D01*
X120614606Y-99768478D01*
X120760185Y-99680472D01*
X120810803Y-99629854D01*
X120862319Y-99578339D01*
X120923642Y-99544854D01*
X120993334Y-99549838D01*
X121037681Y-99578339D01*
X121139813Y-99680471D01*
X121170245Y-99698868D01*
X121285394Y-99768478D01*
X121447804Y-99819086D01*
X121518384Y-99825500D01*
X121521203Y-99825500D01*
X122028797Y-99825500D01*
X122031616Y-99825500D01*
X122102196Y-99819086D01*
X122264606Y-99768478D01*
X122410185Y-99680472D01*
X122530472Y-99560185D01*
X122618478Y-99414606D01*
X122636264Y-99357525D01*
X122675000Y-99299379D01*
X122739025Y-99271404D01*
X122808010Y-99282485D01*
X122860054Y-99329103D01*
X122867031Y-99342011D01*
X122934865Y-99487480D01*
X123065341Y-99673819D01*
X123226180Y-99834658D01*
X123412519Y-99965134D01*
X123470865Y-99992342D01*
X123523304Y-100038514D01*
X123542456Y-100105708D01*
X123522240Y-100172589D01*
X123470866Y-100217105D01*
X123412267Y-100244430D01*
X123225859Y-100374953D01*
X123064953Y-100535859D01*
X122969892Y-100671623D01*
X122915316Y-100715248D01*
X122868317Y-100724500D01*
X122640005Y-100724500D01*
X122572966Y-100704815D01*
X122534467Y-100665597D01*
X122522968Y-100646955D01*
X122403044Y-100527031D01*
X122258699Y-100437997D01*
X122097707Y-100384650D01*
X122001477Y-100374819D01*
X122001458Y-100374818D01*
X121998345Y-100374500D01*
X121995196Y-100374500D01*
X121454805Y-100374500D01*
X121454785Y-100374500D01*
X121451656Y-100374501D01*
X121448524Y-100374820D01*
X121448522Y-100374821D01*
X121352292Y-100384650D01*
X121191300Y-100437997D01*
X121046954Y-100527031D01*
X121037325Y-100536661D01*
X120976001Y-100570145D01*
X120906310Y-100565159D01*
X120861965Y-100536659D01*
X120852732Y-100527426D01*
X120708486Y-100438453D01*
X120547606Y-100385143D01*
X120451445Y-100375319D01*
X120445168Y-100375000D01*
X120424999Y-100375000D01*
X120425000Y-101100000D01*
X120424999Y-102324998D01*
X120425000Y-102324999D01*
X120445165Y-102324999D01*
X120451447Y-102324678D01*
X120547605Y-102314856D01*
X120708484Y-102261546D01*
X120852732Y-102172572D01*
X120861963Y-102163341D01*
X120923285Y-102129854D01*
X120992977Y-102134837D01*
X121037329Y-102163341D01*
X121046957Y-102172969D01*
X121191300Y-102262002D01*
X121352292Y-102315349D01*
X121448522Y-102325180D01*
X121448523Y-102325180D01*
X121451655Y-102325500D01*
X121998344Y-102325499D01*
X122097708Y-102315349D01*
X122258697Y-102262003D01*
X122330285Y-102217847D01*
X122403041Y-102172970D01*
X122403041Y-102172969D01*
X122403044Y-102172968D01*
X122514194Y-102061817D01*
X122575515Y-102028334D01*
X122601874Y-102025500D01*
X122868317Y-102025500D01*
X122935356Y-102045185D01*
X122969892Y-102078377D01*
X123064953Y-102214140D01*
X123225859Y-102375046D01*
X123240075Y-102385000D01*
X123412266Y-102505568D01*
X123470275Y-102532618D01*
X123522714Y-102578791D01*
X123541865Y-102645985D01*
X123521649Y-102712866D01*
X123470275Y-102757382D01*
X123412263Y-102784433D01*
X123225859Y-102914953D01*
X123064953Y-103075859D01*
X122934432Y-103262264D01*
X122838261Y-103468502D01*
X122779364Y-103688310D01*
X122759531Y-103915000D01*
X122779364Y-104141689D01*
X122838261Y-104361497D01*
X122934432Y-104567735D01*
X123064953Y-104754140D01*
X123225859Y-104915046D01*
X123329237Y-104987431D01*
X123412266Y-105045568D01*
X123470273Y-105072617D01*
X123522713Y-105118789D01*
X123541865Y-105185982D01*
X123521650Y-105252864D01*
X123470276Y-105297380D01*
X123412266Y-105324431D01*
X123225859Y-105454953D01*
X123064953Y-105615859D01*
X122934432Y-105802264D01*
X122838261Y-106008502D01*
X122779364Y-106228310D01*
X122759531Y-106454999D01*
X122779364Y-106681689D01*
X122838261Y-106901497D01*
X122934432Y-107107735D01*
X123064953Y-107294140D01*
X123225859Y-107455046D01*
X123412264Y-107585567D01*
X123412265Y-107585567D01*
X123412266Y-107585568D01*
X123618504Y-107681739D01*
X123838308Y-107740635D01*
X124008216Y-107755500D01*
X124010925Y-107755500D01*
X124919075Y-107755500D01*
X124921784Y-107755500D01*
X125091692Y-107740635D01*
X125311496Y-107681739D01*
X125517734Y-107585568D01*
X125704139Y-107455047D01*
X125865047Y-107294139D01*
X125995568Y-107107734D01*
X126091739Y-106901496D01*
X126150635Y-106681692D01*
X126170468Y-106455000D01*
X126150635Y-106228308D01*
X126091739Y-106008504D01*
X125995568Y-105802266D01*
X125993632Y-105799500D01*
X125865046Y-105615859D01*
X125704140Y-105454953D01*
X125517733Y-105324431D01*
X125476727Y-105305310D01*
X125459724Y-105297381D01*
X125407285Y-105251210D01*
X125388133Y-105184017D01*
X125408348Y-105117135D01*
X125459725Y-105072618D01*
X125517734Y-105045568D01*
X125704139Y-104915047D01*
X125865047Y-104754139D01*
X125995568Y-104567734D01*
X126091739Y-104361496D01*
X126150635Y-104141692D01*
X126170468Y-103915000D01*
X126150635Y-103688308D01*
X126091739Y-103468504D01*
X125995568Y-103262266D01*
X125986630Y-103249500D01*
X125865046Y-103075859D01*
X125704140Y-102914953D01*
X125517733Y-102784431D01*
X125459725Y-102757382D01*
X125407285Y-102711210D01*
X125388133Y-102644017D01*
X125408348Y-102577135D01*
X125459725Y-102532618D01*
X125517734Y-102505568D01*
X125704139Y-102375047D01*
X125865047Y-102214139D01*
X125995568Y-102027734D01*
X126091739Y-101821496D01*
X126150635Y-101601692D01*
X126170468Y-101375000D01*
X126150635Y-101148308D01*
X126091739Y-100928504D01*
X125995568Y-100722266D01*
X125979978Y-100700000D01*
X125865046Y-100535859D01*
X125704140Y-100374953D01*
X125517736Y-100244433D01*
X125500372Y-100236336D01*
X125459132Y-100217105D01*
X125406695Y-100170933D01*
X125387543Y-100103739D01*
X125407759Y-100036858D01*
X125459135Y-99992342D01*
X125517479Y-99965135D01*
X125703819Y-99834658D01*
X125864658Y-99673819D01*
X125995134Y-99487480D01*
X126091266Y-99281326D01*
X126143872Y-99085000D01*
X124780686Y-99085000D01*
X124792641Y-99073045D01*
X124850165Y-98960148D01*
X124869986Y-98835000D01*
X124850165Y-98709852D01*
X124792641Y-98596955D01*
X124780686Y-98585000D01*
X126143872Y-98585000D01*
X126143871Y-98584999D01*
X126091266Y-98388673D01*
X125995134Y-98182519D01*
X125864658Y-97996180D01*
X125703819Y-97835341D01*
X125517482Y-97704866D01*
X125459133Y-97677657D01*
X125406694Y-97631484D01*
X125387543Y-97564290D01*
X125407759Y-97497409D01*
X125459134Y-97452893D01*
X125517734Y-97425568D01*
X125704139Y-97295047D01*
X125865047Y-97134139D01*
X125995568Y-96947734D01*
X126091739Y-96741496D01*
X126150635Y-96521692D01*
X126170468Y-96295000D01*
X126150635Y-96068308D01*
X126091739Y-95848504D01*
X125995568Y-95642266D01*
X125995493Y-95642158D01*
X125865046Y-95455859D01*
X125704140Y-95294953D01*
X125517733Y-95164431D01*
X125459725Y-95137382D01*
X125407285Y-95091210D01*
X125388133Y-95024017D01*
X125408348Y-94957135D01*
X125459725Y-94912618D01*
X125517734Y-94885568D01*
X125704139Y-94755047D01*
X125865047Y-94594139D01*
X125995568Y-94407734D01*
X126091739Y-94201496D01*
X126150635Y-93981692D01*
X126170468Y-93755000D01*
X126150635Y-93528308D01*
X126091739Y-93308504D01*
X125995568Y-93102266D01*
X125993632Y-93099500D01*
X125865046Y-92915859D01*
X125704140Y-92754953D01*
X125517733Y-92624431D01*
X125459725Y-92597382D01*
X125407285Y-92551210D01*
X125388133Y-92484017D01*
X125408348Y-92417135D01*
X125459725Y-92372618D01*
X125517734Y-92345568D01*
X125704139Y-92215047D01*
X125865047Y-92054139D01*
X125995568Y-91867734D01*
X126091739Y-91661496D01*
X126150635Y-91441692D01*
X126170468Y-91215000D01*
X126150635Y-90988308D01*
X126091739Y-90768504D01*
X125995568Y-90562266D01*
X125990360Y-90554827D01*
X125865046Y-90375859D01*
X125704140Y-90214953D01*
X125517733Y-90084431D01*
X125459725Y-90057382D01*
X125407285Y-90011210D01*
X125388133Y-89944017D01*
X125408348Y-89877135D01*
X125459725Y-89832618D01*
X125517734Y-89805568D01*
X125704139Y-89675047D01*
X125865047Y-89514139D01*
X125888621Y-89480472D01*
X125890088Y-89478377D01*
X125944664Y-89434752D01*
X125991663Y-89425500D01*
X126962770Y-89425500D01*
X127029809Y-89445185D01*
G37*
%TD.AperFunction*%
%TA.AperFunction,Conductor*%
G36*
X144614739Y-91920185D02*
G01*
X144660494Y-91972989D01*
X144667475Y-91992407D01*
X144698724Y-92109030D01*
X144788979Y-92302582D01*
X144911471Y-92477520D01*
X145062478Y-92628527D01*
X145062481Y-92628529D01*
X145146623Y-92687445D01*
X145190248Y-92742021D01*
X145199500Y-92789020D01*
X145199500Y-93130978D01*
X145179815Y-93198017D01*
X145146624Y-93232552D01*
X145062484Y-93291468D01*
X144911468Y-93442483D01*
X144788979Y-93617417D01*
X144698724Y-93810968D01*
X144643450Y-94017255D01*
X144624837Y-94229999D01*
X144643450Y-94442744D01*
X144698724Y-94649031D01*
X144784506Y-94832989D01*
X144794998Y-94902066D01*
X144766478Y-94965850D01*
X144708002Y-95004090D01*
X144638135Y-95004645D01*
X144584443Y-94973075D01*
X144175728Y-94564360D01*
X144163946Y-94550727D01*
X144149609Y-94531469D01*
X144111666Y-94499631D01*
X144103691Y-94492323D01*
X144102329Y-94490961D01*
X144099777Y-94488409D01*
X144075444Y-94469169D01*
X144072647Y-94466890D01*
X144014251Y-94417890D01*
X143997821Y-94407422D01*
X143928691Y-94375186D01*
X143925447Y-94373615D01*
X143857306Y-94339394D01*
X143838903Y-94332997D01*
X143764211Y-94317574D01*
X143760692Y-94316794D01*
X143686490Y-94299208D01*
X143667121Y-94297229D01*
X143590869Y-94299448D01*
X143587263Y-94299500D01*
X143236244Y-94299500D01*
X143169205Y-94279815D01*
X143123450Y-94227011D01*
X143113982Y-94161167D01*
X143113476Y-94161116D01*
X143113683Y-94159086D01*
X143113506Y-94157853D01*
X143114041Y-94155579D01*
X143124680Y-94051445D01*
X143125000Y-94045167D01*
X143125000Y-94000000D01*
X142049000Y-94000000D01*
X141981961Y-93980315D01*
X141936206Y-93927511D01*
X141925000Y-93876000D01*
X141925000Y-92775000D01*
X142425000Y-92775000D01*
X142425000Y-93500000D01*
X143124999Y-93500000D01*
X143124999Y-93454834D01*
X143124678Y-93448552D01*
X143114856Y-93352394D01*
X143061546Y-93191513D01*
X142972573Y-93047267D01*
X142852732Y-92927426D01*
X142708486Y-92838453D01*
X142547606Y-92785143D01*
X142451445Y-92775319D01*
X142445168Y-92775000D01*
X142425000Y-92775000D01*
X141925000Y-92775000D01*
X141904836Y-92775000D01*
X141898550Y-92775321D01*
X141802394Y-92785143D01*
X141641513Y-92838453D01*
X141497266Y-92927426D01*
X141488032Y-92936661D01*
X141426708Y-92970145D01*
X141357016Y-92965159D01*
X141312672Y-92936659D01*
X141303044Y-92927031D01*
X141158699Y-92837997D01*
X140997707Y-92784650D01*
X140901477Y-92774819D01*
X140901458Y-92774818D01*
X140898345Y-92774500D01*
X140895196Y-92774500D01*
X140354805Y-92774500D01*
X140354785Y-92774500D01*
X140351656Y-92774501D01*
X140348524Y-92774820D01*
X140348522Y-92774821D01*
X140252292Y-92784650D01*
X140091300Y-92837997D01*
X139946956Y-92927030D01*
X139910808Y-92963180D01*
X139849485Y-92996666D01*
X139823126Y-92999500D01*
X139741519Y-92999500D01*
X139674480Y-92979815D01*
X139653837Y-92963180D01*
X139610186Y-92919528D01*
X139476071Y-92838453D01*
X139464606Y-92831522D01*
X139314189Y-92784651D01*
X139302193Y-92780913D01*
X139234424Y-92774755D01*
X139234420Y-92774754D01*
X139231616Y-92774500D01*
X139228797Y-92774500D01*
X139094808Y-92774500D01*
X139027769Y-92754815D01*
X138982014Y-92702011D01*
X138972070Y-92632853D01*
X139001095Y-92569297D01*
X139007127Y-92562819D01*
X139224379Y-92345566D01*
X139351277Y-92218667D01*
X139402067Y-92187964D01*
X139430043Y-92179247D01*
X139464604Y-92168479D01*
X139464609Y-92168476D01*
X139610185Y-92080472D01*
X139649152Y-92041505D01*
X139741119Y-91949539D01*
X139741625Y-91950045D01*
X139781897Y-91913164D01*
X139836489Y-91900500D01*
X144547700Y-91900500D01*
X144614739Y-91920185D01*
G37*
%TD.AperFunction*%
%TA.AperFunction,Conductor*%
G36*
X144598662Y-89320185D02*
G01*
X144644417Y-89372989D01*
X144651398Y-89392406D01*
X144698724Y-89569031D01*
X144788979Y-89762582D01*
X144911471Y-89937520D01*
X145062479Y-90088528D01*
X145237417Y-90211020D01*
X145440802Y-90305861D01*
X145439804Y-90308000D01*
X145486709Y-90336591D01*
X145517237Y-90399438D01*
X145508942Y-90468814D01*
X145464456Y-90522691D01*
X145440554Y-90533607D01*
X145440802Y-90534139D01*
X145380484Y-90562266D01*
X145342851Y-90579815D01*
X145325551Y-90587882D01*
X145273146Y-90599500D01*
X139836489Y-90599500D01*
X139769450Y-90579815D01*
X139732704Y-90542046D01*
X139610186Y-90419528D01*
X139507087Y-90357203D01*
X139464606Y-90331522D01*
X139302196Y-90280914D01*
X139302193Y-90280913D01*
X139234424Y-90274755D01*
X139234420Y-90274754D01*
X139231616Y-90274500D01*
X138718384Y-90274500D01*
X138715580Y-90274754D01*
X138715575Y-90274755D01*
X138647806Y-90280913D01*
X138582459Y-90301276D01*
X138485394Y-90331522D01*
X138485392Y-90331522D01*
X138485392Y-90331523D01*
X138339813Y-90419528D01*
X138237681Y-90521661D01*
X138176358Y-90555146D01*
X138106666Y-90550162D01*
X138062319Y-90521661D01*
X137960186Y-90419528D01*
X137857087Y-90357203D01*
X137814606Y-90331522D01*
X137652196Y-90280914D01*
X137652193Y-90280913D01*
X137584424Y-90274755D01*
X137584420Y-90274754D01*
X137581616Y-90274500D01*
X137068384Y-90274500D01*
X137065580Y-90274754D01*
X137065575Y-90274755D01*
X136997806Y-90280913D01*
X136932459Y-90301276D01*
X136835394Y-90331522D01*
X136835392Y-90331522D01*
X136835392Y-90331523D01*
X136689815Y-90419527D01*
X136662387Y-90446956D01*
X136581160Y-90528182D01*
X136519840Y-90561666D01*
X136493481Y-90564500D01*
X136221683Y-90564500D01*
X136154644Y-90544815D01*
X136120108Y-90511623D01*
X136025046Y-90375859D01*
X135864140Y-90214953D01*
X135839537Y-90197726D01*
X135795912Y-90143150D01*
X135788718Y-90073651D01*
X135820241Y-90011296D01*
X135880470Y-89975882D01*
X135897401Y-89972862D01*
X135932483Y-89969091D01*
X136067331Y-89918796D01*
X136182546Y-89832546D01*
X136268796Y-89717331D01*
X136319091Y-89582483D01*
X136325500Y-89522873D01*
X136325500Y-89449500D01*
X136345185Y-89382461D01*
X136397989Y-89336706D01*
X136449500Y-89325500D01*
X136483481Y-89325500D01*
X136550520Y-89345185D01*
X136571157Y-89361814D01*
X136689815Y-89480472D01*
X136835394Y-89568478D01*
X136997804Y-89619086D01*
X137068384Y-89625500D01*
X137071203Y-89625500D01*
X137578797Y-89625500D01*
X137581616Y-89625500D01*
X137652196Y-89619086D01*
X137814606Y-89568478D01*
X137960185Y-89480472D01*
X138062320Y-89378336D01*
X138123641Y-89344853D01*
X138193333Y-89349837D01*
X138237679Y-89378336D01*
X138339815Y-89480472D01*
X138485394Y-89568478D01*
X138647804Y-89619086D01*
X138718384Y-89625500D01*
X138721203Y-89625500D01*
X139228797Y-89625500D01*
X139231616Y-89625500D01*
X139302196Y-89619086D01*
X139464606Y-89568478D01*
X139610185Y-89480472D01*
X139674999Y-89415658D01*
X139741119Y-89349539D01*
X139741625Y-89350045D01*
X139781897Y-89313164D01*
X139836489Y-89300500D01*
X144531623Y-89300500D01*
X144598662Y-89320185D01*
G37*
%TD.AperFunction*%
%TD*%
M02*
