%TF.GenerationSoftware,KiCad,Pcbnew,7.0.2-0*%
%TF.CreationDate,2023-10-10T18:08:06-05:00*%
%TF.ProjectId,Untitled,556e7469-746c-4656-942e-6b696361645f,rev?*%
%TF.SameCoordinates,Original*%
%TF.FileFunction,Copper,L2,Bot*%
%TF.FilePolarity,Positive*%
%FSLAX46Y46*%
G04 Gerber Fmt 4.6, Leading zero omitted, Abs format (unit mm)*
G04 Created by KiCad (PCBNEW 7.0.2-0) date 2023-10-10 18:08:06*
%MOMM*%
%LPD*%
G01*
G04 APERTURE LIST*
G04 Aperture macros list*
%AMRoundRect*
0 Rectangle with rounded corners*
0 $1 Rounding radius*
0 $2 $3 $4 $5 $6 $7 $8 $9 X,Y pos of 4 corners*
0 Add a 4 corners polygon primitive as box body*
4,1,4,$2,$3,$4,$5,$6,$7,$8,$9,$2,$3,0*
0 Add four circle primitives for the rounded corners*
1,1,$1+$1,$2,$3*
1,1,$1+$1,$4,$5*
1,1,$1+$1,$6,$7*
1,1,$1+$1,$8,$9*
0 Add four rect primitives between the rounded corners*
20,1,$1+$1,$2,$3,$4,$5,0*
20,1,$1+$1,$4,$5,$6,$7,0*
20,1,$1+$1,$6,$7,$8,$9,0*
20,1,$1+$1,$8,$9,$2,$3,0*%
G04 Aperture macros list end*
%TA.AperFunction,ComponentPad*%
%ADD10C,1.440000*%
%TD*%
%TA.AperFunction,ComponentPad*%
%ADD11RoundRect,0.250000X-0.600000X-0.600000X0.600000X-0.600000X0.600000X0.600000X-0.600000X0.600000X0*%
%TD*%
%TA.AperFunction,ComponentPad*%
%ADD12C,1.700000*%
%TD*%
%TA.AperFunction,ComponentPad*%
%ADD13R,2.400000X1.600000*%
%TD*%
%TA.AperFunction,ComponentPad*%
%ADD14O,2.400000X1.600000*%
%TD*%
%TA.AperFunction,ComponentPad*%
%ADD15R,1.700000X1.700000*%
%TD*%
%TA.AperFunction,ComponentPad*%
%ADD16O,1.700000X1.700000*%
%TD*%
%TA.AperFunction,ViaPad*%
%ADD17C,0.800000*%
%TD*%
%TA.AperFunction,Conductor*%
%ADD18C,0.300000*%
%TD*%
%TA.AperFunction,Conductor*%
%ADD19C,0.500000*%
%TD*%
G04 APERTURE END LIST*
D10*
%TO.P,RV1,1,1*%
%TO.N,Net-(R1-Pad2)*%
X145850000Y-89150000D03*
%TO.P,RV1,2,2*%
%TO.N,Net-(U1-VEE)*%
X145850000Y-91690000D03*
%TO.P,RV1,3,3*%
X145850000Y-94230000D03*
%TD*%
%TO.P,RV7,1,1*%
%TO.N,GND*%
X145850000Y-107650000D03*
%TO.P,RV7,2,2*%
%TO.N,Net-(R35-Pad1)*%
X145850000Y-110190000D03*
%TO.P,RV7,3,3*%
%TO.N,Net-(R34-Pad2)*%
X145850000Y-112730000D03*
%TD*%
D11*
%TO.P,J7,1,Pin_1*%
%TO.N,-12V*%
X128310000Y-140550000D03*
D12*
%TO.P,J7,2,Pin_2*%
X130850000Y-140550000D03*
%TO.P,J7,3,Pin_3*%
%TO.N,GND*%
X128310000Y-138010000D03*
%TO.P,J7,4,Pin_4*%
X130850000Y-138010000D03*
%TO.P,J7,5,Pin_5*%
X128310000Y-135470000D03*
%TO.P,J7,6,Pin_6*%
X130850000Y-135470000D03*
%TO.P,J7,7,Pin_7*%
X128310000Y-132930000D03*
%TO.P,J7,8,Pin_8*%
X130850000Y-132930000D03*
%TO.P,J7,9,Pin_9*%
%TO.N,+12V*%
X128310000Y-130390000D03*
%TO.P,J7,10,Pin_10*%
X130850000Y-130390000D03*
%TD*%
D13*
%TO.P,U1,1,SCALE1*%
%TO.N,Net-(U1-SCALE1)*%
X134625000Y-88675000D03*
D14*
%TO.P,U1,2,SCALE2*%
%TO.N,Net-(U1-SCALE2)*%
X134625000Y-91215000D03*
%TO.P,U1,3,VEE*%
%TO.N,Net-(U1-VEE)*%
X134625000Y-93755000D03*
%TO.P,U1,4,VP*%
%TO.N,/PULSE*%
X134625000Y-96295000D03*
%TO.P,U1,5,PWM*%
%TO.N,/PWM*%
X134625000Y-98835000D03*
%TO.P,U1,6,VHSI*%
%TO.N,/HSYNC*%
X134625000Y-101375000D03*
%TO.P,U1,7,VHFT*%
%TO.N,/VHFT*%
X134625000Y-103915000D03*
%TO.P,U1,8,VSO*%
%TO.N,/SAW*%
X134625000Y-106455000D03*
%TO.P,U1,9,VSSI*%
%TO.N,unconnected-(U1-VSSI-Pad9)*%
X124465000Y-106455000D03*
%TO.P,U1,10,VTO*%
%TO.N,/TRI*%
X124465000Y-103915000D03*
%TO.P,U1,11,CAP*%
%TO.N,Net-(U1-CAP)*%
X124465000Y-101375000D03*
%TO.P,U1,12,GND*%
%TO.N,GND*%
X124465000Y-98835000D03*
%TO.P,U1,13,VLFI*%
%TO.N,/LIN_FM*%
X124465000Y-96295000D03*
%TO.P,U1,14,VS*%
%TO.N,Net-(U1-VS)*%
X124465000Y-93755000D03*
%TO.P,U1,15,VFCI*%
%TO.N,/CV_IN*%
X124465000Y-91215000D03*
%TO.P,U1,16,VCC*%
%TO.N,+12V*%
X124465000Y-88675000D03*
%TD*%
D15*
%TO.P,J11,1,Pin_1*%
%TO.N,/coarse2_a*%
X111900000Y-88000000D03*
D16*
%TO.P,J11,2,Pin_2*%
%TO.N,/coarse3_a*%
X111900000Y-90540000D03*
%TO.P,J11,3,Pin_3*%
%TO.N,/fine2_a*%
X111900000Y-93080000D03*
%TO.P,J11,4,Pin_4*%
%TO.N,/fine3_a*%
X111900000Y-95620000D03*
%TO.P,J11,5,Pin_5*%
%TO.N,/linfm_a*%
X111900000Y-98160000D03*
%TO.P,J11,6,Pin_6*%
%TO.N,/cvmod_a*%
X111900000Y-100700000D03*
%TO.P,J11,7,Pin_7*%
%TO.N,/voct_a*%
X111900000Y-103240000D03*
%TD*%
D15*
%TO.P,J12,1,Pin_1*%
%TO.N,+5V*%
X147200000Y-129010000D03*
D16*
%TO.P,J12,2,Pin_2*%
%TO.N,/pwm_a*%
X147200000Y-131550000D03*
%TO.P,J12,3,Pin_3*%
%TO.N,/sync_a*%
X147200000Y-134090000D03*
%TO.P,J12,4,Pin_4*%
%TO.N,/pulse_a*%
X147200000Y-136630000D03*
%TO.P,J12,5,Pin_5*%
%TO.N,/saw_a*%
X147200000Y-139170000D03*
%TO.P,J12,6,Pin_6*%
%TO.N,/tri_a*%
X147200000Y-141710000D03*
%TO.P,J12,7,Pin_7*%
%TO.N,GND*%
X147200000Y-144250000D03*
%TD*%
D17*
%TO.N,GND*%
X136700000Y-117450000D03*
X136550000Y-115000000D03*
X123250000Y-116350000D03*
X132100000Y-122650000D03*
X124850000Y-111400000D03*
X130100000Y-116250000D03*
X139950000Y-138050000D03*
X145850000Y-106300000D03*
X146100000Y-103400000D03*
X120100000Y-92850000D03*
X116500500Y-115700000D03*
X140900000Y-116600000D03*
X141800000Y-89950000D03*
X117400000Y-99700000D03*
X116950000Y-90250000D03*
X119150000Y-143650000D03*
X145400000Y-144250000D03*
X143050000Y-93750000D03*
X119749500Y-102250000D03*
X125650000Y-118700000D03*
X136700000Y-119200000D03*
X119350000Y-88650000D03*
X139000000Y-99900000D03*
X137300000Y-127350000D03*
X142800000Y-102950000D03*
X127150000Y-91000000D03*
X132050000Y-111400000D03*
X126300000Y-98800000D03*
X145850000Y-117900000D03*
X140900000Y-118300000D03*
%TO.N,+5V*%
X145300000Y-100600000D03*
%TO.N,/sync_a*%
X140050000Y-101400000D03*
%TO.N,/CV_IN*%
X123600000Y-121950000D03*
%TO.N,Net-(U2C-+)*%
X137300000Y-118300000D03*
X138950000Y-105300000D03*
%TO.N,Net-(U2D-+)*%
X137300000Y-116500000D03*
X139000000Y-95200000D03*
%TO.N,Net-(R34-Pad2)*%
X142749500Y-107650000D03*
X141050500Y-107650000D03*
%TO.N,Net-(R35-Pad1)*%
X130750688Y-125449312D03*
X128310500Y-125450000D03*
%TO.N,/TRI*%
X125450000Y-116180000D03*
%TO.N,/pwm_a*%
X143350000Y-96350000D03*
%TO.N,/pulse_a*%
X140900000Y-111050000D03*
%TO.N,/coarse3_a*%
X120750000Y-119200000D03*
%TO.N,/coarse2_a*%
X122500000Y-119200000D03*
%TO.N,/fine3_a*%
X117250000Y-119200000D03*
%TO.N,/fine2_a*%
X119000000Y-119200000D03*
%TO.N,/saw_a*%
X140900000Y-123650500D03*
%TO.N,/cvmod_a*%
X115500000Y-119200000D03*
%TO.N,/tri_a*%
X118250000Y-111000000D03*
%TD*%
D18*
%TO.N,Net-(R34-Pad2)*%
X141050500Y-107650000D02*
X142749500Y-107650000D01*
%TO.N,Net-(R35-Pad1)*%
X128310500Y-125450000D02*
X128311188Y-125449312D01*
X128311188Y-125449312D02*
X130750688Y-125449312D01*
%TO.N,/TRI*%
X127150000Y-105350000D02*
X125715000Y-103915000D01*
X127150000Y-114480000D02*
X127150000Y-105350000D01*
X125715000Y-103915000D02*
X124465000Y-103915000D01*
X125450000Y-116180000D02*
X127150000Y-114480000D01*
%TO.N,/pwm_a*%
X146400000Y-131550000D02*
X144550000Y-129700000D01*
X144550000Y-97550000D02*
X143350000Y-96350000D01*
X144550000Y-129700000D02*
X144550000Y-97550000D01*
X147200000Y-131550000D02*
X146400000Y-131550000D01*
%TO.N,/pulse_a*%
X146530000Y-136630000D02*
X142100000Y-132200000D01*
X142100000Y-132200000D02*
X142100000Y-112250000D01*
X142100000Y-112250000D02*
X140900000Y-111050000D01*
X147200000Y-136630000D02*
X146530000Y-136630000D01*
%TO.N,/coarse3_a*%
X120750000Y-99390000D02*
X111900000Y-90540000D01*
X120750000Y-119200000D02*
X120750000Y-99390000D01*
%TO.N,/coarse2_a*%
X122500000Y-98600000D02*
X111900000Y-88000000D01*
X122500000Y-119200000D02*
X122500000Y-98600000D01*
%TO.N,/fine3_a*%
X117250000Y-100970000D02*
X111900000Y-95620000D01*
X117250000Y-119200000D02*
X117250000Y-100970000D01*
%TO.N,/fine2_a*%
X119000000Y-100180000D02*
X111900000Y-93080000D01*
X119000000Y-119200000D02*
X119000000Y-100180000D01*
%TO.N,/saw_a*%
X146270000Y-139170000D02*
X140900000Y-133800000D01*
X140900000Y-133800000D02*
X140900000Y-123650500D01*
X147200000Y-139170000D02*
X146270000Y-139170000D01*
%TO.N,/cvmod_a*%
X115500000Y-119200000D02*
X115500000Y-104300000D01*
X115500000Y-104300000D02*
X111900000Y-100700000D01*
%TO.N,/tri_a*%
X131100000Y-126400000D02*
X119800000Y-126400000D01*
X119800000Y-126400000D02*
X118250000Y-124850000D01*
X146410000Y-141710000D02*
X131100000Y-126400000D01*
X118250000Y-124850000D02*
X118250000Y-111000000D01*
X147200000Y-141710000D02*
X146410000Y-141710000D01*
D19*
%TO.N,+5V*%
X147200000Y-129010000D02*
X147200000Y-102500000D01*
X147200000Y-102500000D02*
X145300000Y-100600000D01*
D18*
%TO.N,/sync_a*%
X143700000Y-131450000D02*
X143700000Y-105050000D01*
X143700000Y-105050000D02*
X140050000Y-101400000D01*
X147200000Y-134090000D02*
X146340000Y-134090000D01*
X146340000Y-134090000D02*
X143700000Y-131450000D01*
%TO.N,/CV_IN*%
X128200000Y-93850000D02*
X125565000Y-91215000D01*
X128200000Y-117350000D02*
X128200000Y-93850000D01*
X125565000Y-91215000D02*
X124465000Y-91215000D01*
X123600000Y-121950000D02*
X128200000Y-117350000D01*
%TO.N,Net-(U2C-+)*%
X138950000Y-105300000D02*
X138950000Y-116650000D01*
X138950000Y-116650000D02*
X137300000Y-118300000D01*
%TO.N,Net-(U2D-+)*%
X137300000Y-116500000D02*
X137300000Y-96900000D01*
X137300000Y-96900000D02*
X139000000Y-95200000D01*
%TD*%
%TA.AperFunction,Conductor*%
%TO.N,GND*%
G36*
X145376902Y-113856063D02*
G01*
X145430970Y-113881276D01*
X145637253Y-113936549D01*
X145850000Y-113955162D01*
X146062747Y-113936549D01*
X146269030Y-113881276D01*
X146273091Y-113879381D01*
X146342168Y-113868887D01*
X146405953Y-113897404D01*
X146444195Y-113955879D01*
X146449500Y-113991762D01*
X146449500Y-127535500D01*
X146429815Y-127602539D01*
X146377011Y-127648294D01*
X146325505Y-127659500D01*
X146305441Y-127659500D01*
X146305422Y-127659500D01*
X146302128Y-127659501D01*
X146298848Y-127659853D01*
X146298840Y-127659854D01*
X146242515Y-127665909D01*
X146107669Y-127716204D01*
X145992454Y-127802454D01*
X145906204Y-127917668D01*
X145855910Y-128052515D01*
X145855909Y-128052517D01*
X145849500Y-128112127D01*
X145849500Y-128115448D01*
X145849500Y-128115449D01*
X145849500Y-129780191D01*
X145829815Y-129847230D01*
X145777011Y-129892985D01*
X145707853Y-129902929D01*
X145644297Y-129873904D01*
X145637819Y-129867872D01*
X145236819Y-129466872D01*
X145203334Y-129405549D01*
X145200500Y-129379191D01*
X145200500Y-113968446D01*
X145220185Y-113901407D01*
X145272989Y-113855652D01*
X145342147Y-113845708D01*
X145376902Y-113856063D01*
G37*
%TD.AperFunction*%
%TA.AperFunction,Conductor*%
G36*
X113464961Y-98104907D02*
G01*
X116563181Y-101203128D01*
X116596665Y-101264449D01*
X116599499Y-101290807D01*
X116599499Y-118529077D01*
X116579814Y-118596116D01*
X116567650Y-118612048D01*
X116517466Y-118667783D01*
X116482387Y-118728543D01*
X116431820Y-118776759D01*
X116363213Y-118789981D01*
X116298348Y-118764013D01*
X116267613Y-118728543D01*
X116232533Y-118667783D01*
X116182350Y-118612049D01*
X116152120Y-118549057D01*
X116150500Y-118529077D01*
X116150500Y-104385503D01*
X116152841Y-104364300D01*
X116152759Y-104361706D01*
X116152760Y-104361704D01*
X116150561Y-104291722D01*
X116150500Y-104287828D01*
X116150500Y-104262977D01*
X116150500Y-104262976D01*
X116150500Y-104259075D01*
X116149948Y-104254712D01*
X116149031Y-104243063D01*
X116147598Y-104197431D01*
X116141677Y-104177051D01*
X116137730Y-104158001D01*
X116135071Y-104136942D01*
X116118264Y-104094493D01*
X116114481Y-104083445D01*
X116101744Y-104039602D01*
X116090937Y-104021329D01*
X116082382Y-104003866D01*
X116074568Y-103984129D01*
X116047733Y-103947193D01*
X116041325Y-103937436D01*
X116018084Y-103898138D01*
X116018081Y-103898135D01*
X116003068Y-103883122D01*
X115990435Y-103868330D01*
X115977963Y-103851163D01*
X115942779Y-103822056D01*
X115934140Y-103814194D01*
X113247709Y-101127763D01*
X113214224Y-101066440D01*
X113215615Y-101007988D01*
X113228012Y-100961722D01*
X113235063Y-100935408D01*
X113255659Y-100700000D01*
X113248296Y-100615848D01*
X113235063Y-100464592D01*
X113221273Y-100413126D01*
X113173903Y-100236337D01*
X113074035Y-100022171D01*
X112938495Y-99828599D01*
X112771401Y-99661505D01*
X112585839Y-99531573D01*
X112542216Y-99476998D01*
X112535022Y-99407500D01*
X112566545Y-99345145D01*
X112585837Y-99328428D01*
X112771401Y-99198495D01*
X112938495Y-99031401D01*
X113074035Y-98837830D01*
X113173903Y-98623663D01*
X113235063Y-98395408D01*
X113253753Y-98181781D01*
X113279205Y-98116713D01*
X113335796Y-98075734D01*
X113405558Y-98071856D01*
X113464961Y-98104907D01*
G37*
%TD.AperFunction*%
%TA.AperFunction,Conductor*%
G36*
X113464962Y-93024908D02*
G01*
X120063181Y-99623127D01*
X120096666Y-99684450D01*
X120099500Y-99710808D01*
X120099500Y-118529077D01*
X120079815Y-118596116D01*
X120067650Y-118612049D01*
X120017464Y-118667785D01*
X119982385Y-118728544D01*
X119931818Y-118776759D01*
X119863210Y-118789981D01*
X119798346Y-118764013D01*
X119767612Y-118728543D01*
X119732533Y-118667784D01*
X119723843Y-118658132D01*
X119682350Y-118612049D01*
X119652120Y-118549057D01*
X119650500Y-118529077D01*
X119650500Y-109975500D01*
X119650500Y-100265492D01*
X119652841Y-100244295D01*
X119651986Y-100217106D01*
X119650559Y-100171733D01*
X119650499Y-100167836D01*
X119650500Y-100139075D01*
X119649948Y-100134709D01*
X119649030Y-100123055D01*
X119647597Y-100077430D01*
X119641675Y-100057047D01*
X119637732Y-100038010D01*
X119635071Y-100016942D01*
X119618266Y-99974498D01*
X119614481Y-99963444D01*
X119601744Y-99919601D01*
X119590934Y-99901322D01*
X119582380Y-99883862D01*
X119574568Y-99864129D01*
X119547723Y-99827180D01*
X119541332Y-99817451D01*
X119518081Y-99778135D01*
X119503068Y-99763122D01*
X119490435Y-99748330D01*
X119477963Y-99731163D01*
X119442779Y-99702056D01*
X119434140Y-99694194D01*
X113247709Y-93507763D01*
X113214224Y-93446440D01*
X113215615Y-93387988D01*
X113220881Y-93368336D01*
X113235063Y-93315408D01*
X113253753Y-93101781D01*
X113279205Y-93036713D01*
X113335796Y-92995734D01*
X113405558Y-92991856D01*
X113464962Y-93024908D01*
G37*
%TD.AperFunction*%
%TA.AperFunction,Conductor*%
G36*
X113464961Y-95564907D02*
G01*
X118313182Y-100413128D01*
X118346666Y-100474449D01*
X118349500Y-100500807D01*
X118349500Y-109975500D01*
X118329815Y-110042539D01*
X118277011Y-110088294D01*
X118225500Y-110099500D01*
X118155351Y-110099500D01*
X118050280Y-110121833D01*
X117980613Y-110116517D01*
X117924880Y-110074380D01*
X117900775Y-110008800D01*
X117900500Y-110000543D01*
X117900500Y-101055503D01*
X117902841Y-101034300D01*
X117902759Y-101031706D01*
X117902760Y-101031704D01*
X117900561Y-100961722D01*
X117900500Y-100957828D01*
X117900500Y-100932977D01*
X117900500Y-100932976D01*
X117900500Y-100929075D01*
X117899948Y-100924712D01*
X117899031Y-100913064D01*
X117897598Y-100867431D01*
X117891675Y-100847045D01*
X117887731Y-100828004D01*
X117885071Y-100806942D01*
X117868267Y-100764501D01*
X117864484Y-100753452D01*
X117851745Y-100709602D01*
X117846066Y-100699999D01*
X117840937Y-100691326D01*
X117832376Y-100673850D01*
X117824568Y-100654129D01*
X117797731Y-100617191D01*
X117791317Y-100607425D01*
X117768081Y-100568135D01*
X117753074Y-100553128D01*
X117740436Y-100538331D01*
X117727963Y-100521163D01*
X117692779Y-100492056D01*
X117684140Y-100484194D01*
X113247709Y-96047763D01*
X113214224Y-95986440D01*
X113215615Y-95927988D01*
X113235063Y-95855408D01*
X113253753Y-95641781D01*
X113279205Y-95576713D01*
X113335796Y-95535734D01*
X113405558Y-95531856D01*
X113464961Y-95564907D01*
G37*
%TD.AperFunction*%
%TA.AperFunction,Conductor*%
G36*
X145405703Y-101767517D02*
G01*
X145412181Y-101773549D01*
X146413181Y-102774549D01*
X146446666Y-102835872D01*
X146449500Y-102862230D01*
X146449500Y-106388789D01*
X146429815Y-106455828D01*
X146377011Y-106501583D01*
X146307853Y-106511527D01*
X146273102Y-106501174D01*
X146268863Y-106499197D01*
X146062657Y-106443944D01*
X145849999Y-106425339D01*
X145637342Y-106443944D01*
X145431138Y-106499197D01*
X145376904Y-106524487D01*
X145307827Y-106534979D01*
X145244043Y-106506459D01*
X145205804Y-106447982D01*
X145200500Y-106412105D01*
X145200500Y-101861230D01*
X145220185Y-101794191D01*
X145272989Y-101748436D01*
X145342147Y-101738492D01*
X145405703Y-101767517D01*
G37*
%TD.AperFunction*%
%TA.AperFunction,Conductor*%
G36*
X125718157Y-92293722D02*
G01*
X125742988Y-92312933D01*
X127513181Y-94083126D01*
X127546666Y-94144449D01*
X127549500Y-94170807D01*
X127549499Y-104530192D01*
X127529814Y-104597231D01*
X127477010Y-104642986D01*
X127407852Y-104652930D01*
X127344296Y-104623905D01*
X127337832Y-104617886D01*
X126235434Y-103515488D01*
X126222091Y-103498833D01*
X126169166Y-103449134D01*
X126166369Y-103446423D01*
X126148789Y-103428843D01*
X126146035Y-103426089D01*
X126142956Y-103423701D01*
X126142951Y-103423696D01*
X126142548Y-103423383D01*
X126133669Y-103415800D01*
X126100392Y-103384551D01*
X126081793Y-103374326D01*
X126065531Y-103363644D01*
X126053686Y-103354456D01*
X126017305Y-103308881D01*
X125995568Y-103262266D01*
X125865046Y-103075859D01*
X125704140Y-102914953D01*
X125517733Y-102784431D01*
X125459725Y-102757382D01*
X125407285Y-102711210D01*
X125388133Y-102644017D01*
X125408348Y-102577135D01*
X125459725Y-102532618D01*
X125517734Y-102505568D01*
X125704139Y-102375047D01*
X125865047Y-102214139D01*
X125995568Y-102027734D01*
X126091739Y-101821496D01*
X126150635Y-101601692D01*
X126170468Y-101375000D01*
X126150635Y-101148308D01*
X126091739Y-100928504D01*
X125995568Y-100722266D01*
X125979978Y-100700000D01*
X125865046Y-100535859D01*
X125704140Y-100374953D01*
X125517736Y-100244433D01*
X125517440Y-100244295D01*
X125459132Y-100217105D01*
X125406695Y-100170933D01*
X125387543Y-100103739D01*
X125407759Y-100036858D01*
X125459135Y-99992342D01*
X125517479Y-99965135D01*
X125703819Y-99834658D01*
X125864658Y-99673819D01*
X125995134Y-99487480D01*
X126091266Y-99281326D01*
X126143872Y-99085000D01*
X124780686Y-99085000D01*
X124792641Y-99073045D01*
X124850165Y-98960148D01*
X124869986Y-98835000D01*
X124850165Y-98709852D01*
X124792641Y-98596955D01*
X124780686Y-98585000D01*
X126143872Y-98585000D01*
X126143871Y-98584999D01*
X126091266Y-98388673D01*
X125995134Y-98182519D01*
X125864658Y-97996180D01*
X125703819Y-97835341D01*
X125517482Y-97704866D01*
X125459133Y-97677657D01*
X125406694Y-97631484D01*
X125387543Y-97564290D01*
X125407759Y-97497409D01*
X125459134Y-97452893D01*
X125517734Y-97425568D01*
X125704139Y-97295047D01*
X125865047Y-97134139D01*
X125995568Y-96947734D01*
X126091739Y-96741496D01*
X126150635Y-96521692D01*
X126170468Y-96295000D01*
X126150635Y-96068308D01*
X126091739Y-95848504D01*
X125995568Y-95642266D01*
X125995230Y-95641782D01*
X125865046Y-95455859D01*
X125704140Y-95294953D01*
X125517733Y-95164431D01*
X125459725Y-95137382D01*
X125407285Y-95091210D01*
X125388133Y-95024017D01*
X125408348Y-94957135D01*
X125459725Y-94912618D01*
X125517734Y-94885568D01*
X125704139Y-94755047D01*
X125865047Y-94594139D01*
X125995568Y-94407734D01*
X126091739Y-94201496D01*
X126150635Y-93981692D01*
X126170468Y-93755000D01*
X126150635Y-93528308D01*
X126091739Y-93308504D01*
X125995568Y-93102266D01*
X125995230Y-93101782D01*
X125865046Y-92915859D01*
X125704140Y-92754953D01*
X125517733Y-92624431D01*
X125459725Y-92597382D01*
X125407285Y-92551210D01*
X125388133Y-92484017D01*
X125408348Y-92417135D01*
X125459725Y-92372618D01*
X125517730Y-92345570D01*
X125517730Y-92345569D01*
X125517734Y-92345568D01*
X125584185Y-92299038D01*
X125650389Y-92276712D01*
X125718157Y-92293722D01*
G37*
%TD.AperFunction*%
%TA.AperFunction,Conductor*%
G36*
X130390507Y-138219844D02*
G01*
X130468239Y-138340798D01*
X130576900Y-138434952D01*
X130707685Y-138494680D01*
X130717466Y-138496086D01*
X130088625Y-139124925D01*
X130164594Y-139178119D01*
X130208219Y-139232696D01*
X130215413Y-139302194D01*
X130183890Y-139364549D01*
X130164595Y-139381269D01*
X129978595Y-139511508D01*
X129803834Y-139686270D01*
X129801128Y-139683564D01*
X129762151Y-139714671D01*
X129692647Y-139721809D01*
X129630317Y-139690237D01*
X129597539Y-139638890D01*
X129594814Y-139630666D01*
X129502712Y-139481344D01*
X129502711Y-139481342D01*
X129378657Y-139357288D01*
X129229334Y-139265186D01*
X129156967Y-139241206D01*
X129099522Y-139201433D01*
X129072699Y-139136917D01*
X129072585Y-139126137D01*
X128442533Y-138496086D01*
X128452315Y-138494680D01*
X128583100Y-138434952D01*
X128691761Y-138340798D01*
X128769493Y-138219844D01*
X128793076Y-138139524D01*
X129424925Y-138771373D01*
X129478424Y-138694969D01*
X129533001Y-138651344D01*
X129602499Y-138644150D01*
X129664854Y-138675673D01*
X129681574Y-138694969D01*
X129735072Y-138771373D01*
X129735073Y-138771373D01*
X130366923Y-138139523D01*
X130390507Y-138219844D01*
G37*
%TD.AperFunction*%
%TA.AperFunction,Conductor*%
G36*
X130390507Y-135679844D02*
G01*
X130468239Y-135800798D01*
X130576900Y-135894952D01*
X130707685Y-135954680D01*
X130717466Y-135956086D01*
X130088625Y-136584925D01*
X130165031Y-136638425D01*
X130208655Y-136693002D01*
X130215848Y-136762501D01*
X130184326Y-136824855D01*
X130165029Y-136841576D01*
X130088625Y-136895072D01*
X130717466Y-137523913D01*
X130707685Y-137525320D01*
X130576900Y-137585048D01*
X130468239Y-137679202D01*
X130390507Y-137800156D01*
X130366923Y-137880475D01*
X129735073Y-137248625D01*
X129735072Y-137248626D01*
X129681574Y-137325030D01*
X129626998Y-137368655D01*
X129557499Y-137375849D01*
X129495144Y-137344326D01*
X129478424Y-137325030D01*
X129424925Y-137248626D01*
X129424925Y-137248625D01*
X128793076Y-137880475D01*
X128769493Y-137800156D01*
X128691761Y-137679202D01*
X128583100Y-137585048D01*
X128452315Y-137525320D01*
X128442533Y-137523913D01*
X129071373Y-136895073D01*
X129071373Y-136895072D01*
X128994969Y-136841574D01*
X128951344Y-136786997D01*
X128944150Y-136717499D01*
X128975673Y-136655144D01*
X128994969Y-136638424D01*
X129071373Y-136584925D01*
X128442533Y-135956086D01*
X128452315Y-135954680D01*
X128583100Y-135894952D01*
X128691761Y-135800798D01*
X128769493Y-135679844D01*
X128793077Y-135599523D01*
X129424925Y-136231372D01*
X129478424Y-136154969D01*
X129533001Y-136111344D01*
X129602499Y-136104150D01*
X129664854Y-136135673D01*
X129681574Y-136154969D01*
X129735072Y-136231373D01*
X129735073Y-136231373D01*
X130366923Y-135599523D01*
X130390507Y-135679844D01*
G37*
%TD.AperFunction*%
%TA.AperFunction,Conductor*%
G36*
X130390507Y-133139844D02*
G01*
X130468239Y-133260798D01*
X130576900Y-133354952D01*
X130707685Y-133414680D01*
X130717466Y-133416086D01*
X130088625Y-134044925D01*
X130165031Y-134098425D01*
X130208655Y-134153002D01*
X130215848Y-134222501D01*
X130184326Y-134284855D01*
X130165029Y-134301576D01*
X130088625Y-134355072D01*
X130717466Y-134983913D01*
X130707685Y-134985320D01*
X130576900Y-135045048D01*
X130468239Y-135139202D01*
X130390507Y-135260156D01*
X130366923Y-135340475D01*
X129735073Y-134708625D01*
X129735072Y-134708626D01*
X129681574Y-134785030D01*
X129626998Y-134828655D01*
X129557499Y-134835849D01*
X129495144Y-134804326D01*
X129478424Y-134785030D01*
X129424925Y-134708626D01*
X129424925Y-134708625D01*
X128793076Y-135340474D01*
X128769493Y-135260156D01*
X128691761Y-135139202D01*
X128583100Y-135045048D01*
X128452315Y-134985320D01*
X128442533Y-134983913D01*
X129071373Y-134355073D01*
X129071373Y-134355072D01*
X128994969Y-134301574D01*
X128951344Y-134246997D01*
X128944150Y-134177499D01*
X128975673Y-134115144D01*
X128994969Y-134098424D01*
X129071373Y-134044925D01*
X128442533Y-133416086D01*
X128452315Y-133414680D01*
X128583100Y-133354952D01*
X128691761Y-133260798D01*
X128769493Y-133139844D01*
X128793076Y-133059524D01*
X129424925Y-133691373D01*
X129478424Y-133614969D01*
X129533001Y-133571344D01*
X129602499Y-133564150D01*
X129664854Y-133595673D01*
X129681574Y-133614969D01*
X129735072Y-133691373D01*
X129735073Y-133691373D01*
X130366923Y-133059523D01*
X130390507Y-133139844D01*
G37*
%TD.AperFunction*%
%TA.AperFunction,Conductor*%
G36*
X129664854Y-131056545D02*
G01*
X129681572Y-131075838D01*
X129811505Y-131261401D01*
X129978599Y-131428495D01*
X130164596Y-131558732D01*
X130208219Y-131613307D01*
X130215412Y-131682806D01*
X130183890Y-131745160D01*
X130164594Y-131761881D01*
X130088626Y-131815073D01*
X130717466Y-132443913D01*
X130707685Y-132445320D01*
X130576900Y-132505048D01*
X130468239Y-132599202D01*
X130390507Y-132720156D01*
X130366923Y-132800475D01*
X129735073Y-132168625D01*
X129735072Y-132168626D01*
X129681574Y-132245030D01*
X129626998Y-132288655D01*
X129557499Y-132295849D01*
X129495144Y-132264326D01*
X129478424Y-132245030D01*
X129424925Y-132168626D01*
X129424925Y-132168625D01*
X128793076Y-132800475D01*
X128769493Y-132720156D01*
X128691761Y-132599202D01*
X128583100Y-132505048D01*
X128452315Y-132445320D01*
X128442532Y-132443913D01*
X129071373Y-131815073D01*
X129071373Y-131815072D01*
X128995405Y-131761880D01*
X128951780Y-131707304D01*
X128944586Y-131637805D01*
X128976108Y-131575451D01*
X128995399Y-131558734D01*
X129181401Y-131428495D01*
X129348495Y-131261401D01*
X129478427Y-131075838D01*
X129533001Y-131032216D01*
X129602499Y-131025022D01*
X129664854Y-131056545D01*
G37*
%TD.AperFunction*%
%TA.AperFunction,Conductor*%
G36*
X148992539Y-86170185D02*
G01*
X149038294Y-86222989D01*
X149049500Y-86274500D01*
X149049500Y-146025500D01*
X149029815Y-146092539D01*
X148977011Y-146138294D01*
X148925500Y-146149500D01*
X110174500Y-146149500D01*
X110107461Y-146129815D01*
X110061706Y-146077011D01*
X110050500Y-146025500D01*
X110050500Y-130390000D01*
X126954340Y-130390000D01*
X126974936Y-130625407D01*
X126989189Y-130678598D01*
X127036097Y-130853663D01*
X127135965Y-131067830D01*
X127271505Y-131261401D01*
X127438599Y-131428495D01*
X127624596Y-131558732D01*
X127668219Y-131613307D01*
X127675412Y-131682806D01*
X127643890Y-131745160D01*
X127624594Y-131761881D01*
X127548625Y-131815073D01*
X128177465Y-132443913D01*
X128167685Y-132445320D01*
X128036900Y-132505048D01*
X127928239Y-132599202D01*
X127850507Y-132720156D01*
X127826923Y-132800475D01*
X127195073Y-132168625D01*
X127195072Y-132168625D01*
X127136399Y-132252422D01*
X127036569Y-132466507D01*
X126975430Y-132694681D01*
X126954842Y-132930000D01*
X126975430Y-133165318D01*
X127036569Y-133393492D01*
X127136400Y-133607580D01*
X127195073Y-133691373D01*
X127826923Y-133059523D01*
X127850507Y-133139844D01*
X127928239Y-133260798D01*
X128036900Y-133354952D01*
X128167685Y-133414680D01*
X128177466Y-133416086D01*
X127548625Y-134044925D01*
X127625031Y-134098425D01*
X127668655Y-134153002D01*
X127675848Y-134222501D01*
X127644326Y-134284855D01*
X127625029Y-134301576D01*
X127548625Y-134355072D01*
X128177466Y-134983913D01*
X128167685Y-134985320D01*
X128036900Y-135045048D01*
X127928239Y-135139202D01*
X127850507Y-135260156D01*
X127826923Y-135340475D01*
X127195073Y-134708625D01*
X127195072Y-134708625D01*
X127136399Y-134792422D01*
X127036569Y-135006507D01*
X126975430Y-135234681D01*
X126954842Y-135469999D01*
X126975430Y-135705318D01*
X127036569Y-135933492D01*
X127136400Y-136147580D01*
X127195073Y-136231373D01*
X127826923Y-135599523D01*
X127850507Y-135679844D01*
X127928239Y-135800798D01*
X128036900Y-135894952D01*
X128167685Y-135954680D01*
X128177466Y-135956086D01*
X127548625Y-136584925D01*
X127625031Y-136638425D01*
X127668655Y-136693002D01*
X127675848Y-136762501D01*
X127644326Y-136824855D01*
X127625029Y-136841576D01*
X127548625Y-136895072D01*
X128177466Y-137523913D01*
X128167685Y-137525320D01*
X128036900Y-137585048D01*
X127928239Y-137679202D01*
X127850507Y-137800156D01*
X127826923Y-137880475D01*
X127195073Y-137248625D01*
X127195072Y-137248625D01*
X127136399Y-137332422D01*
X127036569Y-137546507D01*
X126975430Y-137774681D01*
X126954842Y-138010000D01*
X126975430Y-138245318D01*
X127036569Y-138473492D01*
X127136400Y-138687580D01*
X127195073Y-138771373D01*
X127826923Y-138139523D01*
X127850507Y-138219844D01*
X127928239Y-138340798D01*
X128036900Y-138434952D01*
X128167685Y-138494680D01*
X128177466Y-138496086D01*
X127544208Y-139129342D01*
X127533788Y-139181193D01*
X127485172Y-139231376D01*
X127463032Y-139241206D01*
X127390664Y-139265186D01*
X127241342Y-139357288D01*
X127117288Y-139481342D01*
X127025186Y-139630665D01*
X126970000Y-139797202D01*
X126959819Y-139896858D01*
X126959817Y-139896878D01*
X126959500Y-139899991D01*
X126959500Y-139903138D01*
X126959500Y-139903139D01*
X126959500Y-141196859D01*
X126959500Y-141196878D01*
X126959501Y-141200008D01*
X126959820Y-141203140D01*
X126959821Y-141203141D01*
X126970000Y-141302796D01*
X127025186Y-141469334D01*
X127117288Y-141618657D01*
X127241342Y-141742711D01*
X127241344Y-141742712D01*
X127390666Y-141834814D01*
X127502017Y-141871712D01*
X127557202Y-141889999D01*
X127656858Y-141900180D01*
X127656859Y-141900180D01*
X127659991Y-141900500D01*
X128960008Y-141900499D01*
X129062797Y-141889999D01*
X129229334Y-141834814D01*
X129378656Y-141742712D01*
X129502712Y-141618656D01*
X129594814Y-141469334D01*
X129597538Y-141461111D01*
X129637307Y-141403668D01*
X129701822Y-141376843D01*
X129770599Y-141389155D01*
X129801654Y-141415909D01*
X129803834Y-141413730D01*
X129811505Y-141421401D01*
X129978599Y-141588495D01*
X130172170Y-141724035D01*
X130386337Y-141823903D01*
X130614592Y-141885063D01*
X130850000Y-141905659D01*
X131085408Y-141885063D01*
X131313663Y-141823903D01*
X131527830Y-141724035D01*
X131721401Y-141588495D01*
X131888495Y-141421401D01*
X132024035Y-141227830D01*
X132123903Y-141013663D01*
X132185063Y-140785408D01*
X132205659Y-140550000D01*
X132185063Y-140314592D01*
X132123903Y-140086337D01*
X132024035Y-139872171D01*
X131888495Y-139678599D01*
X131721401Y-139511505D01*
X131535402Y-139381267D01*
X131491780Y-139326692D01*
X131484587Y-139257193D01*
X131516109Y-139194839D01*
X131535405Y-139178119D01*
X131611373Y-139124925D01*
X130982533Y-138496086D01*
X130992315Y-138494680D01*
X131123100Y-138434952D01*
X131231761Y-138340798D01*
X131309493Y-138219844D01*
X131333076Y-138139524D01*
X131964925Y-138771373D01*
X132023600Y-138687576D01*
X132123430Y-138473492D01*
X132184569Y-138245318D01*
X132205157Y-138010000D01*
X132184569Y-137774681D01*
X132123430Y-137546507D01*
X132023599Y-137332421D01*
X131964926Y-137248626D01*
X131964925Y-137248625D01*
X131333076Y-137880475D01*
X131309493Y-137800156D01*
X131231761Y-137679202D01*
X131123100Y-137585048D01*
X130992315Y-137525320D01*
X130982533Y-137523913D01*
X131611373Y-136895073D01*
X131611373Y-136895072D01*
X131534969Y-136841574D01*
X131491344Y-136786997D01*
X131484150Y-136717499D01*
X131515673Y-136655144D01*
X131534969Y-136638424D01*
X131611373Y-136584925D01*
X130982533Y-135956086D01*
X130992315Y-135954680D01*
X131123100Y-135894952D01*
X131231761Y-135800798D01*
X131309493Y-135679844D01*
X131333076Y-135599524D01*
X131964925Y-136231373D01*
X132023600Y-136147576D01*
X132123430Y-135933492D01*
X132184569Y-135705318D01*
X132205157Y-135469999D01*
X132184569Y-135234681D01*
X132123430Y-135006507D01*
X132023599Y-134792421D01*
X131964926Y-134708626D01*
X131964925Y-134708625D01*
X131333076Y-135340474D01*
X131309493Y-135260156D01*
X131231761Y-135139202D01*
X131123100Y-135045048D01*
X130992315Y-134985320D01*
X130982533Y-134983913D01*
X131611373Y-134355073D01*
X131611373Y-134355072D01*
X131534969Y-134301574D01*
X131491344Y-134246997D01*
X131484150Y-134177499D01*
X131515673Y-134115144D01*
X131534969Y-134098424D01*
X131611373Y-134044925D01*
X130982533Y-133416086D01*
X130992315Y-133414680D01*
X131123100Y-133354952D01*
X131231761Y-133260798D01*
X131309493Y-133139844D01*
X131333076Y-133059524D01*
X131964925Y-133691373D01*
X132023600Y-133607576D01*
X132123430Y-133393492D01*
X132184569Y-133165318D01*
X132205157Y-132930000D01*
X132184569Y-132694681D01*
X132123430Y-132466507D01*
X132023599Y-132252421D01*
X131964926Y-132168626D01*
X131964925Y-132168625D01*
X131333076Y-132800474D01*
X131309493Y-132720156D01*
X131231761Y-132599202D01*
X131123100Y-132505048D01*
X130992315Y-132445320D01*
X130982533Y-132443913D01*
X131611373Y-131815073D01*
X131611373Y-131815072D01*
X131535405Y-131761880D01*
X131491780Y-131707304D01*
X131484586Y-131637805D01*
X131516108Y-131575451D01*
X131535399Y-131558734D01*
X131721401Y-131428495D01*
X131888495Y-131261401D01*
X132024035Y-131067830D01*
X132123903Y-130853663D01*
X132185063Y-130625408D01*
X132205659Y-130390000D01*
X132185063Y-130154592D01*
X132123903Y-129926337D01*
X132024035Y-129712171D01*
X131888495Y-129518599D01*
X131721401Y-129351505D01*
X131527830Y-129215965D01*
X131313663Y-129116097D01*
X131252502Y-129099709D01*
X131085407Y-129054936D01*
X130850000Y-129034340D01*
X130614592Y-129054936D01*
X130386336Y-129116097D01*
X130172170Y-129215965D01*
X129978598Y-129351505D01*
X129811505Y-129518598D01*
X129681575Y-129704159D01*
X129626998Y-129747784D01*
X129557500Y-129754978D01*
X129495145Y-129723455D01*
X129478425Y-129704159D01*
X129348494Y-129518598D01*
X129181404Y-129351508D01*
X129181401Y-129351505D01*
X128987830Y-129215965D01*
X128773663Y-129116097D01*
X128712501Y-129099709D01*
X128545407Y-129054936D01*
X128309999Y-129034340D01*
X128074592Y-129054936D01*
X127846336Y-129116097D01*
X127632170Y-129215965D01*
X127438598Y-129351505D01*
X127271505Y-129518598D01*
X127135965Y-129712170D01*
X127036097Y-129926336D01*
X126974936Y-130154592D01*
X126954340Y-130390000D01*
X110050500Y-130390000D01*
X110050500Y-103240000D01*
X110544340Y-103240000D01*
X110564936Y-103475407D01*
X110573082Y-103505807D01*
X110626097Y-103703663D01*
X110725965Y-103917830D01*
X110861505Y-104111401D01*
X111028599Y-104278495D01*
X111222170Y-104414035D01*
X111436337Y-104513903D01*
X111643625Y-104569445D01*
X111664592Y-104575063D01*
X111899999Y-104595659D01*
X111899999Y-104595658D01*
X111900000Y-104595659D01*
X112135408Y-104575063D01*
X112363663Y-104513903D01*
X112577830Y-104414035D01*
X112771401Y-104278495D01*
X112938495Y-104111401D01*
X113074035Y-103917830D01*
X113173903Y-103703663D01*
X113235063Y-103475408D01*
X113253753Y-103261779D01*
X113279205Y-103196712D01*
X113335796Y-103155733D01*
X113405558Y-103151855D01*
X113464962Y-103184907D01*
X114813181Y-104533126D01*
X114846666Y-104594449D01*
X114849500Y-104620807D01*
X114849500Y-118529077D01*
X114829815Y-118596116D01*
X114817650Y-118612049D01*
X114767466Y-118667783D01*
X114672820Y-118831715D01*
X114614326Y-119011742D01*
X114594540Y-119199999D01*
X114614326Y-119388257D01*
X114672820Y-119568284D01*
X114767466Y-119732216D01*
X114894129Y-119872889D01*
X115047269Y-119984151D01*
X115220197Y-120061144D01*
X115405352Y-120100500D01*
X115405354Y-120100500D01*
X115594648Y-120100500D01*
X115718084Y-120074262D01*
X115779803Y-120061144D01*
X115952730Y-119984151D01*
X116105871Y-119872888D01*
X116232533Y-119732216D01*
X116267612Y-119671456D01*
X116318180Y-119623241D01*
X116386786Y-119610017D01*
X116451651Y-119635985D01*
X116482387Y-119671456D01*
X116517466Y-119732216D01*
X116644129Y-119872889D01*
X116797269Y-119984151D01*
X116970197Y-120061144D01*
X117155352Y-120100500D01*
X117155354Y-120100500D01*
X117344647Y-120100500D01*
X117394585Y-120089885D01*
X117449719Y-120078166D01*
X117519386Y-120083482D01*
X117575119Y-120125619D01*
X117599225Y-120191198D01*
X117599500Y-120199456D01*
X117599500Y-124764494D01*
X117597158Y-124785702D01*
X117599439Y-124858262D01*
X117599500Y-124862157D01*
X117599500Y-124890925D01*
X117599987Y-124894785D01*
X117599989Y-124894808D01*
X117600054Y-124895320D01*
X117600968Y-124906942D01*
X117602402Y-124952569D01*
X117608323Y-124972950D01*
X117612267Y-124991995D01*
X117614928Y-125013059D01*
X117631737Y-125055515D01*
X117635520Y-125066563D01*
X117648256Y-125110400D01*
X117659061Y-125128670D01*
X117667621Y-125146143D01*
X117675431Y-125165869D01*
X117702267Y-125202808D01*
X117708673Y-125212560D01*
X117731919Y-125251865D01*
X117731921Y-125251867D01*
X117746925Y-125266871D01*
X117759564Y-125281669D01*
X117772037Y-125298837D01*
X117807212Y-125327936D01*
X117815854Y-125335800D01*
X119279564Y-126799510D01*
X119292911Y-126816169D01*
X119345832Y-126865864D01*
X119348629Y-126868575D01*
X119368965Y-126888911D01*
X119372036Y-126891293D01*
X119372437Y-126891604D01*
X119381327Y-126899196D01*
X119414607Y-126930448D01*
X119433206Y-126940673D01*
X119449466Y-126951354D01*
X119466236Y-126964362D01*
X119486046Y-126972934D01*
X119508129Y-126982491D01*
X119518620Y-126987630D01*
X119558632Y-127009627D01*
X119579196Y-127014906D01*
X119597601Y-127021208D01*
X119617074Y-127029635D01*
X119662171Y-127036777D01*
X119673586Y-127039141D01*
X119717823Y-127050500D01*
X119739045Y-127050500D01*
X119758444Y-127052027D01*
X119760799Y-127052399D01*
X119779405Y-127055347D01*
X119821319Y-127051384D01*
X119824861Y-127051050D01*
X119836530Y-127050500D01*
X130779192Y-127050500D01*
X130846231Y-127070185D01*
X130866873Y-127086819D01*
X145889565Y-142109511D01*
X145906576Y-142130742D01*
X145910284Y-142136584D01*
X145925366Y-142170936D01*
X145926096Y-142173663D01*
X145997485Y-142326754D01*
X146025965Y-142387830D01*
X146161505Y-142581401D01*
X146328599Y-142748495D01*
X146514596Y-142878732D01*
X146558219Y-142933307D01*
X146565412Y-143002806D01*
X146533890Y-143065160D01*
X146514595Y-143081880D01*
X146328919Y-143211892D01*
X146161890Y-143378921D01*
X146026400Y-143572421D01*
X145926569Y-143786507D01*
X145869364Y-143999999D01*
X145869364Y-144000000D01*
X146766314Y-144000000D01*
X146740507Y-144040156D01*
X146700000Y-144178111D01*
X146700000Y-144321889D01*
X146740507Y-144459844D01*
X146766314Y-144500000D01*
X145869364Y-144500000D01*
X145926569Y-144713492D01*
X146026399Y-144927576D01*
X146161893Y-145121081D01*
X146328918Y-145288106D01*
X146522423Y-145423600D01*
X146736509Y-145523430D01*
X146950000Y-145580634D01*
X146950000Y-144685501D01*
X147057685Y-144734680D01*
X147164237Y-144750000D01*
X147235763Y-144750000D01*
X147342315Y-144734680D01*
X147450000Y-144685501D01*
X147450000Y-145580633D01*
X147663490Y-145523430D01*
X147877576Y-145423600D01*
X148071081Y-145288106D01*
X148238106Y-145121081D01*
X148373600Y-144927576D01*
X148473430Y-144713492D01*
X148530636Y-144500000D01*
X147633686Y-144500000D01*
X147659493Y-144459844D01*
X147700000Y-144321889D01*
X147700000Y-144178111D01*
X147659493Y-144040156D01*
X147633686Y-144000000D01*
X148530636Y-144000000D01*
X148530635Y-143999999D01*
X148473430Y-143786507D01*
X148373599Y-143572421D01*
X148238109Y-143378921D01*
X148071081Y-143211893D01*
X147885404Y-143081880D01*
X147841780Y-143027303D01*
X147834587Y-142957804D01*
X147866109Y-142895450D01*
X147885399Y-142878734D01*
X148071401Y-142748495D01*
X148238495Y-142581401D01*
X148374035Y-142387830D01*
X148473903Y-142173663D01*
X148535063Y-141945408D01*
X148555659Y-141710000D01*
X148535063Y-141474592D01*
X148473903Y-141246337D01*
X148374035Y-141032171D01*
X148238495Y-140838599D01*
X148071401Y-140671505D01*
X147885839Y-140541573D01*
X147842216Y-140486998D01*
X147835022Y-140417500D01*
X147866545Y-140355145D01*
X147885837Y-140338428D01*
X148071401Y-140208495D01*
X148238495Y-140041401D01*
X148374035Y-139847830D01*
X148473903Y-139633663D01*
X148535063Y-139405408D01*
X148555659Y-139170000D01*
X148535063Y-138934592D01*
X148473903Y-138706337D01*
X148374035Y-138492171D01*
X148238495Y-138298599D01*
X148071401Y-138131505D01*
X147885839Y-138001573D01*
X147842216Y-137946998D01*
X147835022Y-137877500D01*
X147866545Y-137815145D01*
X147885837Y-137798428D01*
X148071401Y-137668495D01*
X148238495Y-137501401D01*
X148374035Y-137307830D01*
X148473903Y-137093663D01*
X148535063Y-136865408D01*
X148555659Y-136630000D01*
X148535063Y-136394592D01*
X148473903Y-136166337D01*
X148374035Y-135952171D01*
X148238495Y-135758599D01*
X148071401Y-135591505D01*
X147885839Y-135461573D01*
X147842216Y-135406998D01*
X147835022Y-135337500D01*
X147866545Y-135275145D01*
X147885837Y-135258428D01*
X148071401Y-135128495D01*
X148238495Y-134961401D01*
X148374035Y-134767830D01*
X148473903Y-134553663D01*
X148535063Y-134325408D01*
X148555659Y-134090000D01*
X148535063Y-133854592D01*
X148473903Y-133626337D01*
X148374035Y-133412171D01*
X148238495Y-133218599D01*
X148071401Y-133051505D01*
X147885839Y-132921573D01*
X147842216Y-132866998D01*
X147835022Y-132797500D01*
X147866545Y-132735145D01*
X147885837Y-132718428D01*
X148071401Y-132588495D01*
X148238495Y-132421401D01*
X148374035Y-132227830D01*
X148473903Y-132013663D01*
X148535063Y-131785408D01*
X148555659Y-131550000D01*
X148550490Y-131490925D01*
X148535063Y-131314592D01*
X148508879Y-131216872D01*
X148473903Y-131086337D01*
X148374035Y-130872171D01*
X148238495Y-130678599D01*
X148116569Y-130556673D01*
X148083084Y-130495350D01*
X148088068Y-130425658D01*
X148129940Y-130369725D01*
X148160915Y-130352810D01*
X148292331Y-130303796D01*
X148407546Y-130217546D01*
X148493796Y-130102331D01*
X148544091Y-129967483D01*
X148550500Y-129907873D01*
X148550499Y-128112128D01*
X148544091Y-128052517D01*
X148493796Y-127917669D01*
X148407546Y-127802454D01*
X148292331Y-127716204D01*
X148157483Y-127665909D01*
X148097873Y-127659500D01*
X148094551Y-127659500D01*
X148074500Y-127659500D01*
X148007461Y-127639815D01*
X147961706Y-127587011D01*
X147950500Y-127535500D01*
X147950500Y-102563705D01*
X147951809Y-102545735D01*
X147953730Y-102532618D01*
X147955289Y-102521977D01*
X147950972Y-102472629D01*
X147950500Y-102461823D01*
X147950500Y-102459901D01*
X147950500Y-102456291D01*
X147946903Y-102425520D01*
X147946536Y-102421929D01*
X147941871Y-102368599D01*
X147939999Y-102347203D01*
X147939998Y-102347201D01*
X147939889Y-102345949D01*
X147935672Y-102326930D01*
X147909592Y-102255274D01*
X147908408Y-102251868D01*
X147895906Y-102214140D01*
X147884814Y-102180666D01*
X147884812Y-102180663D01*
X147884415Y-102179464D01*
X147875929Y-102161936D01*
X147875237Y-102160884D01*
X147875237Y-102160883D01*
X147834001Y-102098188D01*
X147832086Y-102095181D01*
X147817526Y-102071575D01*
X147792712Y-102031345D01*
X147792711Y-102031344D01*
X147792048Y-102030269D01*
X147779748Y-102015170D01*
X147724272Y-101962831D01*
X147721685Y-101960318D01*
X146212771Y-100451403D01*
X146182521Y-100402040D01*
X146127179Y-100231715D01*
X146032533Y-100067783D01*
X145905870Y-99927110D01*
X145752730Y-99815848D01*
X145579802Y-99738855D01*
X145394648Y-99699500D01*
X145394646Y-99699500D01*
X145324500Y-99699500D01*
X145257461Y-99679815D01*
X145211706Y-99627011D01*
X145200500Y-99575500D01*
X145200500Y-97635502D01*
X145202841Y-97614299D01*
X145202759Y-97611705D01*
X145202760Y-97611703D01*
X145200561Y-97541735D01*
X145200500Y-97537840D01*
X145200500Y-97512976D01*
X145200500Y-97509075D01*
X145199948Y-97504709D01*
X145199030Y-97493055D01*
X145198688Y-97482170D01*
X145197597Y-97447430D01*
X145191675Y-97427047D01*
X145187732Y-97408010D01*
X145185071Y-97386942D01*
X145168266Y-97344498D01*
X145164481Y-97333444D01*
X145151744Y-97289602D01*
X145151744Y-97289601D01*
X145140934Y-97271322D01*
X145132380Y-97253862D01*
X145124568Y-97234129D01*
X145097723Y-97197180D01*
X145091332Y-97187451D01*
X145068081Y-97148135D01*
X145053068Y-97133122D01*
X145040435Y-97118330D01*
X145027963Y-97101163D01*
X144992779Y-97072056D01*
X144984140Y-97064194D01*
X144284808Y-96364862D01*
X144251323Y-96303539D01*
X144249168Y-96290141D01*
X144235674Y-96161742D01*
X144177179Y-95981715D01*
X144082533Y-95817783D01*
X143955870Y-95677110D01*
X143802730Y-95565848D01*
X143629802Y-95488855D01*
X143444648Y-95449500D01*
X143444646Y-95449500D01*
X143255354Y-95449500D01*
X143255352Y-95449500D01*
X143070197Y-95488855D01*
X142897269Y-95565848D01*
X142744129Y-95677110D01*
X142617466Y-95817783D01*
X142522820Y-95981715D01*
X142464326Y-96161742D01*
X142444540Y-96350000D01*
X142464326Y-96538257D01*
X142522820Y-96718284D01*
X142617466Y-96882216D01*
X142744129Y-97022889D01*
X142897269Y-97134151D01*
X143070197Y-97211144D01*
X143255352Y-97250500D01*
X143255354Y-97250500D01*
X143279192Y-97250500D01*
X143346231Y-97270185D01*
X143366873Y-97286819D01*
X143863181Y-97783127D01*
X143896666Y-97844450D01*
X143899500Y-97870808D01*
X143899500Y-104030192D01*
X143879815Y-104097231D01*
X143827011Y-104142986D01*
X143757853Y-104152930D01*
X143694297Y-104123905D01*
X143687819Y-104117873D01*
X140984808Y-101414862D01*
X140951323Y-101353539D01*
X140949168Y-101340141D01*
X140935674Y-101211742D01*
X140877179Y-101031715D01*
X140782533Y-100867783D01*
X140655870Y-100727110D01*
X140502730Y-100615848D01*
X140329802Y-100538855D01*
X140144648Y-100499500D01*
X140144646Y-100499500D01*
X139955354Y-100499500D01*
X139955352Y-100499500D01*
X139770197Y-100538855D01*
X139597269Y-100615848D01*
X139444129Y-100727110D01*
X139317466Y-100867783D01*
X139222820Y-101031715D01*
X139164326Y-101211742D01*
X139144540Y-101399999D01*
X139164326Y-101588257D01*
X139222820Y-101768284D01*
X139317466Y-101932216D01*
X139444129Y-102072889D01*
X139597269Y-102184151D01*
X139770197Y-102261144D01*
X139955352Y-102300500D01*
X139955354Y-102300500D01*
X139979192Y-102300500D01*
X140046231Y-102320185D01*
X140066873Y-102336819D01*
X143013181Y-105283127D01*
X143046666Y-105344450D01*
X143049500Y-105370808D01*
X143049500Y-106640021D01*
X143029815Y-106707060D01*
X142977011Y-106752815D01*
X142907853Y-106762759D01*
X142899721Y-106761312D01*
X142844146Y-106749500D01*
X142654854Y-106749500D01*
X142654852Y-106749500D01*
X142469697Y-106788855D01*
X142296772Y-106865847D01*
X142230037Y-106914332D01*
X142145409Y-106975818D01*
X142079604Y-106999298D01*
X142072525Y-106999500D01*
X141727475Y-106999500D01*
X141660436Y-106979815D01*
X141654605Y-106975829D01*
X141503230Y-106865849D01*
X141503229Y-106865848D01*
X141503227Y-106865847D01*
X141330302Y-106788855D01*
X141145148Y-106749500D01*
X141145146Y-106749500D01*
X140955854Y-106749500D01*
X140955852Y-106749500D01*
X140770697Y-106788855D01*
X140597769Y-106865848D01*
X140444629Y-106977110D01*
X140317966Y-107117783D01*
X140223320Y-107281715D01*
X140164826Y-107461742D01*
X140145040Y-107649999D01*
X140164826Y-107838257D01*
X140223320Y-108018284D01*
X140317966Y-108182216D01*
X140444629Y-108322889D01*
X140597769Y-108434151D01*
X140770697Y-108511144D01*
X140955852Y-108550500D01*
X140955854Y-108550500D01*
X141145148Y-108550500D01*
X141268583Y-108524262D01*
X141330303Y-108511144D01*
X141503230Y-108434151D01*
X141654590Y-108324181D01*
X141720396Y-108300702D01*
X141727475Y-108300500D01*
X142072525Y-108300500D01*
X142139564Y-108320185D01*
X142145394Y-108324170D01*
X142296770Y-108434151D01*
X142296771Y-108434151D01*
X142296772Y-108434152D01*
X142469697Y-108511144D01*
X142654852Y-108550500D01*
X142654854Y-108550500D01*
X142844145Y-108550500D01*
X142844146Y-108550500D01*
X142899720Y-108538687D01*
X142969385Y-108544002D01*
X143025119Y-108586139D01*
X143049225Y-108651718D01*
X143049500Y-108659977D01*
X143049500Y-131364494D01*
X143047158Y-131385702D01*
X143049439Y-131458262D01*
X143049500Y-131462157D01*
X143049500Y-131490925D01*
X143049987Y-131494785D01*
X143049989Y-131494808D01*
X143050054Y-131495320D01*
X143050968Y-131506942D01*
X143052402Y-131552569D01*
X143058323Y-131572950D01*
X143062267Y-131591995D01*
X143064928Y-131613059D01*
X143081737Y-131655515D01*
X143085520Y-131666563D01*
X143098256Y-131710400D01*
X143109061Y-131728670D01*
X143117621Y-131746143D01*
X143125431Y-131765869D01*
X143152267Y-131802808D01*
X143158673Y-131812560D01*
X143181919Y-131851865D01*
X143181921Y-131851867D01*
X143196925Y-131866871D01*
X143209564Y-131881669D01*
X143222037Y-131898837D01*
X143257212Y-131927936D01*
X143265854Y-131935800D01*
X145819564Y-134489509D01*
X145832909Y-134506167D01*
X145885848Y-134555879D01*
X145888645Y-134558590D01*
X145908966Y-134578911D01*
X145912442Y-134581607D01*
X145921326Y-134589195D01*
X145941883Y-134608500D01*
X145969379Y-134646484D01*
X146025965Y-134767830D01*
X146161505Y-134961401D01*
X146328599Y-135128495D01*
X146514160Y-135258426D01*
X146557783Y-135313002D01*
X146564976Y-135382501D01*
X146533454Y-135444855D01*
X146514158Y-135461575D01*
X146462560Y-135497704D01*
X146396354Y-135520031D01*
X146328587Y-135503021D01*
X146303756Y-135483810D01*
X142786819Y-131966873D01*
X142753334Y-131905550D01*
X142750500Y-131879192D01*
X142750500Y-112335502D01*
X142752841Y-112314299D01*
X142752759Y-112311705D01*
X142752760Y-112311703D01*
X142750561Y-112241735D01*
X142750500Y-112237840D01*
X142750500Y-112212976D01*
X142750500Y-112209075D01*
X142749948Y-112204709D01*
X142749030Y-112193055D01*
X142747597Y-112147430D01*
X142741675Y-112127047D01*
X142737732Y-112108010D01*
X142735071Y-112086942D01*
X142718266Y-112044498D01*
X142714481Y-112033444D01*
X142701744Y-111989602D01*
X142701744Y-111989601D01*
X142690934Y-111971322D01*
X142682380Y-111953862D01*
X142674568Y-111934129D01*
X142647723Y-111897180D01*
X142641332Y-111887451D01*
X142618081Y-111848135D01*
X142603068Y-111833122D01*
X142590435Y-111818330D01*
X142577963Y-111801163D01*
X142542779Y-111772056D01*
X142534140Y-111764194D01*
X141834808Y-111064862D01*
X141801323Y-111003539D01*
X141799168Y-110990141D01*
X141785674Y-110861742D01*
X141727179Y-110681715D01*
X141632533Y-110517783D01*
X141505870Y-110377110D01*
X141352730Y-110265848D01*
X141179802Y-110188855D01*
X140994648Y-110149500D01*
X140994646Y-110149500D01*
X140805354Y-110149500D01*
X140805352Y-110149500D01*
X140620197Y-110188855D01*
X140447269Y-110265848D01*
X140294129Y-110377110D01*
X140167466Y-110517783D01*
X140072820Y-110681715D01*
X140014326Y-110861742D01*
X139994540Y-111050000D01*
X140014326Y-111238257D01*
X140072820Y-111418284D01*
X140167466Y-111582216D01*
X140294129Y-111722889D01*
X140447269Y-111834151D01*
X140620197Y-111911144D01*
X140805352Y-111950500D01*
X140805354Y-111950500D01*
X140829192Y-111950500D01*
X140896231Y-111970185D01*
X140916873Y-111986819D01*
X141413181Y-112483127D01*
X141446666Y-112544450D01*
X141449500Y-112570808D01*
X141449500Y-122718489D01*
X141429815Y-122785528D01*
X141377011Y-122831283D01*
X141307853Y-122841227D01*
X141275065Y-122831769D01*
X141179800Y-122789354D01*
X140994648Y-122750000D01*
X140994646Y-122750000D01*
X140805354Y-122750000D01*
X140805352Y-122750000D01*
X140620197Y-122789355D01*
X140447269Y-122866348D01*
X140294129Y-122977610D01*
X140167466Y-123118283D01*
X140072820Y-123282215D01*
X140014326Y-123462242D01*
X139994540Y-123650500D01*
X140014326Y-123838757D01*
X140072820Y-124018784D01*
X140167464Y-124182713D01*
X140217650Y-124238449D01*
X140247880Y-124301441D01*
X140249500Y-124321422D01*
X140249500Y-133714494D01*
X140247158Y-133735702D01*
X140249439Y-133808262D01*
X140249500Y-133812157D01*
X140249500Y-133840925D01*
X140249987Y-133844785D01*
X140249989Y-133844808D01*
X140250054Y-133845320D01*
X140250968Y-133856942D01*
X140252402Y-133902569D01*
X140258323Y-133922950D01*
X140262267Y-133941995D01*
X140264928Y-133963059D01*
X140281737Y-134005515D01*
X140285520Y-134016563D01*
X140298256Y-134060400D01*
X140309061Y-134078670D01*
X140317621Y-134096143D01*
X140325431Y-134115869D01*
X140352267Y-134152808D01*
X140358673Y-134162560D01*
X140381919Y-134201865D01*
X140381921Y-134201867D01*
X140396925Y-134216871D01*
X140409564Y-134231669D01*
X140422037Y-134248837D01*
X140457212Y-134277936D01*
X140465854Y-134285800D01*
X145749564Y-139569509D01*
X145762909Y-139586167D01*
X145815848Y-139635879D01*
X145818645Y-139638590D01*
X145838966Y-139658911D01*
X145842442Y-139661607D01*
X145851325Y-139669194D01*
X145884607Y-139700448D01*
X145903206Y-139710673D01*
X145919470Y-139721357D01*
X145936237Y-139734363D01*
X145938835Y-139735487D01*
X145939130Y-139735615D01*
X145992839Y-139780304D01*
X146002266Y-139797010D01*
X146025963Y-139847826D01*
X146025965Y-139847830D01*
X146161505Y-140041401D01*
X146328599Y-140208495D01*
X146514160Y-140338426D01*
X146557783Y-140393002D01*
X146564976Y-140462501D01*
X146533454Y-140524855D01*
X146514158Y-140541575D01*
X146391980Y-140627124D01*
X146325774Y-140649451D01*
X146258006Y-140632441D01*
X146233176Y-140613230D01*
X131620434Y-126000488D01*
X131607092Y-125983835D01*
X131605202Y-125982060D01*
X131597549Y-125974873D01*
X131562154Y-125914634D01*
X131564946Y-125844821D01*
X131575042Y-125822488D01*
X131577867Y-125817596D01*
X131636362Y-125637568D01*
X131656148Y-125449312D01*
X131636362Y-125261056D01*
X131578091Y-125081716D01*
X131577867Y-125081027D01*
X131483221Y-124917095D01*
X131356558Y-124776422D01*
X131203418Y-124665160D01*
X131030490Y-124588167D01*
X130845336Y-124548812D01*
X130845334Y-124548812D01*
X130656042Y-124548812D01*
X130656040Y-124548812D01*
X130470885Y-124588167D01*
X130297960Y-124665159D01*
X130231225Y-124713644D01*
X130146597Y-124775130D01*
X130080792Y-124798610D01*
X130073713Y-124798812D01*
X128986529Y-124798812D01*
X128919490Y-124779127D01*
X128913644Y-124775130D01*
X128763230Y-124665848D01*
X128590302Y-124588855D01*
X128405148Y-124549500D01*
X128405146Y-124549500D01*
X128215854Y-124549500D01*
X128215852Y-124549500D01*
X128030697Y-124588855D01*
X127857769Y-124665848D01*
X127704629Y-124777110D01*
X127577966Y-124917783D01*
X127483320Y-125081715D01*
X127424826Y-125261742D01*
X127405112Y-125449311D01*
X127405040Y-125450000D01*
X127422123Y-125612541D01*
X127409555Y-125681268D01*
X127361823Y-125732292D01*
X127298803Y-125749500D01*
X120120808Y-125749500D01*
X120053769Y-125729815D01*
X120033127Y-125713181D01*
X118936818Y-124616872D01*
X118903333Y-124555549D01*
X118900499Y-124529191D01*
X118900500Y-120224500D01*
X118920185Y-120157461D01*
X118972989Y-120111706D01*
X119024500Y-120100500D01*
X119094648Y-120100500D01*
X119218083Y-120074262D01*
X119279803Y-120061144D01*
X119452730Y-119984151D01*
X119605871Y-119872888D01*
X119732533Y-119732216D01*
X119767612Y-119671456D01*
X119818177Y-119623241D01*
X119886784Y-119610017D01*
X119951649Y-119635984D01*
X119982386Y-119671455D01*
X120017467Y-119732217D01*
X120144129Y-119872889D01*
X120297269Y-119984151D01*
X120470197Y-120061144D01*
X120655352Y-120100500D01*
X120655354Y-120100500D01*
X120844648Y-120100500D01*
X120968084Y-120074262D01*
X121029803Y-120061144D01*
X121202730Y-119984151D01*
X121355871Y-119872888D01*
X121482533Y-119732216D01*
X121517612Y-119671456D01*
X121568180Y-119623241D01*
X121636786Y-119610017D01*
X121701651Y-119635985D01*
X121732387Y-119671456D01*
X121767466Y-119732216D01*
X121894129Y-119872889D01*
X122047269Y-119984151D01*
X122220197Y-120061144D01*
X122405352Y-120100500D01*
X122405354Y-120100500D01*
X122594648Y-120100500D01*
X122718084Y-120074262D01*
X122779803Y-120061144D01*
X122952730Y-119984151D01*
X123105871Y-119872888D01*
X123232533Y-119732216D01*
X123327179Y-119568284D01*
X123385674Y-119388256D01*
X123405460Y-119200000D01*
X123385674Y-119011744D01*
X123355332Y-118918363D01*
X123327179Y-118831715D01*
X123232533Y-118667783D01*
X123182350Y-118612049D01*
X123152120Y-118549057D01*
X123150500Y-118529077D01*
X123150500Y-107640479D01*
X123170185Y-107573440D01*
X123222989Y-107527685D01*
X123292147Y-107517741D01*
X123345620Y-107538902D01*
X123412266Y-107585568D01*
X123618504Y-107681739D01*
X123838308Y-107740635D01*
X124008216Y-107755500D01*
X124010925Y-107755500D01*
X124919075Y-107755500D01*
X124921784Y-107755500D01*
X125091692Y-107740635D01*
X125311496Y-107681739D01*
X125517734Y-107585568D01*
X125704139Y-107455047D01*
X125865047Y-107294139D01*
X125995568Y-107107734D01*
X126091739Y-106901496D01*
X126150635Y-106681692D01*
X126170468Y-106455000D01*
X126150635Y-106228308D01*
X126091739Y-106008504D01*
X125995568Y-105802266D01*
X125973389Y-105770590D01*
X125865046Y-105615859D01*
X125704140Y-105454953D01*
X125517733Y-105324431D01*
X125476727Y-105305310D01*
X125459724Y-105297381D01*
X125407285Y-105251210D01*
X125388133Y-105184017D01*
X125408348Y-105117135D01*
X125459725Y-105072618D01*
X125517734Y-105045568D01*
X125672411Y-104937262D01*
X125738614Y-104914937D01*
X125806381Y-104931947D01*
X125831212Y-104951158D01*
X126463181Y-105583127D01*
X126496666Y-105644450D01*
X126499500Y-105670808D01*
X126499500Y-114159192D01*
X126479815Y-114226231D01*
X126463181Y-114246873D01*
X125466873Y-115243181D01*
X125405550Y-115276666D01*
X125379192Y-115279500D01*
X125355352Y-115279500D01*
X125170197Y-115318855D01*
X124997269Y-115395848D01*
X124844129Y-115507110D01*
X124717466Y-115647783D01*
X124622820Y-115811715D01*
X124564326Y-115991742D01*
X124544540Y-116179999D01*
X124564326Y-116368257D01*
X124622820Y-116548284D01*
X124717466Y-116712216D01*
X124844129Y-116852889D01*
X124997269Y-116964151D01*
X125170197Y-117041144D01*
X125355352Y-117080500D01*
X125355354Y-117080500D01*
X125544648Y-117080500D01*
X125668084Y-117054262D01*
X125729803Y-117041144D01*
X125902730Y-116964151D01*
X126002908Y-116891368D01*
X126055870Y-116852889D01*
X126182533Y-116712216D01*
X126277179Y-116548284D01*
X126335674Y-116368257D01*
X126349168Y-116239857D01*
X126375752Y-116175242D01*
X126384799Y-116165145D01*
X127337820Y-115212124D01*
X127399141Y-115178641D01*
X127468833Y-115183625D01*
X127524766Y-115225497D01*
X127549183Y-115290961D01*
X127549499Y-115299807D01*
X127549499Y-117029192D01*
X127529814Y-117096231D01*
X127513180Y-117116873D01*
X123616873Y-121013181D01*
X123555550Y-121046666D01*
X123529192Y-121049500D01*
X123505352Y-121049500D01*
X123320197Y-121088855D01*
X123147269Y-121165848D01*
X122994129Y-121277110D01*
X122867466Y-121417783D01*
X122772820Y-121581715D01*
X122714326Y-121761742D01*
X122694540Y-121950000D01*
X122714326Y-122138257D01*
X122772820Y-122318284D01*
X122867466Y-122482216D01*
X122994129Y-122622889D01*
X123147269Y-122734151D01*
X123320197Y-122811144D01*
X123505352Y-122850500D01*
X123505354Y-122850500D01*
X123694648Y-122850500D01*
X123818083Y-122824262D01*
X123879803Y-122811144D01*
X124052730Y-122734151D01*
X124205871Y-122622888D01*
X124332533Y-122482216D01*
X124427179Y-122318284D01*
X124485674Y-122138256D01*
X124499168Y-122009855D01*
X124525752Y-121945242D01*
X124534799Y-121935145D01*
X128169944Y-118300000D01*
X136394540Y-118300000D01*
X136414326Y-118488257D01*
X136472820Y-118668284D01*
X136567466Y-118832216D01*
X136694129Y-118972889D01*
X136847269Y-119084151D01*
X137020197Y-119161144D01*
X137205352Y-119200500D01*
X137205354Y-119200500D01*
X137394648Y-119200500D01*
X137518083Y-119174262D01*
X137579803Y-119161144D01*
X137752730Y-119084151D01*
X137905871Y-118972888D01*
X138032533Y-118832216D01*
X138127179Y-118668284D01*
X138156944Y-118576677D01*
X138185674Y-118488257D01*
X138199168Y-118359857D01*
X138225752Y-118295242D01*
X138234799Y-118285145D01*
X139349513Y-117170431D01*
X139366162Y-117157094D01*
X139367936Y-117155204D01*
X139367940Y-117155202D01*
X139415897Y-117104131D01*
X139418515Y-117101429D01*
X139438911Y-117081035D01*
X139441610Y-117077554D01*
X139449184Y-117068685D01*
X139480448Y-117035393D01*
X139490675Y-117016787D01*
X139501348Y-117000539D01*
X139514362Y-116983764D01*
X139532495Y-116941857D01*
X139537625Y-116931387D01*
X139559627Y-116891368D01*
X139564903Y-116870813D01*
X139571206Y-116852402D01*
X139579635Y-116832927D01*
X139586777Y-116787825D01*
X139589140Y-116776418D01*
X139600500Y-116732177D01*
X139600500Y-116710948D01*
X139602027Y-116691548D01*
X139605346Y-116670595D01*
X139601050Y-116625147D01*
X139600500Y-116613478D01*
X139600500Y-105970922D01*
X139620185Y-105903883D01*
X139632350Y-105887949D01*
X139682196Y-105832590D01*
X139682533Y-105832216D01*
X139777179Y-105668284D01*
X139835674Y-105488256D01*
X139855460Y-105300000D01*
X139835674Y-105111744D01*
X139777179Y-104931716D01*
X139777179Y-104931715D01*
X139682533Y-104767783D01*
X139555870Y-104627110D01*
X139402730Y-104515848D01*
X139229802Y-104438855D01*
X139044648Y-104399500D01*
X139044646Y-104399500D01*
X138855354Y-104399500D01*
X138855352Y-104399500D01*
X138670197Y-104438855D01*
X138497269Y-104515848D01*
X138344129Y-104627110D01*
X138217466Y-104767784D01*
X138181887Y-104829409D01*
X138131320Y-104877625D01*
X138062713Y-104890847D01*
X137997848Y-104864879D01*
X137957320Y-104807965D01*
X137950500Y-104767409D01*
X137950500Y-97220808D01*
X137970185Y-97153769D01*
X137986819Y-97133127D01*
X138983127Y-96136819D01*
X139044450Y-96103334D01*
X139070808Y-96100500D01*
X139094648Y-96100500D01*
X139246089Y-96068310D01*
X139279803Y-96061144D01*
X139452730Y-95984151D01*
X139605871Y-95872888D01*
X139732533Y-95732216D01*
X139827179Y-95568284D01*
X139885674Y-95388256D01*
X139905460Y-95200000D01*
X139885674Y-95011744D01*
X139830710Y-94842582D01*
X139827179Y-94831715D01*
X139732533Y-94667783D01*
X139605870Y-94527110D01*
X139452730Y-94415848D01*
X139279802Y-94338855D01*
X139094648Y-94299500D01*
X139094646Y-94299500D01*
X138905354Y-94299500D01*
X138905352Y-94299500D01*
X138720197Y-94338855D01*
X138547269Y-94415848D01*
X138394129Y-94527110D01*
X138267466Y-94667783D01*
X138172820Y-94831715D01*
X138114326Y-95011742D01*
X138100831Y-95140142D01*
X138074246Y-95204757D01*
X138065191Y-95214861D01*
X136900484Y-96379568D01*
X136883831Y-96392910D01*
X136834133Y-96445833D01*
X136831428Y-96448625D01*
X136811089Y-96468965D01*
X136808713Y-96472027D01*
X136808702Y-96472040D01*
X136808378Y-96472459D01*
X136800806Y-96481323D01*
X136769550Y-96514607D01*
X136759322Y-96533212D01*
X136748645Y-96549467D01*
X136735636Y-96566238D01*
X136717506Y-96608132D01*
X136712370Y-96618616D01*
X136690372Y-96658632D01*
X136685091Y-96679199D01*
X136678791Y-96697600D01*
X136670364Y-96717074D01*
X136663223Y-96762161D01*
X136660855Y-96773598D01*
X136649500Y-96817824D01*
X136649500Y-96839045D01*
X136647973Y-96858444D01*
X136644653Y-96879403D01*
X136648950Y-96924858D01*
X136649500Y-96936528D01*
X136649500Y-115829077D01*
X136629815Y-115896116D01*
X136617650Y-115912049D01*
X136567466Y-115967783D01*
X136472820Y-116131715D01*
X136414326Y-116311742D01*
X136394540Y-116500000D01*
X136414326Y-116688257D01*
X136472820Y-116868284D01*
X136567466Y-117032216D01*
X136694129Y-117172889D01*
X136847264Y-117284148D01*
X136847268Y-117284150D01*
X136847270Y-117284151D01*
X136853036Y-117286718D01*
X136906274Y-117331965D01*
X136926598Y-117398813D01*
X136907556Y-117466038D01*
X136855191Y-117512296D01*
X136853045Y-117513276D01*
X136847271Y-117515846D01*
X136694129Y-117627110D01*
X136567466Y-117767783D01*
X136472820Y-117931715D01*
X136414326Y-118111742D01*
X136394540Y-118300000D01*
X128169944Y-118300000D01*
X128599513Y-117870431D01*
X128616162Y-117857094D01*
X128617936Y-117855204D01*
X128617940Y-117855202D01*
X128665897Y-117804131D01*
X128668515Y-117801429D01*
X128688911Y-117781035D01*
X128691610Y-117777554D01*
X128699184Y-117768685D01*
X128730448Y-117735393D01*
X128740675Y-117716787D01*
X128751348Y-117700539D01*
X128764362Y-117683764D01*
X128782495Y-117641857D01*
X128787625Y-117631387D01*
X128809627Y-117591368D01*
X128814903Y-117570813D01*
X128821206Y-117552402D01*
X128829635Y-117532927D01*
X128836777Y-117487825D01*
X128839140Y-117476418D01*
X128850500Y-117432177D01*
X128850500Y-117410948D01*
X128852027Y-117391548D01*
X128855346Y-117370595D01*
X128851050Y-117325147D01*
X128850500Y-117313478D01*
X128850500Y-106455000D01*
X132919531Y-106455000D01*
X132939364Y-106681689D01*
X132998261Y-106901497D01*
X133094432Y-107107735D01*
X133224953Y-107294140D01*
X133385859Y-107455046D01*
X133572264Y-107585567D01*
X133572265Y-107585567D01*
X133572266Y-107585568D01*
X133778504Y-107681739D01*
X133998308Y-107740635D01*
X134168216Y-107755500D01*
X134170925Y-107755500D01*
X135079075Y-107755500D01*
X135081784Y-107755500D01*
X135251692Y-107740635D01*
X135471496Y-107681739D01*
X135677734Y-107585568D01*
X135864139Y-107455047D01*
X136025047Y-107294139D01*
X136155568Y-107107734D01*
X136251739Y-106901496D01*
X136310635Y-106681692D01*
X136330468Y-106455000D01*
X136310635Y-106228308D01*
X136251739Y-106008504D01*
X136155568Y-105802266D01*
X136133389Y-105770590D01*
X136025046Y-105615859D01*
X135864140Y-105454953D01*
X135677733Y-105324431D01*
X135636727Y-105305310D01*
X135619724Y-105297381D01*
X135567285Y-105251210D01*
X135548133Y-105184017D01*
X135568348Y-105117135D01*
X135619725Y-105072618D01*
X135677734Y-105045568D01*
X135864139Y-104915047D01*
X136025047Y-104754139D01*
X136155568Y-104567734D01*
X136251739Y-104361496D01*
X136310635Y-104141692D01*
X136330468Y-103915000D01*
X136310635Y-103688308D01*
X136251739Y-103468504D01*
X136155568Y-103262266D01*
X136155229Y-103261781D01*
X136025046Y-103075859D01*
X135864140Y-102914953D01*
X135677733Y-102784431D01*
X135619725Y-102757382D01*
X135567285Y-102711210D01*
X135548133Y-102644017D01*
X135568348Y-102577135D01*
X135619725Y-102532618D01*
X135677734Y-102505568D01*
X135864139Y-102375047D01*
X136025047Y-102214139D01*
X136155568Y-102027734D01*
X136251739Y-101821496D01*
X136310635Y-101601692D01*
X136330468Y-101375000D01*
X136310635Y-101148308D01*
X136251739Y-100928504D01*
X136155568Y-100722266D01*
X136139978Y-100700000D01*
X136025046Y-100535859D01*
X135864140Y-100374953D01*
X135677733Y-100244431D01*
X135619725Y-100217382D01*
X135567285Y-100171210D01*
X135548133Y-100104017D01*
X135568348Y-100037135D01*
X135619725Y-99992618D01*
X135620317Y-99992342D01*
X135677734Y-99965568D01*
X135864139Y-99835047D01*
X136025047Y-99674139D01*
X136155568Y-99487734D01*
X136251739Y-99281496D01*
X136310635Y-99061692D01*
X136330468Y-98835000D01*
X136310635Y-98608308D01*
X136251739Y-98388504D01*
X136155568Y-98182266D01*
X136155230Y-98181782D01*
X136025046Y-97995859D01*
X135864140Y-97834953D01*
X135677733Y-97704431D01*
X135619725Y-97677382D01*
X135567285Y-97631210D01*
X135548133Y-97564017D01*
X135568348Y-97497135D01*
X135619725Y-97452618D01*
X135630853Y-97447429D01*
X135677734Y-97425568D01*
X135864139Y-97295047D01*
X136025047Y-97134139D01*
X136155568Y-96947734D01*
X136251739Y-96741496D01*
X136310635Y-96521692D01*
X136330468Y-96295000D01*
X136310635Y-96068308D01*
X136251739Y-95848504D01*
X136155568Y-95642266D01*
X136155230Y-95641782D01*
X136025046Y-95455859D01*
X135864140Y-95294953D01*
X135677733Y-95164431D01*
X135619725Y-95137382D01*
X135567285Y-95091210D01*
X135548133Y-95024017D01*
X135568348Y-94957135D01*
X135619725Y-94912618D01*
X135677734Y-94885568D01*
X135864139Y-94755047D01*
X136025047Y-94594139D01*
X136155568Y-94407734D01*
X136238448Y-94229999D01*
X144624837Y-94229999D01*
X144643450Y-94442744D01*
X144698724Y-94649031D01*
X144788979Y-94842582D01*
X144911471Y-95017520D01*
X145062479Y-95168528D01*
X145237417Y-95291020D01*
X145237418Y-95291020D01*
X145237419Y-95291021D01*
X145430970Y-95381276D01*
X145637253Y-95436549D01*
X145779084Y-95448957D01*
X145849999Y-95455162D01*
X145849999Y-95455161D01*
X145850000Y-95455162D01*
X146062747Y-95436549D01*
X146269030Y-95381276D01*
X146462581Y-95291021D01*
X146637519Y-95168529D01*
X146788529Y-95017519D01*
X146911021Y-94842581D01*
X147001276Y-94649030D01*
X147056549Y-94442747D01*
X147075162Y-94230000D01*
X147056549Y-94017253D01*
X147001276Y-93810970D01*
X146911021Y-93617419D01*
X146891544Y-93589602D01*
X146788528Y-93442479D01*
X146637520Y-93291471D01*
X146462582Y-93168979D01*
X146259198Y-93074139D01*
X146260195Y-93071999D01*
X146213294Y-93043413D01*
X146182762Y-92980567D01*
X146191055Y-92911191D01*
X146235539Y-92857312D01*
X146259446Y-92846393D01*
X146259198Y-92845861D01*
X146320121Y-92817451D01*
X146462581Y-92751021D01*
X146637519Y-92628529D01*
X146788529Y-92477519D01*
X146911021Y-92302581D01*
X147001276Y-92109030D01*
X147056549Y-91902747D01*
X147075162Y-91690000D01*
X147056549Y-91477253D01*
X147001276Y-91270970D01*
X146911021Y-91077419D01*
X146859377Y-91003662D01*
X146788528Y-90902479D01*
X146637520Y-90751471D01*
X146462582Y-90628979D01*
X146259198Y-90534139D01*
X146260195Y-90531999D01*
X146213294Y-90503413D01*
X146182762Y-90440567D01*
X146191055Y-90371191D01*
X146235539Y-90317312D01*
X146259446Y-90306393D01*
X146259198Y-90305861D01*
X146320121Y-90277451D01*
X146462581Y-90211021D01*
X146637519Y-90088529D01*
X146788529Y-89937519D01*
X146911021Y-89762581D01*
X147001276Y-89569030D01*
X147056549Y-89362747D01*
X147075162Y-89150000D01*
X147056549Y-88937253D01*
X147001276Y-88730970D01*
X146911021Y-88537419D01*
X146848626Y-88448308D01*
X146788528Y-88362479D01*
X146637520Y-88211471D01*
X146462582Y-88088979D01*
X146269031Y-87998724D01*
X146062744Y-87943450D01*
X145849999Y-87924837D01*
X145637255Y-87943450D01*
X145430968Y-87998724D01*
X145237417Y-88088979D01*
X145062479Y-88211471D01*
X144911471Y-88362479D01*
X144788979Y-88537417D01*
X144698724Y-88730968D01*
X144643450Y-88937255D01*
X144624837Y-89149999D01*
X144643450Y-89362744D01*
X144698724Y-89569031D01*
X144788979Y-89762582D01*
X144911471Y-89937520D01*
X145062479Y-90088528D01*
X145237417Y-90211020D01*
X145440802Y-90305861D01*
X145439804Y-90308000D01*
X145486709Y-90336591D01*
X145517237Y-90399438D01*
X145508942Y-90468814D01*
X145464456Y-90522691D01*
X145440554Y-90533607D01*
X145440802Y-90534139D01*
X145237417Y-90628979D01*
X145062479Y-90751471D01*
X144911471Y-90902479D01*
X144788979Y-91077417D01*
X144698724Y-91270968D01*
X144643450Y-91477255D01*
X144624837Y-91690000D01*
X144643450Y-91902744D01*
X144698724Y-92109031D01*
X144788979Y-92302582D01*
X144911471Y-92477520D01*
X145062479Y-92628528D01*
X145237417Y-92751020D01*
X145440802Y-92845861D01*
X145439804Y-92848000D01*
X145486709Y-92876591D01*
X145517237Y-92939438D01*
X145508942Y-93008814D01*
X145464456Y-93062691D01*
X145440554Y-93073607D01*
X145440802Y-93074139D01*
X145237417Y-93168979D01*
X145062479Y-93291471D01*
X144911471Y-93442479D01*
X144788979Y-93617417D01*
X144698724Y-93810968D01*
X144643450Y-94017255D01*
X144624837Y-94229999D01*
X136238448Y-94229999D01*
X136251739Y-94201496D01*
X136310635Y-93981692D01*
X136330468Y-93755000D01*
X136310635Y-93528308D01*
X136251739Y-93308504D01*
X136155568Y-93102266D01*
X136155230Y-93101782D01*
X136025046Y-92915859D01*
X135864140Y-92754953D01*
X135677733Y-92624431D01*
X135619725Y-92597382D01*
X135567285Y-92551210D01*
X135548133Y-92484017D01*
X135568348Y-92417135D01*
X135619725Y-92372618D01*
X135677734Y-92345568D01*
X135864139Y-92215047D01*
X136025047Y-92054139D01*
X136155568Y-91867734D01*
X136251739Y-91661496D01*
X136310635Y-91441692D01*
X136330468Y-91215000D01*
X136310635Y-90988308D01*
X136251739Y-90768504D01*
X136155568Y-90562266D01*
X136155230Y-90561782D01*
X136025046Y-90375859D01*
X135864140Y-90214953D01*
X135839537Y-90197726D01*
X135795912Y-90143150D01*
X135788718Y-90073651D01*
X135820241Y-90011296D01*
X135880470Y-89975882D01*
X135897401Y-89972862D01*
X135932483Y-89969091D01*
X136067331Y-89918796D01*
X136182546Y-89832546D01*
X136268796Y-89717331D01*
X136319091Y-89582483D01*
X136325500Y-89522873D01*
X136325499Y-87827128D01*
X136319091Y-87767517D01*
X136268796Y-87632669D01*
X136182546Y-87517454D01*
X136067331Y-87431204D01*
X135932483Y-87380909D01*
X135872873Y-87374500D01*
X135869550Y-87374500D01*
X133380439Y-87374500D01*
X133380420Y-87374500D01*
X133377128Y-87374501D01*
X133373848Y-87374853D01*
X133373840Y-87374854D01*
X133317515Y-87380909D01*
X133182669Y-87431204D01*
X133067454Y-87517454D01*
X132981204Y-87632668D01*
X132930910Y-87767515D01*
X132930909Y-87767517D01*
X132924500Y-87827127D01*
X132924500Y-87830448D01*
X132924500Y-87830449D01*
X132924500Y-89519560D01*
X132924500Y-89519578D01*
X132924501Y-89522872D01*
X132924853Y-89526152D01*
X132924854Y-89526159D01*
X132929463Y-89569030D01*
X132930909Y-89582483D01*
X132981204Y-89717331D01*
X133067454Y-89832546D01*
X133182669Y-89918796D01*
X133317517Y-89969091D01*
X133352594Y-89972862D01*
X133417143Y-89999598D01*
X133456993Y-90056989D01*
X133459488Y-90126814D01*
X133423837Y-90186904D01*
X133410463Y-90197725D01*
X133385861Y-90214951D01*
X133224953Y-90375859D01*
X133094432Y-90562264D01*
X132998261Y-90768502D01*
X132939364Y-90988310D01*
X132919531Y-91215000D01*
X132939364Y-91441689D01*
X132998261Y-91661497D01*
X133094432Y-91867735D01*
X133224953Y-92054140D01*
X133385859Y-92215046D01*
X133510875Y-92302582D01*
X133572266Y-92345568D01*
X133630275Y-92372618D01*
X133682714Y-92418791D01*
X133701865Y-92485985D01*
X133681649Y-92552866D01*
X133630275Y-92597382D01*
X133572263Y-92624433D01*
X133385859Y-92754953D01*
X133224953Y-92915859D01*
X133094432Y-93102264D01*
X132998261Y-93308502D01*
X132939364Y-93528310D01*
X132919531Y-93755000D01*
X132939364Y-93981689D01*
X132998261Y-94201497D01*
X133094432Y-94407735D01*
X133224953Y-94594140D01*
X133385859Y-94755046D01*
X133510875Y-94842582D01*
X133572266Y-94885568D01*
X133630275Y-94912618D01*
X133682714Y-94958791D01*
X133701865Y-95025985D01*
X133681649Y-95092866D01*
X133630275Y-95137382D01*
X133572263Y-95164433D01*
X133385859Y-95294953D01*
X133224953Y-95455859D01*
X133094432Y-95642264D01*
X132998261Y-95848502D01*
X132939364Y-96068310D01*
X132919531Y-96294999D01*
X132939364Y-96521689D01*
X132998261Y-96741497D01*
X133094432Y-96947735D01*
X133224953Y-97134140D01*
X133385859Y-97295046D01*
X133456485Y-97344498D01*
X133572266Y-97425568D01*
X133630275Y-97452618D01*
X133682714Y-97498791D01*
X133701865Y-97565985D01*
X133681649Y-97632866D01*
X133630275Y-97677382D01*
X133572263Y-97704433D01*
X133385859Y-97834953D01*
X133224953Y-97995859D01*
X133094432Y-98182264D01*
X132998261Y-98388502D01*
X132939364Y-98608310D01*
X132919531Y-98834999D01*
X132939364Y-99061689D01*
X132998261Y-99281497D01*
X133094432Y-99487735D01*
X133224953Y-99674140D01*
X133385859Y-99835046D01*
X133572263Y-99965566D01*
X133572266Y-99965568D01*
X133629683Y-99992342D01*
X133630275Y-99992618D01*
X133682714Y-100038791D01*
X133701865Y-100105985D01*
X133681649Y-100172866D01*
X133630275Y-100217382D01*
X133572263Y-100244433D01*
X133385859Y-100374953D01*
X133224953Y-100535859D01*
X133094432Y-100722264D01*
X132998261Y-100928502D01*
X132939364Y-101148310D01*
X132919531Y-101375000D01*
X132939364Y-101601689D01*
X132998261Y-101821497D01*
X133094432Y-102027735D01*
X133224953Y-102214140D01*
X133385859Y-102375046D01*
X133505622Y-102458904D01*
X133572266Y-102505568D01*
X133630275Y-102532618D01*
X133682714Y-102578791D01*
X133701865Y-102645985D01*
X133681649Y-102712866D01*
X133630275Y-102757382D01*
X133572263Y-102784433D01*
X133385859Y-102914953D01*
X133224953Y-103075859D01*
X133094432Y-103262264D01*
X132998261Y-103468502D01*
X132939364Y-103688310D01*
X132919531Y-103915000D01*
X132939364Y-104141689D01*
X132998261Y-104361497D01*
X133094432Y-104567735D01*
X133224953Y-104754140D01*
X133385859Y-104915046D01*
X133505622Y-104998904D01*
X133572266Y-105045568D01*
X133630275Y-105072618D01*
X133682714Y-105118791D01*
X133701865Y-105185985D01*
X133681649Y-105252866D01*
X133630275Y-105297381D01*
X133609576Y-105307033D01*
X133572263Y-105324433D01*
X133385859Y-105454953D01*
X133224953Y-105615859D01*
X133094432Y-105802264D01*
X132998261Y-106008502D01*
X132939364Y-106228310D01*
X132919531Y-106455000D01*
X128850500Y-106455000D01*
X128850500Y-93935503D01*
X128852841Y-93914300D01*
X128852759Y-93911706D01*
X128852760Y-93911704D01*
X128850561Y-93841722D01*
X128850500Y-93837828D01*
X128850500Y-93812977D01*
X128850500Y-93812976D01*
X128850500Y-93809075D01*
X128849948Y-93804712D01*
X128849031Y-93793064D01*
X128847598Y-93747431D01*
X128841675Y-93727045D01*
X128837731Y-93708004D01*
X128835071Y-93686942D01*
X128818267Y-93644501D01*
X128814484Y-93633452D01*
X128809826Y-93617419D01*
X128801745Y-93589602D01*
X128798594Y-93584275D01*
X128790937Y-93571326D01*
X128782376Y-93553850D01*
X128774568Y-93534129D01*
X128747731Y-93497191D01*
X128741317Y-93487425D01*
X128718081Y-93448135D01*
X128703074Y-93433128D01*
X128690436Y-93418331D01*
X128677963Y-93401163D01*
X128642779Y-93372056D01*
X128634140Y-93364194D01*
X126134737Y-90864791D01*
X126102643Y-90809201D01*
X126093589Y-90775408D01*
X126091739Y-90768504D01*
X125995568Y-90562266D01*
X125995230Y-90561782D01*
X125865046Y-90375859D01*
X125704140Y-90214953D01*
X125517733Y-90084431D01*
X125459725Y-90057382D01*
X125407285Y-90011210D01*
X125388133Y-89944017D01*
X125408348Y-89877135D01*
X125459725Y-89832618D01*
X125517734Y-89805568D01*
X125704139Y-89675047D01*
X125865047Y-89514139D01*
X125995568Y-89327734D01*
X126091739Y-89121496D01*
X126150635Y-88901692D01*
X126170468Y-88675000D01*
X126150635Y-88448308D01*
X126091739Y-88228504D01*
X125995568Y-88022266D01*
X125927349Y-87924837D01*
X125865046Y-87835859D01*
X125704140Y-87674953D01*
X125517735Y-87544432D01*
X125311497Y-87448261D01*
X125091689Y-87389364D01*
X124924484Y-87374736D01*
X124924479Y-87374735D01*
X124921784Y-87374500D01*
X124008216Y-87374500D01*
X124005521Y-87374735D01*
X124005515Y-87374736D01*
X123838310Y-87389364D01*
X123618502Y-87448261D01*
X123412264Y-87544432D01*
X123225859Y-87674953D01*
X123064953Y-87835859D01*
X122934432Y-88022264D01*
X122838261Y-88228502D01*
X122779364Y-88448310D01*
X122759531Y-88674999D01*
X122779364Y-88901689D01*
X122838261Y-89121497D01*
X122934432Y-89327735D01*
X123064953Y-89514140D01*
X123225859Y-89675046D01*
X123350875Y-89762582D01*
X123412266Y-89805568D01*
X123470275Y-89832618D01*
X123522714Y-89878791D01*
X123541865Y-89945985D01*
X123521649Y-90012866D01*
X123470275Y-90057382D01*
X123412263Y-90084433D01*
X123225859Y-90214953D01*
X123064953Y-90375859D01*
X122934432Y-90562264D01*
X122838261Y-90768502D01*
X122779364Y-90988310D01*
X122759531Y-91215000D01*
X122779364Y-91441689D01*
X122838261Y-91661497D01*
X122934432Y-91867735D01*
X123064953Y-92054140D01*
X123225859Y-92215046D01*
X123350875Y-92302582D01*
X123412266Y-92345568D01*
X123470275Y-92372618D01*
X123522714Y-92418791D01*
X123541865Y-92485985D01*
X123521649Y-92552866D01*
X123470275Y-92597382D01*
X123412263Y-92624433D01*
X123225859Y-92754953D01*
X123064953Y-92915859D01*
X122934432Y-93102264D01*
X122838261Y-93308502D01*
X122779364Y-93528310D01*
X122759531Y-93755000D01*
X122779364Y-93981689D01*
X122838261Y-94201497D01*
X122934432Y-94407735D01*
X123064953Y-94594140D01*
X123225859Y-94755046D01*
X123350875Y-94842582D01*
X123412266Y-94885568D01*
X123470275Y-94912618D01*
X123522714Y-94958791D01*
X123541865Y-95025985D01*
X123521649Y-95092866D01*
X123470275Y-95137382D01*
X123412263Y-95164433D01*
X123225859Y-95294953D01*
X123064953Y-95455859D01*
X122934432Y-95642264D01*
X122838261Y-95848502D01*
X122779364Y-96068310D01*
X122759531Y-96295000D01*
X122779364Y-96521689D01*
X122838261Y-96741497D01*
X122934432Y-96947735D01*
X123064953Y-97134140D01*
X123225859Y-97295046D01*
X123412264Y-97425567D01*
X123412265Y-97425567D01*
X123412266Y-97425568D01*
X123470865Y-97452893D01*
X123523304Y-97499065D01*
X123542456Y-97566259D01*
X123522240Y-97633140D01*
X123470866Y-97677656D01*
X123412522Y-97704863D01*
X123226180Y-97835341D01*
X123065340Y-97996181D01*
X123047464Y-98021710D01*
X122992885Y-98065333D01*
X122923387Y-98072524D01*
X122861033Y-98040999D01*
X122858210Y-98038264D01*
X113286818Y-88466872D01*
X113253333Y-88405549D01*
X113250499Y-88379191D01*
X113250499Y-87105439D01*
X113250499Y-87105438D01*
X113250499Y-87102128D01*
X113244091Y-87042517D01*
X113193796Y-86907669D01*
X113107546Y-86792454D01*
X112992331Y-86706204D01*
X112857483Y-86655909D01*
X112797873Y-86649500D01*
X112794550Y-86649500D01*
X111005439Y-86649500D01*
X111005420Y-86649500D01*
X111002128Y-86649501D01*
X110998848Y-86649853D01*
X110998840Y-86649854D01*
X110942515Y-86655909D01*
X110807669Y-86706204D01*
X110692454Y-86792454D01*
X110606204Y-86907668D01*
X110555910Y-87042515D01*
X110555909Y-87042517D01*
X110549500Y-87102127D01*
X110549500Y-87105448D01*
X110549500Y-87105449D01*
X110549500Y-88894560D01*
X110549500Y-88894578D01*
X110549501Y-88897872D01*
X110549853Y-88901152D01*
X110549854Y-88901159D01*
X110555909Y-88957483D01*
X110606204Y-89092331D01*
X110692454Y-89207546D01*
X110807669Y-89293796D01*
X110919907Y-89335658D01*
X110939082Y-89342810D01*
X110995016Y-89384681D01*
X111019433Y-89450146D01*
X111004581Y-89518419D01*
X110983431Y-89546673D01*
X110861503Y-89668601D01*
X110725965Y-89862170D01*
X110626097Y-90076336D01*
X110564936Y-90304592D01*
X110544340Y-90539999D01*
X110564936Y-90775407D01*
X110609709Y-90942502D01*
X110626097Y-91003663D01*
X110725965Y-91217830D01*
X110861505Y-91411401D01*
X111028599Y-91578495D01*
X111214160Y-91708426D01*
X111257783Y-91763002D01*
X111264976Y-91832501D01*
X111233454Y-91894855D01*
X111214159Y-91911575D01*
X111028595Y-92041508D01*
X110861505Y-92208598D01*
X110725965Y-92402170D01*
X110626097Y-92616336D01*
X110564936Y-92844592D01*
X110544340Y-93080000D01*
X110564936Y-93315407D01*
X110609709Y-93482502D01*
X110626097Y-93543663D01*
X110725965Y-93757830D01*
X110861505Y-93951401D01*
X111028599Y-94118495D01*
X111214160Y-94248426D01*
X111257783Y-94303002D01*
X111264976Y-94372501D01*
X111233454Y-94434855D01*
X111214158Y-94451575D01*
X111106284Y-94527110D01*
X111028595Y-94581508D01*
X110861505Y-94748598D01*
X110725965Y-94942170D01*
X110626097Y-95156336D01*
X110564936Y-95384592D01*
X110544340Y-95619999D01*
X110564936Y-95855407D01*
X110609709Y-96022502D01*
X110626097Y-96083663D01*
X110725965Y-96297830D01*
X110861505Y-96491401D01*
X111028599Y-96658495D01*
X111214160Y-96788426D01*
X111257783Y-96843002D01*
X111264976Y-96912501D01*
X111233454Y-96974855D01*
X111214158Y-96991575D01*
X111033134Y-97118330D01*
X111028595Y-97121508D01*
X110861505Y-97288598D01*
X110725965Y-97482170D01*
X110626097Y-97696336D01*
X110564936Y-97924592D01*
X110544340Y-98160000D01*
X110564936Y-98395407D01*
X110594934Y-98507359D01*
X110626097Y-98623663D01*
X110725965Y-98837830D01*
X110861505Y-99031401D01*
X111028599Y-99198495D01*
X111214160Y-99328426D01*
X111257783Y-99383002D01*
X111264976Y-99452501D01*
X111233454Y-99514855D01*
X111214159Y-99531575D01*
X111028595Y-99661508D01*
X110861505Y-99828598D01*
X110725965Y-100022170D01*
X110626097Y-100236336D01*
X110564936Y-100464592D01*
X110544340Y-100699999D01*
X110564936Y-100935407D01*
X110609709Y-101102501D01*
X110626097Y-101163663D01*
X110725965Y-101377830D01*
X110861505Y-101571401D01*
X111028599Y-101738495D01*
X111214160Y-101868426D01*
X111257783Y-101923002D01*
X111264976Y-101992501D01*
X111233454Y-102054855D01*
X111214158Y-102071575D01*
X111058361Y-102180666D01*
X111028595Y-102201508D01*
X110861505Y-102368598D01*
X110725965Y-102562170D01*
X110626097Y-102776336D01*
X110564936Y-103004592D01*
X110544340Y-103240000D01*
X110050500Y-103240000D01*
X110050500Y-86274500D01*
X110070185Y-86207461D01*
X110122989Y-86161706D01*
X110174500Y-86150500D01*
X148925500Y-86150500D01*
X148992539Y-86170185D01*
G37*
%TD.AperFunction*%
%TD*%
M02*
