%TF.GenerationSoftware,KiCad,Pcbnew,7.0.2-0*%
%TF.CreationDate,2023-10-10T18:08:06-05:00*%
%TF.ProjectId,Untitled,556e7469-746c-4656-942e-6b696361645f,rev?*%
%TF.SameCoordinates,Original*%
%TF.FileFunction,Legend,Bot*%
%TF.FilePolarity,Positive*%
%FSLAX46Y46*%
G04 Gerber Fmt 4.6, Leading zero omitted, Abs format (unit mm)*
G04 Created by KiCad (PCBNEW 7.0.2-0) date 2023-10-10 18:08:06*
%MOMM*%
%LPD*%
G01*
G04 APERTURE LIST*
%ADD10C,0.125000*%
%ADD11C,0.150000*%
%ADD12C,0.120000*%
G04 APERTURE END LIST*
D10*
%TO.C,RV1*%
X142647618Y-87631309D02*
X142814284Y-87393214D01*
X142933332Y-87631309D02*
X142933332Y-87131309D01*
X142933332Y-87131309D02*
X142742856Y-87131309D01*
X142742856Y-87131309D02*
X142695237Y-87155119D01*
X142695237Y-87155119D02*
X142671427Y-87178928D01*
X142671427Y-87178928D02*
X142647618Y-87226547D01*
X142647618Y-87226547D02*
X142647618Y-87297976D01*
X142647618Y-87297976D02*
X142671427Y-87345595D01*
X142671427Y-87345595D02*
X142695237Y-87369404D01*
X142695237Y-87369404D02*
X142742856Y-87393214D01*
X142742856Y-87393214D02*
X142933332Y-87393214D01*
X142504760Y-87131309D02*
X142338094Y-87631309D01*
X142338094Y-87631309D02*
X142171427Y-87131309D01*
X141742856Y-87631309D02*
X142028570Y-87631309D01*
X141885713Y-87631309D02*
X141885713Y-87131309D01*
X141885713Y-87131309D02*
X141933332Y-87202738D01*
X141933332Y-87202738D02*
X141980951Y-87250357D01*
X141980951Y-87250357D02*
X142028570Y-87274166D01*
%TO.C,RV7*%
X148047618Y-115981309D02*
X148214284Y-115743214D01*
X148333332Y-115981309D02*
X148333332Y-115481309D01*
X148333332Y-115481309D02*
X148142856Y-115481309D01*
X148142856Y-115481309D02*
X148095237Y-115505119D01*
X148095237Y-115505119D02*
X148071427Y-115528928D01*
X148071427Y-115528928D02*
X148047618Y-115576547D01*
X148047618Y-115576547D02*
X148047618Y-115647976D01*
X148047618Y-115647976D02*
X148071427Y-115695595D01*
X148071427Y-115695595D02*
X148095237Y-115719404D01*
X148095237Y-115719404D02*
X148142856Y-115743214D01*
X148142856Y-115743214D02*
X148333332Y-115743214D01*
X147904760Y-115481309D02*
X147738094Y-115981309D01*
X147738094Y-115981309D02*
X147571427Y-115481309D01*
X147452380Y-115481309D02*
X147119047Y-115481309D01*
X147119047Y-115481309D02*
X147333332Y-115981309D01*
D11*
%TO.C,J7*%
X123983333Y-125562619D02*
X123983333Y-126276904D01*
X123983333Y-126276904D02*
X124030952Y-126419761D01*
X124030952Y-126419761D02*
X124126190Y-126515000D01*
X124126190Y-126515000D02*
X124269047Y-126562619D01*
X124269047Y-126562619D02*
X124364285Y-126562619D01*
X123602380Y-125562619D02*
X122935714Y-125562619D01*
X122935714Y-125562619D02*
X123364285Y-126562619D01*
%TO.C,U1*%
X135361904Y-108312619D02*
X135361904Y-109122142D01*
X135361904Y-109122142D02*
X135314285Y-109217380D01*
X135314285Y-109217380D02*
X135266666Y-109265000D01*
X135266666Y-109265000D02*
X135171428Y-109312619D01*
X135171428Y-109312619D02*
X134980952Y-109312619D01*
X134980952Y-109312619D02*
X134885714Y-109265000D01*
X134885714Y-109265000D02*
X134838095Y-109217380D01*
X134838095Y-109217380D02*
X134790476Y-109122142D01*
X134790476Y-109122142D02*
X134790476Y-108312619D01*
X133790476Y-109312619D02*
X134361904Y-109312619D01*
X134076190Y-109312619D02*
X134076190Y-108312619D01*
X134076190Y-108312619D02*
X134171428Y-108455476D01*
X134171428Y-108455476D02*
X134266666Y-108550714D01*
X134266666Y-108550714D02*
X134361904Y-108598333D01*
D12*
%TO.C,RV1*%
X143310000Y-96575000D02*
X143310000Y-86805000D01*
X148380000Y-96575000D02*
X143310000Y-96575000D01*
X148380000Y-96575000D02*
X148380000Y-86805000D01*
X148380000Y-86805000D02*
X143310000Y-86805000D01*
%TO.C,RV7*%
X143310000Y-115075000D02*
X143310000Y-105305000D01*
X148380000Y-115075000D02*
X143310000Y-115075000D01*
X148380000Y-115075000D02*
X148380000Y-105305000D01*
X148380000Y-105305000D02*
X143310000Y-105305000D01*
%TO.C,J7*%
X123630000Y-140050000D02*
X124630000Y-140550000D01*
X123630000Y-141050000D02*
X123630000Y-140050000D01*
X124630000Y-140550000D02*
X123630000Y-141050000D01*
X125020000Y-125180000D02*
X125020000Y-145760000D01*
X125020000Y-137520000D02*
X126330000Y-137520000D01*
X125020000Y-145760000D02*
X134140000Y-145760000D01*
X126330000Y-126480000D02*
X126330000Y-133420000D01*
X126330000Y-133420000D02*
X125020000Y-133420000D01*
X126330000Y-133420000D02*
X126330000Y-133420000D01*
X126330000Y-137520000D02*
X126330000Y-144460000D01*
X126330000Y-144460000D02*
X132830000Y-144460000D01*
X132830000Y-126480000D02*
X126330000Y-126480000D01*
X132830000Y-144460000D02*
X132830000Y-126480000D01*
X134140000Y-125180000D02*
X125020000Y-125180000D01*
X134140000Y-145760000D02*
X134140000Y-125180000D01*
%TO.C,U1*%
X132780000Y-107785000D02*
X126310000Y-107785000D01*
X132780000Y-87345000D02*
X132780000Y-107785000D01*
X130545000Y-87345000D02*
X132780000Y-87345000D01*
X126310000Y-107785000D02*
X126310000Y-87345000D01*
X126310000Y-87345000D02*
X128545000Y-87345000D01*
X128545000Y-87345000D02*
G75*
G03*
X130545000Y-87345000I1000000J0D01*
G01*
%TD*%
M02*
