%TF.GenerationSoftware,KiCad,Pcbnew,7.0.2-0*%
%TF.CreationDate,2023-10-10T18:08:06-05:00*%
%TF.ProjectId,Untitled,556e7469-746c-4656-942e-6b696361645f,rev?*%
%TF.SameCoordinates,Original*%
%TF.FileFunction,Soldermask,Bot*%
%TF.FilePolarity,Negative*%
%FSLAX46Y46*%
G04 Gerber Fmt 4.6, Leading zero omitted, Abs format (unit mm)*
G04 Created by KiCad (PCBNEW 7.0.2-0) date 2023-10-10 18:08:06*
%MOMM*%
%LPD*%
G01*
G04 APERTURE LIST*
G04 Aperture macros list*
%AMRoundRect*
0 Rectangle with rounded corners*
0 $1 Rounding radius*
0 $2 $3 $4 $5 $6 $7 $8 $9 X,Y pos of 4 corners*
0 Add a 4 corners polygon primitive as box body*
4,1,4,$2,$3,$4,$5,$6,$7,$8,$9,$2,$3,0*
0 Add four circle primitives for the rounded corners*
1,1,$1+$1,$2,$3*
1,1,$1+$1,$4,$5*
1,1,$1+$1,$6,$7*
1,1,$1+$1,$8,$9*
0 Add four rect primitives between the rounded corners*
20,1,$1+$1,$2,$3,$4,$5,0*
20,1,$1+$1,$4,$5,$6,$7,0*
20,1,$1+$1,$6,$7,$8,$9,0*
20,1,$1+$1,$8,$9,$2,$3,0*%
G04 Aperture macros list end*
%ADD10C,1.440000*%
%ADD11RoundRect,0.250000X-0.600000X-0.600000X0.600000X-0.600000X0.600000X0.600000X-0.600000X0.600000X0*%
%ADD12C,1.700000*%
%ADD13R,2.400000X1.600000*%
%ADD14O,2.400000X1.600000*%
%ADD15R,1.700000X1.700000*%
%ADD16O,1.700000X1.700000*%
G04 APERTURE END LIST*
D10*
%TO.C,RV1*%
X145850000Y-89150000D03*
X145850000Y-91690000D03*
X145850000Y-94230000D03*
%TD*%
%TO.C,RV7*%
X145850000Y-107650000D03*
X145850000Y-110190000D03*
X145850000Y-112730000D03*
%TD*%
D11*
%TO.C,J7*%
X128310000Y-140550000D03*
D12*
X130850000Y-140550000D03*
X128310000Y-138010000D03*
X130850000Y-138010000D03*
X128310000Y-135470000D03*
X130850000Y-135470000D03*
X128310000Y-132930000D03*
X130850000Y-132930000D03*
X128310000Y-130390000D03*
X130850000Y-130390000D03*
%TD*%
D13*
%TO.C,U1*%
X134625000Y-88675000D03*
D14*
X134625000Y-91215000D03*
X134625000Y-93755000D03*
X134625000Y-96295000D03*
X134625000Y-98835000D03*
X134625000Y-101375000D03*
X134625000Y-103915000D03*
X134625000Y-106455000D03*
X124465000Y-106455000D03*
X124465000Y-103915000D03*
X124465000Y-101375000D03*
X124465000Y-98835000D03*
X124465000Y-96295000D03*
X124465000Y-93755000D03*
X124465000Y-91215000D03*
X124465000Y-88675000D03*
%TD*%
D15*
%TO.C,J11*%
X111900000Y-88000000D03*
D16*
X111900000Y-90540000D03*
X111900000Y-93080000D03*
X111900000Y-95620000D03*
X111900000Y-98160000D03*
X111900000Y-100700000D03*
X111900000Y-103240000D03*
%TD*%
D15*
%TO.C,J12*%
X147200000Y-129010000D03*
D16*
X147200000Y-131550000D03*
X147200000Y-134090000D03*
X147200000Y-136630000D03*
X147200000Y-139170000D03*
X147200000Y-141710000D03*
X147200000Y-144250000D03*
%TD*%
M02*
