%TF.GenerationSoftware,KiCad,Pcbnew,7.0.10*%
%TF.CreationDate,2024-02-20T21:55:09-06:00*%
%TF.ProjectId,Dual_VCA,4475616c-5f56-4434-912e-6b696361645f,rev?*%
%TF.SameCoordinates,Original*%
%TF.FileFunction,Legend,Bot*%
%TF.FilePolarity,Positive*%
%FSLAX46Y46*%
G04 Gerber Fmt 4.6, Leading zero omitted, Abs format (unit mm)*
G04 Created by KiCad (PCBNEW 7.0.10) date 2024-02-20 21:55:09*
%MOMM*%
%LPD*%
G01*
G04 APERTURE LIST*
%ADD10C,0.150000*%
%ADD11C,0.120000*%
G04 APERTURE END LIST*
D10*
X191869523Y-141948819D02*
X191869523Y-142663104D01*
X191869523Y-142663104D02*
X191917142Y-142805961D01*
X191917142Y-142805961D02*
X192012380Y-142901200D01*
X192012380Y-142901200D02*
X192155237Y-142948819D01*
X192155237Y-142948819D02*
X192250475Y-142948819D01*
X190869523Y-142948819D02*
X191440951Y-142948819D01*
X191155237Y-142948819D02*
X191155237Y-141948819D01*
X191155237Y-141948819D02*
X191250475Y-142091676D01*
X191250475Y-142091676D02*
X191345713Y-142186914D01*
X191345713Y-142186914D02*
X191440951Y-142234533D01*
X190250475Y-141948819D02*
X190155237Y-141948819D01*
X190155237Y-141948819D02*
X190059999Y-141996438D01*
X190059999Y-141996438D02*
X190012380Y-142044057D01*
X190012380Y-142044057D02*
X189964761Y-142139295D01*
X189964761Y-142139295D02*
X189917142Y-142329771D01*
X189917142Y-142329771D02*
X189917142Y-142567866D01*
X189917142Y-142567866D02*
X189964761Y-142758342D01*
X189964761Y-142758342D02*
X190012380Y-142853580D01*
X190012380Y-142853580D02*
X190059999Y-142901200D01*
X190059999Y-142901200D02*
X190155237Y-142948819D01*
X190155237Y-142948819D02*
X190250475Y-142948819D01*
X190250475Y-142948819D02*
X190345713Y-142901200D01*
X190345713Y-142901200D02*
X190393332Y-142853580D01*
X190393332Y-142853580D02*
X190440951Y-142758342D01*
X190440951Y-142758342D02*
X190488570Y-142567866D01*
X190488570Y-142567866D02*
X190488570Y-142329771D01*
X190488570Y-142329771D02*
X190440951Y-142139295D01*
X190440951Y-142139295D02*
X190393332Y-142044057D01*
X190393332Y-142044057D02*
X190345713Y-141996438D01*
X190345713Y-141996438D02*
X190250475Y-141948819D01*
X155943333Y-116154819D02*
X155943333Y-116869104D01*
X155943333Y-116869104D02*
X155990952Y-117011961D01*
X155990952Y-117011961D02*
X156086190Y-117107200D01*
X156086190Y-117107200D02*
X156229047Y-117154819D01*
X156229047Y-117154819D02*
X156324285Y-117154819D01*
X155419523Y-117154819D02*
X155229047Y-117154819D01*
X155229047Y-117154819D02*
X155133809Y-117107200D01*
X155133809Y-117107200D02*
X155086190Y-117059580D01*
X155086190Y-117059580D02*
X154990952Y-116916723D01*
X154990952Y-116916723D02*
X154943333Y-116726247D01*
X154943333Y-116726247D02*
X154943333Y-116345295D01*
X154943333Y-116345295D02*
X154990952Y-116250057D01*
X154990952Y-116250057D02*
X155038571Y-116202438D01*
X155038571Y-116202438D02*
X155133809Y-116154819D01*
X155133809Y-116154819D02*
X155324285Y-116154819D01*
X155324285Y-116154819D02*
X155419523Y-116202438D01*
X155419523Y-116202438D02*
X155467142Y-116250057D01*
X155467142Y-116250057D02*
X155514761Y-116345295D01*
X155514761Y-116345295D02*
X155514761Y-116583390D01*
X155514761Y-116583390D02*
X155467142Y-116678628D01*
X155467142Y-116678628D02*
X155419523Y-116726247D01*
X155419523Y-116726247D02*
X155324285Y-116773866D01*
X155324285Y-116773866D02*
X155133809Y-116773866D01*
X155133809Y-116773866D02*
X155038571Y-116726247D01*
X155038571Y-116726247D02*
X154990952Y-116678628D01*
X154990952Y-116678628D02*
X154943333Y-116583390D01*
D11*
%TO.C,J10*%
X189730000Y-151460000D02*
X189730000Y-143780000D01*
X189730000Y-151460000D02*
X192390000Y-151460000D01*
X189730000Y-143780000D02*
X192390000Y-143780000D01*
X191060000Y-154060000D02*
X192390000Y-154060000D01*
X192390000Y-154060000D02*
X192390000Y-152730000D01*
X192390000Y-151460000D02*
X192390000Y-143780000D01*
%TO.C,J9*%
X154280000Y-112660000D02*
X154280000Y-104980000D01*
X154280000Y-112660000D02*
X156940000Y-112660000D01*
X154280000Y-104980000D02*
X156940000Y-104980000D01*
X155610000Y-115260000D02*
X156940000Y-115260000D01*
X156940000Y-115260000D02*
X156940000Y-113930000D01*
X156940000Y-112660000D02*
X156940000Y-104980000D01*
%TD*%
M02*
