%TF.GenerationSoftware,KiCad,Pcbnew,7.0.10*%
%TF.CreationDate,2024-02-20T21:55:09-06:00*%
%TF.ProjectId,Dual_VCA,4475616c-5f56-4434-912e-6b696361645f,rev?*%
%TF.SameCoordinates,Original*%
%TF.FileFunction,Legend,Top*%
%TF.FilePolarity,Positive*%
%FSLAX46Y46*%
G04 Gerber Fmt 4.6, Leading zero omitted, Abs format (unit mm)*
G04 Created by KiCad (PCBNEW 7.0.10) date 2024-02-20 21:55:09*
%MOMM*%
%LPD*%
G01*
G04 APERTURE LIST*
%ADD10C,0.125000*%
%ADD11C,0.120000*%
G04 APERTURE END LIST*
D10*
X169113333Y-127904809D02*
X169113333Y-128261952D01*
X169113333Y-128261952D02*
X169089524Y-128333380D01*
X169089524Y-128333380D02*
X169041905Y-128381000D01*
X169041905Y-128381000D02*
X168970476Y-128404809D01*
X168970476Y-128404809D02*
X168922857Y-128404809D01*
X169565714Y-127904809D02*
X169470476Y-127904809D01*
X169470476Y-127904809D02*
X169422857Y-127928619D01*
X169422857Y-127928619D02*
X169399047Y-127952428D01*
X169399047Y-127952428D02*
X169351428Y-128023857D01*
X169351428Y-128023857D02*
X169327619Y-128119095D01*
X169327619Y-128119095D02*
X169327619Y-128309571D01*
X169327619Y-128309571D02*
X169351428Y-128357190D01*
X169351428Y-128357190D02*
X169375238Y-128381000D01*
X169375238Y-128381000D02*
X169422857Y-128404809D01*
X169422857Y-128404809D02*
X169518095Y-128404809D01*
X169518095Y-128404809D02*
X169565714Y-128381000D01*
X169565714Y-128381000D02*
X169589523Y-128357190D01*
X169589523Y-128357190D02*
X169613333Y-128309571D01*
X169613333Y-128309571D02*
X169613333Y-128190523D01*
X169613333Y-128190523D02*
X169589523Y-128142904D01*
X169589523Y-128142904D02*
X169565714Y-128119095D01*
X169565714Y-128119095D02*
X169518095Y-128095285D01*
X169518095Y-128095285D02*
X169422857Y-128095285D01*
X169422857Y-128095285D02*
X169375238Y-128119095D01*
X169375238Y-128119095D02*
X169351428Y-128142904D01*
X169351428Y-128142904D02*
X169327619Y-128190523D01*
X180063333Y-127904809D02*
X180063333Y-128261952D01*
X180063333Y-128261952D02*
X180039524Y-128333380D01*
X180039524Y-128333380D02*
X179991905Y-128381000D01*
X179991905Y-128381000D02*
X179920476Y-128404809D01*
X179920476Y-128404809D02*
X179872857Y-128404809D01*
X180539523Y-127904809D02*
X180301428Y-127904809D01*
X180301428Y-127904809D02*
X180277619Y-128142904D01*
X180277619Y-128142904D02*
X180301428Y-128119095D01*
X180301428Y-128119095D02*
X180349047Y-128095285D01*
X180349047Y-128095285D02*
X180468095Y-128095285D01*
X180468095Y-128095285D02*
X180515714Y-128119095D01*
X180515714Y-128119095D02*
X180539523Y-128142904D01*
X180539523Y-128142904D02*
X180563333Y-128190523D01*
X180563333Y-128190523D02*
X180563333Y-128309571D01*
X180563333Y-128309571D02*
X180539523Y-128357190D01*
X180539523Y-128357190D02*
X180515714Y-128381000D01*
X180515714Y-128381000D02*
X180468095Y-128404809D01*
X180468095Y-128404809D02*
X180349047Y-128404809D01*
X180349047Y-128404809D02*
X180301428Y-128381000D01*
X180301428Y-128381000D02*
X180277619Y-128357190D01*
X180063333Y-142354809D02*
X180063333Y-142711952D01*
X180063333Y-142711952D02*
X180039524Y-142783380D01*
X180039524Y-142783380D02*
X179991905Y-142831000D01*
X179991905Y-142831000D02*
X179920476Y-142854809D01*
X179920476Y-142854809D02*
X179872857Y-142854809D01*
X180277619Y-142402428D02*
X180301428Y-142378619D01*
X180301428Y-142378619D02*
X180349047Y-142354809D01*
X180349047Y-142354809D02*
X180468095Y-142354809D01*
X180468095Y-142354809D02*
X180515714Y-142378619D01*
X180515714Y-142378619D02*
X180539523Y-142402428D01*
X180539523Y-142402428D02*
X180563333Y-142450047D01*
X180563333Y-142450047D02*
X180563333Y-142497666D01*
X180563333Y-142497666D02*
X180539523Y-142569095D01*
X180539523Y-142569095D02*
X180253809Y-142854809D01*
X180253809Y-142854809D02*
X180563333Y-142854809D01*
X156404809Y-60787618D02*
X156166714Y-60954284D01*
X156404809Y-61073332D02*
X155904809Y-61073332D01*
X155904809Y-61073332D02*
X155904809Y-60882856D01*
X155904809Y-60882856D02*
X155928619Y-60835237D01*
X155928619Y-60835237D02*
X155952428Y-60811427D01*
X155952428Y-60811427D02*
X156000047Y-60787618D01*
X156000047Y-60787618D02*
X156071476Y-60787618D01*
X156071476Y-60787618D02*
X156119095Y-60811427D01*
X156119095Y-60811427D02*
X156142904Y-60835237D01*
X156142904Y-60835237D02*
X156166714Y-60882856D01*
X156166714Y-60882856D02*
X156166714Y-61073332D01*
X155904809Y-60644760D02*
X156404809Y-60478094D01*
X156404809Y-60478094D02*
X155904809Y-60311427D01*
X155904809Y-59906666D02*
X155904809Y-60144761D01*
X155904809Y-60144761D02*
X156142904Y-60168570D01*
X156142904Y-60168570D02*
X156119095Y-60144761D01*
X156119095Y-60144761D02*
X156095285Y-60097142D01*
X156095285Y-60097142D02*
X156095285Y-59978094D01*
X156095285Y-59978094D02*
X156119095Y-59930475D01*
X156119095Y-59930475D02*
X156142904Y-59906666D01*
X156142904Y-59906666D02*
X156190523Y-59882856D01*
X156190523Y-59882856D02*
X156309571Y-59882856D01*
X156309571Y-59882856D02*
X156357190Y-59906666D01*
X156357190Y-59906666D02*
X156381000Y-59930475D01*
X156381000Y-59930475D02*
X156404809Y-59978094D01*
X156404809Y-59978094D02*
X156404809Y-60097142D01*
X156404809Y-60097142D02*
X156381000Y-60144761D01*
X156381000Y-60144761D02*
X156357190Y-60168570D01*
X158163333Y-142354809D02*
X158163333Y-142711952D01*
X158163333Y-142711952D02*
X158139524Y-142783380D01*
X158139524Y-142783380D02*
X158091905Y-142831000D01*
X158091905Y-142831000D02*
X158020476Y-142854809D01*
X158020476Y-142854809D02*
X157972857Y-142854809D01*
X158663333Y-142854809D02*
X158377619Y-142854809D01*
X158520476Y-142854809D02*
X158520476Y-142354809D01*
X158520476Y-142354809D02*
X158472857Y-142426238D01*
X158472857Y-142426238D02*
X158425238Y-142473857D01*
X158425238Y-142473857D02*
X158377619Y-142497666D01*
X169113333Y-142354809D02*
X169113333Y-142711952D01*
X169113333Y-142711952D02*
X169089524Y-142783380D01*
X169089524Y-142783380D02*
X169041905Y-142831000D01*
X169041905Y-142831000D02*
X168970476Y-142854809D01*
X168970476Y-142854809D02*
X168922857Y-142854809D01*
X169303809Y-142354809D02*
X169613333Y-142354809D01*
X169613333Y-142354809D02*
X169446666Y-142545285D01*
X169446666Y-142545285D02*
X169518095Y-142545285D01*
X169518095Y-142545285D02*
X169565714Y-142569095D01*
X169565714Y-142569095D02*
X169589523Y-142592904D01*
X169589523Y-142592904D02*
X169613333Y-142640523D01*
X169613333Y-142640523D02*
X169613333Y-142759571D01*
X169613333Y-142759571D02*
X169589523Y-142807190D01*
X169589523Y-142807190D02*
X169565714Y-142831000D01*
X169565714Y-142831000D02*
X169518095Y-142854809D01*
X169518095Y-142854809D02*
X169375238Y-142854809D01*
X169375238Y-142854809D02*
X169327619Y-142831000D01*
X169327619Y-142831000D02*
X169303809Y-142807190D01*
X158163333Y-127904809D02*
X158163333Y-128261952D01*
X158163333Y-128261952D02*
X158139524Y-128333380D01*
X158139524Y-128333380D02*
X158091905Y-128381000D01*
X158091905Y-128381000D02*
X158020476Y-128404809D01*
X158020476Y-128404809D02*
X157972857Y-128404809D01*
X158353809Y-127904809D02*
X158687142Y-127904809D01*
X158687142Y-127904809D02*
X158472857Y-128404809D01*
X176394809Y-80782618D02*
X176156714Y-80949284D01*
X176394809Y-81068332D02*
X175894809Y-81068332D01*
X175894809Y-81068332D02*
X175894809Y-80877856D01*
X175894809Y-80877856D02*
X175918619Y-80830237D01*
X175918619Y-80830237D02*
X175942428Y-80806427D01*
X175942428Y-80806427D02*
X175990047Y-80782618D01*
X175990047Y-80782618D02*
X176061476Y-80782618D01*
X176061476Y-80782618D02*
X176109095Y-80806427D01*
X176109095Y-80806427D02*
X176132904Y-80830237D01*
X176132904Y-80830237D02*
X176156714Y-80877856D01*
X176156714Y-80877856D02*
X176156714Y-81068332D01*
X175894809Y-80639760D02*
X176394809Y-80473094D01*
X176394809Y-80473094D02*
X175894809Y-80306427D01*
X176394809Y-79877856D02*
X176394809Y-80163570D01*
X176394809Y-80020713D02*
X175894809Y-80020713D01*
X175894809Y-80020713D02*
X175966238Y-80068332D01*
X175966238Y-80068332D02*
X176013857Y-80115951D01*
X176013857Y-80115951D02*
X176037666Y-80163570D01*
D11*
%TO.C,J6*%
X168810000Y-129080000D02*
X168810000Y-139580000D01*
X172080000Y-125930000D02*
X172080000Y-126730000D01*
X172080000Y-125930000D02*
X172940000Y-125930000D01*
X172510000Y-139580000D02*
X168810000Y-139580000D01*
X172590000Y-129080000D02*
X168810000Y-129080000D01*
X177810000Y-129080000D02*
X174030000Y-129080000D01*
X177810000Y-129080000D02*
X177810000Y-139580000D01*
X177810000Y-139580000D02*
X174110000Y-139580000D01*
X175110000Y-133580000D02*
G75*
G03*
X171510000Y-133580000I-1800000J0D01*
G01*
X171510000Y-133580000D02*
G75*
G03*
X175110000Y-133580000I1800000J0D01*
G01*
%TO.C,J5*%
X179760000Y-129080000D02*
X179760000Y-139580000D01*
X183030000Y-125930000D02*
X183030000Y-126730000D01*
X183030000Y-125930000D02*
X183890000Y-125930000D01*
X183460000Y-139580000D02*
X179760000Y-139580000D01*
X183540000Y-129080000D02*
X179760000Y-129080000D01*
X188760000Y-129080000D02*
X184980000Y-129080000D01*
X188760000Y-129080000D02*
X188760000Y-139580000D01*
X188760000Y-139580000D02*
X185060000Y-139580000D01*
X186060000Y-133580000D02*
G75*
G03*
X182460000Y-133580000I-1800000J0D01*
G01*
X182460000Y-133580000D02*
G75*
G03*
X186060000Y-133580000I1800000J0D01*
G01*
%TO.C,J2*%
X179760000Y-143530000D02*
X179760000Y-154030000D01*
X183030000Y-140380000D02*
X183030000Y-141180000D01*
X183030000Y-140380000D02*
X183890000Y-140380000D01*
X183460000Y-154030000D02*
X179760000Y-154030000D01*
X183540000Y-143530000D02*
X179760000Y-143530000D01*
X188760000Y-143530000D02*
X184980000Y-143530000D01*
X188760000Y-143530000D02*
X188760000Y-154030000D01*
X188760000Y-154030000D02*
X185060000Y-154030000D01*
X186060000Y-148030000D02*
G75*
G03*
X182460000Y-148030000I-1800000J0D01*
G01*
X182460000Y-148030000D02*
G75*
G03*
X186060000Y-148030000I1800000J0D01*
G01*
%TO.C,RV5*%
X158440000Y-66320000D02*
X158440000Y-61600000D01*
X159630000Y-66320000D02*
X158450000Y-66320000D01*
X162530000Y-66320000D02*
X162000000Y-66320000D01*
X164980000Y-66320000D02*
X164150000Y-66320000D01*
X168190000Y-66320000D02*
X166700000Y-66320000D01*
X168190000Y-66320000D02*
X168190000Y-61600000D01*
X158450000Y-57790000D02*
X158450000Y-54730000D01*
X168190000Y-57790000D02*
X168190000Y-54730000D01*
X168190000Y-54730000D02*
X158450000Y-54730000D01*
%TO.C,J1*%
X157860000Y-143530000D02*
X157860000Y-154030000D01*
X161130000Y-140380000D02*
X161130000Y-141180000D01*
X161130000Y-140380000D02*
X161990000Y-140380000D01*
X161560000Y-154030000D02*
X157860000Y-154030000D01*
X161640000Y-143530000D02*
X157860000Y-143530000D01*
X166860000Y-143530000D02*
X163080000Y-143530000D01*
X166860000Y-143530000D02*
X166860000Y-154030000D01*
X166860000Y-154030000D02*
X163160000Y-154030000D01*
X164160000Y-148030000D02*
G75*
G03*
X160560000Y-148030000I-1800000J0D01*
G01*
X160560000Y-148030000D02*
G75*
G03*
X164160000Y-148030000I1800000J0D01*
G01*
%TO.C,J3*%
X168810000Y-143530000D02*
X168810000Y-154030000D01*
X172080000Y-140380000D02*
X172080000Y-141180000D01*
X172080000Y-140380000D02*
X172940000Y-140380000D01*
X172510000Y-154030000D02*
X168810000Y-154030000D01*
X172590000Y-143530000D02*
X168810000Y-143530000D01*
X177810000Y-143530000D02*
X174030000Y-143530000D01*
X177810000Y-143530000D02*
X177810000Y-154030000D01*
X177810000Y-154030000D02*
X174110000Y-154030000D01*
X175110000Y-148030000D02*
G75*
G03*
X171510000Y-148030000I-1800000J0D01*
G01*
X171510000Y-148030000D02*
G75*
G03*
X175110000Y-148030000I1800000J0D01*
G01*
%TO.C,J7*%
X157860000Y-129080000D02*
X157860000Y-139580000D01*
X161130000Y-125930000D02*
X161130000Y-126730000D01*
X161130000Y-125930000D02*
X161990000Y-125930000D01*
X161560000Y-139580000D02*
X157860000Y-139580000D01*
X161640000Y-129080000D02*
X157860000Y-129080000D01*
X166860000Y-129080000D02*
X163080000Y-129080000D01*
X166860000Y-129080000D02*
X166860000Y-139580000D01*
X166860000Y-139580000D02*
X163160000Y-139580000D01*
X164160000Y-133580000D02*
G75*
G03*
X160560000Y-133580000I-1800000J0D01*
G01*
X160560000Y-133580000D02*
G75*
G03*
X164160000Y-133580000I1800000J0D01*
G01*
%TO.C,RV1*%
X178430000Y-86315000D02*
X178430000Y-81595000D01*
X179620000Y-86315000D02*
X178440000Y-86315000D01*
X182520000Y-86315000D02*
X181990000Y-86315000D01*
X184970000Y-86315000D02*
X184140000Y-86315000D01*
X188180000Y-86315000D02*
X186690000Y-86315000D01*
X188180000Y-86315000D02*
X188180000Y-81595000D01*
X178440000Y-77785000D02*
X178440000Y-74725000D01*
X188180000Y-77785000D02*
X188180000Y-74725000D01*
X188180000Y-74725000D02*
X178440000Y-74725000D01*
%TD*%
M02*
