%TF.GenerationSoftware,KiCad,Pcbnew,7.0.10*%
%TF.CreationDate,2024-02-20T21:55:09-06:00*%
%TF.ProjectId,Dual_VCA,4475616c-5f56-4434-912e-6b696361645f,rev?*%
%TF.SameCoordinates,Original*%
%TF.FileFunction,Copper,L1,Top*%
%TF.FilePolarity,Positive*%
%FSLAX46Y46*%
G04 Gerber Fmt 4.6, Leading zero omitted, Abs format (unit mm)*
G04 Created by KiCad (PCBNEW 7.0.10) date 2024-02-20 21:55:09*
%MOMM*%
%LPD*%
G01*
G04 APERTURE LIST*
%TA.AperFunction,ComponentPad*%
%ADD10R,1.930000X1.830000*%
%TD*%
%TA.AperFunction,ComponentPad*%
%ADD11C,2.130000*%
%TD*%
%TA.AperFunction,ComponentPad*%
%ADD12R,1.700000X1.700000*%
%TD*%
%TA.AperFunction,ComponentPad*%
%ADD13O,1.700000X1.700000*%
%TD*%
%TA.AperFunction,ComponentPad*%
%ADD14O,2.720000X3.240000*%
%TD*%
%TA.AperFunction,ComponentPad*%
%ADD15R,1.800000X1.800000*%
%TD*%
%TA.AperFunction,ComponentPad*%
%ADD16C,1.800000*%
%TD*%
%TA.AperFunction,Conductor*%
%ADD17C,0.300000*%
%TD*%
G04 APERTURE END LIST*
D10*
%TO.P,J6,S*%
%TO.N,GND*%
X173310000Y-127100000D03*
D11*
%TO.P,J6,T*%
%TO.N,/in2_b*%
X173310000Y-138500000D03*
%TO.P,J6,TN*%
%TO.N,unconnected-(J6-PadTN)*%
X173310000Y-130200000D03*
%TD*%
D12*
%TO.P,J10,1,Pin_1*%
%TO.N,GND*%
X191060000Y-152730000D03*
D13*
%TO.P,J10,2,Pin_2*%
%TO.N,/cv1_b*%
X191060000Y-150190000D03*
%TO.P,J10,3,Pin_3*%
%TO.N,/out1_b*%
X191060000Y-147650000D03*
%TO.P,J10,4,Pin_4*%
%TO.N,/in1_b*%
X191060000Y-145110000D03*
%TD*%
D10*
%TO.P,J5,S*%
%TO.N,GND*%
X184260000Y-127100000D03*
D11*
%TO.P,J5,T*%
%TO.N,/out2_b*%
X184260000Y-138500000D03*
%TO.P,J5,TN*%
%TO.N,unconnected-(J5-PadTN)*%
X184260000Y-130200000D03*
%TD*%
D10*
%TO.P,J2,S*%
%TO.N,GND*%
X184260000Y-141550000D03*
D11*
%TO.P,J2,T*%
%TO.N,/out1_b*%
X184260000Y-152950000D03*
%TO.P,J2,TN*%
%TO.N,unconnected-(J2-PadTN)*%
X184260000Y-144650000D03*
%TD*%
D12*
%TO.P,J9,1,Pin_1*%
%TO.N,unconnected-(J9-Pin_1-Pad1)*%
X155610000Y-113930000D03*
D13*
%TO.P,J9,2,Pin_2*%
%TO.N,/cv2_b*%
X155610000Y-111390000D03*
%TO.P,J9,3,Pin_3*%
%TO.N,/in2_b*%
X155610000Y-108850000D03*
%TO.P,J9,4,Pin_4*%
%TO.N,/out2_b*%
X155610000Y-106310000D03*
%TD*%
D14*
%TO.P,RV5,*%
%TO.N,*%
X158520000Y-59700000D03*
X168120000Y-59700000D03*
D15*
%TO.P,RV5,1,1*%
%TO.N,GND*%
X160820000Y-67200000D03*
D16*
%TO.P,RV5,2,2*%
%TO.N,/cv2_b*%
X163310000Y-67200000D03*
%TO.P,RV5,3,3*%
%TO.N,Net-(J7-PadT)*%
X165820000Y-67200000D03*
%TD*%
D10*
%TO.P,J1,S*%
%TO.N,GND*%
X162360000Y-141550000D03*
D11*
%TO.P,J1,T*%
%TO.N,Net-(J1-PadT)*%
X162360000Y-152950000D03*
%TO.P,J1,TN*%
%TO.N,unconnected-(J1-PadTN)*%
X162360000Y-144650000D03*
%TD*%
D10*
%TO.P,J3,S*%
%TO.N,GND*%
X173310000Y-141550000D03*
D11*
%TO.P,J3,T*%
%TO.N,/in1_b*%
X173310000Y-152950000D03*
%TO.P,J3,TN*%
%TO.N,unconnected-(J3-PadTN)*%
X173310000Y-144650000D03*
%TD*%
D10*
%TO.P,J7,S*%
%TO.N,GND*%
X162360000Y-127100000D03*
D11*
%TO.P,J7,T*%
%TO.N,Net-(J7-PadT)*%
X162360000Y-138500000D03*
%TO.P,J7,TN*%
%TO.N,unconnected-(J7-PadTN)*%
X162360000Y-130200000D03*
%TD*%
D14*
%TO.P,RV1,*%
%TO.N,*%
X178510000Y-79695000D03*
X188110000Y-79695000D03*
D15*
%TO.P,RV1,1,1*%
%TO.N,GND*%
X180810000Y-87195000D03*
D16*
%TO.P,RV1,2,2*%
%TO.N,/cv1_b*%
X183310000Y-87195000D03*
%TO.P,RV1,3,3*%
%TO.N,Net-(J1-PadT)*%
X185810000Y-87195000D03*
%TD*%
D17*
%TO.N,/out1_b*%
X185710000Y-152950000D02*
X184260000Y-152950000D01*
X191010000Y-147650000D02*
X185710000Y-152950000D01*
%TO.N,/in2_b*%
X159890000Y-108850000D02*
X155560000Y-108850000D01*
%TO.N,/out2_b*%
X181050000Y-127330000D02*
X160030000Y-106310000D01*
%TO.N,/in2_b*%
X170190000Y-135380000D02*
X173310000Y-138500000D01*
%TO.N,/in1_b*%
X179030000Y-152950000D02*
X173310000Y-152950000D01*
X181300000Y-150680000D02*
X179030000Y-152950000D01*
%TO.N,/in2_b*%
X170190000Y-135300000D02*
X170190000Y-135380000D01*
X170180000Y-119140000D02*
X159890000Y-108850000D01*
X170190000Y-135300000D02*
X170180000Y-135300000D01*
%TO.N,/out2_b*%
X181050000Y-135290000D02*
X181050000Y-127330000D01*
X160030000Y-106310000D02*
X155560000Y-106310000D01*
X184260000Y-138500000D02*
X181050000Y-135290000D01*
%TO.N,/in2_b*%
X170180000Y-135300000D02*
X170180000Y-119140000D01*
%TO.N,/in1_b*%
X185440000Y-150680000D02*
X181300000Y-150680000D01*
X191010000Y-145110000D02*
X185440000Y-150680000D01*
%TD*%
%TA.AperFunction,Conductor*%
%TO.N,GND*%
G36*
X192752539Y-54550185D02*
G01*
X192798294Y-54602989D01*
X192809500Y-54654500D01*
X192809500Y-154405500D01*
X192789815Y-154472539D01*
X192737011Y-154518294D01*
X192685500Y-154529500D01*
X185118342Y-154529500D01*
X185051303Y-154509815D01*
X185005548Y-154457011D01*
X184995604Y-154387853D01*
X185024629Y-154324297D01*
X185053548Y-154299774D01*
X185183023Y-154220433D01*
X185370399Y-154060399D01*
X185530433Y-153873023D01*
X185659184Y-153662920D01*
X185659185Y-153662917D01*
X185661729Y-153658766D01*
X185663761Y-153660011D01*
X185704977Y-153616327D01*
X185751979Y-153600367D01*
X185753923Y-153600120D01*
X185755278Y-153599949D01*
X185766939Y-153599030D01*
X185812569Y-153597597D01*
X185832956Y-153591673D01*
X185851996Y-153587731D01*
X185873058Y-153585071D01*
X185915520Y-153568258D01*
X185926557Y-153564480D01*
X185970398Y-153551744D01*
X185988665Y-153540939D01*
X186006136Y-153532380D01*
X186025871Y-153524568D01*
X186062816Y-153497725D01*
X186072558Y-153491326D01*
X186111865Y-153468081D01*
X186126870Y-153453075D01*
X186141668Y-153440436D01*
X186148790Y-153435262D01*
X186158837Y-153427963D01*
X186187946Y-153392774D01*
X186195790Y-153384154D01*
X189493584Y-150086360D01*
X189554905Y-150052877D01*
X189624597Y-150057861D01*
X189680530Y-150099733D01*
X189704947Y-150165197D01*
X189704792Y-150184846D01*
X189704341Y-150190001D01*
X189724936Y-150425403D01*
X189724938Y-150425413D01*
X189786094Y-150653655D01*
X189786096Y-150653659D01*
X189786097Y-150653663D01*
X189885965Y-150867830D01*
X189885967Y-150867834D01*
X189994281Y-151022521D01*
X190021501Y-151061396D01*
X190021506Y-151061402D01*
X190143818Y-151183714D01*
X190177303Y-151245037D01*
X190172319Y-151314729D01*
X190130447Y-151370662D01*
X190099471Y-151387577D01*
X189967912Y-151436646D01*
X189967906Y-151436649D01*
X189852812Y-151522809D01*
X189852809Y-151522812D01*
X189766649Y-151637906D01*
X189766645Y-151637913D01*
X189716403Y-151772620D01*
X189716401Y-151772627D01*
X189710000Y-151832155D01*
X189710000Y-152480000D01*
X190626314Y-152480000D01*
X190600507Y-152520156D01*
X190560000Y-152658111D01*
X190560000Y-152801889D01*
X190600507Y-152939844D01*
X190626314Y-152980000D01*
X189710000Y-152980000D01*
X189710000Y-153627844D01*
X189716401Y-153687372D01*
X189716403Y-153687379D01*
X189766645Y-153822086D01*
X189766649Y-153822093D01*
X189852809Y-153937187D01*
X189852812Y-153937190D01*
X189967906Y-154023350D01*
X189967913Y-154023354D01*
X190102620Y-154073596D01*
X190102627Y-154073598D01*
X190162155Y-154079999D01*
X190162172Y-154080000D01*
X190810000Y-154080000D01*
X190810000Y-153165501D01*
X190917685Y-153214680D01*
X191024237Y-153230000D01*
X191095763Y-153230000D01*
X191202315Y-153214680D01*
X191310000Y-153165501D01*
X191310000Y-154080000D01*
X191957828Y-154080000D01*
X191957844Y-154079999D01*
X192017372Y-154073598D01*
X192017379Y-154073596D01*
X192152086Y-154023354D01*
X192152093Y-154023350D01*
X192267187Y-153937190D01*
X192267190Y-153937187D01*
X192353350Y-153822093D01*
X192353354Y-153822086D01*
X192403596Y-153687379D01*
X192403598Y-153687372D01*
X192409999Y-153627844D01*
X192410000Y-153627827D01*
X192410000Y-152980000D01*
X191493686Y-152980000D01*
X191519493Y-152939844D01*
X191560000Y-152801889D01*
X191560000Y-152658111D01*
X191519493Y-152520156D01*
X191493686Y-152480000D01*
X192410000Y-152480000D01*
X192410000Y-151832172D01*
X192409999Y-151832155D01*
X192403598Y-151772627D01*
X192403596Y-151772620D01*
X192353354Y-151637913D01*
X192353350Y-151637906D01*
X192267190Y-151522812D01*
X192267187Y-151522809D01*
X192152093Y-151436649D01*
X192152088Y-151436646D01*
X192020528Y-151387577D01*
X191964595Y-151345705D01*
X191940178Y-151280241D01*
X191955030Y-151211968D01*
X191976175Y-151183720D01*
X192098495Y-151061401D01*
X192234035Y-150867830D01*
X192333903Y-150653663D01*
X192395063Y-150425408D01*
X192415659Y-150190000D01*
X192395063Y-149954592D01*
X192333903Y-149726337D01*
X192234035Y-149512171D01*
X192227089Y-149502250D01*
X192098494Y-149318597D01*
X191931402Y-149151506D01*
X191931396Y-149151501D01*
X191745842Y-149021575D01*
X191702217Y-148966998D01*
X191695023Y-148897500D01*
X191726546Y-148835145D01*
X191745842Y-148818425D01*
X191768026Y-148802891D01*
X191931401Y-148688495D01*
X192098495Y-148521401D01*
X192234035Y-148327830D01*
X192333903Y-148113663D01*
X192395063Y-147885408D01*
X192415659Y-147650000D01*
X192395063Y-147414592D01*
X192333903Y-147186337D01*
X192234035Y-146972171D01*
X192203955Y-146929211D01*
X192098494Y-146778597D01*
X191931402Y-146611506D01*
X191931396Y-146611501D01*
X191745842Y-146481575D01*
X191702217Y-146426998D01*
X191695023Y-146357500D01*
X191726546Y-146295145D01*
X191745842Y-146278425D01*
X191856406Y-146201007D01*
X191931401Y-146148495D01*
X192098495Y-145981401D01*
X192234035Y-145787830D01*
X192333903Y-145573663D01*
X192395063Y-145345408D01*
X192415659Y-145110000D01*
X192395063Y-144874592D01*
X192348626Y-144701285D01*
X192333905Y-144646344D01*
X192333904Y-144646343D01*
X192333903Y-144646337D01*
X192234035Y-144432171D01*
X192214552Y-144404345D01*
X192098494Y-144238597D01*
X191931402Y-144071506D01*
X191931395Y-144071501D01*
X191737834Y-143935967D01*
X191737830Y-143935965D01*
X191737828Y-143935964D01*
X191523663Y-143836097D01*
X191523659Y-143836096D01*
X191523655Y-143836094D01*
X191295413Y-143774938D01*
X191295403Y-143774936D01*
X191060001Y-143754341D01*
X191059999Y-143754341D01*
X190824596Y-143774936D01*
X190824586Y-143774938D01*
X190596344Y-143836094D01*
X190596335Y-143836098D01*
X190382171Y-143935964D01*
X190382169Y-143935965D01*
X190188597Y-144071505D01*
X190021505Y-144238597D01*
X189885965Y-144432169D01*
X189885964Y-144432171D01*
X189786098Y-144646335D01*
X189786094Y-144646344D01*
X189724938Y-144874586D01*
X189724936Y-144874596D01*
X189704341Y-145109999D01*
X189704341Y-145110000D01*
X189724936Y-145345403D01*
X189724939Y-145345416D01*
X189733818Y-145378555D01*
X189732155Y-145448405D01*
X189701724Y-145498328D01*
X185206873Y-149993181D01*
X185145550Y-150026666D01*
X185119192Y-150029500D01*
X181385506Y-150029500D01*
X181369495Y-150027732D01*
X181369473Y-150027974D01*
X181361706Y-150027239D01*
X181291724Y-150029439D01*
X181287829Y-150029500D01*
X181259075Y-150029500D01*
X181259069Y-150029500D01*
X181259063Y-150029501D01*
X181254699Y-150030052D01*
X181243069Y-150030967D01*
X181197432Y-150032401D01*
X181197431Y-150032401D01*
X181177041Y-150038325D01*
X181157996Y-150042269D01*
X181136942Y-150044929D01*
X181094490Y-150061736D01*
X181083443Y-150065518D01*
X181039602Y-150078255D01*
X181039595Y-150078258D01*
X181021329Y-150089061D01*
X181003861Y-150097619D01*
X180984128Y-150105432D01*
X180947193Y-150132266D01*
X180937434Y-150138676D01*
X180898132Y-150161920D01*
X180883126Y-150176926D01*
X180868336Y-150189558D01*
X180851167Y-150202032D01*
X180851165Y-150202034D01*
X180822056Y-150237219D01*
X180814196Y-150245856D01*
X178796873Y-152263181D01*
X178735550Y-152296666D01*
X178709192Y-152299500D01*
X174816879Y-152299500D01*
X174749840Y-152279815D01*
X174711152Y-152240290D01*
X174580436Y-152026982D01*
X174580435Y-152026979D01*
X174544280Y-151984648D01*
X174420399Y-151839601D01*
X174296516Y-151733795D01*
X174233020Y-151679564D01*
X174233018Y-151679563D01*
X174022920Y-151550815D01*
X173795264Y-151456517D01*
X173555658Y-151398993D01*
X173310000Y-151379659D01*
X173064341Y-151398993D01*
X172824735Y-151456517D01*
X172597079Y-151550815D01*
X172386981Y-151679563D01*
X172386979Y-151679564D01*
X172199601Y-151839601D01*
X172039564Y-152026979D01*
X172039563Y-152026981D01*
X171910815Y-152237079D01*
X171816517Y-152464735D01*
X171758993Y-152704341D01*
X171739659Y-152950000D01*
X171758993Y-153195658D01*
X171816517Y-153435264D01*
X171910815Y-153662920D01*
X172039563Y-153873018D01*
X172039564Y-153873020D01*
X172039567Y-153873023D01*
X172199601Y-154060399D01*
X172386977Y-154220433D01*
X172516449Y-154299773D01*
X172563323Y-154351584D01*
X172574746Y-154420514D01*
X172547089Y-154484677D01*
X172489133Y-154523701D01*
X172451658Y-154529500D01*
X163218342Y-154529500D01*
X163151303Y-154509815D01*
X163105548Y-154457011D01*
X163095604Y-154387853D01*
X163124629Y-154324297D01*
X163153548Y-154299774D01*
X163283023Y-154220433D01*
X163470399Y-154060399D01*
X163630433Y-153873023D01*
X163759184Y-153662920D01*
X163853483Y-153435262D01*
X163911007Y-153195655D01*
X163930341Y-152950000D01*
X163911007Y-152704345D01*
X163853483Y-152464738D01*
X163826337Y-152399202D01*
X163759184Y-152237079D01*
X163630436Y-152026981D01*
X163630435Y-152026979D01*
X163594280Y-151984648D01*
X163470399Y-151839601D01*
X163346516Y-151733795D01*
X163283020Y-151679564D01*
X163283018Y-151679563D01*
X163072920Y-151550815D01*
X162845264Y-151456517D01*
X162605658Y-151398993D01*
X162360000Y-151379659D01*
X162114341Y-151398993D01*
X161874735Y-151456517D01*
X161647079Y-151550815D01*
X161436981Y-151679563D01*
X161436979Y-151679564D01*
X161249601Y-151839601D01*
X161089564Y-152026979D01*
X161089563Y-152026981D01*
X160960815Y-152237079D01*
X160866517Y-152464735D01*
X160808993Y-152704341D01*
X160789659Y-152950000D01*
X160808993Y-153195658D01*
X160866517Y-153435264D01*
X160960815Y-153662920D01*
X161089563Y-153873018D01*
X161089564Y-153873020D01*
X161089567Y-153873023D01*
X161249601Y-154060399D01*
X161436977Y-154220433D01*
X161566449Y-154299773D01*
X161613323Y-154351584D01*
X161624746Y-154420514D01*
X161597089Y-154484677D01*
X161539133Y-154523701D01*
X161501658Y-154529500D01*
X153934500Y-154529500D01*
X153867461Y-154509815D01*
X153821706Y-154457011D01*
X153810500Y-154405500D01*
X153810500Y-147993225D01*
X160855307Y-147993225D01*
X160869507Y-148239474D01*
X160869507Y-148239479D01*
X160923731Y-148480092D01*
X160923734Y-148480099D01*
X161008354Y-148688495D01*
X161016533Y-148708636D01*
X161145412Y-148918947D01*
X161187036Y-148966998D01*
X161306908Y-149105382D01*
X161496687Y-149262939D01*
X161496690Y-149262941D01*
X161496696Y-149262945D01*
X161709650Y-149387385D01*
X161940072Y-149475375D01*
X161940075Y-149475375D01*
X161940079Y-149475377D01*
X162181785Y-149524553D01*
X162428278Y-149533592D01*
X162672936Y-149502250D01*
X162909191Y-149431370D01*
X163130697Y-149322856D01*
X163331505Y-149179621D01*
X163506223Y-149005512D01*
X163636627Y-148824035D01*
X163650156Y-148805208D01*
X163650159Y-148805202D01*
X163707840Y-148688495D01*
X163759445Y-148584079D01*
X163831149Y-148348074D01*
X163863344Y-148103526D01*
X163865141Y-148030000D01*
X163862118Y-147993225D01*
X171805307Y-147993225D01*
X171819507Y-148239474D01*
X171819507Y-148239479D01*
X171873731Y-148480092D01*
X171873734Y-148480099D01*
X171958354Y-148688495D01*
X171966533Y-148708636D01*
X172095412Y-148918947D01*
X172137036Y-148966998D01*
X172256908Y-149105382D01*
X172446687Y-149262939D01*
X172446690Y-149262941D01*
X172446696Y-149262945D01*
X172659650Y-149387385D01*
X172890072Y-149475375D01*
X172890075Y-149475375D01*
X172890079Y-149475377D01*
X173131785Y-149524553D01*
X173378278Y-149533592D01*
X173622936Y-149502250D01*
X173859191Y-149431370D01*
X174080697Y-149322856D01*
X174281505Y-149179621D01*
X174456223Y-149005512D01*
X174586627Y-148824035D01*
X174600156Y-148805208D01*
X174600159Y-148805202D01*
X174657840Y-148688495D01*
X174709445Y-148584079D01*
X174781149Y-148348074D01*
X174813344Y-148103526D01*
X174815141Y-148030000D01*
X174812118Y-147993225D01*
X182755307Y-147993225D01*
X182769507Y-148239474D01*
X182769507Y-148239479D01*
X182823731Y-148480092D01*
X182823734Y-148480099D01*
X182908354Y-148688495D01*
X182916533Y-148708636D01*
X183045412Y-148918947D01*
X183087036Y-148966998D01*
X183206908Y-149105382D01*
X183396687Y-149262939D01*
X183396690Y-149262941D01*
X183396696Y-149262945D01*
X183609650Y-149387385D01*
X183840072Y-149475375D01*
X183840075Y-149475375D01*
X183840079Y-149475377D01*
X184081785Y-149524553D01*
X184328278Y-149533592D01*
X184572936Y-149502250D01*
X184809191Y-149431370D01*
X185030697Y-149322856D01*
X185231505Y-149179621D01*
X185406223Y-149005512D01*
X185536627Y-148824035D01*
X185550156Y-148805208D01*
X185550159Y-148805202D01*
X185607840Y-148688495D01*
X185659445Y-148584079D01*
X185731149Y-148348074D01*
X185763344Y-148103526D01*
X185765141Y-148030000D01*
X185744930Y-147784171D01*
X185684841Y-147544945D01*
X185586486Y-147318744D01*
X185452508Y-147111645D01*
X185286504Y-146929210D01*
X185216276Y-146873747D01*
X185092935Y-146776338D01*
X185092932Y-146776336D01*
X184876991Y-146657130D01*
X184876982Y-146657126D01*
X184644491Y-146574796D01*
X184644471Y-146574791D01*
X184401644Y-146531538D01*
X184401652Y-146531538D01*
X184160496Y-146528592D01*
X184155007Y-146528525D01*
X184155006Y-146528525D01*
X184155005Y-146528525D01*
X184155004Y-146528525D01*
X183911190Y-146565834D01*
X183911180Y-146565837D01*
X183676732Y-146642466D01*
X183457951Y-146756356D01*
X183457948Y-146756358D01*
X183260698Y-146904456D01*
X183090289Y-147082779D01*
X183090279Y-147082792D01*
X182951287Y-147286547D01*
X182951285Y-147286552D01*
X182847439Y-147510268D01*
X182847436Y-147510276D01*
X182781520Y-147747960D01*
X182781519Y-147747967D01*
X182755307Y-147993225D01*
X174812118Y-147993225D01*
X174794930Y-147784171D01*
X174734841Y-147544945D01*
X174636486Y-147318744D01*
X174502508Y-147111645D01*
X174336504Y-146929210D01*
X174266276Y-146873747D01*
X174142935Y-146776338D01*
X174142932Y-146776336D01*
X173926991Y-146657130D01*
X173926982Y-146657126D01*
X173694491Y-146574796D01*
X173694471Y-146574791D01*
X173451644Y-146531538D01*
X173451652Y-146531538D01*
X173210496Y-146528592D01*
X173205007Y-146528525D01*
X173205006Y-146528525D01*
X173205005Y-146528525D01*
X173205004Y-146528525D01*
X172961190Y-146565834D01*
X172961180Y-146565837D01*
X172726732Y-146642466D01*
X172507951Y-146756356D01*
X172507948Y-146756358D01*
X172310698Y-146904456D01*
X172140289Y-147082779D01*
X172140279Y-147082792D01*
X172001287Y-147286547D01*
X172001285Y-147286552D01*
X171897439Y-147510268D01*
X171897436Y-147510276D01*
X171831520Y-147747960D01*
X171831519Y-147747967D01*
X171805307Y-147993225D01*
X163862118Y-147993225D01*
X163844930Y-147784171D01*
X163784841Y-147544945D01*
X163686486Y-147318744D01*
X163552508Y-147111645D01*
X163386504Y-146929210D01*
X163316276Y-146873747D01*
X163192935Y-146776338D01*
X163192932Y-146776336D01*
X162976991Y-146657130D01*
X162976982Y-146657126D01*
X162744491Y-146574796D01*
X162744471Y-146574791D01*
X162501644Y-146531538D01*
X162501652Y-146531538D01*
X162260496Y-146528592D01*
X162255007Y-146528525D01*
X162255006Y-146528525D01*
X162255005Y-146528525D01*
X162255004Y-146528525D01*
X162011190Y-146565834D01*
X162011180Y-146565837D01*
X161776732Y-146642466D01*
X161557951Y-146756356D01*
X161557948Y-146756358D01*
X161360698Y-146904456D01*
X161190289Y-147082779D01*
X161190279Y-147082792D01*
X161051287Y-147286547D01*
X161051285Y-147286552D01*
X160947439Y-147510268D01*
X160947436Y-147510276D01*
X160881520Y-147747960D01*
X160881519Y-147747967D01*
X160855307Y-147993225D01*
X153810500Y-147993225D01*
X153810500Y-144650000D01*
X160789659Y-144650000D01*
X160808993Y-144895658D01*
X160866517Y-145135264D01*
X160960815Y-145362920D01*
X161089563Y-145573018D01*
X161089564Y-145573020D01*
X161090114Y-145573664D01*
X161249601Y-145760399D01*
X161394648Y-145884280D01*
X161436979Y-145920435D01*
X161436981Y-145920436D01*
X161647079Y-146049184D01*
X161874735Y-146143482D01*
X161874736Y-146143482D01*
X161874738Y-146143483D01*
X162114345Y-146201007D01*
X162360000Y-146220341D01*
X162605655Y-146201007D01*
X162845262Y-146143483D01*
X163072920Y-146049184D01*
X163283023Y-145920433D01*
X163470399Y-145760399D01*
X163630433Y-145573023D01*
X163759184Y-145362920D01*
X163853483Y-145135262D01*
X163911007Y-144895655D01*
X163930341Y-144650000D01*
X163911007Y-144404345D01*
X163853483Y-144164738D01*
X163759184Y-143937080D01*
X163759184Y-143937079D01*
X163630436Y-143726981D01*
X163630435Y-143726979D01*
X163594280Y-143684648D01*
X163470399Y-143539601D01*
X163346516Y-143433795D01*
X163283020Y-143379564D01*
X163283018Y-143379563D01*
X163072919Y-143250815D01*
X163072920Y-143250815D01*
X162958838Y-143203561D01*
X162904435Y-143159720D01*
X162882370Y-143093426D01*
X162899649Y-143025726D01*
X162950787Y-142978116D01*
X163006291Y-142965000D01*
X163372828Y-142965000D01*
X163372844Y-142964999D01*
X163432372Y-142958598D01*
X163432379Y-142958596D01*
X163567086Y-142908354D01*
X163567093Y-142908350D01*
X163682187Y-142822190D01*
X163682190Y-142822187D01*
X163768350Y-142707093D01*
X163768354Y-142707086D01*
X163818596Y-142572379D01*
X163818598Y-142572372D01*
X163824999Y-142512844D01*
X163825000Y-142512827D01*
X163825000Y-141800000D01*
X162916520Y-141800000D01*
X162944755Y-141739998D01*
X162973635Y-141588607D01*
X162963957Y-141434789D01*
X162920162Y-141300000D01*
X163825000Y-141300000D01*
X163825000Y-140587172D01*
X163824999Y-140587155D01*
X163818598Y-140527627D01*
X163818596Y-140527620D01*
X163768354Y-140392913D01*
X163768350Y-140392906D01*
X163682190Y-140277812D01*
X163682187Y-140277809D01*
X163567093Y-140191649D01*
X163567086Y-140191645D01*
X163432379Y-140141403D01*
X163432372Y-140141401D01*
X163372844Y-140135000D01*
X163126603Y-140135000D01*
X163059564Y-140115315D01*
X163013809Y-140062511D01*
X163003865Y-139993353D01*
X163032890Y-139929797D01*
X163070305Y-139900517D01*
X163072914Y-139899186D01*
X163072920Y-139899184D01*
X163283023Y-139770433D01*
X163470399Y-139610399D01*
X163630433Y-139423023D01*
X163759184Y-139212920D01*
X163853483Y-138985262D01*
X163911007Y-138745655D01*
X163930341Y-138500000D01*
X163911007Y-138254345D01*
X163853483Y-138014738D01*
X163827628Y-137952318D01*
X163759184Y-137787079D01*
X163630436Y-137576981D01*
X163630435Y-137576979D01*
X163594280Y-137534648D01*
X163470399Y-137389601D01*
X163346516Y-137283795D01*
X163283020Y-137229564D01*
X163283018Y-137229563D01*
X163072920Y-137100815D01*
X162845264Y-137006517D01*
X162605658Y-136948993D01*
X162360000Y-136929659D01*
X162114341Y-136948993D01*
X161874735Y-137006517D01*
X161647079Y-137100815D01*
X161436981Y-137229563D01*
X161436979Y-137229564D01*
X161249601Y-137389601D01*
X161089564Y-137576979D01*
X161089563Y-137576981D01*
X160960815Y-137787079D01*
X160866517Y-138014735D01*
X160808993Y-138254341D01*
X160789659Y-138500000D01*
X160808993Y-138745658D01*
X160866517Y-138985264D01*
X160960815Y-139212920D01*
X161089563Y-139423018D01*
X161089564Y-139423020D01*
X161089567Y-139423023D01*
X161249601Y-139610399D01*
X161394648Y-139734280D01*
X161436979Y-139770435D01*
X161436981Y-139770436D01*
X161647080Y-139899184D01*
X161649695Y-139900517D01*
X161650508Y-139901285D01*
X161651234Y-139901730D01*
X161651140Y-139901882D01*
X161700490Y-139948493D01*
X161717283Y-140016314D01*
X161694743Y-140082449D01*
X161640027Y-140125898D01*
X161593397Y-140135000D01*
X161347155Y-140135000D01*
X161287627Y-140141401D01*
X161287620Y-140141403D01*
X161152913Y-140191645D01*
X161152906Y-140191649D01*
X161037812Y-140277809D01*
X161037809Y-140277812D01*
X160951649Y-140392906D01*
X160951645Y-140392913D01*
X160901403Y-140527620D01*
X160901401Y-140527627D01*
X160895000Y-140587155D01*
X160895000Y-141300000D01*
X161803480Y-141300000D01*
X161775245Y-141360002D01*
X161746365Y-141511393D01*
X161756043Y-141665211D01*
X161799838Y-141800000D01*
X160895000Y-141800000D01*
X160895000Y-142512844D01*
X160901401Y-142572372D01*
X160901403Y-142572379D01*
X160951645Y-142707086D01*
X160951649Y-142707093D01*
X161037809Y-142822187D01*
X161037812Y-142822190D01*
X161152906Y-142908350D01*
X161152913Y-142908354D01*
X161287620Y-142958596D01*
X161287627Y-142958598D01*
X161347155Y-142964999D01*
X161347172Y-142965000D01*
X161713709Y-142965000D01*
X161780748Y-142984685D01*
X161826503Y-143037489D01*
X161836447Y-143106647D01*
X161807422Y-143170203D01*
X161761162Y-143203561D01*
X161647079Y-143250815D01*
X161436981Y-143379563D01*
X161436979Y-143379564D01*
X161249601Y-143539601D01*
X161089564Y-143726979D01*
X161089563Y-143726981D01*
X160960815Y-143937079D01*
X160866517Y-144164735D01*
X160808993Y-144404341D01*
X160789659Y-144650000D01*
X153810500Y-144650000D01*
X153810500Y-133543225D01*
X160855307Y-133543225D01*
X160869507Y-133789474D01*
X160869507Y-133789479D01*
X160923731Y-134030092D01*
X161016533Y-134258636D01*
X161145412Y-134468947D01*
X161220393Y-134555507D01*
X161306908Y-134655382D01*
X161496687Y-134812939D01*
X161496690Y-134812941D01*
X161496696Y-134812945D01*
X161709650Y-134937385D01*
X161940072Y-135025375D01*
X161940075Y-135025375D01*
X161940079Y-135025377D01*
X162181785Y-135074553D01*
X162428278Y-135083592D01*
X162672936Y-135052250D01*
X162909191Y-134981370D01*
X163130697Y-134872856D01*
X163331505Y-134729621D01*
X163506223Y-134555512D01*
X163650158Y-134355205D01*
X163759445Y-134134079D01*
X163831149Y-133898074D01*
X163863344Y-133653526D01*
X163865141Y-133580000D01*
X163844930Y-133334171D01*
X163784841Y-133094945D01*
X163686486Y-132868744D01*
X163552508Y-132661645D01*
X163386504Y-132479210D01*
X163192932Y-132326336D01*
X162976991Y-132207130D01*
X162976982Y-132207126D01*
X162744491Y-132124796D01*
X162744471Y-132124791D01*
X162501644Y-132081538D01*
X162501652Y-132081538D01*
X162260496Y-132078592D01*
X162255007Y-132078525D01*
X162255006Y-132078525D01*
X162255005Y-132078525D01*
X162255004Y-132078525D01*
X162011190Y-132115834D01*
X162011180Y-132115837D01*
X161776732Y-132192466D01*
X161557951Y-132306356D01*
X161557948Y-132306358D01*
X161360698Y-132454456D01*
X161190289Y-132632779D01*
X161190279Y-132632792D01*
X161051287Y-132836547D01*
X161051285Y-132836552D01*
X160947439Y-133060268D01*
X160947436Y-133060276D01*
X160881520Y-133297960D01*
X160881519Y-133297967D01*
X160855307Y-133543225D01*
X153810500Y-133543225D01*
X153810500Y-130200000D01*
X160789659Y-130200000D01*
X160808993Y-130445658D01*
X160866517Y-130685264D01*
X160960815Y-130912920D01*
X161089563Y-131123018D01*
X161089564Y-131123020D01*
X161089567Y-131123023D01*
X161249601Y-131310399D01*
X161394648Y-131434280D01*
X161436979Y-131470435D01*
X161436981Y-131470436D01*
X161647079Y-131599184D01*
X161874735Y-131693482D01*
X161874736Y-131693482D01*
X161874738Y-131693483D01*
X162114345Y-131751007D01*
X162360000Y-131770341D01*
X162605655Y-131751007D01*
X162845262Y-131693483D01*
X163072920Y-131599184D01*
X163283023Y-131470433D01*
X163470399Y-131310399D01*
X163630433Y-131123023D01*
X163759184Y-130912920D01*
X163853483Y-130685262D01*
X163911007Y-130445655D01*
X163930341Y-130200000D01*
X163911007Y-129954345D01*
X163853483Y-129714738D01*
X163759184Y-129487080D01*
X163759184Y-129487079D01*
X163630436Y-129276981D01*
X163630435Y-129276979D01*
X163594280Y-129234648D01*
X163470399Y-129089601D01*
X163346516Y-128983795D01*
X163283020Y-128929564D01*
X163283018Y-128929563D01*
X163072919Y-128800815D01*
X163072920Y-128800815D01*
X162958838Y-128753561D01*
X162904435Y-128709720D01*
X162882370Y-128643426D01*
X162899649Y-128575726D01*
X162950787Y-128528116D01*
X163006291Y-128515000D01*
X163372828Y-128515000D01*
X163372844Y-128514999D01*
X163432372Y-128508598D01*
X163432379Y-128508596D01*
X163567086Y-128458354D01*
X163567093Y-128458350D01*
X163682187Y-128372190D01*
X163682190Y-128372187D01*
X163768350Y-128257093D01*
X163768354Y-128257086D01*
X163818596Y-128122379D01*
X163818598Y-128122372D01*
X163824999Y-128062844D01*
X163825000Y-128062827D01*
X163825000Y-127350000D01*
X162916520Y-127350000D01*
X162944755Y-127289998D01*
X162973635Y-127138607D01*
X162963957Y-126984789D01*
X162920162Y-126850000D01*
X163825000Y-126850000D01*
X163825000Y-126137172D01*
X163824999Y-126137155D01*
X163818598Y-126077627D01*
X163818596Y-126077620D01*
X163768354Y-125942913D01*
X163768350Y-125942906D01*
X163682190Y-125827812D01*
X163682187Y-125827809D01*
X163567093Y-125741649D01*
X163567086Y-125741645D01*
X163432379Y-125691403D01*
X163432372Y-125691401D01*
X163372844Y-125685000D01*
X162610000Y-125685000D01*
X162610000Y-126541335D01*
X162586341Y-126528329D01*
X162437061Y-126490000D01*
X162321625Y-126490000D01*
X162207094Y-126504469D01*
X162110000Y-126542911D01*
X162110000Y-125685000D01*
X161347155Y-125685000D01*
X161287627Y-125691401D01*
X161287620Y-125691403D01*
X161152913Y-125741645D01*
X161152906Y-125741649D01*
X161037812Y-125827809D01*
X161037809Y-125827812D01*
X160951649Y-125942906D01*
X160951645Y-125942913D01*
X160901403Y-126077620D01*
X160901401Y-126077627D01*
X160895000Y-126137155D01*
X160895000Y-126850000D01*
X161803480Y-126850000D01*
X161775245Y-126910002D01*
X161746365Y-127061393D01*
X161756043Y-127215211D01*
X161799838Y-127350000D01*
X160895000Y-127350000D01*
X160895000Y-128062844D01*
X160901401Y-128122372D01*
X160901403Y-128122379D01*
X160951645Y-128257086D01*
X160951649Y-128257093D01*
X161037809Y-128372187D01*
X161037812Y-128372190D01*
X161152906Y-128458350D01*
X161152913Y-128458354D01*
X161287620Y-128508596D01*
X161287627Y-128508598D01*
X161347155Y-128514999D01*
X161347172Y-128515000D01*
X161713709Y-128515000D01*
X161780748Y-128534685D01*
X161826503Y-128587489D01*
X161836447Y-128656647D01*
X161807422Y-128720203D01*
X161761162Y-128753561D01*
X161647079Y-128800815D01*
X161436981Y-128929563D01*
X161436979Y-128929564D01*
X161249601Y-129089601D01*
X161089564Y-129276979D01*
X161089563Y-129276981D01*
X160960815Y-129487079D01*
X160866517Y-129714735D01*
X160808993Y-129954341D01*
X160789659Y-130200000D01*
X153810500Y-130200000D01*
X153810500Y-111390000D01*
X154254341Y-111390000D01*
X154274936Y-111625403D01*
X154274938Y-111625413D01*
X154336094Y-111853655D01*
X154336096Y-111853659D01*
X154336097Y-111853663D01*
X154435965Y-112067830D01*
X154435967Y-112067834D01*
X154544281Y-112222521D01*
X154571501Y-112261396D01*
X154571506Y-112261402D01*
X154693430Y-112383326D01*
X154726915Y-112444649D01*
X154721931Y-112514341D01*
X154680059Y-112570274D01*
X154649083Y-112587189D01*
X154517669Y-112636203D01*
X154517664Y-112636206D01*
X154402455Y-112722452D01*
X154402452Y-112722455D01*
X154316206Y-112837664D01*
X154316202Y-112837671D01*
X154265908Y-112972517D01*
X154259501Y-113032116D01*
X154259501Y-113032123D01*
X154259500Y-113032135D01*
X154259500Y-114827870D01*
X154259501Y-114827876D01*
X154265908Y-114887483D01*
X154316202Y-115022328D01*
X154316206Y-115022335D01*
X154402452Y-115137544D01*
X154402455Y-115137547D01*
X154517664Y-115223793D01*
X154517671Y-115223797D01*
X154652517Y-115274091D01*
X154652516Y-115274091D01*
X154659444Y-115274835D01*
X154712127Y-115280500D01*
X156507872Y-115280499D01*
X156567483Y-115274091D01*
X156702331Y-115223796D01*
X156817546Y-115137546D01*
X156903796Y-115022331D01*
X156954091Y-114887483D01*
X156960500Y-114827873D01*
X156960499Y-113032128D01*
X156954091Y-112972517D01*
X156903796Y-112837669D01*
X156903795Y-112837668D01*
X156903793Y-112837664D01*
X156817547Y-112722455D01*
X156817544Y-112722452D01*
X156702335Y-112636206D01*
X156702328Y-112636202D01*
X156570917Y-112587189D01*
X156514983Y-112545318D01*
X156490566Y-112479853D01*
X156505418Y-112411580D01*
X156526563Y-112383332D01*
X156648495Y-112261401D01*
X156784035Y-112067830D01*
X156883903Y-111853663D01*
X156945063Y-111625408D01*
X156965659Y-111390000D01*
X156945063Y-111154592D01*
X156883903Y-110926337D01*
X156784035Y-110712171D01*
X156648495Y-110518599D01*
X156648494Y-110518597D01*
X156481402Y-110351506D01*
X156481396Y-110351501D01*
X156295842Y-110221575D01*
X156252217Y-110166998D01*
X156245023Y-110097500D01*
X156276546Y-110035145D01*
X156295842Y-110018425D01*
X156318026Y-110002891D01*
X156481401Y-109888495D01*
X156648495Y-109721401D01*
X156766147Y-109553377D01*
X156820724Y-109509752D01*
X156867722Y-109500500D01*
X159569192Y-109500500D01*
X159636231Y-109520185D01*
X159656873Y-109536819D01*
X169493181Y-119373127D01*
X169526666Y-119434450D01*
X169529500Y-119460808D01*
X169529500Y-135226789D01*
X169527304Y-135250020D01*
X169525624Y-135258826D01*
X169525624Y-135258830D01*
X169529255Y-135316542D01*
X169529500Y-135324328D01*
X169529500Y-135340930D01*
X169531579Y-135357398D01*
X169532311Y-135365140D01*
X169535944Y-135422862D01*
X169537406Y-135430527D01*
X169537115Y-135430582D01*
X169541571Y-135456110D01*
X169542402Y-135482568D01*
X169542403Y-135482569D01*
X169548323Y-135502948D01*
X169552268Y-135521996D01*
X169554928Y-135543054D01*
X169554931Y-135543065D01*
X169571737Y-135585514D01*
X169575520Y-135596563D01*
X169588254Y-135640395D01*
X169588255Y-135640397D01*
X169599060Y-135658666D01*
X169607617Y-135676134D01*
X169613226Y-135690300D01*
X169615432Y-135695872D01*
X169642266Y-135732806D01*
X169648678Y-135742568D01*
X169671919Y-135781865D01*
X169671923Y-135781869D01*
X169686925Y-135796871D01*
X169699563Y-135811669D01*
X169712033Y-135828833D01*
X169712036Y-135828837D01*
X169747213Y-135857937D01*
X169755854Y-135865800D01*
X171784502Y-137894448D01*
X171817987Y-137955771D01*
X171817395Y-138011075D01*
X171758994Y-138254340D01*
X171758993Y-138254345D01*
X171739659Y-138500000D01*
X171758993Y-138745658D01*
X171816517Y-138985264D01*
X171910815Y-139212920D01*
X172039563Y-139423018D01*
X172039564Y-139423020D01*
X172039567Y-139423023D01*
X172199601Y-139610399D01*
X172344648Y-139734280D01*
X172386979Y-139770435D01*
X172386981Y-139770436D01*
X172597080Y-139899184D01*
X172599695Y-139900517D01*
X172600508Y-139901285D01*
X172601234Y-139901730D01*
X172601140Y-139901882D01*
X172650490Y-139948493D01*
X172667283Y-140016314D01*
X172644743Y-140082449D01*
X172590027Y-140125898D01*
X172543397Y-140135000D01*
X172297155Y-140135000D01*
X172237627Y-140141401D01*
X172237620Y-140141403D01*
X172102913Y-140191645D01*
X172102906Y-140191649D01*
X171987812Y-140277809D01*
X171987809Y-140277812D01*
X171901649Y-140392906D01*
X171901645Y-140392913D01*
X171851403Y-140527620D01*
X171851401Y-140527627D01*
X171845000Y-140587155D01*
X171845000Y-141300000D01*
X172753480Y-141300000D01*
X172725245Y-141360002D01*
X172696365Y-141511393D01*
X172706043Y-141665211D01*
X172749838Y-141800000D01*
X171845000Y-141800000D01*
X171845000Y-142512844D01*
X171851401Y-142572372D01*
X171851403Y-142572379D01*
X171901645Y-142707086D01*
X171901649Y-142707093D01*
X171987809Y-142822187D01*
X171987812Y-142822190D01*
X172102906Y-142908350D01*
X172102913Y-142908354D01*
X172237620Y-142958596D01*
X172237627Y-142958598D01*
X172297155Y-142964999D01*
X172297172Y-142965000D01*
X172663709Y-142965000D01*
X172730748Y-142984685D01*
X172776503Y-143037489D01*
X172786447Y-143106647D01*
X172757422Y-143170203D01*
X172711162Y-143203561D01*
X172597079Y-143250815D01*
X172386981Y-143379563D01*
X172386979Y-143379564D01*
X172199601Y-143539601D01*
X172039564Y-143726979D01*
X172039563Y-143726981D01*
X171910815Y-143937079D01*
X171816517Y-144164735D01*
X171758993Y-144404341D01*
X171739659Y-144650000D01*
X171758993Y-144895658D01*
X171816517Y-145135264D01*
X171910815Y-145362920D01*
X172039563Y-145573018D01*
X172039564Y-145573020D01*
X172040114Y-145573664D01*
X172199601Y-145760399D01*
X172344648Y-145884280D01*
X172386979Y-145920435D01*
X172386981Y-145920436D01*
X172597079Y-146049184D01*
X172824735Y-146143482D01*
X172824736Y-146143482D01*
X172824738Y-146143483D01*
X173064345Y-146201007D01*
X173310000Y-146220341D01*
X173555655Y-146201007D01*
X173795262Y-146143483D01*
X174022920Y-146049184D01*
X174233023Y-145920433D01*
X174420399Y-145760399D01*
X174580433Y-145573023D01*
X174709184Y-145362920D01*
X174803483Y-145135262D01*
X174861007Y-144895655D01*
X174880341Y-144650000D01*
X174861007Y-144404345D01*
X174803483Y-144164738D01*
X174709184Y-143937080D01*
X174709184Y-143937079D01*
X174580436Y-143726981D01*
X174580435Y-143726979D01*
X174544280Y-143684648D01*
X174420399Y-143539601D01*
X174296516Y-143433795D01*
X174233020Y-143379564D01*
X174233018Y-143379563D01*
X174022919Y-143250815D01*
X174022920Y-143250815D01*
X173908838Y-143203561D01*
X173854435Y-143159720D01*
X173832370Y-143093426D01*
X173849649Y-143025726D01*
X173900787Y-142978116D01*
X173956291Y-142965000D01*
X174322828Y-142965000D01*
X174322844Y-142964999D01*
X174382372Y-142958598D01*
X174382379Y-142958596D01*
X174517086Y-142908354D01*
X174517093Y-142908350D01*
X174632187Y-142822190D01*
X174632190Y-142822187D01*
X174718350Y-142707093D01*
X174718354Y-142707086D01*
X174768596Y-142572379D01*
X174768598Y-142572372D01*
X174774999Y-142512844D01*
X174775000Y-142512827D01*
X174775000Y-141800000D01*
X173866520Y-141800000D01*
X173894755Y-141739998D01*
X173923635Y-141588607D01*
X173913957Y-141434789D01*
X173870162Y-141300000D01*
X174775000Y-141300000D01*
X174775000Y-140587172D01*
X174774999Y-140587155D01*
X174768598Y-140527627D01*
X174768596Y-140527620D01*
X174718354Y-140392913D01*
X174718350Y-140392906D01*
X174632190Y-140277812D01*
X174632187Y-140277809D01*
X174517093Y-140191649D01*
X174517086Y-140191645D01*
X174382379Y-140141403D01*
X174382372Y-140141401D01*
X174322844Y-140135000D01*
X174076603Y-140135000D01*
X174009564Y-140115315D01*
X173963809Y-140062511D01*
X173953865Y-139993353D01*
X173982890Y-139929797D01*
X174020305Y-139900517D01*
X174022914Y-139899186D01*
X174022920Y-139899184D01*
X174233023Y-139770433D01*
X174420399Y-139610399D01*
X174580433Y-139423023D01*
X174709184Y-139212920D01*
X174803483Y-138985262D01*
X174861007Y-138745655D01*
X174880341Y-138500000D01*
X174861007Y-138254345D01*
X174803483Y-138014738D01*
X174777628Y-137952318D01*
X174709184Y-137787079D01*
X174580436Y-137576981D01*
X174580435Y-137576979D01*
X174544280Y-137534648D01*
X174420399Y-137389601D01*
X174296516Y-137283795D01*
X174233020Y-137229564D01*
X174233018Y-137229563D01*
X174022920Y-137100815D01*
X173795264Y-137006517D01*
X173555658Y-136948993D01*
X173310000Y-136929659D01*
X173064345Y-136948993D01*
X173064341Y-136948993D01*
X173064340Y-136948994D01*
X172821075Y-137007395D01*
X172751293Y-137003904D01*
X172704448Y-136974502D01*
X170866819Y-135136873D01*
X170833334Y-135075550D01*
X170830500Y-135049192D01*
X170830500Y-133543225D01*
X171805307Y-133543225D01*
X171819507Y-133789474D01*
X171819507Y-133789479D01*
X171873731Y-134030092D01*
X171966533Y-134258636D01*
X172095412Y-134468947D01*
X172170393Y-134555507D01*
X172256908Y-134655382D01*
X172446687Y-134812939D01*
X172446690Y-134812941D01*
X172446696Y-134812945D01*
X172659650Y-134937385D01*
X172890072Y-135025375D01*
X172890075Y-135025375D01*
X172890079Y-135025377D01*
X173131785Y-135074553D01*
X173378278Y-135083592D01*
X173622936Y-135052250D01*
X173859191Y-134981370D01*
X174080697Y-134872856D01*
X174281505Y-134729621D01*
X174456223Y-134555512D01*
X174600158Y-134355205D01*
X174709445Y-134134079D01*
X174781149Y-133898074D01*
X174813344Y-133653526D01*
X174815141Y-133580000D01*
X174794930Y-133334171D01*
X174734841Y-133094945D01*
X174636486Y-132868744D01*
X174502508Y-132661645D01*
X174336504Y-132479210D01*
X174142932Y-132326336D01*
X173926991Y-132207130D01*
X173926982Y-132207126D01*
X173694491Y-132124796D01*
X173694471Y-132124791D01*
X173451644Y-132081538D01*
X173451652Y-132081538D01*
X173210496Y-132078592D01*
X173205007Y-132078525D01*
X173205006Y-132078525D01*
X173205005Y-132078525D01*
X173205004Y-132078525D01*
X172961190Y-132115834D01*
X172961180Y-132115837D01*
X172726732Y-132192466D01*
X172507951Y-132306356D01*
X172507948Y-132306358D01*
X172310698Y-132454456D01*
X172140289Y-132632779D01*
X172140279Y-132632792D01*
X172001287Y-132836547D01*
X172001285Y-132836552D01*
X171897439Y-133060268D01*
X171897436Y-133060276D01*
X171831520Y-133297960D01*
X171831519Y-133297967D01*
X171805307Y-133543225D01*
X170830500Y-133543225D01*
X170830500Y-130200000D01*
X171739659Y-130200000D01*
X171758993Y-130445658D01*
X171816517Y-130685264D01*
X171910815Y-130912920D01*
X172039563Y-131123018D01*
X172039564Y-131123020D01*
X172039567Y-131123023D01*
X172199601Y-131310399D01*
X172344648Y-131434280D01*
X172386979Y-131470435D01*
X172386981Y-131470436D01*
X172597079Y-131599184D01*
X172824735Y-131693482D01*
X172824736Y-131693482D01*
X172824738Y-131693483D01*
X173064345Y-131751007D01*
X173310000Y-131770341D01*
X173555655Y-131751007D01*
X173795262Y-131693483D01*
X174022920Y-131599184D01*
X174233023Y-131470433D01*
X174420399Y-131310399D01*
X174580433Y-131123023D01*
X174709184Y-130912920D01*
X174803483Y-130685262D01*
X174861007Y-130445655D01*
X174880341Y-130200000D01*
X174861007Y-129954345D01*
X174803483Y-129714738D01*
X174709184Y-129487080D01*
X174709184Y-129487079D01*
X174580436Y-129276981D01*
X174580435Y-129276979D01*
X174544280Y-129234648D01*
X174420399Y-129089601D01*
X174296516Y-128983795D01*
X174233020Y-128929564D01*
X174233018Y-128929563D01*
X174022919Y-128800815D01*
X174022920Y-128800815D01*
X173908838Y-128753561D01*
X173854435Y-128709720D01*
X173832370Y-128643426D01*
X173849649Y-128575726D01*
X173900787Y-128528116D01*
X173956291Y-128515000D01*
X174322828Y-128515000D01*
X174322844Y-128514999D01*
X174382372Y-128508598D01*
X174382379Y-128508596D01*
X174517086Y-128458354D01*
X174517093Y-128458350D01*
X174632187Y-128372190D01*
X174632190Y-128372187D01*
X174718350Y-128257093D01*
X174718354Y-128257086D01*
X174768596Y-128122379D01*
X174768598Y-128122372D01*
X174774999Y-128062844D01*
X174775000Y-128062827D01*
X174775000Y-127350000D01*
X173866520Y-127350000D01*
X173894755Y-127289998D01*
X173923635Y-127138607D01*
X173913957Y-126984789D01*
X173870162Y-126850000D01*
X174775000Y-126850000D01*
X174775000Y-126137172D01*
X174774999Y-126137155D01*
X174768598Y-126077627D01*
X174768596Y-126077620D01*
X174718354Y-125942913D01*
X174718350Y-125942906D01*
X174632190Y-125827812D01*
X174632187Y-125827809D01*
X174517093Y-125741649D01*
X174517086Y-125741645D01*
X174382379Y-125691403D01*
X174382372Y-125691401D01*
X174322844Y-125685000D01*
X173560000Y-125685000D01*
X173560000Y-126541335D01*
X173536341Y-126528329D01*
X173387061Y-126490000D01*
X173271625Y-126490000D01*
X173157094Y-126504469D01*
X173060000Y-126542911D01*
X173060000Y-125685000D01*
X172297155Y-125685000D01*
X172237627Y-125691401D01*
X172237620Y-125691403D01*
X172102913Y-125741645D01*
X172102906Y-125741649D01*
X171987812Y-125827809D01*
X171987809Y-125827812D01*
X171901649Y-125942906D01*
X171901645Y-125942913D01*
X171851403Y-126077620D01*
X171851401Y-126077627D01*
X171845000Y-126137155D01*
X171845000Y-126850000D01*
X172753480Y-126850000D01*
X172725245Y-126910002D01*
X172696365Y-127061393D01*
X172706043Y-127215211D01*
X172749838Y-127350000D01*
X171845000Y-127350000D01*
X171845000Y-128062844D01*
X171851401Y-128122372D01*
X171851403Y-128122379D01*
X171901645Y-128257086D01*
X171901649Y-128257093D01*
X171987809Y-128372187D01*
X171987812Y-128372190D01*
X172102906Y-128458350D01*
X172102913Y-128458354D01*
X172237620Y-128508596D01*
X172237627Y-128508598D01*
X172297155Y-128514999D01*
X172297172Y-128515000D01*
X172663709Y-128515000D01*
X172730748Y-128534685D01*
X172776503Y-128587489D01*
X172786447Y-128656647D01*
X172757422Y-128720203D01*
X172711162Y-128753561D01*
X172597079Y-128800815D01*
X172386981Y-128929563D01*
X172386979Y-128929564D01*
X172199601Y-129089601D01*
X172039564Y-129276979D01*
X172039563Y-129276981D01*
X171910815Y-129487079D01*
X171816517Y-129714735D01*
X171758993Y-129954341D01*
X171739659Y-130200000D01*
X170830500Y-130200000D01*
X170830500Y-119225503D01*
X170832268Y-119209491D01*
X170832026Y-119209469D01*
X170832760Y-119201706D01*
X170830561Y-119131722D01*
X170830500Y-119127828D01*
X170830500Y-119099078D01*
X170830499Y-119099071D01*
X170829950Y-119094725D01*
X170829031Y-119083062D01*
X170827598Y-119037431D01*
X170821676Y-119017050D01*
X170817731Y-118997995D01*
X170815072Y-118976949D01*
X170815071Y-118976947D01*
X170815071Y-118976942D01*
X170798267Y-118934501D01*
X170794484Y-118923452D01*
X170781745Y-118879602D01*
X170781142Y-118878583D01*
X170770936Y-118861324D01*
X170762378Y-118843855D01*
X170754568Y-118824129D01*
X170727721Y-118787179D01*
X170721331Y-118777449D01*
X170698081Y-118738135D01*
X170683075Y-118723129D01*
X170670435Y-118708330D01*
X170657961Y-118691160D01*
X170622780Y-118662056D01*
X170614140Y-118654194D01*
X160410434Y-108450488D01*
X160400361Y-108437914D01*
X160400174Y-108438070D01*
X160395198Y-108432054D01*
X160344167Y-108384134D01*
X160341369Y-108381423D01*
X160321035Y-108361089D01*
X160317548Y-108358384D01*
X160308669Y-108350800D01*
X160275396Y-108319554D01*
X160275388Y-108319548D01*
X160256792Y-108309325D01*
X160240531Y-108298644D01*
X160223763Y-108285637D01*
X160207409Y-108278560D01*
X160181853Y-108267501D01*
X160171394Y-108262377D01*
X160131368Y-108240373D01*
X160131365Y-108240372D01*
X160110801Y-108235092D01*
X160092396Y-108228790D01*
X160072927Y-108220365D01*
X160072921Y-108220363D01*
X160027837Y-108213223D01*
X160016398Y-108210854D01*
X159972180Y-108199500D01*
X159972177Y-108199500D01*
X159950955Y-108199500D01*
X159931555Y-108197973D01*
X159910596Y-108194653D01*
X159910595Y-108194653D01*
X159875475Y-108197973D01*
X159865140Y-108198950D01*
X159853470Y-108199500D01*
X156867721Y-108199500D01*
X156800682Y-108179815D01*
X156766146Y-108146623D01*
X156648494Y-107978597D01*
X156481402Y-107811506D01*
X156481396Y-107811501D01*
X156295842Y-107681575D01*
X156252217Y-107626998D01*
X156245023Y-107557500D01*
X156276546Y-107495145D01*
X156295842Y-107478425D01*
X156318026Y-107462891D01*
X156481401Y-107348495D01*
X156648495Y-107181401D01*
X156766147Y-107013377D01*
X156820724Y-106969752D01*
X156867722Y-106960500D01*
X159709192Y-106960500D01*
X159776231Y-106980185D01*
X159796873Y-106996819D01*
X180363181Y-127563127D01*
X180396666Y-127624450D01*
X180399500Y-127650808D01*
X180399500Y-135204494D01*
X180397732Y-135220505D01*
X180397974Y-135220528D01*
X180397240Y-135228294D01*
X180399439Y-135298262D01*
X180399500Y-135302157D01*
X180399500Y-135330920D01*
X180399501Y-135330938D01*
X180400053Y-135335311D01*
X180400968Y-135346941D01*
X180402402Y-135392567D01*
X180402403Y-135392570D01*
X180408323Y-135412948D01*
X180412268Y-135431996D01*
X180414928Y-135453054D01*
X180414931Y-135453065D01*
X180431737Y-135495514D01*
X180435520Y-135506563D01*
X180448254Y-135550395D01*
X180448255Y-135550397D01*
X180459060Y-135568666D01*
X180467617Y-135586134D01*
X180471747Y-135596563D01*
X180475432Y-135605872D01*
X180502266Y-135642806D01*
X180508678Y-135652568D01*
X180512284Y-135658666D01*
X180531919Y-135691865D01*
X180531923Y-135691869D01*
X180546925Y-135706871D01*
X180559563Y-135721669D01*
X180572033Y-135738833D01*
X180572036Y-135738837D01*
X180607213Y-135767937D01*
X180615854Y-135775800D01*
X182734502Y-137894448D01*
X182767987Y-137955771D01*
X182767395Y-138011075D01*
X182708994Y-138254340D01*
X182708993Y-138254345D01*
X182689659Y-138500000D01*
X182708993Y-138745658D01*
X182766517Y-138985264D01*
X182860815Y-139212920D01*
X182989563Y-139423018D01*
X182989564Y-139423020D01*
X182989567Y-139423023D01*
X183149601Y-139610399D01*
X183294648Y-139734280D01*
X183336979Y-139770435D01*
X183336981Y-139770436D01*
X183547080Y-139899184D01*
X183549695Y-139900517D01*
X183550508Y-139901285D01*
X183551234Y-139901730D01*
X183551140Y-139901882D01*
X183600490Y-139948493D01*
X183617283Y-140016314D01*
X183594743Y-140082449D01*
X183540027Y-140125898D01*
X183493397Y-140135000D01*
X183247155Y-140135000D01*
X183187627Y-140141401D01*
X183187620Y-140141403D01*
X183052913Y-140191645D01*
X183052906Y-140191649D01*
X182937812Y-140277809D01*
X182937809Y-140277812D01*
X182851649Y-140392906D01*
X182851645Y-140392913D01*
X182801403Y-140527620D01*
X182801401Y-140527627D01*
X182795000Y-140587155D01*
X182795000Y-141300000D01*
X183703480Y-141300000D01*
X183675245Y-141360002D01*
X183646365Y-141511393D01*
X183656043Y-141665211D01*
X183699838Y-141800000D01*
X182795000Y-141800000D01*
X182795000Y-142512844D01*
X182801401Y-142572372D01*
X182801403Y-142572379D01*
X182851645Y-142707086D01*
X182851649Y-142707093D01*
X182937809Y-142822187D01*
X182937812Y-142822190D01*
X183052906Y-142908350D01*
X183052913Y-142908354D01*
X183187620Y-142958596D01*
X183187627Y-142958598D01*
X183247155Y-142964999D01*
X183247172Y-142965000D01*
X183613709Y-142965000D01*
X183680748Y-142984685D01*
X183726503Y-143037489D01*
X183736447Y-143106647D01*
X183707422Y-143170203D01*
X183661162Y-143203561D01*
X183547079Y-143250815D01*
X183336981Y-143379563D01*
X183336979Y-143379564D01*
X183149601Y-143539601D01*
X182989564Y-143726979D01*
X182989563Y-143726981D01*
X182860815Y-143937079D01*
X182766517Y-144164735D01*
X182708993Y-144404341D01*
X182689659Y-144650000D01*
X182708993Y-144895658D01*
X182766517Y-145135264D01*
X182860815Y-145362920D01*
X182989563Y-145573018D01*
X182989564Y-145573020D01*
X182990114Y-145573664D01*
X183149601Y-145760399D01*
X183294648Y-145884280D01*
X183336979Y-145920435D01*
X183336981Y-145920436D01*
X183547079Y-146049184D01*
X183774735Y-146143482D01*
X183774736Y-146143482D01*
X183774738Y-146143483D01*
X184014345Y-146201007D01*
X184260000Y-146220341D01*
X184505655Y-146201007D01*
X184745262Y-146143483D01*
X184972920Y-146049184D01*
X185183023Y-145920433D01*
X185370399Y-145760399D01*
X185530433Y-145573023D01*
X185659184Y-145362920D01*
X185753483Y-145135262D01*
X185811007Y-144895655D01*
X185830341Y-144650000D01*
X185811007Y-144404345D01*
X185753483Y-144164738D01*
X185659184Y-143937080D01*
X185659184Y-143937079D01*
X185530436Y-143726981D01*
X185530435Y-143726979D01*
X185494280Y-143684648D01*
X185370399Y-143539601D01*
X185246516Y-143433795D01*
X185183020Y-143379564D01*
X185183018Y-143379563D01*
X184972919Y-143250815D01*
X184972920Y-143250815D01*
X184858838Y-143203561D01*
X184804435Y-143159720D01*
X184782370Y-143093426D01*
X184799649Y-143025726D01*
X184850787Y-142978116D01*
X184906291Y-142965000D01*
X185272828Y-142965000D01*
X185272844Y-142964999D01*
X185332372Y-142958598D01*
X185332379Y-142958596D01*
X185467086Y-142908354D01*
X185467093Y-142908350D01*
X185582187Y-142822190D01*
X185582190Y-142822187D01*
X185668350Y-142707093D01*
X185668354Y-142707086D01*
X185718596Y-142572379D01*
X185718598Y-142572372D01*
X185724999Y-142512844D01*
X185725000Y-142512827D01*
X185725000Y-141800000D01*
X184816520Y-141800000D01*
X184844755Y-141739998D01*
X184873635Y-141588607D01*
X184863957Y-141434789D01*
X184820162Y-141300000D01*
X185725000Y-141300000D01*
X185725000Y-140587172D01*
X185724999Y-140587155D01*
X185718598Y-140527627D01*
X185718596Y-140527620D01*
X185668354Y-140392913D01*
X185668350Y-140392906D01*
X185582190Y-140277812D01*
X185582187Y-140277809D01*
X185467093Y-140191649D01*
X185467086Y-140191645D01*
X185332379Y-140141403D01*
X185332372Y-140141401D01*
X185272844Y-140135000D01*
X185026603Y-140135000D01*
X184959564Y-140115315D01*
X184913809Y-140062511D01*
X184903865Y-139993353D01*
X184932890Y-139929797D01*
X184970305Y-139900517D01*
X184972914Y-139899186D01*
X184972920Y-139899184D01*
X185183023Y-139770433D01*
X185370399Y-139610399D01*
X185530433Y-139423023D01*
X185659184Y-139212920D01*
X185753483Y-138985262D01*
X185811007Y-138745655D01*
X185830341Y-138500000D01*
X185811007Y-138254345D01*
X185753483Y-138014738D01*
X185727628Y-137952318D01*
X185659184Y-137787079D01*
X185530436Y-137576981D01*
X185530435Y-137576979D01*
X185494280Y-137534648D01*
X185370399Y-137389601D01*
X185246516Y-137283795D01*
X185183020Y-137229564D01*
X185183018Y-137229563D01*
X184972920Y-137100815D01*
X184745264Y-137006517D01*
X184505658Y-136948993D01*
X184260000Y-136929659D01*
X184014345Y-136948993D01*
X184014341Y-136948993D01*
X184014340Y-136948994D01*
X183771075Y-137007395D01*
X183701293Y-137003904D01*
X183654448Y-136974502D01*
X181736819Y-135056873D01*
X181703334Y-134995550D01*
X181700500Y-134969192D01*
X181700500Y-133543225D01*
X182755307Y-133543225D01*
X182769507Y-133789474D01*
X182769507Y-133789479D01*
X182823731Y-134030092D01*
X182916533Y-134258636D01*
X183045412Y-134468947D01*
X183120393Y-134555507D01*
X183206908Y-134655382D01*
X183396687Y-134812939D01*
X183396690Y-134812941D01*
X183396696Y-134812945D01*
X183609650Y-134937385D01*
X183840072Y-135025375D01*
X183840075Y-135025375D01*
X183840079Y-135025377D01*
X184081785Y-135074553D01*
X184328278Y-135083592D01*
X184572936Y-135052250D01*
X184809191Y-134981370D01*
X185030697Y-134872856D01*
X185231505Y-134729621D01*
X185406223Y-134555512D01*
X185550158Y-134355205D01*
X185659445Y-134134079D01*
X185731149Y-133898074D01*
X185763344Y-133653526D01*
X185765141Y-133580000D01*
X185744930Y-133334171D01*
X185684841Y-133094945D01*
X185586486Y-132868744D01*
X185452508Y-132661645D01*
X185286504Y-132479210D01*
X185092932Y-132326336D01*
X184876991Y-132207130D01*
X184876982Y-132207126D01*
X184644491Y-132124796D01*
X184644471Y-132124791D01*
X184401644Y-132081538D01*
X184401652Y-132081538D01*
X184160496Y-132078592D01*
X184155007Y-132078525D01*
X184155006Y-132078525D01*
X184155005Y-132078525D01*
X184155004Y-132078525D01*
X183911190Y-132115834D01*
X183911180Y-132115837D01*
X183676732Y-132192466D01*
X183457951Y-132306356D01*
X183457948Y-132306358D01*
X183260698Y-132454456D01*
X183090289Y-132632779D01*
X183090279Y-132632792D01*
X182951287Y-132836547D01*
X182951285Y-132836552D01*
X182847439Y-133060268D01*
X182847436Y-133060276D01*
X182781520Y-133297960D01*
X182781519Y-133297967D01*
X182755307Y-133543225D01*
X181700500Y-133543225D01*
X181700500Y-130200000D01*
X182689659Y-130200000D01*
X182708993Y-130445658D01*
X182766517Y-130685264D01*
X182860815Y-130912920D01*
X182989563Y-131123018D01*
X182989564Y-131123020D01*
X182989567Y-131123023D01*
X183149601Y-131310399D01*
X183294648Y-131434280D01*
X183336979Y-131470435D01*
X183336981Y-131470436D01*
X183547079Y-131599184D01*
X183774735Y-131693482D01*
X183774736Y-131693482D01*
X183774738Y-131693483D01*
X184014345Y-131751007D01*
X184260000Y-131770341D01*
X184505655Y-131751007D01*
X184745262Y-131693483D01*
X184972920Y-131599184D01*
X185183023Y-131470433D01*
X185370399Y-131310399D01*
X185530433Y-131123023D01*
X185659184Y-130912920D01*
X185753483Y-130685262D01*
X185811007Y-130445655D01*
X185830341Y-130200000D01*
X185811007Y-129954345D01*
X185753483Y-129714738D01*
X185659184Y-129487080D01*
X185659184Y-129487079D01*
X185530436Y-129276981D01*
X185530435Y-129276979D01*
X185494280Y-129234648D01*
X185370399Y-129089601D01*
X185246516Y-128983795D01*
X185183020Y-128929564D01*
X185183018Y-128929563D01*
X184972919Y-128800815D01*
X184972920Y-128800815D01*
X184858838Y-128753561D01*
X184804435Y-128709720D01*
X184782370Y-128643426D01*
X184799649Y-128575726D01*
X184850787Y-128528116D01*
X184906291Y-128515000D01*
X185272828Y-128515000D01*
X185272844Y-128514999D01*
X185332372Y-128508598D01*
X185332379Y-128508596D01*
X185467086Y-128458354D01*
X185467093Y-128458350D01*
X185582187Y-128372190D01*
X185582190Y-128372187D01*
X185668350Y-128257093D01*
X185668354Y-128257086D01*
X185718596Y-128122379D01*
X185718598Y-128122372D01*
X185724999Y-128062844D01*
X185725000Y-128062827D01*
X185725000Y-127350000D01*
X184816520Y-127350000D01*
X184844755Y-127289998D01*
X184873635Y-127138607D01*
X184863957Y-126984789D01*
X184820162Y-126850000D01*
X185725000Y-126850000D01*
X185725000Y-126137172D01*
X185724999Y-126137155D01*
X185718598Y-126077627D01*
X185718596Y-126077620D01*
X185668354Y-125942913D01*
X185668350Y-125942906D01*
X185582190Y-125827812D01*
X185582187Y-125827809D01*
X185467093Y-125741649D01*
X185467086Y-125741645D01*
X185332379Y-125691403D01*
X185332372Y-125691401D01*
X185272844Y-125685000D01*
X184510000Y-125685000D01*
X184510000Y-126541335D01*
X184486341Y-126528329D01*
X184337061Y-126490000D01*
X184221625Y-126490000D01*
X184107094Y-126504469D01*
X184010000Y-126542911D01*
X184010000Y-125685000D01*
X183247155Y-125685000D01*
X183187627Y-125691401D01*
X183187620Y-125691403D01*
X183052913Y-125741645D01*
X183052906Y-125741649D01*
X182937812Y-125827809D01*
X182937809Y-125827812D01*
X182851649Y-125942906D01*
X182851645Y-125942913D01*
X182801403Y-126077620D01*
X182801401Y-126077627D01*
X182795000Y-126137155D01*
X182795000Y-126850000D01*
X183703480Y-126850000D01*
X183675245Y-126910002D01*
X183646365Y-127061393D01*
X183656043Y-127215211D01*
X183699838Y-127350000D01*
X182795000Y-127350000D01*
X182795000Y-128062844D01*
X182801401Y-128122372D01*
X182801403Y-128122379D01*
X182851645Y-128257086D01*
X182851649Y-128257093D01*
X182937809Y-128372187D01*
X182937812Y-128372190D01*
X183052906Y-128458350D01*
X183052913Y-128458354D01*
X183187620Y-128508596D01*
X183187627Y-128508598D01*
X183247155Y-128514999D01*
X183247172Y-128515000D01*
X183613709Y-128515000D01*
X183680748Y-128534685D01*
X183726503Y-128587489D01*
X183736447Y-128656647D01*
X183707422Y-128720203D01*
X183661162Y-128753561D01*
X183547079Y-128800815D01*
X183336981Y-128929563D01*
X183336979Y-128929564D01*
X183149601Y-129089601D01*
X182989564Y-129276979D01*
X182989563Y-129276981D01*
X182860815Y-129487079D01*
X182766517Y-129714735D01*
X182708993Y-129954341D01*
X182689659Y-130200000D01*
X181700500Y-130200000D01*
X181700500Y-127415501D01*
X181702268Y-127399488D01*
X181702026Y-127399466D01*
X181702758Y-127391710D01*
X181702760Y-127391703D01*
X181700561Y-127321736D01*
X181700500Y-127317841D01*
X181700500Y-127289077D01*
X181700499Y-127289070D01*
X181699949Y-127284716D01*
X181699030Y-127273054D01*
X181697597Y-127227431D01*
X181691676Y-127207053D01*
X181687731Y-127188004D01*
X181685071Y-127166942D01*
X181668263Y-127124491D01*
X181664480Y-127113442D01*
X181651743Y-127069600D01*
X181640940Y-127051334D01*
X181632378Y-127033856D01*
X181624568Y-127014129D01*
X181624565Y-127014125D01*
X181597730Y-126977189D01*
X181591331Y-126967448D01*
X181568081Y-126928135D01*
X181568079Y-126928133D01*
X181568078Y-126928131D01*
X181553075Y-126913129D01*
X181540435Y-126898330D01*
X181527961Y-126881160D01*
X181492780Y-126852056D01*
X181484140Y-126844194D01*
X160550434Y-105910488D01*
X160540361Y-105897914D01*
X160540174Y-105898070D01*
X160535198Y-105892054D01*
X160484167Y-105844134D01*
X160481369Y-105841423D01*
X160461035Y-105821089D01*
X160457548Y-105818384D01*
X160448669Y-105810800D01*
X160415396Y-105779554D01*
X160415388Y-105779548D01*
X160396792Y-105769325D01*
X160380531Y-105758644D01*
X160363763Y-105745637D01*
X160347409Y-105738560D01*
X160321853Y-105727501D01*
X160311394Y-105722377D01*
X160271368Y-105700373D01*
X160271365Y-105700372D01*
X160250801Y-105695092D01*
X160232396Y-105688790D01*
X160212927Y-105680365D01*
X160212921Y-105680363D01*
X160167837Y-105673223D01*
X160156398Y-105670854D01*
X160112180Y-105659500D01*
X160112177Y-105659500D01*
X160090955Y-105659500D01*
X160071555Y-105657973D01*
X160050596Y-105654653D01*
X160050595Y-105654653D01*
X160015475Y-105657973D01*
X160005140Y-105658950D01*
X159993470Y-105659500D01*
X156867721Y-105659500D01*
X156800682Y-105639815D01*
X156766146Y-105606623D01*
X156648494Y-105438597D01*
X156481402Y-105271506D01*
X156481395Y-105271501D01*
X156287834Y-105135967D01*
X156287830Y-105135965D01*
X156287828Y-105135964D01*
X156073663Y-105036097D01*
X156073659Y-105036096D01*
X156073655Y-105036094D01*
X155845413Y-104974938D01*
X155845403Y-104974936D01*
X155610001Y-104954341D01*
X155609999Y-104954341D01*
X155374596Y-104974936D01*
X155374586Y-104974938D01*
X155146344Y-105036094D01*
X155146335Y-105036098D01*
X154932171Y-105135964D01*
X154932169Y-105135965D01*
X154738597Y-105271505D01*
X154571505Y-105438597D01*
X154435965Y-105632169D01*
X154435964Y-105632171D01*
X154336098Y-105846335D01*
X154336094Y-105846344D01*
X154274938Y-106074586D01*
X154274936Y-106074596D01*
X154254341Y-106309999D01*
X154254341Y-106310000D01*
X154274936Y-106545403D01*
X154274938Y-106545413D01*
X154336094Y-106773655D01*
X154336096Y-106773659D01*
X154336097Y-106773663D01*
X154423221Y-106960500D01*
X154435965Y-106987830D01*
X154435967Y-106987834D01*
X154453853Y-107013377D01*
X154571501Y-107181396D01*
X154571506Y-107181402D01*
X154738597Y-107348493D01*
X154738603Y-107348498D01*
X154924158Y-107478425D01*
X154967783Y-107533002D01*
X154974977Y-107602500D01*
X154943454Y-107664855D01*
X154924158Y-107681575D01*
X154738597Y-107811505D01*
X154571505Y-107978597D01*
X154435965Y-108172169D01*
X154435964Y-108172171D01*
X154336098Y-108386335D01*
X154336094Y-108386344D01*
X154274938Y-108614586D01*
X154274936Y-108614596D01*
X154254341Y-108849999D01*
X154254341Y-108850000D01*
X154274936Y-109085403D01*
X154274938Y-109085413D01*
X154336094Y-109313655D01*
X154336096Y-109313659D01*
X154336097Y-109313663D01*
X154423221Y-109500500D01*
X154435965Y-109527830D01*
X154435967Y-109527834D01*
X154453853Y-109553377D01*
X154571501Y-109721396D01*
X154571506Y-109721402D01*
X154738597Y-109888493D01*
X154738603Y-109888498D01*
X154924158Y-110018425D01*
X154967783Y-110073002D01*
X154974977Y-110142500D01*
X154943454Y-110204855D01*
X154924158Y-110221575D01*
X154738597Y-110351505D01*
X154571505Y-110518597D01*
X154435965Y-110712169D01*
X154435964Y-110712171D01*
X154336098Y-110926335D01*
X154336094Y-110926344D01*
X154274938Y-111154586D01*
X154274936Y-111154596D01*
X154254341Y-111389999D01*
X154254341Y-111390000D01*
X153810500Y-111390000D01*
X153810500Y-88142844D01*
X179410000Y-88142844D01*
X179416401Y-88202372D01*
X179416403Y-88202379D01*
X179466645Y-88337086D01*
X179466649Y-88337093D01*
X179552809Y-88452187D01*
X179552812Y-88452190D01*
X179667906Y-88538350D01*
X179667913Y-88538354D01*
X179802620Y-88588596D01*
X179802627Y-88588598D01*
X179862155Y-88594999D01*
X179862172Y-88595000D01*
X180560000Y-88595000D01*
X180560000Y-87630501D01*
X180667685Y-87679680D01*
X180774237Y-87695000D01*
X180845763Y-87695000D01*
X180952315Y-87679680D01*
X181060000Y-87630501D01*
X181060000Y-88595000D01*
X181757828Y-88595000D01*
X181757844Y-88594999D01*
X181817372Y-88588598D01*
X181817379Y-88588596D01*
X181952086Y-88538354D01*
X181952093Y-88538350D01*
X182067187Y-88452190D01*
X182067190Y-88452187D01*
X182153350Y-88337093D01*
X182153353Y-88337088D01*
X182171678Y-88287955D01*
X182213549Y-88232020D01*
X182279013Y-88207602D01*
X182347286Y-88222453D01*
X182364023Y-88233433D01*
X182541365Y-88371464D01*
X182541371Y-88371468D01*
X182541374Y-88371470D01*
X182745497Y-88481936D01*
X182859487Y-88521068D01*
X182965015Y-88557297D01*
X182965017Y-88557297D01*
X182965019Y-88557298D01*
X183193951Y-88595500D01*
X183193952Y-88595500D01*
X183426048Y-88595500D01*
X183426049Y-88595500D01*
X183654981Y-88557298D01*
X183874503Y-88481936D01*
X184078626Y-88371470D01*
X184261784Y-88228913D01*
X184418979Y-88058153D01*
X184456191Y-88001196D01*
X184509337Y-87955839D01*
X184578569Y-87946415D01*
X184641904Y-87975917D01*
X184663809Y-88001196D01*
X184701016Y-88058147D01*
X184701019Y-88058151D01*
X184701021Y-88058153D01*
X184858216Y-88228913D01*
X184858219Y-88228915D01*
X184858222Y-88228918D01*
X185041365Y-88371464D01*
X185041371Y-88371468D01*
X185041374Y-88371470D01*
X185245497Y-88481936D01*
X185359487Y-88521068D01*
X185465015Y-88557297D01*
X185465017Y-88557297D01*
X185465019Y-88557298D01*
X185693951Y-88595500D01*
X185693952Y-88595500D01*
X185926048Y-88595500D01*
X185926049Y-88595500D01*
X186154981Y-88557298D01*
X186374503Y-88481936D01*
X186578626Y-88371470D01*
X186761784Y-88228913D01*
X186918979Y-88058153D01*
X187045924Y-87863849D01*
X187139157Y-87651300D01*
X187196134Y-87426305D01*
X187196135Y-87426297D01*
X187215300Y-87195006D01*
X187215300Y-87194993D01*
X187196135Y-86963702D01*
X187196133Y-86963691D01*
X187139157Y-86738699D01*
X187045924Y-86526151D01*
X186918983Y-86331852D01*
X186918980Y-86331849D01*
X186918979Y-86331847D01*
X186761784Y-86161087D01*
X186761779Y-86161083D01*
X186761777Y-86161081D01*
X186578634Y-86018535D01*
X186578628Y-86018531D01*
X186374504Y-85908064D01*
X186374495Y-85908061D01*
X186154984Y-85832702D01*
X185967404Y-85801401D01*
X185926049Y-85794500D01*
X185693951Y-85794500D01*
X185652596Y-85801401D01*
X185465015Y-85832702D01*
X185245504Y-85908061D01*
X185245495Y-85908064D01*
X185041371Y-86018531D01*
X185041365Y-86018535D01*
X184858222Y-86161081D01*
X184858219Y-86161084D01*
X184858216Y-86161086D01*
X184858216Y-86161087D01*
X184833785Y-86187627D01*
X184701015Y-86331854D01*
X184663808Y-86388804D01*
X184610662Y-86434161D01*
X184541430Y-86443584D01*
X184478095Y-86414082D01*
X184456192Y-86388804D01*
X184418984Y-86331854D01*
X184418982Y-86331852D01*
X184418979Y-86331847D01*
X184261784Y-86161087D01*
X184261779Y-86161083D01*
X184261777Y-86161081D01*
X184078634Y-86018535D01*
X184078628Y-86018531D01*
X183874504Y-85908064D01*
X183874495Y-85908061D01*
X183654984Y-85832702D01*
X183467404Y-85801401D01*
X183426049Y-85794500D01*
X183193951Y-85794500D01*
X183152596Y-85801401D01*
X182965015Y-85832702D01*
X182745504Y-85908061D01*
X182745495Y-85908064D01*
X182541372Y-86018531D01*
X182364023Y-86156567D01*
X182299029Y-86182209D01*
X182230489Y-86168642D01*
X182180164Y-86120174D01*
X182171679Y-86102045D01*
X182153355Y-86052915D01*
X182153350Y-86052906D01*
X182067190Y-85937812D01*
X182067187Y-85937809D01*
X181952093Y-85851649D01*
X181952086Y-85851645D01*
X181817379Y-85801403D01*
X181817372Y-85801401D01*
X181757844Y-85795000D01*
X181060000Y-85795000D01*
X181060000Y-86759498D01*
X180952315Y-86710320D01*
X180845763Y-86695000D01*
X180774237Y-86695000D01*
X180667685Y-86710320D01*
X180560000Y-86759498D01*
X180560000Y-85795000D01*
X179862155Y-85795000D01*
X179802627Y-85801401D01*
X179802620Y-85801403D01*
X179667913Y-85851645D01*
X179667906Y-85851649D01*
X179552812Y-85937809D01*
X179552809Y-85937812D01*
X179466649Y-86052906D01*
X179466645Y-86052913D01*
X179416403Y-86187620D01*
X179416401Y-86187627D01*
X179410000Y-86247155D01*
X179410000Y-86945000D01*
X180376314Y-86945000D01*
X180350507Y-86985156D01*
X180310000Y-87123111D01*
X180310000Y-87266889D01*
X180350507Y-87404844D01*
X180376314Y-87445000D01*
X179410000Y-87445000D01*
X179410000Y-88142844D01*
X153810500Y-88142844D01*
X153810500Y-80023017D01*
X176649500Y-80023017D01*
X176664403Y-80226615D01*
X176664405Y-80226629D01*
X176723615Y-80492435D01*
X176723618Y-80492442D01*
X176820907Y-80746814D01*
X176954196Y-80984310D01*
X177120645Y-81199868D01*
X177316705Y-81388894D01*
X177316708Y-81388896D01*
X177316709Y-81388897D01*
X177538189Y-81547352D01*
X177538192Y-81547353D01*
X177538198Y-81547358D01*
X177780403Y-81671885D01*
X177780407Y-81671886D01*
X177780411Y-81671888D01*
X178038145Y-81759815D01*
X178038151Y-81759816D01*
X178038159Y-81759819D01*
X178198564Y-81789447D01*
X178305959Y-81809284D01*
X178305961Y-81809284D01*
X178305971Y-81809286D01*
X178523699Y-81817242D01*
X178578129Y-81819232D01*
X178578129Y-81819231D01*
X178578131Y-81819232D01*
X178848839Y-81789446D01*
X179112326Y-81720562D01*
X179362975Y-81614047D01*
X179595444Y-81472173D01*
X179804779Y-81297963D01*
X179986518Y-81095131D01*
X180136788Y-80867998D01*
X180252386Y-80621406D01*
X180330847Y-80360611D01*
X180370500Y-80091171D01*
X180370500Y-80023017D01*
X186249500Y-80023017D01*
X186264403Y-80226615D01*
X186264405Y-80226629D01*
X186323615Y-80492435D01*
X186323618Y-80492442D01*
X186420907Y-80746814D01*
X186554196Y-80984310D01*
X186720645Y-81199868D01*
X186916705Y-81388894D01*
X186916708Y-81388896D01*
X186916709Y-81388897D01*
X187138189Y-81547352D01*
X187138192Y-81547353D01*
X187138198Y-81547358D01*
X187380403Y-81671885D01*
X187380407Y-81671886D01*
X187380411Y-81671888D01*
X187638145Y-81759815D01*
X187638151Y-81759816D01*
X187638159Y-81759819D01*
X187798564Y-81789447D01*
X187905959Y-81809284D01*
X187905961Y-81809284D01*
X187905971Y-81809286D01*
X188123699Y-81817242D01*
X188178129Y-81819232D01*
X188178129Y-81819231D01*
X188178131Y-81819232D01*
X188448839Y-81789446D01*
X188712326Y-81720562D01*
X188962975Y-81614047D01*
X189195444Y-81472173D01*
X189404779Y-81297963D01*
X189586518Y-81095131D01*
X189736788Y-80867998D01*
X189852386Y-80621406D01*
X189930847Y-80360611D01*
X189970500Y-80091171D01*
X189970500Y-79367000D01*
X189955597Y-79163384D01*
X189955594Y-79163370D01*
X189896384Y-78897564D01*
X189896382Y-78897560D01*
X189896382Y-78897558D01*
X189799093Y-78643186D01*
X189665804Y-78405690D01*
X189499355Y-78190132D01*
X189303295Y-78001106D01*
X189303292Y-78001104D01*
X189303290Y-78001102D01*
X189081810Y-77842647D01*
X189081804Y-77842643D01*
X189081802Y-77842642D01*
X188952092Y-77775953D01*
X188839602Y-77718117D01*
X188839588Y-77718111D01*
X188581854Y-77630184D01*
X188581841Y-77630181D01*
X188581836Y-77630180D01*
X188314040Y-77580715D01*
X188314020Y-77580713D01*
X188041870Y-77570767D01*
X187771172Y-77600552D01*
X187771159Y-77600554D01*
X187507679Y-77669436D01*
X187257025Y-77775953D01*
X187024560Y-77917824D01*
X187024550Y-77917831D01*
X186815222Y-78092035D01*
X186633482Y-78294868D01*
X186483213Y-78521999D01*
X186367613Y-78768597D01*
X186289152Y-79029392D01*
X186269847Y-79160568D01*
X186249500Y-79298829D01*
X186249500Y-79298833D01*
X186249500Y-80023017D01*
X180370500Y-80023017D01*
X180370500Y-79367000D01*
X180355597Y-79163384D01*
X180355594Y-79163370D01*
X180296384Y-78897564D01*
X180296382Y-78897560D01*
X180296382Y-78897558D01*
X180199093Y-78643186D01*
X180065804Y-78405690D01*
X179899355Y-78190132D01*
X179703295Y-78001106D01*
X179703292Y-78001104D01*
X179703290Y-78001102D01*
X179481810Y-77842647D01*
X179481804Y-77842643D01*
X179481802Y-77842642D01*
X179352092Y-77775953D01*
X179239602Y-77718117D01*
X179239588Y-77718111D01*
X178981854Y-77630184D01*
X178981841Y-77630181D01*
X178981836Y-77630180D01*
X178714040Y-77580715D01*
X178714020Y-77580713D01*
X178441870Y-77570767D01*
X178171172Y-77600552D01*
X178171159Y-77600554D01*
X177907679Y-77669436D01*
X177657025Y-77775953D01*
X177424560Y-77917824D01*
X177424550Y-77917831D01*
X177215222Y-78092035D01*
X177033482Y-78294868D01*
X176883213Y-78521999D01*
X176767613Y-78768597D01*
X176689152Y-79029392D01*
X176669847Y-79160568D01*
X176649500Y-79298829D01*
X176649500Y-79298833D01*
X176649500Y-80023017D01*
X153810500Y-80023017D01*
X153810500Y-68147844D01*
X159420000Y-68147844D01*
X159426401Y-68207372D01*
X159426403Y-68207379D01*
X159476645Y-68342086D01*
X159476649Y-68342093D01*
X159562809Y-68457187D01*
X159562812Y-68457190D01*
X159677906Y-68543350D01*
X159677913Y-68543354D01*
X159812620Y-68593596D01*
X159812627Y-68593598D01*
X159872155Y-68599999D01*
X159872172Y-68600000D01*
X160570000Y-68600000D01*
X160570000Y-67635501D01*
X160677685Y-67684680D01*
X160784237Y-67700000D01*
X160855763Y-67700000D01*
X160962315Y-67684680D01*
X161070000Y-67635501D01*
X161070000Y-68600000D01*
X161767828Y-68600000D01*
X161767844Y-68599999D01*
X161827372Y-68593598D01*
X161827379Y-68593596D01*
X161962086Y-68543354D01*
X161962093Y-68543350D01*
X162077187Y-68457190D01*
X162077190Y-68457187D01*
X162163350Y-68342093D01*
X162163353Y-68342088D01*
X162179428Y-68298988D01*
X162221299Y-68243053D01*
X162286763Y-68218635D01*
X162355036Y-68233486D01*
X162371773Y-68244465D01*
X162541374Y-68376470D01*
X162745497Y-68486936D01*
X162859487Y-68526068D01*
X162965015Y-68562297D01*
X162965017Y-68562297D01*
X162965019Y-68562298D01*
X163193951Y-68600500D01*
X163193952Y-68600500D01*
X163426048Y-68600500D01*
X163426049Y-68600500D01*
X163654981Y-68562298D01*
X163874503Y-68486936D01*
X164078626Y-68376470D01*
X164261784Y-68233913D01*
X164418979Y-68063153D01*
X164461191Y-67998543D01*
X164514337Y-67953186D01*
X164583569Y-67943762D01*
X164646905Y-67973264D01*
X164668809Y-67998543D01*
X164711016Y-68063147D01*
X164711019Y-68063151D01*
X164711021Y-68063153D01*
X164868216Y-68233913D01*
X164868219Y-68233915D01*
X164868222Y-68233918D01*
X165051365Y-68376464D01*
X165051371Y-68376468D01*
X165051374Y-68376470D01*
X165255497Y-68486936D01*
X165369487Y-68526068D01*
X165475015Y-68562297D01*
X165475017Y-68562297D01*
X165475019Y-68562298D01*
X165703951Y-68600500D01*
X165703952Y-68600500D01*
X165936048Y-68600500D01*
X165936049Y-68600500D01*
X166164981Y-68562298D01*
X166384503Y-68486936D01*
X166588626Y-68376470D01*
X166771784Y-68233913D01*
X166928979Y-68063153D01*
X167055924Y-67868849D01*
X167149157Y-67656300D01*
X167206134Y-67431305D01*
X167206135Y-67431297D01*
X167225300Y-67200006D01*
X167225300Y-67199993D01*
X167206135Y-66968702D01*
X167206133Y-66968691D01*
X167149157Y-66743699D01*
X167055924Y-66531151D01*
X166928983Y-66336852D01*
X166928980Y-66336849D01*
X166928979Y-66336847D01*
X166771784Y-66166087D01*
X166771779Y-66166083D01*
X166771777Y-66166081D01*
X166588634Y-66023535D01*
X166588628Y-66023531D01*
X166384504Y-65913064D01*
X166384495Y-65913061D01*
X166164984Y-65837702D01*
X165977404Y-65806401D01*
X165936049Y-65799500D01*
X165703951Y-65799500D01*
X165662596Y-65806401D01*
X165475015Y-65837702D01*
X165255504Y-65913061D01*
X165255495Y-65913064D01*
X165051371Y-66023531D01*
X165051365Y-66023535D01*
X164868222Y-66166081D01*
X164868219Y-66166084D01*
X164868216Y-66166086D01*
X164868216Y-66166087D01*
X164843785Y-66192627D01*
X164711015Y-66336854D01*
X164668808Y-66401457D01*
X164615662Y-66446814D01*
X164546430Y-66456237D01*
X164483095Y-66426735D01*
X164461192Y-66401457D01*
X164418984Y-66336854D01*
X164418982Y-66336852D01*
X164418979Y-66336847D01*
X164261784Y-66166087D01*
X164261779Y-66166083D01*
X164261777Y-66166081D01*
X164078634Y-66023535D01*
X164078628Y-66023531D01*
X163874504Y-65913064D01*
X163874495Y-65913061D01*
X163654984Y-65837702D01*
X163467404Y-65806401D01*
X163426049Y-65799500D01*
X163193951Y-65799500D01*
X163152596Y-65806401D01*
X162965015Y-65837702D01*
X162745504Y-65913061D01*
X162745495Y-65913064D01*
X162541372Y-66023531D01*
X162371773Y-66155534D01*
X162306779Y-66181176D01*
X162238239Y-66167609D01*
X162187914Y-66119141D01*
X162179429Y-66101012D01*
X162163355Y-66057915D01*
X162163350Y-66057906D01*
X162077190Y-65942812D01*
X162077187Y-65942809D01*
X161962093Y-65856649D01*
X161962086Y-65856645D01*
X161827379Y-65806403D01*
X161827372Y-65806401D01*
X161767844Y-65800000D01*
X161070000Y-65800000D01*
X161070000Y-66764498D01*
X160962315Y-66715320D01*
X160855763Y-66700000D01*
X160784237Y-66700000D01*
X160677685Y-66715320D01*
X160570000Y-66764498D01*
X160570000Y-65800000D01*
X159872155Y-65800000D01*
X159812627Y-65806401D01*
X159812620Y-65806403D01*
X159677913Y-65856645D01*
X159677906Y-65856649D01*
X159562812Y-65942809D01*
X159562809Y-65942812D01*
X159476649Y-66057906D01*
X159476645Y-66057913D01*
X159426403Y-66192620D01*
X159426401Y-66192627D01*
X159420000Y-66252155D01*
X159420000Y-66950000D01*
X160386314Y-66950000D01*
X160360507Y-66990156D01*
X160320000Y-67128111D01*
X160320000Y-67271889D01*
X160360507Y-67409844D01*
X160386314Y-67450000D01*
X159420000Y-67450000D01*
X159420000Y-68147844D01*
X153810500Y-68147844D01*
X153810500Y-60028017D01*
X156659500Y-60028017D01*
X156674403Y-60231615D01*
X156674405Y-60231629D01*
X156733615Y-60497435D01*
X156733618Y-60497442D01*
X156830907Y-60751814D01*
X156964196Y-60989310D01*
X157130645Y-61204868D01*
X157326705Y-61393894D01*
X157326708Y-61393896D01*
X157326709Y-61393897D01*
X157548189Y-61552352D01*
X157548192Y-61552353D01*
X157548198Y-61552358D01*
X157790403Y-61676885D01*
X157790407Y-61676886D01*
X157790411Y-61676888D01*
X158048145Y-61764815D01*
X158048151Y-61764816D01*
X158048159Y-61764819D01*
X158208564Y-61794447D01*
X158315959Y-61814284D01*
X158315961Y-61814284D01*
X158315971Y-61814286D01*
X158533699Y-61822242D01*
X158588129Y-61824232D01*
X158588129Y-61824231D01*
X158588131Y-61824232D01*
X158858839Y-61794446D01*
X159122326Y-61725562D01*
X159372975Y-61619047D01*
X159605444Y-61477173D01*
X159814779Y-61302963D01*
X159996518Y-61100131D01*
X160146788Y-60872998D01*
X160262386Y-60626406D01*
X160340847Y-60365611D01*
X160380500Y-60096171D01*
X160380500Y-60028017D01*
X166259500Y-60028017D01*
X166274403Y-60231615D01*
X166274405Y-60231629D01*
X166333615Y-60497435D01*
X166333618Y-60497442D01*
X166430907Y-60751814D01*
X166564196Y-60989310D01*
X166730645Y-61204868D01*
X166926705Y-61393894D01*
X166926708Y-61393896D01*
X166926709Y-61393897D01*
X167148189Y-61552352D01*
X167148192Y-61552353D01*
X167148198Y-61552358D01*
X167390403Y-61676885D01*
X167390407Y-61676886D01*
X167390411Y-61676888D01*
X167648145Y-61764815D01*
X167648151Y-61764816D01*
X167648159Y-61764819D01*
X167808564Y-61794447D01*
X167915959Y-61814284D01*
X167915961Y-61814284D01*
X167915971Y-61814286D01*
X168133699Y-61822242D01*
X168188129Y-61824232D01*
X168188129Y-61824231D01*
X168188131Y-61824232D01*
X168458839Y-61794446D01*
X168722326Y-61725562D01*
X168972975Y-61619047D01*
X169205444Y-61477173D01*
X169414779Y-61302963D01*
X169596518Y-61100131D01*
X169746788Y-60872998D01*
X169862386Y-60626406D01*
X169940847Y-60365611D01*
X169980500Y-60096171D01*
X169980500Y-59372000D01*
X169965597Y-59168384D01*
X169965594Y-59168370D01*
X169906384Y-58902564D01*
X169906382Y-58902560D01*
X169906382Y-58902558D01*
X169809093Y-58648186D01*
X169675804Y-58410690D01*
X169509355Y-58195132D01*
X169313295Y-58006106D01*
X169313292Y-58006104D01*
X169313290Y-58006102D01*
X169091810Y-57847647D01*
X169091804Y-57847643D01*
X169091802Y-57847642D01*
X168962092Y-57780953D01*
X168849602Y-57723117D01*
X168849588Y-57723111D01*
X168591854Y-57635184D01*
X168591841Y-57635181D01*
X168591836Y-57635180D01*
X168324040Y-57585715D01*
X168324020Y-57585713D01*
X168051870Y-57575767D01*
X167781172Y-57605552D01*
X167781159Y-57605554D01*
X167517679Y-57674436D01*
X167267025Y-57780953D01*
X167034560Y-57922824D01*
X167034550Y-57922831D01*
X166825222Y-58097035D01*
X166643482Y-58299868D01*
X166493213Y-58526999D01*
X166377613Y-58773597D01*
X166299152Y-59034392D01*
X166279847Y-59165568D01*
X166259500Y-59303829D01*
X166259500Y-59303833D01*
X166259500Y-60028017D01*
X160380500Y-60028017D01*
X160380500Y-59372000D01*
X160365597Y-59168384D01*
X160365594Y-59168370D01*
X160306384Y-58902564D01*
X160306382Y-58902560D01*
X160306382Y-58902558D01*
X160209093Y-58648186D01*
X160075804Y-58410690D01*
X159909355Y-58195132D01*
X159713295Y-58006106D01*
X159713292Y-58006104D01*
X159713290Y-58006102D01*
X159491810Y-57847647D01*
X159491804Y-57847643D01*
X159491802Y-57847642D01*
X159362092Y-57780953D01*
X159249602Y-57723117D01*
X159249588Y-57723111D01*
X158991854Y-57635184D01*
X158991841Y-57635181D01*
X158991836Y-57635180D01*
X158724040Y-57585715D01*
X158724020Y-57585713D01*
X158451870Y-57575767D01*
X158181172Y-57605552D01*
X158181159Y-57605554D01*
X157917679Y-57674436D01*
X157667025Y-57780953D01*
X157434560Y-57922824D01*
X157434550Y-57922831D01*
X157225222Y-58097035D01*
X157043482Y-58299868D01*
X156893213Y-58526999D01*
X156777613Y-58773597D01*
X156699152Y-59034392D01*
X156679847Y-59165568D01*
X156659500Y-59303829D01*
X156659500Y-59303833D01*
X156659500Y-60028017D01*
X153810500Y-60028017D01*
X153810500Y-54654500D01*
X153830185Y-54587461D01*
X153882989Y-54541706D01*
X153934500Y-54530500D01*
X192685500Y-54530500D01*
X192752539Y-54550185D01*
G37*
%TD.AperFunction*%
%TD*%
M02*
