M48
; DRILL file {KiCad 7.0.10} date Tuesday, February 20, 2024 at 09:55:07 PM
; FORMAT={-:-/ absolute / inch / decimal}
; #@! TF.CreationDate,2024-02-20T21:55:07-06:00
; #@! TF.GenerationSoftware,Kicad,Pcbnew,7.0.10
; #@! TF.FileFunction,Plated,1,2,PTH
FMAT,2
INCH
; #@! TA.AperFunction,Plated,PTH,ComponentDrill
T1C0.0394
; #@! TA.AperFunction,Plated,PTH,ComponentDrill
T2C0.0433
; #@! TA.AperFunction,Plated,PTH,ComponentDrill
T3C0.0480
; #@! TA.AperFunction,Plated,PTH,ComponentDrill
T4C0.0559
; #@! TA.AperFunction,Plated,PTH,ComponentDrill
T5C0.0563
%
G90
G05
T1
X6.1264Y-4.1854
X6.1264Y-4.2854
X6.1264Y-4.3854
X6.1264Y-4.4854
X6.3315Y-2.6457
X6.4295Y-2.6457
X6.5283Y-2.6457
X7.1185Y-3.4329
X7.2169Y-3.4329
X7.3154Y-3.4329
X7.522Y-5.713
X7.522Y-5.813
X7.522Y-5.913
X7.522Y-6.013
T3
X6.3921Y-5.0039
X6.3921Y-5.5728
X6.8232Y-5.0039
X6.8232Y-5.5728
X7.2543Y-5.0039
X7.2543Y-5.5728
T4
X6.3921Y-5.126
X6.3921Y-5.6949
X6.8232Y-5.126
X6.8232Y-5.6949
X7.2543Y-5.126
X7.2543Y-5.6949
T5
X6.3921Y-5.4528
X6.3921Y-6.0217
X6.8232Y-5.4528
X6.8232Y-6.0217
X7.2543Y-5.4528
X7.2543Y-6.0217
T2
G00X6.2409Y-2.3642
M15
G01X6.2409Y-2.3366
M16
G05
G00X6.6189Y-2.3642
M15
G01X6.6189Y-2.3366
M16
G05
G00X7.028Y-3.1514
M15
G01X7.028Y-3.1238
M16
G05
G00X7.4059Y-3.1514
M15
G01X7.4059Y-3.1238
M16
G05
M30
