%TF.GenerationSoftware,KiCad,Pcbnew,7.0.10*%
%TF.CreationDate,2024-02-20T22:02:21-06:00*%
%TF.ProjectId,3340_VCO,33333430-5f56-4434-9f2e-6b696361645f,rev?*%
%TF.SameCoordinates,Original*%
%TF.FileFunction,Legend,Bot*%
%TF.FilePolarity,Positive*%
%FSLAX46Y46*%
G04 Gerber Fmt 4.6, Leading zero omitted, Abs format (unit mm)*
G04 Created by KiCad (PCBNEW 7.0.10) date 2024-02-20 22:02:21*
%MOMM*%
%LPD*%
G01*
G04 APERTURE LIST*
%ADD10C,0.150000*%
G04 APERTURE END LIST*
D10*
X79507506Y-149883819D02*
X79507506Y-150598104D01*
X79507506Y-150598104D02*
X79555125Y-150740961D01*
X79555125Y-150740961D02*
X79650363Y-150836200D01*
X79650363Y-150836200D02*
X79793220Y-150883819D01*
X79793220Y-150883819D02*
X79888458Y-150883819D01*
X78555125Y-150883819D02*
X79031315Y-150883819D01*
X79031315Y-150883819D02*
X79031315Y-149883819D01*
X77650363Y-150788580D02*
X77697982Y-150836200D01*
X77697982Y-150836200D02*
X77840839Y-150883819D01*
X77840839Y-150883819D02*
X77936077Y-150883819D01*
X77936077Y-150883819D02*
X78078934Y-150836200D01*
X78078934Y-150836200D02*
X78174172Y-150740961D01*
X78174172Y-150740961D02*
X78221791Y-150645723D01*
X78221791Y-150645723D02*
X78269410Y-150455247D01*
X78269410Y-150455247D02*
X78269410Y-150312390D01*
X78269410Y-150312390D02*
X78221791Y-150121914D01*
X78221791Y-150121914D02*
X78174172Y-150026676D01*
X78174172Y-150026676D02*
X78078934Y-149931438D01*
X78078934Y-149931438D02*
X77936077Y-149883819D01*
X77936077Y-149883819D02*
X77840839Y-149883819D01*
X77840839Y-149883819D02*
X77697982Y-149931438D01*
X77697982Y-149931438D02*
X77650363Y-149979057D01*
X76936077Y-149883819D02*
X76936077Y-150598104D01*
X76936077Y-150598104D02*
X76983696Y-150740961D01*
X76983696Y-150740961D02*
X77078934Y-150836200D01*
X77078934Y-150836200D02*
X77221791Y-150883819D01*
X77221791Y-150883819D02*
X77317029Y-150883819D01*
X75983696Y-150883819D02*
X76459886Y-150883819D01*
X76459886Y-150883819D02*
X76459886Y-149883819D01*
X75078934Y-150788580D02*
X75126553Y-150836200D01*
X75126553Y-150836200D02*
X75269410Y-150883819D01*
X75269410Y-150883819D02*
X75364648Y-150883819D01*
X75364648Y-150883819D02*
X75507505Y-150836200D01*
X75507505Y-150836200D02*
X75602743Y-150740961D01*
X75602743Y-150740961D02*
X75650362Y-150645723D01*
X75650362Y-150645723D02*
X75697981Y-150455247D01*
X75697981Y-150455247D02*
X75697981Y-150312390D01*
X75697981Y-150312390D02*
X75650362Y-150121914D01*
X75650362Y-150121914D02*
X75602743Y-150026676D01*
X75602743Y-150026676D02*
X75507505Y-149931438D01*
X75507505Y-149931438D02*
X75364648Y-149883819D01*
X75364648Y-149883819D02*
X75269410Y-149883819D01*
X75269410Y-149883819D02*
X75126553Y-149931438D01*
X75126553Y-149931438D02*
X75078934Y-149979057D01*
X74364648Y-149883819D02*
X74364648Y-150598104D01*
X74364648Y-150598104D02*
X74412267Y-150740961D01*
X74412267Y-150740961D02*
X74507505Y-150836200D01*
X74507505Y-150836200D02*
X74650362Y-150883819D01*
X74650362Y-150883819D02*
X74745600Y-150883819D01*
X73412267Y-150883819D02*
X73888457Y-150883819D01*
X73888457Y-150883819D02*
X73888457Y-149883819D01*
X72507505Y-150788580D02*
X72555124Y-150836200D01*
X72555124Y-150836200D02*
X72697981Y-150883819D01*
X72697981Y-150883819D02*
X72793219Y-150883819D01*
X72793219Y-150883819D02*
X72936076Y-150836200D01*
X72936076Y-150836200D02*
X73031314Y-150740961D01*
X73031314Y-150740961D02*
X73078933Y-150645723D01*
X73078933Y-150645723D02*
X73126552Y-150455247D01*
X73126552Y-150455247D02*
X73126552Y-150312390D01*
X73126552Y-150312390D02*
X73078933Y-150121914D01*
X73078933Y-150121914D02*
X73031314Y-150026676D01*
X73031314Y-150026676D02*
X72936076Y-149931438D01*
X72936076Y-149931438D02*
X72793219Y-149883819D01*
X72793219Y-149883819D02*
X72697981Y-149883819D01*
X72697981Y-149883819D02*
X72555124Y-149931438D01*
X72555124Y-149931438D02*
X72507505Y-149979057D01*
X71793219Y-149883819D02*
X71793219Y-150598104D01*
X71793219Y-150598104D02*
X71840838Y-150740961D01*
X71840838Y-150740961D02*
X71936076Y-150836200D01*
X71936076Y-150836200D02*
X72078933Y-150883819D01*
X72078933Y-150883819D02*
X72174171Y-150883819D01*
X70840838Y-150883819D02*
X71317028Y-150883819D01*
X71317028Y-150883819D02*
X71317028Y-149883819D01*
X69936076Y-150788580D02*
X69983695Y-150836200D01*
X69983695Y-150836200D02*
X70126552Y-150883819D01*
X70126552Y-150883819D02*
X70221790Y-150883819D01*
X70221790Y-150883819D02*
X70364647Y-150836200D01*
X70364647Y-150836200D02*
X70459885Y-150740961D01*
X70459885Y-150740961D02*
X70507504Y-150645723D01*
X70507504Y-150645723D02*
X70555123Y-150455247D01*
X70555123Y-150455247D02*
X70555123Y-150312390D01*
X70555123Y-150312390D02*
X70507504Y-150121914D01*
X70507504Y-150121914D02*
X70459885Y-150026676D01*
X70459885Y-150026676D02*
X70364647Y-149931438D01*
X70364647Y-149931438D02*
X70221790Y-149883819D01*
X70221790Y-149883819D02*
X70126552Y-149883819D01*
X70126552Y-149883819D02*
X69983695Y-149931438D01*
X69983695Y-149931438D02*
X69936076Y-149979057D01*
X69221790Y-149883819D02*
X69221790Y-150598104D01*
X69221790Y-150598104D02*
X69269409Y-150740961D01*
X69269409Y-150740961D02*
X69364647Y-150836200D01*
X69364647Y-150836200D02*
X69507504Y-150883819D01*
X69507504Y-150883819D02*
X69602742Y-150883819D01*
X68269409Y-150883819D02*
X68745599Y-150883819D01*
X68745599Y-150883819D02*
X68745599Y-149883819D01*
X67364647Y-150788580D02*
X67412266Y-150836200D01*
X67412266Y-150836200D02*
X67555123Y-150883819D01*
X67555123Y-150883819D02*
X67650361Y-150883819D01*
X67650361Y-150883819D02*
X67793218Y-150836200D01*
X67793218Y-150836200D02*
X67888456Y-150740961D01*
X67888456Y-150740961D02*
X67936075Y-150645723D01*
X67936075Y-150645723D02*
X67983694Y-150455247D01*
X67983694Y-150455247D02*
X67983694Y-150312390D01*
X67983694Y-150312390D02*
X67936075Y-150121914D01*
X67936075Y-150121914D02*
X67888456Y-150026676D01*
X67888456Y-150026676D02*
X67793218Y-149931438D01*
X67793218Y-149931438D02*
X67650361Y-149883819D01*
X67650361Y-149883819D02*
X67555123Y-149883819D01*
X67555123Y-149883819D02*
X67412266Y-149931438D01*
X67412266Y-149931438D02*
X67364647Y-149979057D01*
M02*
