%TF.GenerationSoftware,KiCad,Pcbnew,7.0.10*%
%TF.CreationDate,2024-02-20T22:03:04-06:00*%
%TF.ProjectId,3340_VCO,33333430-5f56-4434-9f2e-6b696361645f,rev?*%
%TF.SameCoordinates,Original*%
%TF.FileFunction,Copper,L2,Bot*%
%TF.FilePolarity,Positive*%
%FSLAX46Y46*%
G04 Gerber Fmt 4.6, Leading zero omitted, Abs format (unit mm)*
G04 Created by KiCad (PCBNEW 7.0.10) date 2024-02-20 22:03:04*
%MOMM*%
%LPD*%
G01*
G04 APERTURE LIST*
%TA.AperFunction,ComponentPad*%
%ADD10R,1.930000X1.830000*%
%TD*%
%TA.AperFunction,ComponentPad*%
%ADD11C,2.130000*%
%TD*%
%TA.AperFunction,ComponentPad*%
%ADD12O,2.720000X3.240000*%
%TD*%
%TA.AperFunction,ComponentPad*%
%ADD13R,1.800000X1.800000*%
%TD*%
%TA.AperFunction,ComponentPad*%
%ADD14C,1.800000*%
%TD*%
%TA.AperFunction,ComponentPad*%
%ADD15R,1.700000X1.700000*%
%TD*%
%TA.AperFunction,ComponentPad*%
%ADD16O,1.700000X1.700000*%
%TD*%
%TA.AperFunction,ViaPad*%
%ADD17C,0.800000*%
%TD*%
%TA.AperFunction,Conductor*%
%ADD18C,0.500000*%
%TD*%
%TA.AperFunction,Conductor*%
%ADD19C,0.300000*%
%TD*%
G04 APERTURE END LIST*
D10*
%TO.P,J6,S*%
%TO.N,GND*%
X167700000Y-104270000D03*
D11*
%TO.P,J6,T*%
%TO.N,/voct_b*%
X167700000Y-115670000D03*
%TO.P,J6,TN*%
%TO.N,unconnected-(J6-PadTN)*%
X167700000Y-107370000D03*
%TD*%
D10*
%TO.P,J4,S*%
%TO.N,GND*%
X178650000Y-118720000D03*
D11*
%TO.P,J4,T*%
%TO.N,/sync_b*%
X178650000Y-130120000D03*
%TO.P,J4,TN*%
%TO.N,unconnected-(J4-PadTN)*%
X178650000Y-121820000D03*
%TD*%
D12*
%TO.P,RV6,*%
%TO.N,*%
X164350000Y-91325000D03*
X173950000Y-91325000D03*
D13*
%TO.P,RV6,1,1*%
%TO.N,GND*%
X166650000Y-98825000D03*
D14*
%TO.P,RV6,2,2*%
%TO.N,/cvmod_b*%
X169150000Y-98825000D03*
%TO.P,RV6,3,3*%
%TO.N,Net-(J8-PadT)*%
X171650000Y-98825000D03*
%TD*%
D10*
%TO.P,J1,S*%
%TO.N,GND*%
X189600000Y-104270000D03*
D11*
%TO.P,J1,T*%
%TO.N,Net-(J1-PadT)*%
X189600000Y-115670000D03*
%TO.P,J1,TN*%
%TO.N,unconnected-(J1-PadTN)*%
X189600000Y-107370000D03*
%TD*%
D10*
%TO.P,J2,S*%
%TO.N,GND*%
X189600000Y-118720000D03*
D11*
%TO.P,J2,T*%
%TO.N,Net-(J2-PadT)*%
X189600000Y-130120000D03*
%TO.P,J2,TN*%
%TO.N,+5V*%
X189600000Y-121820000D03*
%TD*%
D12*
%TO.P,RV4,*%
%TO.N,*%
X173850000Y-51325000D03*
X183450000Y-51325000D03*
D13*
%TO.P,RV4,1,1*%
%TO.N,GND*%
X176150000Y-58825000D03*
D14*
%TO.P,RV4,2,2*%
%TO.N,/coarse2_b*%
X178650000Y-58825000D03*
%TO.P,RV4,3,3*%
%TO.N,/coarse3_b*%
X181150000Y-58825000D03*
%TD*%
D12*
%TO.P,RV5,*%
%TO.N,*%
X164350000Y-71325000D03*
X173950000Y-71325000D03*
D13*
%TO.P,RV5,1,1*%
%TO.N,GND*%
X166650000Y-78825000D03*
D14*
%TO.P,RV5,2,2*%
%TO.N,/fine2_b*%
X169150000Y-78825000D03*
%TO.P,RV5,3,3*%
%TO.N,/fine3_b*%
X171650000Y-78825000D03*
%TD*%
D12*
%TO.P,RV3,*%
%TO.N,*%
X183350000Y-91325000D03*
X192950000Y-91325000D03*
D13*
%TO.P,RV3,1,1*%
%TO.N,GND*%
X185650000Y-98825000D03*
D14*
%TO.P,RV3,2,2*%
%TO.N,/pwm_b*%
X188150000Y-98825000D03*
%TO.P,RV3,3,3*%
%TO.N,Net-(J2-PadT)*%
X190650000Y-98825000D03*
%TD*%
D10*
%TO.P,J3,S*%
%TO.N,GND*%
X167700000Y-133170000D03*
D11*
%TO.P,J3,T*%
%TO.N,/pulse_b*%
X167700000Y-144570000D03*
%TO.P,J3,TN*%
%TO.N,unconnected-(J3-PadTN)*%
X167700000Y-136270000D03*
%TD*%
D10*
%TO.P,J9,S*%
%TO.N,GND*%
X189600000Y-133170000D03*
D11*
%TO.P,J9,T*%
%TO.N,/tri_b*%
X189600000Y-144570000D03*
%TO.P,J9,TN*%
%TO.N,unconnected-(J9-PadTN)*%
X189600000Y-136270000D03*
%TD*%
D10*
%TO.P,J5,S*%
%TO.N,GND*%
X178650000Y-133170000D03*
D11*
%TO.P,J5,T*%
%TO.N,/saw_b*%
X178650000Y-144570000D03*
%TO.P,J5,TN*%
%TO.N,unconnected-(J5-PadTN)*%
X178650000Y-136270000D03*
%TD*%
D10*
%TO.P,J8,S*%
%TO.N,GND*%
X167700000Y-118720000D03*
D11*
%TO.P,J8,T*%
%TO.N,Net-(J8-PadT)*%
X167700000Y-130120000D03*
%TO.P,J8,TN*%
%TO.N,unconnected-(J8-PadTN)*%
X167700000Y-121820000D03*
%TD*%
D12*
%TO.P,RV2,*%
%TO.N,*%
X183350000Y-71325000D03*
X192950000Y-71325000D03*
D13*
%TO.P,RV2,1,1*%
%TO.N,GND*%
X185650000Y-78825000D03*
D14*
%TO.P,RV2,2,2*%
%TO.N,/linfm_b*%
X188150000Y-78825000D03*
%TO.P,RV2,3,3*%
%TO.N,Net-(J1-PadT)*%
X190650000Y-78825000D03*
%TD*%
D15*
%TO.P,J13,1,Pin_1*%
%TO.N,+5V*%
X196350000Y-129150000D03*
D16*
%TO.P,J13,2,Pin_2*%
%TO.N,/pwm_b*%
X196350000Y-131690000D03*
%TO.P,J13,3,Pin_3*%
%TO.N,/sync_b*%
X196350000Y-134230000D03*
%TO.P,J13,4,Pin_4*%
%TO.N,/pulse_b*%
X196350000Y-136770000D03*
%TO.P,J13,5,Pin_5*%
%TO.N,/saw_b*%
X196350000Y-139310000D03*
%TO.P,J13,6,Pin_6*%
%TO.N,/tri_b*%
X196350000Y-141850000D03*
%TO.P,J13,7,Pin_7*%
%TO.N,GND*%
X196350000Y-144390000D03*
%TD*%
D15*
%TO.P,J10,1,Pin_1*%
%TO.N,/coarse2_b*%
X160900000Y-87950000D03*
D16*
%TO.P,J10,2,Pin_2*%
%TO.N,/coarse3_b*%
X160900000Y-90490000D03*
%TO.P,J10,3,Pin_3*%
%TO.N,/fine2_b*%
X160900000Y-93030000D03*
%TO.P,J10,4,Pin_4*%
%TO.N,/fine3_b*%
X160900000Y-95570000D03*
%TO.P,J10,5,Pin_5*%
%TO.N,/linfm_b*%
X160900000Y-98110000D03*
%TO.P,J10,6,Pin_6*%
%TO.N,/cvmod_b*%
X160900000Y-100650000D03*
%TO.P,J10,7,Pin_7*%
%TO.N,/voct_b*%
X160900000Y-103190000D03*
%TD*%
D17*
%TO.N,GND*%
X175700000Y-144300000D03*
X186400000Y-144300000D03*
%TD*%
D18*
%TO.N,+5V*%
X190480000Y-121820000D02*
X189600000Y-121820000D01*
X196350000Y-129150000D02*
X196350000Y-127690000D01*
X196350000Y-127690000D02*
X190480000Y-121820000D01*
D19*
%TO.N,Net-(J1-PadT)*%
X195780000Y-109490000D02*
X195780000Y-83955000D01*
X189600000Y-115670000D02*
X195780000Y-109490000D01*
X195780000Y-83955000D02*
X190650000Y-78825000D01*
%TD*%
%TA.AperFunction,Conductor*%
%TO.N,GND*%
G36*
X198092539Y-46170185D02*
G01*
X198138294Y-46222989D01*
X198149500Y-46274500D01*
X198149500Y-146025500D01*
X198129815Y-146092539D01*
X198077011Y-146138294D01*
X198025500Y-146149500D01*
X190458342Y-146149500D01*
X190391303Y-146129815D01*
X190345548Y-146077011D01*
X190335604Y-146007853D01*
X190364629Y-145944297D01*
X190393548Y-145919774D01*
X190523023Y-145840433D01*
X190710399Y-145680399D01*
X190870433Y-145493023D01*
X190999184Y-145282920D01*
X191093483Y-145055262D01*
X191151007Y-144815655D01*
X191170341Y-144570000D01*
X191151007Y-144324345D01*
X191093483Y-144084738D01*
X190999184Y-143857080D01*
X190999184Y-143857079D01*
X190870436Y-143646981D01*
X190870435Y-143646979D01*
X190761062Y-143518920D01*
X190710399Y-143459601D01*
X190584285Y-143351890D01*
X190523020Y-143299564D01*
X190523018Y-143299563D01*
X190312920Y-143170815D01*
X190085264Y-143076517D01*
X189845658Y-143018993D01*
X189600000Y-142999659D01*
X189354341Y-143018993D01*
X189114735Y-143076517D01*
X188887079Y-143170815D01*
X188676981Y-143299563D01*
X188676979Y-143299564D01*
X188489601Y-143459601D01*
X188329564Y-143646979D01*
X188329563Y-143646981D01*
X188200815Y-143857079D01*
X188106517Y-144084735D01*
X188048993Y-144324341D01*
X188029659Y-144570000D01*
X188048993Y-144815658D01*
X188106517Y-145055264D01*
X188200815Y-145282920D01*
X188329563Y-145493018D01*
X188329564Y-145493020D01*
X188329567Y-145493023D01*
X188489601Y-145680399D01*
X188676977Y-145840433D01*
X188806449Y-145919773D01*
X188853323Y-145971584D01*
X188864746Y-146040514D01*
X188837089Y-146104677D01*
X188779133Y-146143701D01*
X188741658Y-146149500D01*
X179508342Y-146149500D01*
X179441303Y-146129815D01*
X179395548Y-146077011D01*
X179385604Y-146007853D01*
X179414629Y-145944297D01*
X179443548Y-145919774D01*
X179573023Y-145840433D01*
X179760399Y-145680399D01*
X179920433Y-145493023D01*
X180049184Y-145282920D01*
X180143483Y-145055262D01*
X180201007Y-144815655D01*
X180220341Y-144570000D01*
X180201007Y-144324345D01*
X180143483Y-144084738D01*
X180049184Y-143857080D01*
X180049184Y-143857079D01*
X179920436Y-143646981D01*
X179920435Y-143646979D01*
X179811062Y-143518920D01*
X179760399Y-143459601D01*
X179634285Y-143351890D01*
X179573020Y-143299564D01*
X179573018Y-143299563D01*
X179362920Y-143170815D01*
X179135264Y-143076517D01*
X178895658Y-143018993D01*
X178650000Y-142999659D01*
X178404341Y-143018993D01*
X178164735Y-143076517D01*
X177937079Y-143170815D01*
X177726981Y-143299563D01*
X177726979Y-143299564D01*
X177539601Y-143459601D01*
X177379564Y-143646979D01*
X177379563Y-143646981D01*
X177250815Y-143857079D01*
X177156517Y-144084735D01*
X177098993Y-144324341D01*
X177079659Y-144570000D01*
X177098993Y-144815658D01*
X177156517Y-145055264D01*
X177250815Y-145282920D01*
X177379563Y-145493018D01*
X177379564Y-145493020D01*
X177379567Y-145493023D01*
X177539601Y-145680399D01*
X177726977Y-145840433D01*
X177856449Y-145919773D01*
X177903323Y-145971584D01*
X177914746Y-146040514D01*
X177887089Y-146104677D01*
X177829133Y-146143701D01*
X177791658Y-146149500D01*
X168558342Y-146149500D01*
X168491303Y-146129815D01*
X168445548Y-146077011D01*
X168435604Y-146007853D01*
X168464629Y-145944297D01*
X168493548Y-145919774D01*
X168623023Y-145840433D01*
X168810399Y-145680399D01*
X168970433Y-145493023D01*
X169099184Y-145282920D01*
X169193483Y-145055262D01*
X169251007Y-144815655D01*
X169270341Y-144570000D01*
X169251007Y-144324345D01*
X169193483Y-144084738D01*
X169099184Y-143857080D01*
X169099184Y-143857079D01*
X168970436Y-143646981D01*
X168970435Y-143646979D01*
X168861062Y-143518920D01*
X168810399Y-143459601D01*
X168684285Y-143351890D01*
X168623020Y-143299564D01*
X168623018Y-143299563D01*
X168412920Y-143170815D01*
X168185264Y-143076517D01*
X167945658Y-143018993D01*
X167700000Y-142999659D01*
X167454341Y-143018993D01*
X167214735Y-143076517D01*
X166987079Y-143170815D01*
X166776981Y-143299563D01*
X166776979Y-143299564D01*
X166589601Y-143459601D01*
X166429564Y-143646979D01*
X166429563Y-143646981D01*
X166300815Y-143857079D01*
X166206517Y-144084735D01*
X166148993Y-144324341D01*
X166129659Y-144570000D01*
X166148993Y-144815658D01*
X166206517Y-145055264D01*
X166300815Y-145282920D01*
X166429563Y-145493018D01*
X166429564Y-145493020D01*
X166429567Y-145493023D01*
X166589601Y-145680399D01*
X166776977Y-145840433D01*
X166906449Y-145919773D01*
X166953323Y-145971584D01*
X166964746Y-146040514D01*
X166937089Y-146104677D01*
X166879133Y-146143701D01*
X166841658Y-146149500D01*
X159274500Y-146149500D01*
X159207461Y-146129815D01*
X159161706Y-146077011D01*
X159150500Y-146025500D01*
X159150500Y-136270000D01*
X166129659Y-136270000D01*
X166148993Y-136515658D01*
X166206517Y-136755264D01*
X166300815Y-136982920D01*
X166429563Y-137193018D01*
X166429564Y-137193020D01*
X166483795Y-137256516D01*
X166589601Y-137380399D01*
X166734648Y-137504280D01*
X166776979Y-137540435D01*
X166776981Y-137540436D01*
X166987079Y-137669184D01*
X167214735Y-137763482D01*
X167214736Y-137763482D01*
X167214738Y-137763483D01*
X167454345Y-137821007D01*
X167700000Y-137840341D01*
X167945655Y-137821007D01*
X168185262Y-137763483D01*
X168412920Y-137669184D01*
X168623023Y-137540433D01*
X168810399Y-137380399D01*
X168970433Y-137193023D01*
X169099184Y-136982920D01*
X169193483Y-136755262D01*
X169251007Y-136515655D01*
X169270341Y-136270000D01*
X177079659Y-136270000D01*
X177098993Y-136515658D01*
X177156517Y-136755264D01*
X177250815Y-136982920D01*
X177379563Y-137193018D01*
X177379564Y-137193020D01*
X177433795Y-137256516D01*
X177539601Y-137380399D01*
X177684648Y-137504280D01*
X177726979Y-137540435D01*
X177726981Y-137540436D01*
X177937079Y-137669184D01*
X178164735Y-137763482D01*
X178164736Y-137763482D01*
X178164738Y-137763483D01*
X178404345Y-137821007D01*
X178650000Y-137840341D01*
X178895655Y-137821007D01*
X179135262Y-137763483D01*
X179362920Y-137669184D01*
X179573023Y-137540433D01*
X179760399Y-137380399D01*
X179920433Y-137193023D01*
X180049184Y-136982920D01*
X180143483Y-136755262D01*
X180201007Y-136515655D01*
X180220341Y-136270000D01*
X188029659Y-136270000D01*
X188048993Y-136515658D01*
X188106517Y-136755264D01*
X188200815Y-136982920D01*
X188329563Y-137193018D01*
X188329564Y-137193020D01*
X188383795Y-137256516D01*
X188489601Y-137380399D01*
X188634648Y-137504280D01*
X188676979Y-137540435D01*
X188676981Y-137540436D01*
X188887079Y-137669184D01*
X189114735Y-137763482D01*
X189114736Y-137763482D01*
X189114738Y-137763483D01*
X189354345Y-137821007D01*
X189600000Y-137840341D01*
X189845655Y-137821007D01*
X190085262Y-137763483D01*
X190312920Y-137669184D01*
X190523023Y-137540433D01*
X190710399Y-137380399D01*
X190870433Y-137193023D01*
X190999184Y-136982920D01*
X191093483Y-136755262D01*
X191151007Y-136515655D01*
X191170341Y-136270000D01*
X191151007Y-136024345D01*
X191093483Y-135784738D01*
X191071432Y-135731501D01*
X190999184Y-135557079D01*
X190870436Y-135346981D01*
X190870435Y-135346979D01*
X190834280Y-135304648D01*
X190710399Y-135159601D01*
X190586516Y-135053795D01*
X190523020Y-134999564D01*
X190523018Y-134999563D01*
X190312919Y-134870815D01*
X190312920Y-134870815D01*
X190198838Y-134823561D01*
X190144435Y-134779720D01*
X190122370Y-134713426D01*
X190139649Y-134645726D01*
X190190787Y-134598116D01*
X190246291Y-134585000D01*
X190612828Y-134585000D01*
X190612844Y-134584999D01*
X190672372Y-134578598D01*
X190672379Y-134578596D01*
X190807086Y-134528354D01*
X190807093Y-134528350D01*
X190922187Y-134442190D01*
X190922190Y-134442187D01*
X191008350Y-134327093D01*
X191008354Y-134327086D01*
X191058596Y-134192379D01*
X191058598Y-134192372D01*
X191064999Y-134132844D01*
X191065000Y-134132827D01*
X191065000Y-133420000D01*
X190156520Y-133420000D01*
X190184755Y-133359998D01*
X190213635Y-133208607D01*
X190203957Y-133054789D01*
X190160162Y-132920000D01*
X191065000Y-132920000D01*
X191065000Y-132207172D01*
X191064999Y-132207155D01*
X191058598Y-132147627D01*
X191058596Y-132147620D01*
X191008354Y-132012913D01*
X191008350Y-132012906D01*
X190922190Y-131897812D01*
X190922187Y-131897809D01*
X190807093Y-131811649D01*
X190807086Y-131811645D01*
X190672379Y-131761403D01*
X190672372Y-131761401D01*
X190612844Y-131755000D01*
X190366603Y-131755000D01*
X190299564Y-131735315D01*
X190253809Y-131682511D01*
X190243865Y-131613353D01*
X190272890Y-131549797D01*
X190310305Y-131520517D01*
X190312914Y-131519186D01*
X190312920Y-131519184D01*
X190523023Y-131390433D01*
X190710399Y-131230399D01*
X190870433Y-131043023D01*
X190999184Y-130832920D01*
X191093483Y-130605262D01*
X191151007Y-130365655D01*
X191170341Y-130120000D01*
X191151007Y-129874345D01*
X191093483Y-129634738D01*
X190999184Y-129407080D01*
X190999184Y-129407079D01*
X190870436Y-129196981D01*
X190870435Y-129196979D01*
X190834280Y-129154648D01*
X190710399Y-129009601D01*
X190586516Y-128903795D01*
X190523020Y-128849564D01*
X190523018Y-128849563D01*
X190312920Y-128720815D01*
X190085264Y-128626517D01*
X189845658Y-128568993D01*
X189600000Y-128549659D01*
X189354341Y-128568993D01*
X189114735Y-128626517D01*
X188887079Y-128720815D01*
X188676981Y-128849563D01*
X188676979Y-128849564D01*
X188489601Y-129009601D01*
X188329564Y-129196979D01*
X188329563Y-129196981D01*
X188200815Y-129407079D01*
X188106517Y-129634735D01*
X188048993Y-129874341D01*
X188029659Y-130120000D01*
X188048993Y-130365658D01*
X188106517Y-130605264D01*
X188200815Y-130832920D01*
X188329563Y-131043018D01*
X188329564Y-131043020D01*
X188329567Y-131043023D01*
X188489601Y-131230399D01*
X188634648Y-131354280D01*
X188676979Y-131390435D01*
X188676981Y-131390436D01*
X188887080Y-131519184D01*
X188889695Y-131520517D01*
X188890508Y-131521285D01*
X188891234Y-131521730D01*
X188891140Y-131521882D01*
X188940490Y-131568493D01*
X188957283Y-131636314D01*
X188934743Y-131702449D01*
X188880027Y-131745898D01*
X188833397Y-131755000D01*
X188587155Y-131755000D01*
X188527627Y-131761401D01*
X188527620Y-131761403D01*
X188392913Y-131811645D01*
X188392906Y-131811649D01*
X188277812Y-131897809D01*
X188277809Y-131897812D01*
X188191649Y-132012906D01*
X188191645Y-132012913D01*
X188141403Y-132147620D01*
X188141401Y-132147627D01*
X188135000Y-132207155D01*
X188135000Y-132920000D01*
X189043480Y-132920000D01*
X189015245Y-132980002D01*
X188986365Y-133131393D01*
X188996043Y-133285211D01*
X189039838Y-133420000D01*
X188135000Y-133420000D01*
X188135000Y-134132844D01*
X188141401Y-134192372D01*
X188141403Y-134192379D01*
X188191645Y-134327086D01*
X188191649Y-134327093D01*
X188277809Y-134442187D01*
X188277812Y-134442190D01*
X188392906Y-134528350D01*
X188392913Y-134528354D01*
X188527620Y-134578596D01*
X188527627Y-134578598D01*
X188587155Y-134584999D01*
X188587172Y-134585000D01*
X188953709Y-134585000D01*
X189020748Y-134604685D01*
X189066503Y-134657489D01*
X189076447Y-134726647D01*
X189047422Y-134790203D01*
X189001162Y-134823561D01*
X188887079Y-134870815D01*
X188676981Y-134999563D01*
X188676979Y-134999564D01*
X188489601Y-135159601D01*
X188329564Y-135346979D01*
X188329563Y-135346981D01*
X188200815Y-135557079D01*
X188106517Y-135784735D01*
X188048993Y-136024341D01*
X188029659Y-136270000D01*
X180220341Y-136270000D01*
X180201007Y-136024345D01*
X180143483Y-135784738D01*
X180121432Y-135731501D01*
X180049184Y-135557079D01*
X179920436Y-135346981D01*
X179920435Y-135346979D01*
X179884280Y-135304648D01*
X179760399Y-135159601D01*
X179636516Y-135053795D01*
X179573020Y-134999564D01*
X179573018Y-134999563D01*
X179362919Y-134870815D01*
X179362920Y-134870815D01*
X179248838Y-134823561D01*
X179194435Y-134779720D01*
X179172370Y-134713426D01*
X179189649Y-134645726D01*
X179240787Y-134598116D01*
X179296291Y-134585000D01*
X179662828Y-134585000D01*
X179662844Y-134584999D01*
X179722372Y-134578598D01*
X179722379Y-134578596D01*
X179857086Y-134528354D01*
X179857093Y-134528350D01*
X179972187Y-134442190D01*
X179972190Y-134442187D01*
X180058350Y-134327093D01*
X180058354Y-134327086D01*
X180108596Y-134192379D01*
X180108598Y-134192372D01*
X180114999Y-134132844D01*
X180115000Y-134132827D01*
X180115000Y-133420000D01*
X179206520Y-133420000D01*
X179234755Y-133359998D01*
X179263635Y-133208607D01*
X179253957Y-133054789D01*
X179210162Y-132920000D01*
X180115000Y-132920000D01*
X180115000Y-132207172D01*
X180114999Y-132207155D01*
X180108598Y-132147627D01*
X180108596Y-132147620D01*
X180058354Y-132012913D01*
X180058350Y-132012906D01*
X179972190Y-131897812D01*
X179972187Y-131897809D01*
X179857093Y-131811649D01*
X179857086Y-131811645D01*
X179722379Y-131761403D01*
X179722372Y-131761401D01*
X179662844Y-131755000D01*
X179416603Y-131755000D01*
X179349564Y-131735315D01*
X179303809Y-131682511D01*
X179293865Y-131613353D01*
X179322890Y-131549797D01*
X179360305Y-131520517D01*
X179362914Y-131519186D01*
X179362920Y-131519184D01*
X179573023Y-131390433D01*
X179760399Y-131230399D01*
X179920433Y-131043023D01*
X180049184Y-130832920D01*
X180143483Y-130605262D01*
X180201007Y-130365655D01*
X180220341Y-130120000D01*
X180201007Y-129874345D01*
X180143483Y-129634738D01*
X180049184Y-129407080D01*
X180049184Y-129407079D01*
X179920436Y-129196981D01*
X179920435Y-129196979D01*
X179884280Y-129154648D01*
X179760399Y-129009601D01*
X179636516Y-128903795D01*
X179573020Y-128849564D01*
X179573018Y-128849563D01*
X179362920Y-128720815D01*
X179135264Y-128626517D01*
X178895658Y-128568993D01*
X178650000Y-128549659D01*
X178404341Y-128568993D01*
X178164735Y-128626517D01*
X177937079Y-128720815D01*
X177726981Y-128849563D01*
X177726979Y-128849564D01*
X177539601Y-129009601D01*
X177379564Y-129196979D01*
X177379563Y-129196981D01*
X177250815Y-129407079D01*
X177156517Y-129634735D01*
X177098993Y-129874341D01*
X177079659Y-130120000D01*
X177098993Y-130365658D01*
X177156517Y-130605264D01*
X177250815Y-130832920D01*
X177379563Y-131043018D01*
X177379564Y-131043020D01*
X177379567Y-131043023D01*
X177539601Y-131230399D01*
X177684648Y-131354280D01*
X177726979Y-131390435D01*
X177726981Y-131390436D01*
X177937080Y-131519184D01*
X177939695Y-131520517D01*
X177940508Y-131521285D01*
X177941234Y-131521730D01*
X177941140Y-131521882D01*
X177990490Y-131568493D01*
X178007283Y-131636314D01*
X177984743Y-131702449D01*
X177930027Y-131745898D01*
X177883397Y-131755000D01*
X177637155Y-131755000D01*
X177577627Y-131761401D01*
X177577620Y-131761403D01*
X177442913Y-131811645D01*
X177442906Y-131811649D01*
X177327812Y-131897809D01*
X177327809Y-131897812D01*
X177241649Y-132012906D01*
X177241645Y-132012913D01*
X177191403Y-132147620D01*
X177191401Y-132147627D01*
X177185000Y-132207155D01*
X177185000Y-132920000D01*
X178093480Y-132920000D01*
X178065245Y-132980002D01*
X178036365Y-133131393D01*
X178046043Y-133285211D01*
X178089838Y-133420000D01*
X177185000Y-133420000D01*
X177185000Y-134132844D01*
X177191401Y-134192372D01*
X177191403Y-134192379D01*
X177241645Y-134327086D01*
X177241649Y-134327093D01*
X177327809Y-134442187D01*
X177327812Y-134442190D01*
X177442906Y-134528350D01*
X177442913Y-134528354D01*
X177577620Y-134578596D01*
X177577627Y-134578598D01*
X177637155Y-134584999D01*
X177637172Y-134585000D01*
X178003709Y-134585000D01*
X178070748Y-134604685D01*
X178116503Y-134657489D01*
X178126447Y-134726647D01*
X178097422Y-134790203D01*
X178051162Y-134823561D01*
X177937079Y-134870815D01*
X177726981Y-134999563D01*
X177726979Y-134999564D01*
X177539601Y-135159601D01*
X177379564Y-135346979D01*
X177379563Y-135346981D01*
X177250815Y-135557079D01*
X177156517Y-135784735D01*
X177098993Y-136024341D01*
X177079659Y-136270000D01*
X169270341Y-136270000D01*
X169251007Y-136024345D01*
X169193483Y-135784738D01*
X169171432Y-135731501D01*
X169099184Y-135557079D01*
X168970436Y-135346981D01*
X168970435Y-135346979D01*
X168934280Y-135304648D01*
X168810399Y-135159601D01*
X168686516Y-135053795D01*
X168623020Y-134999564D01*
X168623018Y-134999563D01*
X168412919Y-134870815D01*
X168412920Y-134870815D01*
X168298838Y-134823561D01*
X168244435Y-134779720D01*
X168222370Y-134713426D01*
X168239649Y-134645726D01*
X168290787Y-134598116D01*
X168346291Y-134585000D01*
X168712828Y-134585000D01*
X168712844Y-134584999D01*
X168772372Y-134578598D01*
X168772379Y-134578596D01*
X168907086Y-134528354D01*
X168907093Y-134528350D01*
X169022187Y-134442190D01*
X169022190Y-134442187D01*
X169108350Y-134327093D01*
X169108354Y-134327086D01*
X169158596Y-134192379D01*
X169158598Y-134192372D01*
X169164999Y-134132844D01*
X169165000Y-134132827D01*
X169165000Y-133420000D01*
X168256520Y-133420000D01*
X168284755Y-133359998D01*
X168313635Y-133208607D01*
X168303957Y-133054789D01*
X168260162Y-132920000D01*
X169165000Y-132920000D01*
X169165000Y-132207172D01*
X169164999Y-132207155D01*
X169158598Y-132147627D01*
X169158596Y-132147620D01*
X169108354Y-132012913D01*
X169108350Y-132012906D01*
X169022190Y-131897812D01*
X169022187Y-131897809D01*
X168907093Y-131811649D01*
X168907086Y-131811645D01*
X168772379Y-131761403D01*
X168772372Y-131761401D01*
X168712844Y-131755000D01*
X168466603Y-131755000D01*
X168399564Y-131735315D01*
X168353809Y-131682511D01*
X168343865Y-131613353D01*
X168372890Y-131549797D01*
X168410305Y-131520517D01*
X168412914Y-131519186D01*
X168412920Y-131519184D01*
X168623023Y-131390433D01*
X168810399Y-131230399D01*
X168970433Y-131043023D01*
X169099184Y-130832920D01*
X169193483Y-130605262D01*
X169251007Y-130365655D01*
X169270341Y-130120000D01*
X169251007Y-129874345D01*
X169193483Y-129634738D01*
X169099184Y-129407080D01*
X169099184Y-129407079D01*
X168970436Y-129196981D01*
X168970435Y-129196979D01*
X168934280Y-129154648D01*
X168810399Y-129009601D01*
X168686516Y-128903795D01*
X168623020Y-128849564D01*
X168623018Y-128849563D01*
X168412920Y-128720815D01*
X168185264Y-128626517D01*
X167945658Y-128568993D01*
X167700000Y-128549659D01*
X167454341Y-128568993D01*
X167214735Y-128626517D01*
X166987079Y-128720815D01*
X166776981Y-128849563D01*
X166776979Y-128849564D01*
X166589601Y-129009601D01*
X166429564Y-129196979D01*
X166429563Y-129196981D01*
X166300815Y-129407079D01*
X166206517Y-129634735D01*
X166148993Y-129874341D01*
X166129659Y-130120000D01*
X166148993Y-130365658D01*
X166206517Y-130605264D01*
X166300815Y-130832920D01*
X166429563Y-131043018D01*
X166429564Y-131043020D01*
X166429567Y-131043023D01*
X166589601Y-131230399D01*
X166734648Y-131354280D01*
X166776979Y-131390435D01*
X166776981Y-131390436D01*
X166987080Y-131519184D01*
X166989695Y-131520517D01*
X166990508Y-131521285D01*
X166991234Y-131521730D01*
X166991140Y-131521882D01*
X167040490Y-131568493D01*
X167057283Y-131636314D01*
X167034743Y-131702449D01*
X166980027Y-131745898D01*
X166933397Y-131755000D01*
X166687155Y-131755000D01*
X166627627Y-131761401D01*
X166627620Y-131761403D01*
X166492913Y-131811645D01*
X166492906Y-131811649D01*
X166377812Y-131897809D01*
X166377809Y-131897812D01*
X166291649Y-132012906D01*
X166291645Y-132012913D01*
X166241403Y-132147620D01*
X166241401Y-132147627D01*
X166235000Y-132207155D01*
X166235000Y-132920000D01*
X167143480Y-132920000D01*
X167115245Y-132980002D01*
X167086365Y-133131393D01*
X167096043Y-133285211D01*
X167139838Y-133420000D01*
X166235000Y-133420000D01*
X166235000Y-134132844D01*
X166241401Y-134192372D01*
X166241403Y-134192379D01*
X166291645Y-134327086D01*
X166291649Y-134327093D01*
X166377809Y-134442187D01*
X166377812Y-134442190D01*
X166492906Y-134528350D01*
X166492913Y-134528354D01*
X166627620Y-134578596D01*
X166627627Y-134578598D01*
X166687155Y-134584999D01*
X166687172Y-134585000D01*
X167053709Y-134585000D01*
X167120748Y-134604685D01*
X167166503Y-134657489D01*
X167176447Y-134726647D01*
X167147422Y-134790203D01*
X167101162Y-134823561D01*
X166987079Y-134870815D01*
X166776981Y-134999563D01*
X166776979Y-134999564D01*
X166589601Y-135159601D01*
X166429564Y-135346979D01*
X166429563Y-135346981D01*
X166300815Y-135557079D01*
X166206517Y-135784735D01*
X166148993Y-136024341D01*
X166129659Y-136270000D01*
X159150500Y-136270000D01*
X159150500Y-121820000D01*
X166129659Y-121820000D01*
X166148993Y-122065658D01*
X166206517Y-122305264D01*
X166300815Y-122532920D01*
X166429563Y-122743018D01*
X166429564Y-122743020D01*
X166429567Y-122743023D01*
X166589601Y-122930399D01*
X166687421Y-123013945D01*
X166776979Y-123090435D01*
X166776981Y-123090436D01*
X166987079Y-123219184D01*
X167214735Y-123313482D01*
X167214736Y-123313482D01*
X167214738Y-123313483D01*
X167454345Y-123371007D01*
X167700000Y-123390341D01*
X167945655Y-123371007D01*
X168185262Y-123313483D01*
X168412920Y-123219184D01*
X168623023Y-123090433D01*
X168810399Y-122930399D01*
X168970433Y-122743023D01*
X169099184Y-122532920D01*
X169193483Y-122305262D01*
X169251007Y-122065655D01*
X169270341Y-121820000D01*
X177079659Y-121820000D01*
X177098993Y-122065658D01*
X177156517Y-122305264D01*
X177250815Y-122532920D01*
X177379563Y-122743018D01*
X177379564Y-122743020D01*
X177379567Y-122743023D01*
X177539601Y-122930399D01*
X177637421Y-123013945D01*
X177726979Y-123090435D01*
X177726981Y-123090436D01*
X177937079Y-123219184D01*
X178164735Y-123313482D01*
X178164736Y-123313482D01*
X178164738Y-123313483D01*
X178404345Y-123371007D01*
X178650000Y-123390341D01*
X178895655Y-123371007D01*
X179135262Y-123313483D01*
X179362920Y-123219184D01*
X179573023Y-123090433D01*
X179760399Y-122930399D01*
X179920433Y-122743023D01*
X180049184Y-122532920D01*
X180143483Y-122305262D01*
X180201007Y-122065655D01*
X180220341Y-121820000D01*
X180201007Y-121574345D01*
X180143483Y-121334738D01*
X180049184Y-121107080D01*
X180049184Y-121107079D01*
X179920436Y-120896981D01*
X179920435Y-120896979D01*
X179884280Y-120854648D01*
X179760399Y-120709601D01*
X179636516Y-120603795D01*
X179573020Y-120549564D01*
X179573018Y-120549563D01*
X179362919Y-120420815D01*
X179362920Y-120420815D01*
X179248838Y-120373561D01*
X179194435Y-120329720D01*
X179172370Y-120263426D01*
X179189649Y-120195726D01*
X179240787Y-120148116D01*
X179296291Y-120135000D01*
X179662828Y-120135000D01*
X179662844Y-120134999D01*
X179722372Y-120128598D01*
X179722379Y-120128596D01*
X179857086Y-120078354D01*
X179857093Y-120078350D01*
X179972187Y-119992190D01*
X179972190Y-119992187D01*
X180058350Y-119877093D01*
X180058354Y-119877086D01*
X180108596Y-119742379D01*
X180108598Y-119742372D01*
X180114999Y-119682844D01*
X180115000Y-119682827D01*
X180115000Y-118970000D01*
X179206520Y-118970000D01*
X179234755Y-118909998D01*
X179263635Y-118758607D01*
X179253957Y-118604789D01*
X179210162Y-118470000D01*
X180115000Y-118470000D01*
X180115000Y-117757172D01*
X180114999Y-117757155D01*
X180108598Y-117697627D01*
X180108596Y-117697620D01*
X180058354Y-117562913D01*
X180058350Y-117562906D01*
X179972190Y-117447812D01*
X179972187Y-117447809D01*
X179857093Y-117361649D01*
X179857086Y-117361645D01*
X179722379Y-117311403D01*
X179722372Y-117311401D01*
X179662844Y-117305000D01*
X178900000Y-117305000D01*
X178900000Y-118161335D01*
X178876341Y-118148329D01*
X178727061Y-118110000D01*
X178611625Y-118110000D01*
X178497094Y-118124469D01*
X178400000Y-118162911D01*
X178400000Y-117305000D01*
X177637155Y-117305000D01*
X177577627Y-117311401D01*
X177577620Y-117311403D01*
X177442913Y-117361645D01*
X177442906Y-117361649D01*
X177327812Y-117447809D01*
X177327809Y-117447812D01*
X177241649Y-117562906D01*
X177241645Y-117562913D01*
X177191403Y-117697620D01*
X177191401Y-117697627D01*
X177185000Y-117757155D01*
X177185000Y-118470000D01*
X178093480Y-118470000D01*
X178065245Y-118530002D01*
X178036365Y-118681393D01*
X178046043Y-118835211D01*
X178089838Y-118970000D01*
X177185000Y-118970000D01*
X177185000Y-119682844D01*
X177191401Y-119742372D01*
X177191403Y-119742379D01*
X177241645Y-119877086D01*
X177241649Y-119877093D01*
X177327809Y-119992187D01*
X177327812Y-119992190D01*
X177442906Y-120078350D01*
X177442913Y-120078354D01*
X177577620Y-120128596D01*
X177577627Y-120128598D01*
X177637155Y-120134999D01*
X177637172Y-120135000D01*
X178003709Y-120135000D01*
X178070748Y-120154685D01*
X178116503Y-120207489D01*
X178126447Y-120276647D01*
X178097422Y-120340203D01*
X178051162Y-120373561D01*
X177937079Y-120420815D01*
X177726981Y-120549563D01*
X177726979Y-120549564D01*
X177539601Y-120709601D01*
X177379564Y-120896979D01*
X177379563Y-120896981D01*
X177250815Y-121107079D01*
X177156517Y-121334735D01*
X177098993Y-121574341D01*
X177079659Y-121820000D01*
X169270341Y-121820000D01*
X169251007Y-121574345D01*
X169193483Y-121334738D01*
X169099184Y-121107080D01*
X169099184Y-121107079D01*
X168970436Y-120896981D01*
X168970435Y-120896979D01*
X168934280Y-120854648D01*
X168810399Y-120709601D01*
X168686516Y-120603795D01*
X168623020Y-120549564D01*
X168623018Y-120549563D01*
X168412919Y-120420815D01*
X168412920Y-120420815D01*
X168298838Y-120373561D01*
X168244435Y-120329720D01*
X168222370Y-120263426D01*
X168239649Y-120195726D01*
X168290787Y-120148116D01*
X168346291Y-120135000D01*
X168712828Y-120135000D01*
X168712844Y-120134999D01*
X168772372Y-120128598D01*
X168772379Y-120128596D01*
X168907086Y-120078354D01*
X168907093Y-120078350D01*
X169022187Y-119992190D01*
X169022190Y-119992187D01*
X169108350Y-119877093D01*
X169108354Y-119877086D01*
X169158596Y-119742379D01*
X169158598Y-119742372D01*
X169164999Y-119682844D01*
X169165000Y-119682827D01*
X169165000Y-118970000D01*
X168256520Y-118970000D01*
X168284755Y-118909998D01*
X168313635Y-118758607D01*
X168303957Y-118604789D01*
X168260162Y-118470000D01*
X169165000Y-118470000D01*
X169165000Y-117757172D01*
X169164999Y-117757155D01*
X169158598Y-117697627D01*
X169158596Y-117697620D01*
X169108354Y-117562913D01*
X169108350Y-117562906D01*
X169022190Y-117447812D01*
X169022187Y-117447809D01*
X168907093Y-117361649D01*
X168907086Y-117361645D01*
X168772379Y-117311403D01*
X168772372Y-117311401D01*
X168712844Y-117305000D01*
X168466603Y-117305000D01*
X168399564Y-117285315D01*
X168353809Y-117232511D01*
X168343865Y-117163353D01*
X168372890Y-117099797D01*
X168410305Y-117070517D01*
X168412914Y-117069186D01*
X168412920Y-117069184D01*
X168623023Y-116940433D01*
X168810399Y-116780399D01*
X168970433Y-116593023D01*
X169099184Y-116382920D01*
X169193483Y-116155262D01*
X169251007Y-115915655D01*
X169270341Y-115670000D01*
X169251007Y-115424345D01*
X169193483Y-115184738D01*
X169099184Y-114957080D01*
X169099184Y-114957079D01*
X168970436Y-114746981D01*
X168970435Y-114746979D01*
X168934280Y-114704648D01*
X168810399Y-114559601D01*
X168686516Y-114453795D01*
X168623020Y-114399564D01*
X168623018Y-114399563D01*
X168412920Y-114270815D01*
X168185264Y-114176517D01*
X167945658Y-114118993D01*
X167700000Y-114099659D01*
X167454341Y-114118993D01*
X167214735Y-114176517D01*
X166987079Y-114270815D01*
X166776981Y-114399563D01*
X166776979Y-114399564D01*
X166589601Y-114559601D01*
X166429564Y-114746979D01*
X166429563Y-114746981D01*
X166300815Y-114957079D01*
X166206517Y-115184735D01*
X166148993Y-115424341D01*
X166129659Y-115670000D01*
X166148993Y-115915658D01*
X166206517Y-116155264D01*
X166300815Y-116382920D01*
X166429563Y-116593018D01*
X166429564Y-116593020D01*
X166429567Y-116593023D01*
X166589601Y-116780399D01*
X166734648Y-116904280D01*
X166776979Y-116940435D01*
X166776981Y-116940436D01*
X166987080Y-117069184D01*
X166989695Y-117070517D01*
X166990508Y-117071285D01*
X166991234Y-117071730D01*
X166991140Y-117071882D01*
X167040490Y-117118493D01*
X167057283Y-117186314D01*
X167034743Y-117252449D01*
X166980027Y-117295898D01*
X166933397Y-117305000D01*
X166687155Y-117305000D01*
X166627627Y-117311401D01*
X166627620Y-117311403D01*
X166492913Y-117361645D01*
X166492906Y-117361649D01*
X166377812Y-117447809D01*
X166377809Y-117447812D01*
X166291649Y-117562906D01*
X166291645Y-117562913D01*
X166241403Y-117697620D01*
X166241401Y-117697627D01*
X166235000Y-117757155D01*
X166235000Y-118470000D01*
X167143480Y-118470000D01*
X167115245Y-118530002D01*
X167086365Y-118681393D01*
X167096043Y-118835211D01*
X167139838Y-118970000D01*
X166235000Y-118970000D01*
X166235000Y-119682844D01*
X166241401Y-119742372D01*
X166241403Y-119742379D01*
X166291645Y-119877086D01*
X166291649Y-119877093D01*
X166377809Y-119992187D01*
X166377812Y-119992190D01*
X166492906Y-120078350D01*
X166492913Y-120078354D01*
X166627620Y-120128596D01*
X166627627Y-120128598D01*
X166687155Y-120134999D01*
X166687172Y-120135000D01*
X167053709Y-120135000D01*
X167120748Y-120154685D01*
X167166503Y-120207489D01*
X167176447Y-120276647D01*
X167147422Y-120340203D01*
X167101162Y-120373561D01*
X166987079Y-120420815D01*
X166776981Y-120549563D01*
X166776979Y-120549564D01*
X166589601Y-120709601D01*
X166429564Y-120896979D01*
X166429563Y-120896981D01*
X166300815Y-121107079D01*
X166206517Y-121334735D01*
X166148993Y-121574341D01*
X166129659Y-121820000D01*
X159150500Y-121820000D01*
X159150500Y-107370000D01*
X166129659Y-107370000D01*
X166148993Y-107615658D01*
X166206517Y-107855264D01*
X166300815Y-108082920D01*
X166429563Y-108293018D01*
X166429564Y-108293020D01*
X166429567Y-108293023D01*
X166589601Y-108480399D01*
X166734648Y-108604280D01*
X166776979Y-108640435D01*
X166776981Y-108640436D01*
X166987079Y-108769184D01*
X167214735Y-108863482D01*
X167214736Y-108863482D01*
X167214738Y-108863483D01*
X167454345Y-108921007D01*
X167700000Y-108940341D01*
X167945655Y-108921007D01*
X168185262Y-108863483D01*
X168412920Y-108769184D01*
X168623023Y-108640433D01*
X168810399Y-108480399D01*
X168970433Y-108293023D01*
X169099184Y-108082920D01*
X169193483Y-107855262D01*
X169251007Y-107615655D01*
X169270341Y-107370000D01*
X188029659Y-107370000D01*
X188048993Y-107615658D01*
X188106517Y-107855264D01*
X188200815Y-108082920D01*
X188329563Y-108293018D01*
X188329564Y-108293020D01*
X188329567Y-108293023D01*
X188489601Y-108480399D01*
X188634648Y-108604280D01*
X188676979Y-108640435D01*
X188676981Y-108640436D01*
X188887079Y-108769184D01*
X189114735Y-108863482D01*
X189114736Y-108863482D01*
X189114738Y-108863483D01*
X189354345Y-108921007D01*
X189600000Y-108940341D01*
X189845655Y-108921007D01*
X190085262Y-108863483D01*
X190312920Y-108769184D01*
X190523023Y-108640433D01*
X190710399Y-108480399D01*
X190870433Y-108293023D01*
X190999184Y-108082920D01*
X191093483Y-107855262D01*
X191151007Y-107615655D01*
X191170341Y-107370000D01*
X191151007Y-107124345D01*
X191093483Y-106884738D01*
X190999184Y-106657080D01*
X190999184Y-106657079D01*
X190870436Y-106446981D01*
X190870435Y-106446979D01*
X190834280Y-106404648D01*
X190710399Y-106259601D01*
X190586516Y-106153795D01*
X190523020Y-106099564D01*
X190523018Y-106099563D01*
X190312919Y-105970815D01*
X190312920Y-105970815D01*
X190198838Y-105923561D01*
X190144435Y-105879720D01*
X190122370Y-105813426D01*
X190139649Y-105745726D01*
X190190787Y-105698116D01*
X190246291Y-105685000D01*
X190612828Y-105685000D01*
X190612844Y-105684999D01*
X190672372Y-105678598D01*
X190672379Y-105678596D01*
X190807086Y-105628354D01*
X190807093Y-105628350D01*
X190922187Y-105542190D01*
X190922190Y-105542187D01*
X191008350Y-105427093D01*
X191008354Y-105427086D01*
X191058596Y-105292379D01*
X191058598Y-105292372D01*
X191064999Y-105232844D01*
X191065000Y-105232827D01*
X191065000Y-104520000D01*
X190156520Y-104520000D01*
X190184755Y-104459998D01*
X190213635Y-104308607D01*
X190203957Y-104154789D01*
X190160162Y-104020000D01*
X191065000Y-104020000D01*
X191065000Y-103307172D01*
X191064999Y-103307155D01*
X191058598Y-103247627D01*
X191058596Y-103247620D01*
X191008354Y-103112913D01*
X191008350Y-103112906D01*
X190922190Y-102997812D01*
X190922187Y-102997809D01*
X190807093Y-102911649D01*
X190807086Y-102911645D01*
X190672379Y-102861403D01*
X190672372Y-102861401D01*
X190612844Y-102855000D01*
X189850000Y-102855000D01*
X189850000Y-103711335D01*
X189826341Y-103698329D01*
X189677061Y-103660000D01*
X189561625Y-103660000D01*
X189447094Y-103674469D01*
X189350000Y-103712911D01*
X189350000Y-102855000D01*
X188587155Y-102855000D01*
X188527627Y-102861401D01*
X188527620Y-102861403D01*
X188392913Y-102911645D01*
X188392906Y-102911649D01*
X188277812Y-102997809D01*
X188277809Y-102997812D01*
X188191649Y-103112906D01*
X188191645Y-103112913D01*
X188141403Y-103247620D01*
X188141401Y-103247627D01*
X188135000Y-103307155D01*
X188135000Y-104020000D01*
X189043480Y-104020000D01*
X189015245Y-104080002D01*
X188986365Y-104231393D01*
X188996043Y-104385211D01*
X189039838Y-104520000D01*
X188135000Y-104520000D01*
X188135000Y-105232844D01*
X188141401Y-105292372D01*
X188141403Y-105292379D01*
X188191645Y-105427086D01*
X188191649Y-105427093D01*
X188277809Y-105542187D01*
X188277812Y-105542190D01*
X188392906Y-105628350D01*
X188392913Y-105628354D01*
X188527620Y-105678596D01*
X188527627Y-105678598D01*
X188587155Y-105684999D01*
X188587172Y-105685000D01*
X188953709Y-105685000D01*
X189020748Y-105704685D01*
X189066503Y-105757489D01*
X189076447Y-105826647D01*
X189047422Y-105890203D01*
X189001162Y-105923561D01*
X188887079Y-105970815D01*
X188676981Y-106099563D01*
X188676979Y-106099564D01*
X188489601Y-106259601D01*
X188329564Y-106446979D01*
X188329563Y-106446981D01*
X188200815Y-106657079D01*
X188106517Y-106884735D01*
X188048993Y-107124341D01*
X188029659Y-107370000D01*
X169270341Y-107370000D01*
X169251007Y-107124345D01*
X169193483Y-106884738D01*
X169099184Y-106657080D01*
X169099184Y-106657079D01*
X168970436Y-106446981D01*
X168970435Y-106446979D01*
X168934280Y-106404648D01*
X168810399Y-106259601D01*
X168686516Y-106153795D01*
X168623020Y-106099564D01*
X168623018Y-106099563D01*
X168412919Y-105970815D01*
X168412920Y-105970815D01*
X168298838Y-105923561D01*
X168244435Y-105879720D01*
X168222370Y-105813426D01*
X168239649Y-105745726D01*
X168290787Y-105698116D01*
X168346291Y-105685000D01*
X168712828Y-105685000D01*
X168712844Y-105684999D01*
X168772372Y-105678598D01*
X168772379Y-105678596D01*
X168907086Y-105628354D01*
X168907093Y-105628350D01*
X169022187Y-105542190D01*
X169022190Y-105542187D01*
X169108350Y-105427093D01*
X169108354Y-105427086D01*
X169158596Y-105292379D01*
X169158598Y-105292372D01*
X169164999Y-105232844D01*
X169165000Y-105232827D01*
X169165000Y-104520000D01*
X168256520Y-104520000D01*
X168284755Y-104459998D01*
X168313635Y-104308607D01*
X168303957Y-104154789D01*
X168260162Y-104020000D01*
X169165000Y-104020000D01*
X169165000Y-103307172D01*
X169164999Y-103307155D01*
X169158598Y-103247627D01*
X169158596Y-103247620D01*
X169108354Y-103112913D01*
X169108350Y-103112906D01*
X169022190Y-102997812D01*
X169022187Y-102997809D01*
X168907093Y-102911649D01*
X168907086Y-102911645D01*
X168772379Y-102861403D01*
X168772372Y-102861401D01*
X168712844Y-102855000D01*
X167950000Y-102855000D01*
X167950000Y-103711335D01*
X167926341Y-103698329D01*
X167777061Y-103660000D01*
X167661625Y-103660000D01*
X167547094Y-103674469D01*
X167450000Y-103712911D01*
X167450000Y-102855000D01*
X166687155Y-102855000D01*
X166627627Y-102861401D01*
X166627620Y-102861403D01*
X166492913Y-102911645D01*
X166492906Y-102911649D01*
X166377812Y-102997809D01*
X166377809Y-102997812D01*
X166291649Y-103112906D01*
X166291645Y-103112913D01*
X166241403Y-103247620D01*
X166241401Y-103247627D01*
X166235000Y-103307155D01*
X166235000Y-104020000D01*
X167143480Y-104020000D01*
X167115245Y-104080002D01*
X167086365Y-104231393D01*
X167096043Y-104385211D01*
X167139838Y-104520000D01*
X166235000Y-104520000D01*
X166235000Y-105232844D01*
X166241401Y-105292372D01*
X166241403Y-105292379D01*
X166291645Y-105427086D01*
X166291649Y-105427093D01*
X166377809Y-105542187D01*
X166377812Y-105542190D01*
X166492906Y-105628350D01*
X166492913Y-105628354D01*
X166627620Y-105678596D01*
X166627627Y-105678598D01*
X166687155Y-105684999D01*
X166687172Y-105685000D01*
X167053709Y-105685000D01*
X167120748Y-105704685D01*
X167166503Y-105757489D01*
X167176447Y-105826647D01*
X167147422Y-105890203D01*
X167101162Y-105923561D01*
X166987079Y-105970815D01*
X166776981Y-106099563D01*
X166776979Y-106099564D01*
X166589601Y-106259601D01*
X166429564Y-106446979D01*
X166429563Y-106446981D01*
X166300815Y-106657079D01*
X166206517Y-106884735D01*
X166148993Y-107124341D01*
X166129659Y-107370000D01*
X159150500Y-107370000D01*
X159150500Y-103190000D01*
X159544341Y-103190000D01*
X159564936Y-103425403D01*
X159564938Y-103425413D01*
X159626094Y-103653655D01*
X159626096Y-103653659D01*
X159626097Y-103653663D01*
X159725965Y-103867830D01*
X159725967Y-103867834D01*
X159824260Y-104008210D01*
X159861505Y-104061401D01*
X160028599Y-104228495D01*
X160032738Y-104231393D01*
X160222165Y-104364032D01*
X160222167Y-104364033D01*
X160222170Y-104364035D01*
X160436337Y-104463903D01*
X160664592Y-104525063D01*
X160852918Y-104541539D01*
X160899999Y-104545659D01*
X160900000Y-104545659D01*
X160900001Y-104545659D01*
X160939234Y-104542226D01*
X161135408Y-104525063D01*
X161363663Y-104463903D01*
X161577830Y-104364035D01*
X161771401Y-104228495D01*
X161938495Y-104061401D01*
X162074035Y-103867830D01*
X162173903Y-103653663D01*
X162235063Y-103425408D01*
X162255659Y-103190000D01*
X162235063Y-102954592D01*
X162173903Y-102726337D01*
X162074035Y-102512171D01*
X161938495Y-102318599D01*
X161938494Y-102318597D01*
X161771402Y-102151506D01*
X161771396Y-102151501D01*
X161585842Y-102021575D01*
X161542217Y-101966998D01*
X161535023Y-101897500D01*
X161566546Y-101835145D01*
X161585842Y-101818425D01*
X161608026Y-101802891D01*
X161771401Y-101688495D01*
X161938495Y-101521401D01*
X162074035Y-101327830D01*
X162173903Y-101113663D01*
X162235063Y-100885408D01*
X162255659Y-100650000D01*
X162235063Y-100414592D01*
X162182547Y-100218596D01*
X162173905Y-100186344D01*
X162173904Y-100186343D01*
X162173903Y-100186337D01*
X162074035Y-99972171D01*
X162070480Y-99967093D01*
X161938494Y-99778597D01*
X161932741Y-99772844D01*
X165250000Y-99772844D01*
X165256401Y-99832372D01*
X165256403Y-99832379D01*
X165306645Y-99967086D01*
X165306649Y-99967093D01*
X165392809Y-100082187D01*
X165392812Y-100082190D01*
X165507906Y-100168350D01*
X165507913Y-100168354D01*
X165642620Y-100218596D01*
X165642627Y-100218598D01*
X165702155Y-100224999D01*
X165702172Y-100225000D01*
X166400000Y-100225000D01*
X166400000Y-99260501D01*
X166507685Y-99309680D01*
X166614237Y-99325000D01*
X166685763Y-99325000D01*
X166792315Y-99309680D01*
X166900000Y-99260501D01*
X166900000Y-100225000D01*
X167597828Y-100225000D01*
X167597844Y-100224999D01*
X167657372Y-100218598D01*
X167657379Y-100218596D01*
X167792086Y-100168354D01*
X167792093Y-100168350D01*
X167907187Y-100082190D01*
X167907190Y-100082187D01*
X167993350Y-99967093D01*
X167993353Y-99967088D01*
X168011678Y-99917955D01*
X168053549Y-99862020D01*
X168119013Y-99837602D01*
X168187286Y-99852453D01*
X168204023Y-99863433D01*
X168381365Y-100001464D01*
X168381371Y-100001468D01*
X168381374Y-100001470D01*
X168585497Y-100111936D01*
X168699487Y-100151068D01*
X168805015Y-100187297D01*
X168805017Y-100187297D01*
X168805019Y-100187298D01*
X169033951Y-100225500D01*
X169033952Y-100225500D01*
X169266048Y-100225500D01*
X169266049Y-100225500D01*
X169494981Y-100187298D01*
X169714503Y-100111936D01*
X169918626Y-100001470D01*
X170101784Y-99858913D01*
X170258979Y-99688153D01*
X170296191Y-99631196D01*
X170349337Y-99585839D01*
X170418569Y-99576415D01*
X170481904Y-99605917D01*
X170503809Y-99631196D01*
X170541016Y-99688147D01*
X170541019Y-99688151D01*
X170541021Y-99688153D01*
X170698216Y-99858913D01*
X170698219Y-99858915D01*
X170698222Y-99858918D01*
X170881365Y-100001464D01*
X170881371Y-100001468D01*
X170881374Y-100001470D01*
X171085497Y-100111936D01*
X171199487Y-100151068D01*
X171305015Y-100187297D01*
X171305017Y-100187297D01*
X171305019Y-100187298D01*
X171533951Y-100225500D01*
X171533952Y-100225500D01*
X171766048Y-100225500D01*
X171766049Y-100225500D01*
X171994981Y-100187298D01*
X172214503Y-100111936D01*
X172418626Y-100001470D01*
X172601784Y-99858913D01*
X172681016Y-99772844D01*
X184250000Y-99772844D01*
X184256401Y-99832372D01*
X184256403Y-99832379D01*
X184306645Y-99967086D01*
X184306649Y-99967093D01*
X184392809Y-100082187D01*
X184392812Y-100082190D01*
X184507906Y-100168350D01*
X184507913Y-100168354D01*
X184642620Y-100218596D01*
X184642627Y-100218598D01*
X184702155Y-100224999D01*
X184702172Y-100225000D01*
X185400000Y-100225000D01*
X185400000Y-99260501D01*
X185507685Y-99309680D01*
X185614237Y-99325000D01*
X185685763Y-99325000D01*
X185792315Y-99309680D01*
X185900000Y-99260501D01*
X185900000Y-100225000D01*
X186597828Y-100225000D01*
X186597844Y-100224999D01*
X186657372Y-100218598D01*
X186657379Y-100218596D01*
X186792086Y-100168354D01*
X186792093Y-100168350D01*
X186907187Y-100082190D01*
X186907190Y-100082187D01*
X186993350Y-99967093D01*
X186993353Y-99967088D01*
X187011678Y-99917955D01*
X187053549Y-99862020D01*
X187119013Y-99837602D01*
X187187286Y-99852453D01*
X187204023Y-99863433D01*
X187381365Y-100001464D01*
X187381371Y-100001468D01*
X187381374Y-100001470D01*
X187585497Y-100111936D01*
X187699487Y-100151068D01*
X187805015Y-100187297D01*
X187805017Y-100187297D01*
X187805019Y-100187298D01*
X188033951Y-100225500D01*
X188033952Y-100225500D01*
X188266048Y-100225500D01*
X188266049Y-100225500D01*
X188494981Y-100187298D01*
X188714503Y-100111936D01*
X188918626Y-100001470D01*
X189101784Y-99858913D01*
X189258979Y-99688153D01*
X189296191Y-99631196D01*
X189349337Y-99585839D01*
X189418569Y-99576415D01*
X189481904Y-99605917D01*
X189503809Y-99631196D01*
X189541016Y-99688147D01*
X189541019Y-99688151D01*
X189541021Y-99688153D01*
X189698216Y-99858913D01*
X189698219Y-99858915D01*
X189698222Y-99858918D01*
X189881365Y-100001464D01*
X189881371Y-100001468D01*
X189881374Y-100001470D01*
X190085497Y-100111936D01*
X190199487Y-100151068D01*
X190305015Y-100187297D01*
X190305017Y-100187297D01*
X190305019Y-100187298D01*
X190533951Y-100225500D01*
X190533952Y-100225500D01*
X190766048Y-100225500D01*
X190766049Y-100225500D01*
X190994981Y-100187298D01*
X191214503Y-100111936D01*
X191418626Y-100001470D01*
X191601784Y-99858913D01*
X191758979Y-99688153D01*
X191885924Y-99493849D01*
X191979157Y-99281300D01*
X192036134Y-99056305D01*
X192036135Y-99056297D01*
X192055300Y-98825006D01*
X192055300Y-98824993D01*
X192036135Y-98593702D01*
X192036133Y-98593691D01*
X191979157Y-98368699D01*
X191885924Y-98156151D01*
X191758983Y-97961852D01*
X191758980Y-97961849D01*
X191758979Y-97961847D01*
X191601784Y-97791087D01*
X191601779Y-97791083D01*
X191601777Y-97791081D01*
X191418634Y-97648535D01*
X191418628Y-97648531D01*
X191214504Y-97538064D01*
X191214495Y-97538061D01*
X190994984Y-97462702D01*
X190807404Y-97431401D01*
X190766049Y-97424500D01*
X190533951Y-97424500D01*
X190492596Y-97431401D01*
X190305015Y-97462702D01*
X190085504Y-97538061D01*
X190085495Y-97538064D01*
X189881371Y-97648531D01*
X189881365Y-97648535D01*
X189698222Y-97791081D01*
X189698219Y-97791084D01*
X189698216Y-97791086D01*
X189698216Y-97791087D01*
X189673785Y-97817627D01*
X189541015Y-97961854D01*
X189503808Y-98018804D01*
X189450662Y-98064161D01*
X189381430Y-98073584D01*
X189318095Y-98044082D01*
X189296192Y-98018804D01*
X189258984Y-97961854D01*
X189258982Y-97961852D01*
X189258979Y-97961847D01*
X189101784Y-97791087D01*
X189101779Y-97791083D01*
X189101777Y-97791081D01*
X188918634Y-97648535D01*
X188918628Y-97648531D01*
X188714504Y-97538064D01*
X188714495Y-97538061D01*
X188494984Y-97462702D01*
X188307404Y-97431401D01*
X188266049Y-97424500D01*
X188033951Y-97424500D01*
X187992596Y-97431401D01*
X187805015Y-97462702D01*
X187585504Y-97538061D01*
X187585495Y-97538064D01*
X187381372Y-97648531D01*
X187204023Y-97786567D01*
X187139029Y-97812209D01*
X187070489Y-97798642D01*
X187020164Y-97750174D01*
X187011679Y-97732045D01*
X186993355Y-97682915D01*
X186993350Y-97682906D01*
X186907190Y-97567812D01*
X186907187Y-97567809D01*
X186792093Y-97481649D01*
X186792086Y-97481645D01*
X186657379Y-97431403D01*
X186657372Y-97431401D01*
X186597844Y-97425000D01*
X185900000Y-97425000D01*
X185900000Y-98389498D01*
X185792315Y-98340320D01*
X185685763Y-98325000D01*
X185614237Y-98325000D01*
X185507685Y-98340320D01*
X185400000Y-98389498D01*
X185400000Y-97425000D01*
X184702155Y-97425000D01*
X184642627Y-97431401D01*
X184642620Y-97431403D01*
X184507913Y-97481645D01*
X184507906Y-97481649D01*
X184392812Y-97567809D01*
X184392809Y-97567812D01*
X184306649Y-97682906D01*
X184306645Y-97682913D01*
X184256403Y-97817620D01*
X184256401Y-97817627D01*
X184250000Y-97877155D01*
X184250000Y-98575000D01*
X185216314Y-98575000D01*
X185190507Y-98615156D01*
X185150000Y-98753111D01*
X185150000Y-98896889D01*
X185190507Y-99034844D01*
X185216314Y-99075000D01*
X184250000Y-99075000D01*
X184250000Y-99772844D01*
X172681016Y-99772844D01*
X172758979Y-99688153D01*
X172885924Y-99493849D01*
X172979157Y-99281300D01*
X173036134Y-99056305D01*
X173036135Y-99056297D01*
X173055300Y-98825006D01*
X173055300Y-98824993D01*
X173036135Y-98593702D01*
X173036133Y-98593691D01*
X172979157Y-98368699D01*
X172885924Y-98156151D01*
X172758983Y-97961852D01*
X172758980Y-97961849D01*
X172758979Y-97961847D01*
X172601784Y-97791087D01*
X172601779Y-97791083D01*
X172601777Y-97791081D01*
X172418634Y-97648535D01*
X172418628Y-97648531D01*
X172214504Y-97538064D01*
X172214495Y-97538061D01*
X171994984Y-97462702D01*
X171807404Y-97431401D01*
X171766049Y-97424500D01*
X171533951Y-97424500D01*
X171492596Y-97431401D01*
X171305015Y-97462702D01*
X171085504Y-97538061D01*
X171085495Y-97538064D01*
X170881371Y-97648531D01*
X170881365Y-97648535D01*
X170698222Y-97791081D01*
X170698219Y-97791084D01*
X170698216Y-97791086D01*
X170698216Y-97791087D01*
X170673785Y-97817627D01*
X170541015Y-97961854D01*
X170503808Y-98018804D01*
X170450662Y-98064161D01*
X170381430Y-98073584D01*
X170318095Y-98044082D01*
X170296192Y-98018804D01*
X170258984Y-97961854D01*
X170258982Y-97961852D01*
X170258979Y-97961847D01*
X170101784Y-97791087D01*
X170101779Y-97791083D01*
X170101777Y-97791081D01*
X169918634Y-97648535D01*
X169918628Y-97648531D01*
X169714504Y-97538064D01*
X169714495Y-97538061D01*
X169494984Y-97462702D01*
X169307404Y-97431401D01*
X169266049Y-97424500D01*
X169033951Y-97424500D01*
X168992596Y-97431401D01*
X168805015Y-97462702D01*
X168585504Y-97538061D01*
X168585495Y-97538064D01*
X168381372Y-97648531D01*
X168204023Y-97786567D01*
X168139029Y-97812209D01*
X168070489Y-97798642D01*
X168020164Y-97750174D01*
X168011679Y-97732045D01*
X167993355Y-97682915D01*
X167993350Y-97682906D01*
X167907190Y-97567812D01*
X167907187Y-97567809D01*
X167792093Y-97481649D01*
X167792086Y-97481645D01*
X167657379Y-97431403D01*
X167657372Y-97431401D01*
X167597844Y-97425000D01*
X166900000Y-97425000D01*
X166900000Y-98389498D01*
X166792315Y-98340320D01*
X166685763Y-98325000D01*
X166614237Y-98325000D01*
X166507685Y-98340320D01*
X166400000Y-98389498D01*
X166400000Y-97425000D01*
X165702155Y-97425000D01*
X165642627Y-97431401D01*
X165642620Y-97431403D01*
X165507913Y-97481645D01*
X165507906Y-97481649D01*
X165392812Y-97567809D01*
X165392809Y-97567812D01*
X165306649Y-97682906D01*
X165306645Y-97682913D01*
X165256403Y-97817620D01*
X165256401Y-97817627D01*
X165250000Y-97877155D01*
X165250000Y-98575000D01*
X166216314Y-98575000D01*
X166190507Y-98615156D01*
X166150000Y-98753111D01*
X166150000Y-98896889D01*
X166190507Y-99034844D01*
X166216314Y-99075000D01*
X165250000Y-99075000D01*
X165250000Y-99772844D01*
X161932741Y-99772844D01*
X161771402Y-99611506D01*
X161771396Y-99611501D01*
X161585842Y-99481575D01*
X161542217Y-99426998D01*
X161535023Y-99357500D01*
X161566546Y-99295145D01*
X161585842Y-99278425D01*
X161608026Y-99262891D01*
X161771401Y-99148495D01*
X161938495Y-98981401D01*
X162074035Y-98787830D01*
X162173903Y-98573663D01*
X162235063Y-98345408D01*
X162255659Y-98110000D01*
X162235063Y-97874592D01*
X162173903Y-97646337D01*
X162074035Y-97432171D01*
X162073498Y-97431403D01*
X161938494Y-97238597D01*
X161771402Y-97071506D01*
X161771396Y-97071501D01*
X161585842Y-96941575D01*
X161542217Y-96886998D01*
X161535023Y-96817500D01*
X161566546Y-96755145D01*
X161585842Y-96738425D01*
X161608026Y-96722891D01*
X161771401Y-96608495D01*
X161938495Y-96441401D01*
X162074035Y-96247830D01*
X162173903Y-96033663D01*
X162235063Y-95805408D01*
X162255659Y-95570000D01*
X162235063Y-95334592D01*
X162173903Y-95106337D01*
X162074035Y-94892171D01*
X161938495Y-94698599D01*
X161938494Y-94698597D01*
X161771402Y-94531506D01*
X161771396Y-94531501D01*
X161585842Y-94401575D01*
X161542217Y-94346998D01*
X161535023Y-94277500D01*
X161566546Y-94215145D01*
X161585842Y-94198425D01*
X161608026Y-94182891D01*
X161771401Y-94068495D01*
X161938495Y-93901401D01*
X162074035Y-93707830D01*
X162173903Y-93493663D01*
X162235063Y-93265408D01*
X162255659Y-93030000D01*
X162235063Y-92794592D01*
X162173903Y-92566337D01*
X162074035Y-92352171D01*
X161938495Y-92158599D01*
X161938494Y-92158597D01*
X161771402Y-91991506D01*
X161771396Y-91991501D01*
X161585842Y-91861575D01*
X161542217Y-91806998D01*
X161535023Y-91737500D01*
X161566546Y-91675145D01*
X161585842Y-91658425D01*
X161593565Y-91653017D01*
X162489500Y-91653017D01*
X162504403Y-91856615D01*
X162504405Y-91856629D01*
X162563615Y-92122435D01*
X162563618Y-92122442D01*
X162660908Y-92376816D01*
X162794195Y-92614308D01*
X162794198Y-92614313D01*
X162933408Y-92794596D01*
X162960645Y-92829868D01*
X163156705Y-93018894D01*
X163156708Y-93018896D01*
X163156709Y-93018897D01*
X163378189Y-93177352D01*
X163378192Y-93177353D01*
X163378198Y-93177358D01*
X163620403Y-93301885D01*
X163620407Y-93301886D01*
X163620411Y-93301888D01*
X163878145Y-93389815D01*
X163878151Y-93389816D01*
X163878159Y-93389819D01*
X164038564Y-93419447D01*
X164145959Y-93439284D01*
X164145961Y-93439284D01*
X164145971Y-93439286D01*
X164363699Y-93447242D01*
X164418129Y-93449232D01*
X164418129Y-93449231D01*
X164418131Y-93449232D01*
X164688839Y-93419446D01*
X164952326Y-93350562D01*
X165202975Y-93244047D01*
X165435444Y-93102173D01*
X165644779Y-92927963D01*
X165826518Y-92725131D01*
X165976788Y-92497998D01*
X166092386Y-92251406D01*
X166170847Y-91990611D01*
X166210500Y-91721171D01*
X166210500Y-91653017D01*
X172089500Y-91653017D01*
X172104403Y-91856615D01*
X172104405Y-91856629D01*
X172163615Y-92122435D01*
X172163618Y-92122442D01*
X172260908Y-92376816D01*
X172394195Y-92614308D01*
X172394198Y-92614313D01*
X172533408Y-92794596D01*
X172560645Y-92829868D01*
X172756705Y-93018894D01*
X172756708Y-93018896D01*
X172756709Y-93018897D01*
X172978189Y-93177352D01*
X172978192Y-93177353D01*
X172978198Y-93177358D01*
X173220403Y-93301885D01*
X173220407Y-93301886D01*
X173220411Y-93301888D01*
X173478145Y-93389815D01*
X173478151Y-93389816D01*
X173478159Y-93389819D01*
X173638564Y-93419447D01*
X173745959Y-93439284D01*
X173745961Y-93439284D01*
X173745971Y-93439286D01*
X173963699Y-93447242D01*
X174018129Y-93449232D01*
X174018129Y-93449231D01*
X174018131Y-93449232D01*
X174288839Y-93419446D01*
X174552326Y-93350562D01*
X174802975Y-93244047D01*
X175035444Y-93102173D01*
X175244779Y-92927963D01*
X175426518Y-92725131D01*
X175576788Y-92497998D01*
X175692386Y-92251406D01*
X175770847Y-91990611D01*
X175810500Y-91721171D01*
X175810500Y-91653017D01*
X181489500Y-91653017D01*
X181504403Y-91856615D01*
X181504405Y-91856629D01*
X181563615Y-92122435D01*
X181563618Y-92122442D01*
X181660908Y-92376816D01*
X181794195Y-92614308D01*
X181794198Y-92614313D01*
X181933408Y-92794596D01*
X181960645Y-92829868D01*
X182156705Y-93018894D01*
X182156708Y-93018896D01*
X182156709Y-93018897D01*
X182378189Y-93177352D01*
X182378192Y-93177353D01*
X182378198Y-93177358D01*
X182620403Y-93301885D01*
X182620407Y-93301886D01*
X182620411Y-93301888D01*
X182878145Y-93389815D01*
X182878151Y-93389816D01*
X182878159Y-93389819D01*
X183038564Y-93419447D01*
X183145959Y-93439284D01*
X183145961Y-93439284D01*
X183145971Y-93439286D01*
X183363699Y-93447242D01*
X183418129Y-93449232D01*
X183418129Y-93449231D01*
X183418131Y-93449232D01*
X183688839Y-93419446D01*
X183952326Y-93350562D01*
X184202975Y-93244047D01*
X184435444Y-93102173D01*
X184644779Y-92927963D01*
X184826518Y-92725131D01*
X184976788Y-92497998D01*
X185092386Y-92251406D01*
X185170847Y-91990611D01*
X185210500Y-91721171D01*
X185210500Y-91653017D01*
X191089500Y-91653017D01*
X191104403Y-91856615D01*
X191104405Y-91856629D01*
X191163615Y-92122435D01*
X191163618Y-92122442D01*
X191260908Y-92376816D01*
X191394195Y-92614308D01*
X191394198Y-92614313D01*
X191533408Y-92794596D01*
X191560645Y-92829868D01*
X191756705Y-93018894D01*
X191756708Y-93018896D01*
X191756709Y-93018897D01*
X191978189Y-93177352D01*
X191978192Y-93177353D01*
X191978198Y-93177358D01*
X192220403Y-93301885D01*
X192220407Y-93301886D01*
X192220411Y-93301888D01*
X192478145Y-93389815D01*
X192478151Y-93389816D01*
X192478159Y-93389819D01*
X192638564Y-93419447D01*
X192745959Y-93439284D01*
X192745961Y-93439284D01*
X192745971Y-93439286D01*
X192963699Y-93447242D01*
X193018129Y-93449232D01*
X193018129Y-93449231D01*
X193018131Y-93449232D01*
X193288839Y-93419446D01*
X193552326Y-93350562D01*
X193802975Y-93244047D01*
X194035444Y-93102173D01*
X194244779Y-92927963D01*
X194426518Y-92725131D01*
X194576788Y-92497998D01*
X194692386Y-92251406D01*
X194770847Y-91990611D01*
X194810500Y-91721171D01*
X194810500Y-90997000D01*
X194795597Y-90793384D01*
X194780454Y-90725403D01*
X194736384Y-90527564D01*
X194736382Y-90527560D01*
X194736382Y-90527558D01*
X194639093Y-90273186D01*
X194505804Y-90035690D01*
X194339355Y-89820132D01*
X194143295Y-89631106D01*
X194143292Y-89631104D01*
X194143290Y-89631102D01*
X193921810Y-89472647D01*
X193921804Y-89472643D01*
X193921802Y-89472642D01*
X193792092Y-89405953D01*
X193679602Y-89348117D01*
X193679588Y-89348111D01*
X193421854Y-89260184D01*
X193421841Y-89260181D01*
X193421836Y-89260180D01*
X193154040Y-89210715D01*
X193154020Y-89210713D01*
X192881870Y-89200767D01*
X192611172Y-89230552D01*
X192611159Y-89230554D01*
X192347679Y-89299436D01*
X192347674Y-89299437D01*
X192347674Y-89299438D01*
X192345175Y-89300500D01*
X192097025Y-89405953D01*
X191864560Y-89547824D01*
X191864550Y-89547831D01*
X191655222Y-89722035D01*
X191473482Y-89924868D01*
X191323213Y-90151999D01*
X191207613Y-90398597D01*
X191129152Y-90659392D01*
X191119438Y-90725403D01*
X191089500Y-90928829D01*
X191089500Y-90928833D01*
X191089500Y-91653017D01*
X185210500Y-91653017D01*
X185210500Y-90997000D01*
X185195597Y-90793384D01*
X185180454Y-90725403D01*
X185136384Y-90527564D01*
X185136382Y-90527560D01*
X185136382Y-90527558D01*
X185039093Y-90273186D01*
X184905804Y-90035690D01*
X184739355Y-89820132D01*
X184543295Y-89631106D01*
X184543292Y-89631104D01*
X184543290Y-89631102D01*
X184321810Y-89472647D01*
X184321804Y-89472643D01*
X184321802Y-89472642D01*
X184192092Y-89405953D01*
X184079602Y-89348117D01*
X184079588Y-89348111D01*
X183821854Y-89260184D01*
X183821841Y-89260181D01*
X183821836Y-89260180D01*
X183554040Y-89210715D01*
X183554020Y-89210713D01*
X183281870Y-89200767D01*
X183011172Y-89230552D01*
X183011159Y-89230554D01*
X182747679Y-89299436D01*
X182747674Y-89299437D01*
X182747674Y-89299438D01*
X182745175Y-89300500D01*
X182497025Y-89405953D01*
X182264560Y-89547824D01*
X182264550Y-89547831D01*
X182055222Y-89722035D01*
X181873482Y-89924868D01*
X181723213Y-90151999D01*
X181607613Y-90398597D01*
X181529152Y-90659392D01*
X181519438Y-90725403D01*
X181489500Y-90928829D01*
X181489500Y-90928833D01*
X181489500Y-91653017D01*
X175810500Y-91653017D01*
X175810500Y-90997000D01*
X175795597Y-90793384D01*
X175780454Y-90725403D01*
X175736384Y-90527564D01*
X175736382Y-90527560D01*
X175736382Y-90527558D01*
X175639093Y-90273186D01*
X175505804Y-90035690D01*
X175339355Y-89820132D01*
X175143295Y-89631106D01*
X175143292Y-89631104D01*
X175143290Y-89631102D01*
X174921810Y-89472647D01*
X174921804Y-89472643D01*
X174921802Y-89472642D01*
X174792092Y-89405953D01*
X174679602Y-89348117D01*
X174679588Y-89348111D01*
X174421854Y-89260184D01*
X174421841Y-89260181D01*
X174421836Y-89260180D01*
X174154040Y-89210715D01*
X174154020Y-89210713D01*
X173881870Y-89200767D01*
X173611172Y-89230552D01*
X173611159Y-89230554D01*
X173347679Y-89299436D01*
X173347674Y-89299437D01*
X173347674Y-89299438D01*
X173345175Y-89300500D01*
X173097025Y-89405953D01*
X172864560Y-89547824D01*
X172864550Y-89547831D01*
X172655222Y-89722035D01*
X172473482Y-89924868D01*
X172323213Y-90151999D01*
X172207613Y-90398597D01*
X172129152Y-90659392D01*
X172119438Y-90725403D01*
X172089500Y-90928829D01*
X172089500Y-90928833D01*
X172089500Y-91653017D01*
X166210500Y-91653017D01*
X166210500Y-90997000D01*
X166195597Y-90793384D01*
X166180454Y-90725403D01*
X166136384Y-90527564D01*
X166136382Y-90527560D01*
X166136382Y-90527558D01*
X166039093Y-90273186D01*
X165905804Y-90035690D01*
X165739355Y-89820132D01*
X165543295Y-89631106D01*
X165543292Y-89631104D01*
X165543290Y-89631102D01*
X165321810Y-89472647D01*
X165321804Y-89472643D01*
X165321802Y-89472642D01*
X165192092Y-89405953D01*
X165079602Y-89348117D01*
X165079588Y-89348111D01*
X164821854Y-89260184D01*
X164821841Y-89260181D01*
X164821836Y-89260180D01*
X164554040Y-89210715D01*
X164554020Y-89210713D01*
X164281870Y-89200767D01*
X164011172Y-89230552D01*
X164011159Y-89230554D01*
X163747679Y-89299436D01*
X163747674Y-89299437D01*
X163747674Y-89299438D01*
X163745175Y-89300500D01*
X163497025Y-89405953D01*
X163264560Y-89547824D01*
X163264550Y-89547831D01*
X163055222Y-89722035D01*
X162873482Y-89924868D01*
X162723213Y-90151999D01*
X162607613Y-90398597D01*
X162529152Y-90659392D01*
X162519438Y-90725403D01*
X162489500Y-90928829D01*
X162489500Y-90928833D01*
X162489500Y-91653017D01*
X161593565Y-91653017D01*
X161608026Y-91642891D01*
X161771401Y-91528495D01*
X161938495Y-91361401D01*
X162074035Y-91167830D01*
X162173903Y-90953663D01*
X162235063Y-90725408D01*
X162255659Y-90490000D01*
X162235063Y-90254592D01*
X162173903Y-90026337D01*
X162074035Y-89812171D01*
X162010921Y-89722035D01*
X161938496Y-89618600D01*
X161938495Y-89618599D01*
X161816567Y-89496671D01*
X161783084Y-89435351D01*
X161788068Y-89365659D01*
X161829939Y-89309725D01*
X161860915Y-89292810D01*
X161992331Y-89243796D01*
X162107546Y-89157546D01*
X162193796Y-89042331D01*
X162244091Y-88907483D01*
X162250500Y-88847873D01*
X162250499Y-87052128D01*
X162244091Y-86992517D01*
X162193796Y-86857669D01*
X162193795Y-86857668D01*
X162193793Y-86857664D01*
X162107547Y-86742455D01*
X162107544Y-86742452D01*
X161992335Y-86656206D01*
X161992328Y-86656202D01*
X161857482Y-86605908D01*
X161857483Y-86605908D01*
X161797883Y-86599501D01*
X161797881Y-86599500D01*
X161797873Y-86599500D01*
X161797864Y-86599500D01*
X160002129Y-86599500D01*
X160002123Y-86599501D01*
X159942516Y-86605908D01*
X159807671Y-86656202D01*
X159807664Y-86656206D01*
X159692455Y-86742452D01*
X159692452Y-86742455D01*
X159606206Y-86857664D01*
X159606202Y-86857671D01*
X159555908Y-86992517D01*
X159549501Y-87052116D01*
X159549501Y-87052123D01*
X159549500Y-87052135D01*
X159549500Y-88847870D01*
X159549501Y-88847876D01*
X159555908Y-88907483D01*
X159606202Y-89042328D01*
X159606206Y-89042335D01*
X159692452Y-89157544D01*
X159692455Y-89157547D01*
X159807664Y-89243793D01*
X159807671Y-89243797D01*
X159939081Y-89292810D01*
X159995015Y-89334681D01*
X160019432Y-89400145D01*
X160004580Y-89468418D01*
X159983430Y-89496673D01*
X159861503Y-89618600D01*
X159725965Y-89812169D01*
X159725964Y-89812171D01*
X159626098Y-90026335D01*
X159626094Y-90026344D01*
X159564938Y-90254586D01*
X159564936Y-90254596D01*
X159544341Y-90489999D01*
X159544341Y-90490000D01*
X159564936Y-90725403D01*
X159564938Y-90725413D01*
X159626094Y-90953655D01*
X159626096Y-90953659D01*
X159626097Y-90953663D01*
X159725965Y-91167830D01*
X159725967Y-91167834D01*
X159861501Y-91361395D01*
X159861506Y-91361402D01*
X160028597Y-91528493D01*
X160028603Y-91528498D01*
X160214158Y-91658425D01*
X160257783Y-91713002D01*
X160264977Y-91782500D01*
X160233454Y-91844855D01*
X160214158Y-91861575D01*
X160028597Y-91991505D01*
X159861505Y-92158597D01*
X159725965Y-92352169D01*
X159725964Y-92352171D01*
X159626098Y-92566335D01*
X159626094Y-92566344D01*
X159564938Y-92794586D01*
X159564936Y-92794596D01*
X159544341Y-93029999D01*
X159544341Y-93030000D01*
X159564936Y-93265403D01*
X159564938Y-93265413D01*
X159626094Y-93493655D01*
X159626096Y-93493659D01*
X159626097Y-93493663D01*
X159725965Y-93707830D01*
X159725967Y-93707834D01*
X159861501Y-93901395D01*
X159861506Y-93901402D01*
X160028597Y-94068493D01*
X160028603Y-94068498D01*
X160214158Y-94198425D01*
X160257783Y-94253002D01*
X160264977Y-94322500D01*
X160233454Y-94384855D01*
X160214158Y-94401575D01*
X160028597Y-94531505D01*
X159861505Y-94698597D01*
X159725965Y-94892169D01*
X159725964Y-94892171D01*
X159626098Y-95106335D01*
X159626094Y-95106344D01*
X159564938Y-95334586D01*
X159564936Y-95334596D01*
X159544341Y-95569999D01*
X159544341Y-95570000D01*
X159564936Y-95805403D01*
X159564938Y-95805413D01*
X159626094Y-96033655D01*
X159626096Y-96033659D01*
X159626097Y-96033663D01*
X159725965Y-96247830D01*
X159725967Y-96247834D01*
X159861501Y-96441395D01*
X159861506Y-96441402D01*
X160028597Y-96608493D01*
X160028603Y-96608498D01*
X160214158Y-96738425D01*
X160257783Y-96793002D01*
X160264977Y-96862500D01*
X160233454Y-96924855D01*
X160214158Y-96941575D01*
X160028597Y-97071505D01*
X159861505Y-97238597D01*
X159725965Y-97432169D01*
X159725964Y-97432171D01*
X159626098Y-97646335D01*
X159626094Y-97646344D01*
X159564938Y-97874586D01*
X159564936Y-97874596D01*
X159544341Y-98109999D01*
X159544341Y-98110000D01*
X159564936Y-98345403D01*
X159564938Y-98345413D01*
X159626094Y-98573655D01*
X159626096Y-98573659D01*
X159626097Y-98573663D01*
X159645446Y-98615156D01*
X159725965Y-98787830D01*
X159725967Y-98787834D01*
X159861501Y-98981395D01*
X159861506Y-98981402D01*
X160028597Y-99148493D01*
X160028603Y-99148498D01*
X160214158Y-99278425D01*
X160257783Y-99333002D01*
X160264977Y-99402500D01*
X160233454Y-99464855D01*
X160214158Y-99481575D01*
X160028597Y-99611505D01*
X159861505Y-99778597D01*
X159725965Y-99972169D01*
X159725964Y-99972171D01*
X159626098Y-100186335D01*
X159626094Y-100186344D01*
X159564938Y-100414586D01*
X159564936Y-100414596D01*
X159544341Y-100649999D01*
X159544341Y-100650000D01*
X159564936Y-100885403D01*
X159564938Y-100885413D01*
X159626094Y-101113655D01*
X159626096Y-101113659D01*
X159626097Y-101113663D01*
X159725965Y-101327830D01*
X159725967Y-101327834D01*
X159861501Y-101521395D01*
X159861506Y-101521402D01*
X160028597Y-101688493D01*
X160028603Y-101688498D01*
X160214158Y-101818425D01*
X160257783Y-101873002D01*
X160264977Y-101942500D01*
X160233454Y-102004855D01*
X160214158Y-102021575D01*
X160028597Y-102151505D01*
X159861505Y-102318597D01*
X159725965Y-102512169D01*
X159725964Y-102512171D01*
X159626098Y-102726335D01*
X159626094Y-102726344D01*
X159564938Y-102954586D01*
X159564936Y-102954596D01*
X159544341Y-103189999D01*
X159544341Y-103190000D01*
X159150500Y-103190000D01*
X159150500Y-79772844D01*
X165250000Y-79772844D01*
X165256401Y-79832372D01*
X165256403Y-79832379D01*
X165306645Y-79967086D01*
X165306649Y-79967093D01*
X165392809Y-80082187D01*
X165392812Y-80082190D01*
X165507906Y-80168350D01*
X165507913Y-80168354D01*
X165642620Y-80218596D01*
X165642627Y-80218598D01*
X165702155Y-80224999D01*
X165702172Y-80225000D01*
X166400000Y-80225000D01*
X166400000Y-79260501D01*
X166507685Y-79309680D01*
X166614237Y-79325000D01*
X166685763Y-79325000D01*
X166792315Y-79309680D01*
X166900000Y-79260501D01*
X166900000Y-80225000D01*
X167597828Y-80225000D01*
X167597844Y-80224999D01*
X167657372Y-80218598D01*
X167657379Y-80218596D01*
X167792086Y-80168354D01*
X167792093Y-80168350D01*
X167907187Y-80082190D01*
X167907190Y-80082187D01*
X167993350Y-79967093D01*
X167993353Y-79967088D01*
X168011678Y-79917955D01*
X168053549Y-79862020D01*
X168119013Y-79837602D01*
X168187286Y-79852453D01*
X168204023Y-79863433D01*
X168381365Y-80001464D01*
X168381371Y-80001468D01*
X168381374Y-80001470D01*
X168585497Y-80111936D01*
X168699487Y-80151068D01*
X168805015Y-80187297D01*
X168805017Y-80187297D01*
X168805019Y-80187298D01*
X169033951Y-80225500D01*
X169033952Y-80225500D01*
X169266048Y-80225500D01*
X169266049Y-80225500D01*
X169494981Y-80187298D01*
X169495034Y-80187280D01*
X169550163Y-80168354D01*
X169714503Y-80111936D01*
X169918626Y-80001470D01*
X170101784Y-79858913D01*
X170258979Y-79688153D01*
X170296191Y-79631196D01*
X170349337Y-79585839D01*
X170418569Y-79576415D01*
X170481904Y-79605917D01*
X170503809Y-79631196D01*
X170541016Y-79688147D01*
X170541019Y-79688151D01*
X170541021Y-79688153D01*
X170698216Y-79858913D01*
X170698219Y-79858915D01*
X170698222Y-79858918D01*
X170881365Y-80001464D01*
X170881371Y-80001468D01*
X170881374Y-80001470D01*
X171085497Y-80111936D01*
X171199487Y-80151068D01*
X171305015Y-80187297D01*
X171305017Y-80187297D01*
X171305019Y-80187298D01*
X171533951Y-80225500D01*
X171533952Y-80225500D01*
X171766048Y-80225500D01*
X171766049Y-80225500D01*
X171994981Y-80187298D01*
X171995034Y-80187280D01*
X172050163Y-80168354D01*
X172214503Y-80111936D01*
X172418626Y-80001470D01*
X172601784Y-79858913D01*
X172681016Y-79772844D01*
X184250000Y-79772844D01*
X184256401Y-79832372D01*
X184256403Y-79832379D01*
X184306645Y-79967086D01*
X184306649Y-79967093D01*
X184392809Y-80082187D01*
X184392812Y-80082190D01*
X184507906Y-80168350D01*
X184507913Y-80168354D01*
X184642620Y-80218596D01*
X184642627Y-80218598D01*
X184702155Y-80224999D01*
X184702172Y-80225000D01*
X185400000Y-80225000D01*
X185400000Y-79260501D01*
X185507685Y-79309680D01*
X185614237Y-79325000D01*
X185685763Y-79325000D01*
X185792315Y-79309680D01*
X185900000Y-79260501D01*
X185900000Y-80225000D01*
X186597828Y-80225000D01*
X186597844Y-80224999D01*
X186657372Y-80218598D01*
X186657379Y-80218596D01*
X186792086Y-80168354D01*
X186792093Y-80168350D01*
X186907187Y-80082190D01*
X186907190Y-80082187D01*
X186993350Y-79967093D01*
X186993353Y-79967088D01*
X187011678Y-79917955D01*
X187053549Y-79862020D01*
X187119013Y-79837602D01*
X187187286Y-79852453D01*
X187204023Y-79863433D01*
X187381365Y-80001464D01*
X187381371Y-80001468D01*
X187381374Y-80001470D01*
X187585497Y-80111936D01*
X187699487Y-80151068D01*
X187805015Y-80187297D01*
X187805017Y-80187297D01*
X187805019Y-80187298D01*
X188033951Y-80225500D01*
X188033952Y-80225500D01*
X188266048Y-80225500D01*
X188266049Y-80225500D01*
X188494981Y-80187298D01*
X188495034Y-80187280D01*
X188550163Y-80168354D01*
X188714503Y-80111936D01*
X188918626Y-80001470D01*
X189101784Y-79858913D01*
X189258979Y-79688153D01*
X189296191Y-79631196D01*
X189349337Y-79585839D01*
X189418569Y-79576415D01*
X189481904Y-79605917D01*
X189503809Y-79631196D01*
X189541016Y-79688147D01*
X189541019Y-79688151D01*
X189541021Y-79688153D01*
X189698216Y-79858913D01*
X189698219Y-79858915D01*
X189698222Y-79858918D01*
X189881365Y-80001464D01*
X189881371Y-80001468D01*
X189881374Y-80001470D01*
X190085497Y-80111936D01*
X190199487Y-80151068D01*
X190305015Y-80187297D01*
X190305017Y-80187297D01*
X190305019Y-80187298D01*
X190533951Y-80225500D01*
X190533952Y-80225500D01*
X190766048Y-80225500D01*
X190766049Y-80225500D01*
X190994981Y-80187298D01*
X190999944Y-80186041D01*
X191000257Y-80187280D01*
X191064032Y-80184390D01*
X191122200Y-80217146D01*
X195093181Y-84188127D01*
X195126666Y-84249450D01*
X195129500Y-84275808D01*
X195129500Y-109169191D01*
X195109815Y-109236230D01*
X195093181Y-109256872D01*
X190205550Y-114144502D01*
X190144227Y-114177987D01*
X190088922Y-114177395D01*
X189845658Y-114118993D01*
X189600000Y-114099659D01*
X189354341Y-114118993D01*
X189114735Y-114176517D01*
X188887079Y-114270815D01*
X188676981Y-114399563D01*
X188676979Y-114399564D01*
X188489601Y-114559601D01*
X188329564Y-114746979D01*
X188329563Y-114746981D01*
X188200815Y-114957079D01*
X188106517Y-115184735D01*
X188048993Y-115424341D01*
X188029659Y-115670000D01*
X188048993Y-115915658D01*
X188106517Y-116155264D01*
X188200815Y-116382920D01*
X188329563Y-116593018D01*
X188329564Y-116593020D01*
X188329567Y-116593023D01*
X188489601Y-116780399D01*
X188634648Y-116904280D01*
X188676979Y-116940435D01*
X188676981Y-116940436D01*
X188887080Y-117069184D01*
X188889695Y-117070517D01*
X188890508Y-117071285D01*
X188891234Y-117071730D01*
X188891140Y-117071882D01*
X188940490Y-117118493D01*
X188957283Y-117186314D01*
X188934743Y-117252449D01*
X188880027Y-117295898D01*
X188833397Y-117305000D01*
X188587155Y-117305000D01*
X188527627Y-117311401D01*
X188527620Y-117311403D01*
X188392913Y-117361645D01*
X188392906Y-117361649D01*
X188277812Y-117447809D01*
X188277809Y-117447812D01*
X188191649Y-117562906D01*
X188191645Y-117562913D01*
X188141403Y-117697620D01*
X188141401Y-117697627D01*
X188135000Y-117757155D01*
X188135000Y-118470000D01*
X189043480Y-118470000D01*
X189015245Y-118530002D01*
X188986365Y-118681393D01*
X188996043Y-118835211D01*
X189039838Y-118970000D01*
X188135000Y-118970000D01*
X188135000Y-119682844D01*
X188141401Y-119742372D01*
X188141403Y-119742379D01*
X188191645Y-119877086D01*
X188191649Y-119877093D01*
X188277809Y-119992187D01*
X188277812Y-119992190D01*
X188392906Y-120078350D01*
X188392913Y-120078354D01*
X188527620Y-120128596D01*
X188527627Y-120128598D01*
X188587155Y-120134999D01*
X188587172Y-120135000D01*
X188953709Y-120135000D01*
X189020748Y-120154685D01*
X189066503Y-120207489D01*
X189076447Y-120276647D01*
X189047422Y-120340203D01*
X189001162Y-120373561D01*
X188887079Y-120420815D01*
X188676981Y-120549563D01*
X188676979Y-120549564D01*
X188489601Y-120709601D01*
X188329564Y-120896979D01*
X188329563Y-120896981D01*
X188200815Y-121107079D01*
X188106517Y-121334735D01*
X188048993Y-121574341D01*
X188029659Y-121820000D01*
X188048993Y-122065658D01*
X188106517Y-122305264D01*
X188200815Y-122532920D01*
X188329563Y-122743018D01*
X188329564Y-122743020D01*
X188329567Y-122743023D01*
X188489601Y-122930399D01*
X188587421Y-123013945D01*
X188676979Y-123090435D01*
X188676981Y-123090436D01*
X188887079Y-123219184D01*
X189114735Y-123313482D01*
X189114736Y-123313482D01*
X189114738Y-123313483D01*
X189354345Y-123371007D01*
X189600000Y-123390341D01*
X189845655Y-123371007D01*
X190085262Y-123313483D01*
X190312920Y-123219184D01*
X190523023Y-123090433D01*
X190525404Y-123088398D01*
X190526495Y-123087910D01*
X190526959Y-123087573D01*
X190527029Y-123087670D01*
X190589157Y-123059819D01*
X190658244Y-123070244D01*
X190693629Y-123094996D01*
X195269237Y-127670604D01*
X195302722Y-127731927D01*
X195297738Y-127801619D01*
X195255868Y-127857551D01*
X195142452Y-127942455D01*
X195056206Y-128057664D01*
X195056202Y-128057671D01*
X195005908Y-128192517D01*
X194999501Y-128252116D01*
X194999501Y-128252123D01*
X194999500Y-128252135D01*
X194999500Y-130047870D01*
X194999501Y-130047876D01*
X195005908Y-130107483D01*
X195056202Y-130242328D01*
X195056206Y-130242335D01*
X195142452Y-130357544D01*
X195142455Y-130357547D01*
X195257664Y-130443793D01*
X195257671Y-130443797D01*
X195389081Y-130492810D01*
X195445015Y-130534681D01*
X195469432Y-130600145D01*
X195454580Y-130668418D01*
X195433430Y-130696673D01*
X195311503Y-130818600D01*
X195175965Y-131012169D01*
X195175964Y-131012171D01*
X195076098Y-131226335D01*
X195076094Y-131226344D01*
X195014938Y-131454586D01*
X195014936Y-131454596D01*
X194994341Y-131689999D01*
X194994341Y-131690000D01*
X195014936Y-131925403D01*
X195014938Y-131925413D01*
X195076094Y-132153655D01*
X195076096Y-132153659D01*
X195076097Y-132153663D01*
X195101041Y-132207155D01*
X195175965Y-132367830D01*
X195175967Y-132367834D01*
X195311501Y-132561395D01*
X195311506Y-132561402D01*
X195478597Y-132728493D01*
X195478603Y-132728498D01*
X195664158Y-132858425D01*
X195707783Y-132913002D01*
X195714977Y-132982500D01*
X195683454Y-133044855D01*
X195664158Y-133061575D01*
X195478597Y-133191505D01*
X195311505Y-133358597D01*
X195175965Y-133552169D01*
X195175964Y-133552171D01*
X195076098Y-133766335D01*
X195076094Y-133766344D01*
X195014938Y-133994586D01*
X195014936Y-133994596D01*
X194994341Y-134229999D01*
X194994341Y-134230000D01*
X195014936Y-134465403D01*
X195014938Y-134465413D01*
X195076094Y-134693655D01*
X195076096Y-134693659D01*
X195076097Y-134693663D01*
X195136670Y-134823561D01*
X195175965Y-134907830D01*
X195175967Y-134907834D01*
X195311501Y-135101395D01*
X195311506Y-135101402D01*
X195478597Y-135268493D01*
X195478603Y-135268498D01*
X195664158Y-135398425D01*
X195707783Y-135453002D01*
X195714977Y-135522500D01*
X195683454Y-135584855D01*
X195664158Y-135601575D01*
X195478597Y-135731505D01*
X195311505Y-135898597D01*
X195175965Y-136092169D01*
X195175964Y-136092171D01*
X195076098Y-136306335D01*
X195076094Y-136306344D01*
X195014938Y-136534586D01*
X195014936Y-136534596D01*
X194994341Y-136769999D01*
X194994341Y-136770000D01*
X195014936Y-137005403D01*
X195014938Y-137005413D01*
X195076094Y-137233655D01*
X195076096Y-137233659D01*
X195076097Y-137233663D01*
X195144521Y-137380398D01*
X195175965Y-137447830D01*
X195175967Y-137447834D01*
X195311501Y-137641395D01*
X195311506Y-137641402D01*
X195478597Y-137808493D01*
X195478603Y-137808498D01*
X195664158Y-137938425D01*
X195707783Y-137993002D01*
X195714977Y-138062500D01*
X195683454Y-138124855D01*
X195664158Y-138141575D01*
X195478597Y-138271505D01*
X195311505Y-138438597D01*
X195175965Y-138632169D01*
X195175964Y-138632171D01*
X195076098Y-138846335D01*
X195076094Y-138846344D01*
X195014938Y-139074586D01*
X195014936Y-139074596D01*
X194994341Y-139309999D01*
X194994341Y-139310000D01*
X195014936Y-139545403D01*
X195014938Y-139545413D01*
X195076094Y-139773655D01*
X195076096Y-139773659D01*
X195076097Y-139773663D01*
X195175965Y-139987830D01*
X195175967Y-139987834D01*
X195311501Y-140181395D01*
X195311506Y-140181402D01*
X195478597Y-140348493D01*
X195478603Y-140348498D01*
X195664158Y-140478425D01*
X195707783Y-140533002D01*
X195714977Y-140602500D01*
X195683454Y-140664855D01*
X195664158Y-140681575D01*
X195478597Y-140811505D01*
X195311505Y-140978597D01*
X195175965Y-141172169D01*
X195175964Y-141172171D01*
X195076098Y-141386335D01*
X195076094Y-141386344D01*
X195014938Y-141614586D01*
X195014936Y-141614596D01*
X194994341Y-141849999D01*
X194994341Y-141850000D01*
X195014936Y-142085403D01*
X195014938Y-142085413D01*
X195076094Y-142313655D01*
X195076096Y-142313659D01*
X195076097Y-142313663D01*
X195175965Y-142527830D01*
X195175967Y-142527834D01*
X195284281Y-142682521D01*
X195311505Y-142721401D01*
X195478599Y-142888495D01*
X195637357Y-142999659D01*
X195664594Y-143018730D01*
X195708219Y-143073307D01*
X195715413Y-143142805D01*
X195683890Y-143205160D01*
X195664595Y-143221880D01*
X195478922Y-143351890D01*
X195478920Y-143351891D01*
X195311891Y-143518920D01*
X195311886Y-143518926D01*
X195176400Y-143712420D01*
X195176399Y-143712422D01*
X195076570Y-143926507D01*
X195076567Y-143926513D01*
X195019364Y-144139999D01*
X195019364Y-144140000D01*
X195916314Y-144140000D01*
X195890507Y-144180156D01*
X195850000Y-144318111D01*
X195850000Y-144461889D01*
X195890507Y-144599844D01*
X195916314Y-144640000D01*
X195019364Y-144640000D01*
X195076567Y-144853486D01*
X195076570Y-144853492D01*
X195176399Y-145067578D01*
X195311894Y-145261082D01*
X195478917Y-145428105D01*
X195672421Y-145563600D01*
X195886507Y-145663429D01*
X195886516Y-145663433D01*
X196100000Y-145720634D01*
X196100000Y-144825501D01*
X196207685Y-144874680D01*
X196314237Y-144890000D01*
X196385763Y-144890000D01*
X196492315Y-144874680D01*
X196600000Y-144825501D01*
X196600000Y-145720633D01*
X196813483Y-145663433D01*
X196813492Y-145663429D01*
X197027578Y-145563600D01*
X197221082Y-145428105D01*
X197388105Y-145261082D01*
X197523600Y-145067578D01*
X197623429Y-144853492D01*
X197623432Y-144853486D01*
X197680636Y-144640000D01*
X196783686Y-144640000D01*
X196809493Y-144599844D01*
X196850000Y-144461889D01*
X196850000Y-144318111D01*
X196809493Y-144180156D01*
X196783686Y-144140000D01*
X197680636Y-144140000D01*
X197680635Y-144139999D01*
X197623432Y-143926513D01*
X197623429Y-143926507D01*
X197523600Y-143712422D01*
X197523599Y-143712420D01*
X197388113Y-143518926D01*
X197388108Y-143518920D01*
X197221078Y-143351890D01*
X197035405Y-143221879D01*
X196991780Y-143167302D01*
X196984588Y-143097804D01*
X197016110Y-143035449D01*
X197035406Y-143018730D01*
X197221401Y-142888495D01*
X197388495Y-142721401D01*
X197524035Y-142527830D01*
X197623903Y-142313663D01*
X197685063Y-142085408D01*
X197705659Y-141850000D01*
X197685063Y-141614592D01*
X197623903Y-141386337D01*
X197524035Y-141172171D01*
X197388495Y-140978599D01*
X197388494Y-140978597D01*
X197221402Y-140811506D01*
X197221396Y-140811501D01*
X197035842Y-140681575D01*
X196992217Y-140626998D01*
X196985023Y-140557500D01*
X197016546Y-140495145D01*
X197035842Y-140478425D01*
X197058026Y-140462891D01*
X197221401Y-140348495D01*
X197388495Y-140181401D01*
X197524035Y-139987830D01*
X197623903Y-139773663D01*
X197685063Y-139545408D01*
X197705659Y-139310000D01*
X197685063Y-139074592D01*
X197623903Y-138846337D01*
X197524035Y-138632171D01*
X197388495Y-138438599D01*
X197388494Y-138438597D01*
X197221402Y-138271506D01*
X197221396Y-138271501D01*
X197035842Y-138141575D01*
X196992217Y-138086998D01*
X196985023Y-138017500D01*
X197016546Y-137955145D01*
X197035842Y-137938425D01*
X197175920Y-137840341D01*
X197221401Y-137808495D01*
X197388495Y-137641401D01*
X197524035Y-137447830D01*
X197623903Y-137233663D01*
X197685063Y-137005408D01*
X197705659Y-136770000D01*
X197685063Y-136534592D01*
X197623903Y-136306337D01*
X197524035Y-136092171D01*
X197476541Y-136024341D01*
X197388494Y-135898597D01*
X197221402Y-135731506D01*
X197221396Y-135731501D01*
X197035842Y-135601575D01*
X196992217Y-135546998D01*
X196985023Y-135477500D01*
X197016546Y-135415145D01*
X197035842Y-135398425D01*
X197109317Y-135346977D01*
X197221401Y-135268495D01*
X197388495Y-135101401D01*
X197524035Y-134907830D01*
X197623903Y-134693663D01*
X197685063Y-134465408D01*
X197705659Y-134230000D01*
X197685063Y-133994592D01*
X197623903Y-133766337D01*
X197524035Y-133552171D01*
X197431489Y-133420000D01*
X197388494Y-133358597D01*
X197221402Y-133191506D01*
X197221396Y-133191501D01*
X197035842Y-133061575D01*
X196992217Y-133006998D01*
X196985023Y-132937500D01*
X197016546Y-132875145D01*
X197035842Y-132858425D01*
X197150585Y-132778081D01*
X197221401Y-132728495D01*
X197388495Y-132561401D01*
X197524035Y-132367830D01*
X197623903Y-132153663D01*
X197685063Y-131925408D01*
X197705659Y-131690000D01*
X197685063Y-131454592D01*
X197638626Y-131281285D01*
X197623905Y-131226344D01*
X197623904Y-131226343D01*
X197623903Y-131226337D01*
X197524035Y-131012171D01*
X197388495Y-130818599D01*
X197266567Y-130696671D01*
X197233084Y-130635351D01*
X197238068Y-130565659D01*
X197279939Y-130509725D01*
X197310915Y-130492810D01*
X197442331Y-130443796D01*
X197557546Y-130357546D01*
X197643796Y-130242331D01*
X197694091Y-130107483D01*
X197700500Y-130047873D01*
X197700499Y-128252128D01*
X197694091Y-128192517D01*
X197643796Y-128057669D01*
X197643795Y-128057668D01*
X197643793Y-128057664D01*
X197557547Y-127942455D01*
X197557544Y-127942452D01*
X197442335Y-127856206D01*
X197442328Y-127856202D01*
X197307482Y-127805908D01*
X197307483Y-127805908D01*
X197247883Y-127799501D01*
X197247881Y-127799500D01*
X197247873Y-127799500D01*
X197247865Y-127799500D01*
X197226572Y-127799500D01*
X197159533Y-127779815D01*
X197113778Y-127727011D01*
X197103044Y-127686310D01*
X197100972Y-127662632D01*
X197100500Y-127651822D01*
X197100500Y-127646296D01*
X197100500Y-127646291D01*
X197096901Y-127615509D01*
X197096536Y-127611929D01*
X197089999Y-127537201D01*
X197088539Y-127530129D01*
X197088597Y-127530116D01*
X197086965Y-127522757D01*
X197086906Y-127522772D01*
X197085241Y-127515751D01*
X197085241Y-127515745D01*
X197059569Y-127445212D01*
X197058421Y-127441909D01*
X197034814Y-127370666D01*
X197034810Y-127370659D01*
X197031760Y-127364118D01*
X197031815Y-127364091D01*
X197028533Y-127357313D01*
X197028480Y-127357340D01*
X197025235Y-127350880D01*
X196984025Y-127288223D01*
X196982086Y-127285181D01*
X196942710Y-127221342D01*
X196938234Y-127215682D01*
X196938281Y-127215644D01*
X196933519Y-127209799D01*
X196933474Y-127209838D01*
X196928831Y-127204305D01*
X196874272Y-127152831D01*
X196871685Y-127150318D01*
X191130020Y-121408652D01*
X191097127Y-121349916D01*
X191093483Y-121334738D01*
X190999184Y-121107080D01*
X190999184Y-121107079D01*
X190870436Y-120896981D01*
X190870435Y-120896979D01*
X190834280Y-120854648D01*
X190710399Y-120709601D01*
X190586516Y-120603795D01*
X190523020Y-120549564D01*
X190523018Y-120549563D01*
X190312919Y-120420815D01*
X190312920Y-120420815D01*
X190198838Y-120373561D01*
X190144435Y-120329720D01*
X190122370Y-120263426D01*
X190139649Y-120195726D01*
X190190787Y-120148116D01*
X190246291Y-120135000D01*
X190612828Y-120135000D01*
X190612844Y-120134999D01*
X190672372Y-120128598D01*
X190672379Y-120128596D01*
X190807086Y-120078354D01*
X190807093Y-120078350D01*
X190922187Y-119992190D01*
X190922190Y-119992187D01*
X191008350Y-119877093D01*
X191008354Y-119877086D01*
X191058596Y-119742379D01*
X191058598Y-119742372D01*
X191064999Y-119682844D01*
X191065000Y-119682827D01*
X191065000Y-118970000D01*
X190156520Y-118970000D01*
X190184755Y-118909998D01*
X190213635Y-118758607D01*
X190203957Y-118604789D01*
X190160162Y-118470000D01*
X191065000Y-118470000D01*
X191065000Y-117757172D01*
X191064999Y-117757155D01*
X191058598Y-117697627D01*
X191058596Y-117697620D01*
X191008354Y-117562913D01*
X191008350Y-117562906D01*
X190922190Y-117447812D01*
X190922187Y-117447809D01*
X190807093Y-117361649D01*
X190807086Y-117361645D01*
X190672379Y-117311403D01*
X190672372Y-117311401D01*
X190612844Y-117305000D01*
X190366603Y-117305000D01*
X190299564Y-117285315D01*
X190253809Y-117232511D01*
X190243865Y-117163353D01*
X190272890Y-117099797D01*
X190310305Y-117070517D01*
X190312914Y-117069186D01*
X190312920Y-117069184D01*
X190523023Y-116940433D01*
X190710399Y-116780399D01*
X190870433Y-116593023D01*
X190999184Y-116382920D01*
X191093483Y-116155262D01*
X191151007Y-115915655D01*
X191170341Y-115670000D01*
X191151007Y-115424345D01*
X191093483Y-115184738D01*
X191092604Y-115181075D01*
X191096095Y-115111292D01*
X191125495Y-115064449D01*
X196179511Y-110010432D01*
X196192086Y-110000359D01*
X196191931Y-110000172D01*
X196197933Y-109995205D01*
X196197940Y-109995202D01*
X196245912Y-109944115D01*
X196248561Y-109941382D01*
X196268911Y-109921034D01*
X196271608Y-109917556D01*
X196279196Y-109908672D01*
X196310448Y-109875393D01*
X196320670Y-109856796D01*
X196331355Y-109840531D01*
X196344363Y-109823763D01*
X196362491Y-109781870D01*
X196367627Y-109771382D01*
X196389627Y-109731368D01*
X196394904Y-109710808D01*
X196401206Y-109692403D01*
X196409636Y-109672926D01*
X196416779Y-109627820D01*
X196419143Y-109616405D01*
X196430500Y-109572177D01*
X196430500Y-109550955D01*
X196432027Y-109531555D01*
X196435347Y-109510595D01*
X196431050Y-109465140D01*
X196430500Y-109453470D01*
X196430500Y-84040503D01*
X196432268Y-84024491D01*
X196432026Y-84024469D01*
X196432760Y-84016706D01*
X196430561Y-83946722D01*
X196430500Y-83942828D01*
X196430500Y-83914078D01*
X196430499Y-83914071D01*
X196429950Y-83909725D01*
X196429031Y-83898062D01*
X196427598Y-83852431D01*
X196421676Y-83832050D01*
X196417731Y-83812995D01*
X196415072Y-83791949D01*
X196415071Y-83791947D01*
X196415071Y-83791942D01*
X196398267Y-83749501D01*
X196394484Y-83738452D01*
X196381745Y-83694602D01*
X196381142Y-83693583D01*
X196370936Y-83676324D01*
X196362378Y-83658855D01*
X196354568Y-83639129D01*
X196327721Y-83602179D01*
X196321331Y-83592449D01*
X196298081Y-83553135D01*
X196283075Y-83538129D01*
X196270435Y-83523330D01*
X196257961Y-83506160D01*
X196222780Y-83477056D01*
X196214140Y-83469194D01*
X192038493Y-79293547D01*
X192005008Y-79232224D01*
X192005969Y-79175425D01*
X192036131Y-79056317D01*
X192036133Y-79056308D01*
X192036134Y-79056305D01*
X192036135Y-79056297D01*
X192055300Y-78825006D01*
X192055300Y-78824993D01*
X192036135Y-78593702D01*
X192036133Y-78593691D01*
X191979157Y-78368699D01*
X191885924Y-78156151D01*
X191758983Y-77961852D01*
X191758980Y-77961849D01*
X191758979Y-77961847D01*
X191601784Y-77791087D01*
X191601779Y-77791083D01*
X191601777Y-77791081D01*
X191418634Y-77648535D01*
X191418628Y-77648531D01*
X191214504Y-77538064D01*
X191214495Y-77538061D01*
X190994984Y-77462702D01*
X190807404Y-77431401D01*
X190766049Y-77424500D01*
X190533951Y-77424500D01*
X190492596Y-77431401D01*
X190305015Y-77462702D01*
X190085504Y-77538061D01*
X190085495Y-77538064D01*
X189881371Y-77648531D01*
X189881365Y-77648535D01*
X189698222Y-77791081D01*
X189698219Y-77791084D01*
X189698216Y-77791086D01*
X189698216Y-77791087D01*
X189673785Y-77817627D01*
X189541015Y-77961854D01*
X189503808Y-78018804D01*
X189450662Y-78064161D01*
X189381430Y-78073584D01*
X189318095Y-78044082D01*
X189296192Y-78018804D01*
X189258984Y-77961854D01*
X189258982Y-77961852D01*
X189258979Y-77961847D01*
X189101784Y-77791087D01*
X189101779Y-77791083D01*
X189101777Y-77791081D01*
X188918634Y-77648535D01*
X188918628Y-77648531D01*
X188714504Y-77538064D01*
X188714495Y-77538061D01*
X188494984Y-77462702D01*
X188307404Y-77431401D01*
X188266049Y-77424500D01*
X188033951Y-77424500D01*
X187992596Y-77431401D01*
X187805015Y-77462702D01*
X187585504Y-77538061D01*
X187585495Y-77538064D01*
X187381372Y-77648531D01*
X187204023Y-77786567D01*
X187139029Y-77812209D01*
X187070489Y-77798642D01*
X187020164Y-77750174D01*
X187011679Y-77732045D01*
X186993355Y-77682915D01*
X186993350Y-77682906D01*
X186907190Y-77567812D01*
X186907187Y-77567809D01*
X186792093Y-77481649D01*
X186792086Y-77481645D01*
X186657379Y-77431403D01*
X186657372Y-77431401D01*
X186597844Y-77425000D01*
X185900000Y-77425000D01*
X185900000Y-78389498D01*
X185792315Y-78340320D01*
X185685763Y-78325000D01*
X185614237Y-78325000D01*
X185507685Y-78340320D01*
X185400000Y-78389498D01*
X185400000Y-77425000D01*
X184702155Y-77425000D01*
X184642627Y-77431401D01*
X184642620Y-77431403D01*
X184507913Y-77481645D01*
X184507906Y-77481649D01*
X184392812Y-77567809D01*
X184392809Y-77567812D01*
X184306649Y-77682906D01*
X184306645Y-77682913D01*
X184256403Y-77817620D01*
X184256401Y-77817627D01*
X184250000Y-77877155D01*
X184250000Y-78575000D01*
X185216314Y-78575000D01*
X185190507Y-78615156D01*
X185150000Y-78753111D01*
X185150000Y-78896889D01*
X185190507Y-79034844D01*
X185216314Y-79075000D01*
X184250000Y-79075000D01*
X184250000Y-79772844D01*
X172681016Y-79772844D01*
X172758979Y-79688153D01*
X172885924Y-79493849D01*
X172979157Y-79281300D01*
X173036134Y-79056305D01*
X173036135Y-79056297D01*
X173055300Y-78825006D01*
X173055300Y-78824993D01*
X173036135Y-78593702D01*
X173036133Y-78593691D01*
X172979157Y-78368699D01*
X172885924Y-78156151D01*
X172758983Y-77961852D01*
X172758980Y-77961849D01*
X172758979Y-77961847D01*
X172601784Y-77791087D01*
X172601779Y-77791083D01*
X172601777Y-77791081D01*
X172418634Y-77648535D01*
X172418628Y-77648531D01*
X172214504Y-77538064D01*
X172214495Y-77538061D01*
X171994984Y-77462702D01*
X171807404Y-77431401D01*
X171766049Y-77424500D01*
X171533951Y-77424500D01*
X171492596Y-77431401D01*
X171305015Y-77462702D01*
X171085504Y-77538061D01*
X171085495Y-77538064D01*
X170881371Y-77648531D01*
X170881365Y-77648535D01*
X170698222Y-77791081D01*
X170698219Y-77791084D01*
X170698216Y-77791086D01*
X170698216Y-77791087D01*
X170673785Y-77817627D01*
X170541015Y-77961854D01*
X170503808Y-78018804D01*
X170450662Y-78064161D01*
X170381430Y-78073584D01*
X170318095Y-78044082D01*
X170296192Y-78018804D01*
X170258984Y-77961854D01*
X170258982Y-77961852D01*
X170258979Y-77961847D01*
X170101784Y-77791087D01*
X170101779Y-77791083D01*
X170101777Y-77791081D01*
X169918634Y-77648535D01*
X169918628Y-77648531D01*
X169714504Y-77538064D01*
X169714495Y-77538061D01*
X169494984Y-77462702D01*
X169307404Y-77431401D01*
X169266049Y-77424500D01*
X169033951Y-77424500D01*
X168992596Y-77431401D01*
X168805015Y-77462702D01*
X168585504Y-77538061D01*
X168585495Y-77538064D01*
X168381372Y-77648531D01*
X168204023Y-77786567D01*
X168139029Y-77812209D01*
X168070489Y-77798642D01*
X168020164Y-77750174D01*
X168011679Y-77732045D01*
X167993355Y-77682915D01*
X167993350Y-77682906D01*
X167907190Y-77567812D01*
X167907187Y-77567809D01*
X167792093Y-77481649D01*
X167792086Y-77481645D01*
X167657379Y-77431403D01*
X167657372Y-77431401D01*
X167597844Y-77425000D01*
X166900000Y-77425000D01*
X166900000Y-78389498D01*
X166792315Y-78340320D01*
X166685763Y-78325000D01*
X166614237Y-78325000D01*
X166507685Y-78340320D01*
X166400000Y-78389498D01*
X166400000Y-77425000D01*
X165702155Y-77425000D01*
X165642627Y-77431401D01*
X165642620Y-77431403D01*
X165507913Y-77481645D01*
X165507906Y-77481649D01*
X165392812Y-77567809D01*
X165392809Y-77567812D01*
X165306649Y-77682906D01*
X165306645Y-77682913D01*
X165256403Y-77817620D01*
X165256401Y-77817627D01*
X165250000Y-77877155D01*
X165250000Y-78575000D01*
X166216314Y-78575000D01*
X166190507Y-78615156D01*
X166150000Y-78753111D01*
X166150000Y-78896889D01*
X166190507Y-79034844D01*
X166216314Y-79075000D01*
X165250000Y-79075000D01*
X165250000Y-79772844D01*
X159150500Y-79772844D01*
X159150500Y-71653017D01*
X162489500Y-71653017D01*
X162504403Y-71856615D01*
X162504405Y-71856629D01*
X162563615Y-72122435D01*
X162563618Y-72122442D01*
X162660907Y-72376814D01*
X162794196Y-72614310D01*
X162960645Y-72829868D01*
X163156705Y-73018894D01*
X163156708Y-73018896D01*
X163156709Y-73018897D01*
X163378189Y-73177352D01*
X163378192Y-73177353D01*
X163378198Y-73177358D01*
X163620403Y-73301885D01*
X163620407Y-73301886D01*
X163620411Y-73301888D01*
X163878145Y-73389815D01*
X163878151Y-73389816D01*
X163878159Y-73389819D01*
X164038564Y-73419447D01*
X164145959Y-73439284D01*
X164145961Y-73439284D01*
X164145971Y-73439286D01*
X164363699Y-73447242D01*
X164418129Y-73449232D01*
X164418129Y-73449231D01*
X164418131Y-73449232D01*
X164688839Y-73419446D01*
X164952326Y-73350562D01*
X165202975Y-73244047D01*
X165435444Y-73102173D01*
X165644779Y-72927963D01*
X165826518Y-72725131D01*
X165976788Y-72497998D01*
X166092386Y-72251406D01*
X166170847Y-71990611D01*
X166210500Y-71721171D01*
X166210500Y-71653017D01*
X172089500Y-71653017D01*
X172104403Y-71856615D01*
X172104405Y-71856629D01*
X172163615Y-72122435D01*
X172163618Y-72122442D01*
X172260907Y-72376814D01*
X172394196Y-72614310D01*
X172560645Y-72829868D01*
X172756705Y-73018894D01*
X172756708Y-73018896D01*
X172756709Y-73018897D01*
X172978189Y-73177352D01*
X172978192Y-73177353D01*
X172978198Y-73177358D01*
X173220403Y-73301885D01*
X173220407Y-73301886D01*
X173220411Y-73301888D01*
X173478145Y-73389815D01*
X173478151Y-73389816D01*
X173478159Y-73389819D01*
X173638564Y-73419447D01*
X173745959Y-73439284D01*
X173745961Y-73439284D01*
X173745971Y-73439286D01*
X173963699Y-73447242D01*
X174018129Y-73449232D01*
X174018129Y-73449231D01*
X174018131Y-73449232D01*
X174288839Y-73419446D01*
X174552326Y-73350562D01*
X174802975Y-73244047D01*
X175035444Y-73102173D01*
X175244779Y-72927963D01*
X175426518Y-72725131D01*
X175576788Y-72497998D01*
X175692386Y-72251406D01*
X175770847Y-71990611D01*
X175810500Y-71721171D01*
X175810500Y-71653017D01*
X181489500Y-71653017D01*
X181504403Y-71856615D01*
X181504405Y-71856629D01*
X181563615Y-72122435D01*
X181563618Y-72122442D01*
X181660907Y-72376814D01*
X181794196Y-72614310D01*
X181960645Y-72829868D01*
X182156705Y-73018894D01*
X182156708Y-73018896D01*
X182156709Y-73018897D01*
X182378189Y-73177352D01*
X182378192Y-73177353D01*
X182378198Y-73177358D01*
X182620403Y-73301885D01*
X182620407Y-73301886D01*
X182620411Y-73301888D01*
X182878145Y-73389815D01*
X182878151Y-73389816D01*
X182878159Y-73389819D01*
X183038564Y-73419447D01*
X183145959Y-73439284D01*
X183145961Y-73439284D01*
X183145971Y-73439286D01*
X183363699Y-73447242D01*
X183418129Y-73449232D01*
X183418129Y-73449231D01*
X183418131Y-73449232D01*
X183688839Y-73419446D01*
X183952326Y-73350562D01*
X184202975Y-73244047D01*
X184435444Y-73102173D01*
X184644779Y-72927963D01*
X184826518Y-72725131D01*
X184976788Y-72497998D01*
X185092386Y-72251406D01*
X185170847Y-71990611D01*
X185210500Y-71721171D01*
X185210500Y-71653017D01*
X191089500Y-71653017D01*
X191104403Y-71856615D01*
X191104405Y-71856629D01*
X191163615Y-72122435D01*
X191163618Y-72122442D01*
X191260907Y-72376814D01*
X191394196Y-72614310D01*
X191560645Y-72829868D01*
X191756705Y-73018894D01*
X191756708Y-73018896D01*
X191756709Y-73018897D01*
X191978189Y-73177352D01*
X191978192Y-73177353D01*
X191978198Y-73177358D01*
X192220403Y-73301885D01*
X192220407Y-73301886D01*
X192220411Y-73301888D01*
X192478145Y-73389815D01*
X192478151Y-73389816D01*
X192478159Y-73389819D01*
X192638564Y-73419447D01*
X192745959Y-73439284D01*
X192745961Y-73439284D01*
X192745971Y-73439286D01*
X192963699Y-73447242D01*
X193018129Y-73449232D01*
X193018129Y-73449231D01*
X193018131Y-73449232D01*
X193288839Y-73419446D01*
X193552326Y-73350562D01*
X193802975Y-73244047D01*
X194035444Y-73102173D01*
X194244779Y-72927963D01*
X194426518Y-72725131D01*
X194576788Y-72497998D01*
X194692386Y-72251406D01*
X194770847Y-71990611D01*
X194810500Y-71721171D01*
X194810500Y-70997000D01*
X194795597Y-70793384D01*
X194795594Y-70793370D01*
X194736384Y-70527564D01*
X194736382Y-70527560D01*
X194736382Y-70527558D01*
X194639093Y-70273186D01*
X194505804Y-70035690D01*
X194339355Y-69820132D01*
X194143295Y-69631106D01*
X194143292Y-69631104D01*
X194143290Y-69631102D01*
X193921810Y-69472647D01*
X193921804Y-69472643D01*
X193921802Y-69472642D01*
X193792092Y-69405953D01*
X193679602Y-69348117D01*
X193679588Y-69348111D01*
X193421854Y-69260184D01*
X193421841Y-69260181D01*
X193421836Y-69260180D01*
X193154040Y-69210715D01*
X193154020Y-69210713D01*
X192881870Y-69200767D01*
X192611172Y-69230552D01*
X192611159Y-69230554D01*
X192347679Y-69299436D01*
X192097025Y-69405953D01*
X191864560Y-69547824D01*
X191864550Y-69547831D01*
X191655222Y-69722035D01*
X191473482Y-69924868D01*
X191323213Y-70151999D01*
X191207613Y-70398597D01*
X191129152Y-70659392D01*
X191109847Y-70790568D01*
X191089500Y-70928829D01*
X191089500Y-70928833D01*
X191089500Y-71653017D01*
X185210500Y-71653017D01*
X185210500Y-70997000D01*
X185195597Y-70793384D01*
X185195594Y-70793370D01*
X185136384Y-70527564D01*
X185136382Y-70527560D01*
X185136382Y-70527558D01*
X185039093Y-70273186D01*
X184905804Y-70035690D01*
X184739355Y-69820132D01*
X184543295Y-69631106D01*
X184543292Y-69631104D01*
X184543290Y-69631102D01*
X184321810Y-69472647D01*
X184321804Y-69472643D01*
X184321802Y-69472642D01*
X184192092Y-69405953D01*
X184079602Y-69348117D01*
X184079588Y-69348111D01*
X183821854Y-69260184D01*
X183821841Y-69260181D01*
X183821836Y-69260180D01*
X183554040Y-69210715D01*
X183554020Y-69210713D01*
X183281870Y-69200767D01*
X183011172Y-69230552D01*
X183011159Y-69230554D01*
X182747679Y-69299436D01*
X182497025Y-69405953D01*
X182264560Y-69547824D01*
X182264550Y-69547831D01*
X182055222Y-69722035D01*
X181873482Y-69924868D01*
X181723213Y-70151999D01*
X181607613Y-70398597D01*
X181529152Y-70659392D01*
X181509847Y-70790568D01*
X181489500Y-70928829D01*
X181489500Y-70928833D01*
X181489500Y-71653017D01*
X175810500Y-71653017D01*
X175810500Y-70997000D01*
X175795597Y-70793384D01*
X175795594Y-70793370D01*
X175736384Y-70527564D01*
X175736382Y-70527560D01*
X175736382Y-70527558D01*
X175639093Y-70273186D01*
X175505804Y-70035690D01*
X175339355Y-69820132D01*
X175143295Y-69631106D01*
X175143292Y-69631104D01*
X175143290Y-69631102D01*
X174921810Y-69472647D01*
X174921804Y-69472643D01*
X174921802Y-69472642D01*
X174792092Y-69405953D01*
X174679602Y-69348117D01*
X174679588Y-69348111D01*
X174421854Y-69260184D01*
X174421841Y-69260181D01*
X174421836Y-69260180D01*
X174154040Y-69210715D01*
X174154020Y-69210713D01*
X173881870Y-69200767D01*
X173611172Y-69230552D01*
X173611159Y-69230554D01*
X173347679Y-69299436D01*
X173097025Y-69405953D01*
X172864560Y-69547824D01*
X172864550Y-69547831D01*
X172655222Y-69722035D01*
X172473482Y-69924868D01*
X172323213Y-70151999D01*
X172207613Y-70398597D01*
X172129152Y-70659392D01*
X172109847Y-70790568D01*
X172089500Y-70928829D01*
X172089500Y-70928833D01*
X172089500Y-71653017D01*
X166210500Y-71653017D01*
X166210500Y-70997000D01*
X166195597Y-70793384D01*
X166195594Y-70793370D01*
X166136384Y-70527564D01*
X166136382Y-70527560D01*
X166136382Y-70527558D01*
X166039093Y-70273186D01*
X165905804Y-70035690D01*
X165739355Y-69820132D01*
X165543295Y-69631106D01*
X165543292Y-69631104D01*
X165543290Y-69631102D01*
X165321810Y-69472647D01*
X165321804Y-69472643D01*
X165321802Y-69472642D01*
X165192092Y-69405953D01*
X165079602Y-69348117D01*
X165079588Y-69348111D01*
X164821854Y-69260184D01*
X164821841Y-69260181D01*
X164821836Y-69260180D01*
X164554040Y-69210715D01*
X164554020Y-69210713D01*
X164281870Y-69200767D01*
X164011172Y-69230552D01*
X164011159Y-69230554D01*
X163747679Y-69299436D01*
X163497025Y-69405953D01*
X163264560Y-69547824D01*
X163264550Y-69547831D01*
X163055222Y-69722035D01*
X162873482Y-69924868D01*
X162723213Y-70151999D01*
X162607613Y-70398597D01*
X162529152Y-70659392D01*
X162509847Y-70790568D01*
X162489500Y-70928829D01*
X162489500Y-70928833D01*
X162489500Y-71653017D01*
X159150500Y-71653017D01*
X159150500Y-59772844D01*
X174750000Y-59772844D01*
X174756401Y-59832372D01*
X174756403Y-59832379D01*
X174806645Y-59967086D01*
X174806649Y-59967093D01*
X174892809Y-60082187D01*
X174892812Y-60082190D01*
X175007906Y-60168350D01*
X175007913Y-60168354D01*
X175142620Y-60218596D01*
X175142627Y-60218598D01*
X175202155Y-60224999D01*
X175202172Y-60225000D01*
X175900000Y-60225000D01*
X175900000Y-59260501D01*
X176007685Y-59309680D01*
X176114237Y-59325000D01*
X176185763Y-59325000D01*
X176292315Y-59309680D01*
X176400000Y-59260501D01*
X176400000Y-60225000D01*
X177097828Y-60225000D01*
X177097844Y-60224999D01*
X177157372Y-60218598D01*
X177157379Y-60218596D01*
X177292086Y-60168354D01*
X177292093Y-60168350D01*
X177407187Y-60082190D01*
X177407190Y-60082187D01*
X177493350Y-59967093D01*
X177493353Y-59967088D01*
X177511678Y-59917955D01*
X177553549Y-59862020D01*
X177619013Y-59837602D01*
X177687286Y-59852453D01*
X177704023Y-59863433D01*
X177881365Y-60001464D01*
X177881371Y-60001468D01*
X177881374Y-60001470D01*
X178085497Y-60111936D01*
X178199487Y-60151068D01*
X178305015Y-60187297D01*
X178305017Y-60187297D01*
X178305019Y-60187298D01*
X178533951Y-60225500D01*
X178533952Y-60225500D01*
X178766048Y-60225500D01*
X178766049Y-60225500D01*
X178994981Y-60187298D01*
X179214503Y-60111936D01*
X179418626Y-60001470D01*
X179601784Y-59858913D01*
X179758979Y-59688153D01*
X179796191Y-59631196D01*
X179849337Y-59585839D01*
X179918569Y-59576415D01*
X179981904Y-59605917D01*
X180003809Y-59631196D01*
X180041016Y-59688147D01*
X180041019Y-59688151D01*
X180041021Y-59688153D01*
X180198216Y-59858913D01*
X180198219Y-59858915D01*
X180198222Y-59858918D01*
X180381365Y-60001464D01*
X180381371Y-60001468D01*
X180381374Y-60001470D01*
X180585497Y-60111936D01*
X180699487Y-60151068D01*
X180805015Y-60187297D01*
X180805017Y-60187297D01*
X180805019Y-60187298D01*
X181033951Y-60225500D01*
X181033952Y-60225500D01*
X181266048Y-60225500D01*
X181266049Y-60225500D01*
X181494981Y-60187298D01*
X181714503Y-60111936D01*
X181918626Y-60001470D01*
X182101784Y-59858913D01*
X182258979Y-59688153D01*
X182385924Y-59493849D01*
X182479157Y-59281300D01*
X182536134Y-59056305D01*
X182536135Y-59056297D01*
X182555300Y-58825006D01*
X182555300Y-58824993D01*
X182536135Y-58593702D01*
X182536133Y-58593691D01*
X182479157Y-58368699D01*
X182385924Y-58156151D01*
X182258983Y-57961852D01*
X182258980Y-57961849D01*
X182258979Y-57961847D01*
X182101784Y-57791087D01*
X182101779Y-57791083D01*
X182101777Y-57791081D01*
X181918634Y-57648535D01*
X181918628Y-57648531D01*
X181714504Y-57538064D01*
X181714495Y-57538061D01*
X181494984Y-57462702D01*
X181307404Y-57431401D01*
X181266049Y-57424500D01*
X181033951Y-57424500D01*
X180992596Y-57431401D01*
X180805015Y-57462702D01*
X180585504Y-57538061D01*
X180585495Y-57538064D01*
X180381371Y-57648531D01*
X180381365Y-57648535D01*
X180198222Y-57791081D01*
X180198219Y-57791084D01*
X180198216Y-57791086D01*
X180198216Y-57791087D01*
X180173785Y-57817627D01*
X180041015Y-57961854D01*
X180003808Y-58018804D01*
X179950662Y-58064161D01*
X179881430Y-58073584D01*
X179818095Y-58044082D01*
X179796192Y-58018804D01*
X179758984Y-57961854D01*
X179758982Y-57961852D01*
X179758979Y-57961847D01*
X179601784Y-57791087D01*
X179601779Y-57791083D01*
X179601777Y-57791081D01*
X179418634Y-57648535D01*
X179418628Y-57648531D01*
X179214504Y-57538064D01*
X179214495Y-57538061D01*
X178994984Y-57462702D01*
X178807404Y-57431401D01*
X178766049Y-57424500D01*
X178533951Y-57424500D01*
X178492596Y-57431401D01*
X178305015Y-57462702D01*
X178085504Y-57538061D01*
X178085495Y-57538064D01*
X177881372Y-57648531D01*
X177704023Y-57786567D01*
X177639029Y-57812209D01*
X177570489Y-57798642D01*
X177520164Y-57750174D01*
X177511679Y-57732045D01*
X177493355Y-57682915D01*
X177493350Y-57682906D01*
X177407190Y-57567812D01*
X177407187Y-57567809D01*
X177292093Y-57481649D01*
X177292086Y-57481645D01*
X177157379Y-57431403D01*
X177157372Y-57431401D01*
X177097844Y-57425000D01*
X176400000Y-57425000D01*
X176400000Y-58389498D01*
X176292315Y-58340320D01*
X176185763Y-58325000D01*
X176114237Y-58325000D01*
X176007685Y-58340320D01*
X175900000Y-58389498D01*
X175900000Y-57425000D01*
X175202155Y-57425000D01*
X175142627Y-57431401D01*
X175142620Y-57431403D01*
X175007913Y-57481645D01*
X175007906Y-57481649D01*
X174892812Y-57567809D01*
X174892809Y-57567812D01*
X174806649Y-57682906D01*
X174806645Y-57682913D01*
X174756403Y-57817620D01*
X174756401Y-57817627D01*
X174750000Y-57877155D01*
X174750000Y-58575000D01*
X175716314Y-58575000D01*
X175690507Y-58615156D01*
X175650000Y-58753111D01*
X175650000Y-58896889D01*
X175690507Y-59034844D01*
X175716314Y-59075000D01*
X174750000Y-59075000D01*
X174750000Y-59772844D01*
X159150500Y-59772844D01*
X159150500Y-51653017D01*
X171989500Y-51653017D01*
X172004403Y-51856615D01*
X172004405Y-51856629D01*
X172063615Y-52122435D01*
X172063618Y-52122442D01*
X172160907Y-52376814D01*
X172294196Y-52614310D01*
X172460645Y-52829868D01*
X172656705Y-53018894D01*
X172656708Y-53018896D01*
X172656709Y-53018897D01*
X172878189Y-53177352D01*
X172878192Y-53177353D01*
X172878198Y-53177358D01*
X173120403Y-53301885D01*
X173120407Y-53301886D01*
X173120411Y-53301888D01*
X173378145Y-53389815D01*
X173378151Y-53389816D01*
X173378159Y-53389819D01*
X173538564Y-53419447D01*
X173645959Y-53439284D01*
X173645961Y-53439284D01*
X173645971Y-53439286D01*
X173863699Y-53447242D01*
X173918129Y-53449232D01*
X173918129Y-53449231D01*
X173918131Y-53449232D01*
X174188839Y-53419446D01*
X174452326Y-53350562D01*
X174702975Y-53244047D01*
X174935444Y-53102173D01*
X175144779Y-52927963D01*
X175326518Y-52725131D01*
X175476788Y-52497998D01*
X175592386Y-52251406D01*
X175670847Y-51990611D01*
X175710500Y-51721171D01*
X175710500Y-51653017D01*
X181589500Y-51653017D01*
X181604403Y-51856615D01*
X181604405Y-51856629D01*
X181663615Y-52122435D01*
X181663618Y-52122442D01*
X181760907Y-52376814D01*
X181894196Y-52614310D01*
X182060645Y-52829868D01*
X182256705Y-53018894D01*
X182256708Y-53018896D01*
X182256709Y-53018897D01*
X182478189Y-53177352D01*
X182478192Y-53177353D01*
X182478198Y-53177358D01*
X182720403Y-53301885D01*
X182720407Y-53301886D01*
X182720411Y-53301888D01*
X182978145Y-53389815D01*
X182978151Y-53389816D01*
X182978159Y-53389819D01*
X183138564Y-53419447D01*
X183245959Y-53439284D01*
X183245961Y-53439284D01*
X183245971Y-53439286D01*
X183463699Y-53447242D01*
X183518129Y-53449232D01*
X183518129Y-53449231D01*
X183518131Y-53449232D01*
X183788839Y-53419446D01*
X184052326Y-53350562D01*
X184302975Y-53244047D01*
X184535444Y-53102173D01*
X184744779Y-52927963D01*
X184926518Y-52725131D01*
X185076788Y-52497998D01*
X185192386Y-52251406D01*
X185270847Y-51990611D01*
X185310500Y-51721171D01*
X185310500Y-50997000D01*
X185295597Y-50793384D01*
X185295594Y-50793370D01*
X185236384Y-50527564D01*
X185236382Y-50527560D01*
X185236382Y-50527558D01*
X185139093Y-50273186D01*
X185005804Y-50035690D01*
X184839355Y-49820132D01*
X184643295Y-49631106D01*
X184643292Y-49631104D01*
X184643290Y-49631102D01*
X184421810Y-49472647D01*
X184421804Y-49472643D01*
X184421802Y-49472642D01*
X184292092Y-49405953D01*
X184179602Y-49348117D01*
X184179588Y-49348111D01*
X183921854Y-49260184D01*
X183921841Y-49260181D01*
X183921836Y-49260180D01*
X183654040Y-49210715D01*
X183654020Y-49210713D01*
X183381870Y-49200767D01*
X183111172Y-49230552D01*
X183111159Y-49230554D01*
X182847679Y-49299436D01*
X182597025Y-49405953D01*
X182364560Y-49547824D01*
X182364550Y-49547831D01*
X182155222Y-49722035D01*
X181973482Y-49924868D01*
X181823213Y-50151999D01*
X181707613Y-50398597D01*
X181629152Y-50659392D01*
X181609847Y-50790568D01*
X181589500Y-50928829D01*
X181589500Y-50928833D01*
X181589500Y-51653017D01*
X175710500Y-51653017D01*
X175710500Y-50997000D01*
X175695597Y-50793384D01*
X175695594Y-50793370D01*
X175636384Y-50527564D01*
X175636382Y-50527560D01*
X175636382Y-50527558D01*
X175539093Y-50273186D01*
X175405804Y-50035690D01*
X175239355Y-49820132D01*
X175043295Y-49631106D01*
X175043292Y-49631104D01*
X175043290Y-49631102D01*
X174821810Y-49472647D01*
X174821804Y-49472643D01*
X174821802Y-49472642D01*
X174692092Y-49405953D01*
X174579602Y-49348117D01*
X174579588Y-49348111D01*
X174321854Y-49260184D01*
X174321841Y-49260181D01*
X174321836Y-49260180D01*
X174054040Y-49210715D01*
X174054020Y-49210713D01*
X173781870Y-49200767D01*
X173511172Y-49230552D01*
X173511159Y-49230554D01*
X173247679Y-49299436D01*
X172997025Y-49405953D01*
X172764560Y-49547824D01*
X172764550Y-49547831D01*
X172555222Y-49722035D01*
X172373482Y-49924868D01*
X172223213Y-50151999D01*
X172107613Y-50398597D01*
X172029152Y-50659392D01*
X172009847Y-50790568D01*
X171989500Y-50928829D01*
X171989500Y-50928833D01*
X171989500Y-51653017D01*
X159150500Y-51653017D01*
X159150500Y-46274500D01*
X159170185Y-46207461D01*
X159222989Y-46161706D01*
X159274500Y-46150500D01*
X198025500Y-46150500D01*
X198092539Y-46170185D01*
G37*
%TD.AperFunction*%
%TD*%
M02*
