%TF.GenerationSoftware,KiCad,Pcbnew,7.0.10*%
%TF.CreationDate,2024-02-20T22:03:04-06:00*%
%TF.ProjectId,3340_VCO,33333430-5f56-4434-9f2e-6b696361645f,rev?*%
%TF.SameCoordinates,Original*%
%TF.FileFunction,Legend,Bot*%
%TF.FilePolarity,Positive*%
%FSLAX46Y46*%
G04 Gerber Fmt 4.6, Leading zero omitted, Abs format (unit mm)*
G04 Created by KiCad (PCBNEW 7.0.10) date 2024-02-20 22:03:04*
%MOMM*%
%LPD*%
G01*
G04 APERTURE LIST*
%ADD10C,0.150000*%
%ADD11C,0.120000*%
G04 APERTURE END LIST*
D10*
X197159523Y-125834819D02*
X197159523Y-126549104D01*
X197159523Y-126549104D02*
X197207142Y-126691961D01*
X197207142Y-126691961D02*
X197302380Y-126787200D01*
X197302380Y-126787200D02*
X197445237Y-126834819D01*
X197445237Y-126834819D02*
X197540475Y-126834819D01*
X196159523Y-126834819D02*
X196730951Y-126834819D01*
X196445237Y-126834819D02*
X196445237Y-125834819D01*
X196445237Y-125834819D02*
X196540475Y-125977676D01*
X196540475Y-125977676D02*
X196635713Y-126072914D01*
X196635713Y-126072914D02*
X196730951Y-126120533D01*
X195826189Y-125834819D02*
X195207142Y-125834819D01*
X195207142Y-125834819D02*
X195540475Y-126215771D01*
X195540475Y-126215771D02*
X195397618Y-126215771D01*
X195397618Y-126215771D02*
X195302380Y-126263390D01*
X195302380Y-126263390D02*
X195254761Y-126311009D01*
X195254761Y-126311009D02*
X195207142Y-126406247D01*
X195207142Y-126406247D02*
X195207142Y-126644342D01*
X195207142Y-126644342D02*
X195254761Y-126739580D01*
X195254761Y-126739580D02*
X195302380Y-126787200D01*
X195302380Y-126787200D02*
X195397618Y-126834819D01*
X195397618Y-126834819D02*
X195683332Y-126834819D01*
X195683332Y-126834819D02*
X195778570Y-126787200D01*
X195778570Y-126787200D02*
X195826189Y-126739580D01*
X161709523Y-84634819D02*
X161709523Y-85349104D01*
X161709523Y-85349104D02*
X161757142Y-85491961D01*
X161757142Y-85491961D02*
X161852380Y-85587200D01*
X161852380Y-85587200D02*
X161995237Y-85634819D01*
X161995237Y-85634819D02*
X162090475Y-85634819D01*
X160709523Y-85634819D02*
X161280951Y-85634819D01*
X160995237Y-85634819D02*
X160995237Y-84634819D01*
X160995237Y-84634819D02*
X161090475Y-84777676D01*
X161090475Y-84777676D02*
X161185713Y-84872914D01*
X161185713Y-84872914D02*
X161280951Y-84920533D01*
X160090475Y-84634819D02*
X159995237Y-84634819D01*
X159995237Y-84634819D02*
X159899999Y-84682438D01*
X159899999Y-84682438D02*
X159852380Y-84730057D01*
X159852380Y-84730057D02*
X159804761Y-84825295D01*
X159804761Y-84825295D02*
X159757142Y-85015771D01*
X159757142Y-85015771D02*
X159757142Y-85253866D01*
X159757142Y-85253866D02*
X159804761Y-85444342D01*
X159804761Y-85444342D02*
X159852380Y-85539580D01*
X159852380Y-85539580D02*
X159899999Y-85587200D01*
X159899999Y-85587200D02*
X159995237Y-85634819D01*
X159995237Y-85634819D02*
X160090475Y-85634819D01*
X160090475Y-85634819D02*
X160185713Y-85587200D01*
X160185713Y-85587200D02*
X160233332Y-85539580D01*
X160233332Y-85539580D02*
X160280951Y-85444342D01*
X160280951Y-85444342D02*
X160328570Y-85253866D01*
X160328570Y-85253866D02*
X160328570Y-85015771D01*
X160328570Y-85015771D02*
X160280951Y-84825295D01*
X160280951Y-84825295D02*
X160233332Y-84730057D01*
X160233332Y-84730057D02*
X160185713Y-84682438D01*
X160185713Y-84682438D02*
X160090475Y-84634819D01*
D11*
%TO.C,J13*%
X197680000Y-145720000D02*
X195020000Y-145720000D01*
X197680000Y-130420000D02*
X197680000Y-145720000D01*
X197680000Y-130420000D02*
X195020000Y-130420000D01*
X196350000Y-127820000D02*
X195020000Y-127820000D01*
X195020000Y-130420000D02*
X195020000Y-145720000D01*
X195020000Y-127820000D02*
X195020000Y-129150000D01*
%TO.C,J10*%
X162230000Y-104520000D02*
X159570000Y-104520000D01*
X162230000Y-89220000D02*
X162230000Y-104520000D01*
X162230000Y-89220000D02*
X159570000Y-89220000D01*
X160900000Y-86620000D02*
X159570000Y-86620000D01*
X159570000Y-89220000D02*
X159570000Y-104520000D01*
X159570000Y-86620000D02*
X159570000Y-87950000D01*
%TD*%
M02*
