M48
; DRILL file {KiCad 7.0.10} date Tuesday, February 20, 2024 at 10:03:01 PM
; FORMAT={-:-/ absolute / inch / decimal}
; #@! TF.CreationDate,2024-02-20T22:03:01-06:00
; #@! TF.GenerationSoftware,Kicad,Pcbnew,7.0.10
; #@! TF.FileFunction,Plated,1,2,PTH
FMAT,2
INCH
; #@! TA.AperFunction,Plated,PTH,ViaDrill
T1C0.0157
; #@! TA.AperFunction,Plated,PTH,ComponentDrill
T2C0.0394
; #@! TA.AperFunction,Plated,PTH,ComponentDrill
T3C0.0433
; #@! TA.AperFunction,Plated,PTH,ComponentDrill
T4C0.0480
; #@! TA.AperFunction,Plated,PTH,ComponentDrill
T5C0.0559
; #@! TA.AperFunction,Plated,PTH,ComponentDrill
T6C0.0563
%
G90
G05
T1
X6.9173Y-5.6811
X7.3386Y-5.6811
T2
X6.3346Y-3.4626
X6.3346Y-3.5626
X6.3346Y-3.6626
X6.3346Y-3.7626
X6.3346Y-3.8626
X6.3346Y-3.9626
X6.3346Y-4.0626
X6.561Y-3.1033
X6.561Y-3.8907
X6.6594Y-3.1033
X6.6594Y-3.8907
X6.7579Y-3.1033
X6.7579Y-3.8907
X6.935Y-2.3159
X7.0335Y-2.3159
X7.1319Y-2.3159
X7.3091Y-3.1033
X7.3091Y-3.8907
X7.4075Y-3.1033
X7.4075Y-3.8907
X7.5059Y-3.1033
X7.5059Y-3.8907
X7.7303Y-5.0846
X7.7303Y-5.1846
X7.7303Y-5.2846
X7.7303Y-5.3846
X7.7303Y-5.4846
X7.7303Y-5.5846
X7.7303Y-5.6846
T4
X6.6024Y-4.1051
X6.6024Y-4.674
X6.6024Y-5.2429
X7.0335Y-4.674
X7.0335Y-5.2429
X7.4646Y-4.1051
X7.4646Y-4.674
X7.4646Y-5.2429
T5
X6.6024Y-4.2272
X6.6024Y-4.7961
X6.6024Y-5.365
X7.0335Y-4.7961
X7.0335Y-5.365
X7.4646Y-4.2272
X7.4646Y-4.7961
X7.4646Y-5.365
T6
X6.6024Y-4.5539
X6.6024Y-5.1228
X6.6024Y-5.6917
X7.0335Y-5.1228
X7.0335Y-5.6917
X7.4646Y-4.5539
X7.4646Y-5.1228
X7.4646Y-5.6917
T3
G00X6.4705Y-2.8219
M15
G01X6.4705Y-2.7943
M16
G05
G00X6.4705Y-3.6093
M15
G01X6.4705Y-3.5817
M16
G05
G00X6.8445Y-2.0344
M15
G01X6.8445Y-2.0069
M16
G05
G00X6.8484Y-2.8219
M15
G01X6.8484Y-2.7943
M16
G05
G00X6.8484Y-3.6093
M15
G01X6.8484Y-3.5817
M16
G05
G00X7.2185Y-2.8219
M15
G01X7.2185Y-2.7943
M16
G05
G00X7.2185Y-3.6093
M15
G01X7.2185Y-3.5817
M16
G05
G00X7.2224Y-2.0344
M15
G01X7.2224Y-2.0069
M16
G05
G00X7.5965Y-2.8219
M15
G01X7.5965Y-2.7943
M16
G05
G00X7.5965Y-3.6093
M15
G01X7.5965Y-3.5817
M16
G05
M30
