%TF.GenerationSoftware,KiCad,Pcbnew,7.0.10*%
%TF.CreationDate,2024-02-20T22:03:04-06:00*%
%TF.ProjectId,3340_VCO,33333430-5f56-4434-9f2e-6b696361645f,rev?*%
%TF.SameCoordinates,Original*%
%TF.FileFunction,Legend,Top*%
%TF.FilePolarity,Positive*%
%FSLAX46Y46*%
G04 Gerber Fmt 4.6, Leading zero omitted, Abs format (unit mm)*
G04 Created by KiCad (PCBNEW 7.0.10) date 2024-02-20 22:03:04*
%MOMM*%
%LPD*%
G01*
G04 APERTURE LIST*
%ADD10C,0.150000*%
%ADD11C,0.120000*%
G04 APERTURE END LIST*
D10*
X163336666Y-104804819D02*
X163336666Y-105519104D01*
X163336666Y-105519104D02*
X163289047Y-105661961D01*
X163289047Y-105661961D02*
X163193809Y-105757200D01*
X163193809Y-105757200D02*
X163050952Y-105804819D01*
X163050952Y-105804819D02*
X162955714Y-105804819D01*
X164241428Y-104804819D02*
X164050952Y-104804819D01*
X164050952Y-104804819D02*
X163955714Y-104852438D01*
X163955714Y-104852438D02*
X163908095Y-104900057D01*
X163908095Y-104900057D02*
X163812857Y-105042914D01*
X163812857Y-105042914D02*
X163765238Y-105233390D01*
X163765238Y-105233390D02*
X163765238Y-105614342D01*
X163765238Y-105614342D02*
X163812857Y-105709580D01*
X163812857Y-105709580D02*
X163860476Y-105757200D01*
X163860476Y-105757200D02*
X163955714Y-105804819D01*
X163955714Y-105804819D02*
X164146190Y-105804819D01*
X164146190Y-105804819D02*
X164241428Y-105757200D01*
X164241428Y-105757200D02*
X164289047Y-105709580D01*
X164289047Y-105709580D02*
X164336666Y-105614342D01*
X164336666Y-105614342D02*
X164336666Y-105376247D01*
X164336666Y-105376247D02*
X164289047Y-105281009D01*
X164289047Y-105281009D02*
X164241428Y-105233390D01*
X164241428Y-105233390D02*
X164146190Y-105185771D01*
X164146190Y-105185771D02*
X163955714Y-105185771D01*
X163955714Y-105185771D02*
X163860476Y-105233390D01*
X163860476Y-105233390D02*
X163812857Y-105281009D01*
X163812857Y-105281009D02*
X163765238Y-105376247D01*
X174286666Y-119254819D02*
X174286666Y-119969104D01*
X174286666Y-119969104D02*
X174239047Y-120111961D01*
X174239047Y-120111961D02*
X174143809Y-120207200D01*
X174143809Y-120207200D02*
X174000952Y-120254819D01*
X174000952Y-120254819D02*
X173905714Y-120254819D01*
X175191428Y-119588152D02*
X175191428Y-120254819D01*
X174953333Y-119207200D02*
X174715238Y-119921485D01*
X174715238Y-119921485D02*
X175334285Y-119921485D01*
X176504761Y-87604819D02*
X176171428Y-87128628D01*
X175933333Y-87604819D02*
X175933333Y-86604819D01*
X175933333Y-86604819D02*
X176314285Y-86604819D01*
X176314285Y-86604819D02*
X176409523Y-86652438D01*
X176409523Y-86652438D02*
X176457142Y-86700057D01*
X176457142Y-86700057D02*
X176504761Y-86795295D01*
X176504761Y-86795295D02*
X176504761Y-86938152D01*
X176504761Y-86938152D02*
X176457142Y-87033390D01*
X176457142Y-87033390D02*
X176409523Y-87081009D01*
X176409523Y-87081009D02*
X176314285Y-87128628D01*
X176314285Y-87128628D02*
X175933333Y-87128628D01*
X176790476Y-86604819D02*
X177123809Y-87604819D01*
X177123809Y-87604819D02*
X177457142Y-86604819D01*
X178219047Y-86604819D02*
X178028571Y-86604819D01*
X178028571Y-86604819D02*
X177933333Y-86652438D01*
X177933333Y-86652438D02*
X177885714Y-86700057D01*
X177885714Y-86700057D02*
X177790476Y-86842914D01*
X177790476Y-86842914D02*
X177742857Y-87033390D01*
X177742857Y-87033390D02*
X177742857Y-87414342D01*
X177742857Y-87414342D02*
X177790476Y-87509580D01*
X177790476Y-87509580D02*
X177838095Y-87557200D01*
X177838095Y-87557200D02*
X177933333Y-87604819D01*
X177933333Y-87604819D02*
X178123809Y-87604819D01*
X178123809Y-87604819D02*
X178219047Y-87557200D01*
X178219047Y-87557200D02*
X178266666Y-87509580D01*
X178266666Y-87509580D02*
X178314285Y-87414342D01*
X178314285Y-87414342D02*
X178314285Y-87176247D01*
X178314285Y-87176247D02*
X178266666Y-87081009D01*
X178266666Y-87081009D02*
X178219047Y-87033390D01*
X178219047Y-87033390D02*
X178123809Y-86985771D01*
X178123809Y-86985771D02*
X177933333Y-86985771D01*
X177933333Y-86985771D02*
X177838095Y-87033390D01*
X177838095Y-87033390D02*
X177790476Y-87081009D01*
X177790476Y-87081009D02*
X177742857Y-87176247D01*
X185236666Y-104804819D02*
X185236666Y-105519104D01*
X185236666Y-105519104D02*
X185189047Y-105661961D01*
X185189047Y-105661961D02*
X185093809Y-105757200D01*
X185093809Y-105757200D02*
X184950952Y-105804819D01*
X184950952Y-105804819D02*
X184855714Y-105804819D01*
X186236666Y-105804819D02*
X185665238Y-105804819D01*
X185950952Y-105804819D02*
X185950952Y-104804819D01*
X185950952Y-104804819D02*
X185855714Y-104947676D01*
X185855714Y-104947676D02*
X185760476Y-105042914D01*
X185760476Y-105042914D02*
X185665238Y-105090533D01*
X185236666Y-119254819D02*
X185236666Y-119969104D01*
X185236666Y-119969104D02*
X185189047Y-120111961D01*
X185189047Y-120111961D02*
X185093809Y-120207200D01*
X185093809Y-120207200D02*
X184950952Y-120254819D01*
X184950952Y-120254819D02*
X184855714Y-120254819D01*
X185665238Y-119350057D02*
X185712857Y-119302438D01*
X185712857Y-119302438D02*
X185808095Y-119254819D01*
X185808095Y-119254819D02*
X186046190Y-119254819D01*
X186046190Y-119254819D02*
X186141428Y-119302438D01*
X186141428Y-119302438D02*
X186189047Y-119350057D01*
X186189047Y-119350057D02*
X186236666Y-119445295D01*
X186236666Y-119445295D02*
X186236666Y-119540533D01*
X186236666Y-119540533D02*
X186189047Y-119683390D01*
X186189047Y-119683390D02*
X185617619Y-120254819D01*
X185617619Y-120254819D02*
X186236666Y-120254819D01*
X171964819Y-52710238D02*
X171488628Y-53043571D01*
X171964819Y-53281666D02*
X170964819Y-53281666D01*
X170964819Y-53281666D02*
X170964819Y-52900714D01*
X170964819Y-52900714D02*
X171012438Y-52805476D01*
X171012438Y-52805476D02*
X171060057Y-52757857D01*
X171060057Y-52757857D02*
X171155295Y-52710238D01*
X171155295Y-52710238D02*
X171298152Y-52710238D01*
X171298152Y-52710238D02*
X171393390Y-52757857D01*
X171393390Y-52757857D02*
X171441009Y-52805476D01*
X171441009Y-52805476D02*
X171488628Y-52900714D01*
X171488628Y-52900714D02*
X171488628Y-53281666D01*
X170964819Y-52424523D02*
X171964819Y-52091190D01*
X171964819Y-52091190D02*
X170964819Y-51757857D01*
X171298152Y-50995952D02*
X171964819Y-50995952D01*
X170917200Y-51234047D02*
X171631485Y-51472142D01*
X171631485Y-51472142D02*
X171631485Y-50853095D01*
X176404761Y-67504819D02*
X176071428Y-67028628D01*
X175833333Y-67504819D02*
X175833333Y-66504819D01*
X175833333Y-66504819D02*
X176214285Y-66504819D01*
X176214285Y-66504819D02*
X176309523Y-66552438D01*
X176309523Y-66552438D02*
X176357142Y-66600057D01*
X176357142Y-66600057D02*
X176404761Y-66695295D01*
X176404761Y-66695295D02*
X176404761Y-66838152D01*
X176404761Y-66838152D02*
X176357142Y-66933390D01*
X176357142Y-66933390D02*
X176309523Y-66981009D01*
X176309523Y-66981009D02*
X176214285Y-67028628D01*
X176214285Y-67028628D02*
X175833333Y-67028628D01*
X176690476Y-66504819D02*
X177023809Y-67504819D01*
X177023809Y-67504819D02*
X177357142Y-66504819D01*
X178166666Y-66504819D02*
X177690476Y-66504819D01*
X177690476Y-66504819D02*
X177642857Y-66981009D01*
X177642857Y-66981009D02*
X177690476Y-66933390D01*
X177690476Y-66933390D02*
X177785714Y-66885771D01*
X177785714Y-66885771D02*
X178023809Y-66885771D01*
X178023809Y-66885771D02*
X178119047Y-66933390D01*
X178119047Y-66933390D02*
X178166666Y-66981009D01*
X178166666Y-66981009D02*
X178214285Y-67076247D01*
X178214285Y-67076247D02*
X178214285Y-67314342D01*
X178214285Y-67314342D02*
X178166666Y-67409580D01*
X178166666Y-67409580D02*
X178119047Y-67457200D01*
X178119047Y-67457200D02*
X178023809Y-67504819D01*
X178023809Y-67504819D02*
X177785714Y-67504819D01*
X177785714Y-67504819D02*
X177690476Y-67457200D01*
X177690476Y-67457200D02*
X177642857Y-67409580D01*
X179704761Y-99729819D02*
X179371428Y-99253628D01*
X179133333Y-99729819D02*
X179133333Y-98729819D01*
X179133333Y-98729819D02*
X179514285Y-98729819D01*
X179514285Y-98729819D02*
X179609523Y-98777438D01*
X179609523Y-98777438D02*
X179657142Y-98825057D01*
X179657142Y-98825057D02*
X179704761Y-98920295D01*
X179704761Y-98920295D02*
X179704761Y-99063152D01*
X179704761Y-99063152D02*
X179657142Y-99158390D01*
X179657142Y-99158390D02*
X179609523Y-99206009D01*
X179609523Y-99206009D02*
X179514285Y-99253628D01*
X179514285Y-99253628D02*
X179133333Y-99253628D01*
X179990476Y-98729819D02*
X180323809Y-99729819D01*
X180323809Y-99729819D02*
X180657142Y-98729819D01*
X180895238Y-98729819D02*
X181514285Y-98729819D01*
X181514285Y-98729819D02*
X181180952Y-99110771D01*
X181180952Y-99110771D02*
X181323809Y-99110771D01*
X181323809Y-99110771D02*
X181419047Y-99158390D01*
X181419047Y-99158390D02*
X181466666Y-99206009D01*
X181466666Y-99206009D02*
X181514285Y-99301247D01*
X181514285Y-99301247D02*
X181514285Y-99539342D01*
X181514285Y-99539342D02*
X181466666Y-99634580D01*
X181466666Y-99634580D02*
X181419047Y-99682200D01*
X181419047Y-99682200D02*
X181323809Y-99729819D01*
X181323809Y-99729819D02*
X181038095Y-99729819D01*
X181038095Y-99729819D02*
X180942857Y-99682200D01*
X180942857Y-99682200D02*
X180895238Y-99634580D01*
X163336666Y-133704819D02*
X163336666Y-134419104D01*
X163336666Y-134419104D02*
X163289047Y-134561961D01*
X163289047Y-134561961D02*
X163193809Y-134657200D01*
X163193809Y-134657200D02*
X163050952Y-134704819D01*
X163050952Y-134704819D02*
X162955714Y-134704819D01*
X163717619Y-133704819D02*
X164336666Y-133704819D01*
X164336666Y-133704819D02*
X164003333Y-134085771D01*
X164003333Y-134085771D02*
X164146190Y-134085771D01*
X164146190Y-134085771D02*
X164241428Y-134133390D01*
X164241428Y-134133390D02*
X164289047Y-134181009D01*
X164289047Y-134181009D02*
X164336666Y-134276247D01*
X164336666Y-134276247D02*
X164336666Y-134514342D01*
X164336666Y-134514342D02*
X164289047Y-134609580D01*
X164289047Y-134609580D02*
X164241428Y-134657200D01*
X164241428Y-134657200D02*
X164146190Y-134704819D01*
X164146190Y-134704819D02*
X163860476Y-134704819D01*
X163860476Y-134704819D02*
X163765238Y-134657200D01*
X163765238Y-134657200D02*
X163717619Y-134609580D01*
X185236666Y-133704819D02*
X185236666Y-134419104D01*
X185236666Y-134419104D02*
X185189047Y-134561961D01*
X185189047Y-134561961D02*
X185093809Y-134657200D01*
X185093809Y-134657200D02*
X184950952Y-134704819D01*
X184950952Y-134704819D02*
X184855714Y-134704819D01*
X185760476Y-134704819D02*
X185950952Y-134704819D01*
X185950952Y-134704819D02*
X186046190Y-134657200D01*
X186046190Y-134657200D02*
X186093809Y-134609580D01*
X186093809Y-134609580D02*
X186189047Y-134466723D01*
X186189047Y-134466723D02*
X186236666Y-134276247D01*
X186236666Y-134276247D02*
X186236666Y-133895295D01*
X186236666Y-133895295D02*
X186189047Y-133800057D01*
X186189047Y-133800057D02*
X186141428Y-133752438D01*
X186141428Y-133752438D02*
X186046190Y-133704819D01*
X186046190Y-133704819D02*
X185855714Y-133704819D01*
X185855714Y-133704819D02*
X185760476Y-133752438D01*
X185760476Y-133752438D02*
X185712857Y-133800057D01*
X185712857Y-133800057D02*
X185665238Y-133895295D01*
X185665238Y-133895295D02*
X185665238Y-134133390D01*
X185665238Y-134133390D02*
X185712857Y-134228628D01*
X185712857Y-134228628D02*
X185760476Y-134276247D01*
X185760476Y-134276247D02*
X185855714Y-134323866D01*
X185855714Y-134323866D02*
X186046190Y-134323866D01*
X186046190Y-134323866D02*
X186141428Y-134276247D01*
X186141428Y-134276247D02*
X186189047Y-134228628D01*
X186189047Y-134228628D02*
X186236666Y-134133390D01*
X174286666Y-133704819D02*
X174286666Y-134419104D01*
X174286666Y-134419104D02*
X174239047Y-134561961D01*
X174239047Y-134561961D02*
X174143809Y-134657200D01*
X174143809Y-134657200D02*
X174000952Y-134704819D01*
X174000952Y-134704819D02*
X173905714Y-134704819D01*
X175239047Y-133704819D02*
X174762857Y-133704819D01*
X174762857Y-133704819D02*
X174715238Y-134181009D01*
X174715238Y-134181009D02*
X174762857Y-134133390D01*
X174762857Y-134133390D02*
X174858095Y-134085771D01*
X174858095Y-134085771D02*
X175096190Y-134085771D01*
X175096190Y-134085771D02*
X175191428Y-134133390D01*
X175191428Y-134133390D02*
X175239047Y-134181009D01*
X175239047Y-134181009D02*
X175286666Y-134276247D01*
X175286666Y-134276247D02*
X175286666Y-134514342D01*
X175286666Y-134514342D02*
X175239047Y-134609580D01*
X175239047Y-134609580D02*
X175191428Y-134657200D01*
X175191428Y-134657200D02*
X175096190Y-134704819D01*
X175096190Y-134704819D02*
X174858095Y-134704819D01*
X174858095Y-134704819D02*
X174762857Y-134657200D01*
X174762857Y-134657200D02*
X174715238Y-134609580D01*
X163336666Y-119254819D02*
X163336666Y-119969104D01*
X163336666Y-119969104D02*
X163289047Y-120111961D01*
X163289047Y-120111961D02*
X163193809Y-120207200D01*
X163193809Y-120207200D02*
X163050952Y-120254819D01*
X163050952Y-120254819D02*
X162955714Y-120254819D01*
X163955714Y-119683390D02*
X163860476Y-119635771D01*
X163860476Y-119635771D02*
X163812857Y-119588152D01*
X163812857Y-119588152D02*
X163765238Y-119492914D01*
X163765238Y-119492914D02*
X163765238Y-119445295D01*
X163765238Y-119445295D02*
X163812857Y-119350057D01*
X163812857Y-119350057D02*
X163860476Y-119302438D01*
X163860476Y-119302438D02*
X163955714Y-119254819D01*
X163955714Y-119254819D02*
X164146190Y-119254819D01*
X164146190Y-119254819D02*
X164241428Y-119302438D01*
X164241428Y-119302438D02*
X164289047Y-119350057D01*
X164289047Y-119350057D02*
X164336666Y-119445295D01*
X164336666Y-119445295D02*
X164336666Y-119492914D01*
X164336666Y-119492914D02*
X164289047Y-119588152D01*
X164289047Y-119588152D02*
X164241428Y-119635771D01*
X164241428Y-119635771D02*
X164146190Y-119683390D01*
X164146190Y-119683390D02*
X163955714Y-119683390D01*
X163955714Y-119683390D02*
X163860476Y-119731009D01*
X163860476Y-119731009D02*
X163812857Y-119778628D01*
X163812857Y-119778628D02*
X163765238Y-119873866D01*
X163765238Y-119873866D02*
X163765238Y-120064342D01*
X163765238Y-120064342D02*
X163812857Y-120159580D01*
X163812857Y-120159580D02*
X163860476Y-120207200D01*
X163860476Y-120207200D02*
X163955714Y-120254819D01*
X163955714Y-120254819D02*
X164146190Y-120254819D01*
X164146190Y-120254819D02*
X164241428Y-120207200D01*
X164241428Y-120207200D02*
X164289047Y-120159580D01*
X164289047Y-120159580D02*
X164336666Y-120064342D01*
X164336666Y-120064342D02*
X164336666Y-119873866D01*
X164336666Y-119873866D02*
X164289047Y-119778628D01*
X164289047Y-119778628D02*
X164241428Y-119731009D01*
X164241428Y-119731009D02*
X164146190Y-119683390D01*
X179604761Y-79504819D02*
X179271428Y-79028628D01*
X179033333Y-79504819D02*
X179033333Y-78504819D01*
X179033333Y-78504819D02*
X179414285Y-78504819D01*
X179414285Y-78504819D02*
X179509523Y-78552438D01*
X179509523Y-78552438D02*
X179557142Y-78600057D01*
X179557142Y-78600057D02*
X179604761Y-78695295D01*
X179604761Y-78695295D02*
X179604761Y-78838152D01*
X179604761Y-78838152D02*
X179557142Y-78933390D01*
X179557142Y-78933390D02*
X179509523Y-78981009D01*
X179509523Y-78981009D02*
X179414285Y-79028628D01*
X179414285Y-79028628D02*
X179033333Y-79028628D01*
X179890476Y-78504819D02*
X180223809Y-79504819D01*
X180223809Y-79504819D02*
X180557142Y-78504819D01*
X180842857Y-78600057D02*
X180890476Y-78552438D01*
X180890476Y-78552438D02*
X180985714Y-78504819D01*
X180985714Y-78504819D02*
X181223809Y-78504819D01*
X181223809Y-78504819D02*
X181319047Y-78552438D01*
X181319047Y-78552438D02*
X181366666Y-78600057D01*
X181366666Y-78600057D02*
X181414285Y-78695295D01*
X181414285Y-78695295D02*
X181414285Y-78790533D01*
X181414285Y-78790533D02*
X181366666Y-78933390D01*
X181366666Y-78933390D02*
X180795238Y-79504819D01*
X180795238Y-79504819D02*
X181414285Y-79504819D01*
D11*
%TO.C,J6*%
X163200000Y-106250000D02*
X163200000Y-116750000D01*
X166470000Y-103100000D02*
X166470000Y-103900000D01*
X166470000Y-103100000D02*
X167330000Y-103100000D01*
X166900000Y-116750000D02*
X163200000Y-116750000D01*
X166980000Y-106250000D02*
X163200000Y-106250000D01*
X172200000Y-106250000D02*
X168420000Y-106250000D01*
X172200000Y-106250000D02*
X172200000Y-116750000D01*
X172200000Y-116750000D02*
X168500000Y-116750000D01*
X169500000Y-110750000D02*
G75*
G03*
X165900000Y-110750000I-1800000J0D01*
G01*
X165900000Y-110750000D02*
G75*
G03*
X169500000Y-110750000I1800000J0D01*
G01*
%TO.C,J4*%
X174150000Y-120700000D02*
X174150000Y-131200000D01*
X177420000Y-117550000D02*
X177420000Y-118350000D01*
X177420000Y-117550000D02*
X178280000Y-117550000D01*
X177850000Y-131200000D02*
X174150000Y-131200000D01*
X177930000Y-120700000D02*
X174150000Y-120700000D01*
X183150000Y-120700000D02*
X179370000Y-120700000D01*
X183150000Y-120700000D02*
X183150000Y-131200000D01*
X183150000Y-131200000D02*
X179450000Y-131200000D01*
X180450000Y-125200000D02*
G75*
G03*
X176850000Y-125200000I-1800000J0D01*
G01*
X176850000Y-125200000D02*
G75*
G03*
X180450000Y-125200000I1800000J0D01*
G01*
%TO.C,RV6*%
X164270000Y-97945000D02*
X164270000Y-93225000D01*
X165460000Y-97945000D02*
X164280000Y-97945000D01*
X168360000Y-97945000D02*
X167830000Y-97945000D01*
X170810000Y-97945000D02*
X169980000Y-97945000D01*
X174020000Y-97945000D02*
X172530000Y-97945000D01*
X174020000Y-97945000D02*
X174020000Y-93225000D01*
X164280000Y-89415000D02*
X164280000Y-86355000D01*
X174020000Y-89415000D02*
X174020000Y-86355000D01*
X174020000Y-86355000D02*
X164280000Y-86355000D01*
%TO.C,J1*%
X185100000Y-106250000D02*
X185100000Y-116750000D01*
X188370000Y-103100000D02*
X188370000Y-103900000D01*
X188370000Y-103100000D02*
X189230000Y-103100000D01*
X188800000Y-116750000D02*
X185100000Y-116750000D01*
X188880000Y-106250000D02*
X185100000Y-106250000D01*
X194100000Y-106250000D02*
X190320000Y-106250000D01*
X194100000Y-106250000D02*
X194100000Y-116750000D01*
X194100000Y-116750000D02*
X190400000Y-116750000D01*
X191400000Y-110750000D02*
G75*
G03*
X187800000Y-110750000I-1800000J0D01*
G01*
X187800000Y-110750000D02*
G75*
G03*
X191400000Y-110750000I1800000J0D01*
G01*
%TO.C,J2*%
X185100000Y-120700000D02*
X185100000Y-131200000D01*
X188370000Y-117550000D02*
X188370000Y-118350000D01*
X188370000Y-117550000D02*
X189230000Y-117550000D01*
X188800000Y-131200000D02*
X185100000Y-131200000D01*
X188880000Y-120700000D02*
X185100000Y-120700000D01*
X194100000Y-120700000D02*
X190320000Y-120700000D01*
X194100000Y-120700000D02*
X194100000Y-131200000D01*
X194100000Y-131200000D02*
X190400000Y-131200000D01*
X191400000Y-125200000D02*
G75*
G03*
X187800000Y-125200000I-1800000J0D01*
G01*
X187800000Y-125200000D02*
G75*
G03*
X191400000Y-125200000I1800000J0D01*
G01*
%TO.C,RV4*%
X173770000Y-57945000D02*
X173770000Y-53225000D01*
X174960000Y-57945000D02*
X173780000Y-57945000D01*
X177860000Y-57945000D02*
X177330000Y-57945000D01*
X180310000Y-57945000D02*
X179480000Y-57945000D01*
X183520000Y-57945000D02*
X182030000Y-57945000D01*
X183520000Y-57945000D02*
X183520000Y-53225000D01*
X173780000Y-49415000D02*
X173780000Y-46355000D01*
X183520000Y-49415000D02*
X183520000Y-46355000D01*
X183520000Y-46355000D02*
X173780000Y-46355000D01*
%TO.C,RV5*%
X164270000Y-77945000D02*
X164270000Y-73225000D01*
X165460000Y-77945000D02*
X164280000Y-77945000D01*
X168360000Y-77945000D02*
X167830000Y-77945000D01*
X170810000Y-77945000D02*
X169980000Y-77945000D01*
X174020000Y-77945000D02*
X172530000Y-77945000D01*
X174020000Y-77945000D02*
X174020000Y-73225000D01*
X164280000Y-69415000D02*
X164280000Y-66355000D01*
X174020000Y-69415000D02*
X174020000Y-66355000D01*
X174020000Y-66355000D02*
X164280000Y-66355000D01*
%TO.C,RV3*%
X183270000Y-97945000D02*
X183270000Y-93225000D01*
X184460000Y-97945000D02*
X183280000Y-97945000D01*
X187360000Y-97945000D02*
X186830000Y-97945000D01*
X189810000Y-97945000D02*
X188980000Y-97945000D01*
X193020000Y-97945000D02*
X191530000Y-97945000D01*
X193020000Y-97945000D02*
X193020000Y-93225000D01*
X183280000Y-89415000D02*
X183280000Y-86355000D01*
X193020000Y-89415000D02*
X193020000Y-86355000D01*
X193020000Y-86355000D02*
X183280000Y-86355000D01*
%TO.C,J3*%
X163200000Y-135150000D02*
X163200000Y-145650000D01*
X166470000Y-132000000D02*
X166470000Y-132800000D01*
X166470000Y-132000000D02*
X167330000Y-132000000D01*
X166900000Y-145650000D02*
X163200000Y-145650000D01*
X166980000Y-135150000D02*
X163200000Y-135150000D01*
X172200000Y-135150000D02*
X168420000Y-135150000D01*
X172200000Y-135150000D02*
X172200000Y-145650000D01*
X172200000Y-145650000D02*
X168500000Y-145650000D01*
X169500000Y-139650000D02*
G75*
G03*
X165900000Y-139650000I-1800000J0D01*
G01*
X165900000Y-139650000D02*
G75*
G03*
X169500000Y-139650000I1800000J0D01*
G01*
%TO.C,J9*%
X185100000Y-135150000D02*
X185100000Y-145650000D01*
X188370000Y-132000000D02*
X188370000Y-132800000D01*
X188370000Y-132000000D02*
X189230000Y-132000000D01*
X188800000Y-145650000D02*
X185100000Y-145650000D01*
X188880000Y-135150000D02*
X185100000Y-135150000D01*
X194100000Y-135150000D02*
X190320000Y-135150000D01*
X194100000Y-135150000D02*
X194100000Y-145650000D01*
X194100000Y-145650000D02*
X190400000Y-145650000D01*
X191400000Y-139650000D02*
G75*
G03*
X187800000Y-139650000I-1800000J0D01*
G01*
X187800000Y-139650000D02*
G75*
G03*
X191400000Y-139650000I1800000J0D01*
G01*
%TO.C,J5*%
X174150000Y-135150000D02*
X174150000Y-145650000D01*
X177420000Y-132000000D02*
X177420000Y-132800000D01*
X177420000Y-132000000D02*
X178280000Y-132000000D01*
X177850000Y-145650000D02*
X174150000Y-145650000D01*
X177930000Y-135150000D02*
X174150000Y-135150000D01*
X183150000Y-135150000D02*
X179370000Y-135150000D01*
X183150000Y-135150000D02*
X183150000Y-145650000D01*
X183150000Y-145650000D02*
X179450000Y-145650000D01*
X180450000Y-139650000D02*
G75*
G03*
X176850000Y-139650000I-1800000J0D01*
G01*
X176850000Y-139650000D02*
G75*
G03*
X180450000Y-139650000I1800000J0D01*
G01*
%TO.C,J8*%
X163200000Y-120700000D02*
X163200000Y-131200000D01*
X166470000Y-117550000D02*
X166470000Y-118350000D01*
X166470000Y-117550000D02*
X167330000Y-117550000D01*
X166900000Y-131200000D02*
X163200000Y-131200000D01*
X166980000Y-120700000D02*
X163200000Y-120700000D01*
X172200000Y-120700000D02*
X168420000Y-120700000D01*
X172200000Y-120700000D02*
X172200000Y-131200000D01*
X172200000Y-131200000D02*
X168500000Y-131200000D01*
X169500000Y-125200000D02*
G75*
G03*
X165900000Y-125200000I-1800000J0D01*
G01*
X165900000Y-125200000D02*
G75*
G03*
X169500000Y-125200000I1800000J0D01*
G01*
%TO.C,RV2*%
X183270000Y-77945000D02*
X183270000Y-73225000D01*
X184460000Y-77945000D02*
X183280000Y-77945000D01*
X187360000Y-77945000D02*
X186830000Y-77945000D01*
X189810000Y-77945000D02*
X188980000Y-77945000D01*
X193020000Y-77945000D02*
X191530000Y-77945000D01*
X193020000Y-77945000D02*
X193020000Y-73225000D01*
X183280000Y-69415000D02*
X183280000Y-66355000D01*
X193020000Y-69415000D02*
X193020000Y-66355000D01*
X193020000Y-66355000D02*
X183280000Y-66355000D01*
%TD*%
M02*
