%TF.GenerationSoftware,KiCad,Pcbnew,7.0.10*%
%TF.CreationDate,2024-02-20T22:03:04-06:00*%
%TF.ProjectId,3340_VCO,33333430-5f56-4434-9f2e-6b696361645f,rev?*%
%TF.SameCoordinates,Original*%
%TF.FileFunction,Copper,L1,Top*%
%TF.FilePolarity,Positive*%
%FSLAX46Y46*%
G04 Gerber Fmt 4.6, Leading zero omitted, Abs format (unit mm)*
G04 Created by KiCad (PCBNEW 7.0.10) date 2024-02-20 22:03:04*
%MOMM*%
%LPD*%
G01*
G04 APERTURE LIST*
%TA.AperFunction,ComponentPad*%
%ADD10R,1.930000X1.830000*%
%TD*%
%TA.AperFunction,ComponentPad*%
%ADD11C,2.130000*%
%TD*%
%TA.AperFunction,ComponentPad*%
%ADD12O,2.720000X3.240000*%
%TD*%
%TA.AperFunction,ComponentPad*%
%ADD13R,1.800000X1.800000*%
%TD*%
%TA.AperFunction,ComponentPad*%
%ADD14C,1.800000*%
%TD*%
%TA.AperFunction,ComponentPad*%
%ADD15R,1.700000X1.700000*%
%TD*%
%TA.AperFunction,ComponentPad*%
%ADD16O,1.700000X1.700000*%
%TD*%
%TA.AperFunction,ViaPad*%
%ADD17C,0.800000*%
%TD*%
%TA.AperFunction,Conductor*%
%ADD18C,0.300000*%
%TD*%
G04 APERTURE END LIST*
D10*
%TO.P,J6,S*%
%TO.N,GND*%
X167700000Y-104270000D03*
D11*
%TO.P,J6,T*%
%TO.N,/voct_b*%
X167700000Y-115670000D03*
%TO.P,J6,TN*%
%TO.N,unconnected-(J6-PadTN)*%
X167700000Y-107370000D03*
%TD*%
D10*
%TO.P,J4,S*%
%TO.N,GND*%
X178650000Y-118720000D03*
D11*
%TO.P,J4,T*%
%TO.N,/sync_b*%
X178650000Y-130120000D03*
%TO.P,J4,TN*%
%TO.N,unconnected-(J4-PadTN)*%
X178650000Y-121820000D03*
%TD*%
D12*
%TO.P,RV6,*%
%TO.N,*%
X164350000Y-91325000D03*
X173950000Y-91325000D03*
D13*
%TO.P,RV6,1,1*%
%TO.N,GND*%
X166650000Y-98825000D03*
D14*
%TO.P,RV6,2,2*%
%TO.N,/cvmod_b*%
X169150000Y-98825000D03*
%TO.P,RV6,3,3*%
%TO.N,Net-(J8-PadT)*%
X171650000Y-98825000D03*
%TD*%
D10*
%TO.P,J1,S*%
%TO.N,GND*%
X189600000Y-104270000D03*
D11*
%TO.P,J1,T*%
%TO.N,Net-(J1-PadT)*%
X189600000Y-115670000D03*
%TO.P,J1,TN*%
%TO.N,unconnected-(J1-PadTN)*%
X189600000Y-107370000D03*
%TD*%
D10*
%TO.P,J2,S*%
%TO.N,GND*%
X189600000Y-118720000D03*
D11*
%TO.P,J2,T*%
%TO.N,Net-(J2-PadT)*%
X189600000Y-130120000D03*
%TO.P,J2,TN*%
%TO.N,+5V*%
X189600000Y-121820000D03*
%TD*%
D12*
%TO.P,RV4,*%
%TO.N,*%
X173850000Y-51325000D03*
X183450000Y-51325000D03*
D13*
%TO.P,RV4,1,1*%
%TO.N,GND*%
X176150000Y-58825000D03*
D14*
%TO.P,RV4,2,2*%
%TO.N,/coarse2_b*%
X178650000Y-58825000D03*
%TO.P,RV4,3,3*%
%TO.N,/coarse3_b*%
X181150000Y-58825000D03*
%TD*%
D12*
%TO.P,RV5,*%
%TO.N,*%
X164350000Y-71325000D03*
X173950000Y-71325000D03*
D13*
%TO.P,RV5,1,1*%
%TO.N,GND*%
X166650000Y-78825000D03*
D14*
%TO.P,RV5,2,2*%
%TO.N,/fine2_b*%
X169150000Y-78825000D03*
%TO.P,RV5,3,3*%
%TO.N,/fine3_b*%
X171650000Y-78825000D03*
%TD*%
D12*
%TO.P,RV3,*%
%TO.N,*%
X183350000Y-91325000D03*
X192950000Y-91325000D03*
D13*
%TO.P,RV3,1,1*%
%TO.N,GND*%
X185650000Y-98825000D03*
D14*
%TO.P,RV3,2,2*%
%TO.N,/pwm_b*%
X188150000Y-98825000D03*
%TO.P,RV3,3,3*%
%TO.N,Net-(J2-PadT)*%
X190650000Y-98825000D03*
%TD*%
D10*
%TO.P,J3,S*%
%TO.N,GND*%
X167700000Y-133170000D03*
D11*
%TO.P,J3,T*%
%TO.N,/pulse_b*%
X167700000Y-144570000D03*
%TO.P,J3,TN*%
%TO.N,unconnected-(J3-PadTN)*%
X167700000Y-136270000D03*
%TD*%
D10*
%TO.P,J9,S*%
%TO.N,GND*%
X189600000Y-133170000D03*
D11*
%TO.P,J9,T*%
%TO.N,/tri_b*%
X189600000Y-144570000D03*
%TO.P,J9,TN*%
%TO.N,unconnected-(J9-PadTN)*%
X189600000Y-136270000D03*
%TD*%
D10*
%TO.P,J5,S*%
%TO.N,GND*%
X178650000Y-133170000D03*
D11*
%TO.P,J5,T*%
%TO.N,/saw_b*%
X178650000Y-144570000D03*
%TO.P,J5,TN*%
%TO.N,unconnected-(J5-PadTN)*%
X178650000Y-136270000D03*
%TD*%
D10*
%TO.P,J8,S*%
%TO.N,GND*%
X167700000Y-118720000D03*
D11*
%TO.P,J8,T*%
%TO.N,Net-(J8-PadT)*%
X167700000Y-130120000D03*
%TO.P,J8,TN*%
%TO.N,unconnected-(J8-PadTN)*%
X167700000Y-121820000D03*
%TD*%
D12*
%TO.P,RV2,*%
%TO.N,*%
X183350000Y-71325000D03*
X192950000Y-71325000D03*
D13*
%TO.P,RV2,1,1*%
%TO.N,GND*%
X185650000Y-78825000D03*
D14*
%TO.P,RV2,2,2*%
%TO.N,/linfm_b*%
X188150000Y-78825000D03*
%TO.P,RV2,3,3*%
%TO.N,Net-(J1-PadT)*%
X190650000Y-78825000D03*
%TD*%
D15*
%TO.P,J13,1,Pin_1*%
%TO.N,+5V*%
X196350000Y-129150000D03*
D16*
%TO.P,J13,2,Pin_2*%
%TO.N,/pwm_b*%
X196350000Y-131690000D03*
%TO.P,J13,3,Pin_3*%
%TO.N,/sync_b*%
X196350000Y-134230000D03*
%TO.P,J13,4,Pin_4*%
%TO.N,/pulse_b*%
X196350000Y-136770000D03*
%TO.P,J13,5,Pin_5*%
%TO.N,/saw_b*%
X196350000Y-139310000D03*
%TO.P,J13,6,Pin_6*%
%TO.N,/tri_b*%
X196350000Y-141850000D03*
%TO.P,J13,7,Pin_7*%
%TO.N,GND*%
X196350000Y-144390000D03*
%TD*%
D15*
%TO.P,J10,1,Pin_1*%
%TO.N,/coarse2_b*%
X160900000Y-87950000D03*
D16*
%TO.P,J10,2,Pin_2*%
%TO.N,/coarse3_b*%
X160900000Y-90490000D03*
%TO.P,J10,3,Pin_3*%
%TO.N,/fine2_b*%
X160900000Y-93030000D03*
%TO.P,J10,4,Pin_4*%
%TO.N,/fine3_b*%
X160900000Y-95570000D03*
%TO.P,J10,5,Pin_5*%
%TO.N,/linfm_b*%
X160900000Y-98110000D03*
%TO.P,J10,6,Pin_6*%
%TO.N,/cvmod_b*%
X160900000Y-100650000D03*
%TO.P,J10,7,Pin_7*%
%TO.N,/voct_b*%
X160900000Y-103190000D03*
%TD*%
D17*
%TO.N,GND*%
X175700000Y-144300000D03*
X186400000Y-144300000D03*
%TD*%
D18*
%TO.N,/pulse_b*%
X169900000Y-142400000D02*
X167800000Y-144500000D01*
%TO.N,/saw_b*%
X178650000Y-144500000D02*
X180250000Y-142900000D01*
%TO.N,Net-(J2-PadT)*%
X192600000Y-127120000D02*
X192600000Y-100775000D01*
X189600000Y-130120000D02*
X192600000Y-127120000D01*
X192600000Y-100775000D02*
X190650000Y-98825000D01*
%TO.N,/saw_b*%
X193982894Y-139310000D02*
X196350000Y-139310000D01*
%TO.N,/sync_b*%
X195930000Y-134650000D02*
X183180000Y-134650000D01*
X183180000Y-134650000D02*
X178650000Y-130120000D01*
%TO.N,/pulse_b*%
X195815788Y-136770000D02*
X196350000Y-136770000D01*
X190185788Y-142400000D02*
X195815788Y-136770000D01*
%TO.N,/saw_b*%
X190392894Y-142900000D02*
X193982894Y-139310000D01*
X180250000Y-142900000D02*
X190392894Y-142900000D01*
%TO.N,/sync_b*%
X196350000Y-134230000D02*
X195930000Y-134650000D01*
%TO.N,/pulse_b*%
X190185788Y-142400000D02*
X169900000Y-142400000D01*
%TO.N,/fine3_b*%
X170640000Y-80630000D02*
X170640000Y-91860000D01*
%TO.N,/fine2_b*%
X161460000Y-93590000D02*
X168200000Y-93590000D01*
X170140000Y-91650000D02*
X170140000Y-80620000D01*
X169150000Y-79630000D02*
X169150000Y-78825000D01*
X170140000Y-80620000D02*
X169150000Y-79630000D01*
%TO.N,/coarse3_b*%
X181150000Y-59630000D02*
X181150000Y-58825000D01*
X165860000Y-76170000D02*
X174540000Y-76170000D01*
X161710000Y-90490000D02*
X163690000Y-88510000D01*
X180180000Y-60600000D02*
X181150000Y-59630000D01*
X174540000Y-76170000D02*
X180180000Y-70530000D01*
X163690000Y-78340000D02*
X165860000Y-76170000D01*
X160900000Y-90490000D02*
X161710000Y-90490000D01*
%TO.N,/fine3_b*%
X171650000Y-78825000D02*
X171650000Y-79620000D01*
%TO.N,/coarse3_b*%
X180180000Y-70530000D02*
X180180000Y-60600000D01*
X163690000Y-88510000D02*
X163690000Y-78340000D01*
%TO.N,/coarse2_b*%
X179580000Y-60570000D02*
X178650000Y-59640000D01*
X165640000Y-75610000D02*
X174180000Y-75610000D01*
X160900000Y-87950000D02*
X160900000Y-80350000D01*
X178650000Y-59640000D02*
X178650000Y-58825000D01*
X179580000Y-70210000D02*
X179580000Y-60570000D01*
X174180000Y-75610000D02*
X179580000Y-70210000D01*
X160900000Y-80350000D02*
X165640000Y-75610000D01*
%TO.N,/pwm_b*%
X188150000Y-102400000D02*
X188150000Y-98825000D01*
X186700000Y-103850000D02*
X188150000Y-102400000D01*
%TO.N,/fine3_b*%
X171650000Y-79620000D02*
X170640000Y-80630000D01*
%TO.N,/pwm_b*%
X188190000Y-131690000D02*
X186700000Y-130200000D01*
X186700000Y-130200000D02*
X186700000Y-103850000D01*
X196350000Y-131690000D02*
X188190000Y-131690000D01*
%TO.N,/fine3_b*%
X166930000Y-95570000D02*
X160900000Y-95570000D01*
%TO.N,/fine2_b*%
X160900000Y-93030000D02*
X161460000Y-93590000D01*
%TO.N,/tri_b*%
X192320000Y-141850000D02*
X196350000Y-141850000D01*
X189600000Y-144570000D02*
X192320000Y-141850000D01*
%TO.N,Net-(J8-PadT)*%
X171650000Y-98825000D02*
X171650000Y-126170000D01*
%TO.N,/fine2_b*%
X168200000Y-93590000D02*
X170140000Y-91650000D01*
%TO.N,Net-(J8-PadT)*%
X171650000Y-126170000D02*
X167700000Y-130120000D01*
%TO.N,/voct_b*%
X160900000Y-108870000D02*
X160900000Y-103190000D01*
X167700000Y-115670000D02*
X160900000Y-108870000D01*
%TO.N,/cvmod_b*%
X168110000Y-100650000D02*
X169150000Y-99610000D01*
X169150000Y-99610000D02*
X169150000Y-98825000D01*
%TO.N,/linfm_b*%
X173120000Y-96840000D02*
X188150000Y-81810000D01*
%TO.N,/cvmod_b*%
X160900000Y-100650000D02*
X168110000Y-100650000D01*
%TO.N,/linfm_b*%
X188150000Y-81810000D02*
X188150000Y-78825000D01*
%TO.N,/fine3_b*%
X170640000Y-91860000D02*
X166930000Y-95570000D01*
%TO.N,/linfm_b*%
X160900000Y-98110000D02*
X162170000Y-96840000D01*
X162170000Y-96840000D02*
X173120000Y-96840000D01*
%TD*%
%TA.AperFunction,Conductor*%
%TO.N,GND*%
G36*
X165270002Y-97510185D02*
G01*
X165315757Y-97562989D01*
X165325701Y-97632147D01*
X165308453Y-97673793D01*
X165310897Y-97675128D01*
X165306645Y-97682913D01*
X165256403Y-97817620D01*
X165256401Y-97817627D01*
X165250000Y-97877155D01*
X165250000Y-98575000D01*
X166216314Y-98575000D01*
X166190507Y-98615156D01*
X166150000Y-98753111D01*
X166150000Y-98896889D01*
X166190507Y-99034844D01*
X166216314Y-99075000D01*
X165250000Y-99075000D01*
X165250000Y-99772844D01*
X165256401Y-99832372D01*
X165258187Y-99839930D01*
X165256900Y-99840233D01*
X165261309Y-99901856D01*
X165227825Y-99963180D01*
X165166502Y-99996666D01*
X165140142Y-99999500D01*
X162157721Y-99999500D01*
X162090682Y-99979815D01*
X162056146Y-99946623D01*
X161938494Y-99778597D01*
X161771402Y-99611506D01*
X161771396Y-99611501D01*
X161585842Y-99481575D01*
X161542217Y-99426998D01*
X161535023Y-99357500D01*
X161566546Y-99295145D01*
X161585842Y-99278425D01*
X161608026Y-99262891D01*
X161771401Y-99148495D01*
X161938495Y-98981401D01*
X162074035Y-98787830D01*
X162173903Y-98573663D01*
X162235063Y-98345408D01*
X162255659Y-98110000D01*
X162235063Y-97874592D01*
X162215614Y-97802007D01*
X162217277Y-97732162D01*
X162247704Y-97682240D01*
X162403128Y-97526816D01*
X162464451Y-97493334D01*
X162490808Y-97490500D01*
X165202963Y-97490500D01*
X165270002Y-97510185D01*
G37*
%TD.AperFunction*%
%TA.AperFunction,Conductor*%
G36*
X165169334Y-77883126D02*
G01*
X165225267Y-77924998D01*
X165249684Y-77990462D01*
X165250000Y-77999308D01*
X165250000Y-78575000D01*
X166216314Y-78575000D01*
X166190507Y-78615156D01*
X166150000Y-78753111D01*
X166150000Y-78896889D01*
X166190507Y-79034844D01*
X166216314Y-79075000D01*
X165250000Y-79075000D01*
X165250000Y-79772844D01*
X165256401Y-79832372D01*
X165256403Y-79832379D01*
X165306645Y-79967086D01*
X165306649Y-79967093D01*
X165392809Y-80082187D01*
X165392812Y-80082190D01*
X165507906Y-80168350D01*
X165507913Y-80168354D01*
X165642620Y-80218596D01*
X165642627Y-80218598D01*
X165702155Y-80224999D01*
X165702172Y-80225000D01*
X166400000Y-80225000D01*
X166400000Y-79260501D01*
X166507685Y-79309680D01*
X166614237Y-79325000D01*
X166685763Y-79325000D01*
X166792315Y-79309680D01*
X166900000Y-79260501D01*
X166900000Y-80225000D01*
X167597828Y-80225000D01*
X167597844Y-80224999D01*
X167657372Y-80218598D01*
X167657379Y-80218596D01*
X167792086Y-80168354D01*
X167792093Y-80168350D01*
X167907187Y-80082190D01*
X167907190Y-80082187D01*
X167993350Y-79967093D01*
X167993353Y-79967088D01*
X168011678Y-79917955D01*
X168053549Y-79862020D01*
X168119013Y-79837602D01*
X168187286Y-79852453D01*
X168204023Y-79863433D01*
X168381365Y-80001464D01*
X168381371Y-80001468D01*
X168381374Y-80001470D01*
X168585497Y-80111936D01*
X168689386Y-80147601D01*
X168750982Y-80168747D01*
X168798401Y-80198347D01*
X169453181Y-80853127D01*
X169486666Y-80914450D01*
X169489500Y-80940808D01*
X169489500Y-91329192D01*
X169469815Y-91396231D01*
X169453181Y-91416873D01*
X167966873Y-92903181D01*
X167905550Y-92936666D01*
X167879192Y-92939500D01*
X165912042Y-92939500D01*
X165845003Y-92919815D01*
X165799248Y-92867011D01*
X165789304Y-92797853D01*
X165818329Y-92734297D01*
X165819688Y-92732755D01*
X165826515Y-92725135D01*
X165826518Y-92725131D01*
X165976788Y-92497998D01*
X166092386Y-92251406D01*
X166170847Y-91990611D01*
X166210500Y-91721171D01*
X166210500Y-90997000D01*
X166195597Y-90793384D01*
X166180454Y-90725403D01*
X166136384Y-90527564D01*
X166136382Y-90527560D01*
X166136382Y-90527558D01*
X166039093Y-90273186D01*
X165905804Y-90035690D01*
X165739355Y-89820132D01*
X165543295Y-89631106D01*
X165543292Y-89631104D01*
X165543290Y-89631102D01*
X165321810Y-89472647D01*
X165321804Y-89472643D01*
X165321802Y-89472642D01*
X165192092Y-89405953D01*
X165079602Y-89348117D01*
X165079588Y-89348111D01*
X164821854Y-89260184D01*
X164821841Y-89260181D01*
X164821836Y-89260180D01*
X164554040Y-89210715D01*
X164554020Y-89210713D01*
X164281869Y-89200767D01*
X164281867Y-89200767D01*
X164227469Y-89206752D01*
X164158679Y-89194517D01*
X164107424Y-89147033D01*
X164089977Y-89079376D01*
X164111878Y-89013028D01*
X164123507Y-88998623D01*
X164155866Y-88964165D01*
X164158578Y-88961367D01*
X164178911Y-88941035D01*
X164181606Y-88937560D01*
X164189199Y-88928669D01*
X164209095Y-88907483D01*
X164220448Y-88895393D01*
X164230674Y-88876789D01*
X164241347Y-88860541D01*
X164254363Y-88843763D01*
X164272491Y-88801870D01*
X164277627Y-88791382D01*
X164299627Y-88751368D01*
X164304904Y-88730808D01*
X164311206Y-88712403D01*
X164319636Y-88692926D01*
X164326779Y-88647820D01*
X164329143Y-88636405D01*
X164340500Y-88592177D01*
X164340500Y-88570955D01*
X164342027Y-88551555D01*
X164345347Y-88530595D01*
X164341050Y-88485140D01*
X164340500Y-88473470D01*
X164340500Y-78660808D01*
X164360185Y-78593769D01*
X164376819Y-78573127D01*
X165038319Y-77911627D01*
X165099642Y-77878142D01*
X165169334Y-77883126D01*
G37*
%TD.AperFunction*%
%TA.AperFunction,Conductor*%
G36*
X198092539Y-46170185D02*
G01*
X198138294Y-46222989D01*
X198149500Y-46274500D01*
X198149500Y-146025500D01*
X198129815Y-146092539D01*
X198077011Y-146138294D01*
X198025500Y-146149500D01*
X190458342Y-146149500D01*
X190391303Y-146129815D01*
X190345548Y-146077011D01*
X190335604Y-146007853D01*
X190364629Y-145944297D01*
X190393548Y-145919774D01*
X190523023Y-145840433D01*
X190710399Y-145680399D01*
X190870433Y-145493023D01*
X190999184Y-145282920D01*
X191093483Y-145055262D01*
X191151007Y-144815655D01*
X191170341Y-144570000D01*
X191151007Y-144324345D01*
X191093483Y-144084738D01*
X191092604Y-144081075D01*
X191096095Y-144011292D01*
X191125495Y-143964449D01*
X192553127Y-142536819D01*
X192614450Y-142503334D01*
X192640808Y-142500500D01*
X195092278Y-142500500D01*
X195159317Y-142520185D01*
X195193853Y-142553377D01*
X195311500Y-142721395D01*
X195311505Y-142721401D01*
X195478599Y-142888495D01*
X195637357Y-142999659D01*
X195664594Y-143018730D01*
X195708219Y-143073307D01*
X195715413Y-143142805D01*
X195683890Y-143205160D01*
X195664595Y-143221880D01*
X195478922Y-143351890D01*
X195478920Y-143351891D01*
X195311891Y-143518920D01*
X195311886Y-143518926D01*
X195176400Y-143712420D01*
X195176399Y-143712422D01*
X195076570Y-143926507D01*
X195076567Y-143926513D01*
X195019364Y-144139999D01*
X195019364Y-144140000D01*
X195916314Y-144140000D01*
X195890507Y-144180156D01*
X195850000Y-144318111D01*
X195850000Y-144461889D01*
X195890507Y-144599844D01*
X195916314Y-144640000D01*
X195019364Y-144640000D01*
X195076567Y-144853486D01*
X195076570Y-144853492D01*
X195176399Y-145067578D01*
X195311894Y-145261082D01*
X195478917Y-145428105D01*
X195672421Y-145563600D01*
X195886507Y-145663429D01*
X195886516Y-145663433D01*
X196100000Y-145720634D01*
X196100000Y-144825501D01*
X196207685Y-144874680D01*
X196314237Y-144890000D01*
X196385763Y-144890000D01*
X196492315Y-144874680D01*
X196600000Y-144825501D01*
X196600000Y-145720633D01*
X196813483Y-145663433D01*
X196813492Y-145663429D01*
X197027578Y-145563600D01*
X197221082Y-145428105D01*
X197388105Y-145261082D01*
X197523600Y-145067578D01*
X197623429Y-144853492D01*
X197623432Y-144853486D01*
X197680636Y-144640000D01*
X196783686Y-144640000D01*
X196809493Y-144599844D01*
X196850000Y-144461889D01*
X196850000Y-144318111D01*
X196809493Y-144180156D01*
X196783686Y-144140000D01*
X197680636Y-144140000D01*
X197680635Y-144139999D01*
X197623432Y-143926513D01*
X197623429Y-143926507D01*
X197523600Y-143712422D01*
X197523599Y-143712420D01*
X197388113Y-143518926D01*
X197388108Y-143518920D01*
X197221078Y-143351890D01*
X197035405Y-143221879D01*
X196991780Y-143167302D01*
X196984588Y-143097804D01*
X197016110Y-143035449D01*
X197035406Y-143018730D01*
X197221401Y-142888495D01*
X197388495Y-142721401D01*
X197524035Y-142527830D01*
X197623903Y-142313663D01*
X197685063Y-142085408D01*
X197705659Y-141850000D01*
X197685063Y-141614592D01*
X197623903Y-141386337D01*
X197524035Y-141172171D01*
X197511026Y-141153591D01*
X197388494Y-140978597D01*
X197221402Y-140811506D01*
X197221396Y-140811501D01*
X197035842Y-140681575D01*
X196992217Y-140626998D01*
X196985023Y-140557500D01*
X197016546Y-140495145D01*
X197035842Y-140478425D01*
X197101414Y-140432511D01*
X197221401Y-140348495D01*
X197388495Y-140181401D01*
X197524035Y-139987830D01*
X197623903Y-139773663D01*
X197685063Y-139545408D01*
X197705659Y-139310000D01*
X197685063Y-139074592D01*
X197623903Y-138846337D01*
X197524035Y-138632171D01*
X197465946Y-138549210D01*
X197388494Y-138438597D01*
X197221402Y-138271506D01*
X197221396Y-138271501D01*
X197035842Y-138141575D01*
X196992217Y-138086998D01*
X196985023Y-138017500D01*
X197016546Y-137955145D01*
X197035842Y-137938425D01*
X197175920Y-137840341D01*
X197221401Y-137808495D01*
X197388495Y-137641401D01*
X197524035Y-137447830D01*
X197623903Y-137233663D01*
X197685063Y-137005408D01*
X197705659Y-136770000D01*
X197685063Y-136534592D01*
X197623903Y-136306337D01*
X197524035Y-136092171D01*
X197476541Y-136024341D01*
X197388494Y-135898597D01*
X197221402Y-135731506D01*
X197221396Y-135731501D01*
X197035842Y-135601575D01*
X196992217Y-135546998D01*
X196985023Y-135477500D01*
X197016546Y-135415145D01*
X197035842Y-135398425D01*
X197147580Y-135320185D01*
X197221401Y-135268495D01*
X197388495Y-135101401D01*
X197524035Y-134907830D01*
X197623903Y-134693663D01*
X197685063Y-134465408D01*
X197705659Y-134230000D01*
X197685063Y-133994592D01*
X197623903Y-133766337D01*
X197524035Y-133552171D01*
X197431489Y-133420000D01*
X197388494Y-133358597D01*
X197221402Y-133191506D01*
X197221396Y-133191501D01*
X197035842Y-133061575D01*
X196992217Y-133006998D01*
X196985023Y-132937500D01*
X197016546Y-132875145D01*
X197035842Y-132858425D01*
X197208870Y-132737269D01*
X197221401Y-132728495D01*
X197388495Y-132561401D01*
X197524035Y-132367830D01*
X197623903Y-132153663D01*
X197685063Y-131925408D01*
X197705659Y-131690000D01*
X197685063Y-131454592D01*
X197638626Y-131281285D01*
X197623905Y-131226344D01*
X197623904Y-131226343D01*
X197623903Y-131226337D01*
X197524035Y-131012171D01*
X197506146Y-130986623D01*
X197388496Y-130818600D01*
X197388495Y-130818599D01*
X197266567Y-130696671D01*
X197233084Y-130635351D01*
X197238068Y-130565659D01*
X197279939Y-130509725D01*
X197310915Y-130492810D01*
X197442331Y-130443796D01*
X197557546Y-130357546D01*
X197643796Y-130242331D01*
X197694091Y-130107483D01*
X197700500Y-130047873D01*
X197700499Y-128252128D01*
X197694091Y-128192517D01*
X197643796Y-128057669D01*
X197643795Y-128057668D01*
X197643793Y-128057664D01*
X197557547Y-127942455D01*
X197557544Y-127942452D01*
X197442335Y-127856206D01*
X197442328Y-127856202D01*
X197307482Y-127805908D01*
X197307483Y-127805908D01*
X197247883Y-127799501D01*
X197247881Y-127799500D01*
X197247873Y-127799500D01*
X197247864Y-127799500D01*
X195452129Y-127799500D01*
X195452123Y-127799501D01*
X195392516Y-127805908D01*
X195257671Y-127856202D01*
X195257664Y-127856206D01*
X195142455Y-127942452D01*
X195142452Y-127942455D01*
X195056206Y-128057664D01*
X195056202Y-128057671D01*
X195005908Y-128192517D01*
X194999501Y-128252116D01*
X194999501Y-128252123D01*
X194999500Y-128252135D01*
X194999500Y-130047870D01*
X194999501Y-130047876D01*
X195005908Y-130107483D01*
X195056202Y-130242328D01*
X195056206Y-130242335D01*
X195142452Y-130357544D01*
X195142455Y-130357547D01*
X195257664Y-130443793D01*
X195257671Y-130443797D01*
X195389081Y-130492810D01*
X195445015Y-130534681D01*
X195469432Y-130600145D01*
X195454580Y-130668418D01*
X195433430Y-130696673D01*
X195311503Y-130818600D01*
X195193854Y-130986623D01*
X195139277Y-131030248D01*
X195092279Y-131039500D01*
X191094010Y-131039500D01*
X191026971Y-131019815D01*
X190981216Y-130967011D01*
X190971272Y-130897853D01*
X190988282Y-130850711D01*
X190990457Y-130847160D01*
X190999184Y-130832920D01*
X191093483Y-130605262D01*
X191151007Y-130365655D01*
X191170341Y-130120000D01*
X191151007Y-129874345D01*
X191093483Y-129634738D01*
X191092604Y-129631075D01*
X191096095Y-129561292D01*
X191125495Y-129514449D01*
X192999513Y-127640431D01*
X193012079Y-127630365D01*
X193011925Y-127630178D01*
X193017933Y-127625205D01*
X193017940Y-127625202D01*
X193041227Y-127600402D01*
X193065865Y-127574167D01*
X193068578Y-127571367D01*
X193088912Y-127551034D01*
X193091607Y-127547559D01*
X193099186Y-127538682D01*
X193130448Y-127505393D01*
X193140674Y-127486789D01*
X193151347Y-127470541D01*
X193164363Y-127453763D01*
X193182491Y-127411870D01*
X193187627Y-127401382D01*
X193209627Y-127361368D01*
X193214904Y-127340808D01*
X193221206Y-127322403D01*
X193229636Y-127302926D01*
X193236779Y-127257820D01*
X193239143Y-127246405D01*
X193250500Y-127202177D01*
X193250500Y-127180955D01*
X193252027Y-127161555D01*
X193255347Y-127140595D01*
X193251050Y-127095136D01*
X193250500Y-127083467D01*
X193250500Y-100860501D01*
X193252268Y-100844488D01*
X193252026Y-100844466D01*
X193252758Y-100836710D01*
X193252760Y-100836703D01*
X193250561Y-100766735D01*
X193250500Y-100762840D01*
X193250500Y-100734077D01*
X193250499Y-100734070D01*
X193249949Y-100729716D01*
X193249030Y-100718054D01*
X193247597Y-100672430D01*
X193241676Y-100652052D01*
X193237731Y-100633003D01*
X193235071Y-100611942D01*
X193218261Y-100569487D01*
X193214481Y-100558445D01*
X193201743Y-100514599D01*
X193190941Y-100496335D01*
X193182379Y-100478858D01*
X193181351Y-100476262D01*
X193174568Y-100459129D01*
X193147737Y-100422199D01*
X193141323Y-100412435D01*
X193118082Y-100373137D01*
X193118081Y-100373135D01*
X193103075Y-100358129D01*
X193090435Y-100343330D01*
X193077961Y-100326160D01*
X193042780Y-100297056D01*
X193034140Y-100289194D01*
X192038493Y-99293547D01*
X192005008Y-99232224D01*
X192005969Y-99175425D01*
X192036131Y-99056317D01*
X192036133Y-99056308D01*
X192036134Y-99056305D01*
X192036135Y-99056297D01*
X192055300Y-98825006D01*
X192055300Y-98824993D01*
X192036135Y-98593702D01*
X192036133Y-98593691D01*
X191979157Y-98368699D01*
X191885924Y-98156151D01*
X191758983Y-97961852D01*
X191758980Y-97961849D01*
X191758979Y-97961847D01*
X191601784Y-97791087D01*
X191601779Y-97791083D01*
X191601777Y-97791081D01*
X191418634Y-97648535D01*
X191418628Y-97648531D01*
X191214504Y-97538064D01*
X191214495Y-97538061D01*
X190994984Y-97462702D01*
X190807404Y-97431401D01*
X190766049Y-97424500D01*
X190533951Y-97424500D01*
X190495334Y-97430944D01*
X190305015Y-97462702D01*
X190085504Y-97538061D01*
X190085495Y-97538064D01*
X189881371Y-97648531D01*
X189881365Y-97648535D01*
X189698222Y-97791081D01*
X189698219Y-97791084D01*
X189698216Y-97791086D01*
X189698216Y-97791087D01*
X189621347Y-97874590D01*
X189541015Y-97961854D01*
X189503808Y-98018804D01*
X189450662Y-98064161D01*
X189381430Y-98073584D01*
X189318095Y-98044082D01*
X189296192Y-98018804D01*
X189258984Y-97961854D01*
X189258982Y-97961852D01*
X189258979Y-97961847D01*
X189101784Y-97791087D01*
X189101779Y-97791083D01*
X189101777Y-97791081D01*
X188918634Y-97648535D01*
X188918628Y-97648531D01*
X188714504Y-97538064D01*
X188714495Y-97538061D01*
X188494984Y-97462702D01*
X188307404Y-97431401D01*
X188266049Y-97424500D01*
X188033951Y-97424500D01*
X187995334Y-97430944D01*
X187805015Y-97462702D01*
X187585504Y-97538061D01*
X187585495Y-97538064D01*
X187381372Y-97648531D01*
X187204023Y-97786567D01*
X187139029Y-97812209D01*
X187070489Y-97798642D01*
X187020164Y-97750174D01*
X187011679Y-97732045D01*
X186993355Y-97682915D01*
X186993350Y-97682906D01*
X186907190Y-97567812D01*
X186907187Y-97567809D01*
X186792093Y-97481649D01*
X186792086Y-97481645D01*
X186657379Y-97431403D01*
X186657372Y-97431401D01*
X186597844Y-97425000D01*
X185900000Y-97425000D01*
X185900000Y-98389498D01*
X185792315Y-98340320D01*
X185685763Y-98325000D01*
X185614237Y-98325000D01*
X185507685Y-98340320D01*
X185400000Y-98389498D01*
X185400000Y-97425000D01*
X184702155Y-97425000D01*
X184642627Y-97431401D01*
X184642620Y-97431403D01*
X184507913Y-97481645D01*
X184507906Y-97481649D01*
X184392812Y-97567809D01*
X184392809Y-97567812D01*
X184306649Y-97682906D01*
X184306645Y-97682913D01*
X184256403Y-97817620D01*
X184256401Y-97817627D01*
X184250000Y-97877155D01*
X184250000Y-98575000D01*
X185216314Y-98575000D01*
X185190507Y-98615156D01*
X185150000Y-98753111D01*
X185150000Y-98896889D01*
X185190507Y-99034844D01*
X185216314Y-99075000D01*
X184250000Y-99075000D01*
X184250000Y-99772844D01*
X184256401Y-99832372D01*
X184256403Y-99832379D01*
X184306645Y-99967086D01*
X184306649Y-99967093D01*
X184392809Y-100082187D01*
X184392812Y-100082190D01*
X184507906Y-100168350D01*
X184507913Y-100168354D01*
X184642620Y-100218596D01*
X184642627Y-100218598D01*
X184702155Y-100224999D01*
X184702172Y-100225000D01*
X185400000Y-100225000D01*
X185400000Y-99260501D01*
X185507685Y-99309680D01*
X185614237Y-99325000D01*
X185685763Y-99325000D01*
X185792315Y-99309680D01*
X185900000Y-99260501D01*
X185900000Y-100225000D01*
X186597828Y-100225000D01*
X186597844Y-100224999D01*
X186657372Y-100218598D01*
X186657379Y-100218596D01*
X186792086Y-100168354D01*
X186792093Y-100168350D01*
X186907187Y-100082190D01*
X186907190Y-100082187D01*
X186993350Y-99967093D01*
X186993353Y-99967088D01*
X187011678Y-99917955D01*
X187053549Y-99862020D01*
X187119013Y-99837602D01*
X187187286Y-99852453D01*
X187204023Y-99863433D01*
X187381365Y-100001464D01*
X187381380Y-100001474D01*
X187434516Y-100030229D01*
X187484107Y-100079447D01*
X187499500Y-100139284D01*
X187499500Y-102079191D01*
X187479815Y-102146230D01*
X187463181Y-102166872D01*
X186300484Y-103329568D01*
X186287910Y-103339643D01*
X186288065Y-103339830D01*
X186282058Y-103344799D01*
X186234133Y-103395833D01*
X186231427Y-103398625D01*
X186211090Y-103418963D01*
X186211077Y-103418978D01*
X186208373Y-103422463D01*
X186200806Y-103431322D01*
X186169552Y-103464607D01*
X186159322Y-103483213D01*
X186148646Y-103499464D01*
X186135640Y-103516232D01*
X186135636Y-103516238D01*
X186117508Y-103558130D01*
X186112369Y-103568619D01*
X186090372Y-103608630D01*
X186090372Y-103608631D01*
X186085091Y-103629199D01*
X186078791Y-103647601D01*
X186070364Y-103667073D01*
X186063223Y-103712162D01*
X186060854Y-103723600D01*
X186049500Y-103767817D01*
X186049500Y-103789044D01*
X186047973Y-103808444D01*
X186044653Y-103829403D01*
X186048950Y-103874858D01*
X186049500Y-103886528D01*
X186049500Y-130114494D01*
X186047732Y-130130505D01*
X186047974Y-130130528D01*
X186047240Y-130138294D01*
X186049439Y-130208262D01*
X186049500Y-130212157D01*
X186049500Y-130240920D01*
X186049501Y-130240938D01*
X186050053Y-130245311D01*
X186050968Y-130256941D01*
X186052402Y-130302567D01*
X186052403Y-130302570D01*
X186058323Y-130322948D01*
X186062268Y-130341996D01*
X186064928Y-130363054D01*
X186064931Y-130363065D01*
X186081737Y-130405514D01*
X186085520Y-130416563D01*
X186098254Y-130460395D01*
X186098255Y-130460397D01*
X186109060Y-130478666D01*
X186117617Y-130496134D01*
X186122999Y-130509725D01*
X186125432Y-130515872D01*
X186152266Y-130552806D01*
X186158678Y-130562568D01*
X186181919Y-130601865D01*
X186181923Y-130601869D01*
X186196925Y-130616871D01*
X186209563Y-130631669D01*
X186222033Y-130648833D01*
X186222036Y-130648837D01*
X186257213Y-130677937D01*
X186265854Y-130685800D01*
X187669564Y-132089510D01*
X187679635Y-132102080D01*
X187679822Y-132101926D01*
X187684795Y-132107937D01*
X187735832Y-132155864D01*
X187738629Y-132158575D01*
X187758967Y-132178913D01*
X187762450Y-132181615D01*
X187771326Y-132189196D01*
X187790451Y-132207155D01*
X187804607Y-132220448D01*
X187804609Y-132220449D01*
X187823205Y-132230672D01*
X187839470Y-132241357D01*
X187856232Y-132254360D01*
X187856235Y-132254361D01*
X187856236Y-132254362D01*
X187898140Y-132272495D01*
X187908612Y-132277625D01*
X187948632Y-132299627D01*
X187964340Y-132303659D01*
X187969186Y-132304904D01*
X187987598Y-132311207D01*
X188007073Y-132319635D01*
X188030397Y-132323329D01*
X188093531Y-132353256D01*
X188130463Y-132412567D01*
X188135000Y-132445802D01*
X188135000Y-132920000D01*
X189043480Y-132920000D01*
X189015245Y-132980002D01*
X188986365Y-133131393D01*
X188996043Y-133285211D01*
X189039838Y-133420000D01*
X188135000Y-133420000D01*
X188135000Y-133875500D01*
X188115315Y-133942539D01*
X188062511Y-133988294D01*
X188011000Y-133999500D01*
X183500808Y-133999500D01*
X183433769Y-133979815D01*
X183413127Y-133963181D01*
X180175496Y-130725550D01*
X180142011Y-130664227D01*
X180142603Y-130608922D01*
X180143479Y-130605269D01*
X180143483Y-130605262D01*
X180201007Y-130365655D01*
X180220341Y-130120000D01*
X180201007Y-129874345D01*
X180143483Y-129634738D01*
X180049184Y-129407080D01*
X180049184Y-129407079D01*
X179920436Y-129196981D01*
X179920435Y-129196979D01*
X179884280Y-129154648D01*
X179760399Y-129009601D01*
X179636516Y-128903795D01*
X179573020Y-128849564D01*
X179573018Y-128849563D01*
X179362920Y-128720815D01*
X179135264Y-128626517D01*
X178895658Y-128568993D01*
X178650000Y-128549659D01*
X178404341Y-128568993D01*
X178164735Y-128626517D01*
X177937079Y-128720815D01*
X177726981Y-128849563D01*
X177726979Y-128849564D01*
X177539601Y-129009601D01*
X177379564Y-129196979D01*
X177379563Y-129196981D01*
X177250815Y-129407079D01*
X177156517Y-129634735D01*
X177098993Y-129874341D01*
X177079659Y-130120000D01*
X177098993Y-130365658D01*
X177156517Y-130605264D01*
X177250815Y-130832920D01*
X177379563Y-131043018D01*
X177379564Y-131043020D01*
X177379567Y-131043023D01*
X177539601Y-131230399D01*
X177684648Y-131354280D01*
X177726979Y-131390435D01*
X177726981Y-131390436D01*
X177937080Y-131519184D01*
X177939695Y-131520517D01*
X177940508Y-131521285D01*
X177941234Y-131521730D01*
X177941140Y-131521882D01*
X177990490Y-131568493D01*
X178007283Y-131636314D01*
X177984743Y-131702449D01*
X177930027Y-131745898D01*
X177883397Y-131755000D01*
X177637155Y-131755000D01*
X177577627Y-131761401D01*
X177577620Y-131761403D01*
X177442913Y-131811645D01*
X177442906Y-131811649D01*
X177327812Y-131897809D01*
X177327809Y-131897812D01*
X177241649Y-132012906D01*
X177241645Y-132012913D01*
X177191403Y-132147620D01*
X177191401Y-132147627D01*
X177185000Y-132207155D01*
X177185000Y-132920000D01*
X178093480Y-132920000D01*
X178065245Y-132980002D01*
X178036365Y-133131393D01*
X178046043Y-133285211D01*
X178089838Y-133420000D01*
X177185000Y-133420000D01*
X177185000Y-134132844D01*
X177191401Y-134192372D01*
X177191403Y-134192379D01*
X177241645Y-134327086D01*
X177241649Y-134327093D01*
X177327809Y-134442187D01*
X177327812Y-134442190D01*
X177442906Y-134528350D01*
X177442913Y-134528354D01*
X177577620Y-134578596D01*
X177577627Y-134578598D01*
X177637155Y-134584999D01*
X177637172Y-134585000D01*
X178003709Y-134585000D01*
X178070748Y-134604685D01*
X178116503Y-134657489D01*
X178126447Y-134726647D01*
X178097422Y-134790203D01*
X178051162Y-134823561D01*
X177937079Y-134870815D01*
X177726981Y-134999563D01*
X177726979Y-134999564D01*
X177539601Y-135159601D01*
X177379564Y-135346979D01*
X177379563Y-135346981D01*
X177250815Y-135557079D01*
X177156517Y-135784735D01*
X177098993Y-136024341D01*
X177079659Y-136270000D01*
X177098993Y-136515658D01*
X177156517Y-136755264D01*
X177250815Y-136982920D01*
X177379563Y-137193018D01*
X177379564Y-137193020D01*
X177433795Y-137256516D01*
X177539601Y-137380399D01*
X177684648Y-137504280D01*
X177726979Y-137540435D01*
X177726981Y-137540436D01*
X177937079Y-137669184D01*
X178164735Y-137763482D01*
X178164736Y-137763482D01*
X178164738Y-137763483D01*
X178404345Y-137821007D01*
X178650000Y-137840341D01*
X178895655Y-137821007D01*
X179135262Y-137763483D01*
X179362920Y-137669184D01*
X179573023Y-137540433D01*
X179760399Y-137380399D01*
X179920433Y-137193023D01*
X180049184Y-136982920D01*
X180143483Y-136755262D01*
X180201007Y-136515655D01*
X180220341Y-136270000D01*
X180201007Y-136024345D01*
X180143483Y-135784738D01*
X180121432Y-135731501D01*
X180049184Y-135557079D01*
X179920436Y-135346981D01*
X179920435Y-135346979D01*
X179869016Y-135286775D01*
X179760399Y-135159601D01*
X179631499Y-135049510D01*
X179573020Y-134999564D01*
X179573018Y-134999563D01*
X179362919Y-134870815D01*
X179362920Y-134870815D01*
X179248838Y-134823561D01*
X179194435Y-134779720D01*
X179172370Y-134713426D01*
X179189649Y-134645726D01*
X179240787Y-134598116D01*
X179296291Y-134585000D01*
X179662828Y-134585000D01*
X179662844Y-134584999D01*
X179722372Y-134578598D01*
X179722379Y-134578596D01*
X179857086Y-134528354D01*
X179857093Y-134528350D01*
X179972187Y-134442190D01*
X179972190Y-134442187D01*
X180058350Y-134327093D01*
X180058354Y-134327086D01*
X180108596Y-134192379D01*
X180108598Y-134192372D01*
X180114999Y-134132844D01*
X180115000Y-134132827D01*
X180115000Y-133420000D01*
X179206520Y-133420000D01*
X179234755Y-133359998D01*
X179263635Y-133208607D01*
X179253957Y-133054789D01*
X179210162Y-132920000D01*
X180115000Y-132920000D01*
X180115000Y-132804308D01*
X180134685Y-132737269D01*
X180187489Y-132691514D01*
X180256647Y-132681570D01*
X180320203Y-132710595D01*
X180326681Y-132716627D01*
X182659564Y-135049510D01*
X182669635Y-135062080D01*
X182669822Y-135061926D01*
X182674795Y-135067937D01*
X182674797Y-135067939D01*
X182674798Y-135067940D01*
X182725832Y-135115864D01*
X182728629Y-135118575D01*
X182748967Y-135138913D01*
X182752450Y-135141615D01*
X182761326Y-135149196D01*
X182772407Y-135159601D01*
X182794607Y-135180448D01*
X182794609Y-135180449D01*
X182813205Y-135190672D01*
X182829470Y-135201357D01*
X182846232Y-135214360D01*
X182846235Y-135214361D01*
X182846236Y-135214362D01*
X182888140Y-135232495D01*
X182898612Y-135237625D01*
X182938632Y-135259627D01*
X182954340Y-135263659D01*
X182959186Y-135264904D01*
X182977598Y-135271207D01*
X182997073Y-135279635D01*
X183042174Y-135286777D01*
X183053589Y-135289142D01*
X183097823Y-135300500D01*
X183119050Y-135300500D01*
X183138447Y-135302026D01*
X183159404Y-135305346D01*
X183204852Y-135301049D01*
X183216520Y-135300500D01*
X188136630Y-135300500D01*
X188203669Y-135320185D01*
X188249424Y-135372989D01*
X188259368Y-135442147D01*
X188242358Y-135489289D01*
X188200814Y-135557081D01*
X188106517Y-135784735D01*
X188048993Y-136024341D01*
X188029659Y-136270000D01*
X188048993Y-136515658D01*
X188106517Y-136755264D01*
X188200815Y-136982920D01*
X188329563Y-137193018D01*
X188329564Y-137193020D01*
X188383795Y-137256516D01*
X188489601Y-137380399D01*
X188634648Y-137504280D01*
X188676979Y-137540435D01*
X188676981Y-137540436D01*
X188887079Y-137669184D01*
X189114735Y-137763482D01*
X189114736Y-137763482D01*
X189114738Y-137763483D01*
X189354345Y-137821007D01*
X189600000Y-137840341D01*
X189845655Y-137821007D01*
X190085262Y-137763483D01*
X190312920Y-137669184D01*
X190523023Y-137540433D01*
X190710399Y-137380399D01*
X190870433Y-137193023D01*
X190999184Y-136982920D01*
X191093483Y-136755262D01*
X191151007Y-136515655D01*
X191170341Y-136270000D01*
X191151007Y-136024345D01*
X191093483Y-135784738D01*
X191071432Y-135731501D01*
X190999185Y-135557081D01*
X190957642Y-135489289D01*
X190939398Y-135421844D01*
X190960515Y-135355241D01*
X191014287Y-135310628D01*
X191063370Y-135300500D01*
X195485209Y-135300500D01*
X195552248Y-135320185D01*
X195556332Y-135322925D01*
X195664158Y-135398425D01*
X195707783Y-135453002D01*
X195714977Y-135522500D01*
X195683454Y-135584855D01*
X195664158Y-135601575D01*
X195478597Y-135731505D01*
X195311505Y-135898597D01*
X195175965Y-136092169D01*
X195175964Y-136092171D01*
X195076098Y-136306335D01*
X195076094Y-136306344D01*
X195014938Y-136534586D01*
X195014936Y-136534596D01*
X195007718Y-136617097D01*
X194982265Y-136682165D01*
X194971871Y-136693969D01*
X191073280Y-140592560D01*
X191011957Y-140626045D01*
X190942265Y-140621061D01*
X190886332Y-140579189D01*
X190861915Y-140513725D01*
X190876767Y-140445452D01*
X190884899Y-140432523D01*
X190890158Y-140425205D01*
X190999445Y-140204079D01*
X191071149Y-139968074D01*
X191103344Y-139723526D01*
X191105141Y-139650000D01*
X191084930Y-139404171D01*
X191024841Y-139164945D01*
X190926486Y-138938744D01*
X190792508Y-138731645D01*
X190626504Y-138549210D01*
X190432932Y-138396336D01*
X190216991Y-138277130D01*
X190216982Y-138277126D01*
X189984491Y-138194796D01*
X189984471Y-138194791D01*
X189741644Y-138151538D01*
X189741652Y-138151538D01*
X189500496Y-138148592D01*
X189495007Y-138148525D01*
X189495006Y-138148525D01*
X189495005Y-138148525D01*
X189495004Y-138148525D01*
X189251190Y-138185834D01*
X189251180Y-138185837D01*
X189016732Y-138262466D01*
X188797951Y-138376356D01*
X188797948Y-138376358D01*
X188600698Y-138524456D01*
X188430289Y-138702779D01*
X188430279Y-138702792D01*
X188291287Y-138906547D01*
X188291285Y-138906552D01*
X188187439Y-139130268D01*
X188187436Y-139130276D01*
X188121520Y-139367960D01*
X188121519Y-139367967D01*
X188095307Y-139613225D01*
X188109507Y-139859474D01*
X188109507Y-139859479D01*
X188163731Y-140100092D01*
X188256533Y-140328636D01*
X188385412Y-140538947D01*
X188420271Y-140579189D01*
X188546908Y-140725382D01*
X188736687Y-140882939D01*
X188736690Y-140882941D01*
X188736696Y-140882945D01*
X188949650Y-141007385D01*
X189180072Y-141095375D01*
X189180075Y-141095375D01*
X189180079Y-141095377D01*
X189421785Y-141144553D01*
X189668278Y-141153592D01*
X189912936Y-141122250D01*
X190149191Y-141051370D01*
X190370697Y-140942856D01*
X190384542Y-140932980D01*
X190450544Y-140910074D01*
X190518459Y-140926488D01*
X190566717Y-140977014D01*
X190579999Y-141045610D01*
X190554086Y-141110497D01*
X190544231Y-141121609D01*
X189952661Y-141713181D01*
X189891338Y-141746666D01*
X189864980Y-141749500D01*
X169985504Y-141749500D01*
X169969493Y-141747732D01*
X169969471Y-141747974D01*
X169961704Y-141747240D01*
X169961703Y-141747240D01*
X169891737Y-141749439D01*
X169887842Y-141749500D01*
X169859075Y-141749500D01*
X169859072Y-141749500D01*
X169859057Y-141749501D01*
X169854687Y-141750053D01*
X169843059Y-141750968D01*
X169797434Y-141752402D01*
X169797424Y-141752404D01*
X169777048Y-141758323D01*
X169758008Y-141762266D01*
X169736947Y-141764927D01*
X169736938Y-141764929D01*
X169694491Y-141781735D01*
X169683442Y-141785518D01*
X169639602Y-141798255D01*
X169621332Y-141809060D01*
X169603863Y-141817618D01*
X169584128Y-141825432D01*
X169584126Y-141825433D01*
X169547201Y-141852260D01*
X169537442Y-141858671D01*
X169498132Y-141881920D01*
X169483126Y-141896926D01*
X169468336Y-141909558D01*
X169451167Y-141922032D01*
X169451165Y-141922034D01*
X169422056Y-141957219D01*
X169414196Y-141965856D01*
X168327481Y-143052571D01*
X168266158Y-143086056D01*
X168196466Y-143081072D01*
X168192351Y-143079453D01*
X168185260Y-143076516D01*
X167945658Y-143018993D01*
X167700000Y-142999659D01*
X167454341Y-143018993D01*
X167214735Y-143076517D01*
X166987079Y-143170815D01*
X166776981Y-143299563D01*
X166776979Y-143299564D01*
X166589601Y-143459601D01*
X166429564Y-143646979D01*
X166429563Y-143646981D01*
X166300815Y-143857079D01*
X166206517Y-144084735D01*
X166148993Y-144324341D01*
X166129659Y-144570000D01*
X166148993Y-144815658D01*
X166206517Y-145055264D01*
X166300815Y-145282920D01*
X166429563Y-145493018D01*
X166429564Y-145493020D01*
X166429567Y-145493023D01*
X166589601Y-145680399D01*
X166776977Y-145840433D01*
X166906449Y-145919773D01*
X166953323Y-145971584D01*
X166964746Y-146040514D01*
X166937089Y-146104677D01*
X166879133Y-146143701D01*
X166841658Y-146149500D01*
X159274500Y-146149500D01*
X159207461Y-146129815D01*
X159161706Y-146077011D01*
X159150500Y-146025500D01*
X159150500Y-139613225D01*
X166195307Y-139613225D01*
X166209507Y-139859474D01*
X166209507Y-139859479D01*
X166263731Y-140100092D01*
X166356533Y-140328636D01*
X166485412Y-140538947D01*
X166520271Y-140579189D01*
X166646908Y-140725382D01*
X166836687Y-140882939D01*
X166836690Y-140882941D01*
X166836696Y-140882945D01*
X167049650Y-141007385D01*
X167280072Y-141095375D01*
X167280075Y-141095375D01*
X167280079Y-141095377D01*
X167521785Y-141144553D01*
X167768278Y-141153592D01*
X168012936Y-141122250D01*
X168249191Y-141051370D01*
X168470697Y-140942856D01*
X168671505Y-140799621D01*
X168846223Y-140625512D01*
X168990158Y-140425205D01*
X169099445Y-140204079D01*
X169171149Y-139968074D01*
X169203344Y-139723526D01*
X169205141Y-139650000D01*
X169202118Y-139613225D01*
X177145307Y-139613225D01*
X177159507Y-139859474D01*
X177159507Y-139859479D01*
X177213731Y-140100092D01*
X177306533Y-140328636D01*
X177435412Y-140538947D01*
X177470271Y-140579189D01*
X177596908Y-140725382D01*
X177786687Y-140882939D01*
X177786690Y-140882941D01*
X177786696Y-140882945D01*
X177999650Y-141007385D01*
X178230072Y-141095375D01*
X178230075Y-141095375D01*
X178230079Y-141095377D01*
X178471785Y-141144553D01*
X178718278Y-141153592D01*
X178962936Y-141122250D01*
X179199191Y-141051370D01*
X179420697Y-140942856D01*
X179621505Y-140799621D01*
X179796223Y-140625512D01*
X179940158Y-140425205D01*
X180049445Y-140204079D01*
X180121149Y-139968074D01*
X180153344Y-139723526D01*
X180155141Y-139650000D01*
X180134930Y-139404171D01*
X180074841Y-139164945D01*
X179976486Y-138938744D01*
X179842508Y-138731645D01*
X179676504Y-138549210D01*
X179482932Y-138396336D01*
X179266991Y-138277130D01*
X179266982Y-138277126D01*
X179034491Y-138194796D01*
X179034471Y-138194791D01*
X178791644Y-138151538D01*
X178791652Y-138151538D01*
X178550496Y-138148592D01*
X178545007Y-138148525D01*
X178545006Y-138148525D01*
X178545005Y-138148525D01*
X178545004Y-138148525D01*
X178301190Y-138185834D01*
X178301180Y-138185837D01*
X178066732Y-138262466D01*
X177847951Y-138376356D01*
X177847948Y-138376358D01*
X177650698Y-138524456D01*
X177480289Y-138702779D01*
X177480279Y-138702792D01*
X177341287Y-138906547D01*
X177341285Y-138906552D01*
X177237439Y-139130268D01*
X177237436Y-139130276D01*
X177171520Y-139367960D01*
X177171519Y-139367967D01*
X177145307Y-139613225D01*
X169202118Y-139613225D01*
X169184930Y-139404171D01*
X169124841Y-139164945D01*
X169026486Y-138938744D01*
X168892508Y-138731645D01*
X168726504Y-138549210D01*
X168532932Y-138396336D01*
X168316991Y-138277130D01*
X168316982Y-138277126D01*
X168084491Y-138194796D01*
X168084471Y-138194791D01*
X167841644Y-138151538D01*
X167841652Y-138151538D01*
X167600496Y-138148592D01*
X167595007Y-138148525D01*
X167595006Y-138148525D01*
X167595005Y-138148525D01*
X167595004Y-138148525D01*
X167351190Y-138185834D01*
X167351180Y-138185837D01*
X167116732Y-138262466D01*
X166897951Y-138376356D01*
X166897948Y-138376358D01*
X166700698Y-138524456D01*
X166530289Y-138702779D01*
X166530279Y-138702792D01*
X166391287Y-138906547D01*
X166391285Y-138906552D01*
X166287439Y-139130268D01*
X166287436Y-139130276D01*
X166221520Y-139367960D01*
X166221519Y-139367967D01*
X166195307Y-139613225D01*
X159150500Y-139613225D01*
X159150500Y-125163225D01*
X166195307Y-125163225D01*
X166209507Y-125409474D01*
X166209507Y-125409479D01*
X166263731Y-125650092D01*
X166263734Y-125650099D01*
X166344576Y-125849191D01*
X166356533Y-125878636D01*
X166485412Y-126088947D01*
X166534085Y-126145136D01*
X166646908Y-126275382D01*
X166836687Y-126432939D01*
X166836690Y-126432941D01*
X166836696Y-126432945D01*
X167049650Y-126557385D01*
X167280072Y-126645375D01*
X167280075Y-126645375D01*
X167280079Y-126645377D01*
X167521785Y-126694553D01*
X167768278Y-126703592D01*
X168012936Y-126672250D01*
X168249191Y-126601370D01*
X168470697Y-126492856D01*
X168671505Y-126349621D01*
X168846223Y-126175512D01*
X168990158Y-125975205D01*
X169099445Y-125754079D01*
X169171149Y-125518074D01*
X169203344Y-125273526D01*
X169205141Y-125200000D01*
X169184930Y-124954171D01*
X169124841Y-124714945D01*
X169026486Y-124488744D01*
X168892508Y-124281645D01*
X168726504Y-124099210D01*
X168532932Y-123946336D01*
X168316991Y-123827130D01*
X168316982Y-123827126D01*
X168084491Y-123744796D01*
X168084471Y-123744791D01*
X167841644Y-123701538D01*
X167841652Y-123701538D01*
X167600496Y-123698592D01*
X167595007Y-123698525D01*
X167595006Y-123698525D01*
X167595005Y-123698525D01*
X167595004Y-123698525D01*
X167351190Y-123735834D01*
X167351180Y-123735837D01*
X167116732Y-123812466D01*
X166897951Y-123926356D01*
X166897948Y-123926358D01*
X166700698Y-124074456D01*
X166530289Y-124252779D01*
X166530279Y-124252792D01*
X166391287Y-124456547D01*
X166391285Y-124456552D01*
X166287439Y-124680268D01*
X166287436Y-124680276D01*
X166221520Y-124917960D01*
X166221519Y-124917967D01*
X166195307Y-125163225D01*
X159150500Y-125163225D01*
X159150500Y-103190000D01*
X159544341Y-103190000D01*
X159564936Y-103425403D01*
X159564938Y-103425413D01*
X159626094Y-103653655D01*
X159626096Y-103653659D01*
X159626097Y-103653663D01*
X159708046Y-103829403D01*
X159725965Y-103867830D01*
X159725967Y-103867834D01*
X159861501Y-104061395D01*
X159861506Y-104061402D01*
X160028597Y-104228493D01*
X160028603Y-104228498D01*
X160196623Y-104346147D01*
X160240248Y-104400724D01*
X160249500Y-104447722D01*
X160249500Y-108784494D01*
X160247732Y-108800505D01*
X160247974Y-108800528D01*
X160247240Y-108808294D01*
X160247240Y-108808296D01*
X160249439Y-108878262D01*
X160249500Y-108882157D01*
X160249500Y-108910920D01*
X160249501Y-108910938D01*
X160250053Y-108915311D01*
X160250968Y-108926941D01*
X160252402Y-108972567D01*
X160252403Y-108972570D01*
X160258323Y-108992948D01*
X160262268Y-109011996D01*
X160264928Y-109033054D01*
X160264931Y-109033065D01*
X160281737Y-109075514D01*
X160285520Y-109086563D01*
X160298254Y-109130395D01*
X160298255Y-109130397D01*
X160309060Y-109148666D01*
X160317617Y-109166134D01*
X160323226Y-109180300D01*
X160325432Y-109185872D01*
X160352266Y-109222806D01*
X160358678Y-109232568D01*
X160381919Y-109271865D01*
X160381923Y-109271869D01*
X160396925Y-109286871D01*
X160409563Y-109301669D01*
X160422033Y-109318833D01*
X160422036Y-109318837D01*
X160457213Y-109347937D01*
X160465854Y-109355800D01*
X166174502Y-115064448D01*
X166207987Y-115125771D01*
X166207395Y-115181075D01*
X166148994Y-115424340D01*
X166148993Y-115424345D01*
X166129659Y-115670000D01*
X166148993Y-115915658D01*
X166206517Y-116155264D01*
X166300815Y-116382920D01*
X166429563Y-116593018D01*
X166429564Y-116593020D01*
X166429567Y-116593023D01*
X166589601Y-116780399D01*
X166734648Y-116904280D01*
X166776979Y-116940435D01*
X166776981Y-116940436D01*
X166987080Y-117069184D01*
X166989695Y-117070517D01*
X166990508Y-117071285D01*
X166991234Y-117071730D01*
X166991140Y-117071882D01*
X167040490Y-117118493D01*
X167057283Y-117186314D01*
X167034743Y-117252449D01*
X166980027Y-117295898D01*
X166933397Y-117305000D01*
X166687155Y-117305000D01*
X166627627Y-117311401D01*
X166627620Y-117311403D01*
X166492913Y-117361645D01*
X166492906Y-117361649D01*
X166377812Y-117447809D01*
X166377809Y-117447812D01*
X166291649Y-117562906D01*
X166291645Y-117562913D01*
X166241403Y-117697620D01*
X166241401Y-117697627D01*
X166235000Y-117757155D01*
X166235000Y-118470000D01*
X167143480Y-118470000D01*
X167115245Y-118530002D01*
X167086365Y-118681393D01*
X167096043Y-118835211D01*
X167139838Y-118970000D01*
X166235000Y-118970000D01*
X166235000Y-119682844D01*
X166241401Y-119742372D01*
X166241403Y-119742379D01*
X166291645Y-119877086D01*
X166291649Y-119877093D01*
X166377809Y-119992187D01*
X166377812Y-119992190D01*
X166492906Y-120078350D01*
X166492913Y-120078354D01*
X166627620Y-120128596D01*
X166627627Y-120128598D01*
X166687155Y-120134999D01*
X166687172Y-120135000D01*
X167053709Y-120135000D01*
X167120748Y-120154685D01*
X167166503Y-120207489D01*
X167176447Y-120276647D01*
X167147422Y-120340203D01*
X167101162Y-120373561D01*
X166987079Y-120420815D01*
X166776981Y-120549563D01*
X166776979Y-120549564D01*
X166589601Y-120709601D01*
X166429564Y-120896979D01*
X166429563Y-120896981D01*
X166300815Y-121107079D01*
X166206517Y-121334735D01*
X166148993Y-121574341D01*
X166129659Y-121820000D01*
X166148993Y-122065658D01*
X166206517Y-122305264D01*
X166300815Y-122532920D01*
X166429563Y-122743018D01*
X166429564Y-122743020D01*
X166429567Y-122743023D01*
X166589601Y-122930399D01*
X166734648Y-123054280D01*
X166776979Y-123090435D01*
X166776981Y-123090436D01*
X166987079Y-123219184D01*
X167214735Y-123313482D01*
X167214736Y-123313482D01*
X167214738Y-123313483D01*
X167454345Y-123371007D01*
X167700000Y-123390341D01*
X167945655Y-123371007D01*
X168185262Y-123313483D01*
X168412920Y-123219184D01*
X168623023Y-123090433D01*
X168810399Y-122930399D01*
X168970433Y-122743023D01*
X169099184Y-122532920D01*
X169193483Y-122305262D01*
X169251007Y-122065655D01*
X169270341Y-121820000D01*
X169251007Y-121574345D01*
X169193483Y-121334738D01*
X169099184Y-121107080D01*
X169099184Y-121107079D01*
X168970436Y-120896981D01*
X168970435Y-120896979D01*
X168934280Y-120854648D01*
X168810399Y-120709601D01*
X168686516Y-120603795D01*
X168623020Y-120549564D01*
X168623018Y-120549563D01*
X168412919Y-120420815D01*
X168412920Y-120420815D01*
X168298838Y-120373561D01*
X168244435Y-120329720D01*
X168222370Y-120263426D01*
X168239649Y-120195726D01*
X168290787Y-120148116D01*
X168346291Y-120135000D01*
X168712828Y-120135000D01*
X168712844Y-120134999D01*
X168772372Y-120128598D01*
X168772379Y-120128596D01*
X168907086Y-120078354D01*
X168907093Y-120078350D01*
X169022187Y-119992190D01*
X169022190Y-119992187D01*
X169108350Y-119877093D01*
X169108354Y-119877086D01*
X169158596Y-119742379D01*
X169158598Y-119742372D01*
X169164999Y-119682844D01*
X169165000Y-119682827D01*
X169165000Y-118970000D01*
X168256520Y-118970000D01*
X168284755Y-118909998D01*
X168313635Y-118758607D01*
X168303957Y-118604789D01*
X168260162Y-118470000D01*
X169165000Y-118470000D01*
X169165000Y-117757172D01*
X169164999Y-117757155D01*
X169158598Y-117697627D01*
X169158596Y-117697620D01*
X169108354Y-117562913D01*
X169108350Y-117562906D01*
X169022190Y-117447812D01*
X169022187Y-117447809D01*
X168907093Y-117361649D01*
X168907086Y-117361645D01*
X168772379Y-117311403D01*
X168772372Y-117311401D01*
X168712844Y-117305000D01*
X168466603Y-117305000D01*
X168399564Y-117285315D01*
X168353809Y-117232511D01*
X168343865Y-117163353D01*
X168372890Y-117099797D01*
X168410305Y-117070517D01*
X168412914Y-117069186D01*
X168412920Y-117069184D01*
X168623023Y-116940433D01*
X168810399Y-116780399D01*
X168970433Y-116593023D01*
X169099184Y-116382920D01*
X169193483Y-116155262D01*
X169251007Y-115915655D01*
X169270341Y-115670000D01*
X169251007Y-115424345D01*
X169193483Y-115184738D01*
X169167628Y-115122318D01*
X169099184Y-114957079D01*
X168970436Y-114746981D01*
X168970435Y-114746979D01*
X168934280Y-114704648D01*
X168810399Y-114559601D01*
X168686516Y-114453795D01*
X168623020Y-114399564D01*
X168623018Y-114399563D01*
X168412920Y-114270815D01*
X168185264Y-114176517D01*
X167945658Y-114118993D01*
X167700000Y-114099659D01*
X167454345Y-114118993D01*
X167454341Y-114118993D01*
X167454340Y-114118994D01*
X167211075Y-114177395D01*
X167141293Y-114173904D01*
X167094448Y-114144502D01*
X163663171Y-110713225D01*
X166195307Y-110713225D01*
X166209507Y-110959474D01*
X166209507Y-110959479D01*
X166263731Y-111200092D01*
X166356533Y-111428636D01*
X166485412Y-111638947D01*
X166560393Y-111725507D01*
X166646908Y-111825382D01*
X166836687Y-111982939D01*
X166836690Y-111982941D01*
X166836696Y-111982945D01*
X167049650Y-112107385D01*
X167280072Y-112195375D01*
X167280075Y-112195375D01*
X167280079Y-112195377D01*
X167521785Y-112244553D01*
X167768278Y-112253592D01*
X168012936Y-112222250D01*
X168249191Y-112151370D01*
X168470697Y-112042856D01*
X168671505Y-111899621D01*
X168846223Y-111725512D01*
X168990158Y-111525205D01*
X169099445Y-111304079D01*
X169171149Y-111068074D01*
X169203344Y-110823526D01*
X169205141Y-110750000D01*
X169184930Y-110504171D01*
X169124841Y-110264945D01*
X169026486Y-110038744D01*
X168892508Y-109831645D01*
X168726504Y-109649210D01*
X168532932Y-109496336D01*
X168316991Y-109377130D01*
X168316982Y-109377126D01*
X168084491Y-109294796D01*
X168084471Y-109294791D01*
X167841644Y-109251538D01*
X167841652Y-109251538D01*
X167600496Y-109248592D01*
X167595007Y-109248525D01*
X167595006Y-109248525D01*
X167595005Y-109248525D01*
X167595004Y-109248525D01*
X167351190Y-109285834D01*
X167351180Y-109285837D01*
X167116732Y-109362466D01*
X166897951Y-109476356D01*
X166897948Y-109476358D01*
X166700698Y-109624456D01*
X166530289Y-109802779D01*
X166530279Y-109802792D01*
X166391287Y-110006547D01*
X166391285Y-110006552D01*
X166287439Y-110230268D01*
X166287436Y-110230276D01*
X166221520Y-110467960D01*
X166221519Y-110467967D01*
X166195307Y-110713225D01*
X163663171Y-110713225D01*
X161586819Y-108636873D01*
X161553334Y-108575550D01*
X161550500Y-108549192D01*
X161550500Y-107370000D01*
X166129659Y-107370000D01*
X166148993Y-107615658D01*
X166206517Y-107855264D01*
X166300815Y-108082920D01*
X166429563Y-108293018D01*
X166429564Y-108293020D01*
X166429567Y-108293023D01*
X166589601Y-108480399D01*
X166701009Y-108575550D01*
X166776979Y-108640435D01*
X166776981Y-108640436D01*
X166987079Y-108769184D01*
X167214735Y-108863482D01*
X167214736Y-108863482D01*
X167214738Y-108863483D01*
X167454345Y-108921007D01*
X167700000Y-108940341D01*
X167945655Y-108921007D01*
X168185262Y-108863483D01*
X168412920Y-108769184D01*
X168623023Y-108640433D01*
X168810399Y-108480399D01*
X168970433Y-108293023D01*
X169099184Y-108082920D01*
X169193483Y-107855262D01*
X169251007Y-107615655D01*
X169270341Y-107370000D01*
X169251007Y-107124345D01*
X169193483Y-106884738D01*
X169099184Y-106657080D01*
X169099184Y-106657079D01*
X168970436Y-106446981D01*
X168970435Y-106446979D01*
X168934280Y-106404648D01*
X168810399Y-106259601D01*
X168686516Y-106153795D01*
X168623020Y-106099564D01*
X168623018Y-106099563D01*
X168412919Y-105970815D01*
X168412920Y-105970815D01*
X168298838Y-105923561D01*
X168244435Y-105879720D01*
X168222370Y-105813426D01*
X168239649Y-105745726D01*
X168290787Y-105698116D01*
X168346291Y-105685000D01*
X168712828Y-105685000D01*
X168712844Y-105684999D01*
X168772372Y-105678598D01*
X168772379Y-105678596D01*
X168907086Y-105628354D01*
X168907093Y-105628350D01*
X169022187Y-105542190D01*
X169022190Y-105542187D01*
X169108350Y-105427093D01*
X169108354Y-105427086D01*
X169158596Y-105292379D01*
X169158598Y-105292372D01*
X169164999Y-105232844D01*
X169165000Y-105232827D01*
X169165000Y-104520000D01*
X168256520Y-104520000D01*
X168284755Y-104459998D01*
X168313635Y-104308607D01*
X168303957Y-104154789D01*
X168260162Y-104020000D01*
X169165000Y-104020000D01*
X169165000Y-103307172D01*
X169164999Y-103307155D01*
X169158598Y-103247627D01*
X169158596Y-103247620D01*
X169108354Y-103112913D01*
X169108350Y-103112906D01*
X169022190Y-102997812D01*
X169022187Y-102997809D01*
X168907093Y-102911649D01*
X168907086Y-102911645D01*
X168772379Y-102861403D01*
X168772372Y-102861401D01*
X168712844Y-102855000D01*
X167950000Y-102855000D01*
X167950000Y-103711335D01*
X167926341Y-103698329D01*
X167777061Y-103660000D01*
X167661625Y-103660000D01*
X167547094Y-103674469D01*
X167450000Y-103712911D01*
X167450000Y-102855000D01*
X166687155Y-102855000D01*
X166627627Y-102861401D01*
X166627620Y-102861403D01*
X166492913Y-102911645D01*
X166492906Y-102911649D01*
X166377812Y-102997809D01*
X166377809Y-102997812D01*
X166291649Y-103112906D01*
X166291645Y-103112913D01*
X166241403Y-103247620D01*
X166241401Y-103247627D01*
X166235000Y-103307155D01*
X166235000Y-104020000D01*
X167143480Y-104020000D01*
X167115245Y-104080002D01*
X167086365Y-104231393D01*
X167096043Y-104385211D01*
X167139838Y-104520000D01*
X166235000Y-104520000D01*
X166235000Y-105232844D01*
X166241401Y-105292372D01*
X166241403Y-105292379D01*
X166291645Y-105427086D01*
X166291649Y-105427093D01*
X166377809Y-105542187D01*
X166377812Y-105542190D01*
X166492906Y-105628350D01*
X166492913Y-105628354D01*
X166627620Y-105678596D01*
X166627627Y-105678598D01*
X166687155Y-105684999D01*
X166687172Y-105685000D01*
X167053709Y-105685000D01*
X167120748Y-105704685D01*
X167166503Y-105757489D01*
X167176447Y-105826647D01*
X167147422Y-105890203D01*
X167101162Y-105923561D01*
X166987079Y-105970815D01*
X166776981Y-106099563D01*
X166776979Y-106099564D01*
X166589601Y-106259601D01*
X166429564Y-106446979D01*
X166429563Y-106446981D01*
X166300815Y-106657079D01*
X166206517Y-106884735D01*
X166148993Y-107124341D01*
X166129659Y-107370000D01*
X161550500Y-107370000D01*
X161550500Y-104447722D01*
X161570185Y-104380683D01*
X161603377Y-104346147D01*
X161767262Y-104231393D01*
X161771401Y-104228495D01*
X161938495Y-104061401D01*
X162074035Y-103867830D01*
X162173903Y-103653663D01*
X162235063Y-103425408D01*
X162255659Y-103190000D01*
X162235063Y-102954592D01*
X162173903Y-102726337D01*
X162074035Y-102512171D01*
X162038174Y-102460955D01*
X161938494Y-102318597D01*
X161771402Y-102151506D01*
X161771396Y-102151501D01*
X161585842Y-102021575D01*
X161542217Y-101966998D01*
X161535023Y-101897500D01*
X161566546Y-101835145D01*
X161585842Y-101818425D01*
X161608026Y-101802891D01*
X161771401Y-101688495D01*
X161938495Y-101521401D01*
X162056147Y-101353377D01*
X162110724Y-101309752D01*
X162157722Y-101300500D01*
X168024495Y-101300500D01*
X168040505Y-101302267D01*
X168040528Y-101302026D01*
X168048289Y-101302758D01*
X168048296Y-101302760D01*
X168118262Y-101300560D01*
X168122157Y-101300500D01*
X168150925Y-101300500D01*
X168155287Y-101299948D01*
X168166939Y-101299030D01*
X168212569Y-101297597D01*
X168232956Y-101291673D01*
X168251996Y-101287731D01*
X168273058Y-101285071D01*
X168315520Y-101268258D01*
X168326557Y-101264480D01*
X168370398Y-101251744D01*
X168388665Y-101240939D01*
X168406136Y-101232380D01*
X168425871Y-101224568D01*
X168462816Y-101197725D01*
X168472558Y-101191326D01*
X168511865Y-101168081D01*
X168526870Y-101153075D01*
X168541668Y-101140436D01*
X168558837Y-101127963D01*
X168587946Y-101092774D01*
X168595790Y-101084154D01*
X169471143Y-100208801D01*
X169518555Y-100179204D01*
X169714503Y-100111936D01*
X169918626Y-100001470D01*
X169946449Y-99979815D01*
X169989094Y-99946623D01*
X170101784Y-99858913D01*
X170258979Y-99688153D01*
X170296191Y-99631196D01*
X170349337Y-99585839D01*
X170418569Y-99576415D01*
X170481904Y-99605917D01*
X170503809Y-99631196D01*
X170541016Y-99688147D01*
X170541019Y-99688151D01*
X170541021Y-99688153D01*
X170698216Y-99858913D01*
X170698219Y-99858915D01*
X170698222Y-99858918D01*
X170881365Y-100001464D01*
X170881380Y-100001474D01*
X170934516Y-100030229D01*
X170984107Y-100079447D01*
X170999500Y-100139284D01*
X170999500Y-125849191D01*
X170979815Y-125916230D01*
X170963181Y-125936872D01*
X168305550Y-128594502D01*
X168244227Y-128627987D01*
X168188922Y-128627395D01*
X167945658Y-128568993D01*
X167700000Y-128549659D01*
X167454341Y-128568993D01*
X167214735Y-128626517D01*
X166987079Y-128720815D01*
X166776981Y-128849563D01*
X166776979Y-128849564D01*
X166589601Y-129009601D01*
X166429564Y-129196979D01*
X166429563Y-129196981D01*
X166300815Y-129407079D01*
X166206517Y-129634735D01*
X166148993Y-129874341D01*
X166129659Y-130120000D01*
X166148993Y-130365658D01*
X166206517Y-130605264D01*
X166300815Y-130832920D01*
X166429563Y-131043018D01*
X166429564Y-131043020D01*
X166429567Y-131043023D01*
X166589601Y-131230399D01*
X166734648Y-131354280D01*
X166776979Y-131390435D01*
X166776981Y-131390436D01*
X166987080Y-131519184D01*
X166989695Y-131520517D01*
X166990508Y-131521285D01*
X166991234Y-131521730D01*
X166991140Y-131521882D01*
X167040490Y-131568493D01*
X167057283Y-131636314D01*
X167034743Y-131702449D01*
X166980027Y-131745898D01*
X166933397Y-131755000D01*
X166687155Y-131755000D01*
X166627627Y-131761401D01*
X166627620Y-131761403D01*
X166492913Y-131811645D01*
X166492906Y-131811649D01*
X166377812Y-131897809D01*
X166377809Y-131897812D01*
X166291649Y-132012906D01*
X166291645Y-132012913D01*
X166241403Y-132147620D01*
X166241401Y-132147627D01*
X166235000Y-132207155D01*
X166235000Y-132920000D01*
X167143480Y-132920000D01*
X167115245Y-132980002D01*
X167086365Y-133131393D01*
X167096043Y-133285211D01*
X167139838Y-133420000D01*
X166235000Y-133420000D01*
X166235000Y-134132844D01*
X166241401Y-134192372D01*
X166241403Y-134192379D01*
X166291645Y-134327086D01*
X166291649Y-134327093D01*
X166377809Y-134442187D01*
X166377812Y-134442190D01*
X166492906Y-134528350D01*
X166492913Y-134528354D01*
X166627620Y-134578596D01*
X166627627Y-134578598D01*
X166687155Y-134584999D01*
X166687172Y-134585000D01*
X167053709Y-134585000D01*
X167120748Y-134604685D01*
X167166503Y-134657489D01*
X167176447Y-134726647D01*
X167147422Y-134790203D01*
X167101162Y-134823561D01*
X166987079Y-134870815D01*
X166776981Y-134999563D01*
X166776979Y-134999564D01*
X166589601Y-135159601D01*
X166429564Y-135346979D01*
X166429563Y-135346981D01*
X166300815Y-135557079D01*
X166206517Y-135784735D01*
X166148993Y-136024341D01*
X166129659Y-136270000D01*
X166148993Y-136515658D01*
X166206517Y-136755264D01*
X166300815Y-136982920D01*
X166429563Y-137193018D01*
X166429564Y-137193020D01*
X166483795Y-137256516D01*
X166589601Y-137380399D01*
X166734648Y-137504280D01*
X166776979Y-137540435D01*
X166776981Y-137540436D01*
X166987079Y-137669184D01*
X167214735Y-137763482D01*
X167214736Y-137763482D01*
X167214738Y-137763483D01*
X167454345Y-137821007D01*
X167700000Y-137840341D01*
X167945655Y-137821007D01*
X168185262Y-137763483D01*
X168412920Y-137669184D01*
X168623023Y-137540433D01*
X168810399Y-137380399D01*
X168970433Y-137193023D01*
X169099184Y-136982920D01*
X169193483Y-136755262D01*
X169251007Y-136515655D01*
X169270341Y-136270000D01*
X169251007Y-136024345D01*
X169193483Y-135784738D01*
X169171432Y-135731501D01*
X169099184Y-135557079D01*
X168970436Y-135346981D01*
X168970435Y-135346979D01*
X168919016Y-135286775D01*
X168810399Y-135159601D01*
X168681499Y-135049510D01*
X168623020Y-134999564D01*
X168623018Y-134999563D01*
X168412919Y-134870815D01*
X168412920Y-134870815D01*
X168298838Y-134823561D01*
X168244435Y-134779720D01*
X168222370Y-134713426D01*
X168239649Y-134645726D01*
X168290787Y-134598116D01*
X168346291Y-134585000D01*
X168712828Y-134585000D01*
X168712844Y-134584999D01*
X168772372Y-134578598D01*
X168772379Y-134578596D01*
X168907086Y-134528354D01*
X168907093Y-134528350D01*
X169022187Y-134442190D01*
X169022190Y-134442187D01*
X169108350Y-134327093D01*
X169108354Y-134327086D01*
X169158596Y-134192379D01*
X169158598Y-134192372D01*
X169164999Y-134132844D01*
X169165000Y-134132827D01*
X169165000Y-133420000D01*
X168256520Y-133420000D01*
X168284755Y-133359998D01*
X168313635Y-133208607D01*
X168303957Y-133054789D01*
X168260162Y-132920000D01*
X169165000Y-132920000D01*
X169165000Y-132207172D01*
X169164999Y-132207155D01*
X169158598Y-132147627D01*
X169158596Y-132147620D01*
X169108354Y-132012913D01*
X169108350Y-132012906D01*
X169022190Y-131897812D01*
X169022187Y-131897809D01*
X168907093Y-131811649D01*
X168907086Y-131811645D01*
X168772379Y-131761403D01*
X168772372Y-131761401D01*
X168712844Y-131755000D01*
X168466603Y-131755000D01*
X168399564Y-131735315D01*
X168353809Y-131682511D01*
X168343865Y-131613353D01*
X168372890Y-131549797D01*
X168410305Y-131520517D01*
X168412914Y-131519186D01*
X168412920Y-131519184D01*
X168623023Y-131390433D01*
X168810399Y-131230399D01*
X168970433Y-131043023D01*
X169099184Y-130832920D01*
X169193483Y-130605262D01*
X169251007Y-130365655D01*
X169270341Y-130120000D01*
X169251007Y-129874345D01*
X169193483Y-129634738D01*
X169192604Y-129631075D01*
X169196095Y-129561292D01*
X169225495Y-129514449D01*
X172049513Y-126690431D01*
X172062079Y-126680365D01*
X172061925Y-126680178D01*
X172067933Y-126675205D01*
X172067940Y-126675202D01*
X172095949Y-126645375D01*
X172115865Y-126624167D01*
X172118578Y-126621367D01*
X172138912Y-126601034D01*
X172141607Y-126597559D01*
X172149186Y-126588682D01*
X172180448Y-126555393D01*
X172190674Y-126536789D01*
X172201347Y-126520541D01*
X172214363Y-126503763D01*
X172232491Y-126461870D01*
X172237627Y-126451382D01*
X172259627Y-126411368D01*
X172264904Y-126390808D01*
X172271206Y-126372403D01*
X172279636Y-126352926D01*
X172286779Y-126307820D01*
X172289143Y-126296405D01*
X172300500Y-126252177D01*
X172300500Y-126230955D01*
X172302027Y-126211555D01*
X172305347Y-126190595D01*
X172301050Y-126145136D01*
X172300500Y-126133467D01*
X172300500Y-125163225D01*
X177145307Y-125163225D01*
X177159507Y-125409474D01*
X177159507Y-125409479D01*
X177213731Y-125650092D01*
X177213734Y-125650099D01*
X177294576Y-125849191D01*
X177306533Y-125878636D01*
X177435412Y-126088947D01*
X177484085Y-126145136D01*
X177596908Y-126275382D01*
X177786687Y-126432939D01*
X177786690Y-126432941D01*
X177786696Y-126432945D01*
X177999650Y-126557385D01*
X178230072Y-126645375D01*
X178230075Y-126645375D01*
X178230079Y-126645377D01*
X178471785Y-126694553D01*
X178718278Y-126703592D01*
X178962936Y-126672250D01*
X179199191Y-126601370D01*
X179420697Y-126492856D01*
X179621505Y-126349621D01*
X179796223Y-126175512D01*
X179940158Y-125975205D01*
X180049445Y-125754079D01*
X180121149Y-125518074D01*
X180153344Y-125273526D01*
X180155141Y-125200000D01*
X180134930Y-124954171D01*
X180074841Y-124714945D01*
X179976486Y-124488744D01*
X179842508Y-124281645D01*
X179676504Y-124099210D01*
X179482932Y-123946336D01*
X179266991Y-123827130D01*
X179266982Y-123827126D01*
X179034491Y-123744796D01*
X179034471Y-123744791D01*
X178791644Y-123701538D01*
X178791652Y-123701538D01*
X178550496Y-123698592D01*
X178545007Y-123698525D01*
X178545006Y-123698525D01*
X178545005Y-123698525D01*
X178545004Y-123698525D01*
X178301190Y-123735834D01*
X178301180Y-123735837D01*
X178066732Y-123812466D01*
X177847951Y-123926356D01*
X177847948Y-123926358D01*
X177650698Y-124074456D01*
X177480289Y-124252779D01*
X177480279Y-124252792D01*
X177341287Y-124456547D01*
X177341285Y-124456552D01*
X177237439Y-124680268D01*
X177237436Y-124680276D01*
X177171520Y-124917960D01*
X177171519Y-124917967D01*
X177145307Y-125163225D01*
X172300500Y-125163225D01*
X172300500Y-121820000D01*
X177079659Y-121820000D01*
X177098993Y-122065658D01*
X177156517Y-122305264D01*
X177250815Y-122532920D01*
X177379563Y-122743018D01*
X177379564Y-122743020D01*
X177379567Y-122743023D01*
X177539601Y-122930399D01*
X177684648Y-123054280D01*
X177726979Y-123090435D01*
X177726981Y-123090436D01*
X177937079Y-123219184D01*
X178164735Y-123313482D01*
X178164736Y-123313482D01*
X178164738Y-123313483D01*
X178404345Y-123371007D01*
X178650000Y-123390341D01*
X178895655Y-123371007D01*
X179135262Y-123313483D01*
X179362920Y-123219184D01*
X179573023Y-123090433D01*
X179760399Y-122930399D01*
X179920433Y-122743023D01*
X180049184Y-122532920D01*
X180143483Y-122305262D01*
X180201007Y-122065655D01*
X180220341Y-121820000D01*
X180201007Y-121574345D01*
X180143483Y-121334738D01*
X180049184Y-121107080D01*
X180049184Y-121107079D01*
X179920436Y-120896981D01*
X179920435Y-120896979D01*
X179884280Y-120854648D01*
X179760399Y-120709601D01*
X179636516Y-120603795D01*
X179573020Y-120549564D01*
X179573018Y-120549563D01*
X179362919Y-120420815D01*
X179362920Y-120420815D01*
X179248838Y-120373561D01*
X179194435Y-120329720D01*
X179172370Y-120263426D01*
X179189649Y-120195726D01*
X179240787Y-120148116D01*
X179296291Y-120135000D01*
X179662828Y-120135000D01*
X179662844Y-120134999D01*
X179722372Y-120128598D01*
X179722379Y-120128596D01*
X179857086Y-120078354D01*
X179857093Y-120078350D01*
X179972187Y-119992190D01*
X179972190Y-119992187D01*
X180058350Y-119877093D01*
X180058354Y-119877086D01*
X180108596Y-119742379D01*
X180108598Y-119742372D01*
X180114999Y-119682844D01*
X180115000Y-119682827D01*
X180115000Y-118970000D01*
X179206520Y-118970000D01*
X179234755Y-118909998D01*
X179263635Y-118758607D01*
X179253957Y-118604789D01*
X179210162Y-118470000D01*
X180115000Y-118470000D01*
X180115000Y-117757172D01*
X180114999Y-117757155D01*
X180108598Y-117697627D01*
X180108596Y-117697620D01*
X180058354Y-117562913D01*
X180058350Y-117562906D01*
X179972190Y-117447812D01*
X179972187Y-117447809D01*
X179857093Y-117361649D01*
X179857086Y-117361645D01*
X179722379Y-117311403D01*
X179722372Y-117311401D01*
X179662844Y-117305000D01*
X178900000Y-117305000D01*
X178900000Y-118161335D01*
X178876341Y-118148329D01*
X178727061Y-118110000D01*
X178611625Y-118110000D01*
X178497094Y-118124469D01*
X178400000Y-118162911D01*
X178400000Y-117305000D01*
X177637155Y-117305000D01*
X177577627Y-117311401D01*
X177577620Y-117311403D01*
X177442913Y-117361645D01*
X177442906Y-117361649D01*
X177327812Y-117447809D01*
X177327809Y-117447812D01*
X177241649Y-117562906D01*
X177241645Y-117562913D01*
X177191403Y-117697620D01*
X177191401Y-117697627D01*
X177185000Y-117757155D01*
X177185000Y-118470000D01*
X178093480Y-118470000D01*
X178065245Y-118530002D01*
X178036365Y-118681393D01*
X178046043Y-118835211D01*
X178089838Y-118970000D01*
X177185000Y-118970000D01*
X177185000Y-119682844D01*
X177191401Y-119742372D01*
X177191403Y-119742379D01*
X177241645Y-119877086D01*
X177241649Y-119877093D01*
X177327809Y-119992187D01*
X177327812Y-119992190D01*
X177442906Y-120078350D01*
X177442913Y-120078354D01*
X177577620Y-120128596D01*
X177577627Y-120128598D01*
X177637155Y-120134999D01*
X177637172Y-120135000D01*
X178003709Y-120135000D01*
X178070748Y-120154685D01*
X178116503Y-120207489D01*
X178126447Y-120276647D01*
X178097422Y-120340203D01*
X178051162Y-120373561D01*
X177937079Y-120420815D01*
X177726981Y-120549563D01*
X177726979Y-120549564D01*
X177539601Y-120709601D01*
X177379564Y-120896979D01*
X177379563Y-120896981D01*
X177250815Y-121107079D01*
X177156517Y-121334735D01*
X177098993Y-121574341D01*
X177079659Y-121820000D01*
X172300500Y-121820000D01*
X172300500Y-100139284D01*
X172320185Y-100072245D01*
X172365484Y-100030229D01*
X172418619Y-100001474D01*
X172418620Y-100001472D01*
X172418626Y-100001470D01*
X172446449Y-99979815D01*
X172489094Y-99946623D01*
X172601784Y-99858913D01*
X172758979Y-99688153D01*
X172885924Y-99493849D01*
X172979157Y-99281300D01*
X173036134Y-99056305D01*
X173036135Y-99056297D01*
X173055300Y-98825006D01*
X173055300Y-98824993D01*
X173036135Y-98593702D01*
X173036133Y-98593691D01*
X172979157Y-98368699D01*
X172885924Y-98156151D01*
X172758983Y-97961852D01*
X172758980Y-97961849D01*
X172758979Y-97961847D01*
X172601784Y-97791087D01*
X172500626Y-97712353D01*
X172459814Y-97655643D01*
X172456139Y-97585870D01*
X172490770Y-97525187D01*
X172552712Y-97492860D01*
X172576789Y-97490500D01*
X173034495Y-97490500D01*
X173050505Y-97492267D01*
X173050528Y-97492026D01*
X173058289Y-97492758D01*
X173058296Y-97492760D01*
X173128262Y-97490560D01*
X173132157Y-97490500D01*
X173160925Y-97490500D01*
X173165287Y-97489948D01*
X173176939Y-97489030D01*
X173222569Y-97487597D01*
X173242956Y-97481673D01*
X173261996Y-97477731D01*
X173283058Y-97475071D01*
X173325520Y-97458258D01*
X173336557Y-97454480D01*
X173380398Y-97441744D01*
X173398665Y-97430939D01*
X173416136Y-97422380D01*
X173435871Y-97414568D01*
X173472816Y-97387725D01*
X173482558Y-97381326D01*
X173521865Y-97358081D01*
X173536870Y-97343075D01*
X173551668Y-97330436D01*
X173568837Y-97317963D01*
X173597946Y-97282774D01*
X173605790Y-97274154D01*
X179226927Y-91653017D01*
X181489500Y-91653017D01*
X181504403Y-91856615D01*
X181504405Y-91856629D01*
X181563615Y-92122435D01*
X181563618Y-92122442D01*
X181658440Y-92370365D01*
X181660908Y-92376816D01*
X181794195Y-92614308D01*
X181794198Y-92614313D01*
X181957896Y-92826309D01*
X181960645Y-92829868D01*
X182156705Y-93018894D01*
X182156708Y-93018896D01*
X182156709Y-93018897D01*
X182378189Y-93177352D01*
X182378192Y-93177353D01*
X182378198Y-93177358D01*
X182620403Y-93301885D01*
X182620407Y-93301886D01*
X182620411Y-93301888D01*
X182878145Y-93389815D01*
X182878151Y-93389816D01*
X182878159Y-93389819D01*
X183038564Y-93419447D01*
X183145959Y-93439284D01*
X183145961Y-93439284D01*
X183145971Y-93439286D01*
X183363699Y-93447242D01*
X183418129Y-93449232D01*
X183418129Y-93449231D01*
X183418131Y-93449232D01*
X183688839Y-93419446D01*
X183952326Y-93350562D01*
X184202975Y-93244047D01*
X184435444Y-93102173D01*
X184644779Y-92927963D01*
X184826518Y-92725131D01*
X184976788Y-92497998D01*
X185092386Y-92251406D01*
X185170847Y-91990611D01*
X185210500Y-91721171D01*
X185210500Y-91653017D01*
X191089500Y-91653017D01*
X191104403Y-91856615D01*
X191104405Y-91856629D01*
X191163615Y-92122435D01*
X191163618Y-92122442D01*
X191258440Y-92370365D01*
X191260908Y-92376816D01*
X191394195Y-92614308D01*
X191394198Y-92614313D01*
X191557896Y-92826309D01*
X191560645Y-92829868D01*
X191756705Y-93018894D01*
X191756708Y-93018896D01*
X191756709Y-93018897D01*
X191978189Y-93177352D01*
X191978192Y-93177353D01*
X191978198Y-93177358D01*
X192220403Y-93301885D01*
X192220407Y-93301886D01*
X192220411Y-93301888D01*
X192478145Y-93389815D01*
X192478151Y-93389816D01*
X192478159Y-93389819D01*
X192638564Y-93419447D01*
X192745959Y-93439284D01*
X192745961Y-93439284D01*
X192745971Y-93439286D01*
X192963699Y-93447242D01*
X193018129Y-93449232D01*
X193018129Y-93449231D01*
X193018131Y-93449232D01*
X193288839Y-93419446D01*
X193552326Y-93350562D01*
X193802975Y-93244047D01*
X194035444Y-93102173D01*
X194244779Y-92927963D01*
X194426518Y-92725131D01*
X194576788Y-92497998D01*
X194692386Y-92251406D01*
X194770847Y-91990611D01*
X194810500Y-91721171D01*
X194810500Y-90997000D01*
X194795597Y-90793384D01*
X194780454Y-90725403D01*
X194736384Y-90527564D01*
X194736382Y-90527560D01*
X194736382Y-90527558D01*
X194639093Y-90273186D01*
X194505804Y-90035690D01*
X194339355Y-89820132D01*
X194143295Y-89631106D01*
X194143292Y-89631104D01*
X194143290Y-89631102D01*
X193921810Y-89472647D01*
X193921804Y-89472643D01*
X193921802Y-89472642D01*
X193792092Y-89405953D01*
X193679602Y-89348117D01*
X193679588Y-89348111D01*
X193421854Y-89260184D01*
X193421841Y-89260181D01*
X193421836Y-89260180D01*
X193154040Y-89210715D01*
X193154020Y-89210713D01*
X192881870Y-89200767D01*
X192611172Y-89230552D01*
X192611159Y-89230554D01*
X192347679Y-89299436D01*
X192347674Y-89299437D01*
X192347674Y-89299438D01*
X192345175Y-89300500D01*
X192097025Y-89405953D01*
X191864560Y-89547824D01*
X191864550Y-89547831D01*
X191655222Y-89722035D01*
X191473482Y-89924868D01*
X191323213Y-90151999D01*
X191207613Y-90398597D01*
X191129152Y-90659392D01*
X191119438Y-90725403D01*
X191089500Y-90928829D01*
X191089500Y-90928833D01*
X191089500Y-91653017D01*
X185210500Y-91653017D01*
X185210500Y-90997000D01*
X185195597Y-90793384D01*
X185180454Y-90725403D01*
X185136384Y-90527564D01*
X185136382Y-90527560D01*
X185136382Y-90527558D01*
X185039093Y-90273186D01*
X184905804Y-90035690D01*
X184739355Y-89820132D01*
X184543295Y-89631106D01*
X184543292Y-89631104D01*
X184543290Y-89631102D01*
X184321810Y-89472647D01*
X184321804Y-89472643D01*
X184321802Y-89472642D01*
X184192092Y-89405953D01*
X184079602Y-89348117D01*
X184079588Y-89348111D01*
X183821854Y-89260184D01*
X183821841Y-89260181D01*
X183821836Y-89260180D01*
X183554040Y-89210715D01*
X183554020Y-89210713D01*
X183281870Y-89200767D01*
X183011172Y-89230552D01*
X183011159Y-89230554D01*
X182747679Y-89299436D01*
X182747674Y-89299437D01*
X182747674Y-89299438D01*
X182745175Y-89300500D01*
X182497025Y-89405953D01*
X182264560Y-89547824D01*
X182264550Y-89547831D01*
X182055222Y-89722035D01*
X181873482Y-89924868D01*
X181723213Y-90151999D01*
X181607613Y-90398597D01*
X181529152Y-90659392D01*
X181519438Y-90725403D01*
X181489500Y-90928829D01*
X181489500Y-90928833D01*
X181489500Y-91653017D01*
X179226927Y-91653017D01*
X188549513Y-82330431D01*
X188562079Y-82320365D01*
X188561925Y-82320178D01*
X188567933Y-82315205D01*
X188567940Y-82315202D01*
X188591227Y-82290402D01*
X188615865Y-82264167D01*
X188618578Y-82261367D01*
X188638911Y-82241035D01*
X188641606Y-82237560D01*
X188649199Y-82228669D01*
X188680445Y-82195396D01*
X188680444Y-82195396D01*
X188680448Y-82195393D01*
X188690674Y-82176789D01*
X188701347Y-82160541D01*
X188714363Y-82143763D01*
X188732491Y-82101870D01*
X188737627Y-82091382D01*
X188759627Y-82051368D01*
X188764904Y-82030808D01*
X188771206Y-82012403D01*
X188779636Y-81992926D01*
X188786779Y-81947820D01*
X188789143Y-81936405D01*
X188800500Y-81892177D01*
X188800500Y-81870955D01*
X188802027Y-81851555D01*
X188805347Y-81830595D01*
X188801050Y-81785140D01*
X188800500Y-81773470D01*
X188800500Y-80139284D01*
X188820185Y-80072245D01*
X188865484Y-80030229D01*
X188918619Y-80001474D01*
X188918620Y-80001472D01*
X188918626Y-80001470D01*
X188921204Y-79999464D01*
X188980129Y-79953600D01*
X189101784Y-79858913D01*
X189258979Y-79688153D01*
X189296191Y-79631196D01*
X189349337Y-79585839D01*
X189418569Y-79576415D01*
X189481904Y-79605917D01*
X189503809Y-79631196D01*
X189541016Y-79688147D01*
X189541019Y-79688151D01*
X189541021Y-79688153D01*
X189698216Y-79858913D01*
X189698219Y-79858915D01*
X189698222Y-79858918D01*
X189881365Y-80001464D01*
X189881371Y-80001468D01*
X189881374Y-80001470D01*
X190085497Y-80111936D01*
X190163301Y-80138646D01*
X190305015Y-80187297D01*
X190305017Y-80187297D01*
X190305019Y-80187298D01*
X190533951Y-80225500D01*
X190533952Y-80225500D01*
X190766048Y-80225500D01*
X190766049Y-80225500D01*
X190994981Y-80187298D01*
X191214503Y-80111936D01*
X191418626Y-80001470D01*
X191421204Y-79999464D01*
X191480129Y-79953600D01*
X191601784Y-79858913D01*
X191758979Y-79688153D01*
X191885924Y-79493849D01*
X191979157Y-79281300D01*
X192036134Y-79056305D01*
X192036135Y-79056297D01*
X192055300Y-78825006D01*
X192055300Y-78824993D01*
X192036135Y-78593702D01*
X192036133Y-78593691D01*
X191979157Y-78368699D01*
X191885924Y-78156151D01*
X191758983Y-77961852D01*
X191758980Y-77961849D01*
X191758979Y-77961847D01*
X191601784Y-77791087D01*
X191601779Y-77791083D01*
X191601777Y-77791081D01*
X191418634Y-77648535D01*
X191418628Y-77648531D01*
X191214504Y-77538064D01*
X191214495Y-77538061D01*
X190994984Y-77462702D01*
X190807404Y-77431401D01*
X190766049Y-77424500D01*
X190533951Y-77424500D01*
X190492596Y-77431401D01*
X190305015Y-77462702D01*
X190085504Y-77538061D01*
X190085495Y-77538064D01*
X189881371Y-77648531D01*
X189881365Y-77648535D01*
X189698222Y-77791081D01*
X189698219Y-77791084D01*
X189698216Y-77791086D01*
X189698216Y-77791087D01*
X189613489Y-77883126D01*
X189541015Y-77961854D01*
X189503808Y-78018804D01*
X189450662Y-78064161D01*
X189381430Y-78073584D01*
X189318095Y-78044082D01*
X189296192Y-78018804D01*
X189258984Y-77961854D01*
X189258982Y-77961852D01*
X189258979Y-77961847D01*
X189101784Y-77791087D01*
X189101779Y-77791083D01*
X189101777Y-77791081D01*
X188918634Y-77648535D01*
X188918628Y-77648531D01*
X188714504Y-77538064D01*
X188714495Y-77538061D01*
X188494984Y-77462702D01*
X188307404Y-77431401D01*
X188266049Y-77424500D01*
X188033951Y-77424500D01*
X187992596Y-77431401D01*
X187805015Y-77462702D01*
X187585504Y-77538061D01*
X187585495Y-77538064D01*
X187381372Y-77648531D01*
X187204023Y-77786567D01*
X187139029Y-77812209D01*
X187070489Y-77798642D01*
X187020164Y-77750174D01*
X187011679Y-77732045D01*
X186993355Y-77682915D01*
X186993350Y-77682906D01*
X186907190Y-77567812D01*
X186907187Y-77567809D01*
X186792093Y-77481649D01*
X186792086Y-77481645D01*
X186657379Y-77431403D01*
X186657372Y-77431401D01*
X186597844Y-77425000D01*
X185900000Y-77425000D01*
X185900000Y-78389498D01*
X185792315Y-78340320D01*
X185685763Y-78325000D01*
X185614237Y-78325000D01*
X185507685Y-78340320D01*
X185400000Y-78389498D01*
X185400000Y-77425000D01*
X184702155Y-77425000D01*
X184642627Y-77431401D01*
X184642620Y-77431403D01*
X184507913Y-77481645D01*
X184507906Y-77481649D01*
X184392812Y-77567809D01*
X184392809Y-77567812D01*
X184306649Y-77682906D01*
X184306645Y-77682913D01*
X184256403Y-77817620D01*
X184256401Y-77817627D01*
X184250000Y-77877155D01*
X184250000Y-78575000D01*
X185216314Y-78575000D01*
X185190507Y-78615156D01*
X185150000Y-78753111D01*
X185150000Y-78896889D01*
X185190507Y-79034844D01*
X185216314Y-79075000D01*
X184250000Y-79075000D01*
X184250000Y-79772844D01*
X184256401Y-79832372D01*
X184256403Y-79832379D01*
X184306645Y-79967086D01*
X184306649Y-79967093D01*
X184392809Y-80082187D01*
X184392812Y-80082190D01*
X184507906Y-80168350D01*
X184507913Y-80168354D01*
X184642620Y-80218596D01*
X184642627Y-80218598D01*
X184702155Y-80224999D01*
X184702172Y-80225000D01*
X185400000Y-80225000D01*
X185400000Y-79260501D01*
X185507685Y-79309680D01*
X185614237Y-79325000D01*
X185685763Y-79325000D01*
X185792315Y-79309680D01*
X185900000Y-79260501D01*
X185900000Y-80225000D01*
X186597828Y-80225000D01*
X186597844Y-80224999D01*
X186657372Y-80218598D01*
X186657379Y-80218596D01*
X186792086Y-80168354D01*
X186792093Y-80168350D01*
X186907187Y-80082190D01*
X186907190Y-80082187D01*
X186993350Y-79967093D01*
X186993353Y-79967088D01*
X187011678Y-79917955D01*
X187053549Y-79862020D01*
X187119013Y-79837602D01*
X187187286Y-79852453D01*
X187204023Y-79863433D01*
X187381365Y-80001464D01*
X187381380Y-80001474D01*
X187434516Y-80030229D01*
X187484107Y-80079447D01*
X187499500Y-80139284D01*
X187499500Y-81489192D01*
X187479815Y-81556231D01*
X187463181Y-81576873D01*
X172886873Y-96153181D01*
X172825550Y-96186666D01*
X172799192Y-96189500D01*
X167529807Y-96189500D01*
X167462768Y-96169815D01*
X167417013Y-96117011D01*
X167407069Y-96047853D01*
X167436094Y-95984297D01*
X167442126Y-95977819D01*
X169221520Y-94198425D01*
X171039513Y-92380431D01*
X171052079Y-92370365D01*
X171051925Y-92370178D01*
X171057933Y-92365205D01*
X171057940Y-92365202D01*
X171081227Y-92340402D01*
X171105865Y-92314167D01*
X171108578Y-92311367D01*
X171128911Y-92291035D01*
X171131606Y-92287560D01*
X171139199Y-92278669D01*
X171170448Y-92245393D01*
X171180674Y-92226790D01*
X171191353Y-92210533D01*
X171204362Y-92193764D01*
X171222491Y-92151866D01*
X171227620Y-92141395D01*
X171249627Y-92101368D01*
X171254905Y-92080806D01*
X171261207Y-92062399D01*
X171269635Y-92042927D01*
X171276777Y-91997825D01*
X171279140Y-91986418D01*
X171290500Y-91942177D01*
X171290500Y-91920949D01*
X171292027Y-91901549D01*
X171295346Y-91880595D01*
X171291050Y-91835147D01*
X171290500Y-91823478D01*
X171290500Y-91653017D01*
X172089500Y-91653017D01*
X172104403Y-91856615D01*
X172104405Y-91856629D01*
X172163615Y-92122435D01*
X172163618Y-92122442D01*
X172258440Y-92370365D01*
X172260908Y-92376816D01*
X172394195Y-92614308D01*
X172394198Y-92614313D01*
X172557896Y-92826309D01*
X172560645Y-92829868D01*
X172756705Y-93018894D01*
X172756708Y-93018896D01*
X172756709Y-93018897D01*
X172978189Y-93177352D01*
X172978192Y-93177353D01*
X172978198Y-93177358D01*
X173220403Y-93301885D01*
X173220407Y-93301886D01*
X173220411Y-93301888D01*
X173478145Y-93389815D01*
X173478151Y-93389816D01*
X173478159Y-93389819D01*
X173638564Y-93419447D01*
X173745959Y-93439284D01*
X173745961Y-93439284D01*
X173745971Y-93439286D01*
X173963699Y-93447242D01*
X174018129Y-93449232D01*
X174018129Y-93449231D01*
X174018131Y-93449232D01*
X174288839Y-93419446D01*
X174552326Y-93350562D01*
X174802975Y-93244047D01*
X175035444Y-93102173D01*
X175244779Y-92927963D01*
X175426518Y-92725131D01*
X175576788Y-92497998D01*
X175692386Y-92251406D01*
X175770847Y-91990611D01*
X175810500Y-91721171D01*
X175810500Y-90997000D01*
X175795597Y-90793384D01*
X175780454Y-90725403D01*
X175736384Y-90527564D01*
X175736382Y-90527560D01*
X175736382Y-90527558D01*
X175639093Y-90273186D01*
X175505804Y-90035690D01*
X175339355Y-89820132D01*
X175143295Y-89631106D01*
X175143292Y-89631104D01*
X175143290Y-89631102D01*
X174921810Y-89472647D01*
X174921804Y-89472643D01*
X174921802Y-89472642D01*
X174792092Y-89405953D01*
X174679602Y-89348117D01*
X174679588Y-89348111D01*
X174421854Y-89260184D01*
X174421841Y-89260181D01*
X174421836Y-89260180D01*
X174154040Y-89210715D01*
X174154020Y-89210713D01*
X173881870Y-89200767D01*
X173611172Y-89230552D01*
X173611159Y-89230554D01*
X173347679Y-89299436D01*
X173347674Y-89299437D01*
X173347674Y-89299438D01*
X173345175Y-89300500D01*
X173097025Y-89405953D01*
X172864560Y-89547824D01*
X172864550Y-89547831D01*
X172655222Y-89722035D01*
X172473482Y-89924868D01*
X172323213Y-90151999D01*
X172207613Y-90398597D01*
X172129152Y-90659392D01*
X172119438Y-90725403D01*
X172089500Y-90928829D01*
X172089500Y-90928833D01*
X172089500Y-91653017D01*
X171290500Y-91653017D01*
X171290500Y-80950807D01*
X171310185Y-80883768D01*
X171326815Y-80863130D01*
X171986371Y-80203573D01*
X172033785Y-80173975D01*
X172214503Y-80111936D01*
X172418626Y-80001470D01*
X172421204Y-79999464D01*
X172480129Y-79953600D01*
X172601784Y-79858913D01*
X172758979Y-79688153D01*
X172885924Y-79493849D01*
X172979157Y-79281300D01*
X173036134Y-79056305D01*
X173036135Y-79056297D01*
X173055300Y-78825006D01*
X173055300Y-78824993D01*
X173036135Y-78593702D01*
X173036133Y-78593691D01*
X172979157Y-78368699D01*
X172885924Y-78156151D01*
X172758983Y-77961852D01*
X172758980Y-77961849D01*
X172758979Y-77961847D01*
X172601784Y-77791087D01*
X172601779Y-77791083D01*
X172601777Y-77791081D01*
X172418634Y-77648535D01*
X172418628Y-77648531D01*
X172214504Y-77538064D01*
X172214495Y-77538061D01*
X171994984Y-77462702D01*
X171807404Y-77431401D01*
X171766049Y-77424500D01*
X171533951Y-77424500D01*
X171492596Y-77431401D01*
X171305015Y-77462702D01*
X171085504Y-77538061D01*
X171085495Y-77538064D01*
X170881371Y-77648531D01*
X170881365Y-77648535D01*
X170698222Y-77791081D01*
X170698219Y-77791084D01*
X170698216Y-77791086D01*
X170698216Y-77791087D01*
X170613489Y-77883126D01*
X170541015Y-77961854D01*
X170503808Y-78018804D01*
X170450662Y-78064161D01*
X170381430Y-78073584D01*
X170318095Y-78044082D01*
X170296192Y-78018804D01*
X170258984Y-77961854D01*
X170258982Y-77961852D01*
X170258979Y-77961847D01*
X170101784Y-77791087D01*
X170101779Y-77791083D01*
X170101777Y-77791081D01*
X169918634Y-77648535D01*
X169918628Y-77648531D01*
X169714504Y-77538064D01*
X169714495Y-77538061D01*
X169494984Y-77462702D01*
X169307404Y-77431401D01*
X169266049Y-77424500D01*
X169033951Y-77424500D01*
X168992596Y-77431401D01*
X168805015Y-77462702D01*
X168585504Y-77538061D01*
X168585495Y-77538064D01*
X168381372Y-77648531D01*
X168204023Y-77786567D01*
X168139029Y-77812209D01*
X168070489Y-77798642D01*
X168020164Y-77750174D01*
X168011679Y-77732045D01*
X167993355Y-77682915D01*
X167993350Y-77682906D01*
X167907190Y-77567812D01*
X167907187Y-77567809D01*
X167792093Y-77481649D01*
X167792086Y-77481645D01*
X167657379Y-77431403D01*
X167657372Y-77431401D01*
X167597844Y-77425000D01*
X166900000Y-77425000D01*
X166900000Y-78389498D01*
X166792315Y-78340320D01*
X166685763Y-78325000D01*
X166614237Y-78325000D01*
X166507685Y-78340320D01*
X166400000Y-78389498D01*
X166400000Y-77425000D01*
X165824308Y-77425000D01*
X165757269Y-77405315D01*
X165711514Y-77352511D01*
X165701570Y-77283353D01*
X165730595Y-77219797D01*
X165736627Y-77213319D01*
X166093127Y-76856819D01*
X166154450Y-76823334D01*
X166180808Y-76820500D01*
X174454495Y-76820500D01*
X174470505Y-76822267D01*
X174470528Y-76822026D01*
X174478289Y-76822758D01*
X174478296Y-76822760D01*
X174548262Y-76820560D01*
X174552157Y-76820500D01*
X174580925Y-76820500D01*
X174585287Y-76819948D01*
X174596939Y-76819030D01*
X174642569Y-76817597D01*
X174662956Y-76811673D01*
X174681996Y-76807731D01*
X174703058Y-76805071D01*
X174745520Y-76788258D01*
X174756557Y-76784480D01*
X174800398Y-76771744D01*
X174818665Y-76760939D01*
X174836136Y-76752380D01*
X174855871Y-76744568D01*
X174892816Y-76717725D01*
X174902558Y-76711326D01*
X174941865Y-76688081D01*
X174956870Y-76673075D01*
X174971668Y-76660436D01*
X174988837Y-76647963D01*
X175017946Y-76612774D01*
X175025790Y-76604154D01*
X179976927Y-71653017D01*
X181489500Y-71653017D01*
X181504403Y-71856615D01*
X181504405Y-71856629D01*
X181563615Y-72122435D01*
X181563618Y-72122442D01*
X181660907Y-72376814D01*
X181794196Y-72614310D01*
X181960645Y-72829868D01*
X182156705Y-73018894D01*
X182156708Y-73018896D01*
X182156709Y-73018897D01*
X182378189Y-73177352D01*
X182378192Y-73177353D01*
X182378198Y-73177358D01*
X182620403Y-73301885D01*
X182620407Y-73301886D01*
X182620411Y-73301888D01*
X182878145Y-73389815D01*
X182878151Y-73389816D01*
X182878159Y-73389819D01*
X183038564Y-73419447D01*
X183145959Y-73439284D01*
X183145961Y-73439284D01*
X183145971Y-73439286D01*
X183363699Y-73447242D01*
X183418129Y-73449232D01*
X183418129Y-73449231D01*
X183418131Y-73449232D01*
X183688839Y-73419446D01*
X183952326Y-73350562D01*
X184202975Y-73244047D01*
X184435444Y-73102173D01*
X184644779Y-72927963D01*
X184826518Y-72725131D01*
X184976788Y-72497998D01*
X185092386Y-72251406D01*
X185170847Y-71990611D01*
X185210500Y-71721171D01*
X185210500Y-71653017D01*
X191089500Y-71653017D01*
X191104403Y-71856615D01*
X191104405Y-71856629D01*
X191163615Y-72122435D01*
X191163618Y-72122442D01*
X191260907Y-72376814D01*
X191394196Y-72614310D01*
X191560645Y-72829868D01*
X191756705Y-73018894D01*
X191756708Y-73018896D01*
X191756709Y-73018897D01*
X191978189Y-73177352D01*
X191978192Y-73177353D01*
X191978198Y-73177358D01*
X192220403Y-73301885D01*
X192220407Y-73301886D01*
X192220411Y-73301888D01*
X192478145Y-73389815D01*
X192478151Y-73389816D01*
X192478159Y-73389819D01*
X192638564Y-73419447D01*
X192745959Y-73439284D01*
X192745961Y-73439284D01*
X192745971Y-73439286D01*
X192963699Y-73447242D01*
X193018129Y-73449232D01*
X193018129Y-73449231D01*
X193018131Y-73449232D01*
X193288839Y-73419446D01*
X193552326Y-73350562D01*
X193802975Y-73244047D01*
X194035444Y-73102173D01*
X194244779Y-72927963D01*
X194426518Y-72725131D01*
X194576788Y-72497998D01*
X194692386Y-72251406D01*
X194770847Y-71990611D01*
X194810500Y-71721171D01*
X194810500Y-70997000D01*
X194809457Y-70982755D01*
X194800748Y-70863764D01*
X194795597Y-70793384D01*
X194766345Y-70662066D01*
X194736384Y-70527564D01*
X194736382Y-70527560D01*
X194736382Y-70527558D01*
X194639093Y-70273186D01*
X194505804Y-70035690D01*
X194339355Y-69820132D01*
X194143295Y-69631106D01*
X194143292Y-69631104D01*
X194143290Y-69631102D01*
X193921810Y-69472647D01*
X193921804Y-69472643D01*
X193921802Y-69472642D01*
X193792092Y-69405953D01*
X193679602Y-69348117D01*
X193679588Y-69348111D01*
X193421854Y-69260184D01*
X193421841Y-69260181D01*
X193421836Y-69260180D01*
X193154040Y-69210715D01*
X193154020Y-69210713D01*
X192881870Y-69200767D01*
X192611172Y-69230552D01*
X192611159Y-69230554D01*
X192347679Y-69299436D01*
X192097025Y-69405953D01*
X191864560Y-69547824D01*
X191864550Y-69547831D01*
X191655222Y-69722035D01*
X191473482Y-69924868D01*
X191323213Y-70151999D01*
X191207613Y-70398597D01*
X191129152Y-70659392D01*
X191112673Y-70771368D01*
X191089500Y-70928829D01*
X191089500Y-70928833D01*
X191089500Y-71653017D01*
X185210500Y-71653017D01*
X185210500Y-70997000D01*
X185209457Y-70982755D01*
X185200748Y-70863764D01*
X185195597Y-70793384D01*
X185166345Y-70662066D01*
X185136384Y-70527564D01*
X185136382Y-70527560D01*
X185136382Y-70527558D01*
X185039093Y-70273186D01*
X184905804Y-70035690D01*
X184739355Y-69820132D01*
X184543295Y-69631106D01*
X184543292Y-69631104D01*
X184543290Y-69631102D01*
X184321810Y-69472647D01*
X184321804Y-69472643D01*
X184321802Y-69472642D01*
X184192092Y-69405953D01*
X184079602Y-69348117D01*
X184079588Y-69348111D01*
X183821854Y-69260184D01*
X183821841Y-69260181D01*
X183821836Y-69260180D01*
X183554040Y-69210715D01*
X183554020Y-69210713D01*
X183281870Y-69200767D01*
X183011172Y-69230552D01*
X183011159Y-69230554D01*
X182747679Y-69299436D01*
X182497025Y-69405953D01*
X182264560Y-69547824D01*
X182264550Y-69547831D01*
X182055222Y-69722035D01*
X181873482Y-69924868D01*
X181723213Y-70151999D01*
X181607613Y-70398597D01*
X181529152Y-70659392D01*
X181512673Y-70771368D01*
X181489500Y-70928829D01*
X181489500Y-70928833D01*
X181489500Y-71653017D01*
X179976927Y-71653017D01*
X180579513Y-71050431D01*
X180592079Y-71040365D01*
X180591925Y-71040178D01*
X180597933Y-71035205D01*
X180597940Y-71035202D01*
X180621227Y-71010402D01*
X180645865Y-70984167D01*
X180648578Y-70981367D01*
X180668911Y-70961035D01*
X180671606Y-70957560D01*
X180679199Y-70948669D01*
X180710448Y-70915393D01*
X180720674Y-70896790D01*
X180731353Y-70880533D01*
X180744362Y-70863764D01*
X180762491Y-70821866D01*
X180767620Y-70811395D01*
X180789627Y-70771368D01*
X180794905Y-70750806D01*
X180801207Y-70732399D01*
X180809635Y-70712927D01*
X180816777Y-70667828D01*
X180819141Y-70656413D01*
X180830500Y-70612177D01*
X180830500Y-70590950D01*
X180832027Y-70571550D01*
X180835346Y-70550596D01*
X180831050Y-70505148D01*
X180830500Y-70493479D01*
X180830500Y-60920807D01*
X180850185Y-60853768D01*
X180866815Y-60833130D01*
X181501600Y-60198344D01*
X181549010Y-60168749D01*
X181714503Y-60111936D01*
X181918626Y-60001470D01*
X181965414Y-59965054D01*
X181980129Y-59953600D01*
X182101784Y-59858913D01*
X182258979Y-59688153D01*
X182385924Y-59493849D01*
X182479157Y-59281300D01*
X182536134Y-59056305D01*
X182536135Y-59056297D01*
X182555300Y-58825006D01*
X182555300Y-58824993D01*
X182536135Y-58593702D01*
X182536133Y-58593691D01*
X182479157Y-58368699D01*
X182385924Y-58156151D01*
X182258983Y-57961852D01*
X182258980Y-57961849D01*
X182258979Y-57961847D01*
X182101784Y-57791087D01*
X182101779Y-57791083D01*
X182101777Y-57791081D01*
X181918634Y-57648535D01*
X181918628Y-57648531D01*
X181714504Y-57538064D01*
X181714495Y-57538061D01*
X181494984Y-57462702D01*
X181307404Y-57431401D01*
X181266049Y-57424500D01*
X181033951Y-57424500D01*
X180992596Y-57431401D01*
X180805015Y-57462702D01*
X180585504Y-57538061D01*
X180585495Y-57538064D01*
X180381371Y-57648531D01*
X180381365Y-57648535D01*
X180198222Y-57791081D01*
X180198219Y-57791084D01*
X180198216Y-57791086D01*
X180198216Y-57791087D01*
X180173785Y-57817627D01*
X180041015Y-57961854D01*
X180003808Y-58018804D01*
X179950662Y-58064161D01*
X179881430Y-58073584D01*
X179818095Y-58044082D01*
X179796192Y-58018804D01*
X179758984Y-57961854D01*
X179758982Y-57961852D01*
X179758979Y-57961847D01*
X179601784Y-57791087D01*
X179601779Y-57791083D01*
X179601777Y-57791081D01*
X179418634Y-57648535D01*
X179418628Y-57648531D01*
X179214504Y-57538064D01*
X179214495Y-57538061D01*
X178994984Y-57462702D01*
X178807404Y-57431401D01*
X178766049Y-57424500D01*
X178533951Y-57424500D01*
X178492596Y-57431401D01*
X178305015Y-57462702D01*
X178085504Y-57538061D01*
X178085495Y-57538064D01*
X177881372Y-57648531D01*
X177704023Y-57786567D01*
X177639029Y-57812209D01*
X177570489Y-57798642D01*
X177520164Y-57750174D01*
X177511679Y-57732045D01*
X177493355Y-57682915D01*
X177493350Y-57682906D01*
X177407190Y-57567812D01*
X177407187Y-57567809D01*
X177292093Y-57481649D01*
X177292086Y-57481645D01*
X177157379Y-57431403D01*
X177157372Y-57431401D01*
X177097844Y-57425000D01*
X176400000Y-57425000D01*
X176400000Y-58389498D01*
X176292315Y-58340320D01*
X176185763Y-58325000D01*
X176114237Y-58325000D01*
X176007685Y-58340320D01*
X175900000Y-58389498D01*
X175900000Y-57425000D01*
X175202155Y-57425000D01*
X175142627Y-57431401D01*
X175142620Y-57431403D01*
X175007913Y-57481645D01*
X175007906Y-57481649D01*
X174892812Y-57567809D01*
X174892809Y-57567812D01*
X174806649Y-57682906D01*
X174806645Y-57682913D01*
X174756403Y-57817620D01*
X174756401Y-57817627D01*
X174750000Y-57877155D01*
X174750000Y-58575000D01*
X175716314Y-58575000D01*
X175690507Y-58615156D01*
X175650000Y-58753111D01*
X175650000Y-58896889D01*
X175690507Y-59034844D01*
X175716314Y-59075000D01*
X174750000Y-59075000D01*
X174750000Y-59772844D01*
X174756401Y-59832372D01*
X174756403Y-59832379D01*
X174806645Y-59967086D01*
X174806649Y-59967093D01*
X174892809Y-60082187D01*
X174892812Y-60082190D01*
X175007906Y-60168350D01*
X175007913Y-60168354D01*
X175142620Y-60218596D01*
X175142627Y-60218598D01*
X175202155Y-60224999D01*
X175202172Y-60225000D01*
X175900000Y-60225000D01*
X175900000Y-59260501D01*
X176007685Y-59309680D01*
X176114237Y-59325000D01*
X176185763Y-59325000D01*
X176292315Y-59309680D01*
X176400000Y-59260501D01*
X176400000Y-60225000D01*
X177097828Y-60225000D01*
X177097844Y-60224999D01*
X177157372Y-60218598D01*
X177157379Y-60218596D01*
X177292086Y-60168354D01*
X177292093Y-60168350D01*
X177407187Y-60082190D01*
X177407190Y-60082187D01*
X177493350Y-59967093D01*
X177493353Y-59967088D01*
X177511678Y-59917955D01*
X177553549Y-59862020D01*
X177619013Y-59837602D01*
X177687286Y-59852453D01*
X177704023Y-59863433D01*
X177881365Y-60001464D01*
X177881371Y-60001468D01*
X177881374Y-60001470D01*
X178085497Y-60111936D01*
X178235758Y-60163520D01*
X178283172Y-60193118D01*
X178893181Y-60803127D01*
X178926666Y-60864450D01*
X178929500Y-60890808D01*
X178929500Y-69889192D01*
X178909815Y-69956231D01*
X178893181Y-69976873D01*
X173946873Y-74923181D01*
X173885550Y-74956666D01*
X173859192Y-74959500D01*
X165725504Y-74959500D01*
X165709493Y-74957732D01*
X165709471Y-74957974D01*
X165701704Y-74957240D01*
X165701703Y-74957240D01*
X165631737Y-74959439D01*
X165627842Y-74959500D01*
X165599075Y-74959500D01*
X165599072Y-74959500D01*
X165599057Y-74959501D01*
X165594687Y-74960053D01*
X165583059Y-74960968D01*
X165537434Y-74962402D01*
X165537424Y-74962404D01*
X165517048Y-74968323D01*
X165498008Y-74972266D01*
X165476947Y-74974927D01*
X165476938Y-74974929D01*
X165434491Y-74991735D01*
X165423442Y-74995518D01*
X165379602Y-75008255D01*
X165361332Y-75019060D01*
X165343863Y-75027618D01*
X165324128Y-75035432D01*
X165324126Y-75035433D01*
X165287201Y-75062260D01*
X165277442Y-75068671D01*
X165238132Y-75091920D01*
X165223126Y-75106926D01*
X165208336Y-75119558D01*
X165191167Y-75132032D01*
X165191165Y-75132034D01*
X165162056Y-75167219D01*
X165154196Y-75175856D01*
X160500483Y-79829569D01*
X160487910Y-79839643D01*
X160488065Y-79839830D01*
X160482058Y-79844799D01*
X160434133Y-79895833D01*
X160431427Y-79898625D01*
X160411090Y-79918963D01*
X160411077Y-79918978D01*
X160408373Y-79922463D01*
X160400806Y-79931322D01*
X160369552Y-79964607D01*
X160359322Y-79983213D01*
X160348646Y-79999464D01*
X160335640Y-80016232D01*
X160335636Y-80016238D01*
X160317508Y-80058130D01*
X160312369Y-80068619D01*
X160290372Y-80108630D01*
X160290372Y-80108631D01*
X160285091Y-80129199D01*
X160278791Y-80147601D01*
X160270364Y-80167073D01*
X160263223Y-80212162D01*
X160260854Y-80223600D01*
X160249500Y-80267817D01*
X160249500Y-80289044D01*
X160247973Y-80308444D01*
X160244653Y-80329403D01*
X160248950Y-80374858D01*
X160249500Y-80386528D01*
X160249500Y-86475500D01*
X160229815Y-86542539D01*
X160177011Y-86588294D01*
X160125501Y-86599500D01*
X160002130Y-86599500D01*
X160002123Y-86599501D01*
X159942516Y-86605908D01*
X159807671Y-86656202D01*
X159807664Y-86656206D01*
X159692455Y-86742452D01*
X159692452Y-86742455D01*
X159606206Y-86857664D01*
X159606202Y-86857671D01*
X159555908Y-86992517D01*
X159549501Y-87052116D01*
X159549501Y-87052123D01*
X159549500Y-87052135D01*
X159549500Y-88847870D01*
X159549501Y-88847876D01*
X159555908Y-88907483D01*
X159606202Y-89042328D01*
X159606206Y-89042335D01*
X159692452Y-89157544D01*
X159692455Y-89157547D01*
X159807664Y-89243793D01*
X159807671Y-89243797D01*
X159939081Y-89292810D01*
X159995015Y-89334681D01*
X160019432Y-89400145D01*
X160004580Y-89468418D01*
X159983430Y-89496673D01*
X159861503Y-89618600D01*
X159725965Y-89812169D01*
X159725964Y-89812171D01*
X159626098Y-90026335D01*
X159626094Y-90026344D01*
X159564938Y-90254586D01*
X159564936Y-90254596D01*
X159544341Y-90489999D01*
X159544341Y-90490000D01*
X159564936Y-90725403D01*
X159564938Y-90725413D01*
X159626094Y-90953655D01*
X159626096Y-90953659D01*
X159626097Y-90953663D01*
X159725963Y-91167826D01*
X159725965Y-91167830D01*
X159725967Y-91167834D01*
X159861501Y-91361395D01*
X159861506Y-91361402D01*
X160028597Y-91528493D01*
X160028603Y-91528498D01*
X160214158Y-91658425D01*
X160257783Y-91713002D01*
X160264977Y-91782500D01*
X160233454Y-91844855D01*
X160214158Y-91861575D01*
X160028597Y-91991505D01*
X159861505Y-92158597D01*
X159725965Y-92352169D01*
X159725964Y-92352171D01*
X159626098Y-92566335D01*
X159626094Y-92566344D01*
X159564938Y-92794586D01*
X159564936Y-92794596D01*
X159544341Y-93029999D01*
X159544341Y-93030000D01*
X159564936Y-93265403D01*
X159564938Y-93265413D01*
X159626094Y-93493655D01*
X159626096Y-93493659D01*
X159626097Y-93493663D01*
X159725965Y-93707830D01*
X159725967Y-93707834D01*
X159861501Y-93901395D01*
X159861506Y-93901402D01*
X160028597Y-94068493D01*
X160028603Y-94068498D01*
X160214158Y-94198425D01*
X160257783Y-94253002D01*
X160264977Y-94322500D01*
X160233454Y-94384855D01*
X160214158Y-94401575D01*
X160028597Y-94531505D01*
X159861505Y-94698597D01*
X159725965Y-94892169D01*
X159725964Y-94892171D01*
X159626098Y-95106335D01*
X159626094Y-95106344D01*
X159564938Y-95334586D01*
X159564936Y-95334596D01*
X159544341Y-95569999D01*
X159544341Y-95570000D01*
X159564936Y-95805403D01*
X159564938Y-95805413D01*
X159626094Y-96033655D01*
X159626096Y-96033659D01*
X159626097Y-96033663D01*
X159697185Y-96186111D01*
X159725965Y-96247830D01*
X159725967Y-96247834D01*
X159861501Y-96441395D01*
X159861506Y-96441402D01*
X160028597Y-96608493D01*
X160028603Y-96608498D01*
X160214158Y-96738425D01*
X160257783Y-96793002D01*
X160264977Y-96862500D01*
X160233454Y-96924855D01*
X160214158Y-96941575D01*
X160028597Y-97071505D01*
X159861505Y-97238597D01*
X159725965Y-97432169D01*
X159725964Y-97432171D01*
X159626098Y-97646335D01*
X159626094Y-97646344D01*
X159564938Y-97874586D01*
X159564936Y-97874596D01*
X159544341Y-98109999D01*
X159544341Y-98110000D01*
X159564936Y-98345403D01*
X159564938Y-98345413D01*
X159626094Y-98573655D01*
X159626096Y-98573659D01*
X159626097Y-98573663D01*
X159635900Y-98594685D01*
X159725965Y-98787830D01*
X159725967Y-98787834D01*
X159861501Y-98981395D01*
X159861506Y-98981402D01*
X160028597Y-99148493D01*
X160028603Y-99148498D01*
X160214158Y-99278425D01*
X160257783Y-99333002D01*
X160264977Y-99402500D01*
X160233454Y-99464855D01*
X160214158Y-99481575D01*
X160028597Y-99611505D01*
X159861505Y-99778597D01*
X159725965Y-99972169D01*
X159725964Y-99972171D01*
X159626098Y-100186335D01*
X159626094Y-100186344D01*
X159564938Y-100414586D01*
X159564936Y-100414596D01*
X159544341Y-100649999D01*
X159544341Y-100650000D01*
X159564936Y-100885403D01*
X159564938Y-100885413D01*
X159626094Y-101113655D01*
X159626096Y-101113659D01*
X159626097Y-101113663D01*
X159706026Y-101285071D01*
X159725965Y-101327830D01*
X159725967Y-101327834D01*
X159743853Y-101353377D01*
X159861501Y-101521396D01*
X159861506Y-101521402D01*
X160028597Y-101688493D01*
X160028603Y-101688498D01*
X160214158Y-101818425D01*
X160257783Y-101873002D01*
X160264977Y-101942500D01*
X160233454Y-102004855D01*
X160214158Y-102021575D01*
X160028597Y-102151505D01*
X159861505Y-102318597D01*
X159725965Y-102512169D01*
X159725964Y-102512171D01*
X159626098Y-102726335D01*
X159626094Y-102726344D01*
X159564938Y-102954586D01*
X159564936Y-102954596D01*
X159544341Y-103189999D01*
X159544341Y-103190000D01*
X159150500Y-103190000D01*
X159150500Y-71653017D01*
X162489500Y-71653017D01*
X162504403Y-71856615D01*
X162504405Y-71856629D01*
X162563615Y-72122435D01*
X162563618Y-72122442D01*
X162660907Y-72376814D01*
X162794196Y-72614310D01*
X162960645Y-72829868D01*
X163156705Y-73018894D01*
X163156708Y-73018896D01*
X163156709Y-73018897D01*
X163378189Y-73177352D01*
X163378192Y-73177353D01*
X163378198Y-73177358D01*
X163620403Y-73301885D01*
X163620407Y-73301886D01*
X163620411Y-73301888D01*
X163878145Y-73389815D01*
X163878151Y-73389816D01*
X163878159Y-73389819D01*
X164038564Y-73419447D01*
X164145959Y-73439284D01*
X164145961Y-73439284D01*
X164145971Y-73439286D01*
X164363699Y-73447242D01*
X164418129Y-73449232D01*
X164418129Y-73449231D01*
X164418131Y-73449232D01*
X164688839Y-73419446D01*
X164952326Y-73350562D01*
X165202975Y-73244047D01*
X165435444Y-73102173D01*
X165644779Y-72927963D01*
X165826518Y-72725131D01*
X165976788Y-72497998D01*
X166092386Y-72251406D01*
X166170847Y-71990611D01*
X166210500Y-71721171D01*
X166210500Y-71653017D01*
X172089500Y-71653017D01*
X172104403Y-71856615D01*
X172104405Y-71856629D01*
X172163615Y-72122435D01*
X172163618Y-72122442D01*
X172260907Y-72376814D01*
X172394196Y-72614310D01*
X172560645Y-72829868D01*
X172756705Y-73018894D01*
X172756708Y-73018896D01*
X172756709Y-73018897D01*
X172978189Y-73177352D01*
X172978192Y-73177353D01*
X172978198Y-73177358D01*
X173220403Y-73301885D01*
X173220407Y-73301886D01*
X173220411Y-73301888D01*
X173478145Y-73389815D01*
X173478151Y-73389816D01*
X173478159Y-73389819D01*
X173638564Y-73419447D01*
X173745959Y-73439284D01*
X173745961Y-73439284D01*
X173745971Y-73439286D01*
X173963699Y-73447242D01*
X174018129Y-73449232D01*
X174018129Y-73449231D01*
X174018131Y-73449232D01*
X174288839Y-73419446D01*
X174552326Y-73350562D01*
X174802975Y-73244047D01*
X175035444Y-73102173D01*
X175244779Y-72927963D01*
X175426518Y-72725131D01*
X175576788Y-72497998D01*
X175692386Y-72251406D01*
X175770847Y-71990611D01*
X175810500Y-71721171D01*
X175810500Y-70997000D01*
X175809457Y-70982755D01*
X175800748Y-70863764D01*
X175795597Y-70793384D01*
X175766345Y-70662066D01*
X175736384Y-70527564D01*
X175736382Y-70527560D01*
X175736382Y-70527558D01*
X175639093Y-70273186D01*
X175505804Y-70035690D01*
X175339355Y-69820132D01*
X175143295Y-69631106D01*
X175143292Y-69631104D01*
X175143290Y-69631102D01*
X174921810Y-69472647D01*
X174921804Y-69472643D01*
X174921802Y-69472642D01*
X174792092Y-69405953D01*
X174679602Y-69348117D01*
X174679588Y-69348111D01*
X174421854Y-69260184D01*
X174421841Y-69260181D01*
X174421836Y-69260180D01*
X174154040Y-69210715D01*
X174154020Y-69210713D01*
X173881870Y-69200767D01*
X173611172Y-69230552D01*
X173611159Y-69230554D01*
X173347679Y-69299436D01*
X173097025Y-69405953D01*
X172864560Y-69547824D01*
X172864550Y-69547831D01*
X172655222Y-69722035D01*
X172473482Y-69924868D01*
X172323213Y-70151999D01*
X172207613Y-70398597D01*
X172129152Y-70659392D01*
X172112673Y-70771368D01*
X172089500Y-70928829D01*
X172089500Y-70928833D01*
X172089500Y-71653017D01*
X166210500Y-71653017D01*
X166210500Y-70997000D01*
X166209457Y-70982755D01*
X166200748Y-70863764D01*
X166195597Y-70793384D01*
X166166345Y-70662066D01*
X166136384Y-70527564D01*
X166136382Y-70527560D01*
X166136382Y-70527558D01*
X166039093Y-70273186D01*
X165905804Y-70035690D01*
X165739355Y-69820132D01*
X165543295Y-69631106D01*
X165543292Y-69631104D01*
X165543290Y-69631102D01*
X165321810Y-69472647D01*
X165321804Y-69472643D01*
X165321802Y-69472642D01*
X165192092Y-69405953D01*
X165079602Y-69348117D01*
X165079588Y-69348111D01*
X164821854Y-69260184D01*
X164821841Y-69260181D01*
X164821836Y-69260180D01*
X164554040Y-69210715D01*
X164554020Y-69210713D01*
X164281870Y-69200767D01*
X164011172Y-69230552D01*
X164011159Y-69230554D01*
X163747679Y-69299436D01*
X163497025Y-69405953D01*
X163264560Y-69547824D01*
X163264550Y-69547831D01*
X163055222Y-69722035D01*
X162873482Y-69924868D01*
X162723213Y-70151999D01*
X162607613Y-70398597D01*
X162529152Y-70659392D01*
X162512673Y-70771368D01*
X162489500Y-70928829D01*
X162489500Y-70928833D01*
X162489500Y-71653017D01*
X159150500Y-71653017D01*
X159150500Y-51653017D01*
X171989500Y-51653017D01*
X172004403Y-51856615D01*
X172004405Y-51856629D01*
X172063615Y-52122435D01*
X172063618Y-52122442D01*
X172160907Y-52376814D01*
X172294196Y-52614310D01*
X172460645Y-52829868D01*
X172656705Y-53018894D01*
X172656708Y-53018896D01*
X172656709Y-53018897D01*
X172878189Y-53177352D01*
X172878192Y-53177353D01*
X172878198Y-53177358D01*
X173120403Y-53301885D01*
X173120407Y-53301886D01*
X173120411Y-53301888D01*
X173378145Y-53389815D01*
X173378151Y-53389816D01*
X173378159Y-53389819D01*
X173538564Y-53419447D01*
X173645959Y-53439284D01*
X173645961Y-53439284D01*
X173645971Y-53439286D01*
X173863699Y-53447242D01*
X173918129Y-53449232D01*
X173918129Y-53449231D01*
X173918131Y-53449232D01*
X174188839Y-53419446D01*
X174452326Y-53350562D01*
X174702975Y-53244047D01*
X174935444Y-53102173D01*
X175144779Y-52927963D01*
X175326518Y-52725131D01*
X175476788Y-52497998D01*
X175592386Y-52251406D01*
X175670847Y-51990611D01*
X175710500Y-51721171D01*
X175710500Y-51653017D01*
X181589500Y-51653017D01*
X181604403Y-51856615D01*
X181604405Y-51856629D01*
X181663615Y-52122435D01*
X181663618Y-52122442D01*
X181760907Y-52376814D01*
X181894196Y-52614310D01*
X182060645Y-52829868D01*
X182256705Y-53018894D01*
X182256708Y-53018896D01*
X182256709Y-53018897D01*
X182478189Y-53177352D01*
X182478192Y-53177353D01*
X182478198Y-53177358D01*
X182720403Y-53301885D01*
X182720407Y-53301886D01*
X182720411Y-53301888D01*
X182978145Y-53389815D01*
X182978151Y-53389816D01*
X182978159Y-53389819D01*
X183138564Y-53419447D01*
X183245959Y-53439284D01*
X183245961Y-53439284D01*
X183245971Y-53439286D01*
X183463699Y-53447242D01*
X183518129Y-53449232D01*
X183518129Y-53449231D01*
X183518131Y-53449232D01*
X183788839Y-53419446D01*
X184052326Y-53350562D01*
X184302975Y-53244047D01*
X184535444Y-53102173D01*
X184744779Y-52927963D01*
X184926518Y-52725131D01*
X185076788Y-52497998D01*
X185192386Y-52251406D01*
X185270847Y-51990611D01*
X185310500Y-51721171D01*
X185310500Y-50997000D01*
X185295597Y-50793384D01*
X185295594Y-50793370D01*
X185236384Y-50527564D01*
X185236382Y-50527560D01*
X185236382Y-50527558D01*
X185139093Y-50273186D01*
X185005804Y-50035690D01*
X184839355Y-49820132D01*
X184643295Y-49631106D01*
X184643292Y-49631104D01*
X184643290Y-49631102D01*
X184421810Y-49472647D01*
X184421804Y-49472643D01*
X184421802Y-49472642D01*
X184292092Y-49405953D01*
X184179602Y-49348117D01*
X184179588Y-49348111D01*
X183921854Y-49260184D01*
X183921841Y-49260181D01*
X183921836Y-49260180D01*
X183654040Y-49210715D01*
X183654020Y-49210713D01*
X183381870Y-49200767D01*
X183111172Y-49230552D01*
X183111159Y-49230554D01*
X182847679Y-49299436D01*
X182597025Y-49405953D01*
X182364560Y-49547824D01*
X182364550Y-49547831D01*
X182155222Y-49722035D01*
X181973482Y-49924868D01*
X181823213Y-50151999D01*
X181707613Y-50398597D01*
X181629152Y-50659392D01*
X181609847Y-50790568D01*
X181589500Y-50928829D01*
X181589500Y-50928833D01*
X181589500Y-51653017D01*
X175710500Y-51653017D01*
X175710500Y-50997000D01*
X175695597Y-50793384D01*
X175695594Y-50793370D01*
X175636384Y-50527564D01*
X175636382Y-50527560D01*
X175636382Y-50527558D01*
X175539093Y-50273186D01*
X175405804Y-50035690D01*
X175239355Y-49820132D01*
X175043295Y-49631106D01*
X175043292Y-49631104D01*
X175043290Y-49631102D01*
X174821810Y-49472647D01*
X174821804Y-49472643D01*
X174821802Y-49472642D01*
X174692092Y-49405953D01*
X174579602Y-49348117D01*
X174579588Y-49348111D01*
X174321854Y-49260184D01*
X174321841Y-49260181D01*
X174321836Y-49260180D01*
X174054040Y-49210715D01*
X174054020Y-49210713D01*
X173781870Y-49200767D01*
X173511172Y-49230552D01*
X173511159Y-49230554D01*
X173247679Y-49299436D01*
X172997025Y-49405953D01*
X172764560Y-49547824D01*
X172764550Y-49547831D01*
X172555222Y-49722035D01*
X172373482Y-49924868D01*
X172223213Y-50151999D01*
X172107613Y-50398597D01*
X172029152Y-50659392D01*
X172009847Y-50790568D01*
X171989500Y-50928829D01*
X171989500Y-50928833D01*
X171989500Y-51653017D01*
X159150500Y-51653017D01*
X159150500Y-46274500D01*
X159170185Y-46207461D01*
X159222989Y-46161706D01*
X159274500Y-46150500D01*
X198025500Y-46150500D01*
X198092539Y-46170185D01*
G37*
%TD.AperFunction*%
%TA.AperFunction,Conductor*%
G36*
X177760785Y-143070185D02*
G01*
X177806540Y-143122989D01*
X177816484Y-143192147D01*
X177787459Y-143255703D01*
X177758536Y-143280227D01*
X177726982Y-143299563D01*
X177726979Y-143299564D01*
X177539601Y-143459601D01*
X177379564Y-143646979D01*
X177379563Y-143646981D01*
X177250815Y-143857079D01*
X177156517Y-144084735D01*
X177098993Y-144324341D01*
X177079659Y-144570000D01*
X177098993Y-144815658D01*
X177156517Y-145055264D01*
X177250815Y-145282920D01*
X177379563Y-145493018D01*
X177379564Y-145493020D01*
X177379567Y-145493023D01*
X177539601Y-145680399D01*
X177726977Y-145840433D01*
X177856449Y-145919773D01*
X177903323Y-145971584D01*
X177914746Y-146040514D01*
X177887089Y-146104677D01*
X177829133Y-146143701D01*
X177791658Y-146149500D01*
X168558342Y-146149500D01*
X168491303Y-146129815D01*
X168445548Y-146077011D01*
X168435604Y-146007853D01*
X168464629Y-145944297D01*
X168493548Y-145919774D01*
X168623023Y-145840433D01*
X168810399Y-145680399D01*
X168970433Y-145493023D01*
X169099184Y-145282920D01*
X169193483Y-145055262D01*
X169251007Y-144815655D01*
X169270341Y-144570000D01*
X169251007Y-144324345D01*
X169198412Y-144105267D01*
X169201903Y-144035484D01*
X169231303Y-143988641D01*
X170133127Y-143086819D01*
X170194450Y-143053334D01*
X170220808Y-143050500D01*
X177693746Y-143050500D01*
X177760785Y-143070185D01*
G37*
%TD.AperFunction*%
%TA.AperFunction,Conductor*%
G36*
X188234309Y-143570185D02*
G01*
X188280064Y-143622989D01*
X188290008Y-143692147D01*
X188272998Y-143739290D01*
X188200813Y-143857084D01*
X188106517Y-144084735D01*
X188048993Y-144324341D01*
X188029659Y-144570000D01*
X188048993Y-144815658D01*
X188106517Y-145055264D01*
X188200815Y-145282920D01*
X188329563Y-145493018D01*
X188329564Y-145493020D01*
X188329567Y-145493023D01*
X188489601Y-145680399D01*
X188676977Y-145840433D01*
X188806449Y-145919773D01*
X188853323Y-145971584D01*
X188864746Y-146040514D01*
X188837089Y-146104677D01*
X188779133Y-146143701D01*
X188741658Y-146149500D01*
X179508342Y-146149500D01*
X179441303Y-146129815D01*
X179395548Y-146077011D01*
X179385604Y-146007853D01*
X179414629Y-145944297D01*
X179443548Y-145919774D01*
X179573023Y-145840433D01*
X179760399Y-145680399D01*
X179920433Y-145493023D01*
X180049184Y-145282920D01*
X180143483Y-145055262D01*
X180201007Y-144815655D01*
X180220341Y-144570000D01*
X180201007Y-144324345D01*
X180143483Y-144084738D01*
X180132906Y-144059202D01*
X180128832Y-144049366D01*
X180121363Y-143979897D01*
X180152638Y-143917417D01*
X180155653Y-143914291D01*
X180483129Y-143586816D01*
X180544450Y-143553334D01*
X180570808Y-143550500D01*
X188167270Y-143550500D01*
X188234309Y-143570185D01*
G37*
%TD.AperFunction*%
%TA.AperFunction,Conductor*%
G36*
X195159317Y-132360185D02*
G01*
X195193853Y-132393377D01*
X195311501Y-132561396D01*
X195311506Y-132561402D01*
X195478597Y-132728493D01*
X195478603Y-132728498D01*
X195664158Y-132858425D01*
X195707783Y-132913002D01*
X195714977Y-132982500D01*
X195683454Y-133044855D01*
X195664158Y-133061575D01*
X195478597Y-133191505D01*
X195311505Y-133358597D01*
X195175965Y-133552169D01*
X195175964Y-133552171D01*
X195076098Y-133766335D01*
X195076094Y-133766344D01*
X195038248Y-133907593D01*
X195001883Y-133967254D01*
X194939037Y-133997783D01*
X194918473Y-133999500D01*
X191189000Y-133999500D01*
X191121961Y-133979815D01*
X191076206Y-133927011D01*
X191065000Y-133875500D01*
X191065000Y-133420000D01*
X190156520Y-133420000D01*
X190184755Y-133359998D01*
X190213635Y-133208607D01*
X190203957Y-133054789D01*
X190160162Y-132920000D01*
X191065000Y-132920000D01*
X191065000Y-132464500D01*
X191084685Y-132397461D01*
X191137489Y-132351706D01*
X191189000Y-132340500D01*
X195092278Y-132340500D01*
X195159317Y-132360185D01*
G37*
%TD.AperFunction*%
%TA.AperFunction,Conductor*%
G36*
X189481904Y-99605917D02*
G01*
X189503809Y-99631196D01*
X189541016Y-99688147D01*
X189541019Y-99688151D01*
X189541021Y-99688153D01*
X189698216Y-99858913D01*
X189698219Y-99858915D01*
X189698222Y-99858918D01*
X189881365Y-100001464D01*
X189881371Y-100001468D01*
X189881374Y-100001470D01*
X190085497Y-100111936D01*
X190165159Y-100139284D01*
X190305015Y-100187297D01*
X190305017Y-100187297D01*
X190305019Y-100187298D01*
X190533951Y-100225500D01*
X190533952Y-100225500D01*
X190766048Y-100225500D01*
X190766049Y-100225500D01*
X190994981Y-100187298D01*
X190999944Y-100186041D01*
X191000257Y-100187280D01*
X191064032Y-100184390D01*
X191122200Y-100217146D01*
X191913181Y-101008127D01*
X191946666Y-101069450D01*
X191949500Y-101095808D01*
X191949500Y-126799191D01*
X191929815Y-126866230D01*
X191913181Y-126886872D01*
X190205550Y-128594502D01*
X190144227Y-128627987D01*
X190088922Y-128627395D01*
X189845658Y-128568993D01*
X189600000Y-128549659D01*
X189354341Y-128568993D01*
X189114735Y-128626517D01*
X188887079Y-128720815D01*
X188676981Y-128849563D01*
X188676979Y-128849564D01*
X188489601Y-129009601D01*
X188329564Y-129196979D01*
X188329563Y-129196981D01*
X188200815Y-129407079D01*
X188106517Y-129634735D01*
X188048993Y-129874341D01*
X188035336Y-130047864D01*
X188029659Y-130120000D01*
X188039521Y-130245311D01*
X188045122Y-130316467D01*
X188030758Y-130384844D01*
X187981707Y-130434601D01*
X187913542Y-130449940D01*
X187847904Y-130425991D01*
X187833823Y-130413877D01*
X187386819Y-129966873D01*
X187353334Y-129905550D01*
X187350500Y-129879192D01*
X187350500Y-125163225D01*
X188095307Y-125163225D01*
X188109507Y-125409474D01*
X188109507Y-125409479D01*
X188163731Y-125650092D01*
X188163734Y-125650099D01*
X188244576Y-125849191D01*
X188256533Y-125878636D01*
X188385412Y-126088947D01*
X188434085Y-126145136D01*
X188546908Y-126275382D01*
X188736687Y-126432939D01*
X188736690Y-126432941D01*
X188736696Y-126432945D01*
X188949650Y-126557385D01*
X189180072Y-126645375D01*
X189180075Y-126645375D01*
X189180079Y-126645377D01*
X189421785Y-126694553D01*
X189668278Y-126703592D01*
X189912936Y-126672250D01*
X190149191Y-126601370D01*
X190370697Y-126492856D01*
X190571505Y-126349621D01*
X190746223Y-126175512D01*
X190890158Y-125975205D01*
X190999445Y-125754079D01*
X191071149Y-125518074D01*
X191103344Y-125273526D01*
X191105141Y-125200000D01*
X191084930Y-124954171D01*
X191024841Y-124714945D01*
X190926486Y-124488744D01*
X190792508Y-124281645D01*
X190626504Y-124099210D01*
X190432932Y-123946336D01*
X190216991Y-123827130D01*
X190216982Y-123827126D01*
X189984491Y-123744796D01*
X189984471Y-123744791D01*
X189741644Y-123701538D01*
X189741652Y-123701538D01*
X189500496Y-123698592D01*
X189495007Y-123698525D01*
X189495006Y-123698525D01*
X189495005Y-123698525D01*
X189495004Y-123698525D01*
X189251190Y-123735834D01*
X189251180Y-123735837D01*
X189016732Y-123812466D01*
X188797951Y-123926356D01*
X188797948Y-123926358D01*
X188600698Y-124074456D01*
X188430289Y-124252779D01*
X188430279Y-124252792D01*
X188291287Y-124456547D01*
X188291285Y-124456552D01*
X188187439Y-124680268D01*
X188187436Y-124680276D01*
X188121520Y-124917960D01*
X188121519Y-124917967D01*
X188095307Y-125163225D01*
X187350500Y-125163225D01*
X187350500Y-121820000D01*
X188029659Y-121820000D01*
X188048993Y-122065658D01*
X188106517Y-122305264D01*
X188200815Y-122532920D01*
X188329563Y-122743018D01*
X188329564Y-122743020D01*
X188329567Y-122743023D01*
X188489601Y-122930399D01*
X188634648Y-123054280D01*
X188676979Y-123090435D01*
X188676981Y-123090436D01*
X188887079Y-123219184D01*
X189114735Y-123313482D01*
X189114736Y-123313482D01*
X189114738Y-123313483D01*
X189354345Y-123371007D01*
X189600000Y-123390341D01*
X189845655Y-123371007D01*
X190085262Y-123313483D01*
X190312920Y-123219184D01*
X190523023Y-123090433D01*
X190710399Y-122930399D01*
X190870433Y-122743023D01*
X190999184Y-122532920D01*
X191093483Y-122305262D01*
X191151007Y-122065655D01*
X191170341Y-121820000D01*
X191151007Y-121574345D01*
X191093483Y-121334738D01*
X190999184Y-121107080D01*
X190999184Y-121107079D01*
X190870436Y-120896981D01*
X190870435Y-120896979D01*
X190834280Y-120854648D01*
X190710399Y-120709601D01*
X190586516Y-120603795D01*
X190523020Y-120549564D01*
X190523018Y-120549563D01*
X190312919Y-120420815D01*
X190312920Y-120420815D01*
X190198838Y-120373561D01*
X190144435Y-120329720D01*
X190122370Y-120263426D01*
X190139649Y-120195726D01*
X190190787Y-120148116D01*
X190246291Y-120135000D01*
X190612828Y-120135000D01*
X190612844Y-120134999D01*
X190672372Y-120128598D01*
X190672379Y-120128596D01*
X190807086Y-120078354D01*
X190807093Y-120078350D01*
X190922187Y-119992190D01*
X190922190Y-119992187D01*
X191008350Y-119877093D01*
X191008354Y-119877086D01*
X191058596Y-119742379D01*
X191058598Y-119742372D01*
X191064999Y-119682844D01*
X191065000Y-119682827D01*
X191065000Y-118970000D01*
X190156520Y-118970000D01*
X190184755Y-118909998D01*
X190213635Y-118758607D01*
X190203957Y-118604789D01*
X190160162Y-118470000D01*
X191065000Y-118470000D01*
X191065000Y-117757172D01*
X191064999Y-117757155D01*
X191058598Y-117697627D01*
X191058596Y-117697620D01*
X191008354Y-117562913D01*
X191008350Y-117562906D01*
X190922190Y-117447812D01*
X190922187Y-117447809D01*
X190807093Y-117361649D01*
X190807086Y-117361645D01*
X190672379Y-117311403D01*
X190672372Y-117311401D01*
X190612844Y-117305000D01*
X190366603Y-117305000D01*
X190299564Y-117285315D01*
X190253809Y-117232511D01*
X190243865Y-117163353D01*
X190272890Y-117099797D01*
X190310305Y-117070517D01*
X190312914Y-117069186D01*
X190312920Y-117069184D01*
X190523023Y-116940433D01*
X190710399Y-116780399D01*
X190870433Y-116593023D01*
X190999184Y-116382920D01*
X191093483Y-116155262D01*
X191151007Y-115915655D01*
X191170341Y-115670000D01*
X191151007Y-115424345D01*
X191093483Y-115184738D01*
X191067628Y-115122318D01*
X190999184Y-114957079D01*
X190870436Y-114746981D01*
X190870435Y-114746979D01*
X190834280Y-114704648D01*
X190710399Y-114559601D01*
X190586516Y-114453795D01*
X190523020Y-114399564D01*
X190523018Y-114399563D01*
X190312920Y-114270815D01*
X190085264Y-114176517D01*
X189845658Y-114118993D01*
X189600000Y-114099659D01*
X189354341Y-114118993D01*
X189114735Y-114176517D01*
X188887079Y-114270815D01*
X188676981Y-114399563D01*
X188676979Y-114399564D01*
X188489601Y-114559601D01*
X188329564Y-114746979D01*
X188329563Y-114746981D01*
X188200815Y-114957079D01*
X188106517Y-115184735D01*
X188048993Y-115424341D01*
X188029659Y-115670000D01*
X188048993Y-115915658D01*
X188106517Y-116155264D01*
X188200815Y-116382920D01*
X188329563Y-116593018D01*
X188329564Y-116593020D01*
X188329567Y-116593023D01*
X188489601Y-116780399D01*
X188634648Y-116904280D01*
X188676979Y-116940435D01*
X188676981Y-116940436D01*
X188887080Y-117069184D01*
X188889695Y-117070517D01*
X188890508Y-117071285D01*
X188891234Y-117071730D01*
X188891140Y-117071882D01*
X188940490Y-117118493D01*
X188957283Y-117186314D01*
X188934743Y-117252449D01*
X188880027Y-117295898D01*
X188833397Y-117305000D01*
X188587155Y-117305000D01*
X188527627Y-117311401D01*
X188527620Y-117311403D01*
X188392913Y-117361645D01*
X188392906Y-117361649D01*
X188277812Y-117447809D01*
X188277809Y-117447812D01*
X188191649Y-117562906D01*
X188191645Y-117562913D01*
X188141403Y-117697620D01*
X188141401Y-117697627D01*
X188135000Y-117757155D01*
X188135000Y-118470000D01*
X189043480Y-118470000D01*
X189015245Y-118530002D01*
X188986365Y-118681393D01*
X188996043Y-118835211D01*
X189039838Y-118970000D01*
X188135000Y-118970000D01*
X188135000Y-119682844D01*
X188141401Y-119742372D01*
X188141403Y-119742379D01*
X188191645Y-119877086D01*
X188191649Y-119877093D01*
X188277809Y-119992187D01*
X188277812Y-119992190D01*
X188392906Y-120078350D01*
X188392913Y-120078354D01*
X188527620Y-120128596D01*
X188527627Y-120128598D01*
X188587155Y-120134999D01*
X188587172Y-120135000D01*
X188953709Y-120135000D01*
X189020748Y-120154685D01*
X189066503Y-120207489D01*
X189076447Y-120276647D01*
X189047422Y-120340203D01*
X189001162Y-120373561D01*
X188887079Y-120420815D01*
X188676981Y-120549563D01*
X188676979Y-120549564D01*
X188489601Y-120709601D01*
X188329564Y-120896979D01*
X188329563Y-120896981D01*
X188200815Y-121107079D01*
X188106517Y-121334735D01*
X188048993Y-121574341D01*
X188029659Y-121820000D01*
X187350500Y-121820000D01*
X187350500Y-110713225D01*
X188095307Y-110713225D01*
X188109507Y-110959474D01*
X188109507Y-110959479D01*
X188163731Y-111200092D01*
X188256533Y-111428636D01*
X188385412Y-111638947D01*
X188460393Y-111725507D01*
X188546908Y-111825382D01*
X188736687Y-111982939D01*
X188736690Y-111982941D01*
X188736696Y-111982945D01*
X188949650Y-112107385D01*
X189180072Y-112195375D01*
X189180075Y-112195375D01*
X189180079Y-112195377D01*
X189421785Y-112244553D01*
X189668278Y-112253592D01*
X189912936Y-112222250D01*
X190149191Y-112151370D01*
X190370697Y-112042856D01*
X190571505Y-111899621D01*
X190746223Y-111725512D01*
X190890158Y-111525205D01*
X190999445Y-111304079D01*
X191071149Y-111068074D01*
X191103344Y-110823526D01*
X191105141Y-110750000D01*
X191084930Y-110504171D01*
X191024841Y-110264945D01*
X190926486Y-110038744D01*
X190792508Y-109831645D01*
X190626504Y-109649210D01*
X190432932Y-109496336D01*
X190216991Y-109377130D01*
X190216982Y-109377126D01*
X189984491Y-109294796D01*
X189984471Y-109294791D01*
X189741644Y-109251538D01*
X189741652Y-109251538D01*
X189500496Y-109248592D01*
X189495007Y-109248525D01*
X189495006Y-109248525D01*
X189495005Y-109248525D01*
X189495004Y-109248525D01*
X189251190Y-109285834D01*
X189251180Y-109285837D01*
X189016732Y-109362466D01*
X188797951Y-109476356D01*
X188797948Y-109476358D01*
X188600698Y-109624456D01*
X188430289Y-109802779D01*
X188430279Y-109802792D01*
X188291287Y-110006547D01*
X188291285Y-110006552D01*
X188187439Y-110230268D01*
X188187436Y-110230276D01*
X188121520Y-110467960D01*
X188121519Y-110467967D01*
X188095307Y-110713225D01*
X187350500Y-110713225D01*
X187350500Y-104170807D01*
X187370185Y-104103768D01*
X187386814Y-104083130D01*
X187923320Y-103546625D01*
X187984642Y-103513141D01*
X188054334Y-103518125D01*
X188110267Y-103559997D01*
X188134684Y-103625461D01*
X188135000Y-103634307D01*
X188135000Y-104020000D01*
X189043480Y-104020000D01*
X189015245Y-104080002D01*
X188986365Y-104231393D01*
X188996043Y-104385211D01*
X189039838Y-104520000D01*
X188135000Y-104520000D01*
X188135000Y-105232844D01*
X188141401Y-105292372D01*
X188141403Y-105292379D01*
X188191645Y-105427086D01*
X188191649Y-105427093D01*
X188277809Y-105542187D01*
X188277812Y-105542190D01*
X188392906Y-105628350D01*
X188392913Y-105628354D01*
X188527620Y-105678596D01*
X188527627Y-105678598D01*
X188587155Y-105684999D01*
X188587172Y-105685000D01*
X188953709Y-105685000D01*
X189020748Y-105704685D01*
X189066503Y-105757489D01*
X189076447Y-105826647D01*
X189047422Y-105890203D01*
X189001162Y-105923561D01*
X188887079Y-105970815D01*
X188676981Y-106099563D01*
X188676979Y-106099564D01*
X188489601Y-106259601D01*
X188329564Y-106446979D01*
X188329563Y-106446981D01*
X188200815Y-106657079D01*
X188106517Y-106884735D01*
X188048993Y-107124341D01*
X188029659Y-107370000D01*
X188048993Y-107615658D01*
X188106517Y-107855264D01*
X188200815Y-108082920D01*
X188329563Y-108293018D01*
X188329564Y-108293020D01*
X188329567Y-108293023D01*
X188489601Y-108480399D01*
X188601009Y-108575550D01*
X188676979Y-108640435D01*
X188676981Y-108640436D01*
X188887079Y-108769184D01*
X189114735Y-108863482D01*
X189114736Y-108863482D01*
X189114738Y-108863483D01*
X189354345Y-108921007D01*
X189600000Y-108940341D01*
X189845655Y-108921007D01*
X190085262Y-108863483D01*
X190312920Y-108769184D01*
X190523023Y-108640433D01*
X190710399Y-108480399D01*
X190870433Y-108293023D01*
X190999184Y-108082920D01*
X191093483Y-107855262D01*
X191151007Y-107615655D01*
X191170341Y-107370000D01*
X191151007Y-107124345D01*
X191093483Y-106884738D01*
X190999184Y-106657080D01*
X190999184Y-106657079D01*
X190870436Y-106446981D01*
X190870435Y-106446979D01*
X190834280Y-106404648D01*
X190710399Y-106259601D01*
X190586516Y-106153795D01*
X190523020Y-106099564D01*
X190523018Y-106099563D01*
X190312919Y-105970815D01*
X190312920Y-105970815D01*
X190198838Y-105923561D01*
X190144435Y-105879720D01*
X190122370Y-105813426D01*
X190139649Y-105745726D01*
X190190787Y-105698116D01*
X190246291Y-105685000D01*
X190612828Y-105685000D01*
X190612844Y-105684999D01*
X190672372Y-105678598D01*
X190672379Y-105678596D01*
X190807086Y-105628354D01*
X190807093Y-105628350D01*
X190922187Y-105542190D01*
X190922190Y-105542187D01*
X191008350Y-105427093D01*
X191008354Y-105427086D01*
X191058596Y-105292379D01*
X191058598Y-105292372D01*
X191064999Y-105232844D01*
X191065000Y-105232827D01*
X191065000Y-104520000D01*
X190156520Y-104520000D01*
X190184755Y-104459998D01*
X190213635Y-104308607D01*
X190203957Y-104154789D01*
X190160162Y-104020000D01*
X191065000Y-104020000D01*
X191065000Y-103307172D01*
X191064999Y-103307155D01*
X191058598Y-103247627D01*
X191058596Y-103247620D01*
X191008354Y-103112913D01*
X191008350Y-103112906D01*
X190922190Y-102997812D01*
X190922187Y-102997809D01*
X190807093Y-102911649D01*
X190807086Y-102911645D01*
X190672379Y-102861403D01*
X190672372Y-102861401D01*
X190612844Y-102855000D01*
X189850000Y-102855000D01*
X189850000Y-103711335D01*
X189826341Y-103698329D01*
X189677061Y-103660000D01*
X189561625Y-103660000D01*
X189447094Y-103674469D01*
X189350000Y-103712911D01*
X189350000Y-102855000D01*
X188851854Y-102855000D01*
X188784815Y-102835315D01*
X188739060Y-102782511D01*
X188729116Y-102713353D01*
X188743193Y-102671261D01*
X188759626Y-102641370D01*
X188759627Y-102641368D01*
X188764904Y-102620808D01*
X188771206Y-102602403D01*
X188779636Y-102582926D01*
X188786779Y-102537820D01*
X188789143Y-102526405D01*
X188800500Y-102482177D01*
X188800500Y-102460955D01*
X188802027Y-102441555D01*
X188805347Y-102420595D01*
X188801050Y-102375136D01*
X188800500Y-102363467D01*
X188800500Y-100139284D01*
X188820185Y-100072245D01*
X188865484Y-100030229D01*
X188918619Y-100001474D01*
X188918620Y-100001472D01*
X188918626Y-100001470D01*
X188946449Y-99979815D01*
X188989094Y-99946623D01*
X189101784Y-99858913D01*
X189258979Y-99688153D01*
X189296191Y-99631196D01*
X189349337Y-99585839D01*
X189418569Y-99576415D01*
X189481904Y-99605917D01*
G37*
%TD.AperFunction*%
%TD*%
M02*
