%TF.GenerationSoftware,KiCad,Pcbnew,7.0.2-0*%
%TF.CreationDate,2023-10-10T18:06:45-05:00*%
%TF.ProjectId,Untitled,556e7469-746c-4656-942e-6b696361645f,rev?*%
%TF.SameCoordinates,Original*%
%TF.FileFunction,Legend,Bot*%
%TF.FilePolarity,Positive*%
%FSLAX46Y46*%
G04 Gerber Fmt 4.6, Leading zero omitted, Abs format (unit mm)*
G04 Created by KiCad (PCBNEW 7.0.2-0) date 2023-10-10 18:06:45*
%MOMM*%
%LPD*%
G01*
G04 APERTURE LIST*
%ADD10C,0.150000*%
%ADD11C,0.120000*%
G04 APERTURE END LIST*
D10*
%TO.C,J13*%
X197159523Y-125792619D02*
X197159523Y-126506904D01*
X197159523Y-126506904D02*
X197207142Y-126649761D01*
X197207142Y-126649761D02*
X197302380Y-126745000D01*
X197302380Y-126745000D02*
X197445237Y-126792619D01*
X197445237Y-126792619D02*
X197540475Y-126792619D01*
X196159523Y-126792619D02*
X196730951Y-126792619D01*
X196445237Y-126792619D02*
X196445237Y-125792619D01*
X196445237Y-125792619D02*
X196540475Y-125935476D01*
X196540475Y-125935476D02*
X196635713Y-126030714D01*
X196635713Y-126030714D02*
X196730951Y-126078333D01*
X195826189Y-125792619D02*
X195207142Y-125792619D01*
X195207142Y-125792619D02*
X195540475Y-126173571D01*
X195540475Y-126173571D02*
X195397618Y-126173571D01*
X195397618Y-126173571D02*
X195302380Y-126221190D01*
X195302380Y-126221190D02*
X195254761Y-126268809D01*
X195254761Y-126268809D02*
X195207142Y-126364047D01*
X195207142Y-126364047D02*
X195207142Y-126602142D01*
X195207142Y-126602142D02*
X195254761Y-126697380D01*
X195254761Y-126697380D02*
X195302380Y-126745000D01*
X195302380Y-126745000D02*
X195397618Y-126792619D01*
X195397618Y-126792619D02*
X195683332Y-126792619D01*
X195683332Y-126792619D02*
X195778570Y-126745000D01*
X195778570Y-126745000D02*
X195826189Y-126697380D01*
%TO.C,J10*%
X161809523Y-84692619D02*
X161809523Y-85406904D01*
X161809523Y-85406904D02*
X161857142Y-85549761D01*
X161857142Y-85549761D02*
X161952380Y-85645000D01*
X161952380Y-85645000D02*
X162095237Y-85692619D01*
X162095237Y-85692619D02*
X162190475Y-85692619D01*
X160809523Y-85692619D02*
X161380951Y-85692619D01*
X161095237Y-85692619D02*
X161095237Y-84692619D01*
X161095237Y-84692619D02*
X161190475Y-84835476D01*
X161190475Y-84835476D02*
X161285713Y-84930714D01*
X161285713Y-84930714D02*
X161380951Y-84978333D01*
X160190475Y-84692619D02*
X160095237Y-84692619D01*
X160095237Y-84692619D02*
X159999999Y-84740238D01*
X159999999Y-84740238D02*
X159952380Y-84787857D01*
X159952380Y-84787857D02*
X159904761Y-84883095D01*
X159904761Y-84883095D02*
X159857142Y-85073571D01*
X159857142Y-85073571D02*
X159857142Y-85311666D01*
X159857142Y-85311666D02*
X159904761Y-85502142D01*
X159904761Y-85502142D02*
X159952380Y-85597380D01*
X159952380Y-85597380D02*
X159999999Y-85645000D01*
X159999999Y-85645000D02*
X160095237Y-85692619D01*
X160095237Y-85692619D02*
X160190475Y-85692619D01*
X160190475Y-85692619D02*
X160285713Y-85645000D01*
X160285713Y-85645000D02*
X160333332Y-85597380D01*
X160333332Y-85597380D02*
X160380951Y-85502142D01*
X160380951Y-85502142D02*
X160428570Y-85311666D01*
X160428570Y-85311666D02*
X160428570Y-85073571D01*
X160428570Y-85073571D02*
X160380951Y-84883095D01*
X160380951Y-84883095D02*
X160333332Y-84787857D01*
X160333332Y-84787857D02*
X160285713Y-84740238D01*
X160285713Y-84740238D02*
X160190475Y-84692619D01*
D11*
%TO.C,J13*%
X197680000Y-145670000D02*
X195020000Y-145670000D01*
X197680000Y-130370000D02*
X197680000Y-145670000D01*
X197680000Y-130370000D02*
X195020000Y-130370000D01*
X196350000Y-127770000D02*
X195020000Y-127770000D01*
X195020000Y-130370000D02*
X195020000Y-145670000D01*
X195020000Y-127770000D02*
X195020000Y-129100000D01*
%TO.C,J10*%
X162330000Y-104570000D02*
X159670000Y-104570000D01*
X162330000Y-89270000D02*
X162330000Y-104570000D01*
X162330000Y-89270000D02*
X159670000Y-89270000D01*
X161000000Y-86670000D02*
X159670000Y-86670000D01*
X159670000Y-89270000D02*
X159670000Y-104570000D01*
X159670000Y-86670000D02*
X159670000Y-88000000D01*
%TD*%
M02*
