%TF.GenerationSoftware,KiCad,Pcbnew,7.0.2-0*%
%TF.CreationDate,2023-10-10T18:06:45-05:00*%
%TF.ProjectId,Untitled,556e7469-746c-4656-942e-6b696361645f,rev?*%
%TF.SameCoordinates,Original*%
%TF.FileFunction,Copper,L1,Top*%
%TF.FilePolarity,Positive*%
%FSLAX46Y46*%
G04 Gerber Fmt 4.6, Leading zero omitted, Abs format (unit mm)*
G04 Created by KiCad (PCBNEW 7.0.2-0) date 2023-10-10 18:06:45*
%MOMM*%
%LPD*%
G01*
G04 APERTURE LIST*
%TA.AperFunction,ComponentPad*%
%ADD10R,1.930000X1.830000*%
%TD*%
%TA.AperFunction,ComponentPad*%
%ADD11C,2.130000*%
%TD*%
%TA.AperFunction,ComponentPad*%
%ADD12O,2.720000X3.240000*%
%TD*%
%TA.AperFunction,ComponentPad*%
%ADD13R,1.800000X1.800000*%
%TD*%
%TA.AperFunction,ComponentPad*%
%ADD14C,1.800000*%
%TD*%
%TA.AperFunction,ComponentPad*%
%ADD15R,1.700000X1.700000*%
%TD*%
%TA.AperFunction,ComponentPad*%
%ADD16O,1.700000X1.700000*%
%TD*%
%TA.AperFunction,ViaPad*%
%ADD17C,0.800000*%
%TD*%
%TA.AperFunction,Conductor*%
%ADD18C,0.500000*%
%TD*%
%TA.AperFunction,Conductor*%
%ADD19C,0.300000*%
%TD*%
G04 APERTURE END LIST*
D10*
%TO.P,J4,S*%
%TO.N,GND*%
X178650000Y-118650000D03*
D11*
%TO.P,J4,T*%
%TO.N,/sync_b*%
X178650000Y-130050000D03*
%TO.P,J4,TN*%
%TO.N,unconnected-(J4-PadTN)*%
X178650000Y-121750000D03*
%TD*%
D10*
%TO.P,J6,S*%
%TO.N,GND*%
X167800000Y-104200000D03*
D11*
%TO.P,J6,T*%
%TO.N,/voct_b*%
X167800000Y-115600000D03*
%TO.P,J6,TN*%
%TO.N,unconnected-(J6-PadTN)*%
X167800000Y-107300000D03*
%TD*%
D10*
%TO.P,J1,S*%
%TO.N,GND*%
X189500000Y-104200000D03*
D11*
%TO.P,J1,T*%
%TO.N,Net-(J1-PadT)*%
X189500000Y-115600000D03*
%TO.P,J1,TN*%
%TO.N,unconnected-(J1-PadTN)*%
X189500000Y-107300000D03*
%TD*%
D12*
%TO.P,RV6,*%
%TO.N,*%
X164400000Y-94125000D03*
X174000000Y-94125000D03*
D13*
%TO.P,RV6,1,1*%
%TO.N,GND*%
X166700000Y-101625000D03*
D14*
%TO.P,RV6,2,2*%
%TO.N,/cvmod_b*%
X169200000Y-101625000D03*
%TO.P,RV6,3,3*%
%TO.N,Net-(J8-PadT)*%
X171700000Y-101625000D03*
%TD*%
D10*
%TO.P,J2,S*%
%TO.N,GND*%
X189500000Y-118650000D03*
D11*
%TO.P,J2,T*%
%TO.N,Net-(J2-PadT)*%
X189500000Y-130050000D03*
%TO.P,J2,TN*%
%TO.N,+5V*%
X189500000Y-121750000D03*
%TD*%
D12*
%TO.P,RV4,*%
%TO.N,*%
X173850000Y-58875000D03*
X183450000Y-58875000D03*
D13*
%TO.P,RV4,1,1*%
%TO.N,GND*%
X176150000Y-66375000D03*
D14*
%TO.P,RV4,2,2*%
%TO.N,/coarse2_b*%
X178650000Y-66375000D03*
%TO.P,RV4,3,3*%
%TO.N,/coarse3_b*%
X181150000Y-66375000D03*
%TD*%
D12*
%TO.P,RV5,*%
%TO.N,*%
X164400000Y-80325000D03*
X174000000Y-80325000D03*
D13*
%TO.P,RV5,1,1*%
%TO.N,GND*%
X166700000Y-87825000D03*
D14*
%TO.P,RV5,2,2*%
%TO.N,/fine2_b*%
X169200000Y-87825000D03*
%TO.P,RV5,3,3*%
%TO.N,/fine3_b*%
X171700000Y-87825000D03*
%TD*%
D12*
%TO.P,RV3,*%
%TO.N,*%
X183300000Y-94100000D03*
X192900000Y-94100000D03*
D13*
%TO.P,RV3,1,1*%
%TO.N,GND*%
X185600000Y-101600000D03*
D14*
%TO.P,RV3,2,2*%
%TO.N,/pwm_b*%
X188100000Y-101600000D03*
%TO.P,RV3,3,3*%
%TO.N,Net-(J2-PadT)*%
X190600000Y-101600000D03*
%TD*%
D10*
%TO.P,J3,S*%
%TO.N,GND*%
X167800000Y-133100000D03*
D11*
%TO.P,J3,T*%
%TO.N,/pulse_b*%
X167800000Y-144500000D03*
%TO.P,J3,TN*%
%TO.N,unconnected-(J3-PadTN)*%
X167800000Y-136200000D03*
%TD*%
D10*
%TO.P,J9,S*%
%TO.N,GND*%
X189500000Y-133100000D03*
D11*
%TO.P,J9,T*%
%TO.N,/tri_b*%
X189500000Y-144500000D03*
%TO.P,J9,TN*%
%TO.N,unconnected-(J9-PadTN)*%
X189500000Y-136200000D03*
%TD*%
D10*
%TO.P,J5,S*%
%TO.N,GND*%
X178650000Y-133100000D03*
D11*
%TO.P,J5,T*%
%TO.N,/saw_b*%
X178650000Y-144500000D03*
%TO.P,J5,TN*%
%TO.N,unconnected-(J5-PadTN)*%
X178650000Y-136200000D03*
%TD*%
D10*
%TO.P,J8,S*%
%TO.N,GND*%
X167800000Y-118650000D03*
D11*
%TO.P,J8,T*%
%TO.N,Net-(J8-PadT)*%
X167800000Y-130050000D03*
%TO.P,J8,TN*%
%TO.N,unconnected-(J8-PadTN)*%
X167800000Y-121750000D03*
%TD*%
D12*
%TO.P,RV2,*%
%TO.N,*%
X183300000Y-80325000D03*
X192900000Y-80325000D03*
D13*
%TO.P,RV2,1,1*%
%TO.N,GND*%
X185600000Y-87825000D03*
D14*
%TO.P,RV2,2,2*%
%TO.N,/linfm_b*%
X188100000Y-87825000D03*
%TO.P,RV2,3,3*%
%TO.N,Net-(J1-PadT)*%
X190600000Y-87825000D03*
%TD*%
D15*
%TO.P,J13,1,Pin_1*%
%TO.N,+5V*%
X196350000Y-129100000D03*
D16*
%TO.P,J13,2,Pin_2*%
%TO.N,/pwm_b*%
X196350000Y-131640000D03*
%TO.P,J13,3,Pin_3*%
%TO.N,/sync_b*%
X196350000Y-134180000D03*
%TO.P,J13,4,Pin_4*%
%TO.N,/pulse_b*%
X196350000Y-136720000D03*
%TO.P,J13,5,Pin_5*%
%TO.N,/saw_b*%
X196350000Y-139260000D03*
%TO.P,J13,6,Pin_6*%
%TO.N,/tri_b*%
X196350000Y-141800000D03*
%TO.P,J13,7,Pin_7*%
%TO.N,GND*%
X196350000Y-144340000D03*
%TD*%
D15*
%TO.P,J10,1,Pin_1*%
%TO.N,/coarse2_b*%
X161000000Y-88000000D03*
D16*
%TO.P,J10,2,Pin_2*%
%TO.N,/coarse3_b*%
X161000000Y-90540000D03*
%TO.P,J10,3,Pin_3*%
%TO.N,/fine2_b*%
X161000000Y-93080000D03*
%TO.P,J10,4,Pin_4*%
%TO.N,/fine3_b*%
X161000000Y-95620000D03*
%TO.P,J10,5,Pin_5*%
%TO.N,/linfm_b*%
X161000000Y-98160000D03*
%TO.P,J10,6,Pin_6*%
%TO.N,/cvmod_b*%
X161000000Y-100700000D03*
%TO.P,J10,7,Pin_7*%
%TO.N,/voct_b*%
X161000000Y-103240000D03*
%TD*%
D17*
%TO.N,GND*%
X169550000Y-133100000D03*
X177050000Y-133100000D03*
X166050000Y-118650000D03*
X164950000Y-101600000D03*
X185600000Y-86100000D03*
X166050000Y-104200000D03*
X175700000Y-144300000D03*
X186400000Y-144300000D03*
X191200000Y-118650000D03*
X166700000Y-86200000D03*
X191300000Y-133100000D03*
X183850000Y-101600000D03*
X168050000Y-91700000D03*
X176900000Y-118650000D03*
X176150000Y-64550000D03*
%TD*%
D18*
%TO.N,GND*%
X176150000Y-66375000D02*
X176150000Y-64550000D01*
X178650000Y-133100000D02*
X177050000Y-133100000D01*
X167800000Y-133100000D02*
X169550000Y-133100000D01*
X166700000Y-87825000D02*
X166700000Y-86200000D01*
X167800000Y-104200000D02*
X166050000Y-104200000D01*
X167800000Y-118650000D02*
X166050000Y-118650000D01*
X185600000Y-87825000D02*
X185600000Y-86100000D01*
X189500000Y-133100000D02*
X191300000Y-133100000D01*
X164975000Y-101625000D02*
X164950000Y-101600000D01*
X166700000Y-101625000D02*
X164975000Y-101625000D01*
X178650000Y-118650000D02*
X176900000Y-118650000D01*
X189500000Y-118650000D02*
X191200000Y-118650000D01*
X185600000Y-101600000D02*
X183850000Y-101600000D01*
D19*
%TO.N,Net-(J2-PadT)*%
X189500000Y-130050000D02*
X192600000Y-126950000D01*
X192600000Y-103600000D02*
X190600000Y-101600000D01*
X192600000Y-126950000D02*
X192600000Y-103600000D01*
%TO.N,/pulse_b*%
X195865788Y-136720000D02*
X190185788Y-142400000D01*
X196350000Y-136720000D02*
X195865788Y-136720000D01*
X169900000Y-142400000D02*
X167800000Y-144500000D01*
X190185788Y-142400000D02*
X169900000Y-142400000D01*
%TO.N,/sync_b*%
X184150000Y-134600000D02*
X179600000Y-130050000D01*
X196350000Y-134180000D02*
X195930000Y-134600000D01*
X195930000Y-134600000D02*
X184150000Y-134600000D01*
X179600000Y-130050000D02*
X178650000Y-130050000D01*
%TO.N,/saw_b*%
X180250000Y-142900000D02*
X178650000Y-144500000D01*
X191992894Y-141300000D02*
X190392894Y-142900000D01*
X190392894Y-142900000D02*
X180250000Y-142900000D01*
X196350000Y-139260000D02*
X194310000Y-141300000D01*
X194310000Y-141300000D02*
X191992894Y-141300000D01*
%TO.N,/voct_b*%
X161000000Y-108800000D02*
X167800000Y-115600000D01*
X161000000Y-103240000D02*
X161000000Y-108800000D01*
%TO.N,Net-(J8-PadT)*%
X167800000Y-130050000D02*
X171700000Y-126150000D01*
X171700000Y-126150000D02*
X171700000Y-101625000D01*
%TO.N,/tri_b*%
X192200000Y-141800000D02*
X189500000Y-144500000D01*
X196350000Y-141800000D02*
X192200000Y-141800000D01*
%TO.N,/pwm_b*%
X188100000Y-102450000D02*
X188100000Y-101600000D01*
X188140000Y-131640000D02*
X186700000Y-130200000D01*
X186700000Y-130200000D02*
X186700000Y-103850000D01*
X196350000Y-131640000D02*
X188140000Y-131640000D01*
X186700000Y-103850000D02*
X188100000Y-102450000D01*
%TO.N,/coarse2_b*%
X178650000Y-70250000D02*
X178650000Y-66375000D01*
X161000000Y-87900000D02*
X178650000Y-70250000D01*
X161000000Y-88000000D02*
X161000000Y-87900000D01*
%TO.N,/coarse3_b*%
X163300000Y-89050000D02*
X161810000Y-90540000D01*
X161810000Y-90540000D02*
X161000000Y-90540000D01*
X163300000Y-86750000D02*
X163300000Y-89050000D01*
X181150000Y-66375000D02*
X181150000Y-68900000D01*
X181150000Y-68900000D02*
X163300000Y-86750000D01*
%TO.N,/fine2_b*%
X169200000Y-87825000D02*
X166125000Y-90900000D01*
X166125000Y-90900000D02*
X163180000Y-90900000D01*
X163180000Y-90900000D02*
X161000000Y-93080000D01*
%TO.N,/fine3_b*%
X171700000Y-90800000D02*
X166030000Y-96470000D01*
X171700000Y-87825000D02*
X171700000Y-90800000D01*
X166030000Y-96470000D02*
X161850000Y-96470000D01*
X161850000Y-96470000D02*
X161000000Y-95620000D01*
%TO.N,/cvmod_b*%
X169200000Y-100750000D02*
X169200000Y-101625000D01*
X163500000Y-99000000D02*
X167450000Y-99000000D01*
X167450000Y-99000000D02*
X169200000Y-100750000D01*
X161800000Y-100700000D02*
X163500000Y-99000000D01*
X161000000Y-100700000D02*
X161800000Y-100700000D01*
%TO.N,/linfm_b*%
X174490000Y-98160000D02*
X181200000Y-91450000D01*
X188100000Y-88750000D02*
X188100000Y-87825000D01*
X161000000Y-98160000D02*
X174490000Y-98160000D01*
X181200000Y-91450000D02*
X185400000Y-91450000D01*
X185400000Y-91450000D02*
X188100000Y-88750000D01*
%TD*%
%TA.AperFunction,Conductor*%
%TO.N,GND*%
G36*
X170531904Y-88605916D02*
G01*
X170553807Y-88631192D01*
X170591021Y-88688153D01*
X170744154Y-88854500D01*
X170748219Y-88858916D01*
X170931368Y-89001466D01*
X170931370Y-89001467D01*
X170931374Y-89001470D01*
X170984517Y-89030229D01*
X171034107Y-89079447D01*
X171049500Y-89139284D01*
X171049500Y-90479192D01*
X171029815Y-90546231D01*
X171013181Y-90566873D01*
X166301756Y-95278297D01*
X166240433Y-95311782D01*
X166170741Y-95306798D01*
X166114808Y-95264926D01*
X166090391Y-95199462D01*
X166101799Y-95137984D01*
X166142386Y-95051406D01*
X166220847Y-94790611D01*
X166260500Y-94521171D01*
X166260500Y-93797000D01*
X166245597Y-93593384D01*
X166234521Y-93543663D01*
X166186383Y-93327561D01*
X166181735Y-93315408D01*
X166089093Y-93073186D01*
X165955804Y-92835690D01*
X165814145Y-92652236D01*
X165789354Y-92620130D01*
X165593295Y-92431105D01*
X165371800Y-92272640D01*
X165129602Y-92148117D01*
X165129598Y-92148115D01*
X165129597Y-92148115D01*
X164990026Y-92100500D01*
X164871836Y-92060179D01*
X164604029Y-92010713D01*
X164331869Y-92000767D01*
X164061162Y-92030553D01*
X163797674Y-92099438D01*
X163547024Y-92205953D01*
X163314556Y-92347826D01*
X163105223Y-92522035D01*
X163105221Y-92522037D01*
X163017329Y-92620130D01*
X162923480Y-92724871D01*
X162773210Y-92952005D01*
X162657615Y-93198589D01*
X162586674Y-93434389D01*
X162579153Y-93459389D01*
X162539500Y-93728829D01*
X162539500Y-94453000D01*
X162539664Y-94455249D01*
X162539665Y-94455259D01*
X162554402Y-94656617D01*
X162613616Y-94922438D01*
X162662943Y-95051407D01*
X162710907Y-95176814D01*
X162844196Y-95414310D01*
X163002805Y-95619715D01*
X163028197Y-95684807D01*
X163014367Y-95753294D01*
X162965706Y-95803432D01*
X162904659Y-95819500D01*
X162473527Y-95819500D01*
X162406488Y-95799815D01*
X162360733Y-95747011D01*
X162349999Y-95684692D01*
X162354796Y-95629869D01*
X162355659Y-95620000D01*
X162335063Y-95384592D01*
X162273903Y-95156337D01*
X162174035Y-94942171D01*
X162038495Y-94748599D01*
X161871401Y-94581505D01*
X161685839Y-94451573D01*
X161642216Y-94396998D01*
X161635022Y-94327500D01*
X161666545Y-94265145D01*
X161685837Y-94248428D01*
X161871401Y-94118495D01*
X162038495Y-93951401D01*
X162174035Y-93757830D01*
X162273903Y-93543663D01*
X162335063Y-93315408D01*
X162355659Y-93080000D01*
X162335063Y-92844592D01*
X162315615Y-92772010D01*
X162317278Y-92702161D01*
X162347709Y-92652236D01*
X162876829Y-92123117D01*
X163413126Y-91586819D01*
X163474450Y-91553334D01*
X163500808Y-91550500D01*
X166039495Y-91550500D01*
X166060704Y-91552841D01*
X166063294Y-91552759D01*
X166063296Y-91552760D01*
X166133262Y-91550560D01*
X166137157Y-91550500D01*
X166162025Y-91550500D01*
X166165925Y-91550500D01*
X166170294Y-91549947D01*
X166181939Y-91549030D01*
X166227569Y-91547597D01*
X166247949Y-91541675D01*
X166266989Y-91537732D01*
X166288058Y-91535071D01*
X166330520Y-91518258D01*
X166341557Y-91514480D01*
X166385398Y-91501744D01*
X166403670Y-91490936D01*
X166421136Y-91482380D01*
X166440871Y-91474568D01*
X166477816Y-91447725D01*
X166487548Y-91441332D01*
X166526865Y-91418081D01*
X166541874Y-91403071D01*
X166556663Y-91390439D01*
X166573837Y-91377963D01*
X166602946Y-91342774D01*
X166610790Y-91334154D01*
X168727800Y-89217144D01*
X168789121Y-89183661D01*
X168844667Y-89186902D01*
X168844884Y-89185607D01*
X168956109Y-89204167D01*
X169083951Y-89225500D01*
X169083952Y-89225500D01*
X169316048Y-89225500D01*
X169316049Y-89225500D01*
X169544981Y-89187298D01*
X169764503Y-89111936D01*
X169968626Y-89001470D01*
X170151784Y-88858913D01*
X170308979Y-88688153D01*
X170346192Y-88631194D01*
X170399337Y-88585838D01*
X170468568Y-88576414D01*
X170531904Y-88605916D01*
G37*
%TD.AperFunction*%
%TA.AperFunction,Conductor*%
G36*
X198092539Y-46170185D02*
G01*
X198138294Y-46222989D01*
X198149500Y-46274500D01*
X198149500Y-146025500D01*
X198129815Y-146092539D01*
X198077011Y-146138294D01*
X198025500Y-146149500D01*
X190231993Y-146149500D01*
X190164954Y-146129815D01*
X190119199Y-146077011D01*
X190109255Y-146007853D01*
X190138280Y-145944297D01*
X190184538Y-145910939D01*
X190212920Y-145899184D01*
X190423023Y-145770433D01*
X190610399Y-145610399D01*
X190770433Y-145423023D01*
X190899184Y-145212920D01*
X190993483Y-144985262D01*
X191051007Y-144745655D01*
X191070341Y-144500000D01*
X191051007Y-144254345D01*
X190993483Y-144014738D01*
X190992604Y-144011075D01*
X190996095Y-143941292D01*
X191025495Y-143894449D01*
X192433126Y-142486819D01*
X192494450Y-142453334D01*
X192520808Y-142450500D01*
X195092277Y-142450500D01*
X195159316Y-142470185D01*
X195193851Y-142503376D01*
X195311504Y-142671400D01*
X195311505Y-142671401D01*
X195478599Y-142838495D01*
X195664596Y-142968732D01*
X195708219Y-143023307D01*
X195715412Y-143092806D01*
X195683890Y-143155160D01*
X195664595Y-143171880D01*
X195478919Y-143301892D01*
X195311890Y-143468921D01*
X195176400Y-143662421D01*
X195076569Y-143876507D01*
X195019364Y-144089999D01*
X195019364Y-144090000D01*
X195916314Y-144090000D01*
X195890507Y-144130156D01*
X195850000Y-144268111D01*
X195850000Y-144411889D01*
X195890507Y-144549844D01*
X195916314Y-144590000D01*
X195019364Y-144590000D01*
X195076569Y-144803492D01*
X195176399Y-145017576D01*
X195311893Y-145211081D01*
X195478918Y-145378106D01*
X195672423Y-145513600D01*
X195886509Y-145613430D01*
X196100000Y-145670634D01*
X196100000Y-144775501D01*
X196207685Y-144824680D01*
X196314237Y-144840000D01*
X196385763Y-144840000D01*
X196492315Y-144824680D01*
X196600000Y-144775501D01*
X196600000Y-145670633D01*
X196813490Y-145613430D01*
X197027576Y-145513600D01*
X197221081Y-145378106D01*
X197388106Y-145211081D01*
X197523600Y-145017576D01*
X197623430Y-144803492D01*
X197680636Y-144590000D01*
X196783686Y-144590000D01*
X196809493Y-144549844D01*
X196850000Y-144411889D01*
X196850000Y-144268111D01*
X196809493Y-144130156D01*
X196783686Y-144090000D01*
X197680636Y-144090000D01*
X197680635Y-144089999D01*
X197623430Y-143876507D01*
X197523599Y-143662421D01*
X197388109Y-143468921D01*
X197221081Y-143301893D01*
X197035404Y-143171880D01*
X196991780Y-143117303D01*
X196984587Y-143047804D01*
X197016109Y-142985450D01*
X197035399Y-142968734D01*
X197221401Y-142838495D01*
X197388495Y-142671401D01*
X197524035Y-142477830D01*
X197623903Y-142263663D01*
X197685063Y-142035408D01*
X197705659Y-141800000D01*
X197685063Y-141564592D01*
X197623903Y-141336337D01*
X197524035Y-141122171D01*
X197388495Y-140928599D01*
X197221401Y-140761505D01*
X197035839Y-140631573D01*
X196992216Y-140576998D01*
X196985022Y-140507500D01*
X197016545Y-140445145D01*
X197035837Y-140428428D01*
X197221401Y-140298495D01*
X197388495Y-140131401D01*
X197524035Y-139937830D01*
X197623903Y-139723663D01*
X197685063Y-139495408D01*
X197705659Y-139260000D01*
X197685063Y-139024592D01*
X197623903Y-138796337D01*
X197524035Y-138582171D01*
X197388495Y-138388599D01*
X197221401Y-138221505D01*
X197035839Y-138091573D01*
X196992216Y-138036998D01*
X196985022Y-137967500D01*
X197016545Y-137905145D01*
X197035837Y-137888428D01*
X197221401Y-137758495D01*
X197388495Y-137591401D01*
X197524035Y-137397830D01*
X197623903Y-137183663D01*
X197685063Y-136955408D01*
X197705659Y-136720000D01*
X197685063Y-136484592D01*
X197623903Y-136256337D01*
X197524035Y-136042171D01*
X197388495Y-135848599D01*
X197221401Y-135681505D01*
X197035839Y-135551573D01*
X196992216Y-135496998D01*
X196985022Y-135427500D01*
X197016545Y-135365145D01*
X197035837Y-135348428D01*
X197221401Y-135218495D01*
X197388495Y-135051401D01*
X197524035Y-134857830D01*
X197623903Y-134643663D01*
X197685063Y-134415408D01*
X197705659Y-134180000D01*
X197685063Y-133944592D01*
X197623903Y-133716337D01*
X197524035Y-133502171D01*
X197388495Y-133308599D01*
X197221401Y-133141505D01*
X197035839Y-133011573D01*
X196992217Y-132956998D01*
X196985024Y-132887499D01*
X197016546Y-132825145D01*
X197035837Y-132808428D01*
X197221401Y-132678495D01*
X197388495Y-132511401D01*
X197524035Y-132317830D01*
X197623903Y-132103663D01*
X197685063Y-131875408D01*
X197705659Y-131640000D01*
X197702247Y-131601007D01*
X197685063Y-131404592D01*
X197635869Y-131220997D01*
X197623903Y-131176337D01*
X197524035Y-130962171D01*
X197388495Y-130768599D01*
X197266569Y-130646673D01*
X197233084Y-130585350D01*
X197238068Y-130515658D01*
X197279940Y-130459725D01*
X197310915Y-130442810D01*
X197442331Y-130393796D01*
X197557546Y-130307546D01*
X197643796Y-130192331D01*
X197694091Y-130057483D01*
X197700500Y-129997873D01*
X197700499Y-128202128D01*
X197694091Y-128142517D01*
X197643796Y-128007669D01*
X197557546Y-127892454D01*
X197442331Y-127806204D01*
X197307483Y-127755909D01*
X197247873Y-127749500D01*
X197244550Y-127749500D01*
X195455439Y-127749500D01*
X195455420Y-127749500D01*
X195452128Y-127749501D01*
X195448848Y-127749853D01*
X195448840Y-127749854D01*
X195392515Y-127755909D01*
X195257669Y-127806204D01*
X195142454Y-127892454D01*
X195056204Y-128007668D01*
X195005910Y-128142515D01*
X195005909Y-128142517D01*
X194999500Y-128202127D01*
X194999500Y-128205448D01*
X194999500Y-128205449D01*
X194999500Y-129994560D01*
X194999500Y-129994578D01*
X194999501Y-129997872D01*
X194999853Y-130001152D01*
X194999854Y-130001159D01*
X195005909Y-130057483D01*
X195056204Y-130192331D01*
X195142454Y-130307546D01*
X195257669Y-130393796D01*
X195369907Y-130435658D01*
X195389082Y-130442810D01*
X195445016Y-130484681D01*
X195469433Y-130550146D01*
X195454581Y-130618419D01*
X195433431Y-130646673D01*
X195311503Y-130768601D01*
X195193854Y-130936623D01*
X195139277Y-130980248D01*
X195092279Y-130989500D01*
X190981753Y-130989500D01*
X190914714Y-130969815D01*
X190868959Y-130917011D01*
X190859015Y-130847853D01*
X190876026Y-130800710D01*
X190899184Y-130762920D01*
X190993483Y-130535262D01*
X191051007Y-130295655D01*
X191070341Y-130050000D01*
X191051007Y-129804345D01*
X191018002Y-129666871D01*
X190992604Y-129561075D01*
X190996095Y-129491292D01*
X191025495Y-129444449D01*
X192999513Y-127470431D01*
X193016162Y-127457094D01*
X193017936Y-127455204D01*
X193017940Y-127455202D01*
X193065897Y-127404131D01*
X193068515Y-127401429D01*
X193088911Y-127381035D01*
X193091610Y-127377554D01*
X193099184Y-127368685D01*
X193130448Y-127335393D01*
X193140675Y-127316787D01*
X193151348Y-127300539D01*
X193164362Y-127283764D01*
X193182491Y-127241868D01*
X193187631Y-127231377D01*
X193209627Y-127191368D01*
X193214906Y-127170805D01*
X193221204Y-127152406D01*
X193229635Y-127132926D01*
X193236777Y-127087824D01*
X193239145Y-127076397D01*
X193250500Y-127032177D01*
X193250500Y-127010954D01*
X193252027Y-126991554D01*
X193255347Y-126970595D01*
X193251050Y-126925139D01*
X193250500Y-126913470D01*
X193250500Y-103685502D01*
X193252841Y-103664299D01*
X193252759Y-103661705D01*
X193252760Y-103661703D01*
X193250561Y-103591736D01*
X193250500Y-103587841D01*
X193250500Y-103562976D01*
X193250500Y-103559075D01*
X193249948Y-103554709D01*
X193249030Y-103543055D01*
X193247597Y-103497431D01*
X193241675Y-103477048D01*
X193237732Y-103458011D01*
X193235071Y-103436942D01*
X193218264Y-103394492D01*
X193214483Y-103383448D01*
X193201745Y-103339604D01*
X193201744Y-103339603D01*
X193201744Y-103339601D01*
X193190934Y-103321322D01*
X193182380Y-103303862D01*
X193174568Y-103284129D01*
X193147723Y-103247180D01*
X193141332Y-103237451D01*
X193118081Y-103198135D01*
X193103068Y-103183122D01*
X193090435Y-103168330D01*
X193077963Y-103151163D01*
X193042779Y-103122056D01*
X193034140Y-103114194D01*
X191988493Y-102068547D01*
X191955008Y-102007224D01*
X191955968Y-101950426D01*
X191986134Y-101831305D01*
X192005300Y-101600000D01*
X191986134Y-101368695D01*
X191929157Y-101143700D01*
X191835924Y-100931151D01*
X191708979Y-100736847D01*
X191551784Y-100566087D01*
X191368626Y-100423530D01*
X191164503Y-100313064D01*
X191164499Y-100313062D01*
X191164498Y-100313062D01*
X190944984Y-100237702D01*
X190757398Y-100206400D01*
X190716049Y-100199500D01*
X190483951Y-100199500D01*
X190442602Y-100206400D01*
X190255015Y-100237702D01*
X190035501Y-100313062D01*
X190035497Y-100313063D01*
X190035497Y-100313064D01*
X189934334Y-100367811D01*
X189831372Y-100423531D01*
X189648215Y-100566087D01*
X189565923Y-100655481D01*
X189491021Y-100736847D01*
X189474689Y-100761846D01*
X189453809Y-100793805D01*
X189400662Y-100839161D01*
X189331431Y-100848585D01*
X189268095Y-100819083D01*
X189246191Y-100793805D01*
X189208979Y-100736847D01*
X189051784Y-100566087D01*
X188868626Y-100423530D01*
X188664503Y-100313064D01*
X188664499Y-100313062D01*
X188664498Y-100313062D01*
X188444984Y-100237702D01*
X188257398Y-100206400D01*
X188216049Y-100199500D01*
X187983951Y-100199500D01*
X187942602Y-100206400D01*
X187755015Y-100237702D01*
X187535501Y-100313062D01*
X187535497Y-100313063D01*
X187535497Y-100313064D01*
X187434334Y-100367811D01*
X187331372Y-100423531D01*
X187154023Y-100561567D01*
X187089029Y-100587209D01*
X187020489Y-100573642D01*
X186970164Y-100525174D01*
X186961679Y-100507046D01*
X186943352Y-100457911D01*
X186857188Y-100342811D01*
X186742089Y-100256647D01*
X186607371Y-100206400D01*
X186551132Y-100200354D01*
X186544518Y-100200000D01*
X185850000Y-100200000D01*
X185850000Y-101164498D01*
X185742315Y-101115320D01*
X185635763Y-101100000D01*
X185564237Y-101100000D01*
X185457685Y-101115320D01*
X185350000Y-101164498D01*
X185350000Y-100200000D01*
X184655482Y-100200000D01*
X184648867Y-100200354D01*
X184592628Y-100206400D01*
X184457910Y-100256647D01*
X184342811Y-100342811D01*
X184256647Y-100457910D01*
X184206400Y-100592628D01*
X184200354Y-100648867D01*
X184200000Y-100655481D01*
X184200000Y-101350000D01*
X185166314Y-101350000D01*
X185140507Y-101390156D01*
X185100000Y-101528111D01*
X185100000Y-101671889D01*
X185140507Y-101809844D01*
X185166314Y-101850000D01*
X184200000Y-101850000D01*
X184200000Y-102544518D01*
X184200354Y-102551132D01*
X184206400Y-102607371D01*
X184256647Y-102742089D01*
X184342811Y-102857188D01*
X184457910Y-102943352D01*
X184592628Y-102993599D01*
X184648867Y-102999645D01*
X184655482Y-103000000D01*
X185350000Y-103000000D01*
X185350000Y-102035501D01*
X185457685Y-102084680D01*
X185564237Y-102100000D01*
X185635763Y-102100000D01*
X185742315Y-102084680D01*
X185850000Y-102035501D01*
X185850000Y-103000000D01*
X186330691Y-103000000D01*
X186397730Y-103019685D01*
X186443485Y-103072489D01*
X186453429Y-103141647D01*
X186424404Y-103205203D01*
X186418385Y-103211667D01*
X186345924Y-103284129D01*
X186300484Y-103329569D01*
X186283830Y-103342911D01*
X186234133Y-103395833D01*
X186231428Y-103398625D01*
X186211089Y-103418965D01*
X186208713Y-103422027D01*
X186208702Y-103422040D01*
X186208378Y-103422459D01*
X186200806Y-103431323D01*
X186169550Y-103464607D01*
X186159322Y-103483212D01*
X186148645Y-103499467D01*
X186135636Y-103516238D01*
X186117506Y-103558132D01*
X186112370Y-103568616D01*
X186090372Y-103608632D01*
X186085091Y-103629199D01*
X186078791Y-103647600D01*
X186070364Y-103667074D01*
X186063223Y-103712161D01*
X186060855Y-103723593D01*
X186058106Y-103734306D01*
X186049500Y-103767824D01*
X186049500Y-103789045D01*
X186047973Y-103808443D01*
X186044653Y-103829405D01*
X186048950Y-103874858D01*
X186049500Y-103886528D01*
X186049500Y-130114494D01*
X186047158Y-130135702D01*
X186049439Y-130208262D01*
X186049500Y-130212156D01*
X186049500Y-130240925D01*
X186049987Y-130244785D01*
X186049989Y-130244808D01*
X186050054Y-130245320D01*
X186050968Y-130256942D01*
X186052402Y-130302569D01*
X186058323Y-130322950D01*
X186062267Y-130341995D01*
X186064928Y-130363059D01*
X186081737Y-130405515D01*
X186085520Y-130416563D01*
X186098256Y-130460400D01*
X186109061Y-130478670D01*
X186117621Y-130496143D01*
X186125431Y-130515869D01*
X186152267Y-130552808D01*
X186158673Y-130562560D01*
X186181919Y-130601865D01*
X186181921Y-130601867D01*
X186196925Y-130616871D01*
X186209564Y-130631669D01*
X186222037Y-130648837D01*
X186257212Y-130677936D01*
X186265854Y-130685800D01*
X187619564Y-132039510D01*
X187632911Y-132056169D01*
X187685832Y-132105864D01*
X187688629Y-132108575D01*
X187708966Y-132128912D01*
X187712037Y-132131294D01*
X187712438Y-132131605D01*
X187721324Y-132139193D01*
X187754607Y-132170448D01*
X187773198Y-132180668D01*
X187789462Y-132191351D01*
X187806235Y-132204362D01*
X187848138Y-132222495D01*
X187858626Y-132227633D01*
X187898632Y-132249627D01*
X187919197Y-132254906D01*
X187937586Y-132261202D01*
X187957074Y-132269636D01*
X187957077Y-132269636D01*
X187960251Y-132271010D01*
X188013957Y-132315703D01*
X188034975Y-132382336D01*
X188035000Y-132384810D01*
X188035000Y-132850000D01*
X188943480Y-132850000D01*
X188915245Y-132910002D01*
X188886365Y-133061393D01*
X188896043Y-133215211D01*
X188939838Y-133350000D01*
X188035000Y-133350000D01*
X188035000Y-133825500D01*
X188015315Y-133892539D01*
X187962511Y-133938294D01*
X187911000Y-133949500D01*
X184470808Y-133949500D01*
X184403769Y-133929815D01*
X184383127Y-133913181D01*
X180202583Y-129732637D01*
X180169690Y-129673902D01*
X180143483Y-129564739D01*
X180143483Y-129564738D01*
X180049184Y-129337080D01*
X179920433Y-129126977D01*
X179760399Y-128939601D01*
X179573023Y-128779567D01*
X179362920Y-128650816D01*
X179197682Y-128582372D01*
X179135261Y-128556516D01*
X178895656Y-128498993D01*
X178772827Y-128489325D01*
X178650000Y-128479659D01*
X178649999Y-128479659D01*
X178404343Y-128498993D01*
X178164738Y-128556516D01*
X177937078Y-128650817D01*
X177726978Y-128779566D01*
X177539601Y-128939601D01*
X177379566Y-129126978D01*
X177250817Y-129337078D01*
X177156516Y-129564738D01*
X177098993Y-129804343D01*
X177079659Y-130049999D01*
X177098993Y-130295656D01*
X177156516Y-130535261D01*
X177193179Y-130623773D01*
X177250816Y-130762920D01*
X177379567Y-130973023D01*
X177539601Y-131160399D01*
X177726977Y-131320433D01*
X177937080Y-131449184D01*
X177945401Y-131454283D01*
X177943677Y-131457094D01*
X177984858Y-131490281D01*
X178006922Y-131556575D01*
X177989642Y-131624275D01*
X177938504Y-131671885D01*
X177883001Y-131685000D01*
X177640482Y-131685000D01*
X177633867Y-131685354D01*
X177577628Y-131691400D01*
X177442910Y-131741647D01*
X177327811Y-131827811D01*
X177241647Y-131942910D01*
X177191400Y-132077628D01*
X177185354Y-132133867D01*
X177185000Y-132140481D01*
X177185000Y-132850000D01*
X178093480Y-132850000D01*
X178065245Y-132910002D01*
X178036365Y-133061393D01*
X178046043Y-133215211D01*
X178089838Y-133350000D01*
X177185000Y-133350000D01*
X177185000Y-134059518D01*
X177185354Y-134066132D01*
X177191400Y-134122371D01*
X177241647Y-134257089D01*
X177327811Y-134372188D01*
X177442910Y-134458352D01*
X177577628Y-134508599D01*
X177633867Y-134514645D01*
X177640482Y-134515000D01*
X178003711Y-134515000D01*
X178070750Y-134534685D01*
X178116505Y-134587489D01*
X178126449Y-134656647D01*
X178097424Y-134720203D01*
X178051164Y-134753561D01*
X177937078Y-134800817D01*
X177726978Y-134929566D01*
X177539601Y-135089601D01*
X177379566Y-135276978D01*
X177250817Y-135487078D01*
X177156516Y-135714738D01*
X177098993Y-135954343D01*
X177079659Y-136200000D01*
X177098993Y-136445656D01*
X177156516Y-136685261D01*
X177170906Y-136720000D01*
X177250816Y-136912920D01*
X177379567Y-137123023D01*
X177539601Y-137310399D01*
X177726977Y-137470433D01*
X177937080Y-137599184D01*
X178164738Y-137693483D01*
X178404345Y-137751007D01*
X178650000Y-137770341D01*
X178895655Y-137751007D01*
X179135262Y-137693483D01*
X179362920Y-137599184D01*
X179573023Y-137470433D01*
X179760399Y-137310399D01*
X179920433Y-137123023D01*
X180049184Y-136912920D01*
X180143483Y-136685262D01*
X180201007Y-136445655D01*
X180220341Y-136200000D01*
X180201007Y-135954345D01*
X180143483Y-135714738D01*
X180049184Y-135487080D01*
X179920433Y-135276977D01*
X179760399Y-135089601D01*
X179573023Y-134929567D01*
X179362920Y-134800816D01*
X179248835Y-134753560D01*
X179194433Y-134709720D01*
X179172368Y-134643426D01*
X179189647Y-134575726D01*
X179240785Y-134528116D01*
X179296289Y-134515000D01*
X179659518Y-134515000D01*
X179666132Y-134514645D01*
X179722371Y-134508599D01*
X179857089Y-134458352D01*
X179972188Y-134372188D01*
X180058352Y-134257089D01*
X180108599Y-134122371D01*
X180114645Y-134066132D01*
X180115000Y-134059518D01*
X180115000Y-133350000D01*
X179206520Y-133350000D01*
X179234755Y-133289998D01*
X179263635Y-133138607D01*
X179253957Y-132984789D01*
X179210162Y-132850000D01*
X180115000Y-132850000D01*
X180115000Y-132140481D01*
X180114645Y-132133867D01*
X180108599Y-132077628D01*
X180058352Y-131942910D01*
X179972188Y-131827811D01*
X179857089Y-131741647D01*
X179722371Y-131691400D01*
X179666132Y-131685354D01*
X179659518Y-131685000D01*
X179416999Y-131685000D01*
X179349960Y-131665315D01*
X179304205Y-131612511D01*
X179294261Y-131543353D01*
X179323286Y-131479797D01*
X179355845Y-131456317D01*
X179354599Y-131454283D01*
X179362920Y-131449184D01*
X179573023Y-131320433D01*
X179689448Y-131220996D01*
X179753209Y-131192426D01*
X179822294Y-131202863D01*
X179857660Y-131227606D01*
X183629564Y-134999510D01*
X183642911Y-135016169D01*
X183695832Y-135065864D01*
X183698629Y-135068575D01*
X183718966Y-135088912D01*
X183722037Y-135091294D01*
X183722438Y-135091605D01*
X183731324Y-135099193D01*
X183764607Y-135130448D01*
X183783198Y-135140668D01*
X183799462Y-135151351D01*
X183816235Y-135164362D01*
X183858138Y-135182495D01*
X183868626Y-135187633D01*
X183908632Y-135209627D01*
X183929197Y-135214906D01*
X183947593Y-135221205D01*
X183967074Y-135229636D01*
X184012178Y-135236779D01*
X184023597Y-135239144D01*
X184067823Y-135250500D01*
X184089045Y-135250500D01*
X184108443Y-135252026D01*
X184129405Y-135255347D01*
X184174863Y-135251049D01*
X184186531Y-135250500D01*
X188024375Y-135250500D01*
X188091414Y-135270185D01*
X188137169Y-135322989D01*
X188147113Y-135392147D01*
X188130102Y-135439290D01*
X188100817Y-135487078D01*
X188006516Y-135714738D01*
X187948993Y-135954343D01*
X187929659Y-136199999D01*
X187948993Y-136445656D01*
X188006516Y-136685261D01*
X188020906Y-136720000D01*
X188100816Y-136912920D01*
X188229567Y-137123023D01*
X188389601Y-137310399D01*
X188576977Y-137470433D01*
X188787080Y-137599184D01*
X189014738Y-137693483D01*
X189254345Y-137751007D01*
X189500000Y-137770341D01*
X189745655Y-137751007D01*
X189985262Y-137693483D01*
X190212920Y-137599184D01*
X190423023Y-137470433D01*
X190610399Y-137310399D01*
X190770433Y-137123023D01*
X190899184Y-136912920D01*
X190993483Y-136685262D01*
X191051007Y-136445655D01*
X191070341Y-136200000D01*
X191051007Y-135954345D01*
X190993483Y-135714738D01*
X190899184Y-135487080D01*
X190869897Y-135439289D01*
X190851653Y-135371844D01*
X190872769Y-135305242D01*
X190926541Y-135260628D01*
X190975625Y-135250500D01*
X195485209Y-135250500D01*
X195552248Y-135270185D01*
X195556332Y-135272925D01*
X195664158Y-135348425D01*
X195707783Y-135403002D01*
X195714977Y-135472500D01*
X195683454Y-135534855D01*
X195664159Y-135551575D01*
X195478595Y-135681508D01*
X195311505Y-135848598D01*
X195175965Y-136042170D01*
X195076097Y-136256336D01*
X195014936Y-136484592D01*
X195002924Y-136621890D01*
X194977471Y-136686958D01*
X194967077Y-136698763D01*
X189952661Y-141713181D01*
X189891338Y-141746666D01*
X189864980Y-141749500D01*
X169985504Y-141749500D01*
X169964294Y-141747158D01*
X169891737Y-141749439D01*
X169887842Y-141749500D01*
X169859075Y-141749500D01*
X169855213Y-141749987D01*
X169855192Y-141749989D01*
X169854681Y-141750054D01*
X169843059Y-141750968D01*
X169797430Y-141752402D01*
X169777051Y-141758323D01*
X169758007Y-141762267D01*
X169743639Y-141764082D01*
X169736941Y-141764929D01*
X169694490Y-141781736D01*
X169683443Y-141785518D01*
X169639598Y-141798256D01*
X169621330Y-141809060D01*
X169603864Y-141817617D01*
X169584129Y-141825431D01*
X169547202Y-141852260D01*
X169537442Y-141858671D01*
X169498136Y-141881917D01*
X169483125Y-141896928D01*
X169468336Y-141909558D01*
X169451164Y-141922034D01*
X169422057Y-141957218D01*
X169414196Y-141965856D01*
X168405550Y-142974502D01*
X168344227Y-143007987D01*
X168288922Y-143007395D01*
X168045656Y-142948993D01*
X167800000Y-142929659D01*
X167554343Y-142948993D01*
X167314738Y-143006516D01*
X167087078Y-143100817D01*
X166876978Y-143229566D01*
X166689601Y-143389601D01*
X166529566Y-143576978D01*
X166400817Y-143787078D01*
X166306516Y-144014738D01*
X166248993Y-144254343D01*
X166229659Y-144500000D01*
X166248993Y-144745656D01*
X166306516Y-144985261D01*
X166353666Y-145099091D01*
X166400816Y-145212920D01*
X166529567Y-145423023D01*
X166689601Y-145610399D01*
X166876977Y-145770433D01*
X167087080Y-145899184D01*
X167115460Y-145910939D01*
X167169863Y-145954780D01*
X167191928Y-146021074D01*
X167174649Y-146088774D01*
X167123511Y-146136384D01*
X167068007Y-146149500D01*
X159274500Y-146149500D01*
X159207461Y-146129815D01*
X159161706Y-146077011D01*
X159150500Y-146025500D01*
X159150500Y-139543228D01*
X166295308Y-139543228D01*
X166309506Y-139789474D01*
X166363732Y-140030094D01*
X166363733Y-140030098D01*
X166363734Y-140030099D01*
X166456532Y-140258634D01*
X166585411Y-140468945D01*
X166746908Y-140655382D01*
X166936687Y-140812939D01*
X167149650Y-140937385D01*
X167149651Y-140937385D01*
X167149654Y-140937387D01*
X167380073Y-141025375D01*
X167380074Y-141025375D01*
X167380079Y-141025377D01*
X167621785Y-141074553D01*
X167868278Y-141083592D01*
X168112936Y-141052250D01*
X168349191Y-140981370D01*
X168570697Y-140872856D01*
X168771505Y-140729621D01*
X168946223Y-140555512D01*
X169090158Y-140355205D01*
X169199445Y-140134079D01*
X169271149Y-139898074D01*
X169303344Y-139653526D01*
X169305141Y-139580000D01*
X169302118Y-139543228D01*
X177145308Y-139543228D01*
X177159506Y-139789474D01*
X177213732Y-140030094D01*
X177213733Y-140030098D01*
X177213734Y-140030099D01*
X177306532Y-140258634D01*
X177435411Y-140468945D01*
X177596908Y-140655382D01*
X177786687Y-140812939D01*
X177999650Y-140937385D01*
X177999651Y-140937385D01*
X177999654Y-140937387D01*
X178230073Y-141025375D01*
X178230074Y-141025375D01*
X178230079Y-141025377D01*
X178471785Y-141074553D01*
X178718278Y-141083592D01*
X178962936Y-141052250D01*
X179199191Y-140981370D01*
X179420697Y-140872856D01*
X179621505Y-140729621D01*
X179796223Y-140555512D01*
X179940158Y-140355205D01*
X180049445Y-140134079D01*
X180121149Y-139898074D01*
X180153344Y-139653526D01*
X180155141Y-139580000D01*
X180152118Y-139543228D01*
X187995308Y-139543228D01*
X188009506Y-139789474D01*
X188063732Y-140030094D01*
X188063733Y-140030098D01*
X188063734Y-140030099D01*
X188156532Y-140258634D01*
X188285411Y-140468945D01*
X188446908Y-140655382D01*
X188636687Y-140812939D01*
X188849650Y-140937385D01*
X188849651Y-140937385D01*
X188849654Y-140937387D01*
X189080073Y-141025375D01*
X189080074Y-141025375D01*
X189080079Y-141025377D01*
X189321785Y-141074553D01*
X189568278Y-141083592D01*
X189812936Y-141052250D01*
X190049191Y-140981370D01*
X190270697Y-140872856D01*
X190471505Y-140729621D01*
X190646223Y-140555512D01*
X190790158Y-140355205D01*
X190899445Y-140134079D01*
X190971149Y-139898074D01*
X191003344Y-139653526D01*
X191005141Y-139580000D01*
X190984930Y-139334171D01*
X190984930Y-139334169D01*
X190924841Y-139094943D01*
X190826487Y-138868747D01*
X190826486Y-138868744D01*
X190692508Y-138661645D01*
X190526504Y-138479210D01*
X190332932Y-138326336D01*
X190116992Y-138207131D01*
X190060299Y-138187055D01*
X189884480Y-138124792D01*
X189641650Y-138081539D01*
X189518326Y-138080032D01*
X189395007Y-138078525D01*
X189395006Y-138078525D01*
X189395003Y-138078525D01*
X189151188Y-138115834D01*
X188916732Y-138192466D01*
X188697947Y-138306359D01*
X188500695Y-138454458D01*
X188330286Y-138632783D01*
X188191288Y-138836547D01*
X188087435Y-139060276D01*
X188021518Y-139297963D01*
X187995308Y-139543228D01*
X180152118Y-139543228D01*
X180134930Y-139334171D01*
X180134930Y-139334169D01*
X180074841Y-139094943D01*
X179976487Y-138868747D01*
X179976486Y-138868744D01*
X179842508Y-138661645D01*
X179676504Y-138479210D01*
X179482932Y-138326336D01*
X179266992Y-138207131D01*
X179210299Y-138187055D01*
X179034480Y-138124792D01*
X178791650Y-138081539D01*
X178668326Y-138080032D01*
X178545007Y-138078525D01*
X178545006Y-138078525D01*
X178545003Y-138078525D01*
X178301188Y-138115834D01*
X178066732Y-138192466D01*
X177847947Y-138306359D01*
X177650695Y-138454458D01*
X177480286Y-138632783D01*
X177341288Y-138836547D01*
X177237435Y-139060276D01*
X177171518Y-139297963D01*
X177145308Y-139543228D01*
X169302118Y-139543228D01*
X169284930Y-139334171D01*
X169284930Y-139334169D01*
X169224841Y-139094943D01*
X169126487Y-138868747D01*
X169126486Y-138868744D01*
X168992508Y-138661645D01*
X168826504Y-138479210D01*
X168632932Y-138326336D01*
X168416992Y-138207131D01*
X168360299Y-138187055D01*
X168184480Y-138124792D01*
X167941650Y-138081539D01*
X167818326Y-138080032D01*
X167695007Y-138078525D01*
X167695006Y-138078525D01*
X167695003Y-138078525D01*
X167451188Y-138115834D01*
X167216732Y-138192466D01*
X166997947Y-138306359D01*
X166800695Y-138454458D01*
X166630286Y-138632783D01*
X166491288Y-138836547D01*
X166387435Y-139060276D01*
X166321518Y-139297963D01*
X166295308Y-139543228D01*
X159150500Y-139543228D01*
X159150500Y-125093228D01*
X166295308Y-125093228D01*
X166309506Y-125339474D01*
X166363732Y-125580094D01*
X166363733Y-125580098D01*
X166363734Y-125580099D01*
X166456532Y-125808634D01*
X166585411Y-126018945D01*
X166746908Y-126205382D01*
X166936687Y-126362939D01*
X167149650Y-126487385D01*
X167149651Y-126487385D01*
X167149654Y-126487387D01*
X167380073Y-126575375D01*
X167380074Y-126575375D01*
X167380079Y-126575377D01*
X167621785Y-126624553D01*
X167868278Y-126633592D01*
X168112936Y-126602250D01*
X168349191Y-126531370D01*
X168570697Y-126422856D01*
X168771505Y-126279621D01*
X168946223Y-126105512D01*
X169090158Y-125905205D01*
X169199445Y-125684079D01*
X169271149Y-125448074D01*
X169303344Y-125203526D01*
X169305141Y-125130000D01*
X169284930Y-124884171D01*
X169284930Y-124884169D01*
X169224841Y-124644943D01*
X169126487Y-124418747D01*
X169126486Y-124418744D01*
X168992508Y-124211645D01*
X168826504Y-124029210D01*
X168632932Y-123876336D01*
X168416992Y-123757131D01*
X168360299Y-123737055D01*
X168184480Y-123674792D01*
X167941650Y-123631539D01*
X167818326Y-123630032D01*
X167695007Y-123628525D01*
X167695006Y-123628525D01*
X167695003Y-123628525D01*
X167451188Y-123665834D01*
X167216732Y-123742466D01*
X166997947Y-123856359D01*
X166800695Y-124004458D01*
X166630286Y-124182783D01*
X166491288Y-124386547D01*
X166387435Y-124610276D01*
X166321518Y-124847963D01*
X166295308Y-125093228D01*
X159150500Y-125093228D01*
X159150500Y-103240000D01*
X159644340Y-103240000D01*
X159664936Y-103475407D01*
X159706145Y-103629199D01*
X159726097Y-103703663D01*
X159825965Y-103917830D01*
X159961505Y-104111401D01*
X160128599Y-104278495D01*
X160296624Y-104396148D01*
X160340248Y-104450724D01*
X160349500Y-104497722D01*
X160349500Y-108714494D01*
X160347158Y-108735702D01*
X160349439Y-108808262D01*
X160349500Y-108812156D01*
X160349500Y-108840925D01*
X160349987Y-108844785D01*
X160349989Y-108844808D01*
X160350054Y-108845320D01*
X160350968Y-108856942D01*
X160352402Y-108902569D01*
X160358323Y-108922950D01*
X160362267Y-108941995D01*
X160364928Y-108963059D01*
X160381737Y-109005515D01*
X160385520Y-109016563D01*
X160398256Y-109060400D01*
X160409061Y-109078670D01*
X160417621Y-109096143D01*
X160425431Y-109115869D01*
X160452267Y-109152808D01*
X160458673Y-109162560D01*
X160481919Y-109201865D01*
X160481921Y-109201867D01*
X160496925Y-109216871D01*
X160509564Y-109231669D01*
X160522037Y-109248837D01*
X160557212Y-109277936D01*
X160565854Y-109285800D01*
X166274502Y-114994448D01*
X166307987Y-115055771D01*
X166307395Y-115111075D01*
X166248993Y-115354341D01*
X166229659Y-115600000D01*
X166248993Y-115845656D01*
X166306516Y-116085261D01*
X166353666Y-116199090D01*
X166400816Y-116312920D01*
X166529567Y-116523023D01*
X166689601Y-116710399D01*
X166876977Y-116870433D01*
X167087080Y-116999184D01*
X167095401Y-117004283D01*
X167093677Y-117007094D01*
X167134858Y-117040281D01*
X167156922Y-117106575D01*
X167139642Y-117174275D01*
X167088504Y-117221885D01*
X167033001Y-117235000D01*
X166790482Y-117235000D01*
X166783867Y-117235354D01*
X166727628Y-117241400D01*
X166592910Y-117291647D01*
X166477811Y-117377811D01*
X166391647Y-117492910D01*
X166341400Y-117627628D01*
X166335354Y-117683867D01*
X166335000Y-117690481D01*
X166335000Y-118400000D01*
X167243480Y-118400000D01*
X167215245Y-118460002D01*
X167186365Y-118611393D01*
X167196043Y-118765211D01*
X167239838Y-118900000D01*
X166335000Y-118900000D01*
X166335000Y-119609518D01*
X166335354Y-119616132D01*
X166341400Y-119672371D01*
X166391647Y-119807089D01*
X166477811Y-119922188D01*
X166592910Y-120008352D01*
X166727628Y-120058599D01*
X166783867Y-120064645D01*
X166790482Y-120065000D01*
X167153711Y-120065000D01*
X167220750Y-120084685D01*
X167266505Y-120137489D01*
X167276449Y-120206647D01*
X167247424Y-120270203D01*
X167201164Y-120303561D01*
X167087078Y-120350817D01*
X166876978Y-120479566D01*
X166689601Y-120639601D01*
X166529566Y-120826978D01*
X166400817Y-121037078D01*
X166306516Y-121264738D01*
X166248993Y-121504343D01*
X166229659Y-121749999D01*
X166248993Y-121995656D01*
X166306516Y-122235261D01*
X166353666Y-122349090D01*
X166400816Y-122462920D01*
X166529567Y-122673023D01*
X166689601Y-122860399D01*
X166876977Y-123020433D01*
X167087080Y-123149184D01*
X167314738Y-123243483D01*
X167554345Y-123301007D01*
X167800000Y-123320341D01*
X168045655Y-123301007D01*
X168285262Y-123243483D01*
X168512920Y-123149184D01*
X168723023Y-123020433D01*
X168910399Y-122860399D01*
X169070433Y-122673023D01*
X169199184Y-122462920D01*
X169293483Y-122235262D01*
X169351007Y-121995655D01*
X169370341Y-121750000D01*
X169351007Y-121504345D01*
X169293483Y-121264738D01*
X169199184Y-121037080D01*
X169070433Y-120826977D01*
X168910399Y-120639601D01*
X168723023Y-120479567D01*
X168512920Y-120350816D01*
X168398835Y-120303560D01*
X168344433Y-120259720D01*
X168322368Y-120193426D01*
X168339647Y-120125726D01*
X168390785Y-120078116D01*
X168446289Y-120065000D01*
X168809518Y-120065000D01*
X168816132Y-120064645D01*
X168872371Y-120058599D01*
X169007089Y-120008352D01*
X169122188Y-119922188D01*
X169208352Y-119807089D01*
X169258599Y-119672371D01*
X169264645Y-119616132D01*
X169265000Y-119609518D01*
X169265000Y-118900000D01*
X168356520Y-118900000D01*
X168384755Y-118839998D01*
X168413635Y-118688607D01*
X168403957Y-118534789D01*
X168360162Y-118400000D01*
X169265000Y-118400000D01*
X169265000Y-117690481D01*
X169264645Y-117683867D01*
X169258599Y-117627628D01*
X169208352Y-117492910D01*
X169122188Y-117377811D01*
X169007089Y-117291647D01*
X168872371Y-117241400D01*
X168816132Y-117235354D01*
X168809518Y-117235000D01*
X168566999Y-117235000D01*
X168499960Y-117215315D01*
X168454205Y-117162511D01*
X168444261Y-117093353D01*
X168473286Y-117029797D01*
X168505845Y-117006317D01*
X168504599Y-117004283D01*
X168512920Y-116999184D01*
X168723023Y-116870433D01*
X168910399Y-116710399D01*
X169070433Y-116523023D01*
X169199184Y-116312920D01*
X169293483Y-116085262D01*
X169351007Y-115845655D01*
X169370341Y-115600000D01*
X169351007Y-115354345D01*
X169293483Y-115114738D01*
X169199184Y-114887080D01*
X169070433Y-114676977D01*
X168910399Y-114489601D01*
X168723023Y-114329567D01*
X168512920Y-114200816D01*
X168347682Y-114132372D01*
X168285261Y-114106516D01*
X168045656Y-114048993D01*
X167800000Y-114029659D01*
X167554341Y-114048993D01*
X167311075Y-114107395D01*
X167241293Y-114103904D01*
X167194448Y-114074502D01*
X163763175Y-110643228D01*
X166295308Y-110643228D01*
X166309506Y-110889474D01*
X166363732Y-111130094D01*
X166363733Y-111130098D01*
X166363734Y-111130099D01*
X166456532Y-111358634D01*
X166585411Y-111568945D01*
X166746908Y-111755382D01*
X166936687Y-111912939D01*
X167149650Y-112037385D01*
X167149651Y-112037385D01*
X167149654Y-112037387D01*
X167380073Y-112125375D01*
X167380074Y-112125375D01*
X167380079Y-112125377D01*
X167621785Y-112174553D01*
X167868278Y-112183592D01*
X168112936Y-112152250D01*
X168349191Y-112081370D01*
X168570697Y-111972856D01*
X168771505Y-111829621D01*
X168946223Y-111655512D01*
X169090158Y-111455205D01*
X169199445Y-111234079D01*
X169271149Y-110998074D01*
X169303344Y-110753526D01*
X169305141Y-110680000D01*
X169284930Y-110434171D01*
X169284930Y-110434169D01*
X169224841Y-110194943D01*
X169126487Y-109968747D01*
X169126486Y-109968744D01*
X168992508Y-109761645D01*
X168826504Y-109579210D01*
X168632932Y-109426336D01*
X168416992Y-109307131D01*
X168356756Y-109285800D01*
X168184480Y-109224792D01*
X167941650Y-109181539D01*
X167818326Y-109180032D01*
X167695007Y-109178525D01*
X167695006Y-109178525D01*
X167695003Y-109178525D01*
X167451188Y-109215834D01*
X167216732Y-109292466D01*
X166997947Y-109406359D01*
X166800695Y-109554458D01*
X166630286Y-109732783D01*
X166491288Y-109936547D01*
X166387435Y-110160276D01*
X166321518Y-110397963D01*
X166295308Y-110643228D01*
X163763175Y-110643228D01*
X161686819Y-108566872D01*
X161653334Y-108505549D01*
X161650500Y-108479191D01*
X161650500Y-104497722D01*
X161670185Y-104430683D01*
X161703374Y-104396148D01*
X161871401Y-104278495D01*
X162038495Y-104111401D01*
X162174035Y-103917830D01*
X162273903Y-103703663D01*
X162335063Y-103475408D01*
X162355659Y-103240000D01*
X162335063Y-103004592D01*
X162273903Y-102776337D01*
X162174035Y-102562171D01*
X162038495Y-102368599D01*
X161871401Y-102201505D01*
X161685839Y-102071573D01*
X161642215Y-102016997D01*
X161635023Y-101947498D01*
X161666545Y-101885144D01*
X161685831Y-101868432D01*
X161871401Y-101738495D01*
X162038495Y-101571401D01*
X162174035Y-101377830D01*
X162273903Y-101163663D01*
X162273903Y-101163661D01*
X162278489Y-101153828D01*
X162281311Y-101155143D01*
X162303845Y-101116099D01*
X163733126Y-99686819D01*
X163794450Y-99653334D01*
X163820808Y-99650500D01*
X167129192Y-99650500D01*
X167196231Y-99670185D01*
X167216873Y-99686819D01*
X167543373Y-100013319D01*
X167576858Y-100074642D01*
X167571874Y-100144334D01*
X167530002Y-100200267D01*
X167464538Y-100224684D01*
X167455692Y-100225000D01*
X166950000Y-100225000D01*
X166950000Y-101189498D01*
X166842315Y-101140320D01*
X166735763Y-101125000D01*
X166664237Y-101125000D01*
X166557685Y-101140320D01*
X166450000Y-101189498D01*
X166450000Y-100225000D01*
X165755482Y-100225000D01*
X165748867Y-100225354D01*
X165692628Y-100231400D01*
X165557910Y-100281647D01*
X165442811Y-100367811D01*
X165356647Y-100482910D01*
X165306400Y-100617628D01*
X165300354Y-100673867D01*
X165300000Y-100680481D01*
X165300000Y-101375000D01*
X166266314Y-101375000D01*
X166240507Y-101415156D01*
X166200000Y-101553111D01*
X166200000Y-101696889D01*
X166240507Y-101834844D01*
X166266314Y-101875000D01*
X165300000Y-101875000D01*
X165300000Y-102569518D01*
X165300354Y-102576132D01*
X165306400Y-102632371D01*
X165356647Y-102767089D01*
X165442811Y-102882188D01*
X165557910Y-102968352D01*
X165692628Y-103018599D01*
X165748867Y-103024645D01*
X165755482Y-103025000D01*
X166219765Y-103025000D01*
X166286804Y-103044685D01*
X166332559Y-103097489D01*
X166343054Y-103162256D01*
X166335354Y-103233869D01*
X166335000Y-103240481D01*
X166335000Y-103950000D01*
X167243480Y-103950000D01*
X167215245Y-104010002D01*
X167186365Y-104161393D01*
X167196043Y-104315211D01*
X167239838Y-104450000D01*
X166335000Y-104450000D01*
X166335000Y-105159518D01*
X166335354Y-105166132D01*
X166341400Y-105222371D01*
X166391647Y-105357089D01*
X166477811Y-105472188D01*
X166592910Y-105558352D01*
X166727628Y-105608599D01*
X166783867Y-105614645D01*
X166790482Y-105615000D01*
X167153711Y-105615000D01*
X167220750Y-105634685D01*
X167266505Y-105687489D01*
X167276449Y-105756647D01*
X167247424Y-105820203D01*
X167201164Y-105853561D01*
X167087078Y-105900817D01*
X166876978Y-106029566D01*
X166689601Y-106189601D01*
X166529566Y-106376978D01*
X166400817Y-106587078D01*
X166306516Y-106814738D01*
X166248993Y-107054343D01*
X166229659Y-107300000D01*
X166248993Y-107545656D01*
X166306516Y-107785261D01*
X166353666Y-107899090D01*
X166400816Y-108012920D01*
X166529567Y-108223023D01*
X166689601Y-108410399D01*
X166876977Y-108570433D01*
X167087080Y-108699184D01*
X167314738Y-108793483D01*
X167554345Y-108851007D01*
X167800000Y-108870341D01*
X168045655Y-108851007D01*
X168285262Y-108793483D01*
X168512920Y-108699184D01*
X168723023Y-108570433D01*
X168910399Y-108410399D01*
X169070433Y-108223023D01*
X169199184Y-108012920D01*
X169293483Y-107785262D01*
X169351007Y-107545655D01*
X169370341Y-107300000D01*
X169351007Y-107054345D01*
X169293483Y-106814738D01*
X169199184Y-106587080D01*
X169070433Y-106376977D01*
X168910399Y-106189601D01*
X168723023Y-106029567D01*
X168512920Y-105900816D01*
X168398835Y-105853560D01*
X168344433Y-105809720D01*
X168322368Y-105743426D01*
X168339647Y-105675726D01*
X168390785Y-105628116D01*
X168446289Y-105615000D01*
X168809518Y-105615000D01*
X168816132Y-105614645D01*
X168872371Y-105608599D01*
X169007089Y-105558352D01*
X169122188Y-105472188D01*
X169208352Y-105357089D01*
X169258599Y-105222371D01*
X169264645Y-105166132D01*
X169265000Y-105159518D01*
X169265000Y-104450000D01*
X168356520Y-104450000D01*
X168384755Y-104389998D01*
X168413635Y-104238607D01*
X168403957Y-104084789D01*
X168360162Y-103950000D01*
X169265000Y-103950000D01*
X169265000Y-103240481D01*
X169264645Y-103233867D01*
X169256934Y-103162139D01*
X169259492Y-103161863D01*
X169256115Y-103114637D01*
X169289600Y-103053314D01*
X169350924Y-103019830D01*
X169356838Y-103018693D01*
X169544981Y-102987298D01*
X169764503Y-102911936D01*
X169968626Y-102801470D01*
X170151784Y-102658913D01*
X170308979Y-102488153D01*
X170346192Y-102431194D01*
X170399337Y-102385838D01*
X170468568Y-102376414D01*
X170531904Y-102405916D01*
X170553807Y-102431192D01*
X170591021Y-102488153D01*
X170725201Y-102633912D01*
X170748219Y-102658916D01*
X170931368Y-102801466D01*
X170931370Y-102801467D01*
X170931374Y-102801470D01*
X170984517Y-102830229D01*
X171034107Y-102879447D01*
X171049500Y-102939284D01*
X171049500Y-125829191D01*
X171029815Y-125896230D01*
X171013181Y-125916872D01*
X168405550Y-128524502D01*
X168344227Y-128557987D01*
X168288922Y-128557395D01*
X168045656Y-128498993D01*
X167800000Y-128479659D01*
X167554343Y-128498993D01*
X167314738Y-128556516D01*
X167087078Y-128650817D01*
X166876978Y-128779566D01*
X166689601Y-128939601D01*
X166529566Y-129126978D01*
X166400817Y-129337078D01*
X166306516Y-129564738D01*
X166248993Y-129804343D01*
X166229659Y-130050000D01*
X166248993Y-130295656D01*
X166306516Y-130535261D01*
X166343179Y-130623773D01*
X166400816Y-130762920D01*
X166529567Y-130973023D01*
X166689601Y-131160399D01*
X166876977Y-131320433D01*
X167087080Y-131449184D01*
X167095401Y-131454283D01*
X167093677Y-131457094D01*
X167134858Y-131490281D01*
X167156922Y-131556575D01*
X167139642Y-131624275D01*
X167088504Y-131671885D01*
X167033001Y-131685000D01*
X166790482Y-131685000D01*
X166783867Y-131685354D01*
X166727628Y-131691400D01*
X166592910Y-131741647D01*
X166477811Y-131827811D01*
X166391647Y-131942910D01*
X166341400Y-132077628D01*
X166335354Y-132133867D01*
X166335000Y-132140481D01*
X166335000Y-132850000D01*
X167243480Y-132850000D01*
X167215245Y-132910002D01*
X167186365Y-133061393D01*
X167196043Y-133215211D01*
X167239838Y-133350000D01*
X166335000Y-133350000D01*
X166335000Y-134059518D01*
X166335354Y-134066132D01*
X166341400Y-134122371D01*
X166391647Y-134257089D01*
X166477811Y-134372188D01*
X166592910Y-134458352D01*
X166727628Y-134508599D01*
X166783867Y-134514645D01*
X166790482Y-134515000D01*
X167153711Y-134515000D01*
X167220750Y-134534685D01*
X167266505Y-134587489D01*
X167276449Y-134656647D01*
X167247424Y-134720203D01*
X167201164Y-134753561D01*
X167087078Y-134800817D01*
X166876978Y-134929566D01*
X166689601Y-135089601D01*
X166529566Y-135276978D01*
X166400817Y-135487078D01*
X166306516Y-135714738D01*
X166248993Y-135954343D01*
X166229659Y-136199999D01*
X166248993Y-136445656D01*
X166306516Y-136685261D01*
X166320906Y-136720000D01*
X166400816Y-136912920D01*
X166529567Y-137123023D01*
X166689601Y-137310399D01*
X166876977Y-137470433D01*
X167087080Y-137599184D01*
X167314738Y-137693483D01*
X167554345Y-137751007D01*
X167800000Y-137770341D01*
X168045655Y-137751007D01*
X168285262Y-137693483D01*
X168512920Y-137599184D01*
X168723023Y-137470433D01*
X168910399Y-137310399D01*
X169070433Y-137123023D01*
X169199184Y-136912920D01*
X169293483Y-136685262D01*
X169351007Y-136445655D01*
X169370341Y-136200000D01*
X169351007Y-135954345D01*
X169293483Y-135714738D01*
X169199184Y-135487080D01*
X169070433Y-135276977D01*
X168910399Y-135089601D01*
X168723023Y-134929567D01*
X168512920Y-134800816D01*
X168398835Y-134753560D01*
X168344433Y-134709720D01*
X168322368Y-134643426D01*
X168339647Y-134575726D01*
X168390785Y-134528116D01*
X168446289Y-134515000D01*
X168809518Y-134515000D01*
X168816132Y-134514645D01*
X168872371Y-134508599D01*
X169007089Y-134458352D01*
X169122188Y-134372188D01*
X169208352Y-134257089D01*
X169258599Y-134122371D01*
X169264645Y-134066132D01*
X169265000Y-134059518D01*
X169265000Y-133350000D01*
X168356520Y-133350000D01*
X168384755Y-133289998D01*
X168413635Y-133138607D01*
X168403957Y-132984789D01*
X168360162Y-132850000D01*
X169265000Y-132850000D01*
X169265000Y-132140481D01*
X169264645Y-132133867D01*
X169258599Y-132077628D01*
X169208352Y-131942910D01*
X169122188Y-131827811D01*
X169007089Y-131741647D01*
X168872371Y-131691400D01*
X168816132Y-131685354D01*
X168809518Y-131685000D01*
X168566999Y-131685000D01*
X168499960Y-131665315D01*
X168454205Y-131612511D01*
X168444261Y-131543353D01*
X168473286Y-131479797D01*
X168505845Y-131456317D01*
X168504599Y-131454283D01*
X168512920Y-131449184D01*
X168723023Y-131320433D01*
X168910399Y-131160399D01*
X169070433Y-130973023D01*
X169199184Y-130762920D01*
X169293483Y-130535262D01*
X169351007Y-130295655D01*
X169370341Y-130050000D01*
X169351007Y-129804345D01*
X169318002Y-129666871D01*
X169292604Y-129561075D01*
X169296095Y-129491292D01*
X169325495Y-129444449D01*
X172099513Y-126670431D01*
X172116162Y-126657094D01*
X172117936Y-126655204D01*
X172117940Y-126655202D01*
X172165897Y-126604131D01*
X172168515Y-126601429D01*
X172188911Y-126581035D01*
X172191610Y-126577554D01*
X172199184Y-126568685D01*
X172230448Y-126535393D01*
X172240670Y-126516798D01*
X172251351Y-126500537D01*
X172264363Y-126483764D01*
X172282494Y-126441864D01*
X172287629Y-126431380D01*
X172309627Y-126391368D01*
X172314903Y-126370817D01*
X172321205Y-126352406D01*
X172329636Y-126332926D01*
X172336779Y-126287820D01*
X172339143Y-126276405D01*
X172350500Y-126232177D01*
X172350500Y-126210954D01*
X172352027Y-126191554D01*
X172355347Y-126170595D01*
X172351050Y-126125139D01*
X172350500Y-126113470D01*
X172350500Y-125093228D01*
X177145308Y-125093228D01*
X177159506Y-125339474D01*
X177213732Y-125580094D01*
X177213733Y-125580098D01*
X177213734Y-125580099D01*
X177306532Y-125808634D01*
X177435411Y-126018945D01*
X177596908Y-126205382D01*
X177786687Y-126362939D01*
X177999650Y-126487385D01*
X177999651Y-126487385D01*
X177999654Y-126487387D01*
X178230073Y-126575375D01*
X178230074Y-126575375D01*
X178230079Y-126575377D01*
X178471785Y-126624553D01*
X178718278Y-126633592D01*
X178962936Y-126602250D01*
X179199191Y-126531370D01*
X179420697Y-126422856D01*
X179621505Y-126279621D01*
X179796223Y-126105512D01*
X179940158Y-125905205D01*
X180049445Y-125684079D01*
X180121149Y-125448074D01*
X180153344Y-125203526D01*
X180155141Y-125130000D01*
X180134930Y-124884171D01*
X180134930Y-124884169D01*
X180074841Y-124644943D01*
X179976487Y-124418747D01*
X179976486Y-124418744D01*
X179842508Y-124211645D01*
X179676504Y-124029210D01*
X179482932Y-123876336D01*
X179266992Y-123757131D01*
X179210299Y-123737055D01*
X179034480Y-123674792D01*
X178791650Y-123631539D01*
X178668326Y-123630032D01*
X178545007Y-123628525D01*
X178545006Y-123628525D01*
X178545003Y-123628525D01*
X178301188Y-123665834D01*
X178066732Y-123742466D01*
X177847947Y-123856359D01*
X177650695Y-124004458D01*
X177480286Y-124182783D01*
X177341288Y-124386547D01*
X177237435Y-124610276D01*
X177171518Y-124847963D01*
X177145308Y-125093228D01*
X172350500Y-125093228D01*
X172350500Y-121749999D01*
X177079659Y-121749999D01*
X177098993Y-121995656D01*
X177156516Y-122235261D01*
X177203666Y-122349090D01*
X177250816Y-122462920D01*
X177379567Y-122673023D01*
X177539601Y-122860399D01*
X177726977Y-123020433D01*
X177937080Y-123149184D01*
X178164738Y-123243483D01*
X178404345Y-123301007D01*
X178650000Y-123320341D01*
X178895655Y-123301007D01*
X179135262Y-123243483D01*
X179362920Y-123149184D01*
X179573023Y-123020433D01*
X179760399Y-122860399D01*
X179920433Y-122673023D01*
X180049184Y-122462920D01*
X180143483Y-122235262D01*
X180201007Y-121995655D01*
X180220341Y-121750000D01*
X180201007Y-121504345D01*
X180143483Y-121264738D01*
X180049184Y-121037080D01*
X179920433Y-120826977D01*
X179760399Y-120639601D01*
X179573023Y-120479567D01*
X179362920Y-120350816D01*
X179248835Y-120303560D01*
X179194433Y-120259720D01*
X179172368Y-120193426D01*
X179189647Y-120125726D01*
X179240785Y-120078116D01*
X179296289Y-120065000D01*
X179659518Y-120065000D01*
X179666132Y-120064645D01*
X179722371Y-120058599D01*
X179857089Y-120008352D01*
X179972188Y-119922188D01*
X180058352Y-119807089D01*
X180108599Y-119672371D01*
X180114645Y-119616132D01*
X180115000Y-119609518D01*
X180115000Y-118900000D01*
X179206520Y-118900000D01*
X179234755Y-118839998D01*
X179263635Y-118688607D01*
X179253957Y-118534789D01*
X179210162Y-118400000D01*
X180115000Y-118400000D01*
X180115000Y-117690481D01*
X180114645Y-117683867D01*
X180108599Y-117627628D01*
X180058352Y-117492910D01*
X179972188Y-117377811D01*
X179857089Y-117291647D01*
X179722371Y-117241400D01*
X179666132Y-117235354D01*
X179659518Y-117235000D01*
X178900000Y-117235000D01*
X178900000Y-118091335D01*
X178876341Y-118078329D01*
X178727061Y-118040000D01*
X178611625Y-118040000D01*
X178497094Y-118054469D01*
X178400000Y-118092911D01*
X178400000Y-117235000D01*
X177640482Y-117235000D01*
X177633867Y-117235354D01*
X177577628Y-117241400D01*
X177442910Y-117291647D01*
X177327811Y-117377811D01*
X177241647Y-117492910D01*
X177191400Y-117627628D01*
X177185354Y-117683867D01*
X177185000Y-117690481D01*
X177185000Y-118400000D01*
X178093480Y-118400000D01*
X178065245Y-118460002D01*
X178036365Y-118611393D01*
X178046043Y-118765211D01*
X178089838Y-118900000D01*
X177185000Y-118900000D01*
X177185000Y-119609518D01*
X177185354Y-119616132D01*
X177191400Y-119672371D01*
X177241647Y-119807089D01*
X177327811Y-119922188D01*
X177442910Y-120008352D01*
X177577628Y-120058599D01*
X177633867Y-120064645D01*
X177640482Y-120065000D01*
X178003711Y-120065000D01*
X178070750Y-120084685D01*
X178116505Y-120137489D01*
X178126449Y-120206647D01*
X178097424Y-120270203D01*
X178051164Y-120303561D01*
X177937078Y-120350817D01*
X177726978Y-120479566D01*
X177539601Y-120639601D01*
X177379566Y-120826978D01*
X177250817Y-121037078D01*
X177156516Y-121264738D01*
X177098993Y-121504343D01*
X177079659Y-121749999D01*
X172350500Y-121749999D01*
X172350500Y-102939284D01*
X172370185Y-102872245D01*
X172415482Y-102830229D01*
X172468626Y-102801470D01*
X172651784Y-102658913D01*
X172808979Y-102488153D01*
X172935924Y-102293849D01*
X173029157Y-102081300D01*
X173086134Y-101856305D01*
X173105300Y-101625000D01*
X173086134Y-101393695D01*
X173029157Y-101168700D01*
X172935924Y-100956151D01*
X172808979Y-100761847D01*
X172651784Y-100591087D01*
X172468626Y-100448530D01*
X172264503Y-100338064D01*
X172264499Y-100338062D01*
X172264498Y-100338062D01*
X172044984Y-100262702D01*
X171857398Y-100231400D01*
X171816049Y-100224500D01*
X171583951Y-100224500D01*
X171542602Y-100231400D01*
X171355015Y-100262702D01*
X171135501Y-100338062D01*
X171135497Y-100338063D01*
X171135497Y-100338064D01*
X170999415Y-100411708D01*
X170931372Y-100448531D01*
X170748215Y-100591087D01*
X170665923Y-100680481D01*
X170591021Y-100761847D01*
X170591021Y-100761848D01*
X170553809Y-100818805D01*
X170500662Y-100864161D01*
X170431431Y-100873585D01*
X170368095Y-100844083D01*
X170346191Y-100818805D01*
X170308979Y-100761847D01*
X170151784Y-100591087D01*
X169968626Y-100448530D01*
X169764503Y-100338064D01*
X169758289Y-100335930D01*
X169714190Y-100320791D01*
X169675412Y-100299053D01*
X169642779Y-100272056D01*
X169634140Y-100264194D01*
X168392127Y-99022181D01*
X168358642Y-98960858D01*
X168363626Y-98891166D01*
X168405498Y-98835233D01*
X168470962Y-98810816D01*
X168479808Y-98810500D01*
X174404495Y-98810500D01*
X174425704Y-98812841D01*
X174428294Y-98812759D01*
X174428296Y-98812760D01*
X174498262Y-98810560D01*
X174502157Y-98810500D01*
X174527025Y-98810500D01*
X174530925Y-98810500D01*
X174535294Y-98809947D01*
X174546939Y-98809030D01*
X174592569Y-98807597D01*
X174612949Y-98801675D01*
X174631989Y-98797732D01*
X174653058Y-98795071D01*
X174695520Y-98778258D01*
X174706557Y-98774480D01*
X174750398Y-98761744D01*
X174768670Y-98750936D01*
X174786136Y-98742380D01*
X174805871Y-98734568D01*
X174842816Y-98707725D01*
X174852548Y-98701332D01*
X174891865Y-98678081D01*
X174906874Y-98663071D01*
X174921663Y-98650439D01*
X174938837Y-98637963D01*
X174967946Y-98602774D01*
X174975790Y-98594154D01*
X181433126Y-92136819D01*
X181494450Y-92103334D01*
X181520808Y-92100500D01*
X182138858Y-92100500D01*
X182205897Y-92120185D01*
X182251652Y-92172989D01*
X182261596Y-92242147D01*
X182232571Y-92305703D01*
X182218178Y-92319812D01*
X182005223Y-92497035D01*
X181823480Y-92699871D01*
X181673210Y-92927005D01*
X181557615Y-93173589D01*
X181479153Y-93434388D01*
X181479153Y-93434389D01*
X181439500Y-93703829D01*
X181439500Y-94428000D01*
X181439664Y-94430249D01*
X181439665Y-94430259D01*
X181454402Y-94631617D01*
X181513616Y-94897438D01*
X181572506Y-95051410D01*
X181610907Y-95151814D01*
X181744196Y-95389310D01*
X181827420Y-95497089D01*
X181910645Y-95604869D01*
X182106704Y-95793894D01*
X182328199Y-95952359D01*
X182457906Y-96019046D01*
X182570403Y-96076885D01*
X182828159Y-96164819D01*
X182828161Y-96164819D01*
X182828163Y-96164820D01*
X183095970Y-96214286D01*
X183368130Y-96224232D01*
X183368130Y-96224231D01*
X183368131Y-96224232D01*
X183638839Y-96194446D01*
X183902326Y-96125562D01*
X184152975Y-96019047D01*
X184385444Y-95877173D01*
X184594779Y-95702963D01*
X184776518Y-95500131D01*
X184926788Y-95272998D01*
X185042386Y-95026406D01*
X185120847Y-94765611D01*
X185160500Y-94496171D01*
X185160500Y-94428000D01*
X191039500Y-94428000D01*
X191039664Y-94430249D01*
X191039665Y-94430259D01*
X191054402Y-94631617D01*
X191113616Y-94897438D01*
X191172506Y-95051410D01*
X191210907Y-95151814D01*
X191344196Y-95389310D01*
X191427420Y-95497089D01*
X191510645Y-95604869D01*
X191706704Y-95793894D01*
X191928199Y-95952359D01*
X192057906Y-96019046D01*
X192170403Y-96076885D01*
X192428159Y-96164819D01*
X192428161Y-96164819D01*
X192428163Y-96164820D01*
X192695970Y-96214286D01*
X192968130Y-96224232D01*
X192968130Y-96224231D01*
X192968131Y-96224232D01*
X193238839Y-96194446D01*
X193502326Y-96125562D01*
X193752975Y-96019047D01*
X193985444Y-95877173D01*
X194194779Y-95702963D01*
X194376518Y-95500131D01*
X194526788Y-95272998D01*
X194642386Y-95026406D01*
X194720847Y-94765611D01*
X194760500Y-94496171D01*
X194760500Y-93772000D01*
X194745597Y-93568384D01*
X194740090Y-93543663D01*
X194686383Y-93302561D01*
X194637057Y-93173594D01*
X194589093Y-93048186D01*
X194455804Y-92810690D01*
X194348024Y-92671110D01*
X194289354Y-92595130D01*
X194093295Y-92406105D01*
X193871800Y-92247640D01*
X193629602Y-92123117D01*
X193629598Y-92123115D01*
X193629597Y-92123115D01*
X193486913Y-92074438D01*
X193371836Y-92035179D01*
X193104029Y-91985713D01*
X192831869Y-91975767D01*
X192561162Y-92005553D01*
X192297674Y-92074438D01*
X192047024Y-92180953D01*
X191814556Y-92322826D01*
X191605223Y-92497035D01*
X191423480Y-92699871D01*
X191273210Y-92927005D01*
X191157615Y-93173589D01*
X191079153Y-93434388D01*
X191079153Y-93434389D01*
X191039500Y-93703829D01*
X191039500Y-94428000D01*
X185160500Y-94428000D01*
X185160500Y-93772000D01*
X185145597Y-93568384D01*
X185140090Y-93543663D01*
X185086383Y-93302561D01*
X185037057Y-93173594D01*
X184989093Y-93048186D01*
X184855804Y-92810690D01*
X184748024Y-92671110D01*
X184689354Y-92595130D01*
X184493295Y-92406105D01*
X184380416Y-92325348D01*
X184337347Y-92270331D01*
X184330859Y-92200764D01*
X184363012Y-92138732D01*
X184423599Y-92103931D01*
X184452566Y-92100500D01*
X185314495Y-92100500D01*
X185335704Y-92102841D01*
X185338294Y-92102759D01*
X185338296Y-92102760D01*
X185408262Y-92100560D01*
X185412157Y-92100500D01*
X185437025Y-92100500D01*
X185440925Y-92100500D01*
X185445294Y-92099947D01*
X185456939Y-92099030D01*
X185502569Y-92097597D01*
X185522949Y-92091675D01*
X185541989Y-92087732D01*
X185563058Y-92085071D01*
X185605520Y-92068258D01*
X185616557Y-92064480D01*
X185660398Y-92051744D01*
X185678670Y-92040936D01*
X185696136Y-92032380D01*
X185715871Y-92024568D01*
X185752816Y-91997725D01*
X185762548Y-91991332D01*
X185801865Y-91968081D01*
X185816874Y-91953071D01*
X185831663Y-91940439D01*
X185848837Y-91927963D01*
X185877946Y-91892774D01*
X185885790Y-91884154D01*
X188499513Y-89270431D01*
X188516162Y-89257094D01*
X188517936Y-89255204D01*
X188517940Y-89255202D01*
X188565897Y-89204131D01*
X188568515Y-89201429D01*
X188588912Y-89181034D01*
X188591612Y-89177551D01*
X188599197Y-89168671D01*
X188626317Y-89139792D01*
X188657690Y-89115622D01*
X188664497Y-89111937D01*
X188664503Y-89111936D01*
X188868626Y-89001470D01*
X189051784Y-88858913D01*
X189208979Y-88688153D01*
X189246192Y-88631194D01*
X189299337Y-88585838D01*
X189368568Y-88576414D01*
X189431904Y-88605916D01*
X189453807Y-88631192D01*
X189491021Y-88688153D01*
X189648216Y-88858913D01*
X189831374Y-89001470D01*
X190035497Y-89111936D01*
X190103825Y-89135393D01*
X190255015Y-89187297D01*
X190255017Y-89187297D01*
X190255019Y-89187298D01*
X190483951Y-89225500D01*
X190483952Y-89225500D01*
X190716048Y-89225500D01*
X190716049Y-89225500D01*
X190944981Y-89187298D01*
X191164503Y-89111936D01*
X191368626Y-89001470D01*
X191551784Y-88858913D01*
X191708979Y-88688153D01*
X191835924Y-88493849D01*
X191929157Y-88281300D01*
X191986134Y-88056305D01*
X192005300Y-87825000D01*
X191986134Y-87593695D01*
X191929157Y-87368700D01*
X191835924Y-87156151D01*
X191708979Y-86961847D01*
X191551784Y-86791087D01*
X191368626Y-86648530D01*
X191164503Y-86538064D01*
X191164499Y-86538062D01*
X191164498Y-86538062D01*
X190944984Y-86462702D01*
X190757398Y-86431400D01*
X190716049Y-86424500D01*
X190483951Y-86424500D01*
X190442602Y-86431400D01*
X190255015Y-86462702D01*
X190035501Y-86538062D01*
X190035497Y-86538063D01*
X190035497Y-86538064D01*
X189899415Y-86611707D01*
X189831372Y-86648531D01*
X189648215Y-86791087D01*
X189565923Y-86880481D01*
X189491021Y-86961847D01*
X189491021Y-86961848D01*
X189453809Y-87018805D01*
X189400662Y-87064161D01*
X189331431Y-87073585D01*
X189268095Y-87044083D01*
X189246191Y-87018805D01*
X189236367Y-87003768D01*
X189208979Y-86961847D01*
X189051784Y-86791087D01*
X188868626Y-86648530D01*
X188664503Y-86538064D01*
X188664499Y-86538062D01*
X188664498Y-86538062D01*
X188444984Y-86462702D01*
X188257398Y-86431400D01*
X188216049Y-86424500D01*
X187983951Y-86424500D01*
X187942602Y-86431400D01*
X187755015Y-86462702D01*
X187535501Y-86538062D01*
X187535497Y-86538063D01*
X187535497Y-86538064D01*
X187399414Y-86611707D01*
X187331372Y-86648531D01*
X187154023Y-86786567D01*
X187089029Y-86812209D01*
X187020489Y-86798642D01*
X186970164Y-86750174D01*
X186961679Y-86732046D01*
X186943352Y-86682911D01*
X186857188Y-86567811D01*
X186742089Y-86481647D01*
X186607371Y-86431400D01*
X186551132Y-86425354D01*
X186544518Y-86425000D01*
X185850000Y-86425000D01*
X185850000Y-87389498D01*
X185742315Y-87340320D01*
X185635763Y-87325000D01*
X185564237Y-87325000D01*
X185457685Y-87340320D01*
X185350000Y-87389498D01*
X185350000Y-86425000D01*
X184655482Y-86425000D01*
X184648867Y-86425354D01*
X184592628Y-86431400D01*
X184457910Y-86481647D01*
X184342811Y-86567811D01*
X184256647Y-86682910D01*
X184206400Y-86817628D01*
X184200354Y-86873867D01*
X184200000Y-86880481D01*
X184200000Y-87575000D01*
X185166314Y-87575000D01*
X185140507Y-87615156D01*
X185100000Y-87753111D01*
X185100000Y-87896889D01*
X185140507Y-88034844D01*
X185166314Y-88075000D01*
X184200000Y-88075000D01*
X184200000Y-88769518D01*
X184200354Y-88776132D01*
X184206400Y-88832371D01*
X184256647Y-88967089D01*
X184342811Y-89082188D01*
X184457910Y-89168352D01*
X184592628Y-89218599D01*
X184648867Y-89224645D01*
X184655482Y-89225000D01*
X185350000Y-89225000D01*
X185350000Y-88260501D01*
X185457685Y-88309680D01*
X185564237Y-88325000D01*
X185635763Y-88325000D01*
X185742315Y-88309680D01*
X185850000Y-88260501D01*
X185850000Y-89225000D01*
X186405691Y-89225000D01*
X186472730Y-89244685D01*
X186518485Y-89297489D01*
X186528429Y-89366647D01*
X186499404Y-89430203D01*
X186493372Y-89436681D01*
X185166873Y-90763181D01*
X185105550Y-90796666D01*
X185079192Y-90799500D01*
X181285505Y-90799500D01*
X181264295Y-90797158D01*
X181191738Y-90799439D01*
X181187843Y-90799500D01*
X181159075Y-90799500D01*
X181155213Y-90799987D01*
X181155192Y-90799989D01*
X181154681Y-90800054D01*
X181143059Y-90800968D01*
X181097428Y-90802402D01*
X181077052Y-90808322D01*
X181058006Y-90812267D01*
X181036939Y-90814928D01*
X180994487Y-90831736D01*
X180983439Y-90835519D01*
X180939600Y-90848256D01*
X180921330Y-90859061D01*
X180903862Y-90867618D01*
X180892463Y-90872132D01*
X180884126Y-90875433D01*
X180847191Y-90902266D01*
X180837435Y-90908675D01*
X180798135Y-90931918D01*
X180783125Y-90946928D01*
X180768336Y-90959558D01*
X180751164Y-90972034D01*
X180722057Y-91007218D01*
X180714196Y-91015856D01*
X174256873Y-97473181D01*
X174195550Y-97506666D01*
X174169192Y-97509500D01*
X162257721Y-97509500D01*
X162190682Y-97489815D01*
X162156146Y-97456623D01*
X162057417Y-97315623D01*
X162035090Y-97249417D01*
X162052100Y-97181650D01*
X162103048Y-97133837D01*
X162158992Y-97120500D01*
X165944495Y-97120500D01*
X165965704Y-97122841D01*
X165968294Y-97122759D01*
X165968296Y-97122760D01*
X166038262Y-97120560D01*
X166042157Y-97120500D01*
X166067025Y-97120500D01*
X166070925Y-97120500D01*
X166075294Y-97119947D01*
X166086939Y-97119030D01*
X166132569Y-97117597D01*
X166152949Y-97111675D01*
X166171989Y-97107732D01*
X166193058Y-97105071D01*
X166235520Y-97088258D01*
X166246557Y-97084480D01*
X166290398Y-97071744D01*
X166308670Y-97060936D01*
X166326136Y-97052380D01*
X166345871Y-97044568D01*
X166382816Y-97017725D01*
X166392548Y-97011332D01*
X166431865Y-96988081D01*
X166446874Y-96973071D01*
X166461663Y-96960439D01*
X166478837Y-96947963D01*
X166507946Y-96912774D01*
X166515790Y-96904154D01*
X168966944Y-94453000D01*
X172139500Y-94453000D01*
X172139664Y-94455249D01*
X172139665Y-94455259D01*
X172154402Y-94656617D01*
X172213616Y-94922438D01*
X172262943Y-95051407D01*
X172310907Y-95176814D01*
X172444196Y-95414310D01*
X172510463Y-95500128D01*
X172610645Y-95629869D01*
X172806704Y-95818894D01*
X173028199Y-95977359D01*
X173157906Y-96044046D01*
X173270403Y-96101885D01*
X173528159Y-96189819D01*
X173528161Y-96189819D01*
X173528163Y-96189820D01*
X173795970Y-96239286D01*
X174068130Y-96249232D01*
X174068130Y-96249231D01*
X174068131Y-96249232D01*
X174338839Y-96219446D01*
X174602326Y-96150562D01*
X174852975Y-96044047D01*
X175085444Y-95902173D01*
X175294779Y-95727963D01*
X175476518Y-95525131D01*
X175626788Y-95297998D01*
X175742386Y-95051406D01*
X175820847Y-94790611D01*
X175860500Y-94521171D01*
X175860500Y-93797000D01*
X175845597Y-93593384D01*
X175834521Y-93543663D01*
X175786383Y-93327561D01*
X175781735Y-93315408D01*
X175689093Y-93073186D01*
X175555804Y-92835690D01*
X175414145Y-92652236D01*
X175389354Y-92620130D01*
X175193295Y-92431105D01*
X174971800Y-92272640D01*
X174729602Y-92148117D01*
X174729598Y-92148115D01*
X174729597Y-92148115D01*
X174590026Y-92100500D01*
X174471836Y-92060179D01*
X174204029Y-92010713D01*
X173931869Y-92000767D01*
X173661162Y-92030553D01*
X173397674Y-92099438D01*
X173147024Y-92205953D01*
X172914556Y-92347826D01*
X172705223Y-92522035D01*
X172705221Y-92522037D01*
X172617329Y-92620130D01*
X172523480Y-92724871D01*
X172373210Y-92952005D01*
X172257615Y-93198589D01*
X172186674Y-93434389D01*
X172179153Y-93459389D01*
X172139500Y-93728829D01*
X172139500Y-94453000D01*
X168966944Y-94453000D01*
X172099513Y-91320431D01*
X172116162Y-91307094D01*
X172117936Y-91305204D01*
X172117940Y-91305202D01*
X172165897Y-91254131D01*
X172168515Y-91251429D01*
X172188911Y-91231035D01*
X172191610Y-91227554D01*
X172199184Y-91218685D01*
X172230448Y-91185393D01*
X172240675Y-91166787D01*
X172251348Y-91150539D01*
X172264362Y-91133764D01*
X172282499Y-91091849D01*
X172287617Y-91081401D01*
X172309627Y-91041368D01*
X172314905Y-91020807D01*
X172321207Y-91002403D01*
X172329636Y-90982926D01*
X172336778Y-90937824D01*
X172339144Y-90926401D01*
X172350500Y-90882177D01*
X172350500Y-90860954D01*
X172352027Y-90841554D01*
X172352983Y-90835519D01*
X172355347Y-90820595D01*
X172351050Y-90775139D01*
X172350500Y-90763470D01*
X172350500Y-89139284D01*
X172370185Y-89072245D01*
X172415482Y-89030229D01*
X172468626Y-89001470D01*
X172651784Y-88858913D01*
X172808979Y-88688153D01*
X172935924Y-88493849D01*
X173029157Y-88281300D01*
X173086134Y-88056305D01*
X173105300Y-87825000D01*
X173086134Y-87593695D01*
X173029157Y-87368700D01*
X172935924Y-87156151D01*
X172808979Y-86961847D01*
X172651784Y-86791087D01*
X172468626Y-86648530D01*
X172264503Y-86538064D01*
X172264499Y-86538062D01*
X172264498Y-86538062D01*
X172044984Y-86462702D01*
X171857398Y-86431400D01*
X171816049Y-86424500D01*
X171583951Y-86424500D01*
X171542602Y-86431400D01*
X171355015Y-86462702D01*
X171135501Y-86538062D01*
X171135497Y-86538063D01*
X171135497Y-86538064D01*
X170999415Y-86611708D01*
X170931372Y-86648531D01*
X170748215Y-86791087D01*
X170665923Y-86880481D01*
X170591021Y-86961847D01*
X170591021Y-86961848D01*
X170553809Y-87018805D01*
X170500662Y-87064161D01*
X170431431Y-87073585D01*
X170368095Y-87044083D01*
X170346191Y-87018805D01*
X170336367Y-87003768D01*
X170308979Y-86961847D01*
X170151784Y-86791087D01*
X169968626Y-86648530D01*
X169764503Y-86538064D01*
X169764499Y-86538062D01*
X169764498Y-86538062D01*
X169544984Y-86462702D01*
X169357398Y-86431400D01*
X169316049Y-86424500D01*
X169083951Y-86424500D01*
X169042602Y-86431400D01*
X168855015Y-86462702D01*
X168635501Y-86538062D01*
X168635497Y-86538063D01*
X168635497Y-86538064D01*
X168499415Y-86611707D01*
X168431372Y-86648531D01*
X168254023Y-86786567D01*
X168189029Y-86812209D01*
X168120489Y-86798642D01*
X168070164Y-86750174D01*
X168061679Y-86732046D01*
X168043352Y-86682911D01*
X167957188Y-86567811D01*
X167842089Y-86481647D01*
X167707371Y-86431400D01*
X167651132Y-86425354D01*
X167644518Y-86425000D01*
X166950000Y-86425000D01*
X166950000Y-87389498D01*
X166842315Y-87340320D01*
X166735763Y-87325000D01*
X166664237Y-87325000D01*
X166557685Y-87340320D01*
X166450000Y-87389498D01*
X166450000Y-86425000D01*
X165755482Y-86425000D01*
X165748867Y-86425354D01*
X165692628Y-86431400D01*
X165557910Y-86481647D01*
X165442811Y-86567811D01*
X165356647Y-86682910D01*
X165306400Y-86817628D01*
X165300354Y-86873867D01*
X165300000Y-86880481D01*
X165300000Y-87575000D01*
X166266314Y-87575000D01*
X166240507Y-87615156D01*
X166200000Y-87753111D01*
X166200000Y-87896889D01*
X166240507Y-88034844D01*
X166266314Y-88075000D01*
X165300000Y-88075000D01*
X165300000Y-88769518D01*
X165300354Y-88776132D01*
X165306400Y-88832371D01*
X165356647Y-88967089D01*
X165442811Y-89082188D01*
X165557910Y-89168352D01*
X165692628Y-89218599D01*
X165748867Y-89224645D01*
X165755482Y-89225000D01*
X166580691Y-89225000D01*
X166647730Y-89244685D01*
X166693485Y-89297489D01*
X166703429Y-89366647D01*
X166674404Y-89430203D01*
X166668372Y-89436681D01*
X165891873Y-90213181D01*
X165830550Y-90246666D01*
X165804192Y-90249500D01*
X163319807Y-90249500D01*
X163252768Y-90229815D01*
X163207013Y-90177011D01*
X163197069Y-90107853D01*
X163226094Y-90044297D01*
X163232126Y-90037819D01*
X163407775Y-89862170D01*
X163699513Y-89570431D01*
X163716162Y-89557094D01*
X163717936Y-89555204D01*
X163717940Y-89555202D01*
X163765897Y-89504131D01*
X163768515Y-89501429D01*
X163788911Y-89481035D01*
X163791610Y-89477554D01*
X163799184Y-89468685D01*
X163830448Y-89435393D01*
X163840675Y-89416787D01*
X163851348Y-89400539D01*
X163864362Y-89383764D01*
X163882495Y-89341857D01*
X163887625Y-89331387D01*
X163909627Y-89291368D01*
X163914903Y-89270813D01*
X163921206Y-89252402D01*
X163929635Y-89232927D01*
X163936777Y-89187825D01*
X163939140Y-89176418D01*
X163950500Y-89132177D01*
X163950500Y-89110948D01*
X163952027Y-89091548D01*
X163955346Y-89070595D01*
X163951050Y-89025147D01*
X163950500Y-89013478D01*
X163950500Y-87070807D01*
X163970185Y-87003768D01*
X163986814Y-86983131D01*
X170316945Y-80653000D01*
X172139500Y-80653000D01*
X172139664Y-80655249D01*
X172139665Y-80655259D01*
X172154402Y-80856617D01*
X172213616Y-81122438D01*
X172262944Y-81251410D01*
X172310907Y-81376814D01*
X172444196Y-81614310D01*
X172527420Y-81722088D01*
X172610645Y-81829869D01*
X172806704Y-82018894D01*
X173028199Y-82177359D01*
X173157906Y-82244046D01*
X173270403Y-82301885D01*
X173528159Y-82389819D01*
X173528161Y-82389819D01*
X173528163Y-82389820D01*
X173795970Y-82439286D01*
X174068130Y-82449232D01*
X174068130Y-82449231D01*
X174068131Y-82449232D01*
X174338839Y-82419446D01*
X174602326Y-82350562D01*
X174852975Y-82244047D01*
X175085444Y-82102173D01*
X175294779Y-81927963D01*
X175476518Y-81725131D01*
X175626788Y-81497998D01*
X175742386Y-81251406D01*
X175820847Y-80990611D01*
X175860500Y-80721171D01*
X175860500Y-80653000D01*
X181439500Y-80653000D01*
X181439664Y-80655249D01*
X181439665Y-80655259D01*
X181454402Y-80856617D01*
X181513616Y-81122438D01*
X181562944Y-81251410D01*
X181610907Y-81376814D01*
X181744196Y-81614310D01*
X181827420Y-81722088D01*
X181910645Y-81829869D01*
X182106704Y-82018894D01*
X182328199Y-82177359D01*
X182457906Y-82244046D01*
X182570403Y-82301885D01*
X182828159Y-82389819D01*
X182828161Y-82389819D01*
X182828163Y-82389820D01*
X183095970Y-82439286D01*
X183368130Y-82449232D01*
X183368130Y-82449231D01*
X183368131Y-82449232D01*
X183638839Y-82419446D01*
X183902326Y-82350562D01*
X184152975Y-82244047D01*
X184385444Y-82102173D01*
X184594779Y-81927963D01*
X184776518Y-81725131D01*
X184926788Y-81497998D01*
X185042386Y-81251406D01*
X185120847Y-80990611D01*
X185160500Y-80721171D01*
X185160500Y-80653000D01*
X191039500Y-80653000D01*
X191039664Y-80655249D01*
X191039665Y-80655259D01*
X191054402Y-80856617D01*
X191113616Y-81122438D01*
X191162944Y-81251410D01*
X191210907Y-81376814D01*
X191344196Y-81614310D01*
X191427420Y-81722088D01*
X191510645Y-81829869D01*
X191706704Y-82018894D01*
X191928199Y-82177359D01*
X192057906Y-82244046D01*
X192170403Y-82301885D01*
X192428159Y-82389819D01*
X192428161Y-82389819D01*
X192428163Y-82389820D01*
X192695970Y-82439286D01*
X192968130Y-82449232D01*
X192968130Y-82449231D01*
X192968131Y-82449232D01*
X193238839Y-82419446D01*
X193502326Y-82350562D01*
X193752975Y-82244047D01*
X193985444Y-82102173D01*
X194194779Y-81927963D01*
X194376518Y-81725131D01*
X194526788Y-81497998D01*
X194642386Y-81251406D01*
X194720847Y-80990611D01*
X194760500Y-80721171D01*
X194760500Y-79997000D01*
X194745597Y-79793384D01*
X194715748Y-79659389D01*
X194686383Y-79527561D01*
X194637057Y-79398594D01*
X194589093Y-79273186D01*
X194455804Y-79035690D01*
X194348023Y-78896110D01*
X194289354Y-78820130D01*
X194093295Y-78631105D01*
X193871800Y-78472640D01*
X193629602Y-78348117D01*
X193629598Y-78348115D01*
X193629597Y-78348115D01*
X193486913Y-78299438D01*
X193371836Y-78260179D01*
X193104029Y-78210713D01*
X192831869Y-78200767D01*
X192561162Y-78230553D01*
X192297674Y-78299438D01*
X192047024Y-78405953D01*
X191814556Y-78547826D01*
X191605223Y-78722035D01*
X191423480Y-78924871D01*
X191273210Y-79152005D01*
X191157615Y-79398589D01*
X191079153Y-79659388D01*
X191079153Y-79659389D01*
X191039500Y-79928829D01*
X191039500Y-80653000D01*
X185160500Y-80653000D01*
X185160500Y-79997000D01*
X185145597Y-79793384D01*
X185115748Y-79659389D01*
X185086383Y-79527561D01*
X185037057Y-79398594D01*
X184989093Y-79273186D01*
X184855804Y-79035690D01*
X184748024Y-78896110D01*
X184689354Y-78820130D01*
X184493295Y-78631105D01*
X184271800Y-78472640D01*
X184029602Y-78348117D01*
X184029598Y-78348115D01*
X184029597Y-78348115D01*
X183886913Y-78299438D01*
X183771836Y-78260179D01*
X183504029Y-78210713D01*
X183231869Y-78200767D01*
X182961162Y-78230553D01*
X182697674Y-78299438D01*
X182447024Y-78405953D01*
X182214556Y-78547826D01*
X182005223Y-78722035D01*
X181823480Y-78924871D01*
X181673210Y-79152005D01*
X181557615Y-79398589D01*
X181479153Y-79659388D01*
X181479153Y-79659389D01*
X181439500Y-79928829D01*
X181439500Y-80653000D01*
X175860500Y-80653000D01*
X175860500Y-79997000D01*
X175845597Y-79793384D01*
X175815748Y-79659389D01*
X175786383Y-79527561D01*
X175737057Y-79398594D01*
X175689093Y-79273186D01*
X175555804Y-79035690D01*
X175448023Y-78896110D01*
X175389354Y-78820130D01*
X175193295Y-78631105D01*
X174971800Y-78472640D01*
X174729602Y-78348117D01*
X174729598Y-78348115D01*
X174729597Y-78348115D01*
X174586913Y-78299438D01*
X174471836Y-78260179D01*
X174204029Y-78210713D01*
X173931869Y-78200767D01*
X173661162Y-78230553D01*
X173397674Y-78299438D01*
X173147024Y-78405953D01*
X172914556Y-78547826D01*
X172705223Y-78722035D01*
X172523480Y-78924871D01*
X172373210Y-79152005D01*
X172257615Y-79398589D01*
X172179153Y-79659388D01*
X172179153Y-79659389D01*
X172139500Y-79928829D01*
X172139500Y-80653000D01*
X170316945Y-80653000D01*
X181549513Y-69420431D01*
X181566162Y-69407094D01*
X181567936Y-69405204D01*
X181567940Y-69405202D01*
X181615897Y-69354131D01*
X181618515Y-69351429D01*
X181638911Y-69331035D01*
X181641610Y-69327554D01*
X181649184Y-69318685D01*
X181680448Y-69285393D01*
X181690675Y-69266787D01*
X181701348Y-69250539D01*
X181714362Y-69233764D01*
X181732491Y-69191868D01*
X181737631Y-69181377D01*
X181759627Y-69141368D01*
X181764906Y-69120805D01*
X181771204Y-69102406D01*
X181779635Y-69082926D01*
X181786777Y-69037824D01*
X181789145Y-69026397D01*
X181800500Y-68982177D01*
X181800500Y-68960954D01*
X181802027Y-68941554D01*
X181805347Y-68920593D01*
X181801050Y-68875141D01*
X181800500Y-68863491D01*
X181800500Y-67689283D01*
X181820185Y-67622244D01*
X181865482Y-67580229D01*
X181918626Y-67551470D01*
X182101784Y-67408913D01*
X182258979Y-67238153D01*
X182385924Y-67043849D01*
X182479157Y-66831300D01*
X182536134Y-66606305D01*
X182555300Y-66375000D01*
X182536134Y-66143695D01*
X182479157Y-65918700D01*
X182385924Y-65706151D01*
X182258979Y-65511847D01*
X182101784Y-65341087D01*
X181918626Y-65198530D01*
X181714503Y-65088064D01*
X181714499Y-65088062D01*
X181714498Y-65088062D01*
X181494984Y-65012702D01*
X181307398Y-64981400D01*
X181266049Y-64974500D01*
X181033951Y-64974500D01*
X180992602Y-64981400D01*
X180805015Y-65012702D01*
X180585501Y-65088062D01*
X180585497Y-65088063D01*
X180585497Y-65088064D01*
X180449414Y-65161707D01*
X180381372Y-65198531D01*
X180198215Y-65341087D01*
X180115923Y-65430481D01*
X180041021Y-65511847D01*
X180041021Y-65511848D01*
X180003809Y-65568805D01*
X179950662Y-65614161D01*
X179881431Y-65623585D01*
X179818095Y-65594083D01*
X179796191Y-65568805D01*
X179758979Y-65511847D01*
X179601784Y-65341087D01*
X179418626Y-65198530D01*
X179214503Y-65088064D01*
X179214499Y-65088062D01*
X179214498Y-65088062D01*
X178994984Y-65012702D01*
X178807398Y-64981400D01*
X178766049Y-64974500D01*
X178533951Y-64974500D01*
X178492602Y-64981400D01*
X178305015Y-65012702D01*
X178085501Y-65088062D01*
X178085497Y-65088063D01*
X178085497Y-65088064D01*
X177949414Y-65161708D01*
X177881372Y-65198531D01*
X177704023Y-65336567D01*
X177639029Y-65362209D01*
X177570489Y-65348642D01*
X177520164Y-65300174D01*
X177511679Y-65282046D01*
X177493352Y-65232911D01*
X177407188Y-65117811D01*
X177292089Y-65031647D01*
X177157371Y-64981400D01*
X177101132Y-64975354D01*
X177094518Y-64975000D01*
X176400000Y-64975000D01*
X176400000Y-65939498D01*
X176292315Y-65890320D01*
X176185763Y-65875000D01*
X176114237Y-65875000D01*
X176007685Y-65890320D01*
X175900000Y-65939498D01*
X175900000Y-64975000D01*
X175205482Y-64975000D01*
X175198867Y-64975354D01*
X175142628Y-64981400D01*
X175007910Y-65031647D01*
X174892811Y-65117811D01*
X174806647Y-65232910D01*
X174756400Y-65367628D01*
X174750354Y-65423867D01*
X174750000Y-65430481D01*
X174750000Y-66125000D01*
X175716314Y-66125000D01*
X175690507Y-66165156D01*
X175650000Y-66303111D01*
X175650000Y-66446889D01*
X175690507Y-66584844D01*
X175716314Y-66625000D01*
X174750000Y-66625000D01*
X174750000Y-67319518D01*
X174750354Y-67326132D01*
X174756400Y-67382371D01*
X174806647Y-67517089D01*
X174892811Y-67632188D01*
X175007910Y-67718352D01*
X175142628Y-67768599D01*
X175198867Y-67774645D01*
X175205482Y-67775000D01*
X175900000Y-67775000D01*
X175900000Y-66810501D01*
X176007685Y-66859680D01*
X176114237Y-66875000D01*
X176185763Y-66875000D01*
X176292315Y-66859680D01*
X176400000Y-66810501D01*
X176400000Y-67775000D01*
X177094518Y-67775000D01*
X177101132Y-67774645D01*
X177157371Y-67768599D01*
X177292089Y-67718352D01*
X177407188Y-67632188D01*
X177493352Y-67517088D01*
X177511679Y-67467953D01*
X177553550Y-67412019D01*
X177619014Y-67387602D01*
X177687287Y-67402453D01*
X177704019Y-67413430D01*
X177774071Y-67467953D01*
X177881368Y-67551466D01*
X177881374Y-67551470D01*
X177934517Y-67580229D01*
X177984107Y-67629447D01*
X177999500Y-67689284D01*
X177999500Y-69929191D01*
X177979815Y-69996230D01*
X177963181Y-70016872D01*
X161366871Y-86613181D01*
X161305548Y-86646666D01*
X161279190Y-86649500D01*
X160105439Y-86649500D01*
X160105420Y-86649500D01*
X160102128Y-86649501D01*
X160098848Y-86649853D01*
X160098840Y-86649854D01*
X160042515Y-86655909D01*
X159907669Y-86706204D01*
X159792454Y-86792454D01*
X159706204Y-86907668D01*
X159685997Y-86961848D01*
X159655909Y-87042517D01*
X159649500Y-87102127D01*
X159649500Y-87105448D01*
X159649500Y-87105449D01*
X159649500Y-88894560D01*
X159649500Y-88894578D01*
X159649501Y-88897872D01*
X159649853Y-88901152D01*
X159649854Y-88901159D01*
X159655909Y-88957484D01*
X159672314Y-89001468D01*
X159706204Y-89092331D01*
X159792454Y-89207546D01*
X159907669Y-89293796D01*
X160019907Y-89335658D01*
X160039082Y-89342810D01*
X160095016Y-89384681D01*
X160119433Y-89450146D01*
X160104581Y-89518419D01*
X160083431Y-89546673D01*
X159961503Y-89668601D01*
X159825965Y-89862170D01*
X159726097Y-90076336D01*
X159664936Y-90304592D01*
X159644340Y-90540000D01*
X159664936Y-90775407D01*
X159688682Y-90864027D01*
X159726097Y-91003663D01*
X159825965Y-91217830D01*
X159961505Y-91411401D01*
X160128599Y-91578495D01*
X160314160Y-91708426D01*
X160357783Y-91763002D01*
X160364976Y-91832501D01*
X160333454Y-91894855D01*
X160314158Y-91911575D01*
X160191107Y-91997737D01*
X160128595Y-92041508D01*
X159961505Y-92208598D01*
X159825965Y-92402170D01*
X159726097Y-92616336D01*
X159664936Y-92844592D01*
X159644340Y-93080000D01*
X159664936Y-93315407D01*
X159668193Y-93327561D01*
X159726097Y-93543663D01*
X159825965Y-93757830D01*
X159961505Y-93951401D01*
X160128599Y-94118495D01*
X160314160Y-94248426D01*
X160357783Y-94303002D01*
X160364976Y-94372501D01*
X160333454Y-94434855D01*
X160314159Y-94451575D01*
X160128595Y-94581508D01*
X159961505Y-94748598D01*
X159825965Y-94942170D01*
X159726097Y-95156336D01*
X159664936Y-95384592D01*
X159644340Y-95619999D01*
X159664936Y-95855407D01*
X159697613Y-95977358D01*
X159726097Y-96083663D01*
X159825965Y-96297830D01*
X159961505Y-96491401D01*
X160128599Y-96658495D01*
X160314160Y-96788426D01*
X160357783Y-96843002D01*
X160364976Y-96912501D01*
X160333454Y-96974855D01*
X160314158Y-96991575D01*
X160128761Y-97121392D01*
X160128595Y-97121508D01*
X159961505Y-97288598D01*
X159825965Y-97482170D01*
X159726097Y-97696336D01*
X159664936Y-97924592D01*
X159644340Y-98159999D01*
X159664936Y-98395407D01*
X159709709Y-98562502D01*
X159726097Y-98623663D01*
X159825965Y-98837830D01*
X159961505Y-99031401D01*
X160128599Y-99198495D01*
X160314160Y-99328426D01*
X160357783Y-99383002D01*
X160364976Y-99452501D01*
X160333454Y-99514855D01*
X160314158Y-99531575D01*
X160140269Y-99653334D01*
X160128595Y-99661508D01*
X159961505Y-99828598D01*
X159825965Y-100022170D01*
X159726097Y-100236336D01*
X159664936Y-100464592D01*
X159644340Y-100700000D01*
X159664936Y-100935407D01*
X159672394Y-100963240D01*
X159726097Y-101163663D01*
X159825965Y-101377830D01*
X159961505Y-101571401D01*
X160128599Y-101738495D01*
X160314160Y-101868426D01*
X160357783Y-101923002D01*
X160364976Y-101992501D01*
X160333454Y-102054855D01*
X160314159Y-102071575D01*
X160128595Y-102201508D01*
X159961505Y-102368598D01*
X159825965Y-102562170D01*
X159726097Y-102776336D01*
X159664936Y-103004592D01*
X159644340Y-103240000D01*
X159150500Y-103240000D01*
X159150500Y-80653000D01*
X162539500Y-80653000D01*
X162539664Y-80655249D01*
X162539665Y-80655259D01*
X162554402Y-80856617D01*
X162613616Y-81122438D01*
X162662944Y-81251410D01*
X162710907Y-81376814D01*
X162844196Y-81614310D01*
X162927420Y-81722088D01*
X163010645Y-81829869D01*
X163206704Y-82018894D01*
X163428199Y-82177359D01*
X163557906Y-82244046D01*
X163670403Y-82301885D01*
X163928159Y-82389819D01*
X163928161Y-82389819D01*
X163928163Y-82389820D01*
X164195970Y-82439286D01*
X164468130Y-82449232D01*
X164468130Y-82449231D01*
X164468131Y-82449232D01*
X164738839Y-82419446D01*
X165002326Y-82350562D01*
X165252975Y-82244047D01*
X165485444Y-82102173D01*
X165694779Y-81927963D01*
X165876518Y-81725131D01*
X166026788Y-81497998D01*
X166142386Y-81251406D01*
X166220847Y-80990611D01*
X166260500Y-80721171D01*
X166260500Y-79997000D01*
X166245597Y-79793384D01*
X166215748Y-79659389D01*
X166186383Y-79527561D01*
X166137057Y-79398594D01*
X166089093Y-79273186D01*
X165955804Y-79035690D01*
X165848023Y-78896110D01*
X165789354Y-78820130D01*
X165593295Y-78631105D01*
X165371800Y-78472640D01*
X165129602Y-78348117D01*
X165129598Y-78348115D01*
X165129597Y-78348115D01*
X164986913Y-78299438D01*
X164871836Y-78260179D01*
X164604029Y-78210713D01*
X164331869Y-78200767D01*
X164061162Y-78230553D01*
X163797674Y-78299438D01*
X163547024Y-78405953D01*
X163314556Y-78547826D01*
X163105223Y-78722035D01*
X162923480Y-78924871D01*
X162773210Y-79152005D01*
X162657615Y-79398589D01*
X162579153Y-79659388D01*
X162579153Y-79659389D01*
X162539500Y-79928829D01*
X162539500Y-80653000D01*
X159150500Y-80653000D01*
X159150500Y-59203000D01*
X171989500Y-59203000D01*
X171989664Y-59205249D01*
X171989665Y-59205259D01*
X172004402Y-59406617D01*
X172063616Y-59672438D01*
X172112944Y-59801410D01*
X172160907Y-59926814D01*
X172294196Y-60164310D01*
X172377420Y-60272088D01*
X172460645Y-60379869D01*
X172656704Y-60568894D01*
X172878199Y-60727359D01*
X173007906Y-60794046D01*
X173120403Y-60851885D01*
X173378159Y-60939819D01*
X173378161Y-60939819D01*
X173378163Y-60939820D01*
X173645970Y-60989286D01*
X173918130Y-60999232D01*
X173918130Y-60999231D01*
X173918131Y-60999232D01*
X174188839Y-60969446D01*
X174452326Y-60900562D01*
X174702975Y-60794047D01*
X174935444Y-60652173D01*
X175144779Y-60477963D01*
X175326518Y-60275131D01*
X175476788Y-60047998D01*
X175592386Y-59801406D01*
X175670847Y-59540611D01*
X175710500Y-59271171D01*
X175710500Y-59203000D01*
X181589500Y-59203000D01*
X181589664Y-59205249D01*
X181589665Y-59205259D01*
X181604402Y-59406617D01*
X181663616Y-59672438D01*
X181712944Y-59801410D01*
X181760907Y-59926814D01*
X181894196Y-60164310D01*
X181977420Y-60272088D01*
X182060645Y-60379869D01*
X182256704Y-60568894D01*
X182478199Y-60727359D01*
X182607906Y-60794046D01*
X182720403Y-60851885D01*
X182978159Y-60939819D01*
X182978161Y-60939819D01*
X182978163Y-60939820D01*
X183245970Y-60989286D01*
X183518130Y-60999232D01*
X183518130Y-60999231D01*
X183518131Y-60999232D01*
X183788839Y-60969446D01*
X184052326Y-60900562D01*
X184302975Y-60794047D01*
X184535444Y-60652173D01*
X184744779Y-60477963D01*
X184926518Y-60275131D01*
X185076788Y-60047998D01*
X185192386Y-59801406D01*
X185270847Y-59540611D01*
X185310500Y-59271171D01*
X185310500Y-58547000D01*
X185295597Y-58343384D01*
X185265748Y-58209389D01*
X185236383Y-58077561D01*
X185187057Y-57948594D01*
X185139093Y-57823186D01*
X185005804Y-57585690D01*
X184898023Y-57446110D01*
X184839354Y-57370130D01*
X184643295Y-57181105D01*
X184421800Y-57022640D01*
X184179602Y-56898117D01*
X184179598Y-56898115D01*
X184179597Y-56898115D01*
X184036913Y-56849438D01*
X183921836Y-56810179D01*
X183654029Y-56760713D01*
X183381869Y-56750767D01*
X183111162Y-56780553D01*
X182847674Y-56849438D01*
X182597024Y-56955953D01*
X182364556Y-57097826D01*
X182155223Y-57272035D01*
X181973480Y-57474871D01*
X181823210Y-57702005D01*
X181707615Y-57948589D01*
X181629153Y-58209388D01*
X181629153Y-58209389D01*
X181589500Y-58478829D01*
X181589500Y-59203000D01*
X175710500Y-59203000D01*
X175710500Y-58547000D01*
X175695597Y-58343384D01*
X175665748Y-58209389D01*
X175636383Y-58077561D01*
X175587057Y-57948594D01*
X175539093Y-57823186D01*
X175405804Y-57585690D01*
X175298023Y-57446110D01*
X175239354Y-57370130D01*
X175043295Y-57181105D01*
X174821800Y-57022640D01*
X174579602Y-56898117D01*
X174579598Y-56898115D01*
X174579597Y-56898115D01*
X174436913Y-56849438D01*
X174321836Y-56810179D01*
X174054029Y-56760713D01*
X173781869Y-56750767D01*
X173511162Y-56780553D01*
X173247674Y-56849438D01*
X172997024Y-56955953D01*
X172764556Y-57097826D01*
X172555223Y-57272035D01*
X172373480Y-57474871D01*
X172223210Y-57702005D01*
X172107615Y-57948589D01*
X172029153Y-58209388D01*
X172029153Y-58209389D01*
X171989500Y-58478829D01*
X171989500Y-59203000D01*
X159150500Y-59203000D01*
X159150500Y-46274500D01*
X159170185Y-46207461D01*
X159222989Y-46161706D01*
X159274500Y-46150500D01*
X198025500Y-46150500D01*
X198092539Y-46170185D01*
G37*
%TD.AperFunction*%
%TA.AperFunction,Conductor*%
G36*
X177667560Y-143070185D02*
G01*
X177713315Y-143122989D01*
X177723259Y-143192147D01*
X177694234Y-143255703D01*
X177681053Y-143268790D01*
X177539601Y-143389601D01*
X177379566Y-143576978D01*
X177250817Y-143787078D01*
X177156516Y-144014738D01*
X177098993Y-144254343D01*
X177079659Y-144500000D01*
X177098993Y-144745656D01*
X177156516Y-144985261D01*
X177203666Y-145099090D01*
X177250816Y-145212920D01*
X177379567Y-145423023D01*
X177539601Y-145610399D01*
X177726977Y-145770433D01*
X177937080Y-145899184D01*
X177965460Y-145910939D01*
X178019863Y-145954780D01*
X178041928Y-146021074D01*
X178024649Y-146088774D01*
X177973511Y-146136384D01*
X177918007Y-146149500D01*
X168531993Y-146149500D01*
X168464954Y-146129815D01*
X168419199Y-146077011D01*
X168409255Y-146007853D01*
X168438280Y-145944297D01*
X168484538Y-145910939D01*
X168512920Y-145899184D01*
X168723023Y-145770433D01*
X168910399Y-145610399D01*
X169070433Y-145423023D01*
X169199184Y-145212920D01*
X169293483Y-144985262D01*
X169351007Y-144745655D01*
X169370341Y-144500000D01*
X169351007Y-144254345D01*
X169293483Y-144014738D01*
X169292604Y-144011075D01*
X169296095Y-143941292D01*
X169325495Y-143894449D01*
X170133126Y-143086819D01*
X170194450Y-143053334D01*
X170220808Y-143050500D01*
X177600521Y-143050500D01*
X177667560Y-143070185D01*
G37*
%TD.AperFunction*%
%TA.AperFunction,Conductor*%
G36*
X188091414Y-143570185D02*
G01*
X188137169Y-143622989D01*
X188147113Y-143692147D01*
X188130102Y-143739290D01*
X188100817Y-143787078D01*
X188006516Y-144014738D01*
X187948993Y-144254343D01*
X187929659Y-144500000D01*
X187948993Y-144745656D01*
X188006516Y-144985261D01*
X188053666Y-145099090D01*
X188100816Y-145212920D01*
X188229567Y-145423023D01*
X188389601Y-145610399D01*
X188576977Y-145770433D01*
X188787080Y-145899184D01*
X188815460Y-145910939D01*
X188869863Y-145954780D01*
X188891928Y-146021074D01*
X188874649Y-146088774D01*
X188823511Y-146136384D01*
X188768007Y-146149500D01*
X179381993Y-146149500D01*
X179314954Y-146129815D01*
X179269199Y-146077011D01*
X179259255Y-146007853D01*
X179288280Y-145944297D01*
X179334538Y-145910939D01*
X179362920Y-145899184D01*
X179573023Y-145770433D01*
X179760399Y-145610399D01*
X179920433Y-145423023D01*
X180049184Y-145212920D01*
X180143483Y-144985262D01*
X180201007Y-144745655D01*
X180220341Y-144500000D01*
X180201007Y-144254345D01*
X180143483Y-144014738D01*
X180142604Y-144011075D01*
X180146095Y-143941292D01*
X180175493Y-143894451D01*
X180483129Y-143586816D01*
X180544450Y-143553334D01*
X180570808Y-143550500D01*
X188024375Y-143550500D01*
X188091414Y-143570185D01*
G37*
%TD.AperFunction*%
%TA.AperFunction,Conductor*%
G36*
X195159316Y-132310185D02*
G01*
X195193851Y-132343376D01*
X195306651Y-132504469D01*
X195311505Y-132511401D01*
X195478599Y-132678495D01*
X195664160Y-132808426D01*
X195707783Y-132863002D01*
X195714976Y-132932501D01*
X195683454Y-132994855D01*
X195664159Y-133011575D01*
X195478595Y-133141508D01*
X195311505Y-133308598D01*
X195175965Y-133502170D01*
X195076097Y-133716336D01*
X195038248Y-133857593D01*
X195001883Y-133917254D01*
X194939036Y-133947783D01*
X194918473Y-133949500D01*
X191089000Y-133949500D01*
X191021961Y-133929815D01*
X190976206Y-133877011D01*
X190965000Y-133825500D01*
X190965000Y-133350000D01*
X190056520Y-133350000D01*
X190084755Y-133289998D01*
X190113635Y-133138607D01*
X190103957Y-132984789D01*
X190060162Y-132850000D01*
X190965000Y-132850000D01*
X190965000Y-132414500D01*
X190984685Y-132347461D01*
X191037489Y-132301706D01*
X191089000Y-132290500D01*
X195092277Y-132290500D01*
X195159316Y-132310185D01*
G37*
%TD.AperFunction*%
%TA.AperFunction,Conductor*%
G36*
X189431904Y-102380916D02*
G01*
X189453807Y-102406192D01*
X189491021Y-102463153D01*
X189648216Y-102633913D01*
X189702163Y-102675901D01*
X189742975Y-102732611D01*
X189750000Y-102773754D01*
X189750000Y-103641335D01*
X189726341Y-103628329D01*
X189577061Y-103590000D01*
X189461625Y-103590000D01*
X189347094Y-103604469D01*
X189250000Y-103642911D01*
X189250000Y-102785000D01*
X189195390Y-102785000D01*
X189128351Y-102765315D01*
X189082596Y-102712511D01*
X189072652Y-102643353D01*
X189101677Y-102579797D01*
X189104160Y-102577017D01*
X189104975Y-102576132D01*
X189208979Y-102463153D01*
X189246192Y-102406194D01*
X189299337Y-102360838D01*
X189368568Y-102351414D01*
X189431904Y-102380916D01*
G37*
%TD.AperFunction*%
%TA.AperFunction,Conductor*%
G36*
X191154150Y-103076882D02*
G01*
X191171113Y-103091059D01*
X191913181Y-103833126D01*
X191946666Y-103894449D01*
X191949500Y-103920807D01*
X191949500Y-126629191D01*
X191929815Y-126696230D01*
X191913181Y-126716872D01*
X190105550Y-128524502D01*
X190044227Y-128557987D01*
X189988922Y-128557395D01*
X189745656Y-128498993D01*
X189622827Y-128489325D01*
X189500000Y-128479659D01*
X189499999Y-128479659D01*
X189254343Y-128498993D01*
X189014738Y-128556516D01*
X188787078Y-128650817D01*
X188576978Y-128779566D01*
X188389601Y-128939601D01*
X188229566Y-129126978D01*
X188100817Y-129337078D01*
X188006516Y-129564738D01*
X187980309Y-129673902D01*
X187948993Y-129804345D01*
X187929659Y-130050000D01*
X187942421Y-130212157D01*
X187942559Y-130213904D01*
X187928195Y-130282281D01*
X187879143Y-130332038D01*
X187810978Y-130347377D01*
X187745341Y-130323428D01*
X187731260Y-130311314D01*
X187386819Y-129966873D01*
X187353334Y-129905550D01*
X187350500Y-129879192D01*
X187350500Y-125093228D01*
X187995308Y-125093228D01*
X188009506Y-125339474D01*
X188063732Y-125580094D01*
X188063733Y-125580098D01*
X188063734Y-125580099D01*
X188156532Y-125808634D01*
X188285411Y-126018945D01*
X188446908Y-126205382D01*
X188636687Y-126362939D01*
X188849650Y-126487385D01*
X188849651Y-126487385D01*
X188849654Y-126487387D01*
X189080073Y-126575375D01*
X189080074Y-126575375D01*
X189080079Y-126575377D01*
X189321785Y-126624553D01*
X189568278Y-126633592D01*
X189812936Y-126602250D01*
X190049191Y-126531370D01*
X190270697Y-126422856D01*
X190471505Y-126279621D01*
X190646223Y-126105512D01*
X190790158Y-125905205D01*
X190899445Y-125684079D01*
X190971149Y-125448074D01*
X191003344Y-125203526D01*
X191005141Y-125130000D01*
X190984930Y-124884171D01*
X190984930Y-124884169D01*
X190924841Y-124644943D01*
X190826487Y-124418747D01*
X190826486Y-124418744D01*
X190692508Y-124211645D01*
X190526504Y-124029210D01*
X190332932Y-123876336D01*
X190116992Y-123757131D01*
X190060299Y-123737055D01*
X189884480Y-123674792D01*
X189641650Y-123631539D01*
X189518326Y-123630032D01*
X189395007Y-123628525D01*
X189395006Y-123628525D01*
X189395003Y-123628525D01*
X189151188Y-123665834D01*
X188916732Y-123742466D01*
X188697947Y-123856359D01*
X188500695Y-124004458D01*
X188330286Y-124182783D01*
X188191288Y-124386547D01*
X188087435Y-124610276D01*
X188021518Y-124847963D01*
X187995308Y-125093228D01*
X187350500Y-125093228D01*
X187350500Y-121749999D01*
X187929659Y-121749999D01*
X187948993Y-121995656D01*
X188006516Y-122235261D01*
X188053666Y-122349091D01*
X188100816Y-122462920D01*
X188229567Y-122673023D01*
X188389601Y-122860399D01*
X188576977Y-123020433D01*
X188787080Y-123149184D01*
X189014738Y-123243483D01*
X189254345Y-123301007D01*
X189500000Y-123320341D01*
X189745655Y-123301007D01*
X189985262Y-123243483D01*
X190212920Y-123149184D01*
X190423023Y-123020433D01*
X190610399Y-122860399D01*
X190770433Y-122673023D01*
X190899184Y-122462920D01*
X190993483Y-122235262D01*
X191051007Y-121995655D01*
X191070341Y-121750000D01*
X191051007Y-121504345D01*
X190993483Y-121264738D01*
X190899184Y-121037080D01*
X190770433Y-120826977D01*
X190610399Y-120639601D01*
X190423023Y-120479567D01*
X190212920Y-120350816D01*
X190098835Y-120303560D01*
X190044433Y-120259720D01*
X190022368Y-120193426D01*
X190039647Y-120125726D01*
X190090785Y-120078116D01*
X190146289Y-120065000D01*
X190509518Y-120065000D01*
X190516132Y-120064645D01*
X190572371Y-120058599D01*
X190707089Y-120008352D01*
X190822188Y-119922188D01*
X190908352Y-119807089D01*
X190958599Y-119672371D01*
X190964645Y-119616132D01*
X190965000Y-119609518D01*
X190965000Y-118900000D01*
X190056520Y-118900000D01*
X190084755Y-118839998D01*
X190113635Y-118688607D01*
X190103957Y-118534789D01*
X190060162Y-118400000D01*
X190965000Y-118400000D01*
X190965000Y-117690481D01*
X190964645Y-117683867D01*
X190958599Y-117627628D01*
X190908352Y-117492910D01*
X190822188Y-117377811D01*
X190707089Y-117291647D01*
X190572371Y-117241400D01*
X190516132Y-117235354D01*
X190509518Y-117235000D01*
X190266999Y-117235000D01*
X190199960Y-117215315D01*
X190154205Y-117162511D01*
X190144261Y-117093353D01*
X190173286Y-117029797D01*
X190205845Y-117006317D01*
X190204599Y-117004283D01*
X190212920Y-116999184D01*
X190423023Y-116870433D01*
X190610399Y-116710399D01*
X190770433Y-116523023D01*
X190899184Y-116312920D01*
X190993483Y-116085262D01*
X191051007Y-115845655D01*
X191070341Y-115600000D01*
X191051007Y-115354345D01*
X190993483Y-115114738D01*
X190899184Y-114887080D01*
X190770433Y-114676977D01*
X190610399Y-114489601D01*
X190423023Y-114329567D01*
X190212920Y-114200816D01*
X190047682Y-114132372D01*
X189985261Y-114106516D01*
X189745656Y-114048993D01*
X189500000Y-114029659D01*
X189254343Y-114048993D01*
X189014738Y-114106516D01*
X188787078Y-114200817D01*
X188576978Y-114329566D01*
X188389601Y-114489601D01*
X188229566Y-114676978D01*
X188100817Y-114887078D01*
X188006516Y-115114738D01*
X187948993Y-115354343D01*
X187929659Y-115600000D01*
X187948993Y-115845656D01*
X188006516Y-116085261D01*
X188053666Y-116199091D01*
X188100816Y-116312920D01*
X188229567Y-116523023D01*
X188389601Y-116710399D01*
X188576977Y-116870433D01*
X188787080Y-116999184D01*
X188795401Y-117004283D01*
X188793677Y-117007094D01*
X188834858Y-117040281D01*
X188856922Y-117106575D01*
X188839642Y-117174275D01*
X188788504Y-117221885D01*
X188733001Y-117235000D01*
X188490482Y-117235000D01*
X188483867Y-117235354D01*
X188427628Y-117241400D01*
X188292910Y-117291647D01*
X188177811Y-117377811D01*
X188091647Y-117492910D01*
X188041400Y-117627628D01*
X188035354Y-117683867D01*
X188035000Y-117690481D01*
X188035000Y-118400000D01*
X188943480Y-118400000D01*
X188915245Y-118460002D01*
X188886365Y-118611393D01*
X188896043Y-118765211D01*
X188939838Y-118900000D01*
X188035000Y-118900000D01*
X188035000Y-119609518D01*
X188035354Y-119616132D01*
X188041400Y-119672371D01*
X188091647Y-119807089D01*
X188177811Y-119922188D01*
X188292910Y-120008352D01*
X188427628Y-120058599D01*
X188483867Y-120064645D01*
X188490482Y-120065000D01*
X188853711Y-120065000D01*
X188920750Y-120084685D01*
X188966505Y-120137489D01*
X188976449Y-120206647D01*
X188947424Y-120270203D01*
X188901164Y-120303561D01*
X188787078Y-120350817D01*
X188576978Y-120479566D01*
X188389601Y-120639601D01*
X188229566Y-120826978D01*
X188100817Y-121037078D01*
X188006516Y-121264738D01*
X187948993Y-121504343D01*
X187929659Y-121749999D01*
X187350500Y-121749999D01*
X187350500Y-110643228D01*
X187995308Y-110643228D01*
X188009506Y-110889474D01*
X188063732Y-111130094D01*
X188063733Y-111130098D01*
X188063734Y-111130099D01*
X188156532Y-111358634D01*
X188285411Y-111568945D01*
X188446908Y-111755382D01*
X188636687Y-111912939D01*
X188849650Y-112037385D01*
X188849651Y-112037385D01*
X188849654Y-112037387D01*
X189080073Y-112125375D01*
X189080074Y-112125375D01*
X189080079Y-112125377D01*
X189321785Y-112174553D01*
X189568278Y-112183592D01*
X189812936Y-112152250D01*
X190049191Y-112081370D01*
X190270697Y-111972856D01*
X190471505Y-111829621D01*
X190646223Y-111655512D01*
X190790158Y-111455205D01*
X190899445Y-111234079D01*
X190971149Y-110998074D01*
X191003344Y-110753526D01*
X191005141Y-110680000D01*
X190984930Y-110434171D01*
X190984930Y-110434169D01*
X190924841Y-110194943D01*
X190826487Y-109968747D01*
X190826486Y-109968744D01*
X190692508Y-109761645D01*
X190526504Y-109579210D01*
X190332932Y-109426336D01*
X190116992Y-109307131D01*
X190056756Y-109285800D01*
X189884480Y-109224792D01*
X189641650Y-109181539D01*
X189518326Y-109180032D01*
X189395007Y-109178525D01*
X189395006Y-109178525D01*
X189395003Y-109178525D01*
X189151188Y-109215834D01*
X188916732Y-109292466D01*
X188697947Y-109406359D01*
X188500695Y-109554458D01*
X188330286Y-109732783D01*
X188191288Y-109936547D01*
X188087435Y-110160276D01*
X188021518Y-110397963D01*
X187995308Y-110643228D01*
X187350500Y-110643228D01*
X187350500Y-104170806D01*
X187370185Y-104103767D01*
X187386814Y-104083130D01*
X187823321Y-103646623D01*
X187884642Y-103613140D01*
X187954334Y-103618124D01*
X188010267Y-103659996D01*
X188034684Y-103725460D01*
X188035000Y-103734306D01*
X188035000Y-103950000D01*
X188943480Y-103950000D01*
X188915245Y-104010002D01*
X188886365Y-104161393D01*
X188896043Y-104315211D01*
X188939838Y-104450000D01*
X188035000Y-104450000D01*
X188035000Y-105159518D01*
X188035354Y-105166132D01*
X188041400Y-105222371D01*
X188091647Y-105357089D01*
X188177811Y-105472188D01*
X188292910Y-105558352D01*
X188427628Y-105608599D01*
X188483867Y-105614645D01*
X188490482Y-105615000D01*
X188853711Y-105615000D01*
X188920750Y-105634685D01*
X188966505Y-105687489D01*
X188976449Y-105756647D01*
X188947424Y-105820203D01*
X188901164Y-105853561D01*
X188787078Y-105900817D01*
X188576978Y-106029566D01*
X188389601Y-106189601D01*
X188229566Y-106376978D01*
X188100817Y-106587078D01*
X188006516Y-106814738D01*
X187948993Y-107054343D01*
X187929659Y-107300000D01*
X187948993Y-107545656D01*
X188006516Y-107785261D01*
X188053666Y-107899091D01*
X188100816Y-108012920D01*
X188229567Y-108223023D01*
X188389601Y-108410399D01*
X188576977Y-108570433D01*
X188787080Y-108699184D01*
X189014738Y-108793483D01*
X189254345Y-108851007D01*
X189500000Y-108870341D01*
X189745655Y-108851007D01*
X189985262Y-108793483D01*
X190212920Y-108699184D01*
X190423023Y-108570433D01*
X190610399Y-108410399D01*
X190770433Y-108223023D01*
X190899184Y-108012920D01*
X190993483Y-107785262D01*
X191051007Y-107545655D01*
X191070341Y-107300000D01*
X191051007Y-107054345D01*
X190993483Y-106814738D01*
X190899184Y-106587080D01*
X190770433Y-106376977D01*
X190610399Y-106189601D01*
X190423023Y-106029567D01*
X190212920Y-105900816D01*
X190098835Y-105853560D01*
X190044433Y-105809720D01*
X190022368Y-105743426D01*
X190039647Y-105675726D01*
X190090785Y-105628116D01*
X190146289Y-105615000D01*
X190509518Y-105615000D01*
X190516132Y-105614645D01*
X190572371Y-105608599D01*
X190707089Y-105558352D01*
X190822188Y-105472188D01*
X190908352Y-105357089D01*
X190958599Y-105222371D01*
X190964645Y-105166132D01*
X190965000Y-105159518D01*
X190965000Y-104450000D01*
X190056520Y-104450000D01*
X190084755Y-104389998D01*
X190113635Y-104238607D01*
X190103957Y-104084789D01*
X190060162Y-103950000D01*
X190965000Y-103950000D01*
X190965000Y-103240481D01*
X190964646Y-103233874D01*
X190960143Y-103191998D01*
X190972547Y-103123238D01*
X191020156Y-103072100D01*
X191087855Y-103054819D01*
X191154150Y-103076882D01*
G37*
%TD.AperFunction*%
%TD*%
M02*
