M48
; DRILL file {KiCad 7.0.2-0} date 2023 October 10, Tuesday 18:06:41
; FORMAT={-:-/ absolute / inch / decimal}
; #@! TF.CreationDate,2023-10-10T18:06:41-05:00
; #@! TF.GenerationSoftware,Kicad,Pcbnew,7.0.2-0
; #@! TF.FileFunction,Plated,1,2,PTH
FMAT,2
INCH
; #@! TA.AperFunction,Plated,PTH,ViaDrill
T1C0.0157
; #@! TA.AperFunction,Plated,PTH,ComponentDrill
T2C0.0394
; #@! TA.AperFunction,Plated,PTH,ComponentDrill
T3C0.0433
; #@! TA.AperFunction,Plated,PTH,ComponentDrill
T4C0.0480
; #@! TA.AperFunction,Plated,PTH,ComponentDrill
T5C0.0559
; #@! TA.AperFunction,Plated,PTH,ComponentDrill
T6C0.0563
%
G90
G05
T1
X6.4941Y-4.0
X6.5374Y-4.1024
X6.5374Y-4.6713
X6.563Y-3.3937
X6.6161Y-3.6102
X6.6752Y-5.2402
X6.9173Y-5.6811
X6.935Y-2.5413
X6.9646Y-4.6713
X6.9705Y-5.2402
X7.2382Y-4.0
X7.3071Y-3.3898
X7.3386Y-5.6811
X7.5276Y-4.6713
X7.5315Y-5.2402
T2
X6.3386Y-3.4646
X6.3386Y-3.5646
X6.3386Y-3.6646
X6.3386Y-3.7646
X6.3386Y-3.8646
X6.3386Y-3.9646
X6.3386Y-4.0646
X6.563Y-3.4577
X6.563Y-4.001
X6.6614Y-3.4577
X6.6614Y-4.001
X6.7598Y-3.4577
X6.7598Y-4.001
X6.935Y-2.6132
X7.0335Y-2.6132
X7.1319Y-2.6132
X7.3071Y-3.4577
X7.3071Y-4.0
X7.4055Y-3.4577
X7.4055Y-4.0
X7.5039Y-3.4577
X7.5039Y-4.0
X7.7303Y-5.0827
X7.7303Y-5.1827
X7.7303Y-5.2827
X7.7303Y-5.3827
X7.7303Y-5.4827
X7.7303Y-5.5827
X7.7303Y-5.6827
T4
X6.6063Y-4.1024
X6.6063Y-4.6713
X6.6063Y-5.2402
X7.0335Y-4.6713
X7.0335Y-5.2402
X7.4606Y-4.1024
X7.4606Y-4.6713
X7.4606Y-5.2402
T5
X6.6063Y-4.2244
X6.6063Y-4.7933
X6.6063Y-5.3622
X7.0335Y-4.7933
X7.0335Y-5.3622
X7.4606Y-4.2244
X7.4606Y-4.7933
X7.4606Y-5.3622
T6
X6.6063Y-4.5512
X6.6063Y-5.1201
X6.6063Y-5.689
X7.0335Y-5.1201
X7.0335Y-5.689
X7.4606Y-4.5512
X7.4606Y-5.1201
X7.4606Y-5.689
T3
G00X6.4724Y-3.1762
M15
G01X6.4724Y-3.1486
M16
G05
G00X6.4724Y-3.7195
M15
G01X6.4724Y-3.6919
M16
G05
G00X6.8445Y-2.3317
M15
G01X6.8445Y-2.3041
M16
G05
G00X6.8504Y-3.1762
M15
G01X6.8504Y-3.1486
M16
G05
G00X6.8504Y-3.7195
M15
G01X6.8504Y-3.6919
M16
G05
G00X7.2165Y-3.1762
M15
G01X7.2165Y-3.1486
M16
G05
G00X7.2165Y-3.7185
M15
G01X7.2165Y-3.6909
M16
G05
G00X7.2224Y-2.3317
M15
G01X7.2224Y-2.3041
M16
G05
G00X7.5945Y-3.1762
M15
G01X7.5945Y-3.1486
M16
G05
G00X7.5945Y-3.7185
M15
G01X7.5945Y-3.6909
M16
G05
T0
M30
